<svg width="829" height="646" viewBox="0 0 829 646" fill="none" xmlns="http://www.w3.org/2000/svg">
<g filter="url(#filter0_d)">
<path d="M105.387 476.1L386.507 638.407C388.394 639.502 390.536 640.079 392.717 640.079C394.898 640.079 397.04 639.502 398.926 638.407L791.375 409.579C793.244 408.49 794.796 406.929 795.874 405.052C796.953 403.175 797.52 401.047 797.52 398.882C797.52 396.717 796.953 394.59 795.874 392.713C794.796 390.836 793.244 389.275 791.375 388.185L504.41 221.444C502.527 220.353 500.389 219.779 498.213 219.779C496.037 219.779 493.899 220.353 492.016 221.444L97.0103 450.296C95.099 451.407 93.5201 453.011 92.438 454.939C91.3559 456.868 90.8101 459.052 90.8573 461.264C90.9045 463.475 91.5431 465.633 92.7066 467.514C93.8701 469.395 95.5159 470.929 97.4729 471.958L105.387 476.1Z" fill="url(#paint0_linear)"/>
<path d="M388.918 595.132L566.162 495.984L479.159 447.664L324.074 550.906C339.463 560.263 373.797 585.36 388.918 595.132Z" fill="url(#paint1_linear)"/>
<path d="M594.968 113.305C594.968 113.305 604.172 120.274 607.459 127.925C610.747 135.576 610.941 136.015 616.542 139.767C622.142 143.52 620.219 147.077 618.466 151.682C616.712 156.288 615.178 157.068 619.245 161.112C623.311 165.157 627.743 168.081 624.651 172.345C621.558 176.61 618.977 177.365 622.216 182.092C625.454 186.819 629.521 189.256 627.475 193.691C627.475 193.691 592.679 199.88 569.279 192.326C545.878 184.772 558.686 169.689 559.246 169.105C559.806 168.52 571.056 136.794 571.056 136.794" fill="#3D467F"/>
<path d="M517.267 507.338L627.816 441.305L583.329 414.989L465.402 478.805C480.791 488.162 502.146 497.567 517.267 507.338Z" fill="url(#paint2_linear)"/>
<path d="M620.925 404.487C620.925 404.487 607.654 412.284 601.445 408.678C601.445 408.678 604.903 435.481 599.302 438.697C593.702 441.914 585.252 448.639 587.858 450.369C590.463 452.099 591.096 454.048 598.888 451.88C603.932 450.396 608.824 448.438 613.498 446.032C613.498 446.032 614.984 431.412 617.808 432.192C620.633 432.971 619.975 444.74 619.975 444.74L627.548 441.573L620.925 404.487Z" fill="#D5C1FC"/>
<path d="M597.549 392.718C597.549 392.718 584.278 400.515 578.069 396.909C578.069 396.909 581.527 423.712 575.926 426.928C570.326 430.145 561.876 436.87 564.482 438.6C567.087 440.33 567.72 442.279 575.512 440.111C580.556 438.627 585.448 436.669 590.122 434.263C590.122 434.263 591.608 419.643 594.432 420.422C597.257 421.202 596.6 432.971 596.6 432.971L604.172 429.804L597.549 392.718Z" fill="#D5C1FC"/>
<path d="M559.027 226.074C559.027 226.074 558.078 276.196 558.614 299.832C559.149 323.467 571.933 398.249 571.933 398.249C571.933 398.249 576.365 406.168 597.257 399.175L600.179 414.355C600.179 414.355 626.404 421.373 641.209 405.242C641.209 405.242 632.053 291.157 630.568 278.535C627.621 254.169 611.088 223.467 611.088 223.467" fill="#FB9CCB"/>
<path opacity="0.63" d="M583.718 249.271C583.596 247.346 580.577 247.346 580.723 249.271C584.213 299.45 589.716 349.418 597.232 399.175C597.525 401.075 600.422 400.271 600.13 398.371C592.663 348.841 587.192 299.141 583.718 249.271Z" fill="black"/>
<path d="M187.885 478.586L324.05 397.956L270.894 346.786L127.57 434.945C141.644 443.473 168.137 466.232 187.885 478.586Z" fill="url(#paint3_linear)"/>
<path d="M325.267 242.765V201.732C325.267 192.277 324.074 181.337 326.533 172.053C329.431 161.112 343.213 146.346 355.339 155.143C361.476 159.602 361.719 168.788 361.792 175.684C361.914 190.304 361.792 205.143 361.792 219.86C361.792 220.83 362.177 221.759 362.862 222.445C363.547 223.13 364.476 223.515 365.445 223.515C366.413 223.515 367.342 223.13 368.027 222.445C368.712 221.759 369.097 220.83 369.097 219.86C369.097 202.804 370.923 184.577 368.683 167.545C366.005 147.175 346.281 138.524 329.723 152.681C318.595 162.209 317.962 176.634 317.962 190.133V242.765C317.962 243.734 318.347 244.664 319.032 245.35C319.717 246.035 320.646 246.42 321.615 246.42C322.583 246.42 323.512 246.035 324.197 245.35C324.882 244.664 325.267 243.734 325.267 242.765Z" fill="#D5C1FC"/>
<path d="M283.848 219.665L387.506 160.138L421.279 176.025L324.391 256.021L283.848 219.665Z" fill="#FB9CCB"/>
<path opacity="0.63" d="M283.848 219.665L387.506 160.138L421.279 176.025L324.391 256.021L283.848 219.665Z" fill="black"/>
<path d="M327.069 236.064C330.089 234.261 421.498 176.488 421.498 176.488L451.571 328.17L324.05 397.981L327.069 236.064Z" fill="#FB9CCB"/>
<path d="M327.069 236.064L283.775 219.203L263.004 373.736L324.074 397.956" fill="#FB9CCB"/>
<path opacity="0.22" d="M327.069 236.064L283.775 219.203L263.004 373.736L324.074 397.956" fill="black"/>
<path d="M357.75 252.195V211.162C357.75 201.707 356.557 190.767 359.017 181.483C361.914 170.542 375.696 155.776 387.823 164.572C393.959 169.032 394.202 178.218 394.275 185.114C394.397 199.734 394.275 214.573 394.275 229.29C394.275 230.26 394.66 231.189 395.345 231.875C396.03 232.56 396.959 232.945 397.928 232.945C398.897 232.945 399.826 232.56 400.511 231.875C401.196 231.189 401.58 230.26 401.58 229.29C401.58 212.234 403.407 194.007 401.166 176.975C398.488 156.605 378.764 147.954 362.206 162.111C351.078 171.639 350.445 186.064 350.445 199.563V252.195C350.445 253.164 350.83 254.094 351.515 254.779C352.2 255.465 353.129 255.85 354.098 255.85C355.067 255.85 355.996 255.465 356.681 254.779C357.366 254.094 357.75 253.164 357.75 252.195Z" fill="#D5C1FC"/>
<path d="M245.448 438.186V381.265L296.364 352.805V409.36L245.448 438.186Z" fill="#3D467F"/>
<path d="M245.448 381.265L195.92 352.781C195.92 352.781 194.532 410.164 195.92 411.09C197.308 412.016 245.472 438.186 245.472 438.186L245.448 381.265Z" fill="#3D467F"/>
<path d="M195.92 352.781L245.448 322.493L296.388 352.781L245.448 381.265L195.92 352.781Z" fill="#FB9CCB"/>
<path d="M214.767 341.255L266.365 369.569V399.272L281.194 391.792V361.285L229.62 332.167L214.767 341.255Z" fill="#F3B496"/>
<path d="M795.514 410.944C795.191 410.944 794.882 411.072 794.653 411.301C794.425 411.529 794.297 411.839 794.297 412.162C794.297 412.485 794.425 412.795 794.653 413.024C794.882 413.252 795.191 413.38 795.514 413.38C795.837 413.38 796.147 413.252 796.375 413.024C796.604 412.795 796.732 412.485 796.732 412.162C796.732 411.839 796.604 411.529 796.375 411.301C796.147 411.072 795.837 410.944 795.514 410.944Z" fill="#8DFCF3"/>
<path d="M575.196 340.402L473.461 402.464L417.456 436.578C415.154 437.628 412.988 438.954 411.004 440.525C408.008 443.79 409.323 438.429 412.294 441.646C407.765 436.773 398.171 433.337 392.473 429.974L332.645 394.74V401.051L433.844 328.268L463.478 307.02C468.518 303.389 476.797 299.491 480.718 294.617C483.664 290.938 483.153 296.128 479.451 292.96C481.206 294.163 483.064 295.206 485.003 296.079L514.759 312.771L575.22 346.713C579.335 349.028 583.012 342.717 578.897 340.402L483.08 286.625C482.523 286.295 481.888 286.121 481.241 286.121C480.594 286.121 479.959 286.295 479.403 286.625L328.968 394.74C328.43 395.071 327.985 395.535 327.676 396.088C327.367 396.64 327.205 397.263 327.205 397.896C327.205 398.528 327.367 399.151 327.676 399.703C327.985 400.256 328.43 400.72 328.968 401.051L408.885 448.079C409.443 448.404 410.078 448.575 410.724 448.575C411.369 448.575 412.004 448.404 412.562 448.079L578.897 346.64C582.89 344.277 579.238 337.941 575.196 340.402Z" fill="#42210B"/>
<path d="M410.517 442.353L413.95 516.232" stroke="#42210B" stroke-miterlimit="10"/>
<path d="M330.965 401.1L339.488 450.54C341.168 460.286 339.999 477.002 348.984 482.655C365.883 493.303 383.975 502.343 401.386 512.139C405.16 514.258 410.395 518.815 414.924 518.547C417.359 518.401 420.5 516.11 422.546 515.184L533.801 465.696L555.57 455.949C558.005 454.877 562.485 453.853 564.409 452.026C567.014 449.589 566.844 445.423 567.38 441.963L571.763 414.599C575.22 393.034 578.41 371.397 582.111 349.857C583.183 343.667 584.546 337.673 586.032 331.46C587.517 325.246 586.032 327.464 590.147 322.785L599.619 312.137C600.007 311.738 600.301 311.256 600.478 310.728C600.654 310.2 600.71 309.638 600.639 309.085C600.569 308.533 600.375 308.003 600.072 307.536C599.769 307.068 599.364 306.676 598.888 306.386L550.31 281.606L517.973 265.036C514.077 263.038 507.6 257.726 503.071 257.483C497.763 257.068 485.393 265.548 481.96 269.3C477.796 273.857 478.112 283.774 477.528 289.866C475.775 307.532 475.385 325.466 474.338 343.204L470.564 406.29C470.272 410.993 477.577 410.968 477.869 406.29L484.565 295.348C484.93 289.11 485.904 285.602 486.513 278.682C486.513 277.658 487.828 272.639 486.513 274.71C485.198 276.781 488.948 273.516 490.068 272.858C494.208 270.251 499.808 267.985 503.339 264.549C501.488 266.303 499.053 262.697 503.339 265.67C506.39 267.508 509.563 269.136 512.836 270.543L542.421 285.699L595.236 312.771L594.505 307.02C590.244 311.893 583.767 316.767 580.796 322.517C577.826 328.268 576.998 337.698 575.707 344.447C573.272 357.337 571.519 370.446 569.449 383.434L560.05 441.378C559.834 443.374 559.517 445.359 559.101 447.323C558.881 448.176 562.242 445.325 559.393 446.349C554.888 447.957 550.554 450.296 546.195 452.221L435.865 501.368L417.578 509.507C416.062 509.919 414.616 510.56 413.293 511.408C411.661 513.162 415.874 512.943 414.851 511.286C412.27 506.997 399.511 502.66 395.371 500.248L366.784 484.166L354.487 477.245C353.343 476.588 352.052 475.978 351.03 475.296C349.009 474.102 351.298 475.686 351.614 476.636C349.423 470.033 349.179 462.016 347.937 455.291L338.197 399.248C337.394 394.618 330.357 396.592 331.16 401.197L330.965 401.1Z" fill="#42210B"/>
<path d="M508.087 257.312C508.087 257.312 499.199 260.333 502.487 270.811L574.66 305.826C574.66 305.826 586.129 305.387 586.275 294.496L508.087 257.312Z" fill="#A27CEF"/>
<path d="M357.288 543.62C361.43 543.62 364.787 540.064 364.787 535.677C364.787 531.29 361.43 527.733 357.288 527.733C353.146 527.733 349.788 531.29 349.788 535.677C349.788 540.064 353.146 543.62 357.288 543.62Z" fill="#42210B"/>
<path d="M413.95 569.668C418.092 569.668 421.45 566.112 421.45 561.725C421.45 557.338 418.092 553.781 413.95 553.781C409.808 553.781 406.45 557.338 406.45 561.725C406.45 566.112 409.808 569.668 413.95 569.668Z" fill="#42210B"/>
<path d="M558.638 503.927C562.78 503.927 566.137 500.371 566.137 495.984C566.137 491.596 562.78 488.04 558.638 488.04C554.495 488.04 551.138 491.596 551.138 495.984C551.138 500.371 554.495 503.927 558.638 503.927Z" fill="#42210B"/>
<path d="M355.267 412.357L362.961 486.359" stroke="#42210B" stroke-miterlimit="10"/>
<path d="M566.137 423.59C566.137 423.59 412.732 492.962 412.878 493.839L343.481 452.416L476.042 375.831L566.137 423.541" stroke="#42210B" stroke-miterlimit="10"/>
<path d="M441.125 429.852L443.754 501.783" stroke="#42210B" stroke-miterlimit="10"/>
<path d="M470.734 412.357L472.366 489.063" stroke="#42210B" stroke-miterlimit="10"/>
<path d="M508.623 388.015L503.704 475.126" stroke="#42210B" stroke-miterlimit="10"/>
<path d="M545.367 365.524L535.091 461.164" stroke="#42210B" stroke-miterlimit="10"/>
<path d="M572.225 385.286L479.281 337.064C479.281 337.064 338.465 423.151 338.465 423.59L413.146 467.45L571.665 392.303" stroke="#42210B" stroke-miterlimit="10"/>
<path d="M347.864 477.855L474.24 406.265L562.582 448.931L561.073 481.266L413.95 550.906L358.578 522.738L391.037 502.148L385.144 429.95" stroke="#42210B" stroke-miterlimit="10"/>
<path d="M513.566 307.922C513.322 310.066 501.756 419.545 501.756 419.545" stroke="#42210B" stroke-miterlimit="10"/>
<path d="M549.872 328.316L536.455 436.31" stroke="#42210B" stroke-miterlimit="10"/>
<path d="M448.625 316.401C448.625 318.058 450.792 419.545 450.792 419.545" stroke="#42210B" stroke-miterlimit="10"/>
<path d="M418.089 335.212C418.698 334.774 423.252 437.382 423.252 437.382" stroke="#42210B" stroke-miterlimit="10"/>
<path d="M385.607 358.555L392.23 436.31" stroke="#42210B" stroke-miterlimit="10"/>
<path d="M359.114 377.683C358.115 378.39 363.984 417.62 363.984 417.62" stroke="#42210B" stroke-miterlimit="10"/>
<path d="M404.746 365.792V342.084C404.746 336.626 404.064 330.29 405.476 325.027C407.156 318.692 415.216 310.163 422.107 315.28C425.662 317.863 425.784 323.175 425.833 327.147C425.833 335.651 425.833 344.204 425.833 352.683C425.889 353.203 426.135 353.684 426.524 354.033C426.912 354.383 427.417 354.576 427.939 354.576C428.462 354.576 428.966 354.383 429.355 354.033C429.743 353.684 429.989 353.203 430.045 352.683C430.045 342.766 431.092 332.288 429.802 322.444C428.243 310.675 416.848 305.68 407.302 313.843C400.874 319.35 400.509 327.683 400.509 335.48V365.89C400.565 366.41 400.811 366.891 401.2 367.24C401.588 367.59 402.092 367.783 402.615 367.783C403.138 367.783 403.642 367.59 404.031 367.24C404.419 366.891 404.665 366.41 404.721 365.89L404.746 365.792Z" fill="#D5C1FC"/>
<path d="M380.785 352.439L440.711 318.034L460.239 327.22L404.234 373.444L380.785 352.439Z" fill="#FB9CCB"/>
<path opacity="0.63" d="M380.785 352.439L440.711 318.034L460.239 327.22L404.234 373.444L380.785 352.439Z" fill="black"/>
<path d="M405.793 361.918C407.522 360.87 460.361 327.488 460.361 327.488L477.747 415.208L404.064 455.559L405.793 361.918Z" fill="#FB9CCB"/>
<path d="M405.793 361.918L380.761 352.171L368.756 441.475L404.039 455.486" fill="#FB9CCB"/>
<path opacity="0.22" d="M405.793 361.918L380.761 352.171L368.756 441.475L404.039 455.486" fill="black"/>
<path d="M423.52 371.251V347.542C423.52 342.084 422.838 335.748 424.25 330.485C425.93 324.15 433.99 315.621 440.881 320.738C444.436 323.321 444.558 328.633 444.607 332.605C444.607 341.109 444.607 349.662 444.607 358.141C444.663 358.661 444.909 359.142 445.297 359.492C445.686 359.841 446.19 360.034 446.713 360.034C447.236 360.034 447.74 359.841 448.128 359.492C448.517 359.142 448.763 358.661 448.819 358.141C448.819 348.224 449.866 337.746 448.576 327.902C447.017 316.133 435.622 311.138 426.076 319.301C419.648 324.808 419.283 333.141 419.283 340.938V371.348C419.339 371.868 419.585 372.349 419.973 372.698C420.362 373.048 420.866 373.241 421.389 373.241C421.912 373.241 422.416 373.048 422.805 372.698C423.193 372.349 423.439 371.868 423.495 371.348L423.52 371.251Z" fill="#D5C1FC"/>
<path d="M427.805 420.179L544.685 352.659V416.256C544.685 416.256 427.805 486.042 427.805 483.776V420.179Z" fill="url(#paint4_linear)" fill-opacity="0.8"/>
<path d="M427.805 420.179L406.426 410.627V474.224L427.805 483.751V420.179Z" fill="#3D467F"/>
<path d="M406.426 410.7L427.805 423.566L544.758 352.659L525.205 341.621L406.426 410.7Z" fill="#A27CEF"/>
<path d="M578.921 340.402L576.876 339.257C576.683 339.424 576.48 339.579 576.267 339.72C574.026 341.085 571.7 342.306 569.303 343.375L569.863 343.692L473.51 402.464L417.505 436.578C415.217 437.621 413.06 438.93 411.077 440.476C406.207 436.188 397.757 433.166 392.498 429.974L337.515 397.664H337.637C335.348 396.47 333.132 395.032 330.844 393.644L329.042 394.935C328.503 395.266 328.058 395.73 327.749 396.283C327.44 396.835 327.278 397.458 327.278 398.09C327.278 398.723 327.44 399.346 327.749 399.898C328.058 400.45 328.503 400.915 329.042 401.246L408.958 448.274C409.516 448.599 410.151 448.77 410.797 448.77C411.443 448.77 412.077 448.599 412.635 448.274L578.97 346.835C579.445 346.566 579.848 346.187 580.145 345.729C580.442 345.27 580.623 344.747 580.674 344.204C580.874 343.465 580.807 342.68 580.487 341.985C580.166 341.29 579.612 340.73 578.921 340.402Z" fill="#42210B"/>
<path d="M479.5 292.96C479.78 293.188 480.073 293.4 480.377 293.594C480.067 293.409 479.773 293.197 479.5 292.96Z" fill="#42210B"/>
<path d="M481.326 294.008C483.153 292.156 483.128 294.422 481.326 294.008V294.008Z" fill="#42210B"/>
<path d="M410.906 440.696C408.471 443.132 409.056 440.135 410.906 440.696V440.696Z" fill="#42210B"/>
<path d="M411.759 441.037C411.968 441.199 412.163 441.378 412.343 441.573C412.148 441.5 411.929 441.329 411.759 441.037Z" fill="#42210B"/>
<path d="M411.762 442.315L409.329 442.428L412.746 516.302L415.179 516.189L411.762 442.315Z" fill="#42210B"/>
<path d="M599.01 306.484L550.31 281.606L517.973 265.036C514.077 263.038 507.6 257.726 503.071 257.483C497.763 257.068 485.393 265.548 481.959 269.3C478.526 273.053 478.185 279.778 477.82 285.529C480.401 285.529 482.982 285.845 485.563 286.016C485.88 283.872 486.196 281.606 486.44 278.706C486.44 278.097 486.951 276.05 487.049 274.953C487.974 274.393 489.484 273.248 490.044 272.882C494.387 270.623 498.569 268.067 502.56 265.231L503.241 265.694C506.293 267.532 509.466 269.16 512.738 270.567L542.323 285.724L591.023 310.626C587.056 314.073 583.611 318.078 580.796 322.517C577.655 328.511 576.998 337.698 575.707 344.447C573.272 357.337 571.519 370.446 569.449 383.434L560.05 441.378C559.782 443.01 559.636 444.74 559.295 446.373C554.839 447.981 550.505 450.296 546.17 452.221L435.865 501.369L417.578 509.507C416.823 509.848 415.46 510.214 414.413 510.701C411.077 506.607 399.316 502.562 395.249 500.272L366.662 484.19L354.365 477.27L351.127 475.442C349.276 469.107 348.911 461.748 347.815 455.34L338.075 399.297C337.272 394.667 330.235 396.641 331.038 401.246C333.887 417.718 337.759 434.068 339.561 450.686C340.656 460.749 340.072 477.148 349.057 482.801C365.956 493.449 384.048 502.489 401.458 512.285C405.233 514.405 410.468 518.961 414.997 518.693C417.432 518.547 420.573 516.257 422.619 515.331L533.874 465.842L555.643 456.095C558.078 455.023 562.558 454 564.482 452.172C567.087 449.736 566.917 445.569 567.452 442.109L571.835 414.745C575.293 393.181 578.483 371.543 582.184 350.003C583.256 343.814 584.619 337.819 586.104 331.606C587.59 325.392 586.104 327.61 590.22 322.931L599.692 312.283C600.092 311.887 600.396 311.405 600.582 310.874C600.768 310.343 600.831 309.776 600.765 309.217C600.699 308.658 600.507 308.121 600.203 307.648C599.899 307.174 599.491 306.776 599.01 306.484ZM502.462 265.061C501.123 265.207 500.198 263.672 502.462 265.061V265.061Z" fill="#42210B"/>
<path d="M508.136 257.312C508.136 257.312 499.248 260.333 502.535 270.811L574.66 305.826C574.66 305.826 586.129 305.387 586.275 294.496L508.136 257.312Z" fill="#A27CEF"/>
<path d="M357.336 543.62C361.478 543.62 364.836 540.064 364.836 535.677C364.836 531.29 361.478 527.733 357.336 527.733C353.194 527.733 349.836 531.29 349.836 535.677C349.836 540.064 353.194 543.62 357.336 543.62Z" fill="#42210B"/>
<path d="M413.974 569.668C418.116 569.668 421.474 566.112 421.474 561.725C421.474 557.338 418.116 553.781 413.974 553.781C409.832 553.781 406.475 557.338 406.475 561.725C406.475 566.112 409.832 569.668 413.974 569.668Z" fill="#42210B"/>
<path d="M558.686 503.927C562.828 503.927 566.186 500.371 566.186 495.984C566.186 491.596 562.828 488.04 558.686 488.04C554.544 488.04 551.187 491.596 551.187 495.984C551.187 500.371 554.544 503.927 558.686 503.927Z" fill="#42210B"/>
<path d="M356.549 412.204L354.127 412.456L361.834 486.447L364.255 486.194L356.549 412.204Z" fill="#42210B"/>
<path d="M568.962 423.688L503.217 388.868L500.782 390.281L563.508 423.517C554.742 427.489 521.942 442.352 489.118 457.289C432.042 483.288 417.067 490.184 413.171 492.499L345.941 452.489L386.508 429.048L384.073 427.611L341.144 452.465L414.194 496.057V494.521C422.351 490.233 516.464 447.421 566.698 424.735L568.962 423.688Z" fill="#42210B"/>
<path d="M442.37 429.838L439.937 429.928L442.573 501.859L445.006 501.769L442.37 429.838Z" fill="#42210B"/>
<path d="M471.998 412.327L469.564 412.378L471.196 489.067L473.63 489.015L471.998 412.327Z" fill="#42210B"/>
<path d="M507.494 387.981L502.552 475.074L504.983 475.212L509.925 388.119L507.494 387.981Z" fill="#42210B"/>
<path d="M544.141 365.364L533.909 461.017L536.33 461.277L546.563 365.624L544.141 365.364Z" fill="#42210B"/>
<path d="M540.01 367.157L537.575 368.595L571.835 386.358L572.956 384.189L540.01 367.157Z" fill="#42210B"/>
<path d="M413.317 466.086L340.9 423.541C343.578 421.836 349.593 418.108 357.799 413.039C357.068 412.552 356.338 412.016 355.632 411.504C337.272 422.859 337.296 423.127 337.418 423.834V424.394L412.586 468.547L413.146 468.863L572.176 393.327L571.129 391.134L413.317 466.086Z" fill="#42210B"/>
<path d="M413.95 552.246L356.143 522.86L389.77 501.515L386.191 457.655L348.497 479L347.304 476.88L385.996 454.95L383.975 430.12L386.41 429.925L388.334 453.634L474.24 404.901L563.897 448.2L562.314 482.07L413.95 552.246ZM361.062 522.616L413.999 549.42L560.05 480.486L561.486 449.687L474.338 407.63L388.553 456.217L392.351 502.757L361.062 522.616Z" fill="#42210B"/>
<path d="M610.698 209.797C610.187 199.612 618.66 166.619 611.063 158.895C609.383 158.042 597.622 148.929 595.918 148.125C590.214 145.201 583.676 144.341 577.412 145.688C570.16 147.273 563.276 150.225 557.128 154.387C543.248 163.33 553.013 204.997 559.027 226.098C574.83 234.7 595.698 233.043 611.063 223.662C610.698 209.797 611.38 223.54 610.698 209.797Z" fill="#D5C1FC"/>
<path d="M566.04 125.781C565.529 127.681 565.139 149.806 579.116 151.22C593.093 152.633 595.431 134.894 594.457 125.781C593.483 116.668 570.667 108.627 566.04 125.781Z" fill="#F3B496"/>
<path d="M565.845 134.723C566.186 135.454 572.858 126.804 576.023 122.54C576.023 122.54 580.26 141.79 593.069 137.014C591.457 140.285 590.215 143.725 589.367 147.272C589.367 147.272 598.45 143.495 599.327 129.216C600.203 114.938 593.044 109.114 583.353 108.529C576.778 108.188 555.764 113.402 565.845 134.723Z" fill="#3D467F"/>
<path d="M594.676 136.453C594.315 135.967 593.785 135.632 593.191 135.515C592.597 135.398 591.98 135.506 591.462 135.82C590.077 136.855 589.124 138.364 588.783 140.06C588.744 140.198 588.738 140.345 588.767 140.486C588.796 140.627 588.859 140.76 588.949 140.872C589.04 140.984 589.156 141.073 589.288 141.131C589.421 141.189 589.565 141.214 589.708 141.205L589.221 141.887C589.141 141.987 589.083 142.104 589.051 142.228C588.223 142.935 589.051 144.397 590.098 143.763C591.493 142.88 592.708 141.738 593.677 140.401C594.408 139.45 595.504 137.842 594.676 136.453Z" fill="#F3B496"/>
<path d="M515.587 272.249C518.825 267.375 522.892 263.063 526.642 258.506C528.638 256.069 530.611 253.633 532.656 251.196C530.538 246.981 522.697 250.879 519.702 245.86C515.128 248.48 510.967 251.764 507.356 255.606C507.03 255.909 506.816 256.312 506.748 256.752C504.766 257.815 503.153 259.455 502.121 261.454C502.002 261.808 501.978 262.186 502.052 262.552C502.126 262.917 502.295 263.257 502.542 263.536C502.789 263.816 503.106 264.025 503.459 264.143C503.813 264.261 504.191 264.283 504.556 264.208L505.238 264.037C504.678 264.695 504.167 265.377 503.655 266.084C502.918 266.867 502.34 267.786 501.951 268.789C501.859 269.072 501.829 269.372 501.862 269.667C501.895 269.963 501.991 270.249 502.143 270.505C502.295 270.761 502.5 270.981 502.744 271.152C502.988 271.322 503.265 271.439 503.558 271.493C502.316 273.272 501.756 275.27 504.702 276.001H504.897C505.323 276.157 505.788 276.175 506.224 276.052C506.661 275.93 507.049 275.673 507.332 275.319C507.892 274.637 508.525 274.028 509.085 273.345C509.094 273.875 509.285 274.385 509.627 274.789C509.968 275.194 510.44 275.467 510.96 275.563C511.127 275.721 511.324 275.842 511.54 275.92C511.756 275.997 511.986 276.029 512.215 276.013C512.444 275.997 512.667 275.934 512.871 275.827C513.074 275.72 513.252 275.572 513.395 275.392L515.002 273.589C515.143 273.12 515.339 272.671 515.587 272.249Z" fill="#F3B496"/>
<path d="M560.707 257.458C558.906 259.895 550.553 275.489 548.532 277.756L543.078 285.26C542.929 285.438 542.819 285.645 542.755 285.868C542.691 286.091 542.675 286.325 542.707 286.555C542.739 286.784 542.819 287.005 542.942 287.202C543.064 287.398 543.227 287.567 543.419 287.697C543.622 288.185 543.988 288.587 544.454 288.836C544.92 289.085 545.458 289.164 545.976 289.062C545.44 289.768 544.953 290.499 544.417 291.182C544.148 291.524 543.987 291.939 543.957 292.374C543.926 292.808 544.027 293.242 544.247 293.618C544.247 293.618 544.247 293.618 544.247 293.789C545.586 296.518 547.437 295.543 548.898 293.959C549.013 294.236 549.186 294.484 549.405 294.688C549.624 294.892 549.884 295.046 550.168 295.141C550.452 295.235 550.753 295.268 551.05 295.237C551.348 295.205 551.635 295.11 551.893 294.958C552.793 294.366 553.57 293.605 554.182 292.717C554.79 292.083 555.326 291.425 555.862 290.743C555.862 290.987 555.862 291.206 555.862 291.45C555.87 291.819 555.975 292.179 556.166 292.495C556.356 292.811 556.626 293.072 556.948 293.252C557.271 293.431 557.634 293.524 558.003 293.52C558.372 293.516 558.733 293.415 559.052 293.228C560.789 291.802 562.054 289.882 562.68 287.722C563.096 287.566 563.448 287.274 563.678 286.893C566.332 282.458 574.392 266.791 575.61 261.722C570.35 259.919 566.576 257.288 560.707 257.458Z" fill="#F3B496"/>
<path d="M553.938 270.47L544.052 274.393L550.359 277.414" fill="#F3B496"/>
<path d="M553.938 261.016C553.938 261.016 566.113 272.176 576.998 270.47C576.998 270.47 601.202 227.073 605.268 211.308C609.334 195.543 614.326 162.794 605.268 160.381C596.21 157.969 585.788 166.059 583.353 176.488C580.918 186.917 578.02 219.787 578.02 219.787L553.938 261.016Z" fill="#D5C1FC"/>
<path d="M509.986 243.374C509.986 243.374 520.457 256.069 531.536 255.874C531.536 255.874 561.414 216.181 567.598 201.123C573.783 186.064 583.182 154.29 574.538 150.684C565.894 147.077 554.376 153.656 550.724 163.647C544.831 179.826 541.666 198.686 532.218 213.257C529.028 218.13 524.913 222.59 521.577 227.365L509.986 243.374Z" fill="#D5C1FC"/>
<path d="M528.322 256.435V267.181L521.918 264.135L528.322 256.435Z" fill="#F3B496"/>
<path d="M560.659 181.41C560.659 181.087 560.53 180.777 560.302 180.548C560.074 180.32 559.764 180.191 559.441 180.191C559.118 180.191 558.809 180.32 558.58 180.548C558.352 180.777 558.224 181.087 558.224 181.41C557.818 195.754 557.818 210.097 558.224 224.441C558.224 226.001 560.659 226.001 560.659 224.441C560.253 210.097 560.253 195.754 560.659 181.41Z" fill="#CE6D0D"/>
<path d="M598.182 229.29L610.357 198.637L611.063 223.564L598.182 229.29Z" fill="#CE6D0D"/>
<path d="M585.739 188.622C580.322 213.796 569.641 237.538 554.401 258.287C553.476 259.554 555.594 260.723 556.495 259.505C571.892 238.556 582.681 214.581 588.15 189.158C588.418 187.623 586.056 187.087 585.739 188.622Z" fill="#CE6D0D"/>
</g>
<defs>
<filter id="filter0_d" x="-12" y="-8" width="998" height="755" filterUnits="userSpaceOnUse" color-interpolation-filters="sRGB">
<feFlood flood-opacity="0" result="BackgroundImageFix"/>
<feColorMatrix in="SourceAlpha" type="matrix" values="0 0 0 0 0 0 0 0 0 0 0 0 0 0 0 0 0 0 127 0"/>
<feOffset dy="4"/>
<feGaussianBlur stdDeviation="6"/>
<feColorMatrix type="matrix" values="0 0 0 0 0 0 0 0 0 0 0 0 0 0 0 0 0 0 0.1 0"/>
<feBlend mode="normal" in2="BackgroundImageFix" result="effect1_dropShadow"/>
<feBlend mode="normal" in="SourceGraphic" in2="effect1_dropShadow" result="shape"/>
</filter>
<linearGradient id="paint0_linear" x1="444.289" y1="104.703" x2="59.4101" y2="412.845" gradientUnits="userSpaceOnUse">
<stop stop-color="#D1CFFF"/>
<stop offset="1" stop-color="#FFCDFA"/>
<stop offset="1" stop-color="#FFCDFA"/>
</linearGradient>
<linearGradient id="paint1_linear" x1="428.244" y1="529.195" x2="684.256" y2="373.818" gradientUnits="userSpaceOnUse">
<stop stop-opacity="0"/>
<stop offset="1" stop-color="#2E3192"/>
</linearGradient>
<linearGradient id="paint2_linear" x1="527.421" y1="475.759" x2="617.249" y2="402.257" gradientUnits="userSpaceOnUse">
<stop stop-color="#808080" stop-opacity="0"/>
<stop offset="1" stop-color="#2E3192"/>
</linearGradient>
<linearGradient id="paint3_linear" x1="15732" y1="24344.8" x2="25344.5" y2="12325.5" gradientUnits="userSpaceOnUse">
<stop stop-opacity="0"/>
<stop offset="1" stop-color="#2E3192"/>
</linearGradient>
<linearGradient id="paint4_linear" x1="554.268" y1="475.351" x2="442.023" y2="341.288" gradientUnits="userSpaceOnUse">
<stop stop-color="#D58ABB"/>
<stop offset="1" stop-color="#817FBC"/>
</linearGradient>
</defs>
</svg>
