<svg width="25" height="25" viewBox="0 0 25 25" fill="none" xmlns="http://www.w3.org/2000/svg">
<path d="M8.01746 21.7239C9.04079 21.7239 9.87036 20.8943 9.87036 19.871C9.87036 18.8476 9.04079 18.0181 8.01746 18.0181C6.99412 18.0181 6.16455 18.8476 6.16455 19.871C6.16455 20.8943 6.99412 21.7239 8.01746 21.7239Z" fill="#3D467F"/>
<path d="M22.2206 21.7239C23.2439 21.7239 24.0735 20.8943 24.0735 19.871C24.0735 18.8476 23.2439 18.0181 22.2206 18.0181C21.1972 18.0181 20.3677 18.8476 20.3677 19.871C20.3677 20.8943 21.1972 21.7239 22.2206 21.7239Z" fill="#3D467F"/>
<path d="M25 6.88043C25 6.85111 24.9858 6.82624 24.984 6.79693C24.9769 6.73386 24.9654 6.67524 24.9476 6.61661C24.9289 6.55977 24.9094 6.50558 24.8836 6.45406C24.8561 6.40166 24.8241 6.35724 24.7868 6.31105C24.7495 6.26309 24.7104 6.22045 24.6634 6.18137C24.6198 6.14406 24.5736 6.11564 24.5239 6.08721C24.4679 6.05612 24.4129 6.03036 24.3507 6.00993C24.324 6.00105 24.3027 5.9824 24.2752 5.97618C24.2397 5.96819 24.2077 5.97707 24.173 5.9744C24.1384 5.97174 24.1091 5.95486 24.0744 5.95486L6.16362 5.9522C6.15029 5.9522 6.13963 5.9593 6.12631 5.96019L5.51874 3.93674C5.40149 3.54502 5.03997 3.27588 4.63137 3.27588H0.926452C0.414816 3.27588 0 3.6907 0 4.20233C0 4.71397 0.414816 5.12878 0.926452 5.12878H3.94297L7.4507 16.82C7.56795 17.2117 7.92947 17.4791 8.33807 17.4791H21.9231C22.3583 17.4791 22.7332 17.1789 22.8282 16.7543L24.9778 7.08295C24.9858 7.0492 24.976 7.01633 24.9796 6.98258C24.984 6.94705 25 6.91596 25 6.88043ZM21.1814 15.6262H9.02736L6.68058 7.80421L22.9188 7.80688L21.1814 15.6262Z" fill="#3D467F"/>
</svg>
