<svg width="22" height="18" viewBox="0 0 22 18" fill="none" xmlns="http://www.w3.org/2000/svg">
<path d="M15.5273 0C13.7591 0 12.2091 0.788448 11.0447 2.28015C10.8894 2.4791 10.751 2.67813 10.6283 2.8709C10.5057 2.67809 10.3672 2.4791 10.212 2.28015C9.04762 0.788448 7.49754 0 5.72934 0C2.38905 0 0 2.79687 0 6.15298C0 9.99051 3.1452 13.6072 10.1981 17.8799C10.3303 17.9599 10.4793 18 10.6283 18C10.7773 18 10.9263 17.96 11.0586 17.8799C18.1115 13.6073 21.2567 9.99055 21.2567 6.15302C21.2567 2.79866 18.8696 0 15.5273 0ZM17.4021 10.9314C15.9338 12.5697 13.7149 14.2948 10.6283 16.1967C7.54176 14.2948 5.32289 12.5697 3.85456 10.9314C2.3783 9.28418 1.66068 7.72115 1.66068 6.15302C1.66068 3.73657 3.2937 1.66068 5.72934 1.66068C6.9697 1.66068 8.0273 2.19998 8.87279 3.26365C9.54885 4.11429 9.8337 4.99266 9.83569 4.99893C9.94385 5.3458 10.265 5.58208 10.6284 5.58208C10.9917 5.58208 11.3129 5.34585 11.4211 4.99893C11.4237 4.99054 11.7 4.13957 12.3538 3.30192C13.2039 2.21285 14.2716 1.66064 15.5273 1.66064C17.9655 1.66064 19.596 3.73852 19.596 6.15298C19.596 7.72111 18.8784 9.28414 17.4021 10.9314Z" fill="#3D467F"/>
</svg>
