<svg width="239" height="212" viewBox="0 0 239 212" fill="none" xmlns="http://www.w3.org/2000/svg">
<path d="M104.326 149.746L77.6982 83L68.172 111.665H14C28.5176 134.272 53.698 155.86 85.4844 183.02C94.5742 190.788 104.244 199.048 114.405 207.965L119 212L123.597 207.965C133.756 199.048 143.426 190.788 152.516 183.02C184.302 155.86 209.482 134.27 224 111.665H123.317L104.326 149.746Z" fill="white"/>
<path d="M176.01 0C147.332 0.10215 129.074 19.6602 119.501 37.602C109.975 19.7696 91.7937 0 63.4704 0C63.3063 0 63.1495 0 62.9927 0C29.6696 0.266318 1.78209 28.7022 0.0863036 64.7373C-0.478959 76.7253 1.75109 87.6243 6.22943 98.0654H58.4378L76.8927 42.6839L106.208 116L115.172 98.0654H232.77C237.25 87.6243 239.48 76.7253 238.913 64.7373C237.219 28.7022 209.332 0.266318 176.01 0Z" fill="white"/>
</svg>
