<svg width="1440" height="900" viewBox="0 0 1440 900" fill="none" xmlns="http://www.w3.org/2000/svg">
<g clip-path="url(#clip0)">
<path d="M167.54 111.012C73.3903 67.0963 12.7638 102.694 -5.78079 125.983V514.518C44.4322 613.185 130.688 640.703 167.54 642.129C263.971 652.395 308.051 674.923 318.036 684.904C360.261 707.146 385.557 764.037 392.928 789.701C440.716 854.576 488.504 827.486 563.395 822.495C623.308 818.503 638.762 856.002 639 875.25V895.212L603.337 987.89L463.54 1005H167.54L-206.205 895.212C-231.169 741.461 -280.669 429.397 -278.957 411.146C-277.245 392.896 -229.742 106.496 -206.205 -34.422L59.8385 -105C152.561 -82.4245 348.991 -25.7245 392.928 20.4721C436.864 66.6686 427.877 110.061 417.892 125.983C345.425 176.171 220.796 136.914 167.54 111.012Z" fill="#FDECF4"/>
<path d="M250.5 600.551C40.3863 549.773 -5.73705 423.747 -22.5709 346.492L-166.923 430.603L-190.901 691.095L-230.465 901.218L-79.1082 985.432L348.342 1020.74L412.813 944.98C474.108 848.109 475.732 654.982 250.5 600.551Z" stroke="#3D467F" stroke-width="6"/>
<path d="M1149 137.5C1151.8 65.9 1045.5 5.33333 992 -16L1115 -159.5H1434L1520.5 -38L1459.5 453.5C1445.9 422.7 1381.83 408 1351.5 404.5C1269.1 399.3 1220.5 375.333 1206.5 364C1112 295 1149 220.5 1149 188.5V137.5Z" fill="#E1EEFB"/>
<path d="M1208 139.5C1232.4 84.3 1197.83 11.8333 1177.5 -17.5L1419 -137.5L1528.5 -17.5L1539 220.5C1566 303.833 1586.2 471.1 1451 473.5C1282 476.5 1225 453.5 1177.5 386C1130 318.5 1177.5 208.5 1208 139.5Z" stroke="#5B5B5B" stroke-width="6"/>
<path d="M1339 536.5C1339 555.554 1323.55 571 1304.5 571C1285.45 571 1270 555.554 1270 536.5C1270 517.446 1285.45 502 1304.5 502C1323.55 502 1339 517.446 1339 536.5Z" fill="#F39AC4"/>
<path d="M1075.03 94C1075.03 105.046 1065.84 114 1054.51 114C1043.18 114 1034 105.046 1034 94C1034 82.9543 1043.18 74 1054.51 74C1065.84 74 1075.03 82.9543 1075.03 94Z" fill="#FDD4C1"/>
<circle cx="1144.5" cy="770.5" r="51.5" fill="#E1EEFB"/>
<path d="M274 266C274 277.598 264.598 287 253 287C241.402 287 232 277.598 232 266C232 254.402 241.402 245 253 245C264.598 245 274 254.402 274 266Z" stroke="#D5C1FC" stroke-width="8"/>
<path d="M604.225 850.4C605.377 850.4 606.343 850.688 607.123 851.264C607.915 851.828 608.503 852.59 608.887 853.55C609.283 854.498 609.481 855.548 609.481 856.7C609.481 857.888 609.283 858.956 608.887 859.904C608.503 860.852 607.915 861.608 607.123 862.172C606.343 862.724 605.377 863 604.225 863H599.635C599.479 863 599.347 862.952 599.239 862.856C599.143 862.748 599.095 862.616 599.095 862.46V850.94C599.095 850.784 599.143 850.658 599.239 850.562C599.347 850.454 599.479 850.4 599.635 850.4H604.225ZM604.045 861.938C605.485 861.938 606.559 861.458 607.267 860.498C607.975 859.526 608.329 858.26 608.329 856.7C608.329 855.728 608.179 854.852 607.879 854.072C607.579 853.28 607.105 852.65 606.457 852.182C605.821 851.702 605.017 851.462 604.045 851.462H600.229V861.938H604.045ZM620.399 858.392C620.399 859.292 620.201 860.108 619.805 860.84C619.409 861.572 618.863 862.148 618.167 862.568C617.471 862.976 616.697 863.18 615.845 863.18C614.993 863.18 614.219 862.976 613.523 862.568C612.827 862.148 612.281 861.572 611.885 860.84C611.489 860.108 611.291 859.292 611.291 858.392C611.291 857.492 611.489 856.676 611.885 855.944C612.281 855.212 612.827 854.636 613.523 854.216C614.219 853.796 614.993 853.586 615.845 853.586C616.697 853.586 617.471 853.796 618.167 854.216C618.863 854.636 619.409 855.212 619.805 855.944C620.201 856.676 620.399 857.492 620.399 858.392ZM619.319 858.392C619.319 857.672 619.169 857.024 618.869 856.448C618.569 855.872 618.149 855.422 617.609 855.098C617.081 854.762 616.493 854.594 615.845 854.594C615.197 854.594 614.609 854.762 614.081 855.098C613.553 855.422 613.133 855.872 612.821 856.448C612.521 857.024 612.371 857.672 612.371 858.392C612.371 859.1 612.521 859.742 612.821 860.318C613.133 860.894 613.553 861.35 614.081 861.686C614.609 862.01 615.197 862.172 615.845 862.172C616.493 862.172 617.081 862.01 617.609 861.686C618.149 861.362 618.569 860.912 618.869 860.336C619.169 859.76 619.319 859.112 619.319 858.392ZM634.388 853.64C634.544 853.64 634.67 853.694 634.766 853.802C634.874 853.898 634.928 854.024 634.928 854.18V862.118C634.928 863.066 634.742 863.876 634.37 864.548C633.998 865.22 633.482 865.73 632.822 866.078C632.162 866.426 631.418 866.6 630.59 866.6C630.086 866.6 629.612 866.546 629.168 866.438C628.736 866.33 628.376 866.186 628.088 866.006C627.836 865.85 627.71 865.676 627.71 865.484C627.71 865.46 627.722 865.4 627.746 865.304C627.782 865.184 627.842 865.094 627.926 865.034C628.01 864.974 628.1 864.944 628.196 864.944C628.268 864.944 628.34 864.962 628.412 864.998C629.18 865.418 629.912 865.628 630.608 865.628C631.604 865.628 632.39 865.316 632.966 864.692C633.554 864.068 633.848 863.216 633.848 862.136V861.506C633.548 862.01 633.116 862.418 632.552 862.73C631.988 863.03 631.376 863.18 630.716 863.18C629.672 863.18 628.88 862.868 628.34 862.244C627.8 861.62 627.53 860.774 627.53 859.706V854.18C627.53 854.024 627.578 853.898 627.674 853.802C627.782 853.694 627.914 853.64 628.07 853.64C628.226 853.64 628.352 853.694 628.448 853.802C628.556 853.898 628.61 854.024 628.61 854.18V859.544C628.61 860.408 628.796 861.062 629.168 861.506C629.552 861.95 630.146 862.172 630.95 862.172C631.442 862.172 631.91 862.052 632.354 861.812C632.81 861.56 633.17 861.236 633.434 860.84C633.71 860.432 633.848 860 633.848 859.544V854.18C633.848 854.024 633.896 853.898 633.992 853.802C634.1 853.694 634.232 853.64 634.388 853.64ZM646.169 858.392C646.169 859.292 645.971 860.108 645.575 860.84C645.179 861.572 644.633 862.148 643.937 862.568C643.241 862.976 642.467 863.18 641.615 863.18C640.763 863.18 639.989 862.976 639.293 862.568C638.597 862.148 638.051 861.572 637.655 860.84C637.259 860.108 637.061 859.292 637.061 858.392C637.061 857.492 637.259 856.676 637.655 855.944C638.051 855.212 638.597 854.636 639.293 854.216C639.989 853.796 640.763 853.586 641.615 853.586C642.467 853.586 643.241 853.796 643.937 854.216C644.633 854.636 645.179 855.212 645.575 855.944C645.971 856.676 646.169 857.492 646.169 858.392ZM645.089 858.392C645.089 857.672 644.939 857.024 644.639 856.448C644.339 855.872 643.919 855.422 643.379 855.098C642.851 854.762 642.263 854.594 641.615 854.594C640.967 854.594 640.379 854.762 639.851 855.098C639.323 855.422 638.903 855.872 638.591 856.448C638.291 857.024 638.141 857.672 638.141 858.392C638.141 859.1 638.291 859.742 638.591 860.318C638.903 860.894 639.323 861.35 639.851 861.686C640.379 862.01 640.967 862.172 641.615 862.172C642.263 862.172 642.851 862.01 643.379 861.686C643.919 861.362 644.339 860.912 644.639 860.336C644.939 859.76 645.089 859.112 645.089 858.392ZM655.254 853.856C655.41 853.856 655.536 853.91 655.632 854.018C655.74 854.114 655.794 854.24 655.794 854.396V859.472C655.794 860.648 655.464 861.554 654.804 862.19C654.144 862.814 653.232 863.126 652.068 863.126C650.916 863.126 650.01 862.814 649.35 862.19C648.702 861.554 648.378 860.648 648.378 859.472V854.396C648.378 854.24 648.426 854.114 648.522 854.018C648.63 853.91 648.762 853.856 648.918 853.856C649.074 853.856 649.2 853.91 649.296 854.018C649.404 854.114 649.458 854.24 649.458 854.396V859.472C649.458 860.336 649.686 860.996 650.142 861.452C650.598 861.896 651.24 862.118 652.068 862.118C652.908 862.118 653.556 861.896 654.012 861.452C654.48 860.996 654.714 860.336 654.714 859.472V854.396C654.714 854.24 654.762 854.114 654.858 854.018C654.966 853.91 655.098 853.856 655.254 853.856ZM662.928 853.586C663.168 853.586 663.384 853.634 663.576 853.73C663.768 853.826 663.864 853.97 663.864 854.162C663.864 854.33 663.816 854.468 663.72 854.576C663.624 854.672 663.51 854.72 663.378 854.72C663.318 854.72 663.198 854.69 663.018 854.63C662.85 854.57 662.688 854.54 662.532 854.54C662.088 854.54 661.644 854.714 661.2 855.062C660.768 855.398 660.408 855.836 660.12 856.376C659.844 856.916 659.706 857.462 659.706 858.014V862.46C659.706 862.616 659.652 862.748 659.544 862.856C659.448 862.952 659.322 863 659.166 863C659.01 863 658.878 862.952 658.77 862.856C658.674 862.748 658.626 862.616 658.626 862.46V854.396C658.626 854.24 658.674 854.114 658.77 854.018C658.878 853.91 659.01 853.856 659.166 853.856C659.322 853.856 659.448 853.91 659.544 854.018C659.652 854.114 659.706 854.24 659.706 854.396V855.98C659.982 855.296 660.396 854.732 660.948 854.288C661.512 853.832 662.172 853.598 662.928 853.586ZM678.97 858.392C678.97 859.292 678.772 860.108 678.376 860.84C677.98 861.572 677.434 862.148 676.738 862.568C676.042 862.976 675.268 863.18 674.416 863.18C673.564 863.18 672.79 862.976 672.094 862.568C671.398 862.148 670.852 861.572 670.456 860.84C670.06 860.108 669.862 859.292 669.862 858.392C669.862 857.492 670.06 856.676 670.456 855.944C670.852 855.212 671.398 854.636 672.094 854.216C672.79 853.796 673.564 853.586 674.416 853.586C675.268 853.586 676.042 853.796 676.738 854.216C677.434 854.636 677.98 855.212 678.376 855.944C678.772 856.676 678.97 857.492 678.97 858.392ZM677.89 858.392C677.89 857.672 677.74 857.024 677.44 856.448C677.14 855.872 676.72 855.422 676.18 855.098C675.652 854.762 675.064 854.594 674.416 854.594C673.768 854.594 673.18 854.762 672.652 855.098C672.124 855.422 671.704 855.872 671.392 856.448C671.092 857.024 670.942 857.672 670.942 858.392C670.942 859.1 671.092 859.742 671.392 860.318C671.704 860.894 672.124 861.35 672.652 861.686C673.18 862.01 673.768 862.172 674.416 862.172C675.064 862.172 675.652 862.01 676.18 861.686C676.72 861.362 677.14 860.912 677.44 860.336C677.74 859.76 677.89 859.112 677.89 858.392ZM692.105 853.604C692.261 853.604 692.387 853.652 692.483 853.748C692.591 853.844 692.645 853.976 692.645 854.144C692.645 854.156 692.627 854.234 692.591 854.378L689.819 862.658C689.759 862.766 689.681 862.856 689.585 862.928C689.489 862.988 689.387 863.012 689.279 863C689.171 863 689.075 862.97 688.991 862.91C688.907 862.85 688.841 862.766 688.793 862.658L686.435 857.114L684.329 862.658C684.281 862.754 684.209 862.838 684.113 862.91C684.029 862.97 683.939 863 683.843 863C683.723 863.012 683.609 862.988 683.501 862.928C683.405 862.856 683.339 862.766 683.303 862.658L680.459 854.378C680.423 854.306 680.405 854.228 680.405 854.144C680.405 853.988 680.459 853.862 680.567 853.766C680.675 853.658 680.807 853.604 680.963 853.604C681.071 853.604 681.167 853.64 681.251 853.712C681.347 853.772 681.413 853.856 681.449 853.964L683.843 861.146L685.985 855.764C686.069 855.536 686.237 855.422 686.489 855.422C686.729 855.422 686.897 855.536 686.993 855.764L689.243 861.11L691.601 853.964C691.673 853.724 691.841 853.604 692.105 853.604ZM699.052 853.586C700.168 853.586 700.984 853.916 701.5 854.576C702.028 855.224 702.292 856.088 702.292 857.168V862.46C702.292 862.616 702.238 862.748 702.13 862.856C702.022 862.952 701.896 863 701.752 863C701.596 863 701.464 862.952 701.356 862.856C701.26 862.748 701.212 862.616 701.212 862.46V857.222C701.212 856.442 701.014 855.812 700.618 855.332C700.234 854.84 699.634 854.594 698.818 854.594C698.302 854.594 697.81 854.714 697.342 854.954C696.886 855.194 696.514 855.518 696.226 855.926C695.938 856.322 695.794 856.754 695.794 857.222V862.46C695.794 862.616 695.74 862.748 695.632 862.856C695.536 862.952 695.41 863 695.254 863C695.098 863 694.966 862.952 694.858 862.856C694.762 862.748 694.714 862.616 694.714 862.46V854.396C694.714 854.24 694.762 854.114 694.858 854.018C694.966 853.91 695.098 853.856 695.254 853.856C695.41 853.856 695.536 853.91 695.632 854.018C695.74 854.114 695.794 854.24 695.794 854.396V855.386C696.118 854.87 696.58 854.444 697.18 854.108C697.792 853.76 698.416 853.586 699.052 853.586ZM717.512 853.802C717.668 853.802 717.794 853.856 717.89 853.964C717.998 854.072 718.052 854.204 718.052 854.36V862.46C718.052 862.616 717.998 862.748 717.89 862.856C717.794 862.952 717.668 863 717.512 863C717.356 863 717.224 862.952 717.116 862.856C717.02 862.748 716.972 862.616 716.972 862.46V861.254C716.672 861.794 716.222 862.25 715.622 862.622C715.022 862.994 714.368 863.18 713.66 863.18C712.856 863.18 712.13 862.97 711.482 862.55C710.846 862.13 710.342 861.554 709.97 860.822C709.61 860.09 709.43 859.268 709.43 858.356C709.43 857.444 709.616 856.628 709.988 855.908C710.36 855.176 710.864 854.606 711.5 854.198C712.148 853.79 712.862 853.586 713.642 853.586C714.362 853.586 715.022 853.76 715.622 854.108C716.222 854.456 716.672 854.912 716.972 855.476V854.36C716.972 854.204 717.02 854.072 717.116 853.964C717.224 853.856 717.356 853.802 717.512 853.802ZM713.768 862.172C714.392 862.172 714.95 862.01 715.442 861.686C715.946 861.35 716.336 860.894 716.612 860.318C716.9 859.73 717.044 859.076 717.044 858.356C717.044 857.66 716.9 857.024 716.612 856.448C716.336 855.872 715.946 855.422 715.442 855.098C714.95 854.762 714.392 854.594 713.768 854.594C713.144 854.594 712.58 854.756 712.076 855.08C711.584 855.404 711.194 855.854 710.906 856.43C710.63 856.994 710.492 857.636 710.492 858.356C710.492 859.076 710.63 859.73 710.906 860.318C711.182 860.894 711.566 861.35 712.058 861.686C712.562 862.01 713.132 862.172 713.768 862.172ZM722.67 854.846V860.876C722.67 861.332 722.754 861.644 722.922 861.812C723.09 861.968 723.312 862.046 723.588 862.046C723.66 862.046 723.75 862.034 723.858 862.01C723.966 861.974 724.05 861.956 724.11 861.956C724.218 861.956 724.308 862.004 724.38 862.1C724.464 862.184 724.506 862.286 724.506 862.406C724.506 862.574 724.41 862.718 724.218 862.838C724.026 862.946 723.798 863 723.534 863C723.21 863 722.922 862.97 722.67 862.91C722.418 862.85 722.172 862.67 721.932 862.37C721.704 862.07 721.59 861.59 721.59 860.93V854.846H720.276C720.132 854.846 720.006 854.798 719.898 854.702C719.802 854.606 719.754 854.486 719.754 854.342C719.754 854.198 719.802 854.078 719.898 853.982C720.006 853.886 720.132 853.838 720.276 853.838H721.59V851.84C721.59 851.684 721.638 851.558 721.734 851.462C721.842 851.354 721.974 851.3 722.13 851.3C722.286 851.3 722.412 851.354 722.508 851.462C722.616 851.558 722.67 851.684 722.67 851.84V853.838H724.47C724.602 853.838 724.716 853.892 724.812 854C724.92 854.108 724.974 854.228 724.974 854.36C724.974 854.504 724.926 854.624 724.83 854.72C724.734 854.804 724.614 854.846 724.47 854.846H722.67Z" fill="#3D467F"/>
<path d="M740.28 857.96C740.268 858.248 740.154 858.482 739.938 858.662C739.722 858.842 739.47 858.932 739.182 858.932H733.242C733.386 859.64 733.716 860.198 734.232 860.606C734.748 861.002 735.33 861.2 735.978 861.2C736.47 861.2 736.854 861.158 737.13 861.074C737.406 860.978 737.622 860.882 737.778 860.786C737.946 860.678 738.06 860.606 738.12 860.57C738.336 860.462 738.54 860.408 738.732 860.408C738.984 860.408 739.2 860.498 739.38 860.678C739.56 860.858 739.65 861.068 739.65 861.308C739.65 861.632 739.482 861.926 739.146 862.19C738.81 862.466 738.36 862.7 737.796 862.892C737.232 863.084 736.662 863.18 736.086 863.18C735.078 863.18 734.196 862.97 733.44 862.55C732.696 862.13 732.12 861.554 731.712 860.822C731.304 860.078 731.1 859.244 731.1 858.32C731.1 857.288 731.316 856.382 731.748 855.602C732.18 854.822 732.75 854.228 733.458 853.82C734.166 853.4 734.922 853.19 735.726 853.19C736.518 853.19 737.262 853.406 737.958 853.838C738.666 854.27 739.23 854.852 739.65 855.584C740.07 856.316 740.28 857.108 740.28 857.96ZM735.726 855.17C734.334 855.17 733.512 855.824 733.26 857.132H737.976V857.006C737.928 856.502 737.682 856.07 737.238 855.71C736.794 855.35 736.29 855.17 735.726 855.17ZM749.875 849.68C750.187 849.68 750.445 849.782 750.649 849.986C750.853 850.19 750.955 850.454 750.955 850.778V861.902C750.955 862.214 750.853 862.478 750.649 862.694C750.445 862.898 750.187 863 749.875 863C749.563 863 749.305 862.898 749.101 862.694C748.909 862.49 748.807 862.232 748.795 861.92C748.495 862.268 748.087 862.568 747.571 862.82C747.067 863.06 746.533 863.18 745.969 863.18C745.141 863.18 744.391 862.97 743.719 862.55C743.047 862.118 742.513 861.524 742.117 860.768C741.733 860.012 741.541 859.154 741.541 858.194C741.541 857.234 741.733 856.376 742.117 855.62C742.501 854.852 743.023 854.258 743.683 853.838C744.355 853.406 745.093 853.19 745.897 853.19C746.473 853.19 747.013 853.298 747.517 853.514C748.021 853.718 748.447 853.982 748.795 854.306V850.778C748.795 850.466 748.897 850.208 749.101 850.004C749.305 849.788 749.563 849.68 749.875 849.68ZM746.239 861.2C747.019 861.2 747.655 860.918 748.147 860.354C748.639 859.778 748.885 859.058 748.885 858.194C748.885 857.33 748.639 856.61 748.147 856.034C747.655 855.458 747.019 855.17 746.239 855.17C745.471 855.17 744.841 855.458 744.349 856.034C743.857 856.61 743.611 857.33 743.611 858.194C743.611 859.058 743.851 859.778 744.331 860.354C744.823 860.918 745.459 861.2 746.239 861.2ZM760.723 853.37C761.035 853.37 761.293 853.478 761.497 853.694C761.701 853.898 761.803 854.156 761.803 854.468V859.04C761.803 860.336 761.443 861.35 760.723 862.082C760.015 862.814 759.001 863.18 757.681 863.18C756.361 863.18 755.347 862.814 754.639 862.082C753.931 861.35 753.577 860.336 753.577 859.04V854.468C753.577 854.156 753.679 853.898 753.883 853.694C754.087 853.478 754.345 853.37 754.657 853.37C754.969 853.37 755.227 853.478 755.431 853.694C755.635 853.898 755.737 854.156 755.737 854.468V859.04C755.737 859.772 755.899 860.318 756.223 860.678C756.547 861.026 757.033 861.2 757.681 861.2C758.341 861.2 758.833 861.026 759.157 860.678C759.481 860.318 759.643 859.772 759.643 859.04V854.468C759.643 854.156 759.745 853.898 759.949 853.694C760.153 853.478 760.411 853.37 760.723 853.37ZM769.146 853.19C769.506 853.19 769.806 853.292 770.046 853.496C770.298 853.7 770.424 853.94 770.424 854.216C770.424 854.588 770.328 854.87 770.136 855.062C769.944 855.242 769.716 855.332 769.452 855.332C769.272 855.332 769.068 855.29 768.84 855.206C768.804 855.194 768.72 855.17 768.588 855.134C768.468 855.098 768.336 855.08 768.192 855.08C767.88 855.08 767.58 855.176 767.292 855.368C767.004 855.56 766.764 855.854 766.572 856.25C766.392 856.634 766.302 857.096 766.302 857.636V861.902C766.302 862.214 766.2 862.478 765.996 862.694C765.792 862.898 765.534 863 765.222 863C764.91 863 764.652 862.898 764.448 862.694C764.244 862.478 764.142 862.214 764.142 861.902V854.468C764.142 854.156 764.244 853.898 764.448 853.694C764.652 853.478 764.91 853.37 765.222 853.37C765.534 853.37 765.792 853.478 765.996 853.694C766.2 853.898 766.302 854.156 766.302 854.468V854.702C766.578 854.21 766.974 853.838 767.49 853.586C768.006 853.322 768.558 853.19 769.146 853.19ZM780.794 858.194C780.794 859.154 780.578 860.018 780.146 860.786C779.714 861.542 779.12 862.13 778.364 862.55C777.62 862.97 776.798 863.18 775.898 863.18C774.986 863.18 774.158 862.97 773.414 862.55C772.67 862.13 772.082 861.542 771.65 860.786C771.218 860.018 771.002 859.154 771.002 858.194C771.002 857.234 771.218 856.376 771.65 855.62C772.082 854.852 772.67 854.258 773.414 853.838C774.158 853.406 774.986 853.19 775.898 853.19C776.798 853.19 777.62 853.406 778.364 853.838C779.12 854.258 779.714 854.852 780.146 855.62C780.578 856.376 780.794 857.234 780.794 858.194ZM778.634 858.194C778.634 857.606 778.508 857.084 778.256 856.628C778.016 856.16 777.686 855.8 777.266 855.548C776.858 855.296 776.402 855.17 775.898 855.17C775.394 855.17 774.932 855.296 774.512 855.548C774.104 855.8 773.774 856.16 773.522 856.628C773.282 857.084 773.162 857.606 773.162 858.194C773.162 858.782 773.282 859.304 773.522 859.76C773.774 860.216 774.104 860.57 774.512 860.822C774.932 861.074 775.394 861.2 775.898 861.2C776.402 861.2 776.858 861.074 777.266 860.822C777.686 860.57 778.016 860.216 778.256 859.76C778.508 859.304 778.634 858.782 778.634 858.194ZM791.851 858.194C791.851 859.154 791.635 860.018 791.203 860.786C790.771 861.542 790.177 862.13 789.421 862.55C788.677 862.97 787.855 863.18 786.955 863.18C786.043 863.18 785.215 862.97 784.471 862.55C783.727 862.13 783.139 861.542 782.707 860.786C782.275 860.018 782.059 859.154 782.059 858.194C782.059 857.234 782.275 856.376 782.707 855.62C783.139 854.852 783.727 854.258 784.471 853.838C785.215 853.406 786.043 853.19 786.955 853.19C787.855 853.19 788.677 853.406 789.421 853.838C790.177 854.258 790.771 854.852 791.203 855.62C791.635 856.376 791.851 857.234 791.851 858.194ZM789.691 858.194C789.691 857.606 789.565 857.084 789.313 856.628C789.073 856.16 788.743 855.8 788.323 855.548C787.915 855.296 787.459 855.17 786.955 855.17C786.451 855.17 785.989 855.296 785.569 855.548C785.161 855.8 784.831 856.16 784.579 856.628C784.339 857.084 784.219 857.606 784.219 858.194C784.219 858.782 784.339 859.304 784.579 859.76C784.831 860.216 785.161 860.57 785.569 860.822C785.989 861.074 786.451 861.2 786.955 861.2C787.459 861.2 787.915 861.074 788.323 860.822C788.743 860.57 789.073 860.216 789.313 859.76C789.565 859.304 789.691 858.782 789.691 858.194ZM804.761 853.19C805.949 853.19 806.771 853.556 807.227 854.288C807.683 855.008 807.911 856.01 807.911 857.294V861.902C807.911 862.214 807.809 862.478 807.605 862.694C807.401 862.898 807.143 863 806.831 863C806.519 863 806.261 862.898 806.057 862.694C805.853 862.478 805.751 862.214 805.751 861.902V857.294C805.751 856.634 805.619 856.118 805.355 855.746C805.103 855.362 804.653 855.17 804.005 855.17C803.333 855.17 802.805 855.374 802.421 855.782C802.049 856.178 801.863 856.682 801.863 857.294V861.902C801.863 862.214 801.761 862.478 801.557 862.694C801.353 862.898 801.095 863 800.783 863C800.471 863 800.213 862.898 800.009 862.694C799.805 862.478 799.703 862.214 799.703 861.902V857.294C799.703 856.634 799.571 856.118 799.307 855.746C799.055 855.362 798.605 855.17 797.957 855.17C797.285 855.17 796.757 855.374 796.373 855.782C796.001 856.178 795.815 856.682 795.815 857.294V861.902C795.815 862.214 795.713 862.478 795.509 862.694C795.305 862.898 795.047 863 794.735 863C794.423 863 794.165 862.898 793.961 862.694C793.757 862.478 793.655 862.214 793.655 861.902V854.468C793.655 854.156 793.757 853.898 793.961 853.694C794.165 853.478 794.423 853.37 794.735 853.37C795.047 853.37 795.305 853.478 795.509 853.694C795.713 853.898 795.815 854.156 795.815 854.468V854.756C796.139 854.324 796.547 853.958 797.039 853.658C797.543 853.346 798.101 853.19 798.713 853.19C800.225 853.19 801.191 853.85 801.611 855.17C801.887 854.666 802.301 854.21 802.853 853.802C803.417 853.394 804.053 853.19 804.761 853.19ZM811.203 862.982C810.855 862.982 810.585 862.892 810.393 862.712C810.213 862.52 810.123 862.25 810.123 861.902V861.596C810.123 861.248 810.213 860.984 810.393 860.804C810.585 860.612 810.855 860.516 811.203 860.516H811.437C811.785 860.516 812.049 860.612 812.229 860.804C812.421 860.984 812.517 861.248 812.517 861.596V861.902C812.517 862.25 812.421 862.52 812.229 862.712C812.049 862.892 811.785 862.982 811.437 862.982H811.203ZM825.838 853.19C827.026 853.19 827.848 853.556 828.304 854.288C828.76 855.008 828.988 856.01 828.988 857.294V861.902C828.988 862.214 828.886 862.478 828.682 862.694C828.478 862.898 828.22 863 827.908 863C827.596 863 827.338 862.898 827.134 862.694C826.93 862.478 826.828 862.214 826.828 861.902V857.294C826.828 856.634 826.696 856.118 826.432 855.746C826.18 855.362 825.73 855.17 825.082 855.17C824.41 855.17 823.882 855.374 823.498 855.782C823.126 856.178 822.94 856.682 822.94 857.294V861.902C822.94 862.214 822.838 862.478 822.634 862.694C822.43 862.898 822.172 863 821.86 863C821.548 863 821.29 862.898 821.086 862.694C820.882 862.478 820.78 862.214 820.78 861.902V857.294C820.78 856.634 820.648 856.118 820.384 855.746C820.132 855.362 819.682 855.17 819.034 855.17C818.362 855.17 817.834 855.374 817.45 855.782C817.078 856.178 816.892 856.682 816.892 857.294V861.902C816.892 862.214 816.79 862.478 816.586 862.694C816.382 862.898 816.124 863 815.812 863C815.5 863 815.242 862.898 815.038 862.694C814.834 862.478 814.732 862.214 814.732 861.902V854.468C814.732 854.156 814.834 853.898 815.038 853.694C815.242 853.478 815.5 853.37 815.812 853.37C816.124 853.37 816.382 853.478 816.586 853.694C816.79 853.898 816.892 854.156 816.892 854.468V854.756C817.216 854.324 817.624 853.958 818.116 853.658C818.62 853.346 819.178 853.19 819.79 853.19C821.302 853.19 822.268 853.85 822.688 855.17C822.964 854.666 823.378 854.21 823.93 853.802C824.494 853.394 825.13 853.19 825.838 853.19ZM839.965 857.96C839.953 858.248 839.839 858.482 839.623 858.662C839.407 858.842 839.155 858.932 838.867 858.932H832.927C833.071 859.64 833.401 860.198 833.917 860.606C834.433 861.002 835.015 861.2 835.663 861.2C836.155 861.2 836.539 861.158 836.815 861.074C837.091 860.978 837.307 860.882 837.463 860.786C837.631 860.678 837.745 860.606 837.805 860.57C838.021 860.462 838.225 860.408 838.417 860.408C838.669 860.408 838.885 860.498 839.065 860.678C839.245 860.858 839.335 861.068 839.335 861.308C839.335 861.632 839.167 861.926 838.831 862.19C838.495 862.466 838.045 862.7 837.481 862.892C836.917 863.084 836.347 863.18 835.771 863.18C834.763 863.18 833.881 862.97 833.125 862.55C832.381 862.13 831.805 861.554 831.397 860.822C830.989 860.078 830.785 859.244 830.785 858.32C830.785 857.288 831.001 856.382 831.433 855.602C831.865 854.822 832.435 854.228 833.143 853.82C833.851 853.4 834.607 853.19 835.411 853.19C836.203 853.19 836.947 853.406 837.643 853.838C838.351 854.27 838.915 854.852 839.335 855.584C839.755 856.316 839.965 857.108 839.965 857.96ZM835.411 855.17C834.019 855.17 833.197 855.824 832.945 857.132H837.661V857.006C837.613 856.502 837.367 856.07 836.923 855.71C836.479 855.35 835.975 855.17 835.411 855.17Z" fill="#A880F7"/>
</g>
<defs>
<clipPath id="clip0">
<rect width="1440" height="900" fill="white"/>
</clipPath>
</defs>
</svg>
