<svg width="1440" height="900" viewBox="0 0 1440 900" fill="none" xmlns="http://www.w3.org/2000/svg">
<g clip-path="url(#clip0)">
<path d="M-11 -101C-114.995 -147.368 -92.7249 97.2953 -113.209 121.884V532.122C-57.7448 636.3 37.5316 665.355 78.2367 666.861C184.753 677.7 233.442 701.486 244.471 712.024C291.112 735.51 319.054 795.577 327.195 822.676C379.98 891.174 432.765 862.57 515.489 857.301C581.668 853.086 598.737 892.68 599 913.003V934.08L559.608 1031.93L405.191 1050H78.2367L-334.592 934.08C-362.167 771.741 -416.843 442.246 -414.952 422.976C-413.061 403.706 -360.591 101.31 -334.592 -47.4798L-40.7274 -122C16.0913 -108.776 119.185 -102.154 208.009 -90.5508C238.614 -97.1298 266.898 -107.368 289 -122C300.03 -138.811 411.531 1.77689 363 -47C341.392 -68.7172 279.296 -81.2383 208.009 -90.5508C127.773 -73.303 31.5826 -81.2025 -11 -101Z" fill="#FDECF4"/>
<path d="M1413 542C1441.5 451 1426.56 443.006 1440 387L1658.3 598.73L1704.03 914.435L1596.18 1017.46L1101.02 1027.55C1129.55 1009.67 919.884 956.522 919 926C912.334 843.706 1160.62 865 1199 792.5C1237.38 720 1268.46 660.605 1295.5 643.5C1354 606.5 1401.76 592.547 1413 542Z" fill="#E1EEFB"/>
<path d="M-22.571 346.492L-166.923 430.603L-190.902 691.095L-230.465 901.218L-79.1083 985.432L348.342 1020.74L412.813 944.98" stroke="#3D467F" stroke-width="6"/>
<path d="M1075.03 134C1075.03 145.046 1065.84 154 1054.51 154C1043.18 154 1034 145.046 1034 134C1034 122.954 1043.18 114 1054.51 114C1065.84 114 1075.03 122.954 1075.03 134Z" fill="#FDD4C1"/>
<path d="M178.526 450C178.526 460.182 170.049 468.5 159.513 468.5C148.976 468.5 140.5 460.182 140.5 450C140.5 439.818 148.976 431.5 159.513 431.5C170.049 431.5 178.526 439.818 178.526 450Z" stroke="#D5C1FC" stroke-width="3"/>
<ellipse cx="1363.5" cy="280.5" rx="36.5" ry="35.5" fill="#E1EEFB"/>
</g>
<defs>
<clipPath id="clip0">
<rect width="1440" height="900" fill="white"/>
</clipPath>
</defs>
</svg>
