<svg width="1440" height="900" viewBox="0 0 1440 900" fill="none" xmlns="http://www.w3.org/2000/svg">
<g clip-path="url(#clip0)">
<rect width="1440" height="900" transform="translate(1440 900) rotate(-180)" fill="white"/>
<path opacity="0.3" d="M1266.46 753.488C1360.61 797.404 1421.24 761.806 1439.78 738.517L1439.78 349.982C1389.57 251.315 1303.31 223.797 1266.46 222.371C1170.03 212.105 1125.95 189.577 1115.96 179.596C1073.74 157.354 1048.44 100.463 1041.07 74.7986C993.284 9.92389 945.496 37.0145 870.605 42.0048C810.692 45.9971 795.238 8.49809 795 -10.7504L795 -30.712L830.663 -123.39L970.46 -140.5L1266.46 -140.5L1640.2 -30.7119C1665.17 123.039 1714.67 435.103 1712.96 453.354C1711.24 471.604 1663.74 758.004 1640.2 898.922L1374.16 969.5C1281.44 946.925 1085.01 890.224 1041.07 844.028C997.136 797.831 1006.12 754.439 1016.11 738.517C1088.58 688.329 1213.2 727.586 1266.46 753.488Z" fill="#D5C1FC"/>
<path d="M1183.5 263.949C1393.61 314.727 1439.74 440.753 1456.57 518.008L1600.92 433.897L1624.9 173.405L1664.47 -36.7183L1513.11 -120.932L1085.66 -156.237L1021.19 -80.4798C959.892 16.3913 958.268 209.518 1183.5 263.949Z" stroke="#3D467F" stroke-width="6"/>
<path d="M285 749C282.2 820.6 388.5 881.167 442 902.5L319 1046L0 1046L-86.5 924.5L-25.4999 433C-11.8999 463.8 52.1667 478.5 82.5 482C164.9 487.2 213.5 511.167 227.5 522.5C322 591.5 285 666 285 698L285 749Z" fill="#E1EEFB"/>
<path d="M152 747C127.6 802.2 162.167 874.667 182.5 904L-58.9999 1024L-168.5 904L-179 666C-206 582.667 -226.2 415.4 -90.9999 413C78.0001 410 135 433 182.5 500.5C230 568 182.5 678 152 747Z" stroke="#5B5B5B" stroke-width="6"/>
<path d="M174 78C174 89.598 164.598 99 153 99C141.402 99 132 89.598 132 78C132 66.402 141.402 57 153 57C164.598 57 174 66.402 174 78Z" stroke="#FDD4C1" stroke-width="8"/>
</g>
<defs>
<clipPath id="clip0">
<rect width="1440" height="900" fill="white" transform="translate(1440 900) rotate(-180)"/>
</clipPath>
</defs>
</svg>
