<svg width="462" height="45" viewBox="0 0 462 45" fill="none" xmlns="http://www.w3.org/2000/svg">
<path d="M25.4169 3.032C26.4089 3.544 26.9049 4.36 26.9049 5.48C26.9049 6.152 26.6649 6.808 26.1849 7.448C25.6729 8.12 25.0169 8.456 24.2169 8.456C23.6729 8.456 23.1289 8.312 22.5849 8.024C21.0169 7.288 19.3209 6.92 17.4969 6.92C15.2569 6.92 13.3049 7.4 11.6409 8.36C9.97688 9.288 8.69688 10.616 7.80088 12.344C6.90488 14.04 6.45688 15.992 6.45688 18.2C6.45688 21.976 7.46488 24.84 9.48088 26.792C11.5289 28.744 14.2009 29.72 17.4969 29.72C19.4489 29.72 21.1449 29.352 22.5849 28.616C23.1609 28.36 23.6729 28.232 24.1209 28.232C24.9529 28.232 25.6569 28.584 26.2329 29.288C26.7129 29.896 26.9529 30.552 26.9529 31.256C26.9529 31.768 26.8249 32.232 26.5689 32.648C26.3129 33.064 25.9449 33.384 25.4649 33.608C22.9689 34.856 20.3129 35.48 17.4969 35.48C14.3609 35.48 11.4809 34.824 8.85688 33.512C6.23288 32.168 4.13688 30.2 2.56888 27.608C1.00088 25.016 0.216875 21.88 0.216875 18.2C0.216875 14.936 0.952875 12.008 2.42488 9.416C3.92888 6.824 5.99288 4.808 8.61688 3.368C11.2409 1.896 14.2009 1.16 17.4969 1.16C20.3449 1.16 22.9849 1.784 25.4169 3.032ZM58.3426 30.296C58.7586 30.552 59.0786 30.888 59.3026 31.304C59.5586 31.72 59.6866 32.152 59.6866 32.6C59.6866 33.176 59.4946 33.704 59.1106 34.184C58.6306 34.76 57.8946 35.048 56.9026 35.048C56.1346 35.048 55.4306 34.872 54.7906 34.52C52.4866 33.208 51.3346 30.536 51.3346 26.504C51.3346 25.352 50.9506 24.44 50.1826 23.768C49.4466 23.096 48.3746 22.76 46.9666 22.76H37.9906V32.072C37.9906 32.936 37.7506 33.64 37.2706 34.184C36.8226 34.728 36.2146 35 35.4466 35C34.5186 35 33.7026 34.728 32.9986 34.184C32.3266 33.608 31.9906 32.904 31.9906 32.072V4.328C31.9906 3.496 32.2626 2.808 32.8066 2.264C33.3826 1.688 34.0866 1.4 34.9186 1.4H48.7426C50.4066 1.4 51.9746 1.848 53.4466 2.744C54.9186 3.64 56.0866 4.872 56.9506 6.44C57.8466 8.008 58.2946 9.768 58.2946 11.72C58.2946 13.32 57.8626 14.888 56.9986 16.424C56.1346 17.928 55.0146 19.128 53.6386 20.024C55.6546 21.432 56.7586 23.32 56.9506 25.688C57.0466 26.2 57.0946 26.696 57.0946 27.176C57.2226 28.168 57.3506 28.888 57.4786 29.336C57.6066 29.752 57.8946 30.072 58.3426 30.296ZM48.5026 17.816C49.0786 17.816 49.6386 17.544 50.1826 17C50.7266 16.456 51.1746 15.736 51.5266 14.84C51.8786 13.912 52.0546 12.92 52.0546 11.864C52.0546 10.968 51.8786 10.152 51.5266 9.416C51.1746 8.648 50.7266 8.04 50.1826 7.592C49.6386 7.144 49.0786 6.92 48.5026 6.92H37.9906V17.816H48.5026ZM83.9518 29.48C84.7838 29.48 85.4718 29.768 86.0157 30.344C86.5918 30.888 86.8798 31.528 86.8798 32.264C86.8798 33.064 86.5918 33.72 86.0157 34.232C85.4718 34.744 84.7838 35 83.9518 35H67.8718C67.0398 35 66.3358 34.728 65.7598 34.184C65.2158 33.608 64.9438 32.904 64.9438 32.072V4.328C64.9438 3.496 65.2158 2.808 65.7598 2.264C66.3358 1.688 67.0398 1.4 67.8718 1.4H83.9518C84.7838 1.4 85.4718 1.672 86.0157 2.216C86.5918 2.728 86.8798 3.4 86.8798 4.232C86.8798 5.032 86.6078 5.688 86.0638 6.2C85.5198 6.68 84.8158 6.92 83.9518 6.92H70.9438V15.08H81.7918C82.6238 15.08 83.3118 15.352 83.8558 15.896C84.4318 16.408 84.7198 17.08 84.7198 17.912C84.7198 18.712 84.4478 19.368 83.9038 19.88C83.3598 20.36 82.6558 20.6 81.7918 20.6H70.9438V29.48H83.9518ZM118.765 31.256C118.925 31.672 119.005 32.056 119.005 32.408C119.005 33.24 118.733 33.928 118.189 34.472C117.645 34.984 117.021 35.24 116.317 35.24C115.741 35.24 115.213 35.064 114.733 34.712C114.285 34.36 113.933 33.88 113.677 33.272L111.181 27.464H96.8765L94.3805 33.32C94.1565 33.928 93.8045 34.408 93.3245 34.76C92.8765 35.08 92.3805 35.24 91.8365 35.24C91.0045 35.24 90.3645 35.016 89.9165 34.568C89.5005 34.12 89.2925 33.512 89.2925 32.744C89.2925 32.456 89.3405 32.152 89.4365 31.832L101.389 3.128C101.645 2.488 102.029 1.992 102.541 1.64C103.053 1.288 103.629 1.144 104.269 1.208C104.845 1.208 105.373 1.384 105.853 1.736C106.365 2.056 106.733 2.52 106.957 3.128L118.765 31.256ZM108.829 21.944L103.981 10.712L99.2285 21.944H108.829ZM142.758 1.4C143.622 1.4 144.326 1.656 144.87 2.168C145.414 2.68 145.686 3.352 145.686 4.184C145.686 5.016 145.414 5.688 144.87 6.2C144.326 6.68 143.622 6.92 142.758 6.92H135.222V32.072C135.222 32.904 134.918 33.608 134.31 34.184C133.702 34.728 132.95 35 132.054 35C131.158 35 130.422 34.728 129.846 34.184C129.27 33.608 128.982 32.904 128.982 32.072V6.92H121.446C120.582 6.92 119.878 6.664 119.334 6.152C118.79 5.64 118.518 4.968 118.518 4.136C118.518 3.336 118.79 2.68 119.334 2.168C119.91 1.656 120.614 1.4 121.446 1.4H142.758ZM169.733 29.48C170.565 29.48 171.253 29.768 171.797 30.344C172.373 30.888 172.661 31.528 172.661 32.264C172.661 33.064 172.373 33.72 171.797 34.232C171.253 34.744 170.565 35 169.733 35H153.653C152.821 35 152.117 34.728 151.541 34.184C150.997 33.608 150.725 32.904 150.725 32.072V4.328C150.725 3.496 150.997 2.808 151.541 2.264C152.117 1.688 152.821 1.4 153.653 1.4H169.733C170.565 1.4 171.253 1.672 171.797 2.216C172.373 2.728 172.661 3.4 172.661 4.232C172.661 5.032 172.389 5.688 171.845 6.2C171.301 6.68 170.597 6.92 169.733 6.92H156.725V15.08H167.573C168.405 15.08 169.093 15.352 169.637 15.896C170.213 16.408 170.501 17.08 170.501 17.912C170.501 18.712 170.229 19.368 169.685 19.88C169.141 20.36 168.437 20.6 167.573 20.6H156.725V29.48H169.733ZM217.135 1.4C217.903 1.4 218.527 1.656 219.007 2.168C219.487 2.68 219.727 3.32 219.727 4.088V32.072C219.727 32.904 219.439 33.608 218.863 34.184C218.319 34.728 217.631 35 216.799 35C216.351 35 215.903 34.936 215.455 34.808C215.039 34.648 214.735 34.44 214.543 34.184L196.927 11.816V32.312C196.927 33.08 196.671 33.72 196.159 34.232C195.679 34.744 195.039 35 194.239 35C193.471 35 192.847 34.744 192.367 34.232C191.887 33.72 191.647 33.08 191.647 32.312V4.328C191.647 3.496 191.919 2.808 192.463 2.264C193.039 1.688 193.743 1.4 194.575 1.4C195.055 1.4 195.519 1.496 195.967 1.688C196.447 1.88 196.799 2.136 197.023 2.456L214.495 24.728V4.088C214.495 3.32 214.735 2.68 215.215 2.168C215.727 1.656 216.367 1.4 217.135 1.4ZM245.952 29.48C246.784 29.48 247.472 29.768 248.016 30.344C248.592 30.888 248.88 31.528 248.88 32.264C248.88 33.064 248.592 33.72 248.016 34.232C247.472 34.744 246.784 35 245.952 35H229.872C229.04 35 228.336 34.728 227.76 34.184C227.216 33.608 226.944 32.904 226.944 32.072V4.328C226.944 3.496 227.216 2.808 227.76 2.264C228.336 1.688 229.04 1.4 229.872 1.4H245.952C246.784 1.4 247.472 1.672 248.016 2.216C248.592 2.728 248.88 3.4 248.88 4.232C248.88 5.032 248.608 5.688 248.064 6.2C247.52 6.68 246.816 6.92 245.952 6.92H232.944V15.08H243.792C244.624 15.08 245.312 15.352 245.856 15.896C246.432 16.408 246.72 17.08 246.72 17.912C246.72 18.712 246.448 19.368 245.904 19.88C245.36 20.36 244.656 20.6 243.792 20.6H232.944V29.48H245.952ZM292.189 1.256C292.957 1.256 293.661 1.56 294.301 2.168C294.973 2.744 295.309 3.48 295.309 4.376C295.309 4.664 295.261 4.984 295.165 5.336L285.709 33.176C285.517 33.72 285.181 34.152 284.701 34.472C284.221 34.792 283.693 34.968 283.117 35C282.541 35 281.997 34.84 281.485 34.52C280.973 34.2 280.573 33.736 280.285 33.128L273.469 17.624L266.605 33.128C266.317 33.736 265.917 34.2 265.405 34.52C264.893 34.84 264.349 35 263.773 35C263.197 34.968 262.669 34.792 262.189 34.472C261.709 34.152 261.373 33.72 261.181 33.176L251.725 5.336C251.629 4.984 251.581 4.664 251.581 4.376C251.581 3.48 251.901 2.744 252.541 2.168C253.213 1.56 253.949 1.256 254.749 1.256C255.389 1.256 255.965 1.432 256.477 1.784C256.989 2.104 257.341 2.552 257.533 3.128L264.685 24.824L270.925 9.848C271.181 9.272 271.549 8.824 272.029 8.504C272.509 8.152 273.053 7.992 273.661 8.024C274.269 7.992 274.797 8.152 275.245 8.504C275.725 8.824 276.093 9.272 276.349 9.848L282.253 24.68L289.357 3.128C289.549 2.552 289.901 2.104 290.413 1.784C290.957 1.432 291.549 1.256 292.189 1.256ZM332.155 29.48C332.987 29.48 333.675 29.768 334.219 30.344C334.795 30.888 335.083 31.528 335.083 32.264C335.083 33.064 334.795 33.72 334.219 34.232C333.675 34.744 332.987 35 332.155 35H316.075C315.243 35 314.539 34.728 313.963 34.184C313.419 33.608 313.147 32.904 313.147 32.072V4.328C313.147 3.496 313.419 2.808 313.963 2.264C314.539 1.688 315.243 1.4 316.075 1.4H332.155C332.987 1.4 333.675 1.672 334.219 2.216C334.795 2.728 335.083 3.4 335.083 4.232C335.083 5.032 334.811 5.688 334.267 6.2C333.723 6.68 333.019 6.92 332.155 6.92H319.147V15.08H329.995C330.827 15.08 331.515 15.352 332.059 15.896C332.635 16.408 332.923 17.08 332.923 17.912C332.923 18.712 332.651 19.368 332.107 19.88C331.563 20.36 330.859 20.6 329.995 20.6H319.147V29.48H332.155ZM406.032 36.344C406.704 36.344 407.328 36.632 407.904 37.208C408.48 37.784 408.768 38.424 408.768 39.128C408.768 40.056 408.224 40.936 407.136 41.768C406.08 42.632 404.768 43.32 403.2 43.832C401.664 44.344 400.288 44.6 399.072 44.6C397.024 44.6 395.392 44.392 394.176 43.976C392.992 43.592 391.792 43.048 390.576 42.344C389.776 41.864 389.12 41.512 388.608 41.288C388.096 41.096 387.488 41 386.784 41C386.4 41 386.08 41.048 385.824 41.144C385.568 41.24 385.232 41.384 384.816 41.576C384.4 41.8 384.016 41.96 383.664 42.056C383.312 42.184 382.864 42.248 382.32 42.248C381.552 42.248 380.88 41.944 380.304 41.336C379.76 40.76 379.488 40.104 379.488 39.368C379.488 38.12 380.048 37.288 381.168 36.872L385.92 35.096C383.424 34.552 381.216 33.48 379.296 31.88C377.376 30.248 375.888 28.248 374.832 25.88C373.776 23.512 373.248 20.952 373.248 18.2C373.248 15.032 373.936 12.136 375.312 9.512C376.72 6.856 378.656 4.76 381.12 3.224C383.616 1.688 386.416 0.919998 389.52 0.919998C392.624 0.919998 395.408 1.688 397.872 3.224C400.368 4.76 402.32 6.856 403.728 9.512C405.136 12.136 405.84 15.032 405.84 18.2C405.84 20.952 405.296 23.512 404.208 25.88C403.152 28.248 401.648 30.248 399.696 31.88C397.776 33.48 395.568 34.552 393.072 35.096L390.144 36.2C390.88 36.296 391.552 36.472 392.16 36.728C392.8 36.984 393.52 37.336 394.32 37.784C395.312 38.328 396.176 38.728 396.912 38.984C397.648 39.24 398.48 39.368 399.408 39.368C400.208 39.368 400.896 39.24 401.472 38.984C402.048 38.76 402.608 38.424 403.152 37.976C403.344 37.816 403.632 37.576 404.016 37.256C404.4 36.968 404.752 36.744 405.072 36.584C405.392 36.424 405.712 36.344 406.032 36.344ZM379.488 18.2C379.488 20.344 379.904 22.296 380.736 24.056C381.6 25.816 382.784 27.208 384.288 28.232C385.824 29.224 387.568 29.72 389.52 29.72C391.44 29.72 393.168 29.208 394.704 28.184C396.24 27.16 397.44 25.784 398.304 24.056C399.168 22.296 399.6 20.344 399.6 18.2C399.6 16.056 399.168 14.12 398.304 12.392C397.44 10.632 396.24 9.24 394.704 8.216C393.168 7.192 391.44 6.68 389.52 6.68C387.568 6.68 385.824 7.192 384.288 8.216C382.784 9.208 381.6 10.584 380.736 12.344C379.904 14.104 379.488 16.056 379.488 18.2ZM450.205 4.232C450.205 4.84 449.981 5.448 449.533 6.056L431.293 29.48H446.605C447.469 29.48 448.173 29.736 448.717 30.248C449.261 30.728 449.533 31.384 449.533 32.216C449.533 33.016 449.245 33.688 448.669 34.232C448.125 34.744 447.437 35 446.605 35H425.533C424.701 35 423.981 34.712 423.373 34.136C422.765 33.56 422.461 32.904 422.461 32.168C422.461 31.56 422.685 30.952 423.133 30.344L441.325 6.92H427.453C426.589 6.92 425.885 6.664 425.341 6.152C424.797 5.64 424.525 4.968 424.525 4.136C424.525 3.336 424.797 2.68 425.341 2.168C425.917 1.656 426.621 1.4 427.453 1.4H447.085C447.853 1.4 448.557 1.672 449.197 2.216C449.869 2.76 450.205 3.432 450.205 4.232ZM458.338 24.392C457.25 24.392 456.658 23.784 456.562 22.568L455.17 4.904C455.106 3.912 455.362 3.08 455.938 2.408C456.546 1.736 457.33 1.4 458.29 1.4C459.25 1.4 460.034 1.736 460.642 2.408C461.25 3.08 461.506 3.912 461.41 4.904L460.066 22.568C459.97 23.784 459.394 24.392 458.338 24.392ZM458.002 35C457.074 35 456.354 34.76 455.842 34.28C455.362 33.768 455.122 33.048 455.122 32.12V31.304C455.122 30.376 455.362 29.672 455.842 29.192C456.354 28.68 457.074 28.424 458.002 28.424H458.626C459.554 28.424 460.258 28.68 460.738 29.192C461.25 29.672 461.506 30.376 461.506 31.304V32.12C461.506 33.048 461.25 33.768 460.738 34.28C460.258 34.76 459.554 35 458.626 35H458.002Z" fill="#3D467F"/>
<path d="M355.016 1.4C358.024 1.4 360.6 2.152 362.744 3.656C364.92 5.128 366.568 7.144 367.688 9.704C368.84 12.232 369.416 15.064 369.416 18.2C369.416 21.336 368.84 24.184 367.688 26.744C366.568 29.272 364.92 31.288 362.744 32.792C360.6 34.264 358.024 35 355.016 35H343.544C342.712 35 342.008 34.728 341.432 34.184C340.888 33.608 340.616 32.904 340.616 32.072V4.328C340.616 3.496 340.888 2.808 341.432 2.264C342.008 1.688 342.712 1.4 343.544 1.4H355.016ZM354.536 29.48C357.416 29.48 359.576 28.424 361.016 26.312C362.456 24.168 363.176 21.464 363.176 18.2C363.176 14.936 362.44 12.248 360.968 10.136C359.528 7.992 357.384 6.92 354.536 6.92H346.616V29.48H354.536Z" fill="#A880F7"/>
<path d="M417.163 32.072C417.163 32.904 416.859 33.608 416.251 34.184C415.643 34.728 414.939 35 414.139 35C413.275 35 412.555 34.728 411.979 34.184C411.435 33.608 411.163 32.904 411.163 32.072V4.328C411.163 3.496 411.451 2.808 412.027 2.264C412.603 1.688 413.339 1.4 414.235 1.4C415.035 1.4 415.723 1.688 416.299 2.264C416.875 2.808 417.163 3.496 417.163 4.328V32.072Z" fill="#F39AC4"/>
</svg>
