<svg width="31" height="31" viewBox="0 0 31 31" fill="none" xmlns="http://www.w3.org/2000/svg">
<g opacity="0.6">
<path d="M9.04159 14.2083V16.7917H21.9583V14.2083H9.04159ZM15.4999 2.58333C8.36992 2.58333 2.58325 8.37 2.58325 15.5C2.58325 22.63 8.36992 28.4167 15.4999 28.4167C22.6299 28.4167 28.4166 22.63 28.4166 15.5C28.4166 8.37 22.6299 2.58333 15.4999 2.58333ZM15.4999 25.8333C9.80367 25.8333 5.16659 21.1962 5.16659 15.5C5.16659 9.80375 9.80367 5.16667 15.4999 5.16667C21.1962 5.16667 25.8333 9.80375 25.8333 15.5C25.8333 21.1962 21.1962 25.8333 15.4999 25.8333Z" fill="#5B5B5B"/>
</g>
</svg>
