<svg width="223" height="67" viewBox="0 0 223 67" fill="none" xmlns="http://www.w3.org/2000/svg">
<path d="M28.912 43.72C30.16 43.72 31.192 44.152 32.008 45.016C32.872 45.832 33.304 46.792 33.304 47.896C33.304 49.096 32.872 50.08 32.008 50.848C31.192 51.616 30.16 52 28.912 52H4.792C3.544 52 2.488 51.592 1.624 50.776C0.808 49.912 0.4 48.856 0.4 47.608V5.992C0.4 4.744 0.808 3.712 1.624 2.896C2.488 2.032 3.544 1.6 4.792 1.6H28.912C30.16 1.6 31.192 2.008 32.008 2.824C32.872 3.592 33.304 4.6 33.304 5.848C33.304 7.048 32.896 8.032 32.08 8.8C31.264 9.52 30.208 9.88 28.912 9.88H9.4V22.12H25.672C26.92 22.12 27.952 22.528 28.768 23.344C29.632 24.112 30.064 25.12 30.064 26.368C30.064 27.568 29.656 28.552 28.84 29.32C28.024 30.04 26.968 30.4 25.672 30.4H9.4V43.72H28.912ZM139.728 54.016C140.736 54.016 141.672 54.448 142.536 55.312C143.4 56.176 143.832 57.136 143.832 58.192C143.832 59.584 143.016 60.904 141.384 62.152C139.8 63.448 137.832 64.48 135.48 65.248C133.176 66.016 131.112 66.4 129.288 66.4C126.216 66.4 123.768 66.088 121.944 65.464C120.168 64.888 118.368 64.072 116.544 63.016C115.344 62.296 114.36 61.768 113.592 61.432C112.824 61.144 111.912 61 110.856 61C110.28 61 109.8 61.072 109.416 61.216C109.032 61.36 108.528 61.576 107.904 61.864C107.28 62.2 106.704 62.44 106.176 62.584C105.648 62.776 104.976 62.872 104.16 62.872C103.008 62.872 102 62.416 101.136 61.504C100.32 60.64 99.9119 59.656 99.9119 58.552C99.9119 56.68 100.752 55.432 102.432 54.808L109.56 52.144C105.816 51.328 102.504 49.72 99.6239 47.32C96.7439 44.872 94.5119 41.872 92.9279 38.32C91.3439 34.768 90.5519 30.928 90.5519 26.8C90.5519 22.048 91.5839 17.704 93.6479 13.768C95.7599 9.784 98.6639 6.64 102.36 4.336C106.104 2.032 110.304 0.879997 114.96 0.879997C119.616 0.879997 123.792 2.032 127.488 4.336C131.232 6.64 134.16 9.784 136.272 13.768C138.384 17.704 139.44 22.048 139.44 26.8C139.44 30.928 138.624 34.768 136.992 38.32C135.408 41.872 133.152 44.872 130.224 47.32C127.344 49.72 124.032 51.328 120.288 52.144L115.896 53.8C117 53.944 118.008 54.208 118.92 54.592C119.88 54.976 120.96 55.504 122.16 56.176C123.648 56.992 124.944 57.592 126.048 57.976C127.152 58.36 128.4 58.552 129.792 58.552C130.992 58.552 132.024 58.36 132.888 57.976C133.752 57.64 134.592 57.136 135.408 56.464C135.696 56.224 136.128 55.864 136.704 55.384C137.28 54.952 137.808 54.616 138.288 54.376C138.768 54.136 139.248 54.016 139.728 54.016ZM99.9119 26.8C99.9119 30.016 100.536 32.944 101.784 35.584C103.08 38.224 104.856 40.312 107.112 41.848C109.416 43.336 112.032 44.08 114.96 44.08C117.84 44.08 120.432 43.312 122.736 41.776C125.04 40.24 126.84 38.176 128.136 35.584C129.432 32.944 130.08 30.016 130.08 26.8C130.08 23.584 129.432 20.68 128.136 18.088C126.84 15.448 125.04 13.36 122.736 11.824C120.432 10.288 117.84 9.52 114.96 9.52C112.032 9.52 109.416 10.288 107.112 11.824C104.856 13.312 103.08 15.376 101.784 18.016C100.536 20.656 99.9119 23.584 99.9119 26.8ZM205.988 5.848C205.988 6.76 205.652 7.672 204.98 8.584L177.62 43.72H200.588C201.884 43.72 202.94 44.104 203.756 44.872C204.572 45.592 204.98 46.576 204.98 47.824C204.98 49.024 204.548 50.032 203.684 50.848C202.868 51.616 201.836 52 200.588 52H168.98C167.732 52 166.652 51.568 165.74 50.704C164.828 49.84 164.372 48.856 164.372 47.752C164.372 46.84 164.708 45.928 165.38 45.016L192.668 9.88H171.86C170.564 9.88 169.508 9.496 168.692 8.728C167.876 7.96 167.468 6.952 167.468 5.704C167.468 4.504 167.876 3.52 168.692 2.752C169.556 1.984 170.612 1.6 171.86 1.6H201.308C202.46 1.6 203.516 2.008 204.476 2.824C205.484 3.64 205.988 4.648 205.988 5.848ZM218.187 36.088C216.555 36.088 215.667 35.176 215.523 33.352L213.435 6.856C213.339 5.368 213.723 4.12 214.587 3.112C215.499 2.104 216.675 1.6 218.115 1.6C219.555 1.6 220.731 2.104 221.643 3.112C222.555 4.12 222.939 5.368 222.795 6.856L220.779 33.352C220.635 35.176 219.771 36.088 218.187 36.088ZM217.683 52C216.291 52 215.211 51.64 214.443 50.92C213.723 50.152 213.363 49.072 213.363 47.68V46.456C213.363 45.064 213.723 44.008 214.443 43.288C215.211 42.52 216.291 42.136 217.683 42.136H218.619C220.011 42.136 221.067 42.52 221.787 43.288C222.555 44.008 222.939 45.064 222.939 46.456V47.68C222.939 49.072 222.555 50.152 221.787 50.92C221.067 51.64 220.011 52 218.619 52H217.683Z" fill="#3D467F"/>
<path d="M63.2031 1.6C67.7151 1.6 71.5791 2.728 74.7951 4.984C78.0591 7.192 80.5311 10.216 82.2111 14.056C83.9391 17.848 84.8031 22.096 84.8031 26.8C84.8031 31.504 83.9391 35.776 82.2111 39.616C80.5311 43.408 78.0591 46.432 74.7951 48.688C71.5791 50.896 67.7151 52 63.2031 52H45.9951C44.7471 52 43.6911 51.592 42.8271 50.776C42.0111 49.912 41.6031 48.856 41.6031 47.608V5.992C41.6031 4.744 42.0111 3.712 42.8271 2.896C43.6911 2.032 44.7471 1.6 45.9951 1.6H63.2031ZM62.4831 43.72C66.8031 43.72 70.0431 42.136 72.2031 38.968C74.3631 35.752 75.4431 31.696 75.4431 26.8C75.4431 21.904 74.3391 17.872 72.1311 14.704C69.9711 11.488 66.7551 9.88 62.4831 9.88H50.6031V43.72H62.4831Z" fill="#A880F7"/>
<path d="M156.423 47.608C156.423 48.856 155.967 49.912 155.055 50.776C154.143 51.592 153.087 52 151.887 52C150.591 52 149.511 51.592 148.647 50.776C147.831 49.912 147.423 48.856 147.423 47.608V5.992C147.423 4.744 147.855 3.712 148.719 2.896C149.583 2.032 150.687 1.6 152.031 1.6C153.231 1.6 154.263 2.032 155.127 2.896C155.991 3.712 156.423 4.744 156.423 5.992V47.608Z" fill="#F39AC4"/>
</svg>
