<svg width="975" height="85" viewBox="0 0 975 85" fill="none" xmlns="http://www.w3.org/2000/svg">
<circle cx="412" cy="48" r="14" fill="#F39AC4"/>
<line x1="426" y1="47.5" x2="474" y2="47.5" stroke="#CED4DA"/>
<circle cx="488" cy="48" r="14" fill="#5B5B5B"/>
<line x1="502" y1="47.5" x2="550" y2="47.5" stroke="#CED4DA"/>
<circle cx="564" cy="48" r="14" fill="#5B5B5B"/>
<path d="M412.271 52H411.182V44.7754L408.996 45.5781V44.5938L412.102 43.4277H412.271V52Z" fill="white"/>
<path d="M490.299 52H484.709V51.2207L487.662 47.9395C488.1 47.4434 488.4 47.041 488.564 46.7324C488.732 46.4199 488.816 46.0977 488.816 45.7656C488.816 45.3203 488.682 44.9551 488.412 44.6699C488.143 44.3848 487.783 44.2422 487.334 44.2422C486.795 44.2422 486.375 44.3965 486.074 44.7051C485.777 45.0098 485.629 45.4355 485.629 45.9824H484.545C484.545 45.1973 484.797 44.5625 485.301 44.0781C485.809 43.5938 486.486 43.3516 487.334 43.3516C488.127 43.3516 488.754 43.5605 489.215 43.9785C489.676 44.3926 489.906 44.9453 489.906 45.6367C489.906 46.4766 489.371 47.4766 488.301 48.6367L486.016 51.1152H490.299V52Z" fill="white"/>
<path d="M562.285 47.207H563.1C563.611 47.1992 564.014 47.0645 564.307 46.8027C564.6 46.541 564.746 46.1875 564.746 45.7422C564.746 44.7422 564.248 44.2422 563.252 44.2422C562.783 44.2422 562.408 44.377 562.127 44.6465C561.85 44.9121 561.711 45.2656 561.711 45.707H560.627C560.627 45.0312 560.873 44.4707 561.365 44.0254C561.861 43.5762 562.49 43.3516 563.252 43.3516C564.057 43.3516 564.688 43.5645 565.145 43.9902C565.602 44.416 565.83 45.0078 565.83 45.7656C565.83 46.1367 565.709 46.4961 565.467 46.8438C565.229 47.1914 564.902 47.4512 564.488 47.623C564.957 47.7715 565.318 48.0176 565.572 48.3613C565.83 48.7051 565.959 49.125 565.959 49.6211C565.959 50.3867 565.709 50.9941 565.209 51.4434C564.709 51.8926 564.059 52.1172 563.258 52.1172C562.457 52.1172 561.805 51.9004 561.301 51.4668C560.801 51.0332 560.551 50.4609 560.551 49.75H561.641C561.641 50.1992 561.787 50.5586 562.08 50.8281C562.373 51.0977 562.766 51.2324 563.258 51.2324C563.781 51.2324 564.182 51.0957 564.459 50.8223C564.736 50.5488 564.875 50.1562 564.875 49.6445C564.875 49.1484 564.723 48.7676 564.418 48.502C564.113 48.2363 563.674 48.0996 563.1 48.0918H562.285V47.207Z" fill="white"/>
</svg>
