<svg width="1440" height="533" viewBox="0 0 1440 533" fill="none" xmlns="http://www.w3.org/2000/svg">
<g clip-path="url(#clip0)">
<rect width="1448" height="900" transform="translate(1448 533) rotate(-180)" fill="white"/>
<path d="M50.4628 281.381C-11.8025 316.841 -7.04619 439.093 3.1151 495.786L-183.711 467.197L-352.289 196.379L-294.851 58.7365L154.648 -149.213C135.687 -121.391 157.064 -59.2328 170.123 -31.6314C209.253 41.0709 214.589 94.9958 212.366 112.87C203.727 229.561 120.926 237.519 93.7598 254.43L50.4628 281.381Z" fill="#E1EEFB"/>
<path opacity="0.3" d="M1267.46 785.988C1361.61 829.904 1422.24 794.306 1440.78 771.017L1440.78 382.482C1390.57 283.815 1304.31 256.297 1267.46 254.871C1171.03 244.605 1126.95 222.077 1116.96 212.096C1074.74 189.854 1049.44 132.963 1042.07 107.299C994.284 42.4239 946.496 69.5145 871.605 74.5048C811.692 78.4971 796.238 40.9981 796 21.7496L796 1.78801L831.663 -90.8902L971.46 -108L1267.46 -108L1641.2 1.78808C1666.17 155.539 1715.67 467.603 1713.96 485.854C1712.24 504.104 1664.74 790.504 1641.2 931.422L1375.16 1002C1282.44 979.425 1086.01 922.724 1042.07 876.528C998.136 830.331 1007.12 786.939 1017.11 771.017C1089.58 720.829 1214.2 760.086 1267.46 785.988Z" fill="#D5C1FC"/>
</g>
<defs>
<clipPath id="clip0">
<rect width="1448" height="900" fill="white" transform="translate(1448 533) rotate(-180)"/>
</clipPath>
</defs>
</svg>
