<svg width="1440" height="900" viewBox="0 0 1440 900" fill="none" xmlns="http://www.w3.org/2000/svg">
<rect width="1440" height="900" fill="white"/>
<g clip-path="url(#clip0)">
<path d="M167.54 111.012C73.3903 67.0963 12.7638 102.694 -5.78079 125.983V514.518C44.4322 613.185 130.688 640.703 167.54 642.129C263.971 652.395 308.051 674.923 318.036 684.904C360.261 707.146 385.557 764.037 392.928 789.701C440.716 854.576 488.504 827.486 563.395 822.495C623.308 818.503 638.762 856.002 639 875.25V895.212L603.337 987.89L463.54 1005H167.54L-206.205 895.212C-231.169 741.461 -280.669 429.397 -278.957 411.146C-277.245 392.896 -229.742 106.496 -206.205 -34.422L59.8385 -105C152.561 -82.4245 348.991 -25.7245 392.928 20.4721C436.864 66.6686 427.877 110.061 417.892 125.983C345.425 176.171 220.796 136.914 167.54 111.012Z" fill="#FDECF4"/>
<path d="M250.5 600.551C40.3863 549.773 -5.73705 423.747 -22.5709 346.492L-166.923 430.603L-190.901 691.095L-230.465 901.218L-79.1082 985.432L348.342 1020.74L412.813 944.98C474.108 848.109 475.732 654.982 250.5 600.551Z" stroke="#3D467F" stroke-width="6"/>
<path d="M1149 137.5C1151.8 65.9 1045.5 5.33333 992 -16L1115 -159.5H1434L1520.5 -38L1459.5 453.5C1445.9 422.7 1381.83 408 1351.5 404.5C1269.1 399.3 1220.5 375.333 1206.5 364C1112 295 1149 220.5 1149 188.5V137.5Z" fill="#E1EEFB"/>
<path d="M1208 139.5C1232.4 84.3 1197.83 11.8333 1177.5 -17.5L1419 -137.5L1528.5 -17.5L1539 220.5C1566 303.833 1586.2 471.1 1451 473.5C1282 476.5 1225 453.5 1177.5 386C1130 318.5 1177.5 208.5 1208 139.5Z" stroke="#5B5B5B" stroke-width="6"/>
<path d="M1339 536.5C1339 555.554 1323.55 571 1304.5 571C1285.45 571 1270 555.554 1270 536.5C1270 517.446 1285.45 502 1304.5 502C1323.55 502 1339 517.446 1339 536.5Z" fill="#F39AC4"/>
<path d="M1075.03 94C1075.03 105.046 1065.84 114 1054.51 114C1043.18 114 1034 105.046 1034 94C1034 82.9543 1043.18 74 1054.51 74C1065.84 74 1075.03 82.9543 1075.03 94Z" fill="#FDD4C1"/>
<circle cx="1144.5" cy="770.5" r="51.5" fill="#E1EEFB"/>
<path d="M274 266C274 277.598 264.598 287 253 287C241.402 287 232 277.598 232 266C232 254.402 241.402 245 253 245C264.598 245 274 254.402 274 266Z" stroke="#D5C1FC" stroke-width="8"/>
</g>
<path d="M604.992 416.512C605.28 416.896 605.52 417.376 605.712 417.952C605.904 418.48 606 418.984 606 419.464C606 420.76 605.496 421.84 604.488 422.704C603.528 423.568 602.4 424 601.104 424C600.48 424 599.88 423.856 599.304 423.568C598.728 423.28 598.248 422.872 597.864 422.344L582.24 401.752L575.4 408.304V419.608C575.4 420.904 574.968 421.96 574.104 422.776C573.288 423.592 572.208 424 570.864 424C569.568 424 568.488 423.592 567.624 422.776C566.808 421.912 566.4 420.856 566.4 419.608V377.992C566.4 376.744 566.832 375.712 567.696 374.896C568.56 374.032 569.664 373.6 571.008 373.6C572.304 373.6 573.36 374.008 574.176 374.824C574.992 375.64 575.4 376.696 575.4 377.992V397.576L598.44 374.896C599.544 373.792 600.72 373.24 601.968 373.24C603.072 373.24 604.008 373.696 604.776 374.608C605.544 375.52 605.928 376.48 605.928 377.488C605.928 378.496 605.496 379.432 604.632 380.296L588.936 395.272L604.992 416.512ZM696.068 373.6C697.412 373.6 698.492 374.008 699.308 374.824C700.124 375.64 700.532 376.696 700.532 377.992V419.608C700.532 420.856 700.1 421.912 699.236 422.776C698.372 423.592 697.268 424 695.924 424C694.724 424 693.692 423.592 692.828 422.776C691.964 421.912 691.532 420.856 691.532 419.608V402.832H668.564V419.608C668.564 420.856 668.108 421.912 667.196 422.776C666.284 423.592 665.228 424 664.028 424C662.732 424 661.652 423.592 660.788 422.776C659.972 421.912 659.564 420.856 659.564 419.608V377.992C659.564 376.744 659.996 375.712 660.86 374.896C661.724 374.032 662.828 373.6 664.172 373.6C665.372 373.6 666.404 374.032 667.268 374.896C668.132 375.712 668.564 376.744 668.564 377.992V394.552H691.532V377.992C691.532 376.744 691.988 375.712 692.9 374.896C693.812 374.032 694.868 373.6 696.068 373.6ZM853.7 373.6C854.996 373.6 856.052 373.984 856.868 374.752C857.684 375.52 858.092 376.528 858.092 377.776C858.092 379.024 857.684 380.032 856.868 380.8C856.052 381.52 854.996 381.88 853.7 381.88H842.396V419.608C842.396 420.856 841.94 421.912 841.028 422.776C840.116 423.592 838.988 424 837.644 424C836.3 424 835.196 423.592 834.332 422.776C833.468 421.912 833.036 420.856 833.036 419.608V381.88H821.732C820.436 381.88 819.38 381.496 818.564 380.728C817.748 379.96 817.34 378.952 817.34 377.704C817.34 376.504 817.748 375.52 818.564 374.752C819.428 373.984 820.484 373.6 821.732 373.6H853.7ZM869.898 408.088C868.266 408.088 867.378 407.176 867.234 405.352L865.146 378.856C865.05 377.368 865.434 376.12 866.298 375.112C867.21 374.104 868.386 373.6 869.826 373.6C871.266 373.6 872.442 374.104 873.354 375.112C874.266 376.12 874.65 377.368 874.506 378.856L872.49 405.352C872.346 407.176 871.482 408.088 869.898 408.088ZM869.394 424C868.002 424 866.922 423.64 866.154 422.92C865.434 422.152 865.074 421.072 865.074 419.68V418.456C865.074 417.064 865.434 416.008 866.154 415.288C866.922 414.52 868.002 414.136 869.394 414.136H870.33C871.722 414.136 872.778 414.52 873.498 415.288C874.266 416.008 874.65 417.064 874.65 418.456V419.68C874.65 421.072 874.266 422.152 873.498 422.92C872.778 423.64 871.722 424 870.33 424H869.394Z" fill="#3D467F"/>
<path d="M653.108 418.384C653.348 419.008 653.468 419.584 653.468 420.112C653.468 421.36 653.06 422.392 652.244 423.208C651.428 423.976 650.492 424.36 649.436 424.36C648.572 424.36 647.78 424.096 647.06 423.568C646.388 423.04 645.86 422.32 645.476 421.408L641.732 412.696H620.276L616.532 421.48C616.196 422.392 615.668 423.112 614.948 423.64C614.276 424.12 613.532 424.36 612.716 424.36C611.468 424.36 610.508 424.024 609.836 423.352C609.212 422.68 608.9 421.768 608.9 420.616C608.9 420.184 608.972 419.728 609.116 419.248L627.044 376.192C627.428 375.232 628.004 374.488 628.772 373.96C629.54 373.432 630.404 373.216 631.364 373.312C632.228 373.312 633.02 373.576 633.74 374.104C634.508 374.584 635.06 375.28 635.396 376.192L653.108 418.384ZM638.204 404.416L630.932 387.568L623.804 404.416H638.204Z" fill="#A880F7"/>
<path d="M757.682 398.8C757.682 403.552 756.626 407.92 754.514 411.904C752.402 415.84 749.474 418.96 745.73 421.264C742.034 423.568 737.858 424.72 733.202 424.72C728.546 424.72 724.346 423.568 720.602 421.264C716.906 418.96 714.002 415.84 711.89 411.904C709.826 407.92 708.794 403.552 708.794 398.8C708.794 394.048 709.826 389.704 711.89 385.768C714.002 381.784 716.906 378.64 720.602 376.336C724.346 374.032 728.546 372.88 733.202 372.88C737.858 372.88 742.034 374.032 745.73 376.336C749.474 378.64 752.402 381.784 754.514 385.768C756.626 389.704 757.682 394.048 757.682 398.8ZM748.322 398.8C748.322 395.584 747.674 392.68 746.378 390.088C745.082 387.448 743.282 385.36 740.978 383.824C738.674 382.288 736.082 381.52 733.202 381.52C730.274 381.52 727.658 382.288 725.354 383.824C723.098 385.312 721.322 387.376 720.026 390.016C718.778 392.656 718.154 395.584 718.154 398.8C718.154 402.016 718.778 404.944 720.026 407.584C721.322 410.224 723.098 412.312 725.354 413.848C727.658 415.336 730.274 416.08 733.202 416.08C736.082 416.08 738.674 415.312 740.978 413.776C743.282 412.24 745.082 410.176 746.378 407.584C747.674 404.944 748.322 402.016 748.322 398.8ZM812.315 398.8C812.315 403.552 811.259 407.92 809.147 411.904C807.035 415.84 804.107 418.96 800.363 421.264C796.667 423.568 792.491 424.72 787.835 424.72C783.179 424.72 778.979 423.568 775.235 421.264C771.539 418.96 768.635 415.84 766.523 411.904C764.459 407.92 763.427 403.552 763.427 398.8C763.427 394.048 764.459 389.704 766.523 385.768C768.635 381.784 771.539 378.64 775.235 376.336C778.979 374.032 783.179 372.88 787.835 372.88C792.491 372.88 796.667 374.032 800.363 376.336C804.107 378.64 807.035 381.784 809.147 385.768C811.259 389.704 812.315 394.048 812.315 398.8ZM802.955 398.8C802.955 395.584 802.307 392.68 801.011 390.088C799.715 387.448 797.915 385.36 795.611 383.824C793.307 382.288 790.715 381.52 787.835 381.52C784.907 381.52 782.291 382.288 779.987 383.824C777.731 385.312 775.955 387.376 774.659 390.016C773.411 392.656 772.787 395.584 772.787 398.8C772.787 402.016 773.411 404.944 774.659 407.584C775.955 410.224 777.731 412.312 779.987 413.848C782.291 415.336 784.907 416.08 787.835 416.08C790.715 416.08 793.307 415.312 795.611 413.776C797.915 412.24 799.715 410.176 801.011 407.584C802.307 404.944 802.955 402.016 802.955 398.8Z" fill="#F39AC4"/>
<rect x="543" y="470" width="354" height="45" rx="22.5" fill="white" stroke="#A6CEEE" stroke-width="2"/>
<path d="M679.243 492.928C679.659 492.928 680.003 493.072 680.275 493.36C680.547 493.632 680.683 493.976 680.683 494.392V499.48C680.683 500.04 680.435 500.472 679.939 500.776C678.371 501.752 676.651 502.24 674.779 502.24C673.195 502.24 671.731 501.856 670.387 501.088C669.043 500.304 667.979 499.256 667.195 497.944C666.411 496.616 666.019 495.168 666.019 493.6C666.019 492.032 666.411 490.592 667.195 489.28C667.979 487.952 669.043 486.904 670.387 486.136C671.731 485.352 673.195 484.96 674.779 484.96C676.363 484.96 677.739 485.28 678.907 485.92C679.147 486.048 679.323 486.216 679.435 486.424C679.563 486.632 679.627 486.856 679.627 487.096C679.627 487.496 679.491 487.848 679.219 488.152C678.963 488.44 678.643 488.584 678.259 488.584C678.019 488.584 677.755 488.52 677.467 488.392C676.603 488.024 675.707 487.84 674.779 487.84C673.755 487.84 672.811 488.104 671.947 488.632C671.083 489.144 670.395 489.84 669.883 490.72C669.387 491.6 669.139 492.56 669.139 493.6C669.139 494.64 669.387 495.6 669.883 496.48C670.395 497.36 671.083 498.064 671.947 498.592C672.811 499.104 673.755 499.36 674.779 499.36C675.227 499.36 675.707 499.32 676.219 499.24C676.731 499.16 677.179 499.056 677.563 498.928V495.808H675.307C674.891 495.808 674.539 495.672 674.251 495.4C673.979 495.128 673.843 494.784 673.843 494.368C673.843 493.952 673.979 493.608 674.251 493.336C674.539 493.064 674.891 492.928 675.307 492.928H679.243ZM696.746 500.128C696.826 500.336 696.866 500.528 696.866 500.704C696.866 501.12 696.73 501.464 696.458 501.736C696.186 501.992 695.874 502.12 695.522 502.12C695.234 502.12 694.97 502.032 694.73 501.856C694.506 501.68 694.33 501.44 694.202 501.136L692.954 498.232H685.802L684.554 501.16C684.442 501.464 684.266 501.704 684.026 501.88C683.802 502.04 683.554 502.12 683.282 502.12C682.866 502.12 682.546 502.008 682.322 501.784C682.114 501.56 682.01 501.256 682.01 500.872C682.01 500.728 682.034 500.576 682.082 500.416L688.058 486.064C688.186 485.744 688.378 485.496 688.634 485.32C688.89 485.144 689.178 485.072 689.498 485.104C689.786 485.104 690.05 485.192 690.29 485.368C690.546 485.528 690.73 485.76 690.842 486.064L696.746 500.128ZM691.778 495.472L689.354 489.856L686.978 495.472H691.778ZM713.466 485.176C713.866 485.176 714.21 485.32 714.498 485.608C714.802 485.88 714.954 486.224 714.954 486.64V500.536C714.954 500.952 714.818 501.304 714.546 501.592C714.274 501.864 713.914 502 713.466 502C713.018 502 712.65 501.864 712.362 501.592C712.09 501.32 711.954 500.968 711.954 500.536V490.864L707.994 496.912C707.834 497.104 707.65 497.264 707.442 497.392C707.234 497.504 707.018 497.552 706.794 497.536C706.586 497.552 706.378 497.504 706.17 497.392C705.962 497.264 705.778 497.104 705.618 496.912L701.658 490.648V500.536C701.658 500.968 701.53 501.32 701.274 501.592C701.018 501.864 700.682 502 700.266 502C699.866 502 699.538 501.864 699.282 501.592C699.026 501.304 698.898 500.952 698.898 500.536V486.64C698.898 486.24 699.042 485.896 699.33 485.608C699.634 485.32 699.994 485.176 700.41 485.176C700.65 485.176 700.89 485.24 701.13 485.368C701.37 485.48 701.554 485.632 701.682 485.824L706.914 493.864L712.29 485.824C712.418 485.632 712.586 485.48 712.794 485.368C713.018 485.24 713.242 485.176 713.466 485.176ZM728.066 499.24C728.482 499.24 728.826 499.384 729.098 499.672C729.386 499.944 729.53 500.264 729.53 500.632C729.53 501.032 729.386 501.36 729.098 501.616C728.826 501.872 728.482 502 728.066 502H720.026C719.61 502 719.258 501.864 718.97 501.592C718.698 501.304 718.562 500.952 718.562 500.536V486.664C718.562 486.248 718.698 485.904 718.97 485.632C719.258 485.344 719.61 485.2 720.026 485.2H728.066C728.482 485.2 728.826 485.336 729.098 485.608C729.386 485.864 729.53 486.2 729.53 486.616C729.53 487.016 729.394 487.344 729.122 487.6C728.85 487.84 728.498 487.96 728.066 487.96H721.562V492.04H726.986C727.402 492.04 727.746 492.176 728.018 492.448C728.306 492.704 728.45 493.04 728.45 493.456C728.45 493.856 728.314 494.184 728.042 494.44C727.77 494.68 727.418 494.8 726.986 494.8H721.562V499.24H728.066ZM745.959 485.2C746.775 485.2 747.551 485.448 748.287 485.944C749.023 486.424 749.615 487.08 750.063 487.912C750.511 488.728 750.735 489.624 750.735 490.6C750.735 491.56 750.511 492.456 750.063 493.288C749.615 494.12 749.023 494.784 748.287 495.28C747.551 495.76 746.775 496 745.959 496H741.783V500.536C741.783 500.968 741.655 501.32 741.399 501.592C741.143 501.864 740.807 502 740.391 502C739.991 502 739.663 501.864 739.407 501.592C739.151 501.304 739.023 500.952 739.023 500.536V486.664C739.023 486.248 739.159 485.904 739.431 485.632C739.719 485.344 740.071 485.2 740.487 485.2H745.959ZM745.959 493.264C746.263 493.264 746.559 493.136 746.847 492.88C747.151 492.624 747.391 492.296 747.567 491.896C747.759 491.48 747.855 491.048 747.855 490.6C747.855 490.152 747.759 489.728 747.567 489.328C747.391 488.912 747.151 488.584 746.847 488.344C746.559 488.088 746.263 487.96 745.959 487.96H741.783V493.264H745.959ZM756.484 500.536C756.484 500.952 756.332 501.304 756.028 501.592C755.724 501.864 755.372 502 754.972 502C754.54 502 754.18 501.864 753.892 501.592C753.62 501.304 753.484 500.952 753.484 500.536V486.664C753.484 486.248 753.628 485.904 753.916 485.632C754.204 485.344 754.572 485.2 755.02 485.2C755.42 485.2 755.764 485.344 756.052 485.632C756.34 485.904 756.484 486.248 756.484 486.664V500.536ZM772.837 485.2C773.221 485.2 773.533 485.328 773.773 485.584C774.013 485.84 774.133 486.16 774.133 486.544V500.536C774.133 500.952 773.989 501.304 773.701 501.592C773.429 501.864 773.085 502 772.669 502C772.445 502 772.221 501.968 771.997 501.904C771.789 501.824 771.637 501.72 771.541 501.592L762.733 490.408V500.656C762.733 501.04 762.605 501.36 762.349 501.616C762.109 501.872 761.789 502 761.389 502C761.005 502 760.693 501.872 760.453 501.616C760.213 501.36 760.093 501.04 760.093 500.656V486.664C760.093 486.248 760.229 485.904 760.501 485.632C760.789 485.344 761.141 485.2 761.557 485.2C761.797 485.2 762.029 485.248 762.253 485.344C762.493 485.44 762.669 485.568 762.781 485.728L771.517 496.864V486.544C771.517 486.16 771.637 485.84 771.877 485.584C772.133 485.328 772.453 485.2 772.837 485.2Z" fill="#3D467F"/>
<rect x="542" y="533" width="356" height="47" rx="23.5" fill="#3D467F"/>
<path d="M693.495 563.24C693.911 563.24 694.255 563.384 694.527 563.672C694.815 563.944 694.959 564.264 694.959 564.632C694.959 565.032 694.815 565.36 694.527 565.616C694.255 565.872 693.911 566 693.495 566H685.455C685.039 566 684.687 565.864 684.399 565.592C684.127 565.304 683.991 564.952 683.991 564.536V550.664C683.991 550.248 684.127 549.904 684.399 549.632C684.687 549.344 685.039 549.2 685.455 549.2H693.495C693.911 549.2 694.255 549.336 694.527 549.608C694.815 549.864 694.959 550.2 694.959 550.616C694.959 551.016 694.823 551.344 694.551 551.6C694.279 551.84 693.927 551.96 693.495 551.96H686.991V556.04H692.415C692.831 556.04 693.175 556.176 693.447 556.448C693.735 556.704 693.879 557.04 693.879 557.456C693.879 557.856 693.743 558.184 693.471 558.44C693.199 558.68 692.847 558.8 692.415 558.8H686.991V563.24H693.495ZM710.47 549.2C710.854 549.2 711.166 549.328 711.406 549.584C711.646 549.84 711.766 550.16 711.766 550.544V564.536C711.766 564.952 711.622 565.304 711.334 565.592C711.062 565.864 710.718 566 710.302 566C710.078 566 709.854 565.968 709.63 565.904C709.422 565.824 709.27 565.72 709.174 565.592L700.366 554.408V564.656C700.366 565.04 700.238 565.36 699.982 565.616C699.742 565.872 699.422 566 699.022 566C698.638 566 698.326 565.872 698.086 565.616C697.846 565.36 697.726 565.04 697.726 564.656V550.664C697.726 550.248 697.862 549.904 698.134 549.632C698.422 549.344 698.774 549.2 699.19 549.2C699.43 549.2 699.662 549.248 699.886 549.344C700.126 549.44 700.302 549.568 700.414 549.728L709.15 560.864V550.544C709.15 550.16 709.27 549.84 709.51 549.584C709.766 549.328 710.086 549.2 710.47 549.2ZM726.414 549.2C726.846 549.2 727.198 549.328 727.47 549.584C727.742 549.84 727.878 550.176 727.878 550.592C727.878 551.008 727.742 551.344 727.47 551.6C727.198 551.84 726.846 551.96 726.414 551.96H722.646V564.536C722.646 564.952 722.494 565.304 722.19 565.592C721.886 565.864 721.51 566 721.062 566C720.614 566 720.246 565.864 719.958 565.592C719.67 565.304 719.526 564.952 719.526 564.536V551.96H715.758C715.326 551.96 714.974 551.832 714.702 551.576C714.43 551.32 714.294 550.984 714.294 550.568C714.294 550.168 714.43 549.84 714.702 549.584C714.99 549.328 715.342 549.2 715.758 549.2H726.414ZM739.902 563.24C740.318 563.24 740.662 563.384 740.934 563.672C741.222 563.944 741.366 564.264 741.366 564.632C741.366 565.032 741.222 565.36 740.934 565.616C740.662 565.872 740.318 566 739.902 566H731.862C731.446 566 731.094 565.864 730.806 565.592C730.534 565.304 730.398 564.952 730.398 564.536V550.664C730.398 550.248 730.534 549.904 730.806 549.632C731.094 549.344 731.446 549.2 731.862 549.2H739.902C740.318 549.2 740.662 549.336 740.934 549.608C741.222 549.864 741.366 550.2 741.366 550.616C741.366 551.016 741.23 551.344 740.958 551.6C740.686 551.84 740.334 551.96 739.902 551.96H733.398V556.04H738.822C739.238 556.04 739.582 556.176 739.854 556.448C740.142 556.704 740.286 557.04 740.286 557.456C740.286 557.856 740.15 558.184 739.878 558.44C739.606 558.68 739.254 558.8 738.822 558.8H733.398V563.24H739.902ZM757.308 563.648C757.516 563.776 757.676 563.944 757.788 564.152C757.916 564.36 757.98 564.576 757.98 564.8C757.98 565.088 757.884 565.352 757.692 565.592C757.452 565.88 757.084 566.024 756.588 566.024C756.204 566.024 755.852 565.936 755.532 565.76C754.38 565.104 753.804 563.768 753.804 561.752C753.804 561.176 753.612 560.72 753.228 560.384C752.86 560.048 752.324 559.88 751.62 559.88H747.132V564.536C747.132 564.968 747.012 565.32 746.772 565.592C746.548 565.864 746.244 566 745.86 566C745.396 566 744.988 565.864 744.636 565.592C744.3 565.304 744.132 564.952 744.132 564.536V550.664C744.132 550.248 744.268 549.904 744.54 549.632C744.828 549.344 745.18 549.2 745.596 549.2H752.508C753.34 549.2 754.124 549.424 754.86 549.872C755.596 550.32 756.18 550.936 756.612 551.72C757.06 552.504 757.284 553.384 757.284 554.36C757.284 555.16 757.068 555.944 756.636 556.712C756.204 557.464 755.644 558.064 754.956 558.512C755.964 559.216 756.516 560.16 756.612 561.344C756.66 561.6 756.684 561.848 756.684 562.088C756.748 562.584 756.812 562.944 756.876 563.168C756.94 563.376 757.084 563.536 757.308 563.648ZM752.388 557.408C752.676 557.408 752.956 557.272 753.228 557C753.5 556.728 753.724 556.368 753.9 555.92C754.076 555.456 754.164 554.96 754.164 554.432C754.164 553.984 754.076 553.576 753.9 553.208C753.724 552.824 753.5 552.52 753.228 552.296C752.956 552.072 752.676 551.96 752.388 551.96H747.132V557.408H752.388Z" fill="white"/>
<defs>
<clipPath id="clip0">
<rect width="1440" height="900" fill="white"/>
</clipPath>
</defs>
</svg>
