<svg width="1440" height="900" viewBox="0 0 1440 900" fill="none" xmlns="http://www.w3.org/2000/svg">
<g clip-path="url(#clip0)">
<path d="M167.54 111.012C73.3903 67.0963 12.7638 102.694 -5.78079 125.983V514.518C44.4322 613.185 130.688 640.703 167.54 642.129C263.971 652.395 308.051 674.923 318.036 684.904C360.261 707.146 385.557 764.037 392.928 789.701C440.716 854.576 488.504 827.486 563.395 822.495C623.308 818.503 638.762 856.002 639 875.25V895.212L603.337 987.89L463.54 1005H167.54L-206.205 895.212C-231.169 741.461 -280.669 429.397 -278.957 411.146C-277.245 392.896 -229.742 106.496 -206.205 -34.422L59.8385 -105C152.561 -82.4245 348.991 -25.7245 392.928 20.4721C436.864 66.6686 427.877 110.061 417.892 125.983C345.425 176.171 220.796 136.914 167.54 111.012Z" fill="#FDECF4"/>
<path d="M250.5 600.551C40.3863 549.773 -5.73705 423.747 -22.5709 346.492L-166.923 430.603L-190.901 691.095L-230.465 901.218L-79.1082 985.432L348.342 1020.74L412.813 944.98C474.108 848.109 475.732 654.982 250.5 600.551Z" stroke="#3D467F" stroke-width="6"/>
<path d="M1149 137.5C1151.8 65.9 1045.5 5.33333 992 -16L1115 -159.5H1434L1520.5 -38L1459.5 453.5C1445.9 422.7 1381.83 408 1351.5 404.5C1269.1 399.3 1220.5 375.333 1206.5 364C1112 295 1149 220.5 1149 188.5V137.5Z" fill="#E1EEFB"/>
<path d="M1208 139.5C1232.4 84.3 1197.83 11.8333 1177.5 -17.5L1419 -137.5L1528.5 -17.5L1539 220.5C1566 303.833 1586.2 471.1 1451 473.5C1282 476.5 1225 453.5 1177.5 386C1130 318.5 1177.5 208.5 1208 139.5Z" stroke="#5B5B5B" stroke-width="6"/>
<path d="M1339 536.5C1339 555.554 1323.55 571 1304.5 571C1285.45 571 1270 555.554 1270 536.5C1270 517.446 1285.45 502 1304.5 502C1323.55 502 1339 517.446 1339 536.5Z" fill="#F39AC4"/>
<path d="M1075.03 94C1075.03 105.046 1065.84 114 1054.51 114C1043.18 114 1034 105.046 1034 94C1034 82.9543 1043.18 74 1054.51 74C1065.84 74 1075.03 82.9543 1075.03 94Z" fill="#FDD4C1"/>
<circle cx="1144.5" cy="770.5" r="51.5" fill="#E1EEFB"/>
<path d="M274 266C274 277.598 264.598 287 253 287C241.402 287 232 277.598 232 266C232 254.402 241.402 245 253 245C264.598 245 274 254.402 274 266Z" stroke="#D5C1FC" stroke-width="8"/>
</g>
<defs>
<clipPath id="clip0">
<rect width="1440" height="900" fill="white"/>
</clipPath>
</defs>
</svg>
