<svg width="441" height="331" viewBox="0 0 441 331" fill="none" xmlns="http://www.w3.org/2000/svg">
<path d="M23.5163 183.286L195.749 85.1884C199.953 82.7946 204.712 81.548 209.549 81.5731C214.386 81.5983 219.132 82.8944 223.311 85.3319L400.814 188.769C403.143 190.124 405.075 192.069 406.415 194.407C407.755 196.746 408.456 199.396 408.449 202.092C408.441 204.788 407.724 207.435 406.37 209.766C405.016 212.096 403.074 214.03 400.737 215.371L235.086 310.555C229.474 313.784 223.114 315.483 216.641 315.483C210.168 315.483 203.808 313.784 198.196 310.555L23.4611 209.953C21.1154 208.605 19.1674 206.66 17.8146 204.316C16.4618 201.971 15.7522 199.311 15.7578 196.604C15.7634 193.896 16.484 191.239 17.8465 188.9C19.2089 186.561 21.1649 184.624 23.5163 183.286Z" fill="#EFF0F6"/>
<path opacity="0.32" d="M159.344 283.226L168.55 276.992L235.251 221.825L219.464 215.04C209.993 217.577 193.004 224.97 184.184 228.997C171.163 234.999 157.977 240.439 144.637 245.69C137.25 248.633 129.852 251.531 122.444 254.385C135.718 262.748 147.625 272.854 159.344 283.226Z" fill="url(#paint0_linear)"/>
<path d="M89.7324 127.169V127.016" stroke="url(#paint1_linear)" stroke-opacity="0.8"/>
<path d="M85.6421 127.169V127.016" stroke="url(#paint2_linear)" stroke-opacity="0.8"/>
<path d="M77.4727 127.016V127.169" stroke="url(#paint3_linear)" stroke-opacity="0.8"/>
<path d="M81.563 127.169V127.016" stroke="url(#paint4_linear)" stroke-opacity="0.8"/>
<path d="M73.3823 127.016V127.169" stroke="url(#paint5_linear)" stroke-opacity="0.8"/>
<path d="M226.751 229.129L213.422 223.238V121.367L230.93 115.111" fill="#D5C1FC"/>
<path d="M235.097 101.871V221.77L226.751 229.129V113.643" fill="#3D467F"/>
<path d="M155.993 126.806V82.4412C155.993 82.4412 154.824 74.5634 168.826 67.5572C182.828 60.551 229.199 33.409 229.199 33.409C229.199 33.409 251.943 29.3267 264.192 62.5922C266.338 68.1903 267.71 74.0553 268.271 80.0249V114.835L200.897 152.194L155.993 126.806Z" fill="url(#paint6_linear)"/>
<path d="M158.594 123.574V81.8565C158.594 81.8565 160.05 70.1832 172.012 74.2656C183.974 78.3479 196.509 94.4014 199.133 109.285V146.931L160.05 124.169" fill="#D5C1FC"/>
<path d="M217.214 45.8106C217.214 44.7625 216.365 43.9128 215.318 43.9128C214.271 43.9128 213.422 44.7625 213.422 45.8106V120.815C213.422 121.863 214.271 122.713 215.318 122.713C216.365 122.713 217.214 121.863 217.214 120.815V45.8106Z" fill="#3D467F"/>
<path d="M217.192 43.9127C217.192 43.9127 243.145 41.2868 244.898 41.5737C246.651 41.8605 217.192 69.8962 217.192 69.8962" fill="#3D467F"/>
<path d="M157.966 127.556L131.716 159.365C131.716 159.365 119.753 177.758 139.301 188.262C158.848 198.766 177.216 176.875 177.216 176.875L199.674 151.157L157.966 127.556Z" fill="#3D467F"/>
<path d="M155.673 126.806L129.422 158.615C129.422 158.615 117.46 177.008 137.008 187.512C156.555 198.015 174.923 176.125 174.923 176.125L197.347 150.451L155.673 126.806Z" fill="#EFF0F6"/>
<path d="M194.04 95.2288C188.682 85.3761 180.181 76.9135 171.99 74.1C160.05 70.0177 158.594 81.6468 158.594 81.6468V123.573C171.824 112.959 178.186 108.436 194.04 95.2288Z" fill="url(#paint7_linear)" fill-opacity="0.8"/>
<path d="M255.961 104.296C260.541 95.0056 258.246 84.5088 250.836 80.8503C243.426 77.1917 233.707 81.7569 229.127 91.0468C224.547 100.337 226.841 110.834 234.251 114.492C241.661 118.151 251.381 113.585 255.961 104.296Z" fill="#EFF0F6"/>
<path d="M248.338 87.395C249.154 88.0247 249.803 88.8446 250.23 89.783C250.657 90.7215 250.847 91.7501 250.786 92.7793C250.837 94.7219 250.397 96.6461 249.507 98.3732C248.855 99.8852 247.681 101.111 246.199 101.827C245.873 102.024 245.484 102.089 245.111 102.009C244.738 101.929 244.41 101.71 244.193 101.396C243.773 102.361 243.022 103.143 242.076 103.603C241.675 103.804 241.22 103.868 240.779 103.784C240.339 103.701 239.938 103.474 239.639 103.14C238.851 102.168 238.457 100.935 238.537 99.6862C238.477 98.1286 238.831 96.583 239.562 95.2066C240.114 94.0304 241.057 93.0827 242.23 92.5255C242.522 92.3863 242.844 92.3215 243.167 92.3369C243.491 92.3523 243.805 92.4474 244.082 92.6138L244.215 91.9187L246.42 91.014L245.935 97.7222C245.935 98.1746 245.935 98.5718 245.935 98.9028C245.935 99.2338 246.1 99.4434 246.409 99.311C247.147 98.8581 247.702 98.1586 247.974 97.3361C248.48 96.2069 248.718 94.9757 248.669 93.7392C248.726 92.9657 248.59 92.1901 248.275 91.4816C247.959 90.7732 247.473 90.1539 246.861 89.6789C246.239 89.2848 245.525 89.0611 244.79 89.0301C244.054 88.9991 243.324 89.162 242.671 89.5024C240.776 90.3647 239.224 91.8367 238.261 93.684C237.094 95.6504 236.505 97.907 236.563 100.194C236.525 101.079 236.669 101.963 236.986 102.79C237.302 103.617 237.785 104.371 238.405 105.004C239.584 106.108 241.205 106.218 243.278 105.357C245.162 104.481 246.838 103.213 248.195 101.639L249.011 103.68C247.439 105.455 245.507 106.873 243.344 107.84C240.632 108.943 238.46 108.833 236.817 107.454C235.174 106.074 234.314 103.967 234.248 101.132C234.184 98.1477 234.993 95.2101 236.574 92.68C237.922 90.2461 240.017 88.3116 242.55 87.1633C244.843 86.2071 246.773 86.2843 248.338 87.395ZM243.542 99.2228C243.907 98.4589 244.089 97.62 244.071 96.7734C244.094 96.5153 244.06 96.2555 243.972 96.0118C243.885 95.768 243.745 95.5461 243.564 95.3611C243.418 95.2266 243.234 95.1398 243.037 95.1122C242.84 95.0847 242.64 95.1176 242.462 95.2066C241.945 95.4827 241.551 95.9437 241.359 96.4975C241.048 97.2211 240.905 98.0056 240.94 98.7925C240.927 99.3609 241.06 99.9233 241.326 100.425C241.361 100.508 241.412 100.582 241.476 100.645C241.54 100.707 241.616 100.755 241.7 100.787C241.783 100.819 241.872 100.834 241.962 100.831C242.051 100.827 242.138 100.806 242.219 100.767C242.849 100.441 243.333 99.8899 243.575 99.2228" fill="#3D467F"/>
<path d="M294.533 155.769L265.383 140.289L382.612 113.489L295.128 159.344L294.533 155.769Z" fill="url(#paint8_linear)"/>
<path d="M295.128 159.344L301.677 182.569L382.612 113.489L295.128 159.344Z" fill="#5C5196"/>
<path d="M308.821 166.493L340.353 182.569L382.612 113.489L308.821 166.493Z" fill="url(#paint9_linear)"/>
<path d="M308.821 166.493L301.677 182.569L316.142 170.222L308.821 166.493Z" fill="#231069"/>
<path d="M260.807 193.767C230.753 201.281 193.908 196.581 176.19 168.049C162.442 145.927 168.032 115.144 187.568 98.4063C189.773 96.5527 186.598 93.4524 184.448 95.2839C163.435 113.29 157.691 146.556 172.321 170.311C191.063 200.597 229.915 206.059 261.921 198.059C264.732 197.331 263.564 193.083 260.807 193.767Z" fill="#24116A"/>
<path d="M283.695 185.658L274.148 190.071C271.579 191.263 273.817 195.069 276.353 193.878L285.9 189.465C288.491 188.273 286.253 184.466 283.695 185.658Z" fill="#24116A"/>
<path d="M120.999 207.206L119.897 206.655C119.268 206.335 118.706 207.294 119.346 207.603L120.448 208.155C121.076 208.475 121.639 207.515 120.999 207.206Z" fill="#FA4E76"/>
<path style="mix-blend-mode:multiply" d="M72.4893 186.199L33.6262 205.088C39.3443 208.913 45.3829 212.236 51.6741 215.018L86.3698 191.064" fill="url(#paint10_linear)"/>
<path d="M67.6604 170.421C67.6604 170.421 66.0287 189.773 76.3481 193.183C86.6675 196.592 91.7831 186.706 91.4192 169.671" fill="url(#paint11_linear)"/>
<path d="M79.7503 176.906C86.3109 176.698 91.5316 173.453 91.4111 169.658C91.2906 165.864 85.8746 162.957 79.314 163.166C72.7534 163.374 67.5327 166.619 67.6532 170.414C67.7737 174.208 73.1897 177.115 79.7503 176.906Z" fill="#3D467F"/>
<path d="M82.092 154.665C82.092 154.665 77.219 148.045 79.1043 143.356C79.1043 143.356 80.6919 140.311 83.0512 139.759C83.0512 139.759 83.0512 146.148 85.3665 145.276C87.6817 144.404 85.157 138.59 85.157 138.59C85.157 138.59 87.5494 135.125 90.2836 135.147C93.0178 135.169 90.471 141.116 92.3453 140.09C94.2195 139.064 92.2791 134.121 94.3959 133.47C96.3389 132.971 98.3131 132.602 100.305 132.367C100.305 132.367 102.51 138.126 100.515 138.987C98.5193 139.848 95.5646 140.267 97.0309 141.503C98.4972 142.738 102.543 141.138 102.543 141.138C102.543 141.138 102.896 144.448 101.573 145.872C100.25 147.295 92.0696 144.459 93.5801 147.229C95.0905 149.998 100.327 148.387 100.327 148.387C98.7972 150.694 96.8445 152.689 94.5723 154.268C91.4192 156.144 82.092 154.665 82.092 154.665Z" fill="#FB9CCB"/>
<path d="M83.7237 171.48C83.7237 171.48 80.2509 168.258 80.8242 165.379C81.129 164.361 81.7906 163.487 82.6874 162.918C82.6874 162.918 83.3489 166.548 84.5837 165.798C85.8185 165.048 83.7458 162.025 83.7458 162.025C83.7458 162.025 84.727 159.818 86.2926 159.52C87.8581 159.222 87.0423 162.885 87.9904 162.102C88.9386 161.318 87.3179 158.726 88.4424 158.119C89.4894 157.62 90.5686 157.193 91.6728 156.839C91.6728 156.839 93.536 159.873 92.4996 160.601C91.4633 161.329 89.8206 161.859 90.7908 162.4C91.761 162.94 93.8557 161.605 93.8557 161.605C94.1682 162.509 94.1682 163.493 93.8557 164.397C93.2604 165.368 88.3432 164.606 89.4457 166.019C90.5482 167.431 93.4478 166.019 93.4478 166.019C92.8229 167.491 91.9251 168.831 90.8018 169.969C89.1701 171.337 83.7237 171.48 83.7237 171.48Z" fill="#FB9CCB"/>
<path d="M71.1112 164.684C71.1112 164.684 62.9417 165.257 59.9759 161.131C59.9759 161.131 58.256 158.163 59.0609 155.868C59.0609 155.868 64.43 159.332 64.9482 156.872C65.4664 154.412 59.2042 153.463 59.2042 153.463C59.2042 153.463 57.5725 149.59 59.0609 147.284C60.5492 144.978 64.1985 150.329 64.3308 148.2C64.4631 146.07 59.2593 145.055 59.8436 142.904C60.4526 140.988 61.1892 139.116 62.0486 137.299C62.0486 137.299 68.0903 138.535 67.7706 140.697C67.4509 142.86 66.183 145.563 68.0132 144.989C69.8433 144.415 70.6371 140.19 70.6371 140.19C70.6371 140.19 73.5808 141.646 74.099 143.5C74.6171 145.353 67.7927 150.759 70.9458 150.969C74.099 151.179 75.6094 145.85 75.6094 145.85C76.7312 148.382 77.3634 151.103 77.4726 153.871C77.3734 157.622 71.1112 164.684 71.1112 164.684Z" fill="#FB9CCB"/>
<path d="M98.5966 134.938L96.0498 137.266C96.105 136.339 96.1931 135.412 96.3034 134.485C96.3695 134 95.6088 133.812 95.5537 134.309C95.3993 135.552 95.2891 136.795 95.223 138.038C93.018 140.123 90.8129 142.308 88.7402 144.658C88.5097 143.095 88.4138 141.515 88.4536 139.936C88.4536 139.439 87.6929 139.462 87.6818 139.936C87.6425 141.762 87.7791 143.587 88.0898 145.386C86.7844 146.873 85.5624 148.431 84.4295 150.053C83.0444 148.262 82.0729 146.186 81.585 143.974C81.4748 143.489 80.7361 143.72 80.8464 144.206C81.3627 146.566 82.411 148.778 83.9113 150.671L83.9885 150.738C80.5573 155.635 78.6718 161.45 78.5752 167.431C78.5752 167.927 79.347 167.905 79.347 167.431C79.4431 161.665 81.2506 156.058 84.5397 151.322C87.6891 152.052 90.936 152.264 94.1535 151.951C94.6497 151.951 94.6276 151.135 94.1535 151.179C91.1006 151.476 88.0199 151.289 85.0248 150.627C86.5919 148.359 88.3238 146.209 90.2066 144.195H90.2727C92.0808 144.294 93.8889 144.404 95.708 144.404C96.8348 144.525 97.9737 144.354 99.0155 143.908C99.4565 143.665 99.0156 143.014 98.6076 143.257C97.3839 143.93 95.6198 143.654 94.2858 143.61C93.1833 143.61 91.9926 143.522 90.846 143.456C93.5141 140.642 96.3585 138.005 99.1589 135.49C99.5337 135.136 98.9714 134.607 98.5966 134.938Z" fill="#06577A"/>
<path d="M75.1132 150.76C75.1296 150.663 75.1084 150.563 75.0542 150.482C74.9999 150.4 74.9166 150.342 74.8211 150.319C74.7257 150.297 74.6252 150.312 74.5402 150.361C74.4552 150.41 74.392 150.489 74.3635 150.583C73.6191 153.463 71.959 156.023 69.6338 157.876C68.6783 155.471 67.8 153.036 66.9988 150.572C68.8055 148.65 70.2708 146.434 71.3317 144.018C71.5301 143.566 70.8466 143.191 70.6481 143.654C69.6703 145.872 68.3412 147.917 66.7122 149.711C65.8192 146.887 65.0143 144.04 64.3198 141.15C64.1985 140.664 63.4598 140.896 63.5811 141.381C64.5292 145.331 65.6685 149.219 66.9988 153.044C65.5309 152.805 64.0979 152.386 62.7322 151.797C62.2801 151.598 61.9053 152.282 62.3683 152.481C63.9257 153.169 65.5684 153.644 67.2524 153.893C68.1454 156.42 69.1377 158.902 70.1961 161.363C67.8807 161.362 65.5855 160.932 63.4267 160.094C62.9637 159.917 62.5999 160.59 63.0629 160.778C65.4509 161.71 67.9973 162.167 70.5599 162.124C71.8976 165.184 73.3676 168.192 74.9699 171.149C75.2014 171.591 75.8629 171.149 75.6204 170.741C73.5011 166.804 71.6019 162.752 69.9315 158.604C72.478 156.635 74.3003 153.876 75.1132 150.76Z" fill="#06577A"/>
<path d="M89.4347 160.326L87.4171 163.967C87.1463 163.623 86.91 163.253 86.7115 162.863C86.4799 162.422 85.8295 162.863 86.061 163.271C86.3203 163.765 86.6347 164.228 86.9981 164.651L84.7931 168.59C84.5248 168.351 84.3459 168.028 84.286 167.674C84.2088 167.188 83.437 167.21 83.5142 167.674C83.6037 168.293 83.9273 168.854 84.4183 169.24L81.6841 174.172C81.6358 174.263 81.6256 174.369 81.6555 174.468C81.6855 174.566 81.7533 174.648 81.8439 174.696C81.9346 174.745 82.0407 174.755 82.1389 174.725C82.2371 174.695 82.3194 174.627 82.3676 174.537L85.9728 168.027C86.6122 168.017 87.2455 167.902 87.847 167.685C88.3101 167.519 88.0896 166.769 87.6155 166.946C87.2305 167.081 86.8308 167.17 86.4248 167.21L90.0741 160.59C90.0693 160.518 90.0446 160.449 90.0026 160.391C89.9606 160.332 89.9031 160.287 89.8366 160.259C89.7701 160.232 89.6972 160.223 89.6261 160.235C89.5551 160.247 89.4888 160.278 89.4347 160.326Z" fill="#06577A"/>
<defs>
<linearGradient id="paint0_linear" x1="139.753" y1="274.951" x2="205.961" y2="212.718" gradientUnits="userSpaceOnUse">
<stop stop-opacity="0"/>
<stop offset="0.99" stop-color="#552800"/>
</linearGradient>
<linearGradient id="paint1_linear" x1="90.8144" y1="127.159" x2="90.7842" y2="126.896" gradientUnits="userSpaceOnUse">
<stop stop-color="#D58ABB"/>
<stop offset="1" stop-color="#817FBC"/>
</linearGradient>
<linearGradient id="paint2_linear" x1="86.7241" y1="127.159" x2="86.6939" y2="126.896" gradientUnits="userSpaceOnUse">
<stop stop-color="#D58ABB"/>
<stop offset="1" stop-color="#817FBC"/>
</linearGradient>
<linearGradient id="paint3_linear" x1="78.5546" y1="127.159" x2="78.5245" y2="126.896" gradientUnits="userSpaceOnUse">
<stop stop-color="#D58ABB"/>
<stop offset="1" stop-color="#817FBC"/>
</linearGradient>
<linearGradient id="paint4_linear" x1="82.645" y1="127.159" x2="82.6148" y2="126.896" gradientUnits="userSpaceOnUse">
<stop stop-color="#D58ABB"/>
<stop offset="1" stop-color="#817FBC"/>
</linearGradient>
<linearGradient id="paint5_linear" x1="74.4643" y1="127.159" x2="74.4341" y2="126.896" gradientUnits="userSpaceOnUse">
<stop stop-color="#D58ABB"/>
<stop offset="1" stop-color="#817FBC"/>
</linearGradient>
<linearGradient id="paint6_linear" x1="202.864" y1="-32.1767" x2="330.638" y2="123.017" gradientUnits="userSpaceOnUse">
<stop stop-color="#D5C1FC"/>
<stop offset="1" stop-color="#FB9CCB"/>
</linearGradient>
<linearGradient id="paint7_linear" x1="196.946" y1="120.32" x2="153.259" y2="79.0891" gradientUnits="userSpaceOnUse">
<stop stop-color="#D58ABB"/>
<stop offset="1" stop-color="#817FBC"/>
</linearGradient>
<linearGradient id="paint8_linear" x1="314.335" y1="88.2658" x2="342.275" y2="180.155" gradientUnits="userSpaceOnUse">
<stop stop-color="#D5C1FC"/>
<stop offset="1" stop-color="#FB9CCB"/>
</linearGradient>
<linearGradient id="paint9_linear" x1="339.635" y1="75.4904" x2="411.585" y2="174.36" gradientUnits="userSpaceOnUse">
<stop stop-color="#D5C1FC"/>
<stop offset="1" stop-color="#FB9CCB"/>
</linearGradient>
<linearGradient id="paint10_linear" x1="90.5593" y1="173.201" x2="47.3704" y2="208.333" gradientUnits="userSpaceOnUse">
<stop stop-color="#D4A397"/>
<stop offset="1" stop-color="white"/>
</linearGradient>
<linearGradient id="paint11_linear" x1="77.5342" y1="156.369" x2="103.265" y2="189.045" gradientUnits="userSpaceOnUse">
<stop stop-color="#D5C1FC"/>
<stop offset="1" stop-color="#FB9CCB"/>
</linearGradient>
</defs>
</svg>
