<svg width="438" height="329" viewBox="0 0 438 329" fill="none" xmlns="http://www.w3.org/2000/svg">
<path d="M219 315.259L385.44 216.745C390.74 213.762 395.295 208.871 390.115 205.669L223.117 109.239C220.609 107.682 216.81 106.662 214.258 108.142L39.5402 209.705C34.2404 212.786 33.2878 221.395 38.5876 224.477L197.1 315.105C200.423 317.031 204.19 318.058 208.029 318.085C211.869 318.112 215.65 317.138 219 315.259Z" fill="#EFF0F6"/>
<path opacity="0.32" d="M162.739 245.039C150.617 252.113 138.145 258.418 125.991 265.437L148.789 278.038L184.737 255.589L162.739 245.039Z" fill="url(#paint0_linear)" fill-opacity="0.8"/>
<path opacity="0.32" d="M261.705 259.8C249.584 266.874 237.112 273.18 224.957 280.198L247.744 292.81L283.693 270.361L261.705 259.8Z" fill="url(#paint1_linear)" fill-opacity="0.8"/>
<path opacity="0.32" d="M231.297 277.863C219.175 284.936 206.703 291.242 194.549 298.261L217.347 310.861L253.296 288.423L231.297 277.863Z" fill="url(#paint2_linear)" fill-opacity="0.8"/>
<path opacity="0.32" d="M94.7392 208.981C85.9792 214.091 76.9564 218.653 68.1636 223.731L84.6433 232.844L110.639 216.614L94.7392 208.981Z" fill="url(#paint3_linear)" fill-opacity="0.8"/>
<path opacity="0.32" d="M315.787 225.957L268.713 257.157L200.319 212.523L242.597 186.236" fill="url(#paint4_linear)" fill-opacity="0.8"/>
<path d="M248.652 13.5439C263.895 23.0959 302.22 45.2924 315.25 53.32C318.207 55.1405 318.656 57.8493 318.711 61.3257L318.645 223.72C317.84 224.659 316.726 225.278 315.505 225.465C314.283 225.652 313.035 225.395 311.987 224.74L247.7 188.353C244.502 186.466 241.984 184.525 241.984 180.808L242.586 16.4501C242.586 12.9188 245.63 11.6467 248.652 13.5439Z" fill="url(#paint5_linear)"/>
<path d="M242.718 15.3533L263.621 27.4166V31.9349C263.625 32.3158 263.729 32.689 263.921 33.0179C264.113 33.3467 264.387 33.6198 264.716 33.8102L280.889 43.1648C281.107 43.3043 281.359 43.3818 281.617 43.3889C281.876 43.396 282.131 43.3324 282.357 43.205C282.582 43.0776 282.768 42.8912 282.895 42.6658C283.023 42.4403 283.086 42.1844 283.079 41.9255V38.6355L313.389 56.4564C313.679 56.6268 313.92 56.8703 314.087 57.1627C314.254 57.4552 314.342 57.7863 314.342 58.1233V220.507C314.334 220.734 314.268 220.956 314.15 221.15C314.032 221.344 313.865 221.504 313.666 221.614C313.468 221.725 313.244 221.782 313.017 221.78C312.79 221.778 312.567 221.717 312.371 221.603L241.995 180.807C241.877 182.068 242.103 183.336 242.648 184.478C243.194 185.619 244.039 186.591 245.094 187.289C248.74 189.614 312.809 225.924 312.809 225.924C312.809 225.924 317.878 228.216 319.379 222.163V58.7594C319.381 57.703 319.133 56.6612 318.655 55.7194C318.177 54.7776 317.483 53.9628 316.63 53.3418C313.717 51.2472 248.357 13.16 248.357 13.16C248.357 13.16 243.758 11.0653 242.718 15.3533Z" fill="#124577"/>
<path d="M191.088 100.301C191.765 98.4859 192.35 96.6375 192.84 94.763C193.059 93.436 191.745 88.3914 192.665 88.1062C193.585 87.8211 194.735 91.2427 194.735 91.2427C194.735 91.2427 197.472 85.0575 198.217 84.7614C198.961 84.4653 201.184 84.2679 201.721 84.8272C202.257 85.3865 203.736 88.9945 203.079 90.2228C201.659 92.4012 200.12 94.499 198.469 96.5067C198.228 96.6931 195.348 102.9 194.965 103.087C194.581 103.273 191.373 101.694 191.088 100.301Z" fill="#FFC9B5"/>
<path d="M161.053 120.326C161.053 120.326 176.098 114.371 178.715 112.211C181.332 110.051 190.76 98.9194 190.76 98.9194C190.76 98.9194 196.235 100.926 196.169 103.679C196.169 103.679 188.504 116.499 184.946 119.932C181.387 123.364 168.4 131.995 165.553 131.798C162.706 131.6 161.053 120.326 161.053 120.326Z" fill="#D5C1FC"/>
<path d="M170.656 242.275C170.656 242.275 174.247 239.205 178.321 240.389C182.394 241.574 181.518 244.6 178.978 246.498C176.437 248.395 166.659 254.986 163.648 254.92C160.636 254.854 159.979 252.431 159.914 250.764C160.081 248.192 160.377 245.629 160.801 243.087" fill="#2C1D1A"/>
<path d="M168.422 242.056C168.437 242.169 168.477 242.277 168.538 242.372C168.6 242.467 168.682 242.548 168.778 242.607C168.874 242.667 168.983 242.705 169.095 242.718C169.208 242.73 169.322 242.718 169.429 242.681C170.522 242.335 171.593 241.925 172.638 241.453C172.638 241.453 176.109 241.453 173.995 244.93C171.882 248.406 164.6 249.426 162.356 248.132C160.111 246.838 161.611 243.153 161.611 243.153" fill="#2C1D1A"/>
<path d="M179.12 249.064C179.12 249.064 182.711 245.993 186.785 247.178C190.858 248.362 189.982 251.389 187.442 253.286C184.901 255.183 175.123 261.774 172.112 261.709C169.101 261.643 168.444 259.219 168.378 257.552C168.545 254.98 168.841 252.418 169.265 249.876" fill="#2C1D1A"/>
<path d="M176.875 248.845C176.89 248.957 176.93 249.065 176.992 249.16C177.053 249.256 177.135 249.336 177.232 249.396C177.328 249.456 177.436 249.493 177.549 249.506C177.662 249.519 177.776 249.506 177.883 249.47C178.975 249.123 180.047 248.713 181.091 248.241C181.091 248.241 184.562 248.241 182.449 251.718C180.336 255.194 173.054 256.214 170.809 254.92C168.564 253.626 170.065 249.941 170.065 249.941" fill="#FFC9B5"/>
<path d="M180.675 154.246C181.847 156.9 182.482 194.9 182.033 204.693C181.584 214.486 176.908 248.877 176.908 248.877C176.908 248.877 174.247 252.924 169.758 252.639C165.268 252.354 166.144 248.735 166.144 248.735C166.144 248.735 160.406 251.4 157.899 245.544C156.968 243.35 152.599 182.803 152.599 175.905C152.749 167.662 155.011 159.596 159.169 152.48" fill="#3D467F"/>
<path d="M166.111 248.702C166.111 248.702 163.385 171.935 163.735 169.665C164.086 167.395 162.991 186.499 163.067 191.719C163.155 195.448 165.345 243.46 166.111 248.702Z" fill="url(#paint6_linear)"/>
<path d="M180.675 154.246C180.675 154.246 184.639 127.06 179 121.928C173.36 116.795 157.691 113.154 154.767 115.709C151.844 118.265 156.235 147.096 159.147 152.448C162.06 157.799 178.562 156.33 180.675 154.246Z" fill="#D5C1FC"/>
<path d="M173.514 101.924C173.645 102.308 176.426 112.891 171.576 114.426C166.725 115.962 165.75 110.16 165.268 109.831C164.787 109.502 163.265 108.987 163.341 107.813C163.418 106.64 165.257 106.618 165.257 106.618C165.257 106.618 165.969 103.547 168.148 102.231C170.327 100.915 173.514 101.924 173.514 101.924Z" fill="#FFC9B5"/>
<path d="M168.981 104.907C168.981 104.907 173.032 104.973 174.784 103.24C175.112 102.902 175.366 102.498 175.531 102.056C175.695 101.614 175.766 101.143 175.74 100.672C175.713 100.201 175.589 99.7403 175.375 99.3198C175.162 98.8992 174.864 98.5276 174.499 98.2284C174.499 98.2284 176.109 95.0151 173.087 94.2365C173.087 94.2365 172.813 91.2865 166.791 92.6354C160.768 93.9843 155.271 98.2503 155.195 103.767C155.118 109.283 154.713 109.919 152.764 111.18C150.815 112.441 151.351 117.277 156.563 117.475C161.775 117.672 168.882 117.212 169.55 114.635C170.218 112.057 166.265 111.783 165.772 109.151C165.704 108.661 165.733 108.163 165.858 107.685C165.982 107.206 166.2 106.757 166.498 106.363C166.796 105.969 167.169 105.637 167.595 105.388C168.021 105.138 168.492 104.974 168.981 104.907Z" fill="#2C1D1A"/>
<path d="M188.483 150.331C188.483 150.331 192.654 154.784 193.859 155.266C195.703 156.111 197.476 157.105 199.159 158.238C198.6 158.739 198.104 159.306 197.681 159.927C197.679 159.949 197.679 159.971 197.681 159.993C197.144 159.609 196.772 159.324 196.783 159.521C196.783 160.146 200.889 165.498 201.513 166.309C202.137 167.121 200.418 169.775 200.418 169.775C197.768 170.663 194.713 167.976 192.753 166.156C190.793 164.335 189.884 160.124 189.205 159.576C188.526 159.028 182.931 155.332 182.537 154.18C182.142 153.029 188.483 150.331 188.483 150.331Z" fill="#FFC9B5"/>
<path d="M180.27 123.869C181.365 126.292 181.365 128.946 181.825 131.545C182.186 133.399 182.558 135.34 182.985 137.215C183.277 139.127 183.876 140.979 184.759 142.698C186.292 145.254 188.285 147.469 190.026 149.871C190.51 150.393 190.86 151.025 191.045 151.713C191.209 153.391 189.095 158.172 183.237 157.58C180.277 155.184 177.509 152.559 174.959 149.728C171.674 145.857 168.564 132.763 168.882 128.409C169.101 125.448 170.71 122.136 173.514 120.842C174.443 120.463 175.467 120.378 176.446 120.6C177.425 120.821 178.312 121.338 178.989 122.081C179.513 122.601 179.946 123.205 180.27 123.869Z" fill="#D5C1FC"/>
<path d="M179.931 154.707C179.931 154.707 175.036 150.54 173.831 148.028C172.627 145.517 171.061 140.999 171.061 140.999C171.061 140.999 173.328 154.06 175.496 155.804C177.004 155.574 178.489 155.207 179.931 154.707Z" fill="#2C1D1A"/>
<path d="M86.954 189.109C86.954 189.109 84.0523 214.047 97.2251 218.873C110.398 223.698 117.45 211.196 117.647 189.109" fill="url(#paint7_linear)"/>
<path opacity="0.33" d="M86.954 189.109C86.954 189.109 84.0523 214.047 97.2251 218.873C110.398 223.698 117.45 211.196 117.647 189.109" fill="#2E2E75"/>
<path d="M102.295 197.992C110.773 197.992 117.647 194.015 117.647 189.109C117.647 184.203 110.773 180.226 102.295 180.226C93.8161 180.226 86.9429 184.203 86.9429 189.109C86.9429 194.015 93.8161 197.992 102.295 197.992Z" fill="#3D467F"/>
<path d="M106.215 169.336C106.215 169.336 100.193 160.629 102.821 154.597C102.821 154.597 105.011 150.726 108.055 150.112C108.055 150.112 107.748 158.37 110.814 157.317C113.88 156.264 110.814 148.675 110.814 148.675C110.814 148.675 114.033 144.288 117.57 144.442C121.107 144.596 117.57 152.119 120.023 150.912C122.476 149.706 120.176 143.236 122.936 142.435C125.461 141.855 128.021 141.444 130.601 141.207C130.601 141.207 133.207 148.741 130.601 149.816C127.995 150.89 124.151 151.263 125.991 152.919C127.83 154.575 133.054 152.667 133.054 152.667C133.054 152.667 133.382 156.911 131.608 158.742C129.834 160.574 119.388 156.549 121.239 160.168C123.089 163.787 129.999 161.989 129.999 161.989C129.999 161.989 126.473 167.044 122.334 169.347C118.194 171.65 106.215 169.336 106.215 169.336Z" fill="#D5C1FC"/>
<path d="M107.638 191.138C107.638 191.138 103.258 186.839 104.145 183.132C104.145 183.132 104.967 180.709 106.642 180.029C106.642 180.029 107.343 184.755 108.974 183.823C110.606 182.891 108.055 178.921 108.055 178.921C108.055 178.921 109.423 176.092 111.438 175.796C113.453 175.5 112.259 180.182 113.519 179.206C114.778 178.23 112.785 174.82 114.274 174.074C115.648 173.475 117.06 172.97 118.501 172.561C118.501 172.561 120.789 176.563 119.421 177.452C118.052 178.34 115.917 178.965 117.132 179.711C118.348 180.457 121.118 178.812 121.118 178.812C121.118 178.812 121.753 181.18 120.943 182.409C120.132 183.637 113.77 182.409 115.205 184.328C116.639 186.247 120.362 184.426 120.362 184.426C119.499 186.304 118.287 188.001 116.793 189.427C114.69 191.171 107.638 191.138 107.638 191.138Z" fill="#D5C1FC"/>
<path d="M91.6406 181.838C91.6406 181.838 81.0629 182.244 77.4056 176.794C77.4056 176.794 75.3142 172.879 76.442 169.961C76.442 169.961 83.231 174.655 83.9975 171.497C84.764 168.338 76.7158 166.858 76.7158 166.858C76.7158 166.858 74.7667 161.78 76.7815 158.874C78.7963 155.968 83.2858 163.019 83.5486 160.278C83.8114 157.536 77.1319 156.001 77.975 153.259C78.8324 150.806 79.853 148.414 81.0301 146.098C81.0301 146.098 88.7827 147.94 88.279 150.726C87.7753 153.511 86.0342 156.944 88.4213 156.286C90.8084 155.628 91.9801 150.243 91.9801 150.243C91.9801 150.243 95.725 152.25 96.3601 154.729C96.9952 157.207 87.9286 163.853 91.9801 164.259C96.0316 164.664 98.2106 157.843 98.2106 157.843C98.2106 157.843 100.565 163.546 100.28 168.283C99.9955 173.021 91.6406 181.838 91.6406 181.838Z" fill="#D5C1FC"/>
<path d="M128.345 144.541C127.228 145.491 126.1 146.456 124.962 147.436C125.082 146.24 125.213 145.045 125.41 143.85C125.509 143.225 124.545 142.95 124.447 143.587C124.191 145.18 123.998 146.781 123.867 148.39C120.899 150.989 117.965 153.72 115.227 156.604C114.99 154.573 114.928 152.526 115.041 150.485C115.041 149.838 114.077 149.849 114.044 150.485C113.916 152.843 114.015 155.208 114.34 157.547C112.592 159.435 110.951 161.42 109.424 163.491C107.704 161.113 106.534 158.383 105.996 155.496C105.876 154.86 104.901 155.134 105.033 155.76C105.602 158.83 106.864 161.729 108.723 164.237C108.752 164.27 108.785 164.3 108.821 164.325C104.441 170.565 101.408 177.561 101.156 185.666C101.156 186.313 102.131 186.313 102.153 185.666C102.405 177.857 105.295 171.102 109.511 165.059C113.543 166.129 117.722 166.537 121.885 166.266C122.52 166.266 122.531 165.169 121.885 165.268C117.931 165.522 113.963 165.152 110.124 164.171C112.241 161.306 114.565 158.601 117.078 156.078H117.165C119.498 156.286 121.83 156.494 124.173 156.571C125.652 156.79 127.162 156.616 128.553 156.067C129.123 155.781 128.619 154.915 128.049 155.2C126.44 156.012 124.184 155.584 122.454 155.485C120.976 155.398 119.497 155.277 118.019 155.145C121.578 151.614 125.4 148.324 129.09 145.199C129.55 144.826 128.838 144.124 128.345 144.541Z" fill="#06577A"/>
<path d="M97.3895 164.018C97.406 163.896 97.3779 163.773 97.3105 163.671C97.243 163.569 97.1408 163.495 97.0229 163.463C96.905 163.43 96.7795 163.442 96.6696 163.496C96.5598 163.55 96.4732 163.641 96.4259 163.754C95.3451 167.449 93.0927 170.69 90.0092 172.988C88.8777 169.844 87.8411 166.664 86.8994 163.447C89.31 161.039 91.2914 158.234 92.7576 155.156C93.0314 154.575 92.1773 154.06 91.8926 154.652C90.543 157.481 88.7459 160.073 86.5709 162.329C85.4759 158.644 84.6108 154.926 83.8334 151.176C83.702 150.55 82.7384 150.814 82.8698 151.439C83.9283 156.557 85.2386 161.627 86.8008 166.65C84.9094 166.281 83.0705 165.681 81.3258 164.862C80.7455 164.588 80.2308 165.454 80.8221 165.728C82.8243 166.68 84.946 167.355 87.1293 167.735C88.2243 171.025 89.3193 174.315 90.6333 177.496C87.6415 177.401 84.6934 176.75 81.939 175.576C81.3587 175.324 80.844 176.191 81.4353 176.443C84.4651 177.748 87.719 178.452 91.0166 178.515C92.6226 182.529 94.3892 186.477 96.3164 190.359C96.6011 190.941 97.4114 190.425 97.1814 189.855C94.6091 184.692 92.3243 179.391 90.3377 173.975C93.7278 171.533 96.2091 168.029 97.3895 164.018Z" fill="#06577A"/>
<path d="M115.479 176.958L112.73 181.575C112.391 181.122 112.098 180.637 111.854 180.127C111.58 179.546 110.759 180.051 110.989 180.632C111.302 181.28 111.688 181.891 112.139 182.452L109.204 187.53C108.871 187.212 108.655 186.791 108.591 186.334C108.514 185.698 107.496 185.698 107.595 186.334C107.682 187.137 108.074 187.875 108.69 188.396L104.967 194.658C104.917 194.772 104.91 194.9 104.949 195.017C104.987 195.135 105.067 195.235 105.174 195.297C105.281 195.36 105.407 195.38 105.528 195.356C105.65 195.331 105.758 195.262 105.832 195.163L110.748 186.905C111.573 186.919 112.394 186.797 113.179 186.543C113.792 186.345 113.529 185.38 112.916 185.578C112.415 185.737 111.897 185.837 111.372 185.874L116.355 177.506C116.427 177.39 116.451 177.25 116.42 177.116C116.389 176.982 116.306 176.866 116.19 176.793C116.074 176.721 115.934 176.697 115.8 176.728C115.667 176.759 115.551 176.842 115.479 176.958Z" fill="#06577A"/>
<path d="M277.661 148.254C287.426 146.514 293.309 133.661 290.801 119.547C288.293 105.432 278.344 95.4008 268.58 97.1411C258.815 98.8813 252.932 111.734 255.44 125.849C257.948 139.963 267.897 149.995 277.661 148.254Z" fill="white"/>
<path d="M282.214 113.856L268.363 128.113L264.256 123.726C263.161 124.932 262.855 125.239 261.683 126.38L268.625 134.484L284.525 116.609L282.214 113.856Z" fill="#124577"/>
<path d="M221.825 44.2395V59.0993C221.972 60.2687 222.469 61.3662 223.251 62.2471C224.033 63.128 225.063 63.7511 226.205 64.0343C230.224 64.9446 230.771 59.6477 230.771 59.6477V48.681L221.825 44.2395Z" fill="#FB9CCB"/>
<path d="M230.804 48.7688V63.6067C230.951 64.7761 231.448 65.8735 232.23 66.7545C233.012 67.6354 234.042 68.2585 235.184 68.5417C239.203 69.4519 239.75 64.155 239.75 64.155V53.1884L230.804 48.7688Z" fill="#3D467F"/>
<path d="M239.903 55.4695V70.3293C240.05 71.4987 240.547 72.5961 241.329 73.4771C242.111 74.358 243.141 74.9811 244.283 75.2643C248.302 76.1745 248.85 70.8776 248.85 70.8776V59.911L239.903 55.4695Z" fill="#FB9CCB"/>
<path d="M248.882 59.9985V74.8584C249.029 76.0278 249.526 77.1252 250.308 78.0061C251.09 78.887 252.12 79.5102 253.262 79.7934C257.281 80.7036 257.829 75.4067 257.829 75.4067V64.44L248.882 59.9985Z" fill="#3D467F"/>
<path d="M257.861 65.4163V80.2761C258.008 81.4455 258.505 82.5429 259.287 83.4238C260.069 84.3048 261.099 84.9279 262.241 85.2111C266.26 86.1213 266.807 80.8244 266.807 80.8244V69.8578L257.861 65.4163Z" fill="#FB9CCB"/>
<path d="M266.84 69.9563V84.8161C266.987 85.9855 267.484 87.083 268.266 87.9639C269.048 88.8448 270.078 89.4679 271.22 89.7511C275.239 90.6614 275.786 85.3645 275.786 85.3645V74.3978L266.84 69.9563Z" fill="#3D467F"/>
<path d="M275.677 76.032V90.8918C275.824 92.0612 276.321 93.1586 277.103 94.0396C277.885 94.9205 278.915 95.5436 280.057 95.8268C284.076 96.737 284.623 91.4401 284.623 91.4401V80.4735L275.677 76.032Z" fill="#FB9CCB"/>
<path d="M242.718 15.3535L221.749 44.1958C221.749 44.1958 292.299 87.251 293.285 86.9658C294.27 86.6807 313.389 56.4566 313.389 56.4566L242.718 15.3535Z" fill="#D5C1FC"/>
<path d="M275.677 76.7776L296.997 46.6741L305.22 51.7078L284.656 82.0964" fill="#FB9CCB"/>
<path d="M266.84 71.5027L287.766 41.4211L296.997 46.6742L275.677 76.7777" fill="#3D467F"/>
<path d="M257.861 66.2168L279.608 36.3875L287.766 41.4212L266.851 71.5795" fill="#FB9CCB"/>
<path d="M248.882 60.7445L269.994 30.97L279.608 36.3875L257.861 66.1401" fill="#3D467F"/>
<path d="M239.783 55.1402L259.975 25.3657L269.994 30.9697L248.883 60.7442" fill="#FB9CCB"/>
<path d="M230.804 49.69L250.865 20.0361L259.975 25.3659L239.783 55.1404" fill="#3D467F"/>
<path d="M221.825 44.4371L243.145 14.0923L251.368 19.126L230.804 49.5146" fill="#FB9CCB"/>
<path d="M313.389 56.4563C313.389 56.4563 314.342 56.6537 314.342 58.2877V86.9436L291.029 100.279L294.314 79.8592L313.389 56.4563Z" fill="#3D467F"/>
<path d="M284.7 82.0964V95.41C284.847 96.5794 285.344 97.6768 286.126 98.5577C286.908 99.4386 287.938 100.062 289.08 100.345C293.099 101.255 293.646 95.9583 293.646 95.9583L293.471 87.185L284.7 82.0964Z" fill="#3D467F"/>
<path d="M293.46 87.2069L313.389 56.4563L305.22 51.7078L284.656 82.0964" fill="#3D467F"/>
<path d="M261.541 169.731C261.81 170.544 261.943 171.397 261.935 172.253C261.935 174.041 261.322 175.006 260.489 175.105C259.994 175.126 259.503 174.992 259.088 174.721C257.905 173.991 257.038 172.845 256.657 171.508C256.392 170.694 256.263 169.841 256.274 168.985C256.274 167.198 256.887 166.222 257.719 166.145C258.217 166.118 258.711 166.248 259.132 166.518C260.312 167.245 261.172 168.393 261.541 169.731ZM260.303 173.35C260.503 173.108 260.651 172.827 260.738 172.525C260.825 172.223 260.848 171.907 260.807 171.595C260.83 170.797 260.665 170.004 260.325 169.281C260.069 168.711 259.65 168.23 259.121 167.9C258.946 167.765 258.733 167.692 258.513 167.692C258.293 167.692 258.079 167.765 257.905 167.9C257.709 168.143 257.564 168.425 257.479 168.726C257.394 169.028 257.372 169.344 257.412 169.654C257.384 170.452 257.546 171.245 257.883 171.968C258.139 172.545 258.563 173.03 259.099 173.361C259.271 173.499 259.486 173.574 259.706 173.574C259.927 173.574 260.142 173.499 260.314 173.361" fill="#3D467F"/>
<path d="M252.945 162.997C253.618 163.416 254.19 163.979 254.618 164.647C255.046 165.315 255.32 166.07 255.42 166.858L254.412 166.627C254.336 166.169 254.165 165.731 253.91 165.342C253.656 164.953 253.323 164.622 252.934 164.368C252.757 164.23 252.539 164.156 252.315 164.156C252.091 164.156 251.874 164.23 251.697 164.368C251.313 164.867 251.139 165.497 251.215 166.123C251.194 166.917 251.355 167.704 251.686 168.426C251.944 169.007 252.372 169.496 252.912 169.83C253.635 170.246 254.128 170.071 254.401 169.292L255.409 170.214C255.113 171.595 254.215 171.957 252.901 171.201C252.036 170.675 251.337 169.915 250.886 169.007C250.333 167.93 250.054 166.731 250.076 165.52C250.016 165.061 250.06 164.595 250.206 164.156C250.352 163.717 250.596 163.317 250.919 162.986C251.216 162.776 251.571 162.665 251.934 162.667C252.297 162.668 252.651 162.784 252.945 162.997Z" fill="#3D467F"/>
<path d="M268.472 172.001L268.439 180.018L267.322 179.371L267.344 174.425L266.173 177.967L265.362 177.506L264.234 172.637L264.213 177.583L263.096 176.936L263.139 168.93L264.388 169.654L265.778 175.456L267.224 171.277L268.472 172.001Z" fill="#3D467F"/>
<path d="M271.976 174.008C272.573 174.375 273.061 174.894 273.39 175.513C273.72 176.132 273.878 176.828 273.849 177.528C273.849 178.987 273.181 179.579 271.954 178.877L270.804 178.208V181.356L269.709 180.72V172.703L271.976 174.008ZM271.91 177.485C272.436 177.781 272.699 177.583 272.71 176.87C272.735 176.568 272.675 176.264 272.535 175.994C272.396 175.725 272.183 175.5 271.921 175.346L270.826 174.71V176.838L271.921 177.474" fill="#3D467F"/>
<path d="M275.995 176.322L275.962 182.968L278.502 184.437V185.808L274.834 183.692L274.878 175.686L275.995 176.322Z" fill="#3D467F"/>
<path d="M283.266 180.511L283.255 181.882L280.649 180.391V182.069L282.729 183.275L282.718 184.646L280.638 183.439L280.627 185.655L283.309 187.201V188.572L279.51 186.389L279.543 178.373L283.266 180.511Z" fill="#3D467F"/>
<path d="M288.62 183.593V184.975L286.956 184.01L286.923 190.656L285.806 190.009L285.839 183.374L284.174 182.42L284.185 181.038L288.62 183.593Z" fill="#3D467F"/>
<path d="M293.307 186.291L293.296 187.673L290.701 186.17L290.69 187.848L292.781 189.054L292.77 190.425L290.679 189.23L290.668 191.434L293.361 192.981L293.35 194.351L289.551 192.169L289.595 184.152L293.307 186.291Z" fill="#3D467F"/>
<path d="M296.296 188.012C297.204 188.628 297.938 189.469 298.425 190.453C298.912 191.437 299.137 192.531 299.077 193.627C299.077 196.424 297.676 196.841 296.252 196.029L294.369 194.932V186.916L296.296 188.012ZM297.27 194.713C297.687 194.581 297.938 194 297.949 192.969C297.984 192.092 297.755 191.225 297.292 190.48C296.954 189.946 296.492 189.502 295.945 189.186L295.529 188.945V194.209L295.945 194.45C296.139 194.59 296.361 194.686 296.595 194.732C296.83 194.777 297.071 194.771 297.303 194.713" fill="#3D467F"/>
<path d="M282.039 271.272V251.477L299.734 241.607V261.248L282.039 271.272Z" fill="url(#paint8_linear)"/>
<path d="M282.039 251.477L264.826 241.607C264.826 241.607 264.344 261.566 264.826 261.884C265.308 262.202 282.039 271.304 282.039 271.304V251.477Z" fill="url(#paint9_linear)"/>
<path d="M264.815 241.574L282.039 231.035L299.735 241.574L282.039 251.477L264.815 241.574Z" fill="url(#paint10_linear)" fill-opacity="0.8"/>
<path d="M271.374 237.56L289.299 247.408V257.75L294.457 255.14V244.524L276.531 234.402L271.374 237.56Z" fill="white"/>
<path d="M236.225 202.982C224.179 203.815 224.76 223.413 223.939 231.495C223.731 233.535 226.873 234.226 227.081 232.164C227.76 225.387 227.311 216.208 231.067 210.231C232.228 208.389 233.607 206.579 235.984 206.415C236.712 206.389 237.438 206.513 238.117 206.781C238.795 207.049 239.411 207.455 239.926 207.972C241.021 208.926 241.546 212.72 241.732 213.85C242.359 218.048 242.429 222.311 241.94 226.527C241.721 228.567 244.864 229.258 245.083 227.196C245.773 220.869 246.999 202.236 236.225 202.982Z" fill="#3D467F"/>
<path d="M254.314 216.142L257.949 222.218L265.231 223.731L259.778 242.561L244.316 232.537" fill="#FB9CCB"/>
<path d="M217.018 236.792L254.314 216.142L253.109 246.816L224.606 249.547L217.018 236.792Z" fill="url(#paint11_linear)"/>
<path d="M230.366 241.343L236.126 299.346L270.991 278.389L265.231 223.731L230.366 241.343Z" fill="url(#paint12_linear)"/>
<path d="M230.366 241.343L226.424 236.792H217.018L213.076 287.502L223.205 292.174L236.126 299.346L230.366 241.343Z" fill="#FB9CCB"/>
<path d="M251.795 212.688C239.674 212.797 239.126 232.428 237.823 240.466C237.495 242.495 240.594 243.361 240.922 241.322C242.017 234.599 242.105 225.409 246.211 219.684C247.897 217.338 250.843 215.364 253.755 216.899C256.362 218.281 256.394 221.362 256.646 223.939C257.022 228.167 256.838 232.426 256.099 236.606C255.759 238.635 258.858 239.501 259.198 237.461C260.26 231.101 262.603 212.589 251.795 212.688Z" fill="#3D467F"/>
<defs>
<linearGradient id="paint0_linear" x1="189.554" y1="275.905" x2="169.105" y2="227.106" gradientUnits="userSpaceOnUse">
<stop stop-color="#D58ABB"/>
<stop offset="1" stop-color="#817FBC"/>
</linearGradient>
<linearGradient id="paint1_linear" x1="288.509" y1="290.676" x2="268.045" y2="241.869" gradientUnits="userSpaceOnUse">
<stop stop-color="#D58ABB"/>
<stop offset="1" stop-color="#817FBC"/>
</linearGradient>
<linearGradient id="paint2_linear" x1="258.112" y1="308.728" x2="237.663" y2="259.929" gradientUnits="userSpaceOnUse">
<stop stop-color="#D58ABB"/>
<stop offset="1" stop-color="#817FBC"/>
</linearGradient>
<linearGradient id="paint3_linear" x1="114.121" y1="231.302" x2="99.3307" y2="196.014" gradientUnits="userSpaceOnUse">
<stop stop-color="#D58ABB"/>
<stop offset="1" stop-color="#817FBC"/>
</linearGradient>
<linearGradient id="paint4_linear" x1="325.254" y1="252.573" x2="278.561" y2="150.672" gradientUnits="userSpaceOnUse">
<stop stop-color="#D58ABB"/>
<stop offset="1" stop-color="#817FBC"/>
</linearGradient>
<linearGradient id="paint5_linear" x1="280.358" y1="-45.6135" x2="213.746" y2="-34.18" gradientUnits="userSpaceOnUse">
<stop stop-color="#D1CFFF"/>
<stop offset="1" stop-color="#FFCDFA"/>
<stop offset="1" stop-color="#FFCDFA"/>
</linearGradient>
<linearGradient id="paint6_linear" x1="164.336" y1="125.9" x2="172.899" y2="126.324" gradientUnits="userSpaceOnUse">
<stop stop-color="#D5C1FC"/>
<stop offset="1" stop-color="#FB9CCB"/>
</linearGradient>
<linearGradient id="paint7_linear" x1="102.169" y1="180.678" x2="79.6564" y2="191.458" gradientUnits="userSpaceOnUse">
<stop stop-color="#D1CFFF"/>
<stop offset="1" stop-color="#FFCDFA"/>
<stop offset="1" stop-color="#FFCDFA"/>
</linearGradient>
<linearGradient id="paint8_linear" x1="289.428" y1="225.289" x2="320.793" y2="249.357" gradientUnits="userSpaceOnUse">
<stop stop-color="#D5C1FC"/>
<stop offset="1" stop-color="#FB9CCB"/>
</linearGradient>
<linearGradient id="paint9_linear" x1="271.889" y1="225.271" x2="303.153" y2="248.872" gradientUnits="userSpaceOnUse">
<stop stop-color="#D5C1FC"/>
<stop offset="1" stop-color="#FB9CCB"/>
</linearGradient>
<linearGradient id="paint10_linear" x1="302.598" y1="250.155" x2="289.563" y2="220.309" gradientUnits="userSpaceOnUse">
<stop stop-color="#D58ABB"/>
<stop offset="1" stop-color="#817FBC"/>
</linearGradient>
<linearGradient id="paint11_linear" x1="257.372" y1="247.387" x2="230.545" y2="207.239" gradientUnits="userSpaceOnUse">
<stop stop-color="#D58ABB"/>
<stop offset="1" stop-color="#817FBC"/>
</linearGradient>
<linearGradient id="paint12_linear" x1="247.33" y1="182.137" x2="324.755" y2="235.648" gradientUnits="userSpaceOnUse">
<stop stop-color="#D5C1FC"/>
<stop offset="1" stop-color="#FB9CCB"/>
</linearGradient>
</defs>
</svg>
