<svg width="466" height="350" viewBox="0 0 466 350" fill="none" xmlns="http://www.w3.org/2000/svg">
<path d="M107.18 82.1218C92.0346 76.5918 73.2665 90.0084 65.2396 112.082C57.2128 134.155 62.9096 156.532 78.0546 162.062C79.2605 162.497 80.5049 162.818 81.771 163.018C84.9631 174.242 95.9607 171.185 95.9607 171.185C91.6036 168.56 90.4036 165.352 90.4386 162.692C102.287 159.973 114.076 148.412 120.018 132.113C128.045 110.028 122.325 87.6518 107.18 82.1218Z" fill="#FB9CCB"/>
<path d="M424.573 123.76C423.767 119.541 421.543 115.725 418.27 112.949C414.997 110.172 410.873 108.602 406.585 108.5C402.757 108.436 398.99 109.468 395.727 111.475L395.192 111.627C395.217 111.429 395.217 111.229 395.192 111.032C394.423 102.095 386.897 94.4534 377.717 94.6984C373.338 94.8291 369.152 96.5261 365.915 99.4817C362.42 102.643 360.673 107.322 360.009 111.883C360.009 112.117 359.939 112.35 359.915 112.595C356.433 112.303 352.933 112.901 349.745 114.333C346.454 115.916 343.759 118.518 342.059 121.754C340.36 124.99 339.746 128.688 340.308 132.3C340.74 135.822 342.042 139.18 344.096 142.071C346.151 144.962 348.893 147.294 352.075 148.855C354.664 150.089 357.462 150.821 360.323 151.013C362.513 160.347 372.334 167.697 381.573 170.147C393.223 173.215 410.139 170.462 414.67 157.605C415.36 155.472 415.753 153.254 415.835 151.013C415.993 149.049 415.792 147.072 415.241 145.18C414.972 144.365 414.612 143.582 414.169 142.847C417.766 141.263 420.737 138.532 422.619 135.079C424.501 131.626 425.188 127.645 424.573 123.76V123.76Z" fill="#FB9CCB"/>
<path d="M344.84 153.848C344.235 153.509 343.584 153.261 342.906 153.113C341.711 152.83 340.466 152.83 339.271 153.113C338.57 153.272 337.895 153.531 337.267 153.883C336.631 154.232 336.044 154.664 335.52 155.167C334.411 156.293 333.784 157.808 333.772 159.39C333.794 160.552 334.132 161.685 334.751 162.668C334.913 163.171 335.14 163.649 335.427 164.092C336.416 165.667 337.958 166.815 339.749 167.312C340.339 167.463 340.945 167.545 341.555 167.557C341.894 167.537 342.233 167.498 342.568 167.44C343.502 167.351 344.403 167.047 345.201 166.553C346.778 165.577 347.921 164.032 348.393 162.237C348.802 160.642 348.676 158.956 348.034 157.44C347.392 155.924 346.27 154.662 344.84 153.848V153.848Z" fill="#FB9CCB"/>
<path d="M227.268 333.667C315.39 333.667 386.827 298.482 386.827 255.08C386.827 211.678 315.39 176.493 227.268 176.493C139.147 176.493 67.71 211.678 67.71 255.08C67.71 298.482 139.147 333.667 227.268 333.667Z" fill="#EFF0F6"/>
<path d="M202.71 332.555L284.857 296.919L315.956 294L319.312 295.693L320.375 300.748L267.367 331.333C267.367 331.333 224.262 334.833 202.71 332.555Z" fill="url(#paint0_linear)" fill-opacity="0.8"/>
<path d="M90.7881 293.475L165.43 256.223L186.271 265.44L189.289 267.003L191.863 274.167L126.076 315C113.725 308.84 101.92 301.639 90.7881 293.475V293.475Z" fill="url(#paint1_linear)" fill-opacity="0.8"/>
<path d="M325.874 264.157C325.571 263.772 312.815 246.027 312.477 246.143C312.139 246.26 308.539 267.657 308.539 267.657L320.189 276.138" fill="#FFDDB0"/>
<path d="M322.309 262.418C322.449 264.437 322.495 268.252 321.284 269.08C320.072 269.908 318.756 264.028 316.752 263.107C314.748 262.185 310.484 266.91 309.704 269.103C308.923 271.297 315.424 274.283 315.587 274.878L316.216 276.792C315.253 281.242 314.031 285.632 312.558 289.94C311.89 292.364 311.89 294.924 312.558 297.348C313.06 298.594 313.837 299.711 314.83 300.615C315.706 301.338 316.805 301.733 317.94 301.733C319.075 301.733 320.175 301.338 321.051 300.615C322.9 299.045 324.38 297.085 325.385 294.875C329.579 285.075 332.188 271.017 332.188 271.017L323.695 260.167C323.695 260.167 322.169 260.4 322.309 262.418Z" fill="#603813"/>
<path d="M313.21 298.55C313.21 298.55 317.078 301.327 320.503 296.45C323.928 291.573 330.184 268.45 330.184 268.45L332.223 271.052C332.223 271.052 328.413 286.942 327.26 290.08C326.107 293.218 320.27 308.548 313.21 298.55Z" fill="#996236"/>
<path d="M297.017 270.842C296.749 272.078 310.554 278.052 310.554 278.052C310.554 278.052 319.967 257.635 318.08 243.32L298.974 227.418" fill="#FB9CCB"/>
<path opacity="0.1" d="M297.017 270.842C296.749 272.078 310.554 278.052 310.554 278.052C310.554 278.052 319.967 257.635 318.08 243.32L298.974 227.418" fill="black"/>
<path d="M296.702 293.708L299.824 273.21L287.685 277.212L283.491 297.08L285.262 302.598" fill="#FFDDB0"/>
<path d="M294.826 293.347C293.428 294.817 290.656 297.395 289.211 297.057C287.766 296.718 291.25 291.795 290.586 289.672C289.922 287.548 283.596 287.583 281.417 288.505C279.239 289.427 281.417 296.228 281.103 296.753L280.112 298.503C276.18 300.772 272.119 302.809 267.95 304.605C265.713 305.753 263.829 307.487 262.498 309.622C261.91 310.833 261.604 312.161 261.601 313.507C261.656 314.641 262.104 315.721 262.867 316.562C263.63 317.402 264.66 317.952 265.783 318.115C268.185 318.432 270.628 318.213 272.936 317.473C283.002 313.973 295.153 306.483 295.153 306.483L297.483 292.892C297.279 292.745 297.049 292.64 296.804 292.583C296.56 292.526 296.306 292.518 296.059 292.561C295.812 292.603 295.575 292.694 295.364 292.829C295.152 292.964 294.969 293.14 294.826 293.347V293.347Z" fill="#603813"/>
<path d="M261.997 310.87C261.997 310.87 262.532 315.607 268.451 314.872C274.369 314.137 295.7 303.205 295.7 303.205L295.141 306.472C295.141 306.472 280.765 314.323 277.736 315.583C274.707 316.843 259.34 322.828 261.997 310.87Z" fill="#996236"/>
<path d="M277.212 221.422C277.212 221.422 278.214 270.737 281.161 284.013C281.161 284.013 285.961 289.03 301.805 284.818C301.805 284.818 325.361 220.232 307.059 148.458C288.757 76.6851 277.212 221.422 277.212 221.422Z" fill="#FB9CCB"/>
<path d="M272.89 138.612C272.89 138.612 247.388 185.033 247.854 208.46C248.32 231.887 282.303 257.017 282.303 257.017L293.068 139.58" fill="#FB9CCB"/>
<path d="M273.565 141.365C271.977 140.758 270.461 139.975 269.045 139.032C267.893 137.855 267.024 136.431 266.505 134.867C266.401 134.615 266.223 134.4 265.994 134.252C265.765 134.104 265.496 134.03 265.224 134.038L263.36 131.553C263.259 131.416 263.132 131.299 262.986 131.211C262.84 131.123 262.678 131.065 262.51 131.04C262.265 130.725 262.02 130.398 261.799 130.048C260.925 128.707 258.805 129.92 259.632 131.308L259.923 131.787C259.754 131.89 259.609 132.03 259.498 132.195C259.388 132.36 259.314 132.547 259.282 132.743C259.023 132.816 258.796 132.977 258.642 133.198C258.477 133.226 258.32 133.288 258.181 133.382C258.042 133.475 257.925 133.597 257.838 133.74C257.751 133.883 257.695 134.043 257.675 134.209C257.655 134.375 257.671 134.544 257.721 134.703L257.978 135.485C257.786 135.582 257.627 135.733 257.521 135.92C257.416 136.107 257.368 136.321 257.384 136.535C257.173 136.621 257 136.777 256.894 136.978C256.787 137.178 256.754 137.41 256.801 137.632C257.383 142.359 258.602 146.987 260.424 151.387C260.983 152.728 263.057 152.308 262.929 151.083C263.488 151.978 264.082 152.853 264.711 153.708C264.826 153.871 264.978 154.005 265.154 154.098C265.33 154.191 265.526 154.242 265.725 154.245C265.965 154.319 266.222 154.319 266.463 154.246C266.703 154.172 266.916 154.028 267.074 153.833C267.232 153.637 267.328 153.398 267.349 153.147C267.37 152.896 267.316 152.645 267.193 152.425L266.785 151.667C267.403 152.635 268.055 153.58 268.731 154.502C268.912 154.758 269.183 154.936 269.49 155.003C269.796 155.069 270.116 155.019 270.388 154.861C270.659 154.703 270.862 154.45 270.956 154.15C271.05 153.851 271.029 153.527 270.898 153.242L269.872 151.107C270.268 151.375 271.294 152.495 271.69 152.273C274.101 150.663 270.944 146.44 269.989 144.678L269.068 142.987C270.3 143.415 271.587 143.662 272.89 143.722C273.173 143.735 273.452 143.652 273.682 143.487C273.912 143.322 274.079 143.083 274.158 142.811C274.236 142.538 274.22 142.247 274.112 141.985C274.005 141.723 273.812 141.504 273.565 141.365V141.365Z" fill="#FFDDB0"/>
<path d="M263.523 151.41C262.8 149.419 262.132 147.408 261.519 145.378C261.493 145.282 261.429 145.201 261.343 145.152C261.257 145.102 261.154 145.09 261.059 145.116C260.963 145.142 260.881 145.206 260.832 145.292C260.783 145.378 260.77 145.481 260.797 145.577C261.41 147.607 262.078 149.617 262.8 151.608C262.963 152.063 263.686 151.865 263.523 151.41Z" fill="#603813"/>
<path d="M267.367 152.192L263.721 144.667C263.511 144.235 262.859 144.667 263.068 145.052L266.715 152.588C266.924 153.008 267.577 152.635 267.367 152.192Z" fill="#603813"/>
<path d="M270.991 151.363C269.337 148.719 267.807 145.997 266.401 143.197C266.18 142.765 265.539 143.197 265.749 143.582C267.154 146.374 268.684 149.096 270.339 151.748C270.595 152.145 271.247 151.772 270.991 151.363Z" fill="#603813"/>
<g opacity="0.1">
<path opacity="0.1" d="M424.573 123.76C423.767 119.541 421.543 115.725 418.27 112.949C414.997 110.172 410.873 108.602 406.585 108.5C402.757 108.436 398.99 109.468 395.727 111.475L395.192 111.627C395.217 111.429 395.217 111.229 395.192 111.032C394.423 102.095 386.897 94.4534 377.717 94.6984C373.338 94.8291 369.152 96.5261 365.915 99.4817C362.42 102.643 360.673 107.322 360.009 111.883C360.009 112.117 359.939 112.35 359.915 112.595C356.433 112.303 352.933 112.901 349.745 114.333C346.454 115.916 343.759 118.518 342.059 121.754C340.36 124.99 339.746 128.688 340.308 132.3C340.74 135.822 342.042 139.18 344.096 142.071C346.151 144.962 348.893 147.294 352.075 148.855C354.664 150.089 357.462 150.821 360.323 151.013C362.513 160.347 372.334 167.697 381.573 170.147C393.223 173.215 410.139 170.462 414.67 157.605C415.36 155.472 415.753 153.254 415.835 151.013C415.993 149.049 415.792 147.072 415.241 145.18C414.972 144.365 414.612 143.582 414.169 142.847C417.766 141.263 420.737 138.532 422.619 135.079C424.501 131.626 425.188 127.645 424.573 123.76V123.76Z" fill="black"/>
<path opacity="0.1" d="M344.84 153.848C344.235 153.509 343.584 153.261 342.906 153.113C341.711 152.83 340.466 152.83 339.271 153.113C338.57 153.272 337.895 153.531 337.267 153.883C336.631 154.232 336.044 154.664 335.52 155.167C334.411 156.293 333.784 157.808 333.772 159.39C333.794 160.552 334.132 161.685 334.751 162.668C334.913 163.171 335.14 163.649 335.427 164.092C336.416 165.667 337.958 166.815 339.749 167.312C340.339 167.463 340.945 167.545 341.555 167.557C341.894 167.537 342.233 167.498 342.568 167.44C343.502 167.351 344.403 167.047 345.201 166.553C346.778 165.577 347.921 164.032 348.393 162.237C348.802 160.642 348.676 158.956 348.034 157.44C347.392 155.924 346.27 154.662 344.84 153.848V153.848Z" fill="black"/>
</g>
<path opacity="0.1" d="M107.18 82.1218C92.0346 76.5918 73.2665 90.0084 65.2396 112.082C57.2128 134.155 62.9096 156.532 78.0546 162.062C79.2605 162.497 80.5049 162.818 81.771 163.018C84.9631 174.242 95.9607 171.185 95.9607 171.185C91.6036 168.56 90.4036 165.352 90.4386 162.692C102.287 159.973 114.076 148.412 120.018 132.113C128.045 110.028 122.325 87.6518 107.18 82.1218Z" fill="black"/>
<path d="M182.322 130.084C213.16 129.64 173.935 188.557 168.285 197.727C162.634 206.897 159.349 222.833 160.467 234.383L179.958 241.5C179.958 241.5 176.835 215.705 184.652 205.917C192.47 196.128 213.661 157.5 209.7 141.493C205.739 125.487 196.652 132.125 196.652 132.125" fill="url(#paint2_linear)"/>
<path d="M179.958 241.5L198.155 233.893C198.155 233.893 198.318 226.438 197.584 214.352C196.85 202.265 220.884 167.312 224.728 150.185C228.573 133.058 203.129 102.095 173.585 108.605C139.8 116.06 137.016 149.018 137.016 149.018L152.918 156.893C152.918 156.893 167.166 126.432 187.46 130.97C207.754 135.508 205.844 160.277 205.844 160.277L184.385 206.033C184.385 206.033 175.519 218.062 179.958 241.5Z" fill="url(#paint3_linear)"/>
<path d="M179.806 278.052C189.212 278.052 196.838 270.415 196.838 260.995C196.838 251.575 189.212 243.938 179.806 243.938C170.399 243.938 162.773 251.575 162.773 260.995C162.773 270.415 170.399 278.052 179.806 278.052Z" fill="url(#paint4_linear)"/>
<path d="M173.153 259.128C173.631 252.945 177.662 247.625 182.846 244.382C180.22 243.783 177.489 243.816 174.878 244.478C172.267 245.141 169.85 246.414 167.826 248.194C165.802 249.974 164.228 252.209 163.233 254.715C162.239 257.222 161.853 259.93 162.106 262.615C162.359 265.301 163.244 267.888 164.69 270.164C166.135 272.44 168.099 274.341 170.42 275.71C172.741 277.078 175.353 277.876 178.041 278.038C180.73 278.2 183.419 277.721 185.887 276.64C178.757 273.992 172.547 267.108 173.153 259.128Z" fill="url(#paint5_linear)"/>
<path d="M99.2228 158.597C99.2228 158.597 92.8037 167.3 102.718 173.25C102.718 173.25 87.9223 177.403 87.666 158.597" fill="url(#paint6_linear)"/>
<path d="M417.233 123.76C416.428 119.543 414.205 115.729 410.935 112.953C407.664 110.176 403.543 108.605 399.257 108.5C395.429 108.436 391.662 109.468 388.399 111.475L387.863 111.627C387.889 111.429 387.889 111.229 387.863 111.032C387.095 102.095 379.569 94.4534 370.388 94.6984C366.01 94.8291 361.823 96.5261 358.587 99.4817C355.092 102.643 353.344 107.322 352.68 111.883C352.68 112.117 352.61 112.35 352.587 112.595C349.101 112.301 345.597 112.899 342.405 114.333C339.114 115.916 336.419 118.518 334.72 121.754C333.02 124.99 332.406 128.688 332.969 132.3C333.4 135.822 334.702 139.18 336.756 142.071C338.811 144.962 341.553 147.294 344.735 148.855C347.324 150.089 350.123 150.821 352.983 151.013C355.173 160.347 364.994 167.697 374.233 170.147C385.883 173.215 402.799 170.462 407.331 157.605C408.021 155.472 408.413 153.254 408.496 151.013C408.653 149.049 408.452 147.072 407.901 145.18C407.632 144.365 407.272 143.582 406.83 142.847C410.426 141.263 413.397 138.532 415.279 135.079C417.161 131.626 417.848 127.645 417.233 123.76V123.76Z" fill="url(#paint7_linear)"/>
<path d="M342.242 153.23C341.638 152.89 340.986 152.643 340.308 152.495C339.113 152.212 337.869 152.212 336.674 152.495C335.972 152.654 335.297 152.913 334.67 153.265C334.028 153.62 333.436 154.06 332.911 154.572C331.801 155.698 331.175 157.213 331.163 158.795C331.185 159.957 331.523 161.09 332.142 162.073C332.303 162.576 332.53 163.054 332.817 163.497C333.807 165.072 335.348 166.22 337.14 166.717C337.73 166.868 338.336 166.95 338.945 166.962C339.285 166.942 339.623 166.903 339.959 166.845C340.893 166.756 341.794 166.452 342.592 165.958C344.169 164.982 345.311 163.437 345.784 161.642C346.2 160.045 346.078 158.355 345.438 156.834C344.797 155.314 343.674 154.047 342.242 153.23V153.23Z" fill="#FB9CCB"/>
<path d="M229.051 25.1068C229.051 25.1068 223.68 18.8651 222.201 18.6668C220.721 18.4685 165.5 35.0001 162.389 37.6835C159.279 40.3668 159.314 49.2218 160.467 54.9268C161.621 60.6318 168.261 90.7435 169.624 91.9335C170.987 93.1235 175.1 94.1151 178.944 93.4151" fill="#817FBC"/>
<path d="M229.842 84.4081L178.932 93.4498C176.775 93.8484 174.549 93.373 172.742 92.1282C170.936 90.8833 169.696 88.971 169.297 86.8115L162.505 48.0781C162.165 46.0525 162.6 43.973 163.723 42.254C164.846 40.5351 166.574 39.3029 168.563 38.8031L221.967 24.9431C223.12 24.6331 224.326 24.5766 225.503 24.7775C226.679 24.9784 227.798 25.4319 228.784 26.1069C229.769 26.7819 230.596 27.6624 231.209 28.688C231.822 29.7135 232.207 30.8598 232.336 32.0481L236.623 75.6115C236.81 77.6639 236.214 79.7112 234.957 81.3427C233.699 82.9742 231.872 84.0692 229.842 84.4081V84.4081Z" fill="url(#paint8_linear)"/>
<path d="M236.623 75.5884C236.623 75.5884 237.986 95.7017 236.623 96.3434C235.26 96.985 223.412 84.6184 223.412 84.6184" fill="url(#paint9_linear)"/>
<path d="M284.26 87.7217C284.26 87.7217 270.513 87.0334 259.597 90.4867C248.681 93.94 235.831 103.192 237.217 112.653C238.604 122.115 252.421 142.182 252.421 142.182L269.22 133C269.22 133 261.065 120.062 262.766 117.833C264.467 115.605 268.253 115.5 268.253 115.5L271.445 146.533C271.445 146.533 290.563 150.92 305.428 146.533L303.448 135.298C306.226 135.385 308.94 134.456 311.084 132.685C313.228 130.913 314.655 128.421 315.098 125.673C317.125 115.5 310.24 89.04 284.26 87.7217Z" fill="#3D467F"/>
<path d="M275.569 68.3318C275.138 68.8218 275.429 70.5718 275.441 71.1434C275.441 73.1151 275.627 75.0751 275.837 76.9768C276.326 81.5734 277.212 86.5784 281.825 89.0401C287.534 92.0851 293.056 88.1301 295.351 83.2068C296.26 81.2234 296.644 70.8868 294.43 68.9734C292.217 67.0601 283.503 59.2901 275.569 68.3318Z" fill="#FFDDB0"/>
<path d="M275.197 70.9684C274.917 71.3418 271.026 70.7468 269.139 67.3634C267.251 63.9801 271.27 56.6068 276.129 56.7001C279.211 56.8075 282.13 58.1181 284.26 60.3518C284.26 60.3518 288.617 58.2168 291.681 59.9201C293.506 60.9354 294.971 62.4925 295.875 64.3768C295.875 64.3768 299.755 64.7034 300.745 68.1334C301.735 71.5634 297.518 82.9618 296.912 83.3934C296.306 83.8251 295.118 83.4751 294.699 82.0401C294.279 80.6051 294.629 75.6584 293.324 75.4834C292.019 75.3084 292.555 77.2101 289.771 76.9184C286.986 76.6268 286.579 72.7651 284.517 71.5984C282.454 70.4318 278.121 66.9551 275.197 70.9684Z" fill="#3D467F"/>
<path d="M279.215 75.7051C279.12 75.7932 279.062 75.9141 279.052 76.0434C278.925 76.2229 278.875 76.4454 278.912 76.662C278.949 76.8786 279.071 77.0716 279.25 77.1984C279.429 77.3253 279.652 77.3757 279.868 77.3385C280.084 77.3013 280.277 77.1795 280.404 77.0001C281.114 76.1718 280.066 74.9118 279.215 75.7051Z" fill="#42210B"/>
<path d="M280.952 71.3066C280.472 70.961 279.879 70.8108 279.292 70.8867C278.706 70.9625 278.171 71.2586 277.794 71.7149C277.34 72.2983 278.156 73.1266 278.622 72.5433C278.714 72.404 278.836 72.2864 278.978 72.1983C279.12 72.1102 279.279 72.0537 279.445 72.0326C279.61 72.0116 279.779 72.0265 279.938 72.0764C280.098 72.1263 280.245 72.2099 280.369 72.3216C280.963 72.7766 281.546 71.7616 280.952 71.3066Z" fill="#42210B"/>
<path d="M283.095 79.9632C282.583 79.7882 282.699 79.5899 282.769 79.1232C282.839 78.6566 282.921 78.4116 283.002 78.0616L283.468 75.9499C283.631 75.2149 282.501 74.8999 282.303 75.6349C281.935 76.9004 281.658 78.191 281.476 79.4966C281.418 80.3949 281.942 80.8266 282.746 81.0949C283.55 81.3632 283.771 80.1966 283.095 79.9632Z" fill="#42210B"/>
<path d="M287.394 75.8333C286.753 75.8333 286.485 76.3699 286.497 76.9066C286.459 77.1037 286.492 77.3078 286.59 77.4828C286.688 77.6579 286.845 77.7926 287.032 77.8633C287.301 77.9112 287.578 77.8503 287.802 77.6938C288.026 77.5374 288.179 77.2983 288.226 77.0291C288.274 76.7599 288.214 76.4827 288.057 76.2584C287.901 76.0341 287.662 75.8812 287.394 75.8333V75.8333Z" fill="#42210B"/>
<path d="M289.631 71.5751C289.096 71.2674 288.487 71.1134 287.87 71.1299C287.254 71.1463 286.654 71.3327 286.136 71.6684C285.507 72.0768 286.136 73.0918 286.718 72.6718C287.058 72.438 287.458 72.3053 287.87 72.2888C288.282 72.2723 288.691 72.3727 289.048 72.5784C289.18 72.6379 289.328 72.6465 289.466 72.6024C289.603 72.5584 289.719 72.4649 289.792 72.3401C289.864 72.2152 289.888 72.0679 289.858 71.9266C289.828 71.7853 289.747 71.66 289.631 71.5751Z" fill="#42210B"/>
<path d="M285.728 80.815C284.951 81.1805 284.175 81.5072 283.398 81.795C282.699 82.0517 283.002 83.1833 283.712 82.9617C284.606 82.635 285.479 82.2694 286.334 81.865C286.998 81.5033 286.404 80.5 285.728 80.815Z" fill="#42210B"/>
<path d="M291.506 88.9933C290.76 87.5 288.92 88.0716 287.755 88.6666C286.3 89.5028 284.899 90.4302 283.561 91.4433C281.733 90.1373 279.839 88.9263 277.887 87.815C276.769 87.185 275.631 86.5861 274.474 86.0183C273.542 85.5633 272.447 84.9683 271.608 85.925C270.14 87.605 272.68 89.1216 274.264 90.0433C273.644 90.2295 273.118 90.6471 272.796 91.21C272.604 91.5541 272.508 91.9438 272.518 92.338C272.528 92.7322 272.644 93.1163 272.854 93.45L272.971 93.6133C272.603 93.7447 272.264 93.9486 271.976 94.2132C271.688 94.4777 271.456 94.7973 271.293 95.1533C271.116 95.5328 271.054 95.956 271.114 96.3706C271.174 96.7852 271.354 97.1731 271.631 97.4866C271.729 97.595 271.839 97.6928 271.957 97.7783C271.842 97.8509 271.733 97.9328 271.631 98.0233C271.34 98.2844 271.119 98.6147 270.989 98.9837C270.858 99.3527 270.823 99.7486 270.886 100.135C270.999 100.717 271.291 101.25 271.721 101.658C272.152 102.065 272.699 102.329 273.285 102.41C273.285 102.993 274.45 103.81 275.126 103.997C275.461 104.094 275.804 104.161 276.151 104.195C276.283 104.841 276.408 105.486 276.524 106.132C277.91 105.556 279.326 105.053 280.765 104.627C280.883 104.597 281.007 104.597 281.126 104.627L282.454 104.02C282.57 103.957 282.7 103.923 282.833 103.923C282.965 103.923 283.095 103.957 283.211 104.02C284.167 103.343 285.11 102.655 286.019 101.92C285.941 101.321 285.875 100.718 285.821 100.112C285.812 100.009 285.792 99.9072 285.763 99.8083C285.763 98.2061 285.763 96.6 285.763 94.99L285.984 94.85C287.39 94.3203 288.682 93.5285 289.793 92.5166C290.737 91.6883 292.17 90.335 291.506 88.9933Z" fill="#FFDDB0"/>
<path d="M278.26 92.2601C276.956 91.4823 275.639 90.7046 274.311 89.9268C274.225 89.8757 274.121 89.8612 274.024 89.8863C273.927 89.9115 273.844 89.9743 273.793 90.0609C273.742 90.1476 273.727 90.2509 273.752 90.3483C273.777 90.4457 273.84 90.5291 273.927 90.5801C275.247 91.3579 276.563 92.1357 277.876 92.9134C277.963 92.9645 278.066 92.979 278.163 92.9539C278.26 92.9287 278.343 92.8659 278.394 92.7793C278.445 92.6926 278.46 92.5893 278.435 92.4919C278.41 92.3945 278.347 92.3112 278.26 92.2601V92.2601Z" fill="#603813"/>
<path d="M274.94 94.2433C274.41 94.0502 273.915 93.7746 273.472 93.4267C273.099 93.135 272.563 93.66 272.936 93.9633C273.477 94.3912 274.082 94.7299 274.73 94.9667C275.161 95.1417 275.359 94.4067 274.94 94.2433Z" fill="#603813"/>
<path d="M274.241 98.3033C273.506 98.0639 272.796 97.7553 272.12 97.3816C271.701 97.1483 271.317 97.8016 271.736 98.0349C272.479 98.4391 273.259 98.7712 274.066 99.0266C274.497 99.1666 274.695 98.4433 274.241 98.3033Z" fill="#603813"/>
<path d="M308.201 118.872C299.518 115.884 292.136 109.977 287.313 102.153C287.257 102.056 287.183 101.97 287.094 101.902C287.005 101.833 286.903 101.783 286.794 101.755C286.686 101.727 286.572 101.721 286.461 101.737C286.35 101.753 286.244 101.792 286.148 101.85C286.116 101.756 286.065 101.669 285.998 101.596C285.93 101.523 285.848 101.466 285.756 101.427C285.665 101.388 285.566 101.37 285.467 101.372C285.368 101.375 285.27 101.399 285.181 101.442C279.977 103.553 274.918 106.004 270.036 108.78C269.93 108.838 269.839 108.917 269.767 109.014C269.696 109.11 269.646 109.221 269.622 109.339C269.597 109.457 269.599 109.578 269.626 109.695C269.653 109.812 269.706 109.922 269.779 110.017C270.935 117.299 274.664 123.924 280.288 128.684C285.912 133.445 293.056 136.024 300.419 135.952C300.651 135.952 300.873 135.86 301.037 135.695C301.201 135.531 301.293 135.309 301.293 135.077C301.293 134.845 301.201 134.622 301.037 134.458C300.873 134.294 300.651 134.202 300.419 134.202C293.509 134.273 286.801 131.867 281.507 127.419C276.213 122.971 272.681 116.774 271.55 109.947C276.113 107.381 280.833 105.105 285.682 103.133L285.833 103.052C290.9 111.249 298.649 117.434 307.758 120.552C308.807 120.925 309.261 119.233 308.201 118.872Z" fill="#603813"/>
<path d="M279.6 194.11C279.6 187.367 279.677 180.623 279.833 173.88C279.803 173.568 279.658 173.279 279.426 173.068C279.195 172.858 278.893 172.741 278.58 172.741C278.268 172.741 277.966 172.858 277.734 173.068C277.503 173.279 277.358 173.568 277.328 173.88C276.916 197.773 277.009 221.671 277.607 245.572C277.778 252.315 277.988 259.058 278.237 265.802C278.295 267.412 280.8 267.423 280.741 265.802C279.833 241.916 279.452 218.019 279.6 194.11Z" fill="#603813"/>
<path d="M291.833 88.6668C290.074 85.8434 284.843 90.0084 283.235 91.2218C282.734 91.6068 283.433 92.3068 283.934 91.9218C284.738 91.2918 285.623 90.7551 286.462 90.2184C287.546 89.4718 288.792 88.1184 290.283 88.4918C292.613 89.0634 290.854 91.4901 289.771 92.3068C289.327 92.6322 288.856 92.9172 288.361 93.1584C287.536 93.709 286.648 94.1594 285.717 94.5001C285.134 94.7334 285.39 95.6668 285.973 95.4451C287.988 94.6984 293.662 91.5484 291.833 88.6668Z" fill="#42210B"/>
<path d="M283.829 91.3151C281.266 89.4951 276.676 86.6484 273.973 85.0384C273.565 84.8051 272.936 85.2951 273.344 85.5401C276.047 87.1384 280.905 90.2068 283.468 91.9684C283.841 92.2368 284.26 91.5834 283.829 91.3151Z" fill="#42210B"/>
<path d="M126.745 134.173C134.79 112.098 129.048 89.7211 113.919 84.1919C98.7905 78.6627 80.0048 92.0754 71.96 114.15C63.9152 136.225 69.6577 158.602 84.7862 164.131C99.9148 169.66 118.701 156.248 126.745 134.173Z" fill="url(#paint10_linear)"/>
<defs>
<linearGradient id="paint0_linear" x1="330.022" y1="330.784" x2="313.973" y2="266.418" gradientUnits="userSpaceOnUse">
<stop stop-color="#D58ABB"/>
<stop offset="1" stop-color="#817FBC"/>
</linearGradient>
<linearGradient id="paint1_linear" x1="200.151" y1="311.201" x2="162.842" y2="225.203" gradientUnits="userSpaceOnUse">
<stop stop-color="#D58ABB"/>
<stop offset="1" stop-color="#817FBC"/>
</linearGradient>
<linearGradient id="paint2_linear" x1="214.283" y1="234.298" x2="128.774" y2="182.926" gradientUnits="userSpaceOnUse">
<stop stop-color="#D58ABB"/>
<stop offset="1" stop-color="#817FBC"/>
</linearGradient>
<linearGradient id="paint3_linear" x1="225.114" y1="178.632" x2="170.835" y2="115.294" gradientUnits="userSpaceOnUse">
<stop offset="0.421875" stop-color="#FDD4C1"/>
<stop offset="1" stop-color="#FCBADB"/>
</linearGradient>
<linearGradient id="paint4_linear" x1="194.555" y1="285.833" x2="192.147" y2="229.868" gradientUnits="userSpaceOnUse">
<stop offset="0.421875" stop-color="#FDD4C1"/>
<stop offset="1" stop-color="#FB9CCB" stop-opacity="0.7"/>
</linearGradient>
<linearGradient id="paint5_linear" x1="187.843" y1="275.864" x2="158.251" y2="248.125" gradientUnits="userSpaceOnUse">
<stop stop-color="#D58ABB"/>
<stop offset="1" stop-color="#817FBC"/>
</linearGradient>
<linearGradient id="paint6_linear" x1="102.718" y1="166.571" x2="97.432" y2="157.199" gradientUnits="userSpaceOnUse">
<stop offset="0.421875" stop-color="#FDD4C1"/>
<stop offset="1" stop-color="#FDBBDC"/>
</linearGradient>
<linearGradient id="paint7_linear" x1="417.453" y1="135.295" x2="391.982" y2="85.3968" gradientUnits="userSpaceOnUse">
<stop offset="0.421875" stop-color="#FDD4C1"/>
<stop offset="1" stop-color="#FDBBDC"/>
</linearGradient>
<linearGradient id="paint8_linear" x1="193.404" y1="-13.2554" x2="265.004" y2="85.9827" gradientUnits="userSpaceOnUse">
<stop stop-color="#D5C1FC"/>
<stop offset="1" stop-color="#FB9CCB"/>
</linearGradient>
<linearGradient id="paint9_linear" x1="246.398" y1="102.083" x2="223.369" y2="100.132" gradientUnits="userSpaceOnUse">
<stop stop-color="#D5C1FC"/>
<stop offset="1" stop-color="#FB9CCB"/>
</linearGradient>
<linearGradient id="paint10_linear" x1="115.566" y1="84.7938" x2="70.9176" y2="85.6677" gradientUnits="userSpaceOnUse">
<stop offset="0.421875" stop-color="#FDD4C1"/>
<stop offset="1" stop-color="#FDBBDC"/>
</linearGradient>
</defs>
</svg>
