<svg width="330" height="416" viewBox="0 0 330 416" fill="none" xmlns="http://www.w3.org/2000/svg">
<path d="M189.322 78.2588C189.322 78.2588 140.992 90.0508 123.338 183.129L62.8858 137.926L50.5482 152.548L120.965 226.366C124.308 229.873 128.903 231.909 133.742 232.027C138.581 232.145 143.269 230.335 146.778 226.995L188.891 186.941L189.322 78.2588Z" fill="#A27CEF"/>
<path opacity="0.2" d="M189.322 78.2588C189.322 78.2588 140.992 90.0508 123.338 183.129L62.8858 137.926L50.5482 152.548L120.965 226.366C124.308 229.873 128.903 231.909 133.742 232.027C138.581 232.145 143.269 230.335 146.778 226.995L188.891 186.941L189.322 78.2588Z" fill="white"/>
<path opacity="0.45" d="M194.294 416C115.057 416 50.8235 408.891 50.8235 400.122C50.8235 391.353 115.057 384.244 194.294 384.244C273.531 384.244 337.765 391.353 337.765 400.122C337.765 408.891 273.531 416 194.294 416Z" fill="#AFAFAF"/>
<path d="M193.912 20.0854C193.912 20.0854 192.598 35.1988 195.148 45.2416C195.395 46.2138 195.831 47.1275 196.432 47.93C197.032 48.7326 197.785 49.4081 198.648 49.9178C199.51 50.4274 200.465 50.7611 201.456 50.8996C202.448 51.0382 203.457 50.9788 204.425 50.7249C209.447 49.3688 215.861 46.0867 217.548 38.0682L222.059 24.8219C222.698 22.0856 222.475 19.2183 221.422 16.614C220.368 14.0097 218.535 11.7964 216.175 10.2785C207.544 4.14665 194.245 10.8484 193.912 20.0854Z" fill="#F3B496"/>
<path d="M219.803 28.3198L237.064 66.4078L214.606 83.0935L210.133 47.2656L219.803 28.3198Z" fill="#F3B496"/>
<path d="M220.609 65.5825C224.394 64.6588 228.18 63.6172 231.907 62.4183C248.56 57.1316 300.146 43.9639 314.857 80.067C332.51 123.304 279.551 254.981 279.551 254.981L189.323 247.12L167.747 133.131C167.747 133.131 149.152 82.8184 220.609 65.5825Z" fill="#A27CEF"/>
<path d="M193.638 29.6367L189.421 35.5327C189.182 35.8628 189.031 36.2479 188.981 36.6523C188.931 37.0566 188.984 37.4671 189.134 37.8455C189.285 38.224 189.529 38.5581 189.843 38.8169C190.157 39.0757 190.531 39.2507 190.931 39.3258L196.815 40.4263L193.638 29.6367Z" fill="#F3B496"/>
<path opacity="0.31" d="M210.251 48.2878C213.162 46.5921 215.556 44.1321 217.175 41.1733C217.175 41.1733 222.569 50.6265 211.584 58.5468L210.251 48.2878Z" fill="#F39AC4"/>
<path opacity="0.08" d="M182.614 83.0936C182.614 83.0936 225.021 91.1318 234.828 61.6519L212.663 67.8623C201.754 70.935 191.548 76.1085 182.614 83.0936Z" fill="black"/>
<path d="M152.271 388.171C152.271 388.171 148.348 395.325 141.365 394.775C134.382 394.225 131.557 400.671 137.442 403.403C143.326 406.135 160.489 400.848 160.489 400.848L161.666 390.864L152.271 388.171Z" fill="#A27CEF"/>
<path d="M236.79 379.347C236.79 379.347 238.202 387.405 232.455 391.355C226.708 395.305 228.532 402.125 234.789 400.572C241.046 399.02 251.108 383.965 251.108 383.965L245.754 375.475L236.79 379.347Z" fill="#A27CEF"/>
<path opacity="0.08" d="M269.9 82.8774C269.9 82.8774 252.462 107.13 258.994 160.193C265.526 213.257 179.221 190.99 179.221 190.99L189.322 247.12L279.55 254.981L290.593 225.147L312.993 147.301L269.9 82.8774Z" fill="black"/>
<path d="M210.251 162.296L199.384 99.7598L164.431 121.889L125.967 109.174L136.617 176.211L175.631 188.769L210.251 162.296Z" fill="#F39AC4"/>
<path d="M308.952 69.7297C329.371 91.7806 353.909 138.752 334.981 218.623C334.429 220.91 333.424 223.064 332.026 224.955C330.628 226.846 328.865 228.436 326.841 229.631C324.818 230.826 322.576 231.602 320.247 231.912C317.919 232.222 315.552 232.061 313.287 231.437L191.048 197.397L195.599 179.041L291.044 190.833C291.044 190.833 264.584 135.804 269.919 82.8777C270.378 78.5578 272.064 74.4604 274.777 71.072C277.491 67.6837 281.118 65.1468 285.228 63.7624C289.338 62.3781 293.758 62.2045 297.963 63.2622C302.168 64.3199 305.982 66.5646 308.952 69.7297Z" fill="#A27CEF"/>
<path opacity="0.08" d="M207.132 144.196C207.132 144.196 192.598 166.561 176.592 167.78C160.587 168.998 138.952 161.884 136.617 176.113L175.631 188.671L210.251 162.198L207.132 144.196Z" fill="black"/>
<path opacity="0.2" d="M308.952 69.7297C329.371 91.7806 353.909 138.752 334.981 218.623C334.429 220.91 333.424 223.064 332.026 224.955C330.628 226.846 328.865 228.436 326.841 229.631C324.818 230.826 322.576 231.602 320.247 231.912C317.919 232.222 315.552 232.061 313.287 231.437L191.048 197.397L195.599 179.041L291.044 190.833C291.044 190.833 264.584 135.804 269.919 82.8777C270.378 78.5578 272.064 74.4604 274.777 71.072C277.491 67.6837 281.118 65.1468 285.228 63.7624C289.338 62.3781 293.758 62.2045 297.963 63.2622C302.168 64.3199 305.982 66.5646 308.952 69.7297Z" fill="white"/>
<path d="M271.018 188.357V219.684L190.99 197.397C190.99 197.397 166.157 194.921 160.92 183.129C155.683 171.337 179.221 163.849 195.599 179.041L271.018 188.357Z" fill="#F3B496"/>
<path d="M270.998 188.356V219.684L254.502 214.829V186.332L270.998 188.356Z" fill="white"/>
<path d="M164.432 121.889L189.597 93.4507L192.167 104.319L164.432 121.889Z" fill="#F39AC4"/>
<path d="M279.55 254.981L245.067 295.899C238.697 303.454 234.681 312.716 233.516 322.537C232.351 332.357 234.09 342.305 238.516 351.145L249.52 373.097L232.651 381.745L217.175 356.942C210.701 346.542 206.437 334.915 204.652 322.788C202.867 310.662 203.597 298.296 206.799 286.466C207.837 282.646 207.979 278.638 207.214 274.754C206.448 270.871 204.795 267.218 202.386 264.081L189.322 247.081L279.55 254.981Z" fill="#24285B"/>
<path d="M164.432 121.889L132.793 99.7598V111.434L164.432 121.889Z" fill="#F39AC4"/>
<path d="M55.668 159.84L4.15976 68.1968L0.276062 70.5355L46.5864 164.675L55.668 159.84Z" fill="#24285B"/>
<path d="M189.323 247.12L146.563 388.172L165.589 392.102C165.589 392.102 194.756 307.593 223.609 266.95L189.323 247.12Z" fill="#24285B"/>
<path d="M110.099 173.224L92.5827 196.611L50.4503 152.548C50.4503 152.548 33.0324 151.35 28.776 141.857C24.5196 132.364 37.9361 116.308 62.7879 137.926L110.099 173.224Z" fill="#F3B496"/>
<path d="M221.099 36.3975C221.099 36.3975 216.058 50.8426 208.781 52.8079C201.504 54.7733 191.127 55.7166 192.206 43.2368C192.932 35.4737 201.759 38.2842 212.056 40.3871C212.056 40.3871 216.921 30.698 215.979 24.5662C215.979 24.5662 209.408 23.328 210.095 17.4321C210.095 17.4321 195.168 25.7257 192.01 17.4321C188.852 9.13838 189.48 4.42159 196.502 1.4736C203.524 -1.47439 223.139 0.490941 228.042 9.33491C232.946 18.1789 221.099 36.3975 221.099 36.3975Z" fill="#24285B"/>
<path d="M219.706 34.2554C219.368 33.0667 219.373 31.8064 219.72 30.6204C220.067 29.4344 220.742 28.3711 221.668 27.5536C222.321 26.9769 223.134 26.6119 223.999 26.5066C224.864 26.4014 225.74 26.5608 226.512 26.964C231.553 29.3028 227.944 39.3259 220.628 37.8126L219.706 34.2554Z" fill="#F3B496"/>
</svg>
