<svg width="681" height="511" viewBox="0 0 681 511" fill="none" xmlns="http://www.w3.org/2000/svg">
<path d="M535.709 59.0544H196.366V330.975H535.709V59.0544Z" fill="#E6E6E6"/>
<path opacity="0.1" d="M228.867 93.5129C228.867 93.5129 254.881 102.83 241.431 123.849C227.982 144.868 228.867 177.147 228.867 177.147C228.867 177.147 305.156 162.225 303.607 238.552L333.537 232.88L357.797 206.87L382.449 165.99L389.719 169.993L349.285 256.863L337.674 250.049C337.674 250.049 325.875 306.259 300.764 330.958H227.318L210.531 247.12L196.366 152.329L228.867 93.5129Z" fill="black"/>
<path d="M221.666 165.99C221.666 165.99 263.616 176.21 278.938 256.88L331.409 217.703L342.118 230.376L280.998 294.353C278.097 297.393 274.108 299.158 269.908 299.26C265.708 299.362 261.639 297.794 258.593 294.898L222.041 260.184L221.666 165.99Z" fill="#FB9CCB"/>
<path opacity="0.2" d="M221.666 165.99C221.666 165.99 263.616 176.21 278.938 256.88L331.409 217.703L342.118 230.376L280.998 294.353C278.097 297.393 274.108 299.158 269.908 299.26C265.708 299.362 261.639 297.794 258.593 294.898L222.041 260.184L221.666 165.99Z" fill="white"/>
<path opacity="0.45" d="M339.649 475.911C476.137 475.911 586.784 463.626 586.784 448.471C586.784 433.316 476.137 421.03 339.649 421.03C203.16 421.03 92.5137 433.316 92.5137 448.471C92.5137 463.626 203.16 475.911 339.649 475.911Z" fill="#E6E6E6"/>
<path d="M217.682 115.571C217.682 115.571 218.823 128.67 216.61 137.374C216.395 138.217 216.017 139.008 215.495 139.704C214.974 140.399 214.32 140.985 213.572 141.427C212.823 141.868 211.995 142.158 211.134 142.278C210.273 142.398 209.397 142.346 208.557 142.126C204.198 140.951 198.631 138.106 197.167 131.157L193.251 119.676C192.697 117.305 192.89 114.82 193.805 112.563C194.719 110.305 196.31 108.387 198.359 107.072C205.85 101.757 217.393 107.566 217.682 115.571Z" fill="#F3B496"/>
<path d="M195.209 122.708L180.227 155.719L199.72 170.18L203.602 139.128L195.209 122.708Z" fill="#F3B496"/>
<path d="M194.51 155.003C191.224 154.203 187.939 153.3 184.704 152.261C170.25 147.679 125.474 136.267 112.705 167.557C97.3827 205.03 143.35 319.154 143.35 319.154L221.665 312.34L240.393 213.547C240.393 213.547 256.532 169.942 194.51 155.003Z" fill="#FB9CCB"/>
<path d="M217.92 123.849L221.581 128.959C221.787 129.245 221.919 129.579 221.962 129.93C222.006 130.28 221.96 130.636 221.829 130.964C221.698 131.292 221.487 131.581 221.214 131.806C220.941 132.03 220.617 132.182 220.27 132.247L215.162 133.201L217.92 123.849Z" fill="#F3B496"/>
<path opacity="0.31" d="M203.5 140.014C200.973 138.544 198.895 136.412 197.49 133.848C197.49 133.848 192.808 142.041 202.342 148.905L203.5 140.014Z" fill="#CE8172"/>
<path opacity="0.08" d="M227.489 170.18C227.489 170.18 190.68 177.147 182.168 151.597L201.406 156.979C210.875 159.642 219.734 164.126 227.489 170.18Z" fill="black"/>
<path opacity="0.58" d="M528.013 418.509C528.013 418.509 506.613 412.769 501.88 392.959C501.88 392.959 534.976 386.146 536.066 420.332L528.013 418.509Z" fill="#FB9CCB"/>
<path opacity="0.73" d="M530.635 416.38C530.635 416.38 515.602 392.823 528.643 370.679C528.643 370.679 553.891 386.572 542.825 416.38H530.635Z" fill="#FB9CCB"/>
<path d="M534.483 416.38C534.483 416.38 542.264 391.409 566.099 386.572C566.099 386.572 570.644 402.753 550.776 416.38H534.483Z" fill="#FB9CCB"/>
<path d="M518.973 415.886L523.433 445.524H550.724L554.623 415.886H518.973Z" fill="#24285B"/>
<path d="M253.826 434.589C253.826 434.589 257.231 440.789 263.292 440.312C269.353 439.835 271.804 445.422 266.697 447.789C261.589 450.157 246.692 445.575 246.692 445.575L245.671 436.922L253.826 434.589Z" fill="#FB9CCB"/>
<path d="M180.465 426.941C180.465 426.941 179.24 433.924 184.228 437.348C189.216 440.772 187.633 446.682 182.202 445.337C176.771 443.991 168.037 430.943 168.037 430.943L172.685 423.585L180.465 426.941Z" fill="#FB9CCB"/>
<path opacity="0.08" d="M151.727 169.992C151.727 169.992 166.862 191.012 161.193 237.002C155.524 282.992 230.434 263.693 230.434 263.693L221.666 312.34L143.351 319.153L133.766 293.297L114.323 225.828L151.727 169.992Z" fill="black"/>
<path d="M203.5 238.825L212.932 184.625L243.27 203.804L276.656 192.783L267.412 250.884L233.549 261.768L203.5 238.825Z" fill="#A27CEF"/>
<path d="M117.831 158.598C100.108 177.709 78.8095 218.419 95.2386 287.642C95.7175 289.625 96.5897 291.491 97.8033 293.13C99.017 294.769 100.547 296.147 102.304 297.183C104.06 298.219 106.006 298.891 108.027 299.16C110.048 299.429 112.103 299.289 114.068 298.748L220.168 269.246L216.218 253.337L133.375 263.557C133.375 263.557 156.341 215.864 151.711 169.993C151.313 166.249 149.849 162.698 147.494 159.761C145.138 156.824 141.99 154.626 138.423 153.426C134.856 152.226 131.019 152.075 127.369 152.992C123.719 153.909 120.409 155.854 117.831 158.598Z" fill="#FB9CCB"/>
<path opacity="0.08" d="M206.207 223.137C206.207 223.137 218.823 242.521 232.715 243.577C246.607 244.633 265.386 238.467 267.412 250.799L233.549 261.683L203.5 238.739L206.207 223.137Z" fill="black"/>
<path opacity="0.2" d="M117.831 158.598C100.108 177.709 78.8095 218.419 95.2386 287.642C95.7175 289.625 96.5897 291.491 97.8033 293.13C99.017 294.769 100.547 296.147 102.304 297.183C104.06 298.219 106.006 298.891 108.027 299.16C110.048 299.429 112.103 299.289 114.068 298.748L220.168 269.246L216.218 253.337L133.375 263.557C133.375 263.557 156.341 215.864 151.711 169.993C151.313 166.249 149.849 162.698 147.494 159.761C145.138 156.824 141.99 154.626 138.423 153.426C134.856 152.226 131.019 152.075 127.369 152.992C123.719 153.909 120.409 155.854 117.831 158.598Z" fill="white"/>
<path d="M150.756 261.411V288.562L220.218 269.246C220.218 269.246 241.772 267.1 246.317 256.88C250.863 246.66 230.433 240.17 216.217 253.337L150.756 261.411Z" fill="#F3B496"/>
<path d="M150.773 261.41V288.562L165.091 284.354V259.656L150.773 261.41Z" fill="white"/>
<path d="M243.271 203.804L221.428 179.157L219.197 188.576L243.271 203.804Z" fill="#A27CEF"/>
<path d="M143.351 319.154L173.281 354.617C178.81 361.164 182.296 369.192 183.307 377.703C184.317 386.215 182.808 394.836 178.967 402.498L169.416 421.524L184.057 429.019L197.49 407.522C203.11 398.508 206.81 388.431 208.36 377.921C209.909 367.411 209.275 356.694 206.496 346.441C205.595 343.131 205.472 339.657 206.136 336.291C206.801 332.925 208.235 329.759 210.327 327.04L221.666 312.306L143.351 319.154Z" fill="#24285B"/>
<path d="M243.27 203.804L270.731 184.625V194.742L243.27 203.804Z" fill="#A27CEF"/>
<path d="M337.674 236.695L382.381 157.269L385.752 159.296L345.556 240.885L337.674 236.695Z" fill="#24285B"/>
<path d="M221.665 312.34L258.779 434.589L242.265 437.995C242.265 437.995 216.949 364.752 191.905 329.527L221.665 312.34Z" fill="#24285B"/>
<path d="M290.43 248.295L305.633 268.564L342.203 230.376C342.203 230.376 357.321 229.337 361.015 221.11C364.71 212.882 353.065 198.966 331.494 217.703L290.43 248.295Z" fill="#F3B496"/>
<path d="M284.334 252.843L299.112 275.378L309.105 264.936L295.434 244.582L284.334 252.843Z" fill="white"/>
<path d="M345.692 386.061C351.258 386.061 355.771 381.546 355.771 375.977C355.771 370.408 351.258 365.893 345.692 365.893C340.126 365.893 335.613 370.408 335.613 375.977C335.613 381.546 340.126 386.061 345.692 386.061Z" stroke="#A5A5A5" stroke-width="3" stroke-miterlimit="10"/>
<path d="M535.709 35.4463H196.366V59.0545H535.709V35.4463Z" fill="url(#paint0_linear)" fill-opacity="0.8"/>
<path d="M494.576 97.499H304.458V112.011H494.576V97.499Z" fill="#D5C1FC"/>
<path opacity="0.55" d="M494.576 126.881H304.458V141.394H494.576V126.881Z" fill="#D5C1FC"/>
<path d="M491.001 156.281H400.938V270.183H491.001V156.281Z" fill="#5B5B5B"/>
<path d="M408.872 254.853L433.848 197.161L453.137 241.788L465.055 216.102L480.956 254.853H408.872Z" fill="white"/>
<path d="M452.439 193.26C458.006 193.26 462.518 188.746 462.518 183.176C462.518 177.607 458.006 173.093 452.439 173.093C446.873 173.093 442.36 177.607 442.36 183.176C442.36 188.746 446.873 193.26 452.439 193.26Z" fill="white"/>
<path d="M345.692 365.893V330.975" stroke="#A5A5A5" stroke-width="3" stroke-miterlimit="10"/>
<path opacity="0.57" d="M491.001 282.753H400.938V299.259H491.001V282.753Z" fill="white"/>
<path d="M194.084 129.709C194.084 129.709 198.46 142.228 204.776 143.932C211.092 145.635 220.099 146.453 219.162 135.637C218.532 128.908 210.871 131.344 201.933 133.167C201.933 133.167 197.711 124.769 198.528 119.455C198.528 119.455 204.231 118.382 203.635 113.272C203.635 113.272 216.591 120.46 219.332 113.272C222.073 106.084 221.529 101.996 215.434 99.4407C209.339 96.8857 192.314 98.589 188.058 106.254C183.801 113.919 194.084 129.709 194.084 129.709Z" fill="#24285B"/>
<path d="M195.294 127.852C195.587 126.822 195.583 125.73 195.282 124.702C194.98 123.674 194.394 122.752 193.591 122.044C193.024 121.544 192.318 121.227 191.568 121.136C190.817 121.045 190.057 121.183 189.386 121.533C185.011 123.56 188.143 132.247 194.494 130.935L195.294 127.852Z" fill="#F3B496"/>
<defs>
<linearGradient id="paint0_linear" x1="563.531" y1="57.5285" x2="561.407" y2="16.5958" gradientUnits="userSpaceOnUse">
<stop stop-color="#D58ABB"/>
<stop offset="1" stop-color="#817FBC"/>
</linearGradient>
</defs>
</svg>
