<svg width="16" height="11" viewBox="0 0 16 11" fill="none" xmlns="http://www.w3.org/2000/svg">
<path d="M7.96859 11C7.75902 11.0014 7.55127 10.9551 7.35725 10.864C7.16323 10.7728 6.98677 10.6385 6.83797 10.4687L0.468316 3.14035C0.319841 2.96953 0.202066 2.76674 0.121712 2.54355C0.041358 2.32036 3.12886e-09 2.08115 0 1.83957C-3.12886e-09 1.598 0.041358 1.35879 0.121712 1.1356C0.202066 0.912411 0.319841 0.709619 0.468316 0.538798C0.61679 0.367978 0.793055 0.232475 0.987046 0.140028C1.18104 0.0475808 1.38896 -3.59977e-09 1.59893 0C1.8089 3.59977e-09 2.01682 0.0475808 2.21081 0.140028C2.40481 0.232475 2.58107 0.367978 2.72954 0.538798L7.96859 6.60298L13.2236 0.776969C13.37 0.589566 13.5486 0.438953 13.748 0.33455C13.9473 0.230147 14.1633 0.1742 14.3824 0.170208C14.6014 0.166215 14.8188 0.214262 15.021 0.311345C15.2231 0.408429 15.4057 0.552461 15.5573 0.734431C15.7089 0.916401 15.8262 1.1324 15.9019 1.36891C15.9776 1.60542 16.0101 1.85736 15.9973 2.10897C15.9845 2.36058 15.9267 2.60645 15.8276 2.8312C15.7284 3.05595 15.5901 3.25475 15.4211 3.41516L9.05143 10.487C8.76022 10.81 8.37307 10.9934 7.96859 11Z" fill="#3D467F"/>
</svg>
