<svg width="327" height="202" viewBox="0 0 327 202" fill="none" xmlns="http://www.w3.org/2000/svg">
<path d="M324.5 74.9355C324.5 75.6799 324.066 76.6229 322.816 77.486C321.577 78.342 319.729 78.9515 317.567 78.9515C309.321 78.9515 301.736 81.2645 296.146 85.1266C290.566 88.9807 286.769 94.5531 286.769 101C286.769 107.447 290.566 113.019 296.146 116.874C301.736 120.736 309.32 123.049 317.567 123.049C319.728 123.049 321.576 123.658 322.816 124.514C324.065 125.377 324.499 126.32 324.499 127.065V161.817C324.499 162.562 324.065 163.505 322.816 164.368C321.577 165.224 319.729 165.833 317.567 165.833H112.548V135.753C112.548 132.899 110.87 130.584 108.706 129.088C106.531 127.586 103.663 126.737 100.615 126.737C97.5676 126.737 94.6994 127.586 92.5245 129.088C90.3599 130.583 88.6825 132.898 88.6825 135.753V165.833H9.43255C7.27106 165.833 5.42295 165.224 4.18378 164.368C2.93441 163.505 2.5 162.562 2.5 161.817V127.065C2.5 126.32 2.93441 125.377 4.18378 124.514C5.42295 123.658 7.27106 123.049 9.43255 123.049C17.6793 123.049 25.2634 120.736 30.8541 116.874C36.4333 113.019 40.2308 107.447 40.2308 101C40.2308 94.5531 36.433 88.9807 30.8539 85.1266C25.2631 81.2645 17.6789 78.9515 9.43255 78.9515C7.27106 78.9515 5.42295 78.3421 4.18378 77.4861C2.93441 76.6231 2.5 75.68 2.5 74.9355V40.1828C2.5 39.4382 2.9344 38.4952 4.18382 37.6322C5.42305 36.7762 7.27133 36.1667 9.43318 36.1667H88.6832V66.2474C88.6832 69.1015 90.3606 71.4165 92.5251 72.9118C94.7 74.4141 97.5681 75.2635 100.616 75.2635C103.663 75.2635 106.531 74.4143 108.706 72.912C110.871 71.4167 112.548 69.1017 112.548 66.2474V36.1667H317.567C319.729 36.1667 321.577 36.7762 322.816 37.6322C324.066 38.4952 324.5 39.4382 324.5 40.1828V74.9355ZM100.616 118.704C103.663 118.704 106.531 117.855 108.706 116.353C110.871 114.857 112.548 112.542 112.548 109.688V92.3116C112.548 89.4575 110.871 87.1425 108.706 85.6472C106.532 84.1449 103.663 83.2955 100.616 83.2955C97.5682 83.2955 94.7 84.1447 92.5252 85.647C90.3605 87.1423 88.6832 89.4573 88.6832 92.3116V109.688C88.6832 112.542 90.3606 114.857 92.5251 116.352C94.7 117.855 97.5681 118.704 100.616 118.704Z" fill="white" stroke="#3D467F" stroke-width="5"/>
<path d="M141.144 102.744C142.328 102.744 143.36 102.6 144.24 102.312C145.12 102.008 145.848 101.584 146.424 101.04C147.016 100.48 147.456 99.808 147.744 99.024C148.032 98.224 148.176 97.336 148.176 96.36C148.176 95.432 148.032 94.592 147.744 93.84C147.456 93.088 147.024 92.448 146.448 91.92C145.872 91.392 145.144 90.992 144.264 90.72C143.384 90.432 142.344 90.288 141.144 90.288H136.32V102.744H141.144ZM141.144 85.296C143.464 85.296 145.472 85.568 147.168 86.112C148.864 86.656 150.264 87.416 151.368 88.392C152.472 89.368 153.288 90.536 153.816 91.896C154.36 93.256 154.632 94.744 154.632 96.36C154.632 98.04 154.352 99.584 153.792 100.992C153.232 102.384 152.392 103.584 151.272 104.592C150.152 105.6 148.744 106.384 147.048 106.944C145.368 107.504 143.4 107.784 141.144 107.784H136.32V120H129.864V85.296H141.144ZM166.813 120H160.333V85.296H166.813V120ZM186.613 102.744C187.797 102.744 188.829 102.6 189.709 102.312C190.589 102.008 191.317 101.584 191.893 101.04C192.485 100.48 192.925 99.808 193.213 99.024C193.501 98.224 193.645 97.336 193.645 96.36C193.645 95.432 193.501 94.592 193.213 93.84C192.925 93.088 192.493 92.448 191.917 91.92C191.341 91.392 190.613 90.992 189.733 90.72C188.853 90.432 187.813 90.288 186.613 90.288H181.789V102.744H186.613ZM186.613 85.296C188.933 85.296 190.941 85.568 192.637 86.112C194.333 86.656 195.733 87.416 196.837 88.392C197.941 89.368 198.757 90.536 199.285 91.896C199.829 93.256 200.101 94.744 200.101 96.36C200.101 98.04 199.821 99.584 199.261 100.992C198.701 102.384 197.861 103.584 196.741 104.592C195.621 105.6 194.213 106.384 192.517 106.944C190.837 107.504 188.869 107.784 186.613 107.784H181.789V120H175.333V85.296H186.613ZM217.082 102.744C218.266 102.744 219.298 102.6 220.178 102.312C221.058 102.008 221.786 101.584 222.362 101.04C222.954 100.48 223.394 99.808 223.682 99.024C223.97 98.224 224.114 97.336 224.114 96.36C224.114 95.432 223.97 94.592 223.682 93.84C223.394 93.088 222.962 92.448 222.386 91.92C221.81 91.392 221.082 90.992 220.202 90.72C219.322 90.432 218.282 90.288 217.082 90.288H212.258V102.744H217.082ZM217.082 85.296C219.402 85.296 221.41 85.568 223.106 86.112C224.802 86.656 226.202 87.416 227.306 88.392C228.41 89.368 229.226 90.536 229.754 91.896C230.298 93.256 230.57 94.744 230.57 96.36C230.57 98.04 230.29 99.584 229.73 100.992C229.17 102.384 228.33 103.584 227.21 104.592C226.09 105.6 224.682 106.384 222.986 106.944C221.306 107.504 219.338 107.784 217.082 107.784H212.258V120H205.802V85.296H217.082ZM242.75 120H236.27V85.296H242.75V120ZM262.55 102.744C263.734 102.744 264.766 102.6 265.646 102.312C266.526 102.008 267.254 101.584 267.83 101.04C268.422 100.48 268.862 99.808 269.15 99.024C269.438 98.224 269.582 97.336 269.582 96.36C269.582 95.432 269.438 94.592 269.15 93.84C268.862 93.088 268.43 92.448 267.854 91.92C267.278 91.392 266.55 90.992 265.67 90.72C264.79 90.432 263.75 90.288 262.55 90.288H257.726V102.744H262.55ZM262.55 85.296C264.87 85.296 266.878 85.568 268.574 86.112C270.27 86.656 271.67 87.416 272.774 88.392C273.878 89.368 274.694 90.536 275.222 91.896C275.766 93.256 276.038 94.744 276.038 96.36C276.038 98.04 275.758 99.584 275.198 100.992C274.638 102.384 273.798 103.584 272.678 104.592C271.558 105.6 270.15 106.384 268.454 106.944C266.774 107.504 264.806 107.784 262.55 107.784H257.726V120H251.27V85.296H262.55Z" fill="#3D467F"/>
</svg>
