<svg width="144" height="145" viewBox="0 0 144 145" fill="none" xmlns="http://www.w3.org/2000/svg">
<g filter="url(#filter0_d)">
<path d="M117.063 85.0474C117.063 85.0474 109.718 95.4484 102.565 97.5006C93.9438 99.9741 85.9908 91.649 85.9908 91.649C85.9908 91.649 90.8485 82.7815 100.092 80.8176C107.203 79.3068 117.063 85.0474 117.063 85.0474Z" fill="#64AC1D"/>
<path fill-rule="evenodd" clip-rule="evenodd" d="M119.513 86.7778L117.063 85.0472L118.572 82.4546C119.299 82.8779 119.815 83.5871 119.994 84.4091C120.173 85.2312 119.999 86.0906 119.513 86.7778ZM114.356 83.6672C116.015 84.4372 117.063 85.0472 117.063 85.0472C117.063 85.0472 116.37 86.0275 115.204 87.4456C112.571 90.6466 107.522 96.0783 102.565 97.5005C93.9438 99.974 85.9908 91.6488 85.9908 91.6488C85.9908 91.6488 90.8485 82.7813 100.092 80.8174C104.885 79.7992 110.926 82.0751 114.356 83.6672ZM85.9908 91.6488C83.3597 90.2075 83.3602 90.2066 83.3608 90.2056L83.3619 90.2034L83.3646 90.1986L83.3714 90.1864L83.3904 90.1523C83.4055 90.1254 83.4256 90.0901 83.4506 90.0469C83.5005 89.9606 83.5701 89.8426 83.6594 89.6969C83.8378 89.4057 84.0954 89.0024 84.4318 88.5191C85.1024 87.5553 86.0973 86.2569 87.4136 84.8893C90.0223 82.1787 94.0525 79.0337 99.4688 77.8829C103.902 76.941 108.83 78.2684 112.289 79.5537C114.088 80.2224 115.642 80.9386 116.746 81.4873C117.3 81.7626 117.745 81.998 118.057 82.1674C118.213 82.2522 118.336 82.3207 118.423 82.3696C118.467 82.3941 118.501 82.4136 118.526 82.4279L118.556 82.4454L118.566 82.4511L118.572 82.4546C118.573 82.455 118.572 82.4546 117.063 85.0472C119.513 86.7778 119.514 86.7773 119.513 86.7778L119.509 86.7832L119.503 86.7924L119.482 86.822C119.464 86.8467 119.44 86.881 119.408 86.9244C119.345 87.0113 119.255 87.1348 119.139 87.2902C118.908 87.6008 118.574 88.0402 118.152 88.5709C117.311 89.6295 116.109 91.0665 114.665 92.5771C111.894 95.4758 107.796 99.1205 103.392 100.384C97.9464 101.947 92.9172 100.05 89.5436 98.0996C87.8206 97.1037 86.4123 96.0287 85.4349 95.2051C84.9437 94.7911 84.5546 94.4349 84.282 94.1757C84.1456 94.0459 84.0378 93.94 83.9606 93.8628C83.9219 93.8241 83.8909 93.7926 83.8677 93.7688L83.8387 93.739L83.8286 93.7285L83.8247 93.7244L83.823 93.7227C83.8223 93.7219 83.8215 93.7211 85.9908 91.6488ZM83.3597 90.2075L85.9908 91.6488L83.8215 93.7211C82.9184 92.7757 82.7315 91.3542 83.3597 90.2075Z" fill="#156319"/>
<path d="M113.195 105.271C113.195 105.271 99.5924 111.165 91.2371 108.874C81.1668 106.112 78.3007 93.0174 78.3007 93.0174C78.3007 93.0174 88.5014 87.1421 98.8823 90.7876C106.868 93.5918 113.195 105.271 113.195 105.271Z" fill="#7CD623"/>
<path fill-rule="evenodd" clip-rule="evenodd" d="M114.388 108.024L113.195 105.271L115.833 103.842C116.234 104.582 116.305 105.456 116.031 106.251C115.756 107.046 115.16 107.69 114.388 108.024ZM111.617 102.679C112.627 104.223 113.195 105.271 113.195 105.271C113.195 105.271 112.111 105.741 110.367 106.364C105.933 107.947 97.2338 110.518 91.2371 108.874C81.1668 106.112 78.3007 93.0174 78.3007 93.0174C78.3007 93.0174 88.5014 87.142 98.8823 90.7875C104.475 92.7516 109.255 99.0698 111.617 102.679ZM78.3007 93.0174C76.8034 90.4178 76.8043 90.4172 76.8053 90.4167L76.8075 90.4154L76.8125 90.4125L76.8254 90.4052L76.8625 90.3842C76.8922 90.3676 76.9318 90.3456 76.981 90.3187C77.0795 90.265 77.2165 90.1918 77.3897 90.103C77.7357 89.9254 78.2275 89.6846 78.8451 89.4119C80.077 88.868 81.8277 88.1891 83.9348 87.6343C88.1157 86.5334 93.9196 85.8652 99.8763 87.957C104.716 89.6566 108.739 93.8645 111.389 97.2229C112.759 98.9608 113.861 100.599 114.619 101.803C115 102.406 115.297 102.905 115.502 103.258C115.605 103.434 115.684 103.575 115.74 103.674C115.767 103.723 115.789 103.762 115.805 103.791L115.823 103.825L115.829 103.836L115.833 103.842C115.833 103.843 115.833 103.842 113.195 105.271C114.388 108.024 114.388 108.024 114.388 108.024L114.381 108.027L114.37 108.032L114.332 108.048C114.301 108.061 114.257 108.08 114.2 108.104C114.087 108.151 113.924 108.219 113.717 108.302C113.303 108.469 112.71 108.702 111.974 108.972C110.507 109.512 108.456 110.207 106.123 110.83C101.622 112.032 95.4519 113.14 90.4437 111.767C84.2695 110.074 80.5048 105.278 78.3593 101.347C77.2664 99.3451 76.5279 97.4513 76.0615 96.0602C75.8272 95.3615 75.6588 94.7812 75.547 94.3667C75.4911 94.1593 75.4491 93.9927 75.42 93.873C75.4055 93.813 75.3942 93.7648 75.3859 93.7288L75.3757 93.6843L75.3724 93.6692L75.3711 93.6634L75.3705 93.6609C75.3703 93.6599 75.3701 93.6588 78.3007 93.0174ZM76.8034 90.4178L78.3007 93.0174L75.3701 93.6588C75.0905 92.3816 75.6704 91.0703 76.8034 90.4178Z" fill="#156319"/>
<path d="M90.7815 106.549C97.1788 108.796 108.717 104.832 108.717 104.832C96.9993 96.8947 85.4148 96.3871 81.2879 96.5305C81.2879 96.5305 84.3842 104.302 90.7815 106.549Z" fill="#6FC21C"/>
<path d="M80.6631 105.065C102.75 91.9999 99.2999 68.6202 89.3689 51.3958L26.9939 87.3591C36.9249 104.584 57.1055 119 80.6631 105.065Z" fill="#A6682F"/>
<path fill-rule="evenodd" clip-rule="evenodd" d="M87.8704 48.7969C89.3058 47.9693 91.1403 48.462 91.9679 49.8974C97.1166 58.8273 100.726 69.576 100.016 79.9943C99.2927 90.5943 94.0986 100.603 82.1904 107.647C69.588 115.102 57.6407 115.049 47.5219 110.648C37.5479 106.309 29.5866 97.8621 24.395 88.8576C23.5674 87.4223 24.0601 85.5878 25.4954 84.7602L87.8704 48.7969ZM28.56 89.9192C38.9519 105.955 58.2837 118.303 80.6631 105.065C101.644 92.6543 99.5814 70.9361 90.8098 54.028C90.3474 53.1365 89.8663 52.2585 89.3689 51.3958L26.9939 87.3592C27.4906 88.2206 28.0129 89.075 28.56 89.9192Z" fill="#6C3211"/>
<path fill-rule="evenodd" clip-rule="evenodd" d="M89.3689 51.3959C99.2999 68.6203 102.75 92 80.6631 105.065C69.5849 111.618 59.2535 111.901 50.3836 108.571C56.4128 109.42 63.0471 108.247 70.034 104.114C88.6429 93.1061 85.7361 73.4079 77.3689 58.8959L27.2473 87.7943C27.1621 87.6495 27.0776 87.5044 26.9939 87.3592L89.3689 51.3959Z" fill="#925824"/>
<path d="M90.9023 84.5048C90.23 86.0192 88.4574 86.7018 86.9431 86.0295C85.4287 85.3573 84.7461 83.5847 85.4184 82.0703C86.0906 80.556 87.8632 79.8733 89.3776 80.5456C90.8919 81.2179 91.5746 82.9905 90.9023 84.5048Z" fill="#77461A"/>
<path d="M88.9874 74.9847C88.4832 76.1205 87.1537 76.6325 86.018 76.1283C84.8822 75.6241 84.3702 74.2946 84.8744 73.1589C85.3786 72.0231 86.7081 71.5112 87.8438 72.0153C88.9796 72.5195 89.4916 73.849 88.9874 74.9847Z" fill="#77461A"/>
<path d="M86.642 94.1016C85.9698 95.616 84.1972 96.2986 82.6828 95.6263C81.1685 94.9541 80.4859 93.1815 81.1581 91.6671C81.8304 90.1528 83.603 89.4701 85.1173 90.1424C86.6317 90.8147 87.3143 92.5873 86.642 94.1016Z" fill="#77461A"/>
<path d="M80.8505 84.966C80.1783 86.4803 78.4057 87.163 76.8913 86.4907C75.377 85.8184 74.6944 84.0458 75.3666 82.5315C76.0389 81.0172 77.8115 80.3345 79.3258 81.0068C80.8402 81.6791 81.5228 83.4517 80.8505 84.966Z" fill="#77461A"/>
<path d="M77.0258 100.382C76.5216 101.518 75.1922 102.03 74.0564 101.526C72.9207 101.022 72.4087 99.6922 72.9129 98.5565C73.4171 97.4207 74.7465 96.9087 75.8823 97.4129C77.018 97.9171 77.53 99.2466 77.0258 100.382Z" fill="#77461A"/>
<path d="M89.3689 51.3959C92.6792 57.1374 81.3996 69.8424 64.1753 79.7734C46.9509 89.7044 30.3042 93.1007 26.9939 87.3592C23.6836 81.6178 34.9631 68.9127 52.1875 58.9817C69.4119 49.0507 86.0585 45.6544 89.3689 51.3959Z" fill="#FFEED6"/>
<path fill-rule="evenodd" clip-rule="evenodd" d="M86.716 66.0052C81.8904 71.4407 74.4876 77.2905 65.6738 82.3722C56.86 87.454 48.0883 90.9298 40.9665 92.3828C37.4219 93.106 34.1148 93.364 31.3461 92.9613C28.62 92.5648 25.8785 91.4306 24.3949 88.8576C22.9114 86.2846 23.3034 83.3436 24.3261 80.7858C25.3648 78.1879 27.2449 75.4551 29.6468 72.7497C34.4724 67.3143 41.8752 61.4644 50.689 56.3827C59.5028 51.3009 68.2745 47.8251 75.3963 46.3721C78.941 45.6489 82.248 45.3909 85.0167 45.7936C87.7428 46.1901 90.4843 47.3243 91.9679 49.8973C93.4514 52.4703 93.0594 55.4113 92.0367 57.9691C90.998 60.567 89.1179 63.2998 86.716 66.0052ZM64.1753 79.7733C81.3997 69.8423 92.6792 57.1373 89.3689 51.3958C86.0586 45.6543 69.4119 49.0506 52.1875 58.9816C34.9631 68.9126 23.6836 81.6177 26.9939 87.3591C30.3042 93.1006 46.9509 89.7043 64.1753 79.7733Z" fill="#8C4922"/>
<path fill-rule="evenodd" clip-rule="evenodd" d="M81 52.25C81 53.9069 79.6569 55.25 78 55.25C77.5581 55.25 77.3292 55.2974 77.0218 55.367C76.9913 55.3739 76.9588 55.3814 76.9245 55.3893C76.5255 55.4814 75.8718 55.6321 75 55.6321C73.3431 55.6321 72 54.289 72 52.6321C72 50.9753 73.3431 49.6321 75 49.6321C75.1782 49.6321 75.2386 49.6189 75.6969 49.5151C76.2333 49.3937 76.9419 49.25 78 49.25C79.6569 49.25 81 50.5932 81 52.25Z" fill="white"/>
<path d="M84.3359 56.777C86.5661 60.6451 77.0418 70.3146 63.0628 78.3744C49.0838 86.4342 35.9436 89.8323 33.7134 85.9642C31.4832 82.0961 41.0075 72.4267 54.9865 64.3669C68.9655 56.307 82.1057 52.909 84.3359 56.777Z" fill="#E7D2B4"/>
<path fill-rule="evenodd" clip-rule="evenodd" d="M50.4079 84.5256C44.42 84.2954 39.5362 82.0971 37.1144 77.9642C34.0676 81.3486 32.7168 84.2358 33.7134 85.9644C35.2406 88.6131 41.8833 87.8548 50.4079 84.5256Z" fill="#DDC5A2"/>
<path fill-rule="evenodd" clip-rule="evenodd" d="M40.5928 95.5009C41.9025 94.4861 43.7869 94.7251 44.8017 96.0348C45.0723 96.3841 45.25 96.536 45.4933 96.7364C45.5175 96.7563 45.5433 96.7774 45.5706 96.7997C45.8877 97.0587 46.4073 97.4831 46.9412 98.1722C47.956 99.4819 47.717 101.366 46.4073 102.381C45.0976 103.396 43.2132 103.157 42.1984 101.847C42.0892 101.706 42.0418 101.667 41.679 101.368C41.2545 101.018 40.707 100.546 40.0589 99.7098C39.044 98.4001 39.2831 96.5157 40.5928 95.5009Z" fill="#CF843E"/>
</g>
<defs>
<filter id="filter0_d" x="0" y="0.5" width="146" height="146" filterUnits="userSpaceOnUse" color-interpolation-filters="sRGB">
<feFlood flood-opacity="0" result="BackgroundImageFix"/>
<feColorMatrix in="SourceAlpha" type="matrix" values="0 0 0 0 0 0 0 0 0 0 0 0 0 0 0 0 0 0 127 0"/>
<feOffset dx="2" dy="2"/>
<feColorMatrix type="matrix" values="0 0 0 0 0 0 0 0 0 0 0 0 0 0 0 0 0 0 0.2 0"/>
<feBlend mode="normal" in2="BackgroundImageFix" result="effect1_dropShadow"/>
<feBlend mode="normal" in="SourceGraphic" in2="effect1_dropShadow" result="shape"/>
</filter>
</defs>
</svg>
