<svg width="144" height="144" viewBox="0 0 144 144" fill="none" xmlns="http://www.w3.org/2000/svg">
<g filter="url(#filter0_d)">
<path d="M60 30.0566C64.8696 37.1208 62.7246 42.9623 61.0435 45C69.5304 42.6906 79.3043 44.0377 83.1304 45C78.8174 38.8868 81.913 31.9245 84 29.2075C79.1304 30.4302 76.2899 34.2453 75.4783 36C75.3391 32.0604 72.8696 28.3585 71.6522 27C69.7043 30.3962 68.9855 34.1887 68.8696 35.6604C66.6435 33.3509 62.029 30.9623 60 30.0566Z" fill="#D72424"/>
<path fill-rule="evenodd" clip-rule="evenodd" d="M58.5232 46.6273C57.8143 45.5294 57.8977 44.0989 58.7294 43.0909C59.589 42.0489 61.6111 37.6797 57.53 31.7593C56.7669 30.6523 56.8335 29.1728 57.6931 28.1388C58.5526 27.1049 59.995 26.7691 61.2228 27.3171C62.3346 27.8134 64.0986 28.6892 65.8906 29.7514C66.2324 29.954 66.5838 30.1684 66.9384 30.393C67.4287 28.8383 68.114 27.1391 69.0498 25.5075C69.529 24.6721 70.3801 24.1175 71.3378 24.0165C72.2956 23.9156 73.2436 24.2807 73.8864 24.9979C74.6799 25.8835 75.753 27.3749 76.6575 29.1998C76.7233 29.3324 76.7886 29.4678 76.8532 29.6057C78.5153 28.2091 80.6496 26.9557 83.2695 26.2979C84.5078 25.987 85.8073 26.4939 86.5079 27.5612C87.2086 28.6286 87.1569 30.0225 86.3792 31.035C85.593 32.0586 84.523 34.0365 84.1207 36.3452C83.7304 38.5852 83.981 41.0016 85.5818 43.2706C86.3051 44.2958 86.314 45.6628 85.6041 46.6974C84.8942 47.7319 83.6155 48.2154 82.3987 47.9094C78.8433 47.0152 69.6349 45.7713 61.8312 47.8948C60.5702 48.2379 59.2321 47.7252 58.5232 46.6273ZM77.9727 32.6382C76.6918 33.8918 75.8603 35.1741 75.4783 36C75.4279 34.5728 75.0716 33.1768 74.5799 31.9121C74.2843 31.1521 73.9399 30.4395 73.5835 29.7961C72.8958 28.5547 72.1635 27.5706 71.6522 27C71.0741 28.008 70.6042 29.0509 70.2262 30.0577C69.9442 30.809 69.7133 31.5402 69.5268 32.2217C69.1212 33.704 68.9254 34.9515 68.8696 35.6604C68.1564 34.9205 67.198 34.1725 66.1581 33.4677C65.7019 33.1585 65.23 32.8576 64.7561 32.5694C62.9389 31.464 61.0938 30.5448 60 30.0566C61.0949 31.6449 61.8352 33.1715 62.3058 34.6068C63.1908 37.3057 63.1226 39.6823 62.6663 41.5416C62.2859 43.0915 61.6359 44.2819 61.0435 45C62.3241 44.6515 63.6341 44.3863 64.9484 44.1905C70.1697 43.4125 75.4611 43.7292 79.2646 44.2701C80.8489 44.4955 82.1751 44.7598 83.1305 45C82.3396 43.8791 81.7978 42.7295 81.4533 41.5829C80.5762 38.6639 80.977 35.7635 81.7997 33.3998C82.4163 31.6282 83.2699 30.1581 84 29.2076C82.1462 29.673 80.5864 30.5142 79.3207 31.4744C78.8266 31.8493 78.3772 32.2423 77.9727 32.6382Z" fill="#732533"/>
<path fill-rule="evenodd" clip-rule="evenodd" d="M61.0435 45C62.7246 42.9623 64.8696 37.1208 60 30.0566C61.0138 30.5091 62.673 31.3318 64.3572 32.3299C67.0513 37.6548 65.9075 42.0471 64.5717 44.2485C63.3839 44.4378 62.2017 44.6848 61.0435 45ZM73.0851 43.7466C77.3887 43.8693 81.0984 44.4889 83.1304 45C82.9742 44.7785 82.8277 44.556 82.6905 44.3325C80.0796 43.9385 76.6936 43.6402 73.0851 43.7466ZM82.7802 31.1404C83.1855 30.3702 83.6103 29.7149 84 29.2075C81.3628 29.8697 79.3207 31.2922 77.8736 32.736C78.2093 33.7721 78.4386 34.8764 78.4783 36C79.0173 34.8346 80.4513 32.7604 82.7802 31.1404ZM73.4323 29.5285C72.7901 28.4132 72.1262 27.529 71.6522 27C70.3563 29.2594 69.6044 31.6942 69.2121 33.5044C70.2312 34.1984 71.1687 34.9333 71.8696 35.6604C71.9571 34.5494 72.3882 32.1158 73.4323 29.5285Z" fill="#FE3434"/>
<path d="M108 79.5C108 99.3823 91.8823 115.5 72 115.5C52.1177 115.5 36 99.3823 36 79.5C36 59.6177 52.1177 43.5 72 43.5C91.8823 43.5 108 59.6177 108 79.5Z" fill="#FE3434"/>
<path fill-rule="evenodd" clip-rule="evenodd" d="M111 79.5C111 101.039 93.5391 118.5 72 118.5C50.4609 118.5 33 101.039 33 79.5C33 57.9609 50.4609 40.5 72 40.5C93.5391 40.5 111 57.9609 111 79.5ZM72 115.5C91.8822 115.5 108 99.3822 108 79.5C108 59.6177 91.8822 43.5 72 43.5C52.1177 43.5 36 59.6177 36 79.5C36 99.3822 52.1177 115.5 72 115.5Z" fill="#732533"/>
<path fill-rule="evenodd" clip-rule="evenodd" d="M72 115.5C91.8822 115.5 108 99.3824 108 79.5001C108 59.6179 91.8822 43.5001 72 43.5001C63.471 43.5001 55.6347 46.4661 49.4664 51.4229C53.9472 48.3188 59.3862 46.5001 65.25 46.5001C80.5759 46.5001 93 58.9242 93 74.2501C93 89.576 80.5759 102 65.25 102C49.9241 102 37.5 89.576 37.5 74.2501C37.5 70.8328 38.1177 67.5598 39.2475 64.5366C37.1622 69.0935 36 74.1611 36 79.5001C36 99.3824 52.1177 115.5 72 115.5Z" fill="#D72424"/>
<path d="M97.347 73.5305C97.347 75.1248 96.0545 76.4173 94.4602 76.4173C92.8659 76.4173 91.5735 75.1248 91.5735 73.5305C91.5735 71.9362 92.8659 70.6438 94.4602 70.6438C96.0545 70.6438 97.347 71.9362 97.347 73.5305Z" fill="#B42222"/>
<path d="M104.25 77.5469C104.25 79.1412 102.957 80.4336 101.363 80.4336C99.7689 80.4336 98.4764 79.1412 98.4764 77.5469C98.4764 75.9526 99.7689 74.6602 101.363 74.6602C102.957 74.6602 104.25 75.9526 104.25 77.5469Z" fill="#B42222"/>
<path d="M102.807 68.1651C102.807 69.3608 101.837 70.3301 100.641 70.3301C99.4458 70.3301 98.4764 69.3608 98.4764 68.1651C98.4764 66.9693 99.4458 66 100.641 66C101.837 66 102.807 66.9693 102.807 68.1651Z" fill="#B42222"/>
<path d="M102.493 87.6505C102.493 89.2448 101.2 90.5373 99.6061 90.5373C98.0118 90.5373 96.7194 89.2448 96.7194 87.6505C96.7194 86.0562 98.0118 84.7638 99.6061 84.7638C101.2 84.7638 102.493 86.0562 102.493 87.6505Z" fill="#B42222"/>
<path d="M95.5898 83.634C95.5898 85.2283 94.2973 86.5208 92.703 86.5208C91.1087 86.5208 89.8163 85.2283 89.8163 83.634C89.8163 82.0397 91.1087 80.7473 92.703 80.7473C94.2973 80.7473 95.5898 82.0397 95.5898 83.634Z" fill="#B42222"/>
<path d="M99 96.75C99 98.8211 97.3211 100.5 95.25 100.5C93.1789 100.5 91.5 98.8211 91.5 96.75C91.5 94.6789 93.1789 93 95.25 93C97.3211 93 99 94.6789 99 96.75Z" fill="#B42222"/>
<path d="M88.5 92.25C88.5 93.4926 87.4926 94.5 86.25 94.5C85.0074 94.5 84 93.4926 84 92.25C84 91.0074 85.0074 90 86.25 90C87.4926 90 88.5 91.0074 88.5 92.25Z" fill="#B42222"/>
<path d="M80.5286 109.671C80.5286 110.642 79.7419 111.429 78.7714 111.429C77.801 111.429 77.0143 110.642 77.0143 109.671C77.0143 108.701 77.801 107.914 78.7714 107.914C79.7419 107.914 80.5286 108.701 80.5286 109.671Z" fill="#B42222"/>
<path d="M91.5 105C91.5 106.657 90.1569 108 88.5 108C86.8431 108 85.5 106.657 85.5 105C85.5 103.343 86.8431 102 88.5 102C90.1569 102 91.5 103.343 91.5 105Z" fill="#B42222"/>
<path d="M85.5 99C85.5 99.8284 84.8284 100.5 84 100.5C83.1716 100.5 82.5 99.8284 82.5 99C82.5 98.1716 83.1716 97.5 84 97.5C84.8284 97.5 85.5 98.1716 85.5 99Z" fill="#B42222"/>
<path d="M66.682 56.4948C69.1844 60.7895 65.9907 67.3139 59.5486 71.0675C53.1066 74.8211 45.8557 74.3825 43.3533 70.0878C40.8509 65.7931 44.0446 59.2686 50.4866 55.515C56.9287 51.7614 64.1796 52.2001 66.682 56.4948Z" fill="#FF7878"/>
<path fill-rule="evenodd" clip-rule="evenodd" d="M54.1246 60.232C55.0093 61.6329 54.5907 63.4857 53.1898 64.3704C52.121 65.0453 51.2956 65.862 50.6722 66.8236C49.771 68.2139 47.9133 68.6104 46.523 67.7091C45.1327 66.8079 44.7363 64.9502 45.6376 63.5599C46.7557 61.8351 48.2191 60.4131 49.9862 59.2972C51.3871 58.4125 53.24 58.8311 54.1246 60.232Z" fill="white"/>
</g>
<defs>
<filter id="filter0_d" x="0" y="0" width="146" height="146" filterUnits="userSpaceOnUse" color-interpolation-filters="sRGB">
<feFlood flood-opacity="0" result="BackgroundImageFix"/>
<feColorMatrix in="SourceAlpha" type="matrix" values="0 0 0 0 0 0 0 0 0 0 0 0 0 0 0 0 0 0 127 0"/>
<feOffset dx="2" dy="2"/>
<feColorMatrix type="matrix" values="0 0 0 0 0 0 0 0 0 0 0 0 0 0 0 0 0 0 0.2 0"/>
<feBlend mode="normal" in2="BackgroundImageFix" result="effect1_dropShadow"/>
<feBlend mode="normal" in="SourceGraphic" in2="effect1_dropShadow" result="shape"/>
</filter>
</defs>
</svg>
