<svg width="298" height="298" viewBox="0 0 298 298" fill="none" xmlns="http://www.w3.org/2000/svg">
<g filter="url(#filter0_d)">
<path d="M202.858 64.9851C202.858 64.9851 196.747 91.1771 184.379 100.877C169.472 112.568 147.292 102.593 147.292 102.593C147.292 102.593 149.754 81.3788 166.284 70.1906C179 61.5843 202.858 64.9851 202.858 64.9851Z" fill="#10BC17"/>
<path fill-rule="evenodd" clip-rule="evenodd" d="M208.895 66.3936L202.858 64.9851L203.733 58.8487C205.454 59.094 206.993 60.0506 207.974 61.4852C208.956 62.9199 209.29 64.7008 208.895 66.3936ZM196.606 64.4417C200.384 64.6325 202.858 64.9851 202.858 64.9851C202.858 64.9851 202.296 67.3941 201.168 71.0214C198.576 79.3548 192.996 94.1187 184.379 100.877C169.472 112.568 147.292 102.593 147.292 102.593C147.292 102.593 149.753 81.3788 166.284 70.1907C174.905 64.3556 188.649 64.04 196.606 64.4417ZM147.292 102.593C141.135 101.879 141.135 101.877 141.135 101.874L141.136 101.869L141.137 101.858L141.141 101.829L141.151 101.748C141.159 101.684 141.17 101.599 141.185 101.496C141.214 101.288 141.256 101.003 141.315 100.648C141.432 99.9388 141.615 98.9474 141.889 97.7371C142.434 95.3235 143.348 91.9993 144.834 88.2848C147.78 80.922 153.155 71.592 162.81 65.0574C170.704 59.7145 181.369 58.3973 189.155 58.1648C193.201 58.044 196.806 58.2111 199.4 58.4074C200.7 58.5059 201.757 58.6125 202.501 58.6962C202.873 58.7381 203.168 58.7742 203.376 58.8009C203.48 58.8143 203.562 58.8252 203.622 58.8333L203.695 58.8433L203.727 58.8478L203.733 58.8487C203.734 58.8489 203.733 58.8487 202.858 64.9851C208.895 66.3936 208.895 66.3923 208.895 66.3936L208.891 66.407L208.886 66.43L208.868 66.5043C208.853 66.5662 208.833 66.6527 208.806 66.7625C208.752 66.982 208.673 67.2947 208.57 67.6902C208.365 68.4808 208.06 69.6046 207.657 70.9769C206.853 73.7143 205.643 77.4775 204.019 81.5762C200.901 89.448 195.788 99.8063 188.204 105.754C178.83 113.106 167.525 113.392 159.39 112.258C155.236 111.68 151.634 110.697 149.072 109.863C147.785 109.444 146.743 109.057 146.006 108.768C145.637 108.623 145.343 108.501 145.131 108.412C145.026 108.367 144.94 108.33 144.876 108.302L144.797 108.267L144.769 108.255L144.754 108.248C144.752 108.247 144.75 108.246 147.292 102.593ZM141.135 101.879L147.292 102.593L144.75 108.246C142.286 107.138 140.823 104.562 141.135 101.879Z" fill="#156319"/>
<path d="M180.498 99.0282C190.685 92.1334 197.379 71.036 197.379 71.036C173.149 79.5342 159.89 95.8675 155.639 102.036C155.639 102.036 170.311 105.923 180.498 99.0282Z" fill="#07A00E"/>
<path d="M104.535 78.1746C104.535 78.1746 124.537 72.9627 135.559 77.9064C148.844 83.8648 149.993 102.52 149.993 102.52C149.993 102.52 134.682 108.434 121.158 101.191C110.756 95.6199 104.535 78.1746 104.535 78.1746Z" fill="#13CA1B"/>
<path fill-rule="evenodd" clip-rule="evenodd" d="M102.972 72.1763L104.535 78.1745L98.6967 80.2564C98.1129 78.6191 98.2434 76.8119 99.0563 75.2755C99.8693 73.7391 101.29 72.6146 102.972 72.1763ZM107.033 83.9483C105.403 80.6084 104.535 78.1745 104.535 78.1745C104.535 78.1745 107.005 77.5309 110.687 76.9106C117.484 75.7656 128.411 74.6998 135.56 77.9063C148.844 83.8647 149.993 102.52 149.993 102.52C149.993 102.52 134.682 108.434 121.159 101.191C114.641 97.7008 109.766 89.5502 107.033 83.9483ZM149.993 102.52C152.226 108.302 152.224 108.303 152.222 108.303L152.218 108.305L152.207 108.309L152.183 108.318L152.116 108.343C152.065 108.363 151.998 108.387 151.917 108.417C151.754 108.475 151.534 108.552 151.259 108.643C150.711 108.825 149.944 109.063 148.994 109.318C147.099 109.825 144.436 110.41 141.287 110.737C135.061 111.383 126.473 111.069 118.232 106.655C111.395 102.994 106.518 95.9004 103.548 90.641C101.988 87.877 100.79 85.318 99.9813 83.45C99.5753 82.5122 99.2631 81.7387 99.0484 81.1886C98.941 80.9132 98.8576 80.6931 98.7989 80.5355L98.7293 80.3466L98.7083 80.2888L98.7013 80.2694L98.6967 80.2564C98.6962 80.255 98.6967 80.2564 104.535 78.1745C102.972 72.1763 102.971 72.1766 102.972 72.1763L102.984 72.1731L103.004 72.1681L103.065 72.1525L103.272 72.1006C103.446 72.0574 103.693 71.9974 104.005 71.9244C104.63 71.7785 105.518 71.5802 106.612 71.3604C108.792 70.9223 111.829 70.3911 115.252 70.0235C121.75 69.3257 130.961 69.0506 138.096 72.2507C146.965 76.2285 151.393 84.2477 153.59 90.3471C154.717 93.4782 155.356 96.3654 155.715 98.4659C155.896 99.523 156.01 100.399 156.079 101.029C156.114 101.345 156.137 101.6 156.153 101.787C156.161 101.881 156.167 101.958 156.171 102.016L156.177 102.091L156.178 102.118L156.179 102.134C156.18 102.136 156.18 102.139 149.993 102.52ZM152.226 108.302L149.993 102.52L156.18 102.139C156.346 104.835 154.746 107.328 152.226 108.302Z" fill="#156319"/>
<path fill-rule="evenodd" clip-rule="evenodd" d="M107.569 77.4907C105.678 77.8765 104.535 78.1744 104.535 78.1744C104.535 78.1744 110.756 95.6197 121.158 101.191C134.682 108.433 149.993 102.519 149.993 102.519C149.993 102.519 149.719 98.071 147.891 92.8248C142.867 94.4817 132.18 96.9291 121.973 92.3146C115.813 89.5291 110.76 82.7621 107.569 77.4907Z" fill="#33ED3B"/>
<path d="M215.582 166.561C215.582 204.377 184.926 235.033 147.109 235.033C109.293 235.033 78.6371 204.377 78.6371 166.561C78.6371 128.745 109.293 98.0887 147.109 98.0887C184.926 98.0887 215.582 128.745 215.582 166.561Z" fill="#FE9F81"/>
<path fill-rule="evenodd" clip-rule="evenodd" d="M221.78 166.561C221.78 207.8 188.349 241.232 147.109 241.232C105.87 241.232 72.4386 207.8 72.4386 166.561C72.4386 125.321 105.87 91.8903 147.109 91.8903C188.349 91.8903 221.78 125.321 221.78 166.561ZM147.109 235.033C184.925 235.033 215.582 204.377 215.582 166.561C215.582 128.745 184.925 98.0887 147.109 98.0887C109.293 98.0887 78.6371 128.745 78.6371 166.561C78.6371 204.377 109.293 235.033 147.109 235.033Z" fill="#AB442D"/>
<path fill-rule="evenodd" clip-rule="evenodd" d="M176.412 228.464C156.012 225.34 135.609 205.27 126.442 176.868C115.142 141.861 125.091 107.145 148.644 98.1056C148.134 98.0944 147.622 98.0888 147.109 98.0888C109.293 98.0888 78.6372 128.745 78.6372 166.561C78.6372 204.377 109.293 235.033 147.109 235.033C157.594 235.033 167.529 232.677 176.412 228.464Z" fill="#FF7E6C"/>
<path d="M163.506 108.361C171.837 112.83 173.156 126.584 166.452 139.08C159.748 151.576 147.56 158.084 139.229 153.615C130.898 149.145 129.579 135.392 136.283 122.896C142.987 110.399 155.175 103.892 163.506 108.361Z" fill="#FEC0AC"/>
<path fill-rule="evenodd" clip-rule="evenodd" d="M147.092 126.477C150.164 127.986 151.431 131.701 149.921 134.773C148.891 136.871 148.385 138.946 148.334 141.05C148.25 144.473 145.409 147.18 141.986 147.096C138.564 147.013 135.857 144.171 135.94 140.749C136.037 136.766 137.012 132.935 138.795 129.306C140.305 126.234 144.019 124.967 147.092 126.477Z" fill="white"/>
<path fill-rule="evenodd" clip-rule="evenodd" d="M146.669 96.363C155.512 93.0812 164.769 93.9813 172.364 96.5832C173.984 97.138 174.847 98.9003 174.292 100.52C173.737 102.139 171.975 103.002 170.356 102.447C163.721 100.174 155.985 99.5174 148.825 102.174C141.761 104.796 134.833 110.798 129.972 122.682C120.1 146.813 125.918 169.268 129.875 177.182C130.641 178.713 130.02 180.575 128.489 181.34C126.958 182.106 125.097 181.485 124.331 179.954C119.73 170.751 113.565 146.416 124.235 120.335C129.644 107.111 137.729 99.6802 146.669 96.363Z" fill="#AB442D"/>
<path d="M143.247 219.785C145.114 222.806 144.178 226.768 141.157 228.635C138.135 230.501 134.173 229.566 132.307 226.544C130.44 223.523 131.376 219.561 134.397 217.695C137.418 215.828 141.381 216.764 143.247 219.785Z" fill="#EC6B59"/>
<path d="M163.44 217.618C165.306 220.639 164.37 224.601 161.349 226.468C158.328 228.334 154.366 227.398 152.499 224.377C150.633 221.356 151.569 217.394 154.59 215.527C157.611 213.661 161.573 214.597 163.44 217.618Z" fill="#EC6B59"/>
<path d="M154.21 200.59C155.658 202.935 154.932 206.009 152.587 207.458C150.243 208.906 147.168 208.18 145.719 205.836C144.271 203.491 144.997 200.416 147.342 198.968C149.686 197.519 152.761 198.245 154.21 200.59Z" fill="#EC6B59"/>
<path d="M176.709 214.574C178.157 216.919 177.431 219.994 175.086 221.442C172.742 222.891 169.667 222.164 168.219 219.82C166.77 217.475 167.496 214.4 169.841 212.952C172.185 211.503 175.26 212.23 176.709 214.574Z" fill="#EC6B59"/>
<path d="M134.8 201.396C136.249 203.741 135.523 206.816 133.178 208.264C130.834 209.713 127.759 208.986 126.31 206.642C124.862 204.297 125.588 201.222 127.932 199.774C130.277 198.325 133.352 199.052 134.8 201.396Z" fill="#EC6B59"/>
<path d="M110.289 190.199C111.737 192.544 111.011 195.618 108.666 197.067C106.322 198.515 103.247 197.789 101.798 195.445C100.35 193.1 101.076 190.025 103.421 188.577C105.765 187.128 108.84 187.854 110.289 190.199Z" fill="#EC6B59"/>
<path d="M184.67 199.497C186.119 201.842 185.393 204.917 183.048 206.365C180.703 207.814 177.629 207.087 176.18 204.743C174.732 202.398 175.458 199.323 177.802 197.875C180.147 196.426 183.222 197.153 184.67 199.497Z" fill="#EC6B59"/>
<path d="M123.992 215.896C125.44 218.24 124.714 221.315 122.369 222.763C120.025 224.212 116.95 223.486 115.501 221.141C114.053 218.797 114.779 215.722 117.124 214.273C119.468 212.825 122.543 213.551 123.992 215.896Z" fill="#EC6B59"/>
<path d="M120.21 201.008C120.942 202.193 120.575 203.747 119.39 204.479C118.205 205.211 116.651 204.844 115.919 203.659C115.187 202.474 115.554 200.92 116.739 200.188C117.924 199.456 119.478 199.823 120.21 201.008Z" fill="#EC6B59"/>
<path d="M95.4945 188.1C96.2266 189.285 95.8595 190.839 94.6746 191.571C93.4896 192.303 91.9355 191.936 91.2034 190.751C90.4713 189.566 90.8384 188.012 92.0234 187.28C93.2083 186.548 94.7624 186.915 95.4945 188.1Z" fill="#EC6B59"/>
<path d="M191.571 209.794C192.303 210.979 191.936 212.533 190.751 213.265C189.566 213.998 188.012 213.63 187.28 212.445C186.548 211.261 186.915 209.706 188.1 208.974C189.285 208.242 190.839 208.609 191.571 209.794Z" fill="#EC6B59"/>
<path d="M169.876 200.497C170.608 201.682 170.241 203.236 169.056 203.968C167.871 204.7 166.317 204.333 165.585 203.148C164.853 201.963 165.22 200.409 166.405 199.677C167.59 198.944 169.144 199.312 169.876 200.497Z" fill="#EC6B59"/>
<path d="M197.769 197.397C198.501 198.582 198.134 200.136 196.949 200.868C195.764 201.601 194.21 201.233 193.478 200.048C192.746 198.864 193.113 197.309 194.298 196.577C195.483 195.845 197.037 196.212 197.769 197.397Z" fill="#EC6B59"/>
<path d="M110.133 204.137C111.342 206.094 110.736 208.66 108.779 209.869C106.822 211.078 104.256 210.472 103.047 208.515C101.838 206.558 102.444 203.992 104.401 202.783C106.358 201.574 108.924 202.18 110.133 204.137Z" fill="#EC6B59"/>
</g>
<defs>
<filter id="filter0_d" x="0" y="0" width="299.527" height="299.527" filterUnits="userSpaceOnUse" color-interpolation-filters="sRGB">
<feFlood flood-opacity="0" result="BackgroundImageFix"/>
<feColorMatrix in="SourceAlpha" type="matrix" values="0 0 0 0 0 0 0 0 0 0 0 0 0 0 0 0 0 0 127 0"/>
<feOffset dx="2" dy="2"/>
<feColorMatrix type="matrix" values="0 0 0 0 0 0 0 0 0 0 0 0 0 0 0 0 0 0 0.2 0"/>
<feBlend mode="normal" in2="BackgroundImageFix" result="effect1_dropShadow"/>
<feBlend mode="normal" in="SourceGraphic" in2="effect1_dropShadow" result="shape"/>
</filter>
</defs>
</svg>
