<svg width="144" height="144" viewBox="0 0 144 144" fill="none" xmlns="http://www.w3.org/2000/svg">
<g filter="url(#filter0_d)">
<path d="M105 90C105 109.882 88.8823 126 69 126C49.1177 126 33 109.882 33 90C33 70.1177 49.1177 54 69 54C88.8823 54 105 70.1177 105 90Z" fill="#FFAC2F"/>
<path fill-rule="evenodd" clip-rule="evenodd" d="M108 90C108 111.539 90.5391 129 69 129C47.4609 129 30 111.539 30 90C30 68.4609 47.4609 51 69 51C90.5391 51 108 68.4609 108 90ZM69 126C88.8822 126 105 109.882 105 90C105 70.1177 88.8822 54 69 54C49.1177 54 33 70.1177 33 90C33 109.882 49.1177 126 69 126Z" fill="#884A28"/>
<path fill-rule="evenodd" clip-rule="evenodd" d="M69 126C88.8822 126 105 109.882 105 90C105 70.1177 88.8822 54 69 54C67.5704 54 66.1602 54.0833 64.7741 54.2454C78.3474 56.0572 88.8174 67.6809 88.8174 81.75C88.8174 97.0759 76.3933 109.5 61.0674 109.5C46.6226 109.5 34.7556 98.4635 33.4388 84.3629C33.15 86.1995 33 88.0823 33 90C33 109.882 49.1177 126 69 126Z" fill="#FF862F"/>
<path d="M91.8214 80.7857C91.8214 82.3834 90.5262 83.6785 88.9285 83.6785C87.3308 83.6785 86.0356 82.3834 86.0356 80.7857C86.0356 79.188 87.3308 77.8928 88.9285 77.8928C90.5262 77.8928 91.8214 79.188 91.8214 80.7857Z" fill="#DD7429"/>
<path d="M100.5 86.5714C100.5 88.1691 99.2048 89.4643 97.6071 89.4643C96.0094 89.4643 94.7142 88.1691 94.7142 86.5714C94.7142 84.9738 96.0094 83.6786 97.6071 83.6786C99.2048 83.6786 100.5 84.9738 100.5 86.5714Z" fill="#DD7429"/>
<path d="M99.0535 77.1696C99.0535 78.3679 98.0821 79.3393 96.8839 79.3393C95.6856 79.3393 94.7142 78.3679 94.7142 77.1696C94.7142 75.9714 95.6856 75 96.8839 75C98.0821 75 99.0535 75.9714 99.0535 77.1696Z" fill="#DD7429"/>
<path d="M100.817 99C100.817 101.485 98.8027 103.5 96.3174 103.5C93.8321 103.5 91.8174 101.485 91.8174 99C91.8174 96.5147 93.8321 94.5 96.3174 94.5C98.8027 94.5 100.817 96.5147 100.817 99Z" fill="#DD7429"/>
<path d="M91.8214 90.9107C91.8214 92.5084 90.5262 93.8035 88.9285 93.8035C87.3308 93.8035 86.0356 92.5084 86.0356 90.9107C86.0356 89.313 87.3308 88.0178 88.9285 88.0178C90.5262 88.0178 91.8214 89.313 91.8214 90.9107Z" fill="#DD7429"/>
<path d="M94.7142 108.375C94.7142 109.973 93.419 111.268 91.8213 111.268C90.2236 111.268 88.9285 109.973 88.9285 108.375C88.9285 106.777 90.2236 105.482 91.8213 105.482C93.419 105.482 94.7142 106.777 94.7142 108.375Z" fill="#DD7429"/>
<path d="M87.1031 113.893C87.1031 115.491 85.8079 116.786 84.2102 116.786C82.6126 116.786 81.3174 115.491 81.3174 113.893C81.3174 112.295 82.6126 111 84.2102 111C85.8079 111 87.1031 112.295 87.1031 113.893Z" fill="#DD7429"/>
<path d="M87.5357 104.036C87.5357 105.633 86.2405 106.929 84.6429 106.929C83.0452 106.929 81.75 105.633 81.75 104.036C81.75 102.438 83.0452 101.143 84.6429 101.143C86.2405 101.143 87.5357 102.438 87.5357 104.036Z" fill="#DD7429"/>
<path d="M76.9285 117.83C76.9285 119.029 75.9571 120 74.7589 120C73.5606 120 72.5892 119.029 72.5892 117.83C72.5892 116.632 73.5606 115.661 74.7589 115.661C75.9571 115.661 76.9285 116.632 76.9285 117.83Z" fill="#DD7429"/>
<path d="M97.2644 53.4259C97.2644 53.4259 90.4077 41.7134 83.4381 41.4085C76.4684 41.1036 70.5423 47.1662 70.5423 47.1662C70.5423 47.1662 75.9163 53.7233 82.886 54.0282C89.8556 54.3331 97.2644 53.4259 97.2644 53.4259Z" fill="#64AC1D"/>
<path fill-rule="evenodd" clip-rule="evenodd" d="M99.8533 51.9103L97.2644 53.4259L97.629 56.4037C98.6315 56.2809 99.5049 55.662 99.953 54.7569C100.401 53.8517 100.364 52.7819 99.8533 51.9103ZM70.5423 47.1663C68.3969 45.0693 68.3976 45.0686 68.3982 45.0679L68.4031 45.063L68.4114 45.0545L68.4348 45.031C68.4533 45.0124 68.4776 44.9882 68.5077 44.9586C68.5677 44.8996 68.6507 44.8193 68.7553 44.7209C68.9644 44.5243 69.2614 44.2542 69.6365 43.9359C70.3838 43.3021 71.4579 42.4635 72.781 41.6325C75.3684 40.0076 79.2121 38.2208 83.5692 38.4114C86.1078 38.5225 88.3977 39.6487 90.2641 40.9607C92.1551 42.2901 93.844 43.9745 95.2264 45.5604C96.6189 47.1581 97.7663 48.7326 98.563 49.9014C98.9631 50.4884 99.2793 50.9797 99.4981 51.3289C99.6076 51.5036 99.6931 51.6432 99.7528 51.7419C99.7826 51.7913 99.8061 51.8305 99.8229 51.8588L99.8432 51.893L99.8495 51.9038L99.8517 51.9076L99.8533 51.9103C99.8537 51.9109 99.8533 51.9103 97.2644 53.4259C97.629 56.4037 97.6293 56.4037 97.629 56.4037L97.6003 56.4072L97.5293 56.4156C97.4682 56.4228 97.3799 56.433 97.2663 56.4457C97.0391 56.4711 96.7106 56.5066 96.2961 56.5481C95.4677 56.6308 94.2931 56.7375 92.8961 56.8343C90.1153 57.027 86.3968 57.1847 82.7548 57.0254C78.3977 56.8348 74.7248 54.7191 72.2892 52.8744C71.0437 51.9311 70.047 51.0019 69.3579 50.3052C69.0119 49.9555 68.7397 49.6604 68.5486 49.4463C68.453 49.3391 68.3773 49.2519 68.3226 49.1878C68.2953 49.1558 68.2732 49.1295 68.2563 49.1094L68.2351 49.0839L68.2275 49.0747L68.2232 49.0694C68.2226 49.0687 68.222 49.0679 70.5423 47.1663ZM70.5423 47.1663L68.3969 45.0693C67.328 46.1628 67.2527 47.8853 68.222 49.0679L70.5423 47.1663ZM95.395 50.6077C92.8845 47.1215 88.1875 41.6164 83.438 41.4086C76.4684 41.1036 70.5423 47.1663 70.5423 47.1663C70.5423 47.1663 75.9162 53.7233 82.8859 54.0283C86.9259 54.205 91.1135 53.9745 93.9201 53.7494C95.9553 53.5862 97.2644 53.4259 97.2644 53.4259C97.2644 53.4259 96.5686 52.2374 95.395 50.6077Z" fill="#156319"/>
<path d="M105.851 25.9615C105.851 25.9615 97.6109 40.4789 88.8168 45.1147C80.0228 49.7504 68.6969 45.5469 68.6969 45.5469C68.6969 45.5469 71.629 33.8273 80.4231 29.1916C89.2172 24.5558 105.851 25.9615 105.851 25.9615Z" fill="#87D623"/>
<path fill-rule="evenodd" clip-rule="evenodd" d="M108.46 27.4423L105.851 25.9615L106.103 22.9721C107.123 23.0582 108.028 23.6577 108.505 24.5625C108.982 25.4673 108.965 26.5528 108.46 27.4423ZM102.456 25.7938C104.538 25.8506 105.851 25.9615 105.851 25.9615C105.851 25.9615 105.201 27.1068 104.071 28.8567C101.178 33.3371 95.1408 41.781 88.8168 45.1147C80.0227 49.7504 68.6968 45.5469 68.6968 45.5469C68.6968 45.5469 71.629 33.8273 80.423 29.1916C86.7471 25.8579 97.1252 25.6485 102.456 25.7938ZM68.6968 45.5469C65.7865 44.8188 65.7868 44.8178 65.787 44.8169L65.7888 44.8096L65.7923 44.7961L65.8025 44.7565C65.8108 44.7245 65.8222 44.6814 65.8368 44.6278C65.8659 44.5205 65.9077 44.3711 65.9629 44.1842C66.0733 43.8107 66.2378 43.2857 66.4626 42.6471C66.911 41.3735 67.6065 39.6274 68.6028 37.7191C70.5634 33.9641 73.8547 29.2627 79.0241 26.5377C84.0524 23.8871 90.9913 23.0714 96.3047 22.8409C99.0303 22.7227 101.465 22.7548 103.219 22.8161C104.098 22.8468 104.809 22.885 105.305 22.9159C105.553 22.9314 105.748 22.945 105.883 22.955C105.95 22.96 106.003 22.964 106.04 22.967L106.084 22.9705L106.097 22.9715L106.103 22.9721C106.104 22.9722 106.103 22.9721 105.851 25.9615C108.46 27.4423 108.46 27.4418 108.46 27.4423L108.456 27.4482L108.45 27.4595L108.428 27.4975C108.41 27.5296 108.383 27.5754 108.349 27.6339C108.281 27.7508 108.183 27.9191 108.055 28.1325C107.8 28.5593 107.43 29.1679 106.959 29.91C106.018 31.3917 104.669 33.4187 103.031 35.6006C99.8381 39.8541 95.2441 45.1179 90.2158 47.7685C85.0464 50.4935 79.3077 50.5523 75.1018 50.0478C72.9644 49.7915 71.1308 49.3786 69.8267 49.0288C69.1727 48.8534 68.6467 48.6925 68.2761 48.5724C68.0907 48.5124 67.9439 48.4624 67.839 48.4259C67.7865 48.4076 67.7445 48.3926 67.7133 48.3814L67.6749 48.3675L67.6618 48.3627L67.6548 48.3601C67.6539 48.3597 67.653 48.3594 68.6968 45.5469ZM65.7865 44.8188L68.6968 45.5469L67.653 48.3594C66.2194 47.8274 65.4154 46.3022 65.7865 44.8188Z" fill="#156319"/>
<path d="M88.0556 43.7769C95.5325 39.8355 102.766 27.9256 102.766 27.9256C85.7646 32.258 74.623 40.832 71.1775 44.5775C71.1775 44.5775 80.5787 47.7183 88.0556 43.7769Z" fill="#79C01E"/>
<path d="M55.4191 37.7281C58.5 39 66 51 68.0861 57.0956C68.2601 57.6041 69.6571 57.0723 69.5113 56.6281C68.6621 51.0021 65.25 37.5 61.5 33C57.1034 33.2611 55.4295 36.4946 55.4191 37.7281Z" fill="#8C5936"/>
<path fill-rule="evenodd" clip-rule="evenodd" d="M54.2471 40.4898C53.1312 40.0163 52.4089 38.9168 52.4192 37.7028C52.4327 36.1071 53.3199 34.2879 54.6656 32.9063C56.1422 31.3903 58.3568 30.1815 61.3221 30.0053C62.2732 29.9488 63.1947 30.3475 63.8047 31.0795C65.0174 32.5348 66.0691 34.5333 66.9672 36.6068C67.8851 38.7259 68.7263 41.1222 69.4608 43.5097C70.9018 48.1935 71.992 53.0397 72.4554 56.0348C72.8222 57.7052 71.7412 58.8586 71.4082 59.1656C70.9163 59.6192 70.3605 59.8911 69.9198 60.0472C69.4874 60.2003 68.8443 60.3559 68.1157 60.2859C67.4162 60.2187 65.841 59.801 65.2476 58.067C64.3176 55.3494 62.0666 51.0585 59.6022 47.2254C58.3836 45.33 57.1661 43.6302 56.1025 42.3572C55.5695 41.7194 55.1092 41.2296 54.7358 40.8875C54.4023 40.5821 54.2424 40.4914 54.2438 40.4888C54.2439 40.4886 54.245 40.489 54.2471 40.4898ZM69.5113 56.6282C69.5103 56.6218 69.5094 56.6153 69.5084 56.6089C69.411 55.9663 69.2805 55.2217 69.12 54.4002C68.8599 53.0686 68.5211 51.5347 68.1178 49.9047C66.5873 43.7199 64.1265 36.1519 61.5 33C59.2676 33.1327 57.7372 34.0315 56.7701 35.0458C56.5917 35.2328 56.4325 35.4239 56.2915 35.6147C55.6917 36.427 55.4232 37.2365 55.419 37.7282C57.6415 38.6456 62.1633 45.1454 65.2938 50.9845C66.0247 52.3478 66.6797 53.675 67.212 54.8868C67.5194 55.5869 67.7859 56.2483 68.0023 56.856C68.0311 56.9368 68.059 57.0167 68.086 57.0957C68.26 57.6042 69.657 57.0724 69.5113 56.6282ZM66.5341 57.0048C66.5562 57.1824 66.5969 57.3687 66.6607 57.5632C66.6086 57.4043 66.5699 57.2413 66.5449 57.0759C66.5413 57.0524 66.5377 57.0287 66.5341 57.0048Z" fill="#583A24"/>
<path d="M62.499 33.5211C63.3018 34.6373 62.3755 36.6765 60.4299 38.0758C58.4844 39.4751 56.2565 39.7046 55.4536 38.5884C54.6508 37.4722 55.5771 35.433 57.5227 34.0337C59.4682 32.6344 61.6961 32.4049 62.499 33.5211Z" fill="#C27A49"/>
<path d="M63.6821 66.9947C66.1845 71.2894 62.9908 77.8138 56.5488 81.5674C50.1067 85.321 42.8558 84.8824 40.3534 80.5876C37.851 76.2929 41.0447 69.7685 47.4868 66.0149C53.9288 62.2613 61.1797 62.7 63.6821 66.9947Z" fill="#FFC671"/>
<path fill-rule="evenodd" clip-rule="evenodd" d="M51.1246 70.732C52.0093 72.1329 51.5907 73.9857 50.1898 74.8704C49.121 75.5453 48.2956 76.362 47.6722 77.3236C46.771 78.7139 44.9133 79.1104 43.523 78.2091C42.1327 77.3079 41.7363 75.4502 42.6376 74.0599C43.7557 72.3351 45.2191 70.9131 46.9862 69.7972C48.3871 68.9125 50.24 69.3311 51.1246 70.732Z" fill="white"/>
</g>
<defs>
<filter id="filter0_d" x="0" y="0" width="146" height="146" filterUnits="userSpaceOnUse" color-interpolation-filters="sRGB">
<feFlood flood-opacity="0" result="BackgroundImageFix"/>
<feColorMatrix in="SourceAlpha" type="matrix" values="0 0 0 0 0 0 0 0 0 0 0 0 0 0 0 0 0 0 127 0"/>
<feOffset dx="2" dy="2"/>
<feColorMatrix type="matrix" values="0 0 0 0 0 0 0 0 0 0 0 0 0 0 0 0 0 0 0.2 0"/>
<feBlend mode="normal" in2="BackgroundImageFix" result="effect1_dropShadow"/>
<feBlend mode="normal" in="SourceGraphic" in2="effect1_dropShadow" result="shape"/>
</filter>
</defs>
</svg>
