<svg width="48" height="48" viewBox="0 0 48 48" fill="none" xmlns="http://www.w3.org/2000/svg">
<circle cx="24" cy="23.9998" r="19.1377" fill="#FB9CCB" stroke="white" stroke-width="0.3"/>
<ellipse cx="24.0001" cy="23.9998" rx="15.3783" ry="15.3783" fill="#FDECF4"/>
<path opacity="0.32" fill-rule="evenodd" clip-rule="evenodd" d="M22.8931 38.2714C31.3862 38.2714 38.2713 31.3863 38.2713 22.8931C38.2713 18.9278 36.7706 15.3131 34.3061 12.5859C37.4209 15.4002 39.3783 19.4715 39.3783 24C39.3783 32.4931 32.4932 39.3782 24 39.3782C19.4721 39.3782 15.4012 37.4213 12.587 34.3071C15.3141 36.771 18.9284 38.2714 22.8931 38.2714Z" fill="#A880F7"/>
<path opacity="0.61" fill-rule="evenodd" clip-rule="evenodd" d="M35.4144 13.6942C32.6872 11.2296 29.0724 9.72871 25.107 9.72871C16.6138 9.72871 9.72875 16.6138 9.72875 25.107C9.72875 29.0715 11.2289 32.6856 13.6926 35.4126C10.5786 32.5984 8.62179 28.5277 8.62179 23.9998C8.62179 15.5067 15.5069 8.62158 24.0001 8.62158C28.5287 8.62158 32.6002 10.5791 35.4144 13.6942Z" fill="#D5C1FC"/>
<path d="M31.3666 18.8417C30.941 18.4159 30.4356 18.0781 29.8794 17.8476C29.3232 17.6172 28.727 17.4985 28.125 17.4985C27.5229 17.4985 26.9267 17.6172 26.3705 17.8476C25.8143 18.0781 25.3089 18.4159 24.8833 18.8417L24 19.7251L23.1166 18.8417C22.2569 17.982 21.0908 17.499 19.875 17.499C18.6591 17.499 17.493 17.982 16.6333 18.8417C15.7736 19.7015 15.2906 20.8675 15.2906 22.0834C15.2906 23.2993 15.7736 24.4653 16.6333 25.3251L17.5166 26.2084L22.8215 31.5132C23.4723 32.1641 24.5276 32.1641 25.1785 31.5132L30.4833 26.2084L31.3666 25.3251C31.7925 24.8994 32.1303 24.3941 32.3607 23.8379C32.5912 23.2816 32.7098 22.6855 32.7098 22.0834C32.7098 21.4813 32.5912 20.8851 32.3607 20.3289C32.1303 19.7727 31.7925 19.2674 31.3666 18.8417Z" fill="#FB9CCB"/>
</svg>
