<svg width="144" height="145" viewBox="0 0 144 145" fill="none" xmlns="http://www.w3.org/2000/svg">
<g filter="url(#filter0_d)">
<path d="M52.053 69.2865C46.9347 78.5441 42 79.25 42 93.135C42 109.866 55.4315 122.209 72 122.209C88.5685 122.209 102 111.171 102 94.4394C102 80.5544 96.5358 79.2499 90.9486 69.7313C84.7557 59.1806 88.8991 43.9485 71.3991 43.9485C52.3991 43.9485 58.0767 58.3912 52.053 69.2865Z" fill="#A4D31F"/>
<path fill-rule="evenodd" clip-rule="evenodd" d="M45.9183 73.1719C47.0663 71.633 48.2431 69.9772 49.4275 67.8349C50.7107 65.514 51.4132 62.9268 52.0104 60.1089C52.1397 59.4989 52.2663 58.8624 52.3959 58.2109C52.8325 56.0165 53.3028 53.6522 54.0227 51.5569C55.0017 48.7077 56.5664 45.9106 59.5168 43.8974C62.4244 41.9133 66.3005 40.9485 71.3991 40.9485C76.2069 40.9485 79.9128 41.9984 82.7412 44.0753C85.5588 46.1441 87.1502 48.9739 88.2224 51.8285C89.0165 53.9424 89.602 56.3091 90.1494 58.5218C90.3169 59.1988 90.4808 59.8613 90.6461 60.4979C91.3877 63.3546 92.2075 65.9496 93.5359 68.2127C94.8369 70.4292 96.1357 72.1782 97.4054 73.8194C97.6055 74.0781 97.808 74.3378 98.0117 74.5991C99.0681 75.9542 100.156 77.3498 101.102 78.8399C103.514 82.6385 105 87.0112 105 94.4394C105 113.136 89.899 125.209 72 125.209C53.9104 125.209 39 111.656 39 93.135C39 85.7644 40.3276 81.5477 42.5464 77.9125C43.3936 76.5246 44.3713 75.2273 45.3115 73.9798C45.5161 73.7083 45.719 73.4391 45.9183 73.1719ZM47.6753 75.8284C49.036 74.0217 50.5365 72.0294 52.053 69.2864C53.9233 65.9036 54.6655 62.1788 55.3686 58.6505C56.93 50.8149 58.2983 43.9485 71.3991 43.9485C83.4489 43.9485 85.2372 51.1702 87.2041 59.1128C88.0937 62.7054 89.0199 66.4454 90.9486 69.7313C92.5766 72.5047 94.194 74.5807 95.6689 76.4738C99.2561 81.0781 102 84.6 102 94.4394C102 111.171 88.5685 122.209 72 122.209C55.4315 122.209 42 109.866 42 93.135C42 83.3641 44.4437 80.1194 47.6753 75.8284Z" fill="#5B7C14"/>
<path fill-rule="evenodd" clip-rule="evenodd" d="M50.7416 113.903C53.279 115.085 56.0308 115.95 58.9468 116.443C75.2829 119.209 90.3685 110.567 93.1611 94.0701C94.8034 84.3687 92.6858 80.4382 89.9174 75.2998C88.7792 73.1871 87.5309 70.8702 86.3888 67.864C85.0355 64.3023 84.7466 60.4601 84.4691 56.7695C84.2654 54.0612 84.0679 51.4344 83.4604 49.0599C85.3931 51.8004 86.2788 55.3769 87.2039 59.113C88.0936 62.7055 89.0197 66.4455 90.9485 69.7314C92.5764 72.5048 94.1938 74.5809 95.6688 76.4739C99.2559 81.0782 102 84.6001 102 94.4395C102 111.171 88.5684 122.209 71.9998 122.209C63.6926 122.209 56.174 119.107 50.7416 113.903Z" fill="#92BC1B"/>
<path d="M60.3912 72.3323C63.6506 74.2036 63.7889 80.0818 60.7002 85.4618C57.6114 90.8417 52.4653 93.6861 49.2059 91.8149C45.9466 89.9436 45.8082 84.0653 48.897 78.6854C51.9857 73.3054 57.1319 70.461 60.3912 72.3323Z" fill="#BBEB35"/>
<path d="M67.376 47.1599C68.549 48.2131 68.0906 50.6365 66.3521 52.5727C64.6136 54.5088 62.2534 55.2246 61.0804 54.1713C59.9074 53.1181 60.3659 50.6947 62.1044 48.7586C63.8428 46.8224 66.2031 46.1067 67.376 47.1599Z" fill="#BBEB35"/>
<path fill-rule="evenodd" clip-rule="evenodd" d="M54.3602 80.1395C55.683 81.1372 55.9464 83.0184 54.9486 84.3411C54.4578 84.9917 54.1967 85.5316 54.0707 85.9602C53.6034 87.5498 51.9359 88.4596 50.3463 87.9922C48.7567 87.5249 47.847 85.8574 48.3143 84.2678C48.6863 83.0026 49.3327 81.8227 50.1586 80.7278C51.1564 79.4051 53.0375 79.1417 54.3602 80.1395Z" fill="white"/>
<path d="M92.9544 26.2879C92.9544 26.2879 87.9992 35.0183 82.7106 37.8062C77.4221 40.594 70.6109 38.0661 70.6109 38.0661C70.6109 38.0661 72.3743 31.0182 77.6628 28.2304C82.9514 25.4426 92.9544 26.2879 92.9544 26.2879Z" fill="#87D623"/>
<path fill-rule="evenodd" clip-rule="evenodd" d="M95.5634 27.7687L92.9544 26.2879L93.207 23.2985C94.2262 23.3847 95.1313 23.9841 95.6082 24.8889C96.0852 25.7937 96.0683 26.8792 95.5634 27.7687ZM89.514 26.1674C91.5494 26.1691 92.9544 26.2879 92.9544 26.2879C92.9544 26.2879 92.2584 27.5142 91.1096 29.1943C89.1933 31.9972 86.0171 36.0632 82.7106 37.8062C77.422 40.594 70.6109 38.0661 70.6109 38.0661C70.6109 38.0661 72.3742 31.0182 77.6628 28.2304C80.9693 26.4874 86.1187 26.1646 89.514 26.1674ZM70.6109 38.0661C67.7006 37.338 67.7008 37.3371 67.7011 37.3361L67.7016 37.3341L67.7027 37.3297L67.7055 37.3188L67.7131 37.2892C67.7191 37.2661 67.727 37.2362 67.7369 37.1999C67.7566 37.1273 67.7841 37.029 67.8199 36.9078C67.8915 36.6656 67.9966 36.3304 68.1393 35.9251C68.4233 35.1184 68.8631 34.014 69.4943 32.8052C70.7244 30.4491 72.8472 27.3776 76.2638 25.5765C79.5394 23.8498 83.9442 23.3561 87.1618 23.2165C88.8396 23.1437 90.3361 23.1635 91.4136 23.2012C91.9539 23.2201 92.3926 23.2436 92.7006 23.2628C92.8547 23.2724 92.9763 23.2809 93.0619 23.2872L93.1628 23.2949L93.1921 23.2973L93.2047 23.2983L93.207 23.2985C93.2076 23.2986 93.207 23.2985 92.9544 26.2879C95.5634 27.7687 95.5637 27.7682 95.5634 27.7687L95.5623 27.7708L95.5561 27.7817L95.5414 27.8072L95.4908 27.8948C95.4476 27.969 95.3859 28.0741 95.3068 28.2067C95.1485 28.4716 94.92 28.8469 94.6303 29.3033C94.0525 30.2136 93.2231 31.4595 92.215 32.8025C90.2816 35.3783 87.3851 38.7333 84.1095 40.46C80.6929 42.2611 76.9593 42.2767 74.3203 41.9602C72.9663 41.7978 71.8066 41.5367 70.9806 41.3151C70.5656 41.2038 70.2296 41.1011 69.9894 41.0233C69.8691 40.9843 69.7724 40.9515 69.7015 40.9267C69.666 40.9143 69.6368 40.904 69.6144 40.8959L69.5856 40.8855L69.5751 40.8816L69.5688 40.8793C69.5679 40.879 69.567 40.8786 70.6109 38.0661ZM67.7006 37.338L70.6109 38.0661L69.567 40.8786C68.1334 40.3466 67.3295 38.8214 67.7006 37.338Z" fill="#156319"/>
<path d="M82.2528 37.0016C86.7492 34.6313 91.0995 27.4689 91.0995 27.4689C80.875 30.0743 74.1748 35.2306 72.1027 37.483C72.1027 37.483 77.7564 39.3718 82.2528 37.0016Z" fill="#79C01E"/>
<path d="M62.4556 29.812C64.3885 30.61 69.0938 38.1385 70.4026 41.9628C70.5117 42.2818 71.3882 41.9482 71.2968 41.6695C70.764 38.1399 68.6233 29.6689 66.2706 26.8457C63.5123 27.0096 62.4621 29.0381 62.4556 29.812Z" fill="#8C5936"/>
<path fill-rule="evenodd" clip-rule="evenodd" d="M61.1502 32.5132C60.1105 32.0111 59.4458 30.9516 59.4556 29.7866C59.4672 28.4207 60.1975 27.0177 61.1821 26.0068C62.2974 24.8617 63.9465 23.9784 66.0927 23.8509C67.0438 23.7944 67.9653 24.1931 68.5752 24.9251C69.4386 25.9612 70.1489 27.3309 70.7264 28.6641C71.3236 30.043 71.865 31.5877 72.3335 33.1105C73.2437 36.069 73.9373 39.1375 74.2415 41.0809C74.5915 42.7054 73.5373 43.8133 73.2446 44.0832C72.7949 44.4979 72.3011 44.7355 71.9261 44.8683C71.5594 44.9981 70.9858 45.1415 70.3142 45.077C69.6718 45.0153 68.1413 44.6208 67.5641 42.9341C67.0227 41.3521 65.6647 38.747 64.1396 36.3749C63.3907 35.21 62.6544 34.1845 62.0265 33.4329C61.7113 33.0557 61.4573 32.7884 61.2717 32.6184C61.2168 32.568 61.1764 32.5342 61.1502 32.5132ZM71.2967 41.6695C71.2961 41.6655 71.2955 41.6614 71.2949 41.6574C71.1901 40.966 71.0241 40.0865 70.8073 39.098C70.4163 37.3161 69.8602 35.1797 69.1996 33.1505C68.3522 30.5472 67.333 28.1206 66.2706 26.8457C65.4663 26.8934 64.8072 27.0998 64.2769 27.3873C63.7135 27.6928 63.2954 28.09 63.0029 28.486C62.6266 28.9957 62.4581 29.5035 62.4555 29.812C63.3818 30.1944 64.9446 32.1223 66.4653 34.4475C67.5291 36.0741 68.5723 37.8952 69.3624 39.5176C69.7693 40.3531 70.1091 41.1359 70.35 41.8124C70.3681 41.8631 70.3856 41.9133 70.4025 41.9628C70.5117 42.2818 71.3881 41.9482 71.2967 41.6695ZM68.3129 42.004C68.3347 42.1947 68.3775 42.3951 68.4461 42.6045C68.394 42.4456 68.3553 42.2826 68.3303 42.1173C68.3247 42.0802 68.3189 42.0424 68.3129 42.004Z" fill="#583A24"/>
<path d="M66.8973 27.1726C67.4009 27.8728 66.8198 29.1522 65.5992 30.0301C64.3786 30.908 62.9808 31.052 62.4772 30.3517C61.9735 29.6514 62.5547 28.3721 63.7752 27.4942C64.9958 26.6163 66.3936 26.4723 66.8973 27.1726Z" fill="#C27A49"/>
<path d="M90.2608 86.992C90.2608 88.4327 89.0929 89.6007 87.6522 89.6007C86.2114 89.6007 85.0435 88.4327 85.0435 86.992C85.0435 85.5513 86.2114 84.3833 87.6522 84.3833C89.0929 84.3833 90.2608 85.5513 90.2608 86.992Z" fill="#83A918"/>
<path d="M98.0869 92.2094C98.0869 93.6501 96.919 94.8181 95.4782 94.8181C94.0375 94.8181 92.8695 93.6501 92.8695 92.2094C92.8695 90.7687 94.0375 89.6007 95.4782 89.6007C96.919 89.6007 98.0869 90.7687 98.0869 92.2094Z" fill="#83A918"/>
<path d="M96.7826 83.7311C96.7826 84.8116 95.9066 85.6876 94.826 85.6876C93.7455 85.6876 92.8695 84.8116 92.8695 83.7311C92.8695 82.6505 93.7455 81.7745 94.826 81.7745C95.9066 81.7745 96.7826 82.6505 96.7826 83.7311Z" fill="#83A918"/>
<path d="M98.0869 101.34C98.0869 102.781 96.919 103.948 95.4782 103.948C94.0375 103.948 92.8695 102.781 92.8695 101.34C92.8695 99.899 94.0375 98.7311 95.4782 98.7311C96.919 98.7311 98.0869 99.899 98.0869 101.34Z" fill="#83A918"/>
<path d="M90.2608 96.1225C90.2608 97.5632 89.0929 98.7312 87.6522 98.7312C86.2114 98.7312 85.0435 97.5632 85.0435 96.1225C85.0435 94.6817 86.2114 93.5138 87.6522 93.5138C89.0929 93.5138 90.2608 94.6817 90.2608 96.1225Z" fill="#83A918"/>
<path d="M92.8696 109.166C92.8696 110.607 91.7017 111.775 90.2609 111.775C88.8202 111.775 87.6522 110.607 87.6522 109.166C87.6522 107.725 88.8202 106.557 90.2609 106.557C91.7017 106.557 92.8696 107.725 92.8696 109.166Z" fill="#83A918"/>
<path d="M85.0434 105.253C85.0434 106.694 83.8755 107.862 82.4347 107.862C80.994 107.862 79.826 106.694 79.826 105.253C79.826 103.812 80.994 102.644 82.4347 102.644C83.8755 102.644 85.0434 103.812 85.0434 105.253Z" fill="#83A918"/>
<path d="M86.3479 115.035C86.3479 116.116 85.4719 116.992 84.3913 116.992C83.3108 116.992 82.4348 116.116 82.4348 115.035C82.4348 113.955 83.3108 113.079 84.3913 113.079C85.4719 113.079 86.3479 113.955 86.3479 115.035Z" fill="#83A918"/>
</g>
<defs>
<filter id="filter0_d" x="0" y="0.5" width="146" height="146" filterUnits="userSpaceOnUse" color-interpolation-filters="sRGB">
<feFlood flood-opacity="0" result="BackgroundImageFix"/>
<feColorMatrix in="SourceAlpha" type="matrix" values="0 0 0 0 0 0 0 0 0 0 0 0 0 0 0 0 0 0 127 0"/>
<feOffset dx="2" dy="2"/>
<feColorMatrix type="matrix" values="0 0 0 0 0 0 0 0 0 0 0 0 0 0 0 0 0 0 0.2 0"/>
<feBlend mode="normal" in2="BackgroundImageFix" result="effect1_dropShadow"/>
<feBlend mode="normal" in="SourceGraphic" in2="effect1_dropShadow" result="shape"/>
</filter>
</defs>
</svg>
