<svg width="144" height="144" viewBox="0 0 144 144" fill="none" xmlns="http://www.w3.org/2000/svg">
<g filter="url(#filter0_d)">
<path d="M106.529 76.4314C106.824 89.0583 100.422 107.935 84.0862 115.633C79.9805 117.568 77.6988 115.691 72.747 115.93C68.3226 116.143 66.9558 117.703 62.742 116.194C45.2434 109.929 37.4736 91.5777 37.1576 78.0522C36.7445 60.3695 51.2089 51.0281 71.5003 62.5672C89.9122 50.7913 106.116 58.7487 106.529 76.4314Z" fill="#FF542F"/>
<path fill-rule="evenodd" clip-rule="evenodd" d="M71.4145 59.1007C61.3766 53.8228 52.1704 53.1343 45.2047 56.6775C37.8014 60.4433 33.933 68.4696 34.1585 78.1222C34.4925 92.4141 42.6726 112.195 61.7308 119.019C64.3642 119.962 66.276 119.969 68.1411 119.67C68.7816 119.567 69.3046 119.459 69.7964 119.357C70.7392 119.161 71.5679 118.99 72.8916 118.926C74.4649 118.85 75.5978 119.012 76.8856 119.197C77.3561 119.264 77.8472 119.335 78.388 119.397C80.4315 119.635 82.6407 119.631 85.3652 118.347C103.146 109.968 109.84 89.7023 109.528 76.3613C109.299 66.5737 104.624 58.9652 96.9398 55.6922C89.7502 52.6299 80.6524 53.6711 71.4145 59.1007ZM84.0863 115.633C100.422 107.935 106.824 89.0583 106.529 76.4314C106.116 58.7487 89.9123 50.7913 71.5004 62.5671C51.209 51.0281 36.7446 60.3694 37.1577 78.0522C37.4737 91.5777 45.2435 109.929 62.7421 116.194C65.478 117.174 67.0137 116.86 68.9654 116.461C70.0197 116.245 71.1953 116.004 72.7471 115.929C74.6301 115.839 76.127 116.054 77.4849 116.249C79.6979 116.567 81.5418 116.832 84.0863 115.633Z" fill="#734125"/>
<path fill-rule="evenodd" clip-rule="evenodd" d="M77.4141 107.627C93.7502 99.9283 98.8172 81.0517 98.5222 68.4249C98.4358 64.7271 97.6589 61.4547 96.3157 58.699C102.406 61.554 106.328 67.8466 106.529 76.4314C106.824 89.0583 100.422 107.935 84.0862 115.633C81.5418 116.833 79.6979 116.567 77.4848 116.249C76.1269 116.054 74.6301 115.839 72.7471 115.93C71.1953 116.004 70.0196 116.245 68.9653 116.461C67.0137 116.86 65.4779 117.174 62.742 116.194C56.3418 113.903 51.2431 109.995 47.3346 105.297C49.1895 106.428 51.2084 107.403 53.4011 108.188C56.223 109.198 58.3665 108.832 60.8035 108.416C62.0056 108.211 63.279 107.993 64.7406 107.923C66.5755 107.835 68.227 108.037 69.788 108.228C72.4395 108.552 74.8298 108.845 77.4141 107.627Z" fill="#ED4A27"/>
<path d="M96.5724 73.112C96.3688 74.5719 95.0203 75.5902 93.5604 75.3866C92.1006 75.1829 91.0823 73.8344 91.2859 72.3746C91.4896 70.9147 92.8381 69.8964 94.2979 70.1001C95.7577 70.3037 96.7761 71.6522 96.5724 73.112Z" fill="#C53622"/>
<path d="M103.796 80.8387C103.592 82.2986 102.244 83.3169 100.784 83.1132C99.3241 82.9096 98.3058 81.5611 98.5094 80.1013C98.7131 78.6414 100.062 77.6231 101.521 77.8267C102.981 78.0304 104 79.3789 103.796 80.8387Z" fill="#C53622"/>
<path d="M103.641 70.7298C103.489 71.8246 102.477 72.5884 101.382 72.4356C100.288 72.2829 99.5238 71.2715 99.6766 70.1767C99.8293 69.0818 100.841 68.318 101.936 68.4708C103.03 68.6235 103.794 69.6349 103.641 70.7298Z" fill="#C53622"/>
<path d="M101.171 90.1212C100.968 91.581 99.6191 92.5994 98.1593 92.3957C96.6995 92.1921 95.6812 90.8436 95.8848 89.3837C96.0885 87.9239 97.437 86.9056 98.8968 87.1092C100.357 87.3129 101.375 88.6614 101.171 90.1212Z" fill="#C53622"/>
<path d="M93.9478 82.3944C93.7441 83.8542 92.3956 84.8726 90.9358 84.6689C89.476 84.4653 88.4576 83.1167 88.6613 81.6569C88.8649 80.1971 90.2135 79.1788 91.6733 79.3824C93.1331 79.5861 94.1514 80.9346 93.9478 82.3944Z" fill="#C53622"/>
<path d="M96.7666 100.239C96.563 101.699 95.2145 102.717 93.7547 102.514C92.2948 102.31 91.2765 100.961 91.4801 99.5016C91.6838 98.0418 93.0323 97.0235 94.4921 97.2271C95.952 97.4308 96.9703 98.7793 96.7666 100.239Z" fill="#C53622"/>
<path d="M91.4041 92.1489C91.2004 93.6087 89.8519 94.6271 88.3921 94.4234C86.9323 94.2198 85.9139 92.8713 86.1176 91.4114C86.3212 89.9516 87.6698 88.9333 89.1296 89.1369C90.5894 89.3406 91.6077 90.6891 91.4041 92.1489Z" fill="#C53622"/>
<path d="M91.4757 106.163C91.3229 107.258 90.3116 108.021 89.2167 107.869C88.1218 107.716 87.3581 106.705 87.5108 105.61C87.6635 104.515 88.6749 103.751 89.7698 103.904C90.8647 104.057 91.6284 105.068 91.4757 106.163Z" fill="#C53622"/>
<path d="M86.4718 35.2485C86.4718 35.2485 89.4368 47.4737 86.3148 54.1297C82.5519 62.1519 71.1885 62.6584 71.1885 62.6584C71.1885 62.6584 67.7479 53.2805 72.2946 45.1262C75.7921 38.8537 86.4718 35.2485 86.4718 35.2485Z" fill="#7CD623"/>
<path fill-rule="evenodd" clip-rule="evenodd" d="M89.3874 34.5413L86.4719 35.2484L85.5123 32.406C86.3094 32.1369 87.1829 32.2149 87.9197 32.6209C88.6566 33.027 89.1891 33.7237 89.3874 34.5413ZM83.6522 36.3803C85.3215 35.6368 86.4719 35.2484 86.4719 35.2484C86.4719 35.2484 86.7551 36.4162 87.0543 38.2265C87.7232 42.2734 88.4719 49.5308 86.3148 54.1296C82.5519 62.1518 71.1885 62.6583 71.1885 62.6583C71.1885 62.6583 67.7479 53.2804 72.2946 45.1262C74.6442 40.9123 80.2353 37.9022 83.6522 36.3803ZM71.1885 62.6583C68.3721 63.6916 68.3717 63.6906 68.3713 63.6895L68.3686 63.6821L68.3639 63.669L68.3508 63.6325C68.3406 63.6036 68.3274 63.5656 68.3114 63.5189C68.2795 63.4253 68.2369 63.2965 68.1864 63.1351C68.0855 62.8125 67.9527 62.358 67.8115 61.7928C67.5299 60.666 67.2101 59.08 67.0478 57.2094C66.7262 53.5025 67.0056 48.4517 69.6744 43.6652C71.8604 39.7447 76.0587 36.9369 79.2644 35.1981C80.9329 34.2931 82.4767 33.6021 83.6035 33.1368C84.1688 32.9034 84.6338 32.7248 84.963 32.6028C85.1277 32.5417 85.2588 32.4946 85.3517 32.4618C85.3982 32.4453 85.4352 32.4325 85.4621 32.4232L85.495 32.4119L85.5095 32.407L85.5123 32.406C85.513 32.4058 85.5123 32.406 86.4719 35.2484C89.3874 34.5413 89.3872 34.5407 89.3874 34.5413L89.3889 34.5478L89.3915 34.5587L89.3999 34.5937L89.4282 34.7153C89.4519 34.8188 89.4852 34.9663 89.5256 35.1536C89.6064 35.528 89.7163 36.0624 89.8372 36.7216C90.0782 38.0364 90.3662 39.8659 90.5519 41.9233C90.9081 45.8694 90.9576 51.2959 89.0308 55.4036C86.6479 60.484 81.9566 62.9975 78.3091 64.2417C76.4457 64.8772 74.7283 65.2269 73.4787 65.419C72.8507 65.5155 72.332 65.5736 71.9614 65.608C71.7758 65.6253 71.6267 65.6366 71.5187 65.6439C71.4647 65.6475 71.4209 65.6501 71.388 65.652L71.3467 65.6542L71.3323 65.6549L71.3267 65.6551L71.3243 65.6552C71.3232 65.6553 71.3221 65.6553 71.1885 62.6583ZM68.3721 63.6916L71.1885 62.6583L71.3221 65.6553C70.0159 65.7136 68.8224 64.9191 68.3721 63.6916Z" fill="#156319"/>
<path d="M84.3049 54.1751C87.1069 49.15 85.4581 38.9296 85.4581 38.9296C77.1295 47.5823 75.033 57.196 74.5573 60.6676C74.5573 60.6676 81.503 59.2002 84.3049 54.1751Z" fill="#6FC21C"/>
<path d="M55.5342 49.3733C58.4182 50.0624 67.98 58.1983 70.6606 63.2643C70.8842 63.687 72.0378 63.0254 71.8479 62.6554C70.3194 57.83 65.4436 46.4405 61.5227 43.0079C56.3581 42.8991 55.3718 48.288 55.5342 49.3733Z" fill="#943D31"/>
<path fill-rule="evenodd" clip-rule="evenodd" d="M54.837 52.2912C53.6466 52.0067 52.7483 51.0277 52.5673 49.8172C52.4464 49.0091 52.5651 48.0467 52.7509 47.2356C52.9572 46.3352 53.3282 45.2614 53.9509 44.2119C55.2551 42.0141 57.7067 39.9269 61.586 40.0086C62.291 40.0234 62.9683 40.2862 63.4989 40.7507C64.8026 41.892 66.0247 43.5335 67.1079 45.2393C68.2176 46.9871 69.2959 48.9872 70.2767 50.9898C72.1969 54.9105 73.8329 59.0248 74.6636 61.6105C75.2799 63.1903 74.3983 64.484 74.1275 64.8265C73.7231 65.3381 73.2332 65.6807 72.8404 65.8938C72.4554 66.1028 71.8643 66.3502 71.1506 66.3939C70.4662 66.4359 68.8592 66.2743 68.009 64.6675C66.932 62.632 64.2137 59.6259 61.1765 56.916C59.7022 55.6007 58.2463 54.4385 57.0194 53.5814C56.405 53.1522 55.8782 52.8207 55.4572 52.5893C55.0765 52.38 54.8821 52.3084 54.842 52.2937C54.8335 52.2905 54.832 52.29 54.837 52.2912ZM71.848 62.6554C71.8463 62.6499 71.8445 62.6444 71.8428 62.6388C71.6395 61.9985 71.3778 61.2436 71.0676 60.4077C70.6735 59.3461 70.2012 58.154 69.6711 56.9001C67.4667 51.6865 64.2617 45.4058 61.5228 43.0079C56.3582 42.8992 55.3719 48.288 55.5342 49.3733C57.6134 49.8701 63.1634 54.2374 67.1035 58.5345C67.9373 59.4438 68.699 60.35 69.3405 61.2157C69.8178 61.8599 70.2285 62.4817 70.5529 63.0656C70.5899 63.1324 70.6259 63.1986 70.6606 63.2644C70.8843 63.687 72.0378 63.0255 71.848 62.6554ZM68.9619 63.4791C69.012 63.6554 69.0828 63.8376 69.1786 64.0245C69.1023 63.8757 69.0386 63.7208 68.9881 63.5613C68.9795 63.5342 68.9707 63.5067 68.9619 63.4791Z" fill="#633526"/>
<path d="M62.5212 43.1081C63.4635 44.1133 62.807 46.2597 61.0549 47.9021C59.3028 49.5445 57.1186 50.0611 56.1763 49.0558C55.234 48.0506 55.8904 45.9043 57.6425 44.2618C59.3946 42.6194 61.5788 42.1029 62.5212 43.1081Z" fill="#C26649"/>
<path d="M57.2687 62.6647C61.2362 64.6173 62.078 71.0245 59.1491 76.9756C56.2202 82.9268 50.6296 86.1682 46.6622 84.2156C42.6947 82.263 41.8529 75.8557 44.7818 69.9046C47.7107 63.9535 53.3013 60.712 57.2687 62.6647Z" fill="#FF896F"/>
<path fill-rule="evenodd" clip-rule="evenodd" d="M52.6756 67.4413C53.948 68.5026 54.1191 70.3943 53.0578 71.6667C52.3666 72.4953 51.9144 73.3697 51.6626 74.3057C51.2322 75.9057 49.5862 76.8538 47.9863 76.4233C46.3863 75.9929 45.4382 74.347 45.8686 72.747C46.3567 70.9326 47.2301 69.2862 48.4502 67.8234C49.5115 66.5511 51.4033 66.38 52.6756 67.4413Z" fill="white"/>
</g>
<defs>
<filter id="filter0_d" x="0" y="0" width="146" height="146" filterUnits="userSpaceOnUse" color-interpolation-filters="sRGB">
<feFlood flood-opacity="0" result="BackgroundImageFix"/>
<feColorMatrix in="SourceAlpha" type="matrix" values="0 0 0 0 0 0 0 0 0 0 0 0 0 0 0 0 0 0 127 0"/>
<feOffset dx="2" dy="2"/>
<feColorMatrix type="matrix" values="0 0 0 0 0 0 0 0 0 0 0 0 0 0 0 0 0 0 0.2 0"/>
<feBlend mode="normal" in2="BackgroundImageFix" result="effect1_dropShadow"/>
<feBlend mode="normal" in="SourceGraphic" in2="effect1_dropShadow" result="shape"/>
</filter>
</defs>
</svg>
