<svg width="144" height="144" viewBox="0 0 144 144" fill="none" xmlns="http://www.w3.org/2000/svg">
<g filter="url(#filter0_d)">
<path fill-rule="evenodd" clip-rule="evenodd" d="M108.378 78.5995C109.051 92.4853 97.097 106.417 79.4608 111.17C61.8874 115.905 44.6123 109.926 38.1628 97.6711C35.1819 98.4401 32.2037 96.9348 31.4897 94.2852C30.7757 91.6356 32.5942 88.8376 35.5579 88.0046C34.9764 74.1682 46.9081 60.3188 64.4814 55.5832C82.1175 50.8306 99.4531 56.8692 105.848 69.2131C108.36 69.0938 110.633 70.5238 111.244 72.793C111.856 75.0622 110.61 77.4402 108.378 78.5995Z" fill="#FFD12F"/>
<path fill-rule="evenodd" clip-rule="evenodd" d="M111.402 80.1628C111.16 95.2576 98.0889 109.257 80.2414 114.066C62.6019 118.82 44.4916 113.469 36.5448 100.864C33.0123 100.833 29.5936 98.7786 28.593 95.0657C27.5925 91.3529 29.516 87.8586 32.5545 86.0567C33.0921 71.1661 46.0614 57.4399 63.7008 52.6865C81.5482 47.877 99.8835 53.4125 107.677 66.3418C110.619 66.8582 113.285 68.8367 114.141 72.0124C114.997 75.188 113.686 78.2382 111.402 80.1628ZM108.378 78.5994C109.051 92.4852 97.097 106.417 79.4608 111.17C61.8874 115.905 44.6124 109.926 38.1628 97.6711C35.1819 98.4401 32.2037 96.9347 31.4897 94.2852C30.7757 91.6355 32.5942 88.8375 35.5579 88.0046C34.9765 74.1682 46.9081 60.3188 64.4814 55.5831C82.1175 50.8306 99.4531 56.8692 105.848 69.2131C108.36 69.0938 110.633 70.5237 111.244 72.7929C111.856 75.0621 110.61 77.4402 108.378 78.5994Z" fill="#755F13"/>
<path d="M68.9176 67.0951C71.0576 71.7863 67.0881 78.1915 60.0513 81.4016C53.0145 84.6116 45.5752 83.4109 43.4352 78.7197C41.2951 74.0285 45.2647 67.6233 52.3015 64.4133C59.3383 61.2032 66.7776 62.4039 68.9176 67.0951Z" fill="#FFEA2F"/>
<path d="M36.6292 90.4089C37.1101 91.4632 36.5467 92.7527 35.3708 93.2892C34.1949 93.8256 32.8518 93.4058 32.3708 92.3515C31.8899 91.2972 32.4533 90.0076 33.6292 89.4712C34.8051 88.9348 36.1482 89.3546 36.6292 90.4089Z" fill="#FFEA2F"/>
<path fill-rule="evenodd" clip-rule="evenodd" d="M68.7496 102.768C88.7702 97.3734 101.887 81.4481 98.0471 67.1984C96.9121 62.9864 94.4225 59.3923 90.9614 56.5581C97.5681 59.1235 102.884 63.4908 105.848 69.2131C108.361 69.0939 110.633 70.5238 111.244 72.793C111.856 75.0622 110.61 77.4402 108.378 78.5995C109.051 92.4852 97.097 106.417 79.4609 111.169C64.2062 115.28 49.1764 111.317 41.2571 102.184C49.0466 105.027 58.8147 105.446 68.7496 102.768Z" fill="#DEB523"/>
<path d="M97.311 85.1331C96.3031 86.2357 94.5922 86.3125 93.4896 85.3046C92.387 84.2968 92.3102 82.5859 93.3181 81.4833C94.3259 80.3807 96.0368 80.3038 97.1394 81.3117C98.242 82.3196 98.3188 84.0304 97.311 85.1331Z" fill="#C89616"/>
<path d="M99.6506 93.1006C98.6427 94.2032 96.9318 94.28 95.8292 93.2721C94.7266 92.2643 94.6498 90.5534 95.6577 89.4508C96.6655 88.3482 98.3764 88.2714 99.479 89.2792C100.582 90.2871 100.658 91.998 99.6506 93.1006Z" fill="#C89616"/>
<path d="M104.583 85.6996C103.827 86.5266 102.544 86.5842 101.717 85.8283C100.89 85.0724 100.833 83.7893 101.588 82.9623C102.344 82.1353 103.628 82.0777 104.454 82.8336C105.281 83.5895 105.339 84.8727 104.583 85.6996Z" fill="#C89616"/>
<path d="M93.2635 100.088C92.2556 101.191 90.5448 101.268 89.4421 100.26C88.3395 99.252 88.2627 97.5411 89.2706 96.4385C90.2784 95.3359 91.9893 95.259 93.0919 96.2669C94.1945 97.2748 94.2713 98.9856 93.2635 100.088Z" fill="#C89616"/>
<path d="M90.9239 90.6206C89.916 91.7232 88.2052 91.8 87.1025 90.7922C85.9999 89.7843 85.9231 88.0734 86.931 86.9708C87.9388 85.8682 89.6497 85.7914 90.7523 86.7993C91.8549 87.8071 91.9317 89.518 90.9239 90.6206Z" fill="#C89616"/>
<path d="M84.3848 104.274C83.0638 105.72 80.8214 105.82 79.3762 104.499C77.931 103.178 77.8303 100.936 79.1513 99.4907C80.4723 98.0455 82.7148 97.9448 84.16 99.2658C85.6052 100.587 85.7058 102.829 84.3848 104.274Z" fill="#C89616"/>
<path d="M73.3178 107.895C72.3099 108.997 70.5991 109.074 69.4965 108.066C68.3938 107.058 68.317 105.347 69.3249 104.245C70.3327 103.142 72.0436 103.065 73.1462 104.073C74.2489 105.081 74.3257 106.792 73.3178 107.895Z" fill="#C89616"/>
<path d="M81.4196 94.4269C80.6481 95.2709 79.3385 95.3297 78.4944 94.5582C77.6504 93.7867 77.5916 92.4771 78.3631 91.6331C79.1346 90.7891 80.4442 90.7303 81.2882 91.5018C82.1323 92.2732 82.1911 93.5829 81.4196 94.4269Z" fill="#C89616"/>
<path d="M76.3056 101.181C75.6839 101.862 74.6286 101.909 73.9484 101.287C73.2683 100.666 73.2209 99.6102 73.8426 98.9301C74.4643 98.25 75.5196 98.2026 76.1997 98.8243C76.8799 99.4459 76.9273 100.501 76.3056 101.181Z" fill="#C89616"/>
<path d="M62.8633 109.483C62.1074 110.31 60.8243 110.368 59.9973 109.612C59.1704 108.856 59.1127 107.573 59.8686 106.746C60.6245 105.919 61.9077 105.861 62.7346 106.617C63.5616 107.373 63.6192 108.656 62.8633 109.483Z" fill="#C89616"/>
<path fill-rule="evenodd" clip-rule="evenodd" d="M55.47 69.7076C56.2109 71.1895 55.6103 72.9916 54.1283 73.7325C52.9416 74.3259 51.9925 75.0938 51.2392 76.0354C50.2042 77.3292 48.3163 77.539 47.0225 76.5039C45.7287 75.4689 45.519 73.581 46.554 72.2872C47.8754 70.6354 49.5197 69.3286 51.445 68.366C52.927 67.625 54.729 68.2257 55.47 69.7076Z" fill="white"/>
<path fill-rule="evenodd" clip-rule="evenodd" d="M105.676 77.2243C108.188 77.2243 110.224 75.1879 110.224 72.6758C110.224 71.8876 110.024 71.1462 109.671 70.4999C111.085 71.2714 112.044 72.7713 112.044 74.4952C112.044 77.0073 110.007 79.0438 107.495 79.0438C105.771 79.0438 104.272 78.0847 103.5 76.6711C104.146 77.0239 104.888 77.2243 105.676 77.2243Z" fill="#AE8C14"/>
</g>
<defs>
<filter id="filter0_d" x="0" y="0" width="146" height="146" filterUnits="userSpaceOnUse" color-interpolation-filters="sRGB">
<feFlood flood-opacity="0" result="BackgroundImageFix"/>
<feColorMatrix in="SourceAlpha" type="matrix" values="0 0 0 0 0 0 0 0 0 0 0 0 0 0 0 0 0 0 127 0"/>
<feOffset dx="2" dy="2"/>
<feColorMatrix type="matrix" values="0 0 0 0 0 0 0 0 0 0 0 0 0 0 0 0 0 0 0.2 0"/>
<feBlend mode="normal" in2="BackgroundImageFix" result="effect1_dropShadow"/>
<feBlend mode="normal" in="SourceGraphic" in2="effect1_dropShadow" result="shape"/>
</filter>
</defs>
</svg>
