<svg width="144" height="145" viewBox="0 0 144 145" fill="none" xmlns="http://www.w3.org/2000/svg">
<g filter="url(#filter0_d)">
<path d="M105 83.75C105 102.39 90.2254 117.5 72 117.5C53.7746 117.5 39 102.39 39 83.75C39 65.1104 53.7746 27.5 72 27.5C90.2254 27.5 105 65.1104 105 83.75Z" fill="#F2EB76"/>
<path fill-rule="evenodd" clip-rule="evenodd" d="M108 83.75C108 103.983 91.9454 120.5 72 120.5C52.0546 120.5 36 103.983 36 83.75C36 73.8421 39.8646 59.3122 45.9919 47.2743C49.068 41.2308 52.8028 35.6366 57.0696 31.5111C61.3198 27.4018 66.369 24.5 72 24.5C77.631 24.5 82.6802 27.4018 86.9304 31.5111C91.1972 35.6366 94.932 41.2308 98.0081 47.2743C104.135 59.3122 108 73.8421 108 83.75ZM72 117.5C90.2254 117.5 105 102.39 105 83.75C105 65.1104 90.2254 27.5 72 27.5C53.7746 27.5 39 65.1104 39 83.75C39 102.39 53.7746 117.5 72 117.5Z" fill="#538642"/>
<path fill-rule="evenodd" clip-rule="evenodd" d="M72 117.5C90.2254 117.5 105 102.39 105 83.75C105 65.1104 90.2254 27.5 72 27.5C53.7746 27.5 39 65.1104 39 83.75C39 102.39 53.7746 117.5 72 117.5ZM72 114.5C88.5685 114.5 102 100.649 102 83.5625C102 66.4762 88.5685 32 72 32C55.4315 32 42 66.4762 42 83.5625C42 100.649 55.4315 114.5 72 114.5Z" fill="#D9DE2E"/>
<path d="M95.1938 101.496C94.0342 102.765 92.0657 102.853 90.7971 101.694C89.5285 100.534 89.4401 98.5657 90.5997 97.2971C91.7593 96.0284 93.7278 95.94 94.9964 97.0997C96.265 98.2593 96.3534 100.228 95.1938 101.496Z" fill="#C4CB29"/>
<path d="M83.1938 111.996C82.0342 113.265 80.0657 113.353 78.7971 112.194C77.5285 111.034 77.4401 109.066 78.5997 107.797C79.7593 106.528 81.7278 106.44 82.9964 107.6C84.265 108.759 84.3534 110.728 83.1938 111.996Z" fill="#C4CB29"/>
<path d="M48.6938 95.4964C47.5342 96.765 45.5657 96.8534 44.2971 95.6938C43.0285 94.5342 42.9401 92.5657 44.0997 91.2971C45.2593 90.0284 47.2278 89.94 48.4964 91.0997C49.765 92.2593 49.8534 94.2277 48.6938 95.4964Z" fill="#C4CB29"/>
<path d="M90.1945 108.556C89.3812 109.446 88.0007 109.508 87.111 108.695C86.2212 107.881 86.1593 106.501 86.9725 105.611C87.7858 104.721 89.1663 104.659 90.0561 105.473C90.9458 106.286 91.0078 107.666 90.1945 108.556Z" fill="#C4CB29"/>
<path d="M75.1945 114.556C74.3812 115.446 73.0007 115.508 72.111 114.695C71.2212 113.881 71.1593 112.501 71.9725 111.611C72.7858 110.721 74.1663 110.659 75.0561 111.473C75.9458 112.286 76.0078 113.666 75.1945 114.556Z" fill="#C4CB29"/>
<path d="M51.1945 101.056C50.3812 101.946 49.0007 102.008 48.111 101.195C47.2212 100.381 47.1593 99.0007 47.9725 98.111C48.7858 97.2213 50.1663 97.1593 51.0561 97.9725C51.9458 98.7858 52.0078 100.166 51.1945 101.056Z" fill="#C4CB29"/>
<path d="M48.1945 86.0561C47.3812 86.9458 46.0007 87.0078 45.111 86.1945C44.2212 85.3813 44.1592 84.0007 44.9725 83.111C45.7858 82.2213 47.1663 82.1593 48.0561 82.9725C48.9458 83.7858 49.0078 85.1664 48.1945 86.0561Z" fill="#C4CB29"/>
<path d="M100.695 95.0561C99.8812 95.9458 98.5007 96.0078 97.611 95.1945C96.7212 94.3813 96.6593 93.0007 97.4725 92.111C98.2858 91.2213 99.6663 91.1593 100.556 91.9725C101.446 92.7858 101.508 94.1664 100.695 95.0561Z" fill="#C4CB29"/>
<path d="M93 84.5C93 96.098 83.598 105.5 72 105.5C60.402 105.5 51 96.098 51 84.5C51 72.902 60.402 63.5 72 63.5C83.598 63.5 93 72.902 93 84.5Z" fill="#BAC73A"/>
<path d="M85.5 84.5C85.5 91.9558 79.4558 98 72 98C64.5442 98 58.5 91.9558 58.5 84.5C58.5 77.0442 64.5442 71 72 71C79.4558 71 85.5 77.0442 85.5 84.5Z" fill="#B6472C"/>
<path fill-rule="evenodd" clip-rule="evenodd" d="M88.5 84.5C88.5 93.6127 81.1127 101 72 101C62.8873 101 55.5 93.6127 55.5 84.5C55.5 75.3873 62.8873 68 72 68C81.1127 68 88.5 75.3873 88.5 84.5ZM72 98C79.4558 98 85.5 91.9558 85.5 84.5C85.5 77.0442 79.4558 71 72 71C64.5442 71 58.5 77.0442 58.5 84.5C58.5 91.9558 64.5442 98 72 98Z" fill="#662513"/>
<path fill-rule="evenodd" clip-rule="evenodd" d="M70.5 93.4999C77.9559 93.4999 84 87.4558 84 79.9999C84 79.3358 83.9521 78.6829 83.8594 78.0444C84.9055 79.9622 85.5 82.1616 85.5 84.4999C85.5 91.9558 79.4559 97.9999 72 97.9999C65.2083 97.9999 59.588 92.9846 58.6406 86.4554C60.9301 90.6525 65.3825 93.4999 70.5 93.4999Z" fill="#A43E25"/>
<path d="M69 80C69 81.6569 67.6569 83 66 83C64.3431 83 63 81.6569 63 80C63 78.3431 64.3431 77 66 77C67.6569 77 69 78.3431 69 80Z" fill="#F5A05F"/>
<path d="M70.6007 36.8315C72.962 39.3767 71.7813 44.3112 67.9636 47.8532C64.1459 51.3951 59.1368 52.2031 56.7755 49.658C54.4142 47.1128 55.5949 42.1783 59.4126 38.6363C63.2304 35.0944 68.2394 34.2864 70.6007 36.8315Z" fill="#FFFAA3"/>
<path fill-rule="evenodd" clip-rule="evenodd" d="M63.6698 45.8928C65.0805 45.1362 65.6543 43.3938 64.9491 41.9404C64.2258 40.4497 62.4311 39.8276 60.9404 40.5509C60.4981 40.7655 60.003 41.0295 59.5693 41.3825C59.0135 41.835 58.6627 42.3438 58.4317 42.8713C58.3614 43.0318 58.2923 43.224 58.2895 43.2316L58.2894 43.2319C58.2877 43.2363 58.2863 43.2402 58.285 43.2436C58.2697 43.2671 58.236 43.3152 58.1737 43.3913C57.1233 44.6727 57.3106 46.5629 58.592 47.6132C59.8734 48.6636 61.7636 48.4763 62.814 47.1949C63.1924 46.7333 63.4649 46.3091 63.6698 45.8928ZM58.2956 43.2263C58.2957 43.2263 58.2945 43.2285 58.2917 43.233C58.2941 43.2286 58.2955 43.2263 58.2956 43.2263Z" fill="white"/>
</g>
<defs>
<filter id="filter0_d" x="0" y="0.5" width="146" height="146" filterUnits="userSpaceOnUse" color-interpolation-filters="sRGB">
<feFlood flood-opacity="0" result="BackgroundImageFix"/>
<feColorMatrix in="SourceAlpha" type="matrix" values="0 0 0 0 0 0 0 0 0 0 0 0 0 0 0 0 0 0 127 0"/>
<feOffset dx="2" dy="2"/>
<feColorMatrix type="matrix" values="0 0 0 0 0 0 0 0 0 0 0 0 0 0 0 0 0 0 0.2 0"/>
<feBlend mode="normal" in2="BackgroundImageFix" result="effect1_dropShadow"/>
<feBlend mode="normal" in="SourceGraphic" in2="effect1_dropShadow" result="shape"/>
</filter>
</defs>
</svg>
