<svg width="418" height="402" viewBox="0 0 418 402" fill="none" xmlns="http://www.w3.org/2000/svg">
<g clip-path="url(#clip0)">
<path opacity="0.41" d="M407.59 339.9C407.09 340.9 406.59 341.84 406.09 342.8C399.44 355.31 390.75 367.49 378.09 373.8C361.39 382.18 341.49 378.8 323.09 375.69C288.81 369.88 253.72 365.63 219.37 371.01C168.02 379.01 118.51 408.44 67.3699 399.31C49.3812 396.079 32.5508 388.198 18.5499 376.45C13.2799 372.01 8.36991 366.95 5.24991 360.81C1.90991 354.4 0.739912 347.13 0.279912 339.9C0.279912 339.33 0.199912 338.75 0.179912 338.19C-0.96209 314.893 3.56038 291.666 13.3599 270.5C21.6399 252.66 33.7399 236.07 36.7399 216.64C40.7399 190.93 28.0699 165.32 28.8599 139.32C29.3804 126.579 33.0691 114.169 39.5923 103.213C46.1155 92.2567 55.2673 83.0995 66.2199 76.5699C81.7399 67.5699 100.01 64.3399 116.64 57.4399C129.295 52.1674 140.956 44.7709 151.12 35.5699C159.31 28.2099 165.23 17.1499 174.25 10.9599C190.52 -0.180095 222.05 -4.04009 239.45 4.95991C249.1 9.95991 256.17 18.6599 263.77 26.4299C283.54 46.6099 308.1 61.3199 330.37 78.7099C352.64 96.0999 373.5 117.56 381.18 144.71C389.01 172.37 382.26 202.71 390.78 230.13C397.98 253.36 415.78 273.23 417.78 297.47C419.02 312.22 414.23 326.71 407.59 339.9Z" fill="#D5C1FC"/>
<path opacity="0.55" d="M407.59 339.9C407.09 340.9 406.59 341.84 406.09 342.8C399.44 355.31 390.75 367.49 378.09 373.8C361.39 382.18 341.49 378.8 323.09 375.69C288.81 369.88 253.72 365.63 219.37 371.01C168.02 379.01 118.51 408.44 67.37 399.31C49.3813 396.079 32.5509 388.198 18.55 376.45C13.28 372.01 8.37003 366.95 5.25003 360.81C1.91003 354.4 0.740029 347.13 0.280029 339.9H407.59Z" fill="#D5C1FC"/>
<path d="M48.4101 367.62C52.6801 372.43 59.7501 373.33 66.1701 373.8C96.136 376.008 126.229 375.848 156.17 373.32C167.17 372.39 178.22 371.13 189.12 369.19C202.35 366.83 215.42 363.45 228.79 362.14C270.64 358.04 313.24 374.32 354.42 365.81C359.17 364.81 364.62 362.81 365.83 358.09C366.9 353.98 363.89 349.69 360.06 347.84C356.23 345.99 351.81 346 347.56 346.04C259.93 346.8 172.3 347.9 84.6701 348.32C77.6701 348.32 70.1201 347.45 63.4201 349.89C57.8401 351.93 42.2201 360.66 48.4101 367.62Z" fill="url(#paint0_linear)"/>
<path d="M143.92 49.98H77.8199C64.7363 49.98 54.1299 60.5864 54.1299 73.67V333.37C54.1299 346.454 64.7363 357.06 77.8199 357.06H143.92C157.004 357.06 167.61 346.454 167.61 333.37V73.67C167.61 60.5864 157.004 49.98 143.92 49.98Z" fill="#D5C1FC"/>
<path d="M143.92 49.98H77.8199C64.7363 49.98 54.1299 60.5864 54.1299 73.67V333.37C54.1299 346.454 64.7363 357.06 77.8199 357.06H143.92C157.004 357.06 167.61 346.454 167.61 333.37V73.67C167.61 60.5864 157.004 49.98 143.92 49.98Z" fill="url(#paint1_linear)"/>
<path d="M186.73 49.98H97.1501C82.4759 49.98 70.5801 61.8758 70.5801 76.55V330.49C70.5801 345.164 82.4759 357.06 97.1501 357.06H186.73C201.404 357.06 213.3 345.164 213.3 330.49V76.55C213.3 61.8758 201.404 49.98 186.73 49.98Z" fill="#D5C1FC"/>
<path d="M203.86 73.1101H82.27V333.46H203.86V73.1101Z" fill="white"/>
<path d="M226.06 284.07L226.48 342.3L220.34 342.88C220.34 342.88 212.39 317.45 213.34 313.63C214.29 309.81 216.34 300.76 216.34 300.76C216.34 300.76 210.34 289.32 210.54 285.76C210.737 283.51 211.566 281.361 212.93 279.56L226.06 284.07Z" fill="#F3BD8F"/>
<path d="M200.47 284.07C200.47 284.07 200.47 293.29 199.52 295.51C198.57 297.73 173.13 338.11 173.13 338.11L169.39 334.85C169.39 334.85 176.31 306.64 181.39 300.92L186.47 295.2L187.25 282.95L200.47 284.07Z" fill="#F3BD8F"/>
<path d="M191.32 142.96C191.08 140.26 189.99 137.82 190.52 134.96C191.42 130.07 196.02 126.47 200.89 125.47C205.76 124.47 210.83 125.61 215.52 127.27C218.662 128.251 221.582 129.834 224.12 131.93C230.31 137.49 231.04 146.71 233.45 154.68C234.39 157.77 235.77 160.94 238.45 162.79C241.96 165.25 246.69 164.79 250.77 166.07C253.338 166.929 255.621 168.477 257.369 170.546C259.117 172.615 260.262 175.124 260.68 177.8C261.35 182.53 259.83 188.02 262.9 191.68C264.5 193.59 267.09 194.56 268.43 196.68C269.097 197.87 269.528 199.177 269.7 200.53C270.47 204.63 270.7 209.66 267.37 212.13C265.687 213.153 263.76 213.706 261.79 213.73C257.02 214.15 252.1 214.16 247.58 212.61C243.52 211.21 239.99 208.61 236.53 206.09C229.43 200.86 222.3 195.61 215.89 189.55C211.89 185.78 208.15 181.88 203.89 178.41C201.04 176.09 198.89 172.12 196.06 170.13C194.6 169.13 192.82 169.13 191.38 167.77C190.246 166.659 189.404 165.285 188.93 163.77C187.86 160.3 188.47 156.56 189.35 153.05C190.1 150.05 191.57 146.54 191.35 143.41L191.32 142.96Z" fill="#3E3E54"/>
<path d="M222.41 148.8C223.751 152.052 224.864 155.393 225.74 158.8C226.74 162.17 228.1 165.54 230.47 168.15C231.742 169.35 232.938 170.629 234.05 171.98C236.22 175.13 235.97 179.43 234.63 182.98C233.97 184.73 232.81 186.59 230.96 186.88C229.11 187.17 227.58 185.88 226.25 184.64L211.98 171.64C209.98 170.004 208.246 168.067 206.84 165.9C204.99 162.69 204.67 158.79 205.08 155.1C205.329 151.9 206.359 148.809 208.08 146.1C209.46 144.1 212.95 140.51 215.7 141.3C218.74 142.25 221.19 146.21 222.41 148.8Z" fill="url(#paint2_linear)"/>
<path d="M232.9 226.98L267 226.53L279.51 265.3L294.66 318.69H260.85L232.9 226.98ZM275.46 266.57L263.93 230.84L238.6 231.18L263.98 314.5H289.05L275.46 266.57Z" fill="#D5C1FC"/>
<path d="M335.72 212.7H282.32V309.97H335.72V212.7Z" fill="#D5C1FC"/>
<path d="M335.72 212.7H282.32V309.97H335.72V212.7Z" fill="url(#paint3_linear)"/>
<path d="M325 212.94V241.79L305.69 309.5H331.91L337.64 288.99L335.73 212.7L325 212.94Z" fill="url(#paint4_linear)"/>
<path d="M378.786 232.307L336.867 220.461L315.288 296.821L357.207 308.667L378.786 232.307Z" fill="#D5C1FC"/>
<path d="M378.788 232.192L336.87 220.346L315.291 296.705L357.209 308.551L378.788 232.192Z" fill="url(#paint5_linear)"/>
<path d="M285.86 347.11C284.904 345.528 284.594 343.639 284.994 341.834C285.395 340.03 286.474 338.449 288.009 337.42C289.544 336.39 291.417 335.992 293.238 336.306C295.059 336.621 296.689 337.625 297.79 339.11C298.369 339.891 298.784 340.782 299.009 341.729C299.234 342.675 299.264 343.657 299.099 344.616C298.933 345.574 298.575 346.489 298.045 347.305C297.516 348.121 296.826 348.821 296.018 349.363C295.21 349.905 294.301 350.277 293.345 350.457C292.389 350.637 291.406 350.621 290.457 350.411C289.507 350.2 288.61 349.799 287.82 349.232C287.03 348.664 286.363 347.942 285.86 347.11ZM294.28 341.46C293.956 340.958 293.489 340.564 292.94 340.328C292.391 340.093 291.783 340.027 291.196 340.139C290.609 340.251 290.069 340.536 289.645 340.957C289.221 341.378 288.932 341.917 288.816 342.503C288.7 343.089 288.761 343.697 288.993 344.248C289.225 344.799 289.615 345.268 290.116 345.596C290.616 345.923 291.202 346.094 291.8 346.086C292.397 346.077 292.979 345.891 293.47 345.55C294.109 345.106 294.551 344.432 294.702 343.669C294.853 342.906 294.702 342.114 294.28 341.46Z" fill="#2E2E3F"/>
<path d="M338.53 347.11C337.542 345.527 337.209 343.621 337.601 341.796C337.992 339.972 339.078 338.371 340.629 337.332C342.179 336.293 344.072 335.898 345.909 336.23C347.745 336.562 349.381 337.594 350.47 339.11C351.458 340.694 351.791 342.599 351.399 344.424C351.007 346.248 349.922 347.849 348.371 348.888C346.821 349.927 344.927 350.322 343.091 349.99C341.254 349.659 339.619 348.626 338.53 347.11ZM346.95 341.46C346.625 340.958 346.157 340.565 345.607 340.331C345.057 340.096 344.45 340.032 343.863 340.145C343.276 340.259 342.736 340.545 342.313 340.967C341.89 341.389 341.602 341.928 341.488 342.515C341.373 343.102 341.436 343.709 341.669 344.26C341.902 344.81 342.294 345.279 342.795 345.605C343.296 345.931 343.883 346.1 344.481 346.09C345.079 346.081 345.66 345.892 346.15 345.55C346.787 345.105 347.227 344.43 347.376 343.667C347.525 342.904 347.372 342.113 346.95 341.46Z" fill="#2E2E3F"/>
<path d="M233.07 201.04C233.328 201.873 233.698 202.667 234.17 203.4C235.121 204.534 236.327 205.425 237.69 206C243.05 208.76 251.26 211.72 255.78 215.7C256.339 216.135 256.799 216.684 257.13 217.31C257.78 218.72 257.13 220.31 256.53 221.78C256.258 222.584 255.779 223.301 255.14 223.86C253.98 224.7 252.37 224.34 251 223.93C245.701 222.358 240.49 220.502 235.39 218.37C232.543 217.225 229.777 215.889 227.11 214.37C226.09 213.924 225.208 213.213 224.556 212.311C223.904 211.408 223.505 210.348 223.4 209.24C222.433 204.112 221.785 198.929 221.46 193.72L220.46 181.47C220.27 179.11 213.1 170.88 215.26 169.25C219.48 166.08 225.64 174.71 226.61 176.48C229.32 181.46 232.01 198.02 233.07 201.04Z" fill="#D5C1FC"/>
<path d="M233.07 201.04C233.328 201.873 233.698 202.667 234.17 203.4C235.121 204.534 236.327 205.425 237.69 206C243.05 208.76 251.26 211.72 255.78 215.7C256.339 216.135 256.799 216.684 257.13 217.31C257.78 218.72 257.13 220.31 256.53 221.78C256.258 222.584 255.779 223.301 255.14 223.86C253.98 224.7 252.37 224.34 251 223.93C245.701 222.358 240.49 220.502 235.39 218.37C232.543 217.225 229.777 215.889 227.11 214.37C226.09 213.924 225.208 213.213 224.556 212.311C223.904 211.408 223.505 210.348 223.4 209.24C222.433 204.112 221.785 198.929 221.46 193.72L220.46 181.47C220.27 179.11 213.1 170.88 215.26 169.25C219.48 166.08 225.64 174.71 226.61 176.48C229.32 181.46 232.01 198.02 233.07 201.04Z" fill="url(#paint6_linear)"/>
<path d="M229.74 279.91C229.821 280.901 229.575 281.892 229.04 282.73C228.471 283.307 227.75 283.709 226.96 283.89C222.96 285.15 188.96 286.43 182.61 285.25C180.14 276.13 180.05 266.49 181.29 257.12C181.78 253.47 182.5 249.75 184.43 246.62C184.917 245.761 185.603 245.031 186.43 244.49C187.653 243.905 189.009 243.653 190.36 243.76C200.16 243.66 210.13 243.43 219.87 244.82C222.87 245.25 224.5 246.2 225.56 249.17C227.087 253.855 228.152 258.678 228.74 263.57C229.505 268.982 229.839 274.445 229.74 279.91Z" fill="#2E2E3F"/>
<path d="M182.63 285.25L184.15 285.51C184.514 285.321 184.867 285.114 185.21 284.89C186.045 284.425 186.75 283.758 187.26 282.95C187.63 282.124 187.807 281.225 187.78 280.32C188.06 272.77 186.62 265.1 188.16 257.7C188.71 255.04 189.81 252.64 190.59 250.08C191.31 247.74 189.71 246.34 187.82 244.97C187.489 244.72 187.134 244.502 186.76 244.32L186.42 244.49C185.588 245.024 184.901 245.756 184.42 246.62C182.48 249.75 181.76 253.47 181.27 257.12C180.07 266.48 180.15 276.13 182.63 285.25Z" fill="url(#paint7_linear)"/>
<path d="M206.74 162.03C206.787 163.559 207.392 165.017 208.44 166.13C210 167.53 212.37 167.45 214.31 168.23C214.559 168.315 214.784 168.455 214.97 168.64C215.113 168.812 215.215 169.014 215.27 169.23C215.514 170.252 215.434 171.325 215.04 172.3C214.442 173.755 213.534 175.062 212.378 176.13C211.223 177.197 209.848 177.999 208.35 178.48C205.343 179.416 202.159 179.638 199.05 179.13C197.995 179.067 196.969 178.763 196.05 178.24C195.087 177.512 194.324 176.552 193.83 175.45C193.22 174.446 192.816 173.331 192.64 172.17C192.559 171.588 192.63 170.995 192.845 170.448C193.061 169.902 193.414 169.42 193.87 169.05C194.299 168.784 194.759 168.573 195.24 168.42C195.993 168.125 196.716 167.761 197.4 167.33C198.099 166.974 198.646 166.377 198.94 165.65C199.053 165.029 199.026 164.39 198.86 163.78C198.48 161.721 198.48 159.609 198.86 157.55C198.951 156.94 199.14 156.349 199.42 155.8C199.679 155.329 200.043 154.924 200.483 154.616C200.923 154.308 201.428 154.104 201.959 154.021C202.49 153.938 203.033 153.978 203.546 154.137C204.06 154.296 204.529 154.571 204.92 154.94C206.89 156.76 206.47 159.64 206.74 162.03Z" fill="#F3BD8F"/>
<path d="M216.07 151.05C216.19 152.453 216.071 153.866 215.72 155.23C214.72 158.47 211.29 160.56 207.9 160.7C206.788 160.788 205.673 160.577 204.67 160.09C204.097 159.754 203.567 159.352 203.09 158.89C200.72 156.72 198.54 154.13 197.82 151C197.571 149.81 197.467 148.595 197.51 147.38C197.48 145.596 197.785 143.822 198.41 142.15C199.045 140.666 200.055 139.371 201.339 138.394C202.624 137.416 204.14 136.787 205.74 136.57C209.03 136.15 212.1 137.81 214.5 139.87C215.7 140.87 215.5 142.94 215.67 144.48C215.85 146.67 216 148.86 216.07 151.05Z" fill="#F3BD8F"/>
<path d="M184.96 247.39C186.482 248.43 188.218 249.113 190.04 249.39C199.767 251.545 209.85 251.528 219.57 249.34C221.57 248.87 223.86 248.13 224.74 246.23C225.138 245.189 225.288 244.069 225.18 242.96C224.953 232.5 224.72 222.033 224.48 211.56C224.22 199.66 223.96 187.72 222.21 175.95C221.695 173.52 220.732 171.207 219.37 169.13C218.23 167.58 213.09 168.41 208.8 165.63C207.62 164.87 210.18 168.81 206.33 170.44C202.48 172.07 197.89 164.19 195.45 167.37C194.08 169.15 189.75 167.83 188.38 169.6C187.28 171.02 186.6 174.03 186.17 177.65C185.25 185.35 185.48 195.8 185.28 199.6C184.56 212.9 185.68 229.87 181.28 240.86C180.34 243.24 182.97 245.82 184.96 247.39Z" fill="#D5C1FC"/>
<path d="M184.96 247.39C186.482 248.43 188.218 249.113 190.04 249.39C192.469 249.928 194.926 250.332 197.4 250.6L198.1 250.51C196.29 244.61 196.2 238.35 196.25 232.18C196.29 228.78 196.347 225.373 196.42 221.96C196.42 219.81 196.54 217.55 197.65 215.71C198.76 213.87 201.28 212.71 203.13 213.82C199.95 211.9 197.35 203.82 196.05 200.49C194.176 195.684 192.864 190.677 192.14 185.57C191.64 182.07 191.83 175.9 186.46 177.57L186.17 177.67C185.25 185.37 185.48 195.82 185.28 199.62C184.56 212.92 185.68 229.89 181.28 240.88C180.34 243.24 182.97 245.82 184.96 247.39Z" fill="url(#paint8_linear)"/>
<path d="M220.94 342.21C220.633 342.238 220.347 342.381 220.14 342.61C220.017 342.858 219.968 343.135 220 343.41C220 345.09 218.92 346.64 219 348.31C219 349.82 220 351.22 219.85 352.72C219.85 353.02 219.77 353.36 219.98 353.57C220.12 353.686 220.29 353.759 220.47 353.78C224.723 354.587 228.993 355.297 233.28 355.91C234.072 356.115 234.912 356.023 235.64 355.65C235.973 355.387 236.231 355.043 236.39 354.65C237.55 352.28 236.52 349.39 234.95 347.28C231.07 342.16 227.35 340.92 220.94 342.21Z" fill="#2E2E3F"/>
<path d="M161.79 341.95C162.087 343.308 162.856 344.516 163.96 345.36C166.687 347.871 169.8 349.927 173.18 351.45C173.865 351.831 174.649 351.999 175.43 351.93C176.016 351.752 176.527 351.389 176.888 350.894C177.249 350.4 177.439 349.802 177.43 349.19C177.385 347.961 177.064 346.758 176.49 345.67C174.86 341.89 173.72 336.34 169.36 334.85C165.58 333.57 161.38 338.19 161.79 341.95Z" fill="#2E2E3F"/>
<path d="M220.86 342.21C220.553 342.238 220.267 342.381 220.06 342.61C219.937 342.858 219.888 343.135 219.92 343.41C219.92 345.09 218.84 346.64 218.92 348.31C218.97 349.82 219.92 351.22 219.77 352.72C219.77 353.02 219.69 353.36 219.9 353.57C220.04 353.686 220.21 353.759 220.39 353.78C224.643 354.587 228.913 355.297 233.2 355.91C233.992 356.115 234.832 356.023 235.56 355.65C235.893 355.387 236.151 355.043 236.31 354.65C237.47 352.28 236.44 349.39 234.87 347.28C230.99 342.16 227.27 340.92 220.86 342.21Z" fill="url(#paint9_linear)"/>
<path d="M163.96 345.36C166.687 347.871 169.8 349.927 173.18 351.45C173.865 351.832 174.649 351.999 175.43 351.93" fill="url(#paint10_linear)"/>
<path d="M193.26 200.13C193.116 201.191 193.229 202.271 193.59 203.28C194.2 204.68 195.59 205.52 196.95 206.28L226.95 223.28C228.36 224.08 229.86 224.98 230.46 226.49C231.78 229.84 227.64 232.91 224.05 233.18C220.28 233.46 216.56 232.32 212.99 231.09C201.705 227.196 190.805 222.265 180.43 216.36C179.146 215.884 178.069 214.973 177.387 213.786C176.706 212.598 176.463 211.209 176.7 209.86C176.672 201.569 177.308 193.289 178.6 185.1C179.31 180.62 180.32 175.95 183.32 172.54C187.78 167.48 195.95 167.32 196.65 174.76C197.49 183.14 193.83 191.78 193.26 200.13Z" fill="#D5C1FC"/>
<path d="M193.26 200.13C193.116 201.191 193.229 202.271 193.59 203.28C194.2 204.68 195.59 205.52 196.95 206.28L226.95 223.28C228.36 224.08 229.86 224.98 230.46 226.49C231.78 229.84 227.64 232.91 224.05 233.18C220.28 233.46 216.56 232.32 212.99 231.09C201.705 227.196 190.805 222.265 180.43 216.36C179.146 215.884 178.069 214.973 177.387 213.786C176.706 212.598 176.463 211.209 176.7 209.86C176.672 201.569 177.308 193.289 178.6 185.1C179.31 180.62 180.32 175.95 183.32 172.54C187.78 167.48 195.95 167.32 196.65 174.76C197.49 183.14 193.83 191.78 193.26 200.13Z" fill="url(#paint11_linear)"/>
<path d="M234.39 226.06C236.556 226.059 238.642 226.877 240.23 228.35C241.001 229.101 241.521 230.072 241.718 231.13C241.915 232.189 241.78 233.282 241.33 234.26C241.007 234.916 240.445 235.424 239.76 235.68C239.158 235.845 238.52 235.824 237.93 235.62C236.21 235.11 234.84 233.79 233.18 233.12C232.778 232.918 232.317 232.865 231.88 232.97C231.602 233.112 231.337 233.279 231.09 233.47C230.742 233.665 230.353 233.774 229.955 233.788C229.556 233.802 229.16 233.72 228.8 233.55C228.084 233.201 227.481 232.656 227.06 231.98C226.45 231.13 226.157 230.094 226.23 229.05C226.4 227.44 227.33 226.93 228.72 226.76C230.589 226.381 232.485 226.147 234.39 226.06Z" fill="#F3BD8F"/>
<path d="M262.29 220.84C263.095 221.832 263.644 223.006 263.89 224.26C264.026 224.848 264.005 225.462 263.83 226.04C263.584 226.602 263.176 227.078 262.657 227.406C262.138 227.734 261.533 227.899 260.92 227.88C259.694 227.824 258.503 227.456 257.46 226.81C255.528 225.689 253.679 224.429 251.93 223.04C251.557 222.792 251.22 222.492 250.93 222.15C250.608 221.619 250.477 220.994 250.556 220.378C250.636 219.762 250.923 219.191 251.37 218.76C254.27 215.86 260.14 218.17 262.29 220.84Z" fill="#F3BD8F"/>
<path d="M267.96 243.2H388.5L360.81 318.67H289.44L267.96 243.2ZM382.44 247.43H273.56L292.63 314.43H357.85L382.44 247.43Z" fill="#D5C1FC"/>
<path d="M237.74 243.2H360.34L332.64 318.67H261.27L237.74 243.2ZM354.29 247.43H245.4L264.47 314.43H329.74L354.29 247.43Z" fill="#D5C1FC"/>
<path d="M260.92 339.77H343.67V335.54H265.16V316.55H260.92V339.77Z" fill="#D5C1FC"/>
<path d="M288.62 339.77H355.99V335.54H292.85V316.55H288.62V339.77Z" fill="#D5C1FC"/>
<path d="M267.38 343.1C267.38 341.677 267.802 340.287 268.592 339.104C269.383 337.922 270.506 337 271.821 336.456C273.135 335.912 274.581 335.771 275.976 336.049C277.371 336.327 278.652 337.013 279.658 338.019C280.663 339.026 281.347 340.308 281.623 341.703C281.899 343.099 281.755 344.545 281.21 345.858C280.664 347.172 279.741 348.294 278.557 349.083C277.373 349.872 275.982 350.292 274.56 350.29C272.656 350.285 270.831 349.525 269.485 348.178C268.139 346.83 267.383 345.004 267.38 343.1ZM271.61 343.1C271.6 343.697 271.769 344.284 272.095 344.785C272.42 345.286 272.888 345.678 273.439 345.912C273.989 346.145 274.596 346.208 275.183 346.094C275.769 345.98 276.308 345.693 276.731 345.271C277.153 344.848 277.44 344.309 277.554 343.723C277.668 343.136 277.605 342.529 277.372 341.979C277.138 341.428 276.746 340.96 276.245 340.635C275.744 340.309 275.157 340.14 274.56 340.15C273.782 340.163 273.039 340.478 272.488 341.028C271.938 341.579 271.623 342.322 271.61 343.1Z" fill="#2E2E3F"/>
<path d="M319.95 347.11C318.994 345.528 318.684 343.639 319.084 341.834C319.485 340.03 320.564 338.449 322.099 337.42C323.634 336.39 325.507 335.992 327.328 336.306C329.149 336.621 330.78 337.625 331.88 339.11C332.459 339.891 332.874 340.782 333.099 341.729C333.324 342.675 333.354 343.657 333.189 344.616C333.023 345.574 332.665 346.489 332.135 347.305C331.606 348.121 330.916 348.821 330.108 349.363C329.3 349.905 328.391 350.277 327.435 350.457C326.479 350.637 325.497 350.621 324.547 350.411C323.597 350.2 322.7 349.799 321.91 349.232C321.12 348.664 320.453 347.942 319.95 347.11ZM328.37 341.46C328.046 340.958 327.58 340.564 327.03 340.328C326.481 340.093 325.873 340.027 325.286 340.139C324.699 340.251 324.159 340.536 323.735 340.957C323.311 341.378 323.022 341.917 322.906 342.503C322.79 343.089 322.852 343.697 323.083 344.248C323.315 344.799 323.706 345.268 324.206 345.596C324.706 345.923 325.292 346.094 325.89 346.086C326.488 346.077 327.069 345.891 327.56 345.55C328.199 345.106 328.641 344.432 328.792 343.669C328.943 342.906 328.792 342.114 328.37 341.46Z" fill="#2E2E3F"/>
<path d="M379.03 258.32H245.2V261.51H379.03V258.32Z" fill="#D5C1FC"/>
<path d="M376.16 269.05H248.69V272.24H376.16V269.05Z" fill="#D5C1FC"/>
<path d="M372.03 279.78H252.19V282.97H372.03V279.78Z" fill="#D5C1FC"/>
<path d="M367.9 290.51H255.69V293.7H367.9V290.51Z" fill="#D5C1FC"/>
<path d="M363.76 301.23H259.18V304.42H363.76V301.23Z" fill="#D5C1FC"/>
<path d="M370.505 244.393L344.763 314.965L347.76 316.058L373.502 245.486L370.505 244.393Z" fill="#D5C1FC"/>
<path d="M333.3 244.521L312.798 314.135L315.858 315.036L336.36 245.422L333.3 244.521Z" fill="#D5C1FC"/>
<path d="M301.999 243.954L299.618 315.004L302.806 315.111L305.188 244.061L301.999 243.954Z" fill="#D5C1FC"/>
<path d="M265.324 245.93L262.276 246.869L283.721 316.491L286.769 315.552L265.324 245.93Z" fill="#D5C1FC"/>
<path d="M209.44 140.3C212.12 141.9 215.44 141.57 218.58 141.18C218.274 139.323 217.339 137.628 215.93 136.38C214.934 135.419 213.767 134.652 212.49 134.12C210.74 133.41 206.09 132.5 204.94 134.69C204 136.48 208.09 139.5 209.44 140.3Z" fill="#3E3E54"/>
<path d="M152.28 338.62H134.79C131.808 338.62 129.39 341.038 129.39 344.02V344.03C129.39 347.012 131.808 349.43 134.79 349.43H152.28C155.262 349.43 157.68 347.012 157.68 344.03V344.02C157.68 341.038 155.262 338.62 152.28 338.62Z" fill="url(#paint12_linear)"/>
</g>
<defs>
<linearGradient id="paint0_linear" x1="207.14" y1="207.75" x2="206.19" y2="448.07" gradientUnits="userSpaceOnUse">
<stop offset="0.01"/>
<stop offset="0.13" stop-opacity="0.69"/>
<stop offset="1" stop-opacity="0"/>
</linearGradient>
<linearGradient id="paint1_linear" x1="-3243.6" y1="89351.9" x2="41721.5" y2="78986.4" gradientUnits="userSpaceOnUse">
<stop offset="0.01"/>
<stop offset="0.13" stop-opacity="0.69"/>
<stop offset="1" stop-opacity="0"/>
</linearGradient>
<linearGradient id="paint2_linear" x1="7367.95" y1="6683.29" x2="6259.66" y2="10150.3" gradientUnits="userSpaceOnUse">
<stop offset="0.01"/>
<stop offset="0.13" stop-opacity="0.69"/>
<stop offset="1" stop-opacity="0"/>
</linearGradient>
<linearGradient id="paint3_linear" x1="16104.7" y1="32730.1" x2="20215.6" y2="19793.7" gradientUnits="userSpaceOnUse">
<stop offset="0.01"/>
<stop offset="0.13" stop-opacity="0.69"/>
<stop offset="1" stop-opacity="0"/>
</linearGradient>
<linearGradient id="paint4_linear" x1="13661.4" y1="26875.3" x2="8288.58" y2="26614" gradientUnits="userSpaceOnUse">
<stop offset="0.01"/>
<stop offset="0.13" stop-opacity="0.69"/>
<stop offset="1" stop-opacity="0"/>
</linearGradient>
<linearGradient id="paint5_linear" x1="16800.9" y1="25397" x2="12512.3" y2="20349.5" gradientUnits="userSpaceOnUse">
<stop offset="0.01"/>
<stop offset="0.13" stop-opacity="0.69"/>
<stop offset="1" stop-opacity="0"/>
</linearGradient>
<linearGradient id="paint6_linear" x1="-298493" y1="12254.3" x2="-298051" y2="11681.7" gradientUnits="userSpaceOnUse">
<stop offset="0.01"/>
<stop offset="0.13" stop-opacity="0.69"/>
<stop offset="1" stop-opacity="0"/>
</linearGradient>
<linearGradient id="paint7_linear" x1="-66766.5" y1="11214.9" x2="-66871.4" y2="11214.9" gradientUnits="userSpaceOnUse">
<stop offset="0.01"/>
<stop offset="0.13" stop-opacity="0.69"/>
<stop offset="1" stop-opacity="0"/>
</linearGradient>
<linearGradient id="paint8_linear" x1="-152850" y1="16151.8" x2="-150725" y2="16115.7" gradientUnits="userSpaceOnUse">
<stop offset="0.01"/>
<stop offset="0.13" stop-opacity="0.69"/>
<stop offset="1" stop-opacity="0"/>
</linearGradient>
<linearGradient id="paint9_linear" x1="-121140" y1="5343.95" x2="-121460" y2="5343.95" gradientUnits="userSpaceOnUse">
<stop offset="0.01"/>
<stop offset="0.13" stop-opacity="0.69"/>
<stop offset="1" stop-opacity="0"/>
</linearGradient>
<linearGradient id="paint10_linear" x1="-75732.2" y1="2650.71" x2="-75863.8" y2="2650.71" gradientUnits="userSpaceOnUse">
<stop offset="0.01"/>
<stop offset="0.13" stop-opacity="0.69"/>
<stop offset="1" stop-opacity="0"/>
</linearGradient>
<linearGradient id="paint11_linear" x1="-383293" y1="15174.1" x2="-382237" y2="13453.9" gradientUnits="userSpaceOnUse">
<stop offset="0.01"/>
<stop offset="0.13" stop-opacity="0.69"/>
<stop offset="1" stop-opacity="0"/>
</linearGradient>
<linearGradient id="paint12_linear" x1="4194.38" y1="3659.34" x2="4192.93" y2="4592.58" gradientUnits="userSpaceOnUse">
<stop offset="0.01"/>
<stop offset="0.13" stop-opacity="0.69"/>
<stop offset="1" stop-opacity="0"/>
</linearGradient>
<clipPath id="clip0">
<rect width="417.98" height="401.07" fill="white"/>
</clipPath>
</defs>
</svg>
