<svg width="361" height="319" viewBox="0 0 361 319" fill="none" xmlns="http://www.w3.org/2000/svg">
<g clip-path="url(#clip0)">
<path opacity="0.18" d="M199.33 0.0800518C198.33 0.0800518 197.23 0.180052 196.17 0.260052C175.052 1.72787 154.63 8.42189 136.74 19.7401C133.189 22.0055 129.764 24.4625 126.48 27.1001C116.86 34.8201 108.23 44.2501 103.66 55.7001C101.28 61.7001 100.06 68.0101 98.6601 74.2701C94.8201 90.8501 88.6601 107.97 75.3501 118.57C58.7601 131.79 38.5901 136.33 24.1701 152.94C9.91007 169.37 -0.0299323 188.34 6.77224e-05 210.54C6.77224e-05 265.81 47.7301 285.01 92.4101 298.87C145.25 315.33 201.46 322.87 256.57 315.38C279.92 312.2 303.57 306.07 322.57 292.22C351.09 271.5 364.8 233.48 358.88 199.09C355.88 181.64 350.6 165.87 349.17 147.94C347.31 124.56 351.24 100.59 344.39 77.7501C332.99 39.8601 293.39 15.0901 256.18 8.06005C237.18 4.48005 218.91 -0.679948 199.33 0.0800518Z" fill="#D5C1FC"/>
<path d="M322.98 50.72V82.59C323.004 84.0504 322.74 85.5011 322.203 86.8594C321.666 88.2177 320.867 89.4569 319.851 90.5062C318.835 91.5556 317.622 92.3945 316.282 92.9751C314.942 93.5557 313.5 93.8666 312.04 93.89H287.7L276.7 109.82V93.89H256C253.051 93.84 250.241 92.6223 248.189 90.5039C246.136 88.3856 245.007 85.5395 245.05 82.59V50.72C245.007 47.7706 246.136 44.9245 248.189 42.8061C250.241 40.6878 253.051 39.47 256 39.42H312C313.462 39.4357 314.907 39.7395 316.251 40.3142C317.596 40.8888 318.813 41.7229 319.835 42.7687C320.857 43.8146 321.662 45.0517 322.205 46.4092C322.748 47.7668 323.018 49.218 323 50.68L322.98 50.72Z" fill="url(#paint0_linear)"/>
<path d="M316.86 283.34C317.297 283.548 317.693 283.832 318.03 284.18C318.43 284.569 318.687 285.083 318.757 285.637C318.828 286.191 318.709 286.752 318.42 287.23C317.798 287.852 316.96 288.21 316.08 288.23L285.08 293.05C279.66 293.89 274.2 294.73 268.73 294.46C266.143 294.33 263.575 293.951 261.06 293.33C256.39 292.18 251.94 290.2 247.22 289.33C242.5 288.46 237.8 289.03 233.08 288.73C227.44 288.38 222.08 286.07 216.59 284.73C208.94 282.93 200.91 284.32 193.52 282.28C185.783 280.197 177.836 278.993 169.83 278.69C161.71 278.32 153.58 278.56 145.46 278.57C141.39 278.57 137.32 278.57 133.25 278.34C130.33 278.2 124.69 276.46 122.02 277.34C133.86 273.42 146.49 273.08 158.91 272.83C169.85 272.623 180.787 272.463 191.72 272.35C205.27 272.22 218.94 272.18 232.19 275.09L213.82 279.34C223.293 281.523 232.989 282.587 242.71 282.51L255.02 282.3C259.59 282.23 264.16 282.3 268.73 282.3C270.66 282.3 272.79 281.97 274.73 282.11C276.67 282.25 278.78 283.28 280.73 283.99C281.82 284.506 283.028 284.724 284.23 284.62C285.309 284.292 286.324 283.781 287.23 283.11C291.07 280.82 295.74 280.73 300.17 280.85C305.227 280.849 310.265 281.471 315.17 282.7C315.753 282.858 316.319 283.072 316.86 283.34Z" fill="url(#paint1_linear)"/>
<path d="M210.21 61.77H139.94C131.932 61.77 125.44 68.2619 125.44 76.27V245.41C125.44 253.418 131.932 259.91 139.94 259.91H210.21C218.218 259.91 224.71 253.418 224.71 245.41V76.27C224.71 68.2619 218.218 61.77 210.21 61.77Z" fill="#F39AC4"/>
<path d="M208.73 64.26H141.42C133.677 64.26 127.4 70.537 127.4 78.28V243.06C127.4 250.803 133.677 257.08 141.42 257.08H208.73C216.473 257.08 222.75 250.803 222.75 243.06V78.28C222.75 70.537 216.473 64.26 208.73 64.26Z" fill="#473F47"/>
<path d="M220.16 80.12V239.25C220.171 241.008 219.835 242.752 219.171 244.38C218.508 246.009 217.531 247.491 216.295 248.742C215.059 249.992 213.589 250.988 211.968 251.67C210.348 252.353 208.608 252.71 206.85 252.72H143.41C141.085 252.723 138.8 252.109 136.79 250.94C134.745 249.75 133.049 248.044 131.872 245.992C130.694 243.941 130.076 241.616 130.08 239.25V80.12C130.064 76.5669 131.459 73.1527 133.958 70.6272C136.457 68.1016 139.857 66.6712 143.41 66.65H154.14V68.65C154.154 69.9213 154.54 71.1607 155.251 72.2147C155.962 73.2687 156.966 74.0911 158.14 74.58C158.92 74.8903 159.751 75.0498 160.59 75.05H190.07C191.786 75.0395 193.428 74.3496 194.637 73.1315C195.846 71.9134 196.523 70.2661 196.52 68.55V66.65H206.9C210.336 66.6526 213.636 67.9942 216.1 70.39C217.395 71.6562 218.422 73.1703 219.12 74.842C219.817 76.5136 220.171 78.3087 220.16 80.12Z" fill="white"/>
<path d="M220.16 80.12V127.46H130.04V80.12C130.032 78.3573 130.372 76.6103 131.04 74.979C131.708 73.3478 132.69 71.8641 133.932 70.6131C135.174 69.362 136.65 68.368 138.277 67.688C139.903 67.008 141.647 66.6553 143.41 66.65H154.16V68.65C154.174 69.9213 154.56 71.1607 155.271 72.2147C155.982 73.2687 156.986 74.0911 158.16 74.58C158.939 74.8903 159.771 75.0498 160.61 75.05H190.09C191.806 75.0395 193.448 74.3496 194.657 73.1315C195.865 71.9134 196.543 70.2661 196.54 68.55V66.65H206.92C210.356 66.6526 213.656 67.9942 216.12 70.39C217.412 71.6579 218.435 73.1727 219.129 74.8443C219.823 76.5159 220.174 78.3101 220.16 80.12Z" fill="#F39AC4"/>
<path d="M125.41 192.59H157.97C160.159 192.553 162.244 191.649 163.766 190.076C165.289 188.502 166.125 186.389 166.09 184.2V112.85C166.107 111.767 165.911 110.69 165.512 109.683C165.113 108.675 164.52 107.756 163.766 106.978C163.012 106.2 162.112 105.578 161.117 105.147C160.123 104.717 159.053 104.487 157.97 104.47H125.41V192.59Z" fill="url(#paint2_linear)"/>
<path d="M153.05 104.47H83.88C79.7986 104.47 76.49 107.779 76.49 111.86V179.7C76.49 183.781 79.7986 187.09 83.88 187.09H153.05C157.131 187.09 160.44 183.781 160.44 179.7V111.86C160.44 107.779 157.131 104.47 153.05 104.47Z" fill="white"/>
<path d="M108.79 164.84H99.79C99.6206 164.843 99.4524 164.812 99.2948 164.75C99.1373 164.687 98.9936 164.594 98.872 164.476C98.7503 164.358 98.6531 164.218 98.5859 164.062C98.5186 163.907 98.4826 163.739 98.48 163.57C98.4702 163.467 98.4702 163.363 98.48 163.26L100.28 151.48C100.847 147.767 101.413 144.06 101.98 140.36C102.42 137.44 102.863 134.52 103.31 131.6C103.72 128.93 104.12 126.26 104.53 123.6C104.563 123.156 104.733 122.734 105.016 122.39C105.299 122.046 105.681 121.798 106.11 121.68C106.297 121.64 106.488 121.62 106.68 121.62H121.84C123.87 121.604 125.892 121.887 127.84 122.46C128.608 122.689 129.349 123 130.05 123.39C131.23 124.036 132.243 124.948 133.008 126.054C133.774 127.159 134.271 128.429 134.46 129.76C134.64 130.95 134.64 132.16 134.46 133.35C134.414 133.567 134.397 133.789 134.41 134.01C134.367 134.064 134.342 134.131 134.34 134.2C134.151 135.395 133.877 136.574 133.52 137.73C132.73 140.405 131.243 142.821 129.21 144.73C128.119 145.704 126.881 146.497 125.54 147.08C124.301 147.623 123.002 148.016 121.67 148.25C120.635 148.449 119.584 148.56 118.53 148.58H113.06C112.54 148.565 112.034 148.743 111.637 149.079C111.24 149.415 110.981 149.885 110.91 150.4C110.75 151.3 110.62 152.21 110.49 153.12C110.31 154.28 110.15 155.45 109.97 156.62C109.79 157.79 109.56 159.25 109.35 160.62L108.79 164.84Z" fill="#F39AC4"/>
<path d="M108.79 164.84H99.79C99.6206 164.843 99.4524 164.812 99.2948 164.75C99.1373 164.687 98.9936 164.594 98.872 164.476C98.7503 164.358 98.6531 164.218 98.5859 164.062C98.5186 163.907 98.4826 163.739 98.48 163.57C98.4702 163.467 98.4702 163.363 98.48 163.26L100.28 151.48C100.847 147.767 101.413 144.06 101.98 140.36C102.42 137.44 102.863 134.52 103.31 131.6C103.72 128.93 104.12 126.26 104.53 123.6C104.563 123.156 104.733 122.734 105.016 122.39C105.299 122.046 105.681 121.798 106.11 121.68C106.297 121.64 106.488 121.62 106.68 121.62H121.84C123.87 121.604 125.892 121.887 127.84 122.46C128.608 122.689 129.349 123 130.05 123.39C131.23 124.036 132.243 124.948 133.008 126.054C133.774 127.159 134.271 128.429 134.46 129.76C134.64 130.95 134.64 132.16 134.46 133.35C134.414 133.567 134.397 133.789 134.41 134.01C134.367 134.064 134.342 134.131 134.34 134.2C134.151 135.395 133.877 136.574 133.52 137.73C132.73 140.405 131.243 142.821 129.21 144.73C128.119 145.704 126.881 146.497 125.54 147.08C124.301 147.623 123.002 148.016 121.67 148.25C120.635 148.449 119.584 148.56 118.53 148.58H113.06C112.54 148.565 112.034 148.743 111.637 149.079C111.24 149.415 110.981 149.885 110.91 150.4C110.75 151.3 110.62 152.21 110.49 153.12C110.31 154.28 110.15 155.45 109.97 156.62C109.79 157.79 109.56 159.25 109.35 160.62L108.79 164.84Z" fill="url(#paint3_linear)"/>
<path d="M108.79 164.84L109.45 160.6C109.66 159.28 109.87 157.97 110.07 156.6C110.25 155.43 110.41 154.26 110.59 153.1C110.72 152.19 110.85 151.28 111.01 150.38C111.081 149.865 111.34 149.395 111.737 149.059C112.134 148.723 112.64 148.545 113.16 148.56H118.63C119.684 148.54 120.735 148.429 121.77 148.23C123.102 147.996 124.401 147.603 125.64 147.06C126.98 146.477 128.219 145.683 129.31 144.71C131.342 142.801 132.83 140.385 133.62 137.71C133.977 136.554 134.251 135.375 134.44 134.18C134.442 134.111 134.467 134.044 134.51 133.99C135.487 134.469 136.324 135.192 136.94 136.09C137.729 137.209 138.209 138.516 138.33 139.88C138.581 142.525 138.239 145.193 137.33 147.69C136.7 149.619 135.64 151.38 134.23 152.84C132.612 154.458 130.576 155.593 128.35 156.12C126.665 156.53 124.934 156.729 123.2 156.71H122.2C121.77 156.705 121.352 156.857 121.025 157.136C120.698 157.416 120.483 157.804 120.42 158.23C120.21 159.39 120.03 160.57 119.85 161.74C119.56 163.61 119.28 165.49 119 167.36L118.79 168.59C118.74 168.893 118.628 169.183 118.46 169.44C118.36 169.601 118.22 169.733 118.053 169.822C117.886 169.912 117.699 169.956 117.51 169.95H109.11C108.9 169.95 108.67 170.03 108.51 169.8C108.321 169.555 108.235 169.247 108.27 168.94C108.38 168.21 108.5 167.48 108.61 166.75C108.72 166.02 108.69 165.47 108.79 164.84Z" fill="#F39AC4"/>
<path d="M279.75 270.32C279.75 270.32 282.81 273.2 282.21 275.25C281.61 277.3 278.86 278.66 278.48 281.16C278.1 283.66 276.62 285.02 275.28 285.02H268.88C268.88 285.02 267.88 283.26 270.28 282.73C272.68 282.2 273.56 279.26 273.41 276.53C273.351 274.407 273.428 272.283 273.64 270.17L278.71 268.95L279.75 270.32Z" fill="#FCBDBA"/>
<path d="M253.87 271.54C253.87 271.54 254.97 283.74 253.63 284.43H236.41C236.41 284.43 236.41 282.38 239.17 281.93C241.93 281.48 246.78 279.81 247.6 276.09C248.42 272.37 253.87 271.54 253.87 271.54Z" fill="#FCBDBA"/>
<path d="M266.11 184.01C262.58 175.82 260.42 173.48 260.83 170.93C261.14 169.04 259.89 135.69 259.89 135.69C259.47 135.55 258.63 135.43 258.17 135.33C257.449 135.162 256.782 134.815 256.231 134.32C255.68 133.825 255.264 133.199 255.02 132.5C254.256 130.065 253.895 127.521 253.95 124.97L253.5 125.06L245.89 126.62C245.89 126.62 246.06 129.09 246.06 131.42V131.48C246.079 132.453 245.781 133.405 245.211 134.194C244.641 134.982 243.83 135.563 242.9 135.85L241.1 136.38C239.353 141.804 238.236 147.411 237.77 153.09C237.24 161.55 242.86 165.23 237.77 182.15C232.5 199.41 268.07 188.52 266.11 184.01Z" fill="#FCBDBA"/>
<path d="M260.83 170.92C260.83 170.92 268.38 181.39 269.09 188.46C269.8 195.53 270.19 220.38 271.69 227.28C273.19 234.18 278.69 247.45 278.69 268.95C278.172 269.849 277.338 270.522 276.35 270.84C275.676 271.077 274.988 271.274 274.29 271.43C273.574 271.595 272.822 271.51 272.162 271.187C271.501 270.865 270.971 270.326 270.66 269.66C266.94 261.91 255.06 236.92 254.45 231.74C254.02 228.07 250.27 203.74 242.09 189.52C240.09 186.1 243.3 172.52 243.3 172.52L260.83 170.92Z" fill="#F39AC4"/>
<path d="M278.7 269.01C278.193 269.888 277.382 270.549 276.42 270.87H276.41C275.732 271.106 275.041 271.303 274.34 271.46C273.625 271.625 272.875 271.539 272.216 271.216C271.557 270.894 271.029 270.355 270.72 269.69C266.99 261.94 255.12 236.95 254.51 231.76C253.415 224.079 251.812 216.479 249.71 209.01C247.81 202.22 245.31 195.15 242.11 189.6C240.11 186.17 243.32 172.6 243.32 172.6L260.83 171.01C260.83 171.01 268.38 181.47 269.09 188.55C269.8 195.63 270.19 220.48 271.69 227.37C273.19 234.26 278.7 247.44 278.7 269.01Z" fill="url(#paint4_linear)"/>
<path d="M276.41 270.82C275.732 271.056 275.041 271.253 274.34 271.41C273.625 271.575 272.875 271.489 272.216 271.166C271.557 270.844 271.029 270.305 270.72 269.64C266.99 261.89 255.12 236.9 254.51 231.71C253.43 224.016 251.84 216.403 249.75 208.92C250.257 208.079 251.076 207.474 252.028 207.236C252.98 206.998 253.987 207.147 254.83 207.65H254.89C258.34 209.53 259.54 216.35 260.14 219.86C261.07 225.46 260.71 231.4 262.99 236.58C264.21 239.36 266.16 241.81 267.07 244.72C267.614 247.118 267.962 249.556 268.11 252.01C268.788 256.949 270.762 261.621 273.83 265.55C275.08 267.12 276.58 268.83 276.41 270.82Z" fill="url(#paint5_linear)"/>
<path d="M245.89 126.61C245.89 126.61 246.06 129.08 246.06 131.41C250.33 131.29 252.58 127.28 253.5 125.05L245.89 126.61Z" fill="#FCBDBA"/>
<path d="M244.54 128.73C244.601 128.797 244.672 128.855 244.75 128.9C244.964 129.017 245.206 129.073 245.45 129.06C246.416 129.04 247.37 128.851 248.27 128.5C249.655 128.109 250.969 127.498 252.16 126.69C253.36 125.787 254.191 124.48 254.5 123.01C254.666 121.684 254.713 120.345 254.64 119.01C254.64 117.16 254.89 114.86 253.82 113.24C252.82 111.77 251.03 111.41 249.43 111.32C247.19 111.18 244.37 111.21 242.61 112.89C242.103 113.392 241.719 114.005 241.49 114.68C241.169 115.988 241.081 117.342 241.23 118.68C241.225 119.769 241.165 120.857 241.05 121.94C241.02 122.139 241.02 122.341 241.05 122.54C241.164 122.837 241.353 123.099 241.6 123.3C242.92 124.74 243.15 126.93 244.32 128.5C244.383 128.586 244.457 128.663 244.54 128.73Z" fill="#FCBDBA"/>
<path d="M244.84 111.14C244.84 111.14 247.6 118.74 251.84 119.87C256.08 121 257.92 119.82 257.92 119.82C255.809 117.903 254.422 115.319 253.99 112.5C253.99 112.5 246.92 107.52 244.84 111.14Z" fill="#473F47"/>
<path d="M246.66 124.8C246.404 125.098 246.081 125.332 245.718 125.483C245.355 125.634 244.962 125.698 244.57 125.67C244.241 125.647 243.924 125.536 243.651 125.35C243.379 125.164 243.161 124.908 243.02 124.61C244.227 124.327 245.489 124.393 246.66 124.8Z" fill="#FCBDBA"/>
<path d="M241.41 170.07L239.24 169.4C239.24 169.4 239.18 169.24 239.08 168.94C239.789 169.443 240.576 169.825 241.41 170.07Z" fill="#FCBDBA"/>
<path d="M239.84 171.4C239.84 171.4 234.89 187.31 234.57 192.73C234.25 198.15 244.04 269.73 244.43 272.2C244.82 274.67 247.64 276.05 247.64 276.05C248.62 276.545 249.755 276.635 250.8 276.3C252.049 276.038 253.213 275.471 254.19 274.65C254.19 274.65 258.04 223.65 255.66 205.39C254.204 194.112 253.396 182.76 253.24 171.39L239.84 171.4Z" fill="#F39AC4"/>
<path d="M254.19 274.66C253.206 275.474 252.04 276.037 250.79 276.3C249.869 276.581 248.881 276.549 247.98 276.21C247.857 276.171 247.74 276.117 247.63 276.05C247.63 276.05 244.8 274.55 244.43 272.2C244.06 269.85 234.26 198.15 234.58 192.73C234.9 187.31 239.84 171.4 239.84 171.4H253.25C253.398 182.77 254.202 194.123 255.66 205.4C258.04 223.63 254.19 274.66 254.19 274.66Z" fill="url(#paint6_linear)"/>
<path d="M267.08 158.63C266.92 161.63 264.01 165.56 263.6 166.55C262.6 169.01 261.4 169.4 261.4 169.4C261.721 170.396 261.889 171.434 261.9 172.48C261.9 172.48 251.25 175.26 243.02 173.97C241.768 173.782 240.538 173.467 239.35 173.03C238.729 171.756 238.621 170.291 239.05 168.94C238.27 166.55 234.86 155.45 236.49 148.89C236.88 147.3 237.34 145.73 237.86 144.16C238.32 142.79 238.55 141.42 239 140.05C239.301 139.429 239.399 138.73 239.28 138.05C239.216 137.849 239.094 137.672 238.931 137.539C238.768 137.406 238.57 137.323 238.36 137.3C238.251 137.291 238.141 137.31 238.041 137.356C237.941 137.401 237.855 137.471 237.79 137.56C238.84 134.97 241.66 133.75 244.22 132.76C244.682 132.558 245.177 132.443 245.68 132.42C246.373 132.51 247.033 132.772 247.6 133.18C248.17 133.51 248.75 133.81 249.35 134.1C251.009 134.874 252.77 135.406 254.58 135.68C255.509 135.827 256.45 135.883 257.39 135.85C257.98 135.85 259.21 135.43 259.73 135.68C260.83 136.22 261.86 139.68 262.39 140.77C263.963 143.977 265.527 147.183 267.08 150.39C267.245 153.134 267.245 155.886 267.08 158.63Z" fill="white"/>
<path d="M245.49 143.3C245.359 145.095 244.891 146.849 244.11 148.47C243.883 148.878 243.622 149.266 243.33 149.63C242.7 150.45 241.95 151.19 241.38 152.06C239.71 154.62 239.9 157.98 240.15 161.06C240.42 164.48 240.74 167.97 242.07 171.06C242.548 171.956 242.869 172.926 243.02 173.93C241.768 173.742 240.538 173.427 239.35 172.99C238.729 171.716 238.621 170.251 239.05 168.9C238.27 166.51 234.86 155.41 236.49 148.85C236.88 147.26 237.34 145.69 237.86 144.12C238.32 142.75 238.55 141.38 239 140.01C239.301 139.389 239.399 138.69 239.28 138.01C239.216 137.81 239.094 137.632 238.931 137.499C238.768 137.366 238.57 137.283 238.36 137.26C238.638 136.781 238.974 136.337 239.36 135.94C239.725 135.511 240.189 135.177 240.711 134.966C241.234 134.756 241.8 134.675 242.36 134.73C243.079 134.849 243.739 135.201 244.24 135.73C245.96 137.73 245.83 140.71 245.49 143.3Z" fill="url(#paint7_linear)"/>
<path d="M246.41 125.01C246.41 125.01 246.24 125.77 244.41 125.65C244.41 125.65 242.86 125.56 242.91 124.72C244.071 124.373 245.321 124.477 246.41 125.01Z" fill="#FCBDBA"/>
<path d="M222.41 140.59C218.621 140.291 214.875 139.58 211.24 138.47C209.53 137.98 207.82 137.34 206.1 137.03C205.333 136.931 204.597 136.669 203.94 136.262C203.283 135.855 202.72 135.312 202.29 134.67C201.49 133.45 201.04 131.78 199.69 131.29L199.8 133.15C199.839 133.363 199.8 133.583 199.69 133.77C199.42 134.12 198.88 133.91 198.52 133.67L193.79 130.55C193.762 130.968 193.838 131.386 194.013 131.767C194.188 132.148 194.455 132.479 194.79 132.73C195.482 133.207 196.026 133.869 196.36 134.64C195.036 133.85 193.636 133.197 192.18 132.69C192.159 133.072 192.241 133.452 192.417 133.791C192.593 134.131 192.856 134.417 193.18 134.62C193.834 134.999 194.416 135.49 194.9 136.07C193.686 135.709 192.44 135.461 191.18 135.33C190.89 135.97 191.69 136.52 192.34 136.74L195.12 137.68C194.005 137.658 192.89 137.702 191.78 137.81C192.39 138.63 193.62 138.38 194.6 138.61C195.597 139.001 196.521 139.559 197.33 140.26C198.58 140.939 199.93 141.411 201.33 141.66C202.283 142.068 203.167 142.621 203.95 143.3C206.612 144.861 209.398 146.199 212.28 147.3C213.69 147.89 215.11 148.48 216.57 148.94C221.15 150.38 226.03 150.46 230.82 150.2C234.488 150.116 238.08 149.134 241.28 147.34C244.09 145.76 245.16 141.46 244.69 138.34C244.628 137.643 244.372 136.978 243.95 136.42C243.518 135.965 242.949 135.663 242.33 135.56C240.05 135.09 237.85 136.47 235.79 137.56C231.708 139.82 227.067 140.871 222.41 140.59Z" fill="#FCBDBA"/>
<path d="M240.9 117.52L242.26 114.99C242.25 115.795 242.472 116.586 242.9 117.269C243.327 117.951 243.941 118.497 244.67 118.84C245.166 118.996 245.637 119.221 246.07 119.51C246.419 119.864 246.68 120.296 246.83 120.77C247.735 123.155 248.126 125.704 247.98 128.25C247.73 132.66 244.71 140.94 249.06 144.2C250.662 145.23 252.507 145.82 254.41 145.91C254.202 147.699 254.118 149.5 254.16 151.3C254.076 153.152 254.509 154.99 255.41 156.61C257.14 159.24 260.87 159.82 263.7 158.61C264.484 158.159 265.352 157.869 266.25 157.76C267.64 157.76 268.74 158.92 270.02 159.46C270.976 159.795 272.002 159.879 273 159.704C273.998 159.529 274.935 159.101 275.72 158.46C277.473 157.008 278.647 154.976 279.031 152.732C279.414 150.489 278.981 148.182 277.81 146.23C276.81 144.71 275.41 143.52 274.47 141.97C271.85 137.64 274.7 132.17 273.25 127.45C272.611 125.353 271.237 123.556 269.38 122.39C267.27 121.08 264.52 120.58 263.14 118.48C261.3 115.69 262.92 111.75 261.77 108.6C260.91 106.26 258.66 104.77 256.38 103.93C253.8 103.007 251.038 102.707 248.32 103.054C245.602 103.402 243.005 104.387 240.74 105.93C237.03 108.46 236.78 114.89 240.9 117.52Z" fill="#473F47"/>
<path d="M207.03 110.34H181.36C180.068 110.34 179.02 111.388 179.02 112.68V112.75C179.02 114.042 180.068 115.09 181.36 115.09H207.03C208.322 115.09 209.37 114.042 209.37 112.75V112.68C209.37 111.388 208.322 110.34 207.03 110.34Z" fill="white"/>
<path d="M249.27 272.9C249.18 274.107 248.731 275.26 247.98 276.21C247.857 276.171 247.74 276.117 247.63 276.05C247.63 276.05 244.8 274.55 244.43 272.2C244.06 269.85 234.26 198.15 234.58 192.73C234.9 187.31 239.84 171.4 239.84 171.4L239.35 173.03C239.75 173.19 241.35 173.64 242.22 173.83C246.31 174.71 240.68 177.42 239.52 180.52C238.371 184.169 237.85 187.987 237.98 191.81C237.851 195.086 238.089 198.367 238.69 201.59C239.39 204.87 240.69 207.99 241.41 211.27C242.83 218.05 241.41 225.19 242.64 232.02C242.96 233.82 243.45 235.57 243.77 237.37C244.273 240.963 244.457 244.594 244.32 248.22C244.32 253.33 244.48 258.56 246.32 263.3C247.52 266.46 249.48 269.51 249.27 272.9Z" fill="url(#paint8_linear)"/>
<path d="M249.53 282.66C248.588 282.627 247.653 282.493 246.74 282.26C246.371 282.184 246.012 282.067 245.67 281.91C244.86 281.48 244.26 280.58 243.35 280.46C242.96 280.429 242.569 280.481 242.2 280.61L240.3 281.11C239.388 281.319 238.502 281.631 237.66 282.04C236.783 282.457 236.077 283.163 235.66 284.04C235.51 284.38 235.27 285.98 235.52 286.24C235.714 286.407 235.964 286.492 236.22 286.48C241.833 286.777 247.461 286.673 253.06 286.17C253.37 286.173 253.677 286.098 253.95 285.95C254.38 285.68 254.69 283.95 254.77 283.48C254.98 282.19 254.7 280.88 253.27 281.67C252.13 282.319 250.841 282.66 249.53 282.66Z" fill="#F39AC4"/>
<path d="M279.41 275.19C278.903 276.919 277.81 278.418 276.32 279.43C275.99 279.705 275.598 279.896 275.178 279.985C274.758 280.074 274.323 280.058 273.91 279.94C273.68 279.813 273.443 279.699 273.2 279.6C272.912 279.555 272.617 279.584 272.344 279.686C272.071 279.788 271.828 279.958 271.64 280.18C271.23 280.6 270.92 281.11 270.48 281.49C269.657 282.033 268.762 282.457 267.82 282.75C266.93 283.17 266.06 284.04 266.23 285.03C266.44 286.31 268.05 286.65 269.31 286.65C271.992 286.639 274.668 286.401 277.31 285.94C277.731 285.901 278.132 285.737 278.46 285.47C278.76 285.061 278.941 284.576 278.98 284.07C279.199 282.745 279.741 281.495 280.56 280.43C281.86 278.79 284 277.51 284.05 275.43C284.05 274.08 282.74 271.86 281.41 271.43C280.08 271 279.71 274.01 279.41 275.19Z" fill="#F39AC4"/>
<path d="M213.61 152.06H178.75C177.673 152.06 176.8 152.933 176.8 154.01V154.08C176.8 155.157 177.673 156.03 178.75 156.03H213.61C214.687 156.03 215.56 155.157 215.56 154.08V154.01C215.56 152.933 214.687 152.06 213.61 152.06Z" fill="url(#paint9_linear)"/>
<path d="M213.61 162.86H178.75C177.673 162.86 176.8 163.733 176.8 164.81V164.88C176.8 165.957 177.673 166.83 178.75 166.83H213.61C214.687 166.83 215.56 165.957 215.56 164.88V164.81C215.56 163.733 214.687 162.86 213.61 162.86Z" fill="url(#paint10_linear)"/>
<path d="M213.61 173.65H178.75C177.673 173.65 176.8 174.523 176.8 175.6V175.67C176.8 176.747 177.673 177.62 178.75 177.62H213.61C214.687 177.62 215.56 176.747 215.56 175.67V175.6C215.56 174.523 214.687 173.65 213.61 173.65Z" fill="url(#paint11_linear)"/>
<path d="M213.61 184.44H178.75C177.673 184.44 176.8 185.313 176.8 186.39V186.46C176.8 187.537 177.673 188.41 178.75 188.41H213.61C214.687 188.41 215.56 187.537 215.56 186.46V186.39C215.56 185.313 214.687 184.44 213.61 184.44Z" fill="url(#paint12_linear)"/>
<path d="M213.61 195.23H178.75C177.673 195.23 176.8 196.103 176.8 197.18V197.25C176.8 198.327 177.673 199.2 178.75 199.2H213.61C214.687 199.2 215.56 198.327 215.56 197.25V197.18C215.56 196.103 214.687 195.23 213.61 195.23Z" fill="url(#paint13_linear)"/>
<path d="M319.41 50.72V82.59C319.434 84.0504 319.17 85.5011 318.633 86.8594C318.096 88.2177 317.297 89.4569 316.281 90.5062C315.265 91.5556 314.052 92.3945 312.712 92.9751C311.372 93.5557 309.93 93.8666 308.47 93.89H284.15L273.15 109.82V93.89H252.41C250.948 93.8731 249.504 93.5683 248.161 92.9933C246.817 92.4182 245.599 91.584 244.578 90.5384C243.556 89.4928 242.751 88.2562 242.207 86.8993C241.664 85.5424 241.393 84.0917 241.41 82.63V50.72C241.388 49.2551 241.655 47.8001 242.196 46.4385C242.737 45.077 243.541 43.8356 244.563 42.7858C245.585 41.7359 246.805 40.8982 248.151 40.3206C249.498 39.743 250.945 39.437 252.41 39.42H308.41C309.87 39.4357 311.313 39.7389 312.656 40.3123C314 40.8856 315.217 41.7179 316.238 42.7617C317.26 43.8054 318.065 45.0402 318.61 46.3954C319.154 47.7506 319.426 49.1997 319.41 50.66V50.72Z" fill="white"/>
<path d="M277.15 87.3099L277.35 82.1999C274.699 82.0694 272.141 81.1809 269.98 79.6399L271.27 76.3199C273.284 77.7885 275.681 78.6397 278.17 78.7699C281.65 78.8999 284.05 76.9499 284.17 74.0799C284.29 71.2099 282.44 69.5299 278.9 67.8499C274 65.6399 271.02 63.1999 271.19 58.8499C271.35 54.6799 274.34 51.6299 278.86 51.0599L279.05 45.9399L282.05 46.0599L281.86 50.9299C284.084 51.0495 286.239 51.7381 288.12 52.9299L286.8 56.2599C285.003 55.0328 282.895 54.3395 280.72 54.2599C276.97 54.1099 275.47 56.3699 275.4 58.3699C275.3 60.9799 277.05 62.3699 281.19 64.3699C286.19 66.6799 288.56 69.3699 288.39 73.8799C288.24 77.8799 285.39 81.4699 280.39 82.1199L280.18 87.3499L277.15 87.3099Z" fill="#F39AC4"/>
</g>
<defs>
<linearGradient id="paint0_linear" x1="389.92" y1="135.48" x2="191.28" y2="6.85008" gradientUnits="userSpaceOnUse">
<stop offset="0.01"/>
<stop offset="0.08" stop-opacity="0.69"/>
<stop offset="0.21" stop-opacity="0.32"/>
<stop offset="1" stop-opacity="0"/>
</linearGradient>
<linearGradient id="paint1_linear" x1="223.11" y1="192.57" x2="219.59" y2="308.24" gradientUnits="userSpaceOnUse">
<stop offset="0.01"/>
<stop offset="0.84" stop-opacity="0"/>
</linearGradient>
<linearGradient id="paint2_linear" x1="1921.88" y1="24910.3" x2="22215" y2="17641.7" gradientUnits="userSpaceOnUse">
<stop offset="0.01"/>
<stop offset="0.08" stop-opacity="0.69"/>
<stop offset="0.21" stop-opacity="0.32"/>
<stop offset="1" stop-opacity="0"/>
</linearGradient>
<linearGradient id="paint3_linear" x1="31.91" y1="115.89" x2="402.47" y2="241.59" gradientUnits="userSpaceOnUse">
<stop offset="0.01"/>
<stop offset="0.13" stop-opacity="0.69"/>
<stop offset="0.25" stop-opacity="0.32"/>
<stop offset="1" stop-opacity="0"/>
</linearGradient>
<linearGradient id="paint4_linear" x1="8968.98" y1="14032.3" x2="14099.6" y2="13215.3" gradientUnits="userSpaceOnUse">
<stop offset="0.01"/>
<stop offset="0.84" stop-opacity="0"/>
</linearGradient>
<linearGradient id="paint5_linear" x1="7539.28" y1="6367" x2="8251.99" y2="6367" gradientUnits="userSpaceOnUse">
<stop offset="0.01"/>
<stop offset="0.13" stop-opacity="0.69"/>
<stop offset="0.25" stop-opacity="0.32"/>
<stop offset="1" stop-opacity="0"/>
</linearGradient>
<linearGradient id="paint6_linear" x1="5391.91" y1="14484.7" x2="10156.3" y2="13837.2" gradientUnits="userSpaceOnUse">
<stop offset="0.01"/>
<stop offset="0.13" stop-opacity="0.69"/>
<stop offset="0.25" stop-opacity="0.32"/>
<stop offset="1" stop-opacity="0"/>
</linearGradient>
<linearGradient id="paint7_linear" x1="2546.72" y1="7496.12" x2="2910.52" y2="7472.23" gradientUnits="userSpaceOnUse">
<stop offset="0.01"/>
<stop offset="0.13" stop-opacity="0.69"/>
<stop offset="0.25" stop-opacity="0.32"/>
<stop offset="1" stop-opacity="0"/>
</linearGradient>
<linearGradient id="paint8_linear" x1="3825.78" y1="11639.7" x2="4747.32" y2="11649.6" gradientUnits="userSpaceOnUse">
<stop offset="0.01"/>
<stop offset="0.13" stop-opacity="0.69"/>
<stop offset="0.25" stop-opacity="0.32"/>
<stop offset="1" stop-opacity="0"/>
</linearGradient>
<linearGradient id="paint9_linear" x1="8785.84" y1="-1077.49" x2="8784.3" y2="-382.415" gradientUnits="userSpaceOnUse">
<stop offset="0.01"/>
<stop offset="0.84" stop-opacity="0"/>
</linearGradient>
<linearGradient id="paint10_linear" x1="8785.84" y1="-1045.45" x2="8784.3" y2="-350.378" gradientUnits="userSpaceOnUse">
<stop offset="0.01"/>
<stop offset="0.84" stop-opacity="0"/>
</linearGradient>
<linearGradient id="paint11_linear" x1="8785.84" y1="-1013.4" x2="8784.3" y2="-318.292" gradientUnits="userSpaceOnUse">
<stop offset="0.01"/>
<stop offset="0.84" stop-opacity="0"/>
</linearGradient>
<linearGradient id="paint12_linear" x1="8785.84" y1="-981.317" x2="8784.3" y2="-286.246" gradientUnits="userSpaceOnUse">
<stop offset="0.01"/>
<stop offset="0.84" stop-opacity="0"/>
</linearGradient>
<linearGradient id="paint13_linear" x1="8785.84" y1="-949.271" x2="8784.3" y2="-254.2" gradientUnits="userSpaceOnUse">
<stop offset="0.01"/>
<stop offset="0.84" stop-opacity="0"/>
</linearGradient>
<clipPath id="clip0">
<rect width="360.24" height="318.28" fill="white"/>
</clipPath>
</defs>
</svg>
