<svg width="88" height="74" viewBox="0 0 88 74" fill="none" xmlns="http://www.w3.org/2000/svg">
<g clip-path="url(#clip0)">
<path opacity="0.24" d="M87.9985 53.6431C88.1389 62.4972 81.1026 70.9166 72.3293 72.4013C68.2233 73.0992 64.0345 72.4267 59.8647 72.2427C50.7946 71.8493 41.7453 73.7844 32.6912 73.9875C30.8584 74.0287 29.0224 73.9875 27.1847 73.859C21.1428 73.4042 15.2427 71.8131 9.79751 69.1702C7.47497 68.0441 5.20825 66.699 3.51738 64.7638C-0.110007 60.6176 -0.459346 54.5488 0.379706 49.1241C1.21876 43.6994 3.06436 38.3968 3.15847 32.9054C3.22547 29.0716 2.43427 25.2791 2.23168 21.4501C2.0291 17.621 2.49648 13.5604 4.7632 10.461C7.02992 7.36161 10.8025 5.66281 14.5814 4.92366C18.3603 4.1845 22.2381 4.28125 26.0873 4.04333C34.0487 3.55796 41.8442 1.62758 49.7594 0.664765C61.5636 -0.773899 80.5459 -1.23865 81.8524 14.1235C81.9526 15.3941 81.9803 16.6693 81.9353 17.943C81.8204 22.186 81.1648 26.4449 81.7072 30.6562C82.7217 38.5697 87.8709 45.6694 87.9985 53.6431Z" fill="url(#paint0_linear)"/>
<path opacity="0.24" d="M87.9985 53.6429C88.1389 62.497 81.1027 70.9164 72.3293 72.4011C68.2234 73.099 64.0345 72.4265 59.8647 72.2425C50.7947 71.8491 41.7454 73.7842 32.6913 73.9873C30.474 71.9078 28.2615 69.8267 26.1798 67.6219C25.5418 66.9351 24.8686 66.1738 24.7442 65.2427C24.6549 64.5495 24.8798 63.8548 25.1031 63.1933C28.977 51.9026 34.3761 41.1877 41.152 31.3429C44.3168 26.7429 47.7719 22.3651 51.3099 18.0491C53.7138 15.121 56.826 9.42345 61.093 9.14428C64.5705 8.91587 68.603 12.0882 71.6211 13.4444C75.0411 14.9814 78.4898 16.4582 81.9353 17.946C81.8205 22.189 81.1649 26.4479 81.7072 30.6592C82.7217 38.5695 87.8709 45.6692 87.9985 53.6429Z" fill="url(#paint1_linear)"/>
<path d="M48.1356 10.748L46.1448 10.1262L46.6888 5.46757H46.8483C47.0461 5.30895 47.6236 4.62214 47.4688 4.11298C47.33 3.64664 46.5835 3.45947 45.9789 3.38175C45.1208 3.27389 44.5593 3.37064 44.3535 3.65933C44.0775 4.04953 44.4412 4.78234 44.6055 5.03137L44.6486 5.09641L44.3487 9.59957L42.1394 8.99365L42.2638 8.54793L43.8638 8.99365L44.1158 5.18682C43.9563 4.92827 43.4777 4.00987 43.9068 3.39602C44.2259 2.94555 44.9341 2.78534 46.0156 2.92017C47.7049 3.1343 48.0287 3.82905 48.0048 4.3747C47.9809 4.92034 47.5167 5.58971 47.1673 5.83874L46.7031 9.80419L48.2792 10.2959L48.1356 10.748Z" fill="url(#paint2_linear)"/>
<path d="M64.4109 66.1151H24.3613L21.8696 64.0752L24.3613 10.3609L61.9192 8.32104L64.4109 10.3609V66.1151Z" fill="url(#paint3_linear)"/>
<path d="M64.4109 66.1151H24.3613L21.8696 64.0752L24.3613 10.3609L61.9192 8.32104L64.4109 10.3609V66.1151Z" fill="url(#paint4_linear)"/>
<path d="M63.0917 65.1428L23.7264 65.2411L21.8696 64.0753L23.1888 10.1674L60.7468 8.12756L63.2384 10.1674L63.0917 65.1428Z" fill="url(#paint5_linear)"/>
<path d="M61.9192 8.32104H21.8696V64.0752H61.9192V8.32104Z" fill="white"/>
<path d="M34.4904 12.2009C34.4696 12.342 34.4601 12.5181 34.5749 12.5974C34.6375 12.6349 34.7092 12.6547 34.7823 12.6545C38.4717 12.972 42.1877 12.7669 45.8192 12.0454C46.4173 11.9265 47.1415 11.6536 47.1846 11.0493C47.2245 10.5132 46.7061 9.85808 47.124 9.52181C47.2807 9.42844 47.4597 9.37859 47.6424 9.37746C47.9738 9.32937 48.2902 9.20883 48.5691 9.02451C48.848 8.8402 49.0823 8.59671 49.2551 8.31155L38.7829 8.22748C37.7652 8.21955 35.9117 7.79446 35.1843 8.70334C34.6212 9.39967 34.4904 11.3729 34.4904 12.2009Z" fill="url(#paint6_linear)"/>
<path d="M46.0953 10.7733H35.2531L34.5193 4.07174L45.4349 3.99878L46.0953 10.7733Z" fill="url(#paint7_linear)"/>
<path d="M45.4348 3.99878L49.4658 5.99102L48.8788 8.32112H45.899L45.4348 3.99878Z" fill="url(#paint8_linear)"/>
<path d="M45.4348 3.99878L49.4658 5.99102L48.8788 8.32112H45.899L45.4348 3.99878Z" fill="url(#paint9_linear)"/>
<path d="M43.0088 10.6686L40.9223 10.5877L40.2013 5.40727L40.3512 5.3692C40.4996 5.13762 40.8729 4.23033 40.5873 3.72592C40.3289 3.26593 39.5584 3.28338 38.9571 3.38014C38.1005 3.51655 37.5836 3.7862 37.464 4.15895C37.3045 4.66018 37.8484 5.34224 38.0718 5.56272L38.1308 5.61982L39.0448 10.5592H36.7542V10.0421H38.4211L37.649 5.87044C37.4321 5.63727 36.7159 4.79342 36.9695 4.00192C37.1545 3.42296 37.7958 3.04228 38.8837 2.86939C40.5682 2.60132 41.0659 3.25324 41.1903 3.84964C41.3147 4.44605 41.0435 5.30258 40.774 5.67375L41.3865 10.0865L43.0375 10.1515L43.0088 10.6686Z" fill="url(#paint10_linear)"/>
<path d="M40.2345 16.8198H27.9263V32.2644H40.2345V16.8198Z" fill="url(#paint11_linear)"/>
<path d="M56.4989 18.958H44.6788C44.3282 18.958 44.0439 19.2406 44.0439 19.5893C44.0439 19.938 44.3282 20.2206 44.6788 20.2206H56.4989C56.8496 20.2206 57.1338 19.938 57.1338 19.5893C57.1338 19.2406 56.8496 18.958 56.4989 18.958Z" fill="url(#paint12_linear)"/>
<path d="M56.4989 21.726H44.6788C44.3282 21.726 44.0439 22.0086 44.0439 22.3573C44.0439 22.7059 44.3282 22.9886 44.6788 22.9886H56.4989C56.8496 22.9886 57.1338 22.7059 57.1338 22.3573C57.1338 22.0086 56.8496 21.726 56.4989 21.726Z" fill="url(#paint13_linear)"/>
<path d="M56.4989 25.7563H44.6788C44.3282 25.7563 44.0439 26.039 44.0439 26.3876C44.0439 26.7363 44.3282 27.0189 44.6788 27.0189H56.4989C56.8496 27.0189 57.1338 26.7363 57.1338 26.3876C57.1338 26.039 56.8496 25.7563 56.4989 25.7563Z" fill="url(#paint14_linear)"/>
<path d="M56.4989 28.5243H44.6788C44.3282 28.5243 44.0439 28.8069 44.0439 29.1556C44.0439 29.5042 44.3282 29.7869 44.6788 29.7869H56.4989C56.8496 29.7869 57.1338 29.5042 57.1338 29.1556C57.1338 28.8069 56.8496 28.5243 56.4989 28.5243Z" fill="url(#paint15_linear)"/>
<path d="M49.0255 41.3469H37.2054C36.8548 41.3469 36.5706 41.6296 36.5706 41.9782C36.5706 42.3269 36.8548 42.6095 37.2054 42.6095H49.0255C49.3762 42.6095 49.6604 42.3269 49.6604 41.9782C49.6604 41.6296 49.3762 41.3469 49.0255 41.3469Z" fill="url(#paint16_linear)"/>
<path d="M49.0255 44.1147H37.2054C36.8548 44.1147 36.5706 44.3974 36.5706 44.746C36.5706 45.0947 36.8548 45.3773 37.2054 45.3773H49.0255C49.3762 45.3773 49.6604 45.0947 49.6604 44.746C49.6604 44.3974 49.3762 44.1147 49.0255 44.1147Z" fill="url(#paint17_linear)"/>
<path d="M49.0255 50.6705H37.2054C36.8548 50.6705 36.5706 50.9532 36.5706 51.3018C36.5706 51.6505 36.8548 51.9331 37.2054 51.9331H49.0255C49.3762 51.9331 49.6604 51.6505 49.6604 51.3018C49.6604 50.9532 49.3762 50.6705 49.0255 50.6705Z" fill="url(#paint18_linear)"/>
<path d="M49.0255 53.4384H37.2054C36.8548 53.4384 36.5706 53.721 36.5706 54.0697C36.5706 54.4183 36.8548 54.701 37.2054 54.701H49.0255C49.3762 54.701 49.6604 54.4183 49.6604 54.0697C49.6604 53.721 49.3762 53.4384 49.0255 53.4384Z" fill="url(#paint19_linear)"/>
<path d="M56.4972 34.3534H28.2677C27.9171 34.3534 27.6328 34.636 27.6328 34.9847C27.6328 35.3333 27.9171 35.616 28.2677 35.616H56.4972C56.8478 35.616 57.132 35.3333 57.132 34.9847C57.132 34.636 56.8478 34.3534 56.4972 34.3534Z" fill="url(#paint20_linear)"/>
<path d="M56.4972 37.1213H28.2677C27.9171 37.1213 27.6328 37.404 27.6328 37.7526C27.6328 38.1013 27.9171 38.3839 28.2677 38.3839H56.4972C56.8478 38.3839 57.132 38.1013 57.132 37.7526C57.132 37.404 56.8478 37.1213 56.4972 37.1213Z" fill="url(#paint21_linear)"/>
<path d="M34.2273 40.5697H29.0989V45.0856H34.2273V40.5697Z" fill="url(#paint22_linear)" fill-opacity="0.8"/>
<path d="M34.2273 50.4769H29.0989V54.9928H34.2273V50.4769Z" fill="url(#paint23_linear)" fill-opacity="0.8"/>
<path d="M30.4929 29.541C29.7511 30.0818 29.0859 31.0542 29.2167 31.9615C32.8489 31.7838 36.296 31.9916 39.4529 31.9456C39.3891 31.1208 39.0557 30.0723 38.4782 29.4775C38.1774 29.2012 37.831 28.9785 37.4541 28.8192C36.6853 28.4433 35.9052 28.069 35.0614 27.8945C33.3769 27.5408 31.8184 28.5766 30.4929 29.541Z" fill="white"/>
<path d="M36.8738 24.0243C36.8878 24.1568 36.8731 24.2907 36.8307 24.4171C36.7884 24.5435 36.7193 24.6594 36.6282 24.7571C36.5857 24.8074 36.5307 24.8456 36.4687 24.8681C36.1496 24.9712 36.1353 24.3304 36.2262 24.148C36.3347 23.9402 36.826 23.6119 36.8738 24.0243Z" fill="#F3B496"/>
<path d="M31.2059 23.6657C31.1918 23.7981 31.2063 23.9319 31.2484 24.0583C31.2905 24.1847 31.3592 24.3007 31.45 24.3985C31.4934 24.4478 31.5481 24.4859 31.6095 24.5096C31.9285 24.6127 31.9429 23.9703 31.8503 23.7894C31.7451 23.5864 31.2538 23.2533 31.2059 23.6657Z" fill="#F3B496"/>
<path d="M33.6354 18.6852C33.9321 18.3221 34.3609 18.0902 34.8286 18.0396C35.2816 17.992 35.7856 18.1474 36.0281 18.5281C36.1847 18.8201 36.2565 19.1496 36.2355 19.4798C36.2636 19.786 36.2154 20.0944 36.0951 20.3776C35.9479 20.6446 35.7081 20.8492 35.4204 20.9534C34.7568 21.2135 33.9735 21.0026 33.4599 20.5331C32.9463 20.0635 33.2334 19.1705 33.6354 18.6852Z" fill="#606161"/>
<path d="M33.6354 18.6852C33.9321 18.3221 34.3609 18.0902 34.8286 18.0396C35.2816 17.992 35.7856 18.1474 36.0281 18.5281C36.1847 18.8201 36.2565 19.1496 36.2355 19.4798C36.2636 19.786 36.2154 20.0944 36.0951 20.3776C35.9479 20.6446 35.7081 20.8492 35.4204 20.9534C34.7568 21.2135 33.9735 21.0026 33.4599 20.5331C32.9463 20.0635 33.2334 19.1705 33.6354 18.6852Z" fill="url(#paint24_linear)"/>
<path d="M35.2305 25.8166C35.2305 25.8166 35.2497 27.9136 35.7298 28.3545C36.2099 28.7955 33.806 30.8559 32.7883 28.556C32.7883 28.556 33.3801 27.563 33.1775 25.8896C32.975 24.2162 35.2305 25.8166 35.2305 25.8166Z" fill="#F3B496"/>
<path d="M35.3009 26.3132V26.7732C35.3009 26.7732 34.0806 28.5179 33.5813 27.9326C33.082 27.3473 33.2288 27.2157 33.2288 27.2157L33.1746 25.8912L35.3009 26.3132Z" fill="url(#paint25_linear)"/>
<path d="M36.3935 22.8188C36.3935 22.8188 36.7445 26.0197 35.0233 26.6542C33.3021 27.2887 32.2764 26.3782 31.8043 24.8333C31.3321 23.2883 32.0547 20.1699 33.878 20.4728C35.7012 20.7758 36.3935 22.8188 36.3935 22.8188Z" fill="#F3B496"/>
<path d="M36.6663 23.8943C36.7448 23.7835 36.7957 23.6557 36.8146 23.5215C36.9266 22.9208 36.878 22.3013 36.6736 21.7251C36.4693 21.1489 36.1164 20.6362 35.6502 20.2381C35.4609 20.0723 35.2417 19.9436 35.0041 19.859C34.7674 19.7893 34.5199 19.7625 34.2736 19.7797C33.4965 19.8036 32.747 20.0719 32.1329 20.5459C31.8297 20.7856 31.5799 21.0854 31.3992 21.4261C31.2185 21.7669 31.1109 22.1412 31.0832 22.5254C31.0619 22.753 31.0992 22.9823 31.1917 23.1916C31.2385 23.2958 31.3092 23.3877 31.3981 23.4598C31.4871 23.532 31.5917 23.5824 31.7038 23.6072C32.101 23.6754 32.2094 23.3106 32.5317 23.0679C33.0102 22.7015 33.1697 22.1574 34.2704 22.2494C36.0601 22.3985 36.1878 24.4796 36.6663 23.8943Z" fill="#606161"/>
<path d="M31.5251 23.8942C31.5041 23.875 31.4873 23.8518 31.4757 23.826C31.4683 23.7958 31.464 23.765 31.4629 23.734C31.4587 23.7036 31.444 23.6755 31.4214 23.6546C31.4093 23.6449 31.3949 23.6383 31.3796 23.6355C31.3643 23.6327 31.3485 23.6339 31.3337 23.6388C31.3212 23.6446 31.31 23.653 31.3009 23.6634C31.2919 23.6738 31.2851 23.6859 31.281 23.6991C31.2741 23.7255 31.2703 23.7526 31.2699 23.78C31.2591 23.8853 31.275 23.9916 31.3161 24.0893C31.3552 24.1564 31.4053 24.2164 31.4645 24.2669C31.4747 24.2794 31.4873 24.2897 31.5015 24.2973C31.5157 24.305 31.5313 24.3097 31.5474 24.3113C31.5681 24.31 31.5881 24.3028 31.6049 24.2907C31.6127 24.2867 31.6197 24.2813 31.6256 24.2748C31.6271 24.267 31.6271 24.2589 31.6256 24.251C31.6392 24.1787 31.6392 24.1045 31.6256 24.0322C31.6068 23.9772 31.5718 23.9291 31.5251 23.8942Z" fill="url(#paint26_linear)"/>
<path d="M36.5067 24.2384C36.5277 24.2192 36.5445 24.196 36.5561 24.1702C36.5636 24.1406 36.5679 24.1103 36.5689 24.0798C36.5727 24.0489 36.5881 24.0206 36.6119 24.0005C36.6233 23.99 36.6374 23.9828 36.6526 23.9797C36.6677 23.9766 36.6835 23.9778 36.6981 23.983C36.7104 23.9891 36.7215 23.9975 36.7305 24.0079C36.7395 24.0182 36.7464 24.0303 36.7507 24.0433C36.7577 24.0702 36.7614 24.0979 36.7619 24.1258C36.7727 24.2311 36.7568 24.3374 36.7156 24.4351C36.6765 24.5017 36.6264 24.5612 36.5673 24.6111C36.5463 24.6361 36.5168 24.6525 36.4843 24.6571C36.4635 24.6552 36.4436 24.6475 36.4269 24.6349C36.4185 24.632 36.4112 24.6264 36.4062 24.6191C36.4045 24.6112 36.4045 24.6031 36.4062 24.5953C36.3926 24.5235 36.3926 24.4498 36.4062 24.378C36.4249 24.3225 36.4599 24.2739 36.5067 24.2384Z" fill="url(#paint27_linear)"/>
</g>
<defs>
<linearGradient id="paint0_linear" x1="36.7472" y1="-40.7062" x2="110.945" y2="72.7976" gradientUnits="userSpaceOnUse">
<stop stop-color="#D5C1FC"/>
<stop offset="1" stop-color="#FB9CCB"/>
</linearGradient>
<linearGradient id="paint1_linear" x1="51.147" y1="-26.542" x2="120.343" y2="60.307" gradientUnits="userSpaceOnUse">
<stop stop-color="#D5C1FC"/>
<stop offset="1" stop-color="#FB9CCB"/>
</linearGradient>
<linearGradient id="paint2_linear" x1="44.1249" y1="13.4561" x2="46.9668" y2="2.7179" gradientUnits="userSpaceOnUse">
<stop stop-color="#010101" stop-opacity="0"/>
<stop offset="0.95" stop-color="#010101"/>
</linearGradient>
<linearGradient id="paint3_linear" x1="39.6339" y1="-23.4697" x2="102.802" y2="36.3443" gradientUnits="userSpaceOnUse">
<stop stop-color="#D5C1FC"/>
<stop offset="1" stop-color="#FB9CCB"/>
</linearGradient>
<linearGradient id="paint4_linear" x1="23043.9" y1="31688.7" x2="-7791.77" y2="5402.93" gradientUnits="userSpaceOnUse">
<stop stop-color="#010101" stop-opacity="0"/>
<stop offset="0.95" stop-color="#010101"/>
</linearGradient>
<linearGradient id="paint5_linear" x1="19310.1" y1="12422.9" x2="5868.15" y2="13418.7" gradientUnits="userSpaceOnUse">
<stop stop-color="#010101" stop-opacity="0"/>
<stop offset="0.95" stop-color="#010101"/>
</linearGradient>
<linearGradient id="paint6_linear" x1="3846.65" y1="536.079" x2="3913.91" y2="-623.612" gradientUnits="userSpaceOnUse">
<stop stop-color="#010101" stop-opacity="0"/>
<stop offset="0.95" stop-color="#010101"/>
</linearGradient>
<linearGradient id="paint7_linear" x1="39.3532" y1="0.272295" x2="44.9433" y2="12.5602" gradientUnits="userSpaceOnUse">
<stop stop-color="#D5C1FC"/>
<stop offset="1" stop-color="#FB9CCB"/>
</linearGradient>
<linearGradient id="paint8_linear" x1="47.1181" y1="1.62119" x2="51.772" y2="7.20447" gradientUnits="userSpaceOnUse">
<stop stop-color="#D5C1FC"/>
<stop offset="1" stop-color="#FB9CCB"/>
</linearGradient>
<linearGradient id="paint9_linear" x1="1276.86" y1="92.3906" x2="1200.66" y2="224.933" gradientUnits="userSpaceOnUse">
<stop stop-color="#010101" stop-opacity="0"/>
<stop offset="0.95" stop-color="#010101"/>
</linearGradient>
<linearGradient id="paint10_linear" x1="1636.81" y1="765.506" x2="1624.71" y2="149.427" gradientUnits="userSpaceOnUse">
<stop stop-color="#010101" stop-opacity="0"/>
<stop offset="0.95" stop-color="#010101"/>
</linearGradient>
<linearGradient id="paint11_linear" x1="33.0659" y1="8.32421" x2="49.9665" y2="25.6503" gradientUnits="userSpaceOnUse">
<stop stop-color="#D5C1FC"/>
<stop offset="1" stop-color="#FB9CCB"/>
</linearGradient>
<linearGradient id="paint12_linear" x1="49.51" y1="18.2635" x2="49.7161" y2="21.0121" gradientUnits="userSpaceOnUse">
<stop stop-color="#D5C1FC"/>
<stop offset="1" stop-color="#FB9CCB"/>
</linearGradient>
<linearGradient id="paint13_linear" x1="49.51" y1="21.0314" x2="49.7161" y2="23.7801" gradientUnits="userSpaceOnUse">
<stop stop-color="#D5C1FC"/>
<stop offset="1" stop-color="#FB9CCB"/>
</linearGradient>
<linearGradient id="paint14_linear" x1="49.51" y1="25.0618" x2="49.7161" y2="27.8105" gradientUnits="userSpaceOnUse">
<stop stop-color="#D5C1FC"/>
<stop offset="1" stop-color="#FB9CCB"/>
</linearGradient>
<linearGradient id="paint15_linear" x1="49.51" y1="27.8298" x2="49.7161" y2="30.5784" gradientUnits="userSpaceOnUse">
<stop stop-color="#D5C1FC"/>
<stop offset="1" stop-color="#FB9CCB"/>
</linearGradient>
<linearGradient id="paint16_linear" x1="42.0366" y1="40.6524" x2="42.2427" y2="43.401" gradientUnits="userSpaceOnUse">
<stop stop-color="#D5C1FC"/>
<stop offset="1" stop-color="#FB9CCB"/>
</linearGradient>
<linearGradient id="paint17_linear" x1="42.0366" y1="43.4202" x2="42.2427" y2="46.1689" gradientUnits="userSpaceOnUse">
<stop stop-color="#D5C1FC"/>
<stop offset="1" stop-color="#FB9CCB"/>
</linearGradient>
<linearGradient id="paint18_linear" x1="42.0366" y1="49.976" x2="42.2427" y2="52.7247" gradientUnits="userSpaceOnUse">
<stop stop-color="#D5C1FC"/>
<stop offset="1" stop-color="#FB9CCB"/>
</linearGradient>
<linearGradient id="paint19_linear" x1="42.0366" y1="52.7438" x2="42.2427" y2="55.4925" gradientUnits="userSpaceOnUse">
<stop stop-color="#D5C1FC"/>
<stop offset="1" stop-color="#FB9CCB"/>
</linearGradient>
<linearGradient id="paint20_linear" x1="39.951" y1="33.6589" x2="40.0429" y2="36.4199" gradientUnits="userSpaceOnUse">
<stop stop-color="#D5C1FC"/>
<stop offset="1" stop-color="#FB9CCB"/>
</linearGradient>
<linearGradient id="paint21_linear" x1="39.951" y1="36.4268" x2="40.0429" y2="39.1879" gradientUnits="userSpaceOnUse">
<stop stop-color="#D5C1FC"/>
<stop offset="1" stop-color="#FB9CCB"/>
</linearGradient>
<linearGradient id="paint22_linear" x1="34.6478" y1="44.7937" x2="31.0451" y2="39.3095" gradientUnits="userSpaceOnUse">
<stop stop-color="#D58ABB"/>
<stop offset="1" stop-color="#817FBC"/>
</linearGradient>
<linearGradient id="paint23_linear" x1="34.6478" y1="54.7009" x2="31.0451" y2="49.2167" gradientUnits="userSpaceOnUse">
<stop stop-color="#D58ABB"/>
<stop offset="1" stop-color="#817FBC"/>
</linearGradient>
<linearGradient id="paint24_linear" x1="1058.34" y1="389.828" x2="1045.49" y2="424.191" gradientUnits="userSpaceOnUse">
<stop stop-color="#010101" stop-opacity="0"/>
<stop offset="0.95" stop-color="#010101"/>
</linearGradient>
<linearGradient id="paint25_linear" x1="34.5863" y1="28.4386" x2="33.2135" y2="21.6198" gradientUnits="userSpaceOnUse">
<stop offset="0.12" stop-color="#010101" stop-opacity="0"/>
<stop offset="0.95" stop-color="#010101"/>
</linearGradient>
<linearGradient id="paint26_linear" x1="-94.3347" y1="129.108" x2="-97.6964" y2="128.727" gradientUnits="userSpaceOnUse">
<stop offset="0.12" stop-color="#010101" stop-opacity="0"/>
<stop offset="0.95" stop-color="#010101"/>
</linearGradient>
<linearGradient id="paint27_linear" x1="21.969" y1="131.208" x2="18.6083" y2="130.83" gradientUnits="userSpaceOnUse">
<stop offset="0.12" stop-color="#010101" stop-opacity="0"/>
<stop offset="0.95" stop-color="#010101"/>
</linearGradient>
<clipPath id="clip0">
<rect width="88" height="74" fill="white"/>
</clipPath>
</defs>
</svg>
