<svg width="731" height="605" viewBox="0 0 731 605" fill="none" xmlns="http://www.w3.org/2000/svg">
<g clip-path="url(#clip0)">
<path opacity="0.18" d="M0.692078 437.475C2.11908 462.482 5.0163 487.877 15.0919 510.788C33.4918 552.696 74.551 581.658 118.529 594.409C129.71 597.616 141.115 599.985 152.648 601.499C186.334 606.059 220.993 604.071 254.852 599.899C283.912 596.311 312.798 591.124 341.814 587.147C358.16 584.986 374.57 583.041 391.024 582.068C422.527 580.231 454.094 581.614 485.575 583.884C487.045 583.884 488.537 584.078 489.899 584.208C518.504 586.369 547.564 589.114 575.866 585.656C582.415 584.887 588.913 583.733 595.325 582.198C598.626 581.42 601.891 580.512 605.12 579.475C637.66 569.165 666.201 547.53 691.303 525.204C717.141 502.229 729.249 466.61 730.416 432.764C731.8 392.909 737.205 326.361 601.942 217.214C573.531 194.174 575.931 149.024 562.418 115.005C542.958 66.2233 503.088 24.6177 452.991 8.77515C431.37 1.90212 408.386 -0.151144 385.662 0.129829C356.773 0.368379 328.02 4.12803 300.041 11.3255C247.198 24.8338 184.496 52.2611 144.648 94.3855C137.757 101.612 131.534 109.447 126.053 117.793C92.1075 169.838 95.9346 237.552 60.9943 289.273C45.8593 311.599 24.2378 329.365 12.2163 353.508C-0.605225 379.011 -0.951172 408.902 0.692078 437.475Z" fill="#A880F7"/>
<path d="M485.575 583.884C487.045 583.884 488.537 584.078 489.899 584.208C518.504 586.369 547.564 589.114 575.866 585.656C582.415 584.887 588.913 583.732 595.325 582.198C598.626 581.42 601.891 580.512 605.12 579.474C608.017 487.272 528.818 365.157 519.175 350.503L489.488 351.757L395.673 355.712C480.494 436.2 488.451 533.006 485.575 583.884Z" fill="#D5C1FC"/>
<path d="M485.575 583.884C487.045 583.884 488.537 584.078 489.899 584.208C518.504 586.369 547.564 589.114 575.866 585.656C582.415 584.887 588.913 583.732 595.325 582.198C598.626 581.42 601.891 580.512 605.12 579.474C608.017 487.272 528.818 365.157 519.175 350.503L489.488 351.757L395.673 355.712C480.494 436.2 488.451 533.006 485.575 583.884Z" fill="#473F47"/>
<path d="M486.742 349.077C487.694 349.963 488.623 350.849 489.531 351.757C576.536 436.481 580.082 538.172 575.974 585.613C582.523 584.844 589.021 583.689 595.433 582.155C598.734 581.377 601.999 580.469 605.228 579.431C608.017 487.272 528.818 365.157 519.174 350.503L518.202 349.077H486.742Z" fill="#A6CEEE"/>
<path d="M270.376 153.346C273.922 159.83 272.819 167.654 274.376 174.808C274.839 176.833 275.431 178.825 276.149 180.774C278.874 188.598 282.311 196.638 288.863 201.717C290.879 202.883 292.545 204.57 293.684 206.602C294.014 207.655 294.086 208.772 293.894 209.859C293.702 210.946 293.252 211.971 292.581 212.848C291.206 214.536 289.571 215.995 287.738 217.171C288.106 220.91 287.998 225.34 288.387 229.058C289.23 237.293 289.771 246.565 284.322 252.833C279.998 257.652 273.338 259.317 267.025 260.051C260.711 260.786 254.052 261.175 248.387 264.374C236.452 271.009 233.252 287.868 221.382 294.633C217.847 296.501 213.972 297.641 209.988 297.983C201.578 299.175 193.009 297.597 185.577 293.487C178.334 289.165 154.637 282.119 161.058 276.65C168.063 270.707 178.809 253.848 183.826 244.879C189.41 234.909 193.208 224.039 195.047 212.761C196.561 203.36 196.712 193.807 198.117 184.405C199.523 175.003 202.442 165.493 208.474 158.188C217.577 147.381 232.452 143.059 246.593 142.259C250.541 141.862 254.528 142.154 258.376 143.123C260.305 143.611 262.112 144.49 263.685 145.706C265.259 146.922 266.565 148.448 267.522 150.191" fill="#FDD4C1"/>
<path d="M131.048 197.524C131.609 202.521 132.99 207.392 135.134 211.94C136.367 215.006 138.131 217.83 140.345 220.283C144.669 224.13 144.799 230.636 147.458 235.715C149.276 238.96 151.794 241.758 154.831 243.906C160.909 248.391 167.998 251.31 175.471 252.407C182.945 253.504 190.574 252.744 197.685 250.196L199.847 249.374C206.198 246.411 212.22 242.789 217.815 238.568C218.166 238.336 218.449 238.015 218.636 237.638C219.004 236.731 218.225 235.823 217.534 235.11C215.249 232.765 213.451 229.992 212.241 226.951C211.031 223.91 210.435 220.659 210.485 217.387C210.374 214.589 211.238 211.839 212.928 209.606C213.804 208.525 215.022 207.774 216.381 207.476C217.74 207.177 219.161 207.349 220.409 207.963C222.571 209.195 224.733 212.135 226.593 210.557C227.139 209.961 227.474 209.201 227.544 208.396C228.165 203.584 229.438 198.88 231.328 194.412C233.871 190.097 237 186.154 240.625 182.697C249.052 173.414 255.824 162.756 260.647 151.185C260.936 150.143 261.578 149.234 262.463 148.613C263.291 148.249 264.206 148.129 265.101 148.267C269.043 148.498 272.997 148.426 276.928 148.051C278.933 148.05 280.881 147.381 282.463 146.149C285.144 143.577 283.933 138.995 281.771 135.991C276.863 129.096 268.668 125.487 260.863 122.223C262.874 120.905 266.052 118.009 268.063 116.69C268.758 116.327 269.318 115.752 269.663 115.048C270.095 113.708 268.798 112.411 267.501 111.762C265.24 110.617 262.678 110.202 260.171 110.574C260.539 104.608 266.939 99.0754 264.495 93.6289C262.83 90.0411 258.009 89.1117 254.16 90.0627C250.312 91.0137 246.982 93.3695 243.241 94.6231C242.398 92.0079 244.733 89.2846 244.301 86.5613C244.069 85.5857 243.566 84.6953 242.851 83.9919C242.136 83.2886 241.237 82.8008 240.258 82.5845C238.264 82.1919 236.204 82.3109 234.268 82.9303C229.74 84.1425 225.542 86.3586 221.988 89.4143C219.91 91.6092 217.563 93.5335 215.004 95.1418C209.944 97.757 203.869 96.3089 198.182 96.3089C191.479 96.5785 184.882 98.0805 178.723 100.74C174.635 102.273 170.636 104.034 166.745 106.013C161.554 108.595 156.709 111.819 152.323 115.61C141.253 125.336 134.334 139.19 131.286 153.584C128.569 168.098 128.488 182.982 131.048 197.524Z" fill="#473F47"/>
<path d="M634.59 128.361L623.563 116.82L361.489 128.361L300.56 344.149L311.587 355.69H585.228L634.59 128.361Z" fill="#D5C1FC"/>
<path d="M634.59 128.361L623.563 116.82L361.489 128.361L300.56 344.149L311.587 355.69H585.228L634.59 128.361Z" fill="url(#paint0_linear)"/>
<path d="M623.563 116.82H350.462L300.56 344.149H574.201L623.563 116.82Z" fill="#A6CEEE"/>
<path d="M612.536 124.579H358.073L311.587 336.39H566.547L612.536 124.579Z" fill="white"/>
<path d="M413.921 423.643C414.101 425.171 414.66 426.629 415.547 427.886C416.435 429.143 417.622 430.159 419.002 430.84C422.981 433.174 427.845 433.304 432.472 433.369C435.681 433.652 438.913 433.231 441.943 432.137C444.527 430.743 446.847 428.907 448.797 426.712C460.04 415.905 474.98 407.714 480.559 393.211C483.261 386.165 483.391 378.449 483.478 370.949C483.478 362.974 483.478 354.221 478.18 348.234C474.051 343.5 467.218 341.101 464.537 335.417C469.05 332.878 473.148 329.664 476.688 325.886C478.434 323.976 479.729 321.699 480.477 319.223C481.225 316.747 481.409 314.134 481.013 311.578C474.749 313.665 468.748 316.471 463.132 319.942C452.887 326.272 444.018 334.593 437.051 344.413C430.083 354.233 425.159 365.352 422.57 377.109C420.408 387.505 420.191 398.312 417.337 408.578C416.062 413.333 413.359 418.866 413.921 423.643Z" fill="#FDD4C1"/>
<path d="M413.921 423.643C414.951 424.101 415.871 424.771 416.624 425.609C419.543 429.932 426.743 428.83 430.419 425.047C434.094 421.265 435.521 415.927 438.029 411.28C444.3 399.501 457.878 390.639 457.835 377.304C457.835 366.994 449.186 357.852 449.964 347.715C450.397 342.355 453.316 337.989 456.451 333.926C459.363 329.63 461.602 324.914 463.089 319.942C452.844 326.272 443.975 334.593 437.007 344.413C430.04 354.233 425.116 365.351 422.527 377.109C420.365 387.505 420.148 398.312 417.294 408.578C416.062 413.333 413.359 418.866 413.921 423.643Z" fill="url(#paint1_linear)"/>
<path d="M138.183 563.654C140.842 576.946 144.82 590.692 152.647 601.498C153.772 601.65 154.809 601.801 156.02 601.909C162.766 602.73 169.541 603.314 176.344 603.66C202.573 604.676 228.841 603.418 254.852 599.899C283.911 596.311 312.797 591.124 341.813 587.147C340.457 585.614 338.901 584.269 337.186 583.149C328.513 576.701 321.363 568.426 316.244 558.909C311.125 549.392 308.162 538.867 307.565 528.078C309.285 526.931 311.293 526.287 313.36 526.219C318.851 525.701 325.922 526.889 329.965 526.392C363.565 522.178 448.126 439.766 448.126 439.766L406.116 418.758L343.608 439.766C343.608 439.766 276.387 334.25 249.079 303.97C221.771 273.689 172.517 273.062 172.517 273.062C166.616 272.841 160.717 273.571 155.047 275.224C121.577 285.015 104.323 325.583 102.075 359.926C97.5558 427.49 125.123 498.489 138.183 563.654Z" fill="white"/>
<path d="M131.048 197.524C131.609 202.521 132.99 207.392 135.134 211.94C136.367 215.006 138.131 217.83 140.345 220.283C144.669 224.13 144.799 230.636 147.458 235.715C149.275 238.96 151.794 241.758 154.831 243.906C160.909 248.391 167.998 251.31 175.471 252.407C182.945 253.504 190.574 252.745 197.685 250.196L199.847 249.375C200.778 247.917 201.505 246.339 202.009 244.685L193.361 244.382C193.527 241.352 194.751 238.476 196.82 236.255L177.123 235.866C174.432 236.185 171.712 235.606 169.385 234.218C167.058 232.83 165.255 230.712 164.258 228.194C161.274 223.568 158.183 218.511 158.68 213.064C159.185 209.86 160.308 206.784 161.988 204.008C166.312 195.557 170.636 186.718 171.847 177.359C173.058 168 170.269 157.432 162.723 151.596C161.131 150.611 159.726 149.352 158.572 147.878C157.606 146.104 157.27 144.054 157.62 142.065C158.615 133.03 165.642 126.006 172.258 119.738L186.896 105.797C185.253 107.375 177.772 107.57 175.328 108.348C171.214 109.757 167.18 111.388 163.242 113.232C163.847 111.438 165.404 108.91 166.766 106.013C161.576 108.596 156.731 111.82 152.345 115.61C141.275 125.336 134.356 139.19 131.307 153.584C128.583 168.097 128.495 182.981 131.048 197.524Z" fill="#A6CEEE"/>
<path d="M138.183 563.654C140.842 576.946 144.821 590.692 152.648 601.499C153.772 601.65 154.81 601.801 156.021 601.909C186.139 604.914 214.399 607.421 244.323 600.872C248.971 599.856 254.463 597.824 255.285 593.134C255.459 590.423 254.762 587.728 253.296 585.44C232.799 544.072 219.674 496.09 220.236 449.708C231.393 448.303 245.166 469.895 253.296 477.265L283.198 504.368C296.171 516.04 311.09 528.489 328.409 527.127C338.614 526.328 347.738 520.773 356.516 515.37L387.284 496.09C396.343 490.449 406.181 483.771 408.559 473.353C394.095 474.456 381.424 482.842 368.452 489.304C355.479 495.766 339.846 500.5 326.809 494.167C317.425 489.607 311.457 480.291 305.879 471.495C269.242 413.604 229.072 358.025 185.599 305.072C175.112 292.299 173.361 273.257 154.983 275.31C121.513 285.101 104.259 325.669 102.01 360.013C97.5563 427.49 125.124 498.49 138.183 563.654Z" fill="#3D467F"/>
<path opacity="0.18" d="M549.834 166.466C547.558 163.542 544.702 161.121 541.444 159.355C537.722 157.132 533.627 155.601 529.358 154.838C523.852 154.131 518.256 154.81 513.079 156.815C507.902 158.819 503.308 162.084 499.715 166.315C492.591 174.968 488.898 185.937 489.337 197.135C487.882 196.642 486.302 196.67 484.866 197.214C483.43 197.758 482.228 198.785 481.467 200.118C480.045 202.856 479.516 205.969 479.953 209.022C479.996 211.582 480.744 214.08 482.115 216.241C482.823 217.306 483.843 218.124 485.036 218.585C486.229 219.046 487.535 219.125 488.775 218.813C488.036 221.96 488.018 225.233 488.722 228.388C489.425 231.543 490.833 234.498 492.839 237.033C494.526 239.195 496.71 241.118 497.164 243.777C497.596 247.105 495.002 250.131 491.888 251.579C488.733 252.715 485.513 253.66 482.245 254.41C475.173 257.124 469.357 262.36 465.921 269.107C462.539 275.806 460.004 282.899 458.375 290.224C457.986 291.693 457.683 293.487 458.807 294.546C459.615 295.128 460.606 295.397 461.596 295.303L547.239 297.961C548.212 288.041 548.774 276.823 542.093 269.41C536.926 263.704 528.796 261.953 521.228 260.484C521.321 256.111 522.345 251.807 524.234 247.862C524.724 246.631 525.539 245.555 526.59 244.749C527.736 244.158 528.97 243.756 530.245 243.561C538.655 241.399 543.217 232.343 545.38 223.936C545.655 222.412 546.197 220.949 546.98 219.613C548.218 218.093 549.785 216.874 551.563 216.047C562.006 210.06 564.19 203.381 556.666 194.433C549.898 186.718 556.406 175.522 549.834 166.466Z" fill="#F39AC4"/>
<path opacity="0.32" d="M706.352 48.522L670.352 226.681H562.828L593.293 48.522H706.352Z" fill="#F39AC4"/>
<path opacity="0.32" d="M673.422 291.218L637.444 469.398H529.92L560.385 291.218H673.422Z" fill="#F39AC4"/>
<path opacity="0.32" d="M454.094 48.522L418.116 226.681H310.592L341.057 48.522H454.094Z" fill="#F39AC4"/>
<path d="M442.699 30.2368L406.721 208.395H299.198L329.662 30.2368H442.699Z" fill="url(#paint2_linear)"/>
<path d="M686.936 53.3848L655.152 210.751H560.191L587.088 53.3848H686.936Z" fill="url(#paint3_linear)"/>
<path d="M665.379 283.394L629.401 461.552H521.877L552.342 283.394H665.379Z" fill="url(#paint4_linear)"/>
</g>
<defs>
<linearGradient id="paint0_linear" x1="-47485.8" y1="18187.4" x2="-24195.2" y2="67514.6" gradientUnits="userSpaceOnUse">
<stop offset="0.01"/>
<stop offset="0.13" stop-opacity="0.69"/>
<stop offset="0.25" stop-opacity="0.32"/>
<stop offset="1" stop-opacity="0"/>
</linearGradient>
<linearGradient id="paint1_linear" x1="-8376.55" y1="17844.5" x2="-3824.74" y2="19029.5" gradientUnits="userSpaceOnUse">
<stop offset="0.01"/>
<stop offset="0.13" stop-opacity="0.69"/>
<stop offset="0.25" stop-opacity="0.32"/>
<stop offset="1" stop-opacity="0"/>
</linearGradient>
<linearGradient id="paint2_linear" x1="468.753" y1="45.2364" x2="-528.878" y2="780.621" gradientUnits="userSpaceOnUse">
<stop offset="0.01" stop-color="white"/>
<stop offset="0.13" stop-color="white" stop-opacity="0.69"/>
<stop offset="0.15" stop-color="white" stop-opacity="0.61"/>
<stop offset="0.2" stop-color="white" stop-opacity="0.47"/>
<stop offset="0.25" stop-color="white" stop-opacity="0.34"/>
<stop offset="0.3" stop-color="white" stop-opacity="0.23"/>
<stop offset="0.36" stop-color="white" stop-opacity="0.15"/>
<stop offset="0.44" stop-color="white" stop-opacity="0.08"/>
<stop offset="0.52" stop-color="white" stop-opacity="0.03"/>
<stop offset="0.65" stop-color="white" stop-opacity="0.01"/>
<stop offset="1" stop-color="white" stop-opacity="0"/>
</linearGradient>
<linearGradient id="paint3_linear" x1="-546.294" y1="4904.99" x2="-59508.1" y2="39897.4" gradientUnits="userSpaceOnUse">
<stop offset="0.01" stop-color="white"/>
<stop offset="0.13" stop-color="white" stop-opacity="0.69"/>
<stop offset="0.15" stop-color="white" stop-opacity="0.61"/>
<stop offset="0.2" stop-color="white" stop-opacity="0.47"/>
<stop offset="0.25" stop-color="white" stop-opacity="0.34"/>
<stop offset="0.3" stop-color="white" stop-opacity="0.23"/>
<stop offset="0.36" stop-color="white" stop-opacity="0.15"/>
<stop offset="0.44" stop-color="white" stop-opacity="0.08"/>
<stop offset="0.52" stop-color="white" stop-opacity="0.03"/>
<stop offset="0.65" stop-color="white" stop-opacity="0.01"/>
<stop offset="1" stop-color="white" stop-opacity="0"/>
</linearGradient>
<linearGradient id="paint4_linear" x1="-1960.7" y1="24880" x2="-77530.7" y2="69731.9" gradientUnits="userSpaceOnUse">
<stop offset="0.01" stop-color="white"/>
<stop offset="0.13" stop-color="white" stop-opacity="0.69"/>
<stop offset="0.15" stop-color="white" stop-opacity="0.61"/>
<stop offset="0.2" stop-color="white" stop-opacity="0.47"/>
<stop offset="0.25" stop-color="white" stop-opacity="0.34"/>
<stop offset="0.3" stop-color="white" stop-opacity="0.23"/>
<stop offset="0.36" stop-color="white" stop-opacity="0.15"/>
<stop offset="0.44" stop-color="white" stop-opacity="0.08"/>
<stop offset="0.52" stop-color="white" stop-opacity="0.03"/>
<stop offset="0.65" stop-color="white" stop-opacity="0.01"/>
<stop offset="1" stop-color="white" stop-opacity="0"/>
</linearGradient>
<clipPath id="clip0">
<rect width="731" height="605" fill="white" transform="matrix(-1 0 0 1 731 0)"/>
</clipPath>
</defs>
</svg>
