<svg width="1364" height="250" viewBox="0 0 1364 250" fill="none" xmlns="http://www.w3.org/2000/svg">
<rect width="1364" height="250" fill="url(#paint0_linear)"/>
<path d="M573.031 133.504C573.137 133.781 573.191 134.037 573.191 134.272C573.191 134.827 573.009 135.285 572.647 135.648C572.284 135.989 571.868 136.16 571.399 136.16C571.015 136.16 570.663 136.043 570.343 135.808C570.044 135.573 569.809 135.253 569.639 134.848L567.975 130.976H558.439L556.775 134.88C556.625 135.285 556.391 135.605 556.071 135.84C555.772 136.053 555.441 136.16 555.079 136.16C554.524 136.16 554.097 136.011 553.799 135.712C553.521 135.413 553.383 135.008 553.383 134.496C553.383 134.304 553.415 134.101 553.479 133.888L561.447 114.752C561.617 114.325 561.873 113.995 562.215 113.76C562.556 113.525 562.94 113.429 563.367 113.472C563.751 113.472 564.103 113.589 564.423 113.824C564.764 114.037 565.009 114.347 565.159 114.752L573.031 133.504ZM566.407 127.296L563.175 119.808L560.007 127.296H566.407ZM585.5 113.6C587.505 113.6 589.223 114.101 590.652 115.104C592.103 116.085 593.201 117.429 593.948 119.136C594.716 120.821 595.1 122.709 595.1 124.8C595.1 126.891 594.716 128.789 593.948 130.496C593.201 132.181 592.103 133.525 590.652 134.528C589.223 135.509 587.505 136 585.5 136H577.852C577.297 136 576.828 135.819 576.444 135.456C576.081 135.072 575.9 134.603 575.9 134.048V115.552C575.9 114.997 576.081 114.539 576.444 114.176C576.828 113.792 577.297 113.6 577.852 113.6H585.5ZM585.18 132.32C587.1 132.32 588.54 131.616 589.5 130.208C590.46 128.779 590.94 126.976 590.94 124.8C590.94 122.624 590.449 120.832 589.468 119.424C588.508 117.995 587.079 117.28 585.18 117.28H579.9V132.32H585.18ZM618.199 113.568C618.732 113.568 619.191 113.76 619.575 114.144C619.98 114.507 620.183 114.965 620.183 115.52V134.048C620.183 134.603 620.002 135.072 619.639 135.456C619.276 135.819 618.796 136 618.199 136C617.602 136 617.111 135.819 616.727 135.456C616.364 135.093 616.183 134.624 616.183 134.048V121.152L610.903 129.216C610.69 129.472 610.444 129.685 610.167 129.856C609.89 130.005 609.602 130.069 609.303 130.048C609.026 130.069 608.748 130.005 608.471 129.856C608.194 129.685 607.948 129.472 607.735 129.216L602.455 120.864V134.048C602.455 134.624 602.284 135.093 601.943 135.456C601.602 135.819 601.154 136 600.599 136C600.066 136 599.628 135.819 599.287 135.456C598.946 135.072 598.775 134.603 598.775 134.048V115.52C598.775 114.987 598.967 114.528 599.351 114.144C599.756 113.76 600.236 113.568 600.791 113.568C601.111 113.568 601.431 113.653 601.751 113.824C602.071 113.973 602.316 114.176 602.487 114.432L609.463 125.152L616.631 114.432C616.802 114.176 617.026 113.973 617.303 113.824C617.602 113.653 617.9 113.568 618.199 113.568ZM628.994 134.048C628.994 134.603 628.791 135.072 628.386 135.456C627.98 135.819 627.511 136 626.978 136C626.402 136 625.922 135.819 625.538 135.456C625.175 135.072 624.994 134.603 624.994 134.048V115.552C624.994 114.997 625.186 114.539 625.57 114.176C625.954 113.792 626.444 113.6 627.042 113.6C627.575 113.6 628.034 113.792 628.418 114.176C628.802 114.539 628.994 114.997 628.994 115.552V134.048ZM650.798 113.6C651.31 113.6 651.726 113.771 652.046 114.112C652.366 114.453 652.526 114.88 652.526 115.392V134.048C652.526 134.603 652.334 135.072 651.95 135.456C651.588 135.819 651.129 136 650.574 136C650.276 136 649.977 135.957 649.678 135.872C649.401 135.765 649.198 135.627 649.07 135.456L637.326 120.544V134.208C637.326 134.72 637.156 135.147 636.814 135.488C636.494 135.829 636.068 136 635.534 136C635.022 136 634.606 135.829 634.286 135.488C633.966 135.147 633.806 134.72 633.806 134.208V115.552C633.806 114.997 633.988 114.539 634.35 114.176C634.734 113.792 635.204 113.6 635.758 113.6C636.078 113.6 636.388 113.664 636.686 113.792C637.006 113.92 637.241 114.091 637.39 114.304L649.038 129.152V115.392C649.038 114.88 649.198 114.453 649.518 114.112C649.86 113.771 650.286 113.6 650.798 113.6ZM673.506 136.32C671.97 136.32 670.605 136.128 669.41 135.744C668.216 135.36 667.096 134.709 666.05 133.792C665.474 133.28 665.186 132.715 665.186 132.096C665.186 131.605 665.368 131.179 665.73 130.816C666.093 130.432 666.53 130.24 667.042 130.24C667.448 130.24 667.81 130.368 668.13 130.624C668.984 131.328 669.816 131.84 670.626 132.16C671.437 132.48 672.397 132.64 673.506 132.64C674.701 132.64 675.725 132.373 676.578 131.84C677.453 131.307 677.89 130.645 677.89 129.856C677.89 128.896 677.464 128.149 676.61 127.616C675.757 127.061 674.402 126.645 672.546 126.368C667.874 125.685 665.538 123.509 665.538 119.84C665.538 118.496 665.89 117.333 666.594 116.352C667.298 115.349 668.258 114.592 669.474 114.08C670.69 113.547 672.045 113.28 673.538 113.28C674.882 113.28 676.141 113.483 677.314 113.888C678.509 114.293 679.501 114.827 680.29 115.488C680.909 115.979 681.218 116.544 681.218 117.184C681.218 117.675 681.037 118.112 680.674 118.496C680.312 118.859 679.885 119.04 679.394 119.04C679.074 119.04 678.786 118.944 678.53 118.752C677.976 118.304 677.197 117.899 676.194 117.536C675.213 117.152 674.328 116.96 673.538 116.96C672.194 116.96 671.149 117.216 670.402 117.728C669.677 118.219 669.314 118.869 669.314 119.68C669.314 120.597 669.688 121.291 670.434 121.76C671.202 122.229 672.397 122.613 674.018 122.912C675.853 123.232 677.314 123.648 678.402 124.16C679.512 124.651 680.344 125.333 680.898 126.208C681.453 127.061 681.73 128.203 681.73 129.632C681.73 130.976 681.346 132.16 680.578 133.184C679.832 134.187 678.829 134.965 677.57 135.52C676.312 136.053 674.957 136.32 673.506 136.32ZM701.304 113.568C701.859 113.568 702.307 113.749 702.648 114.112C702.989 114.475 703.16 114.944 703.16 115.52V127.104C703.16 128.875 702.787 130.443 702.04 131.808C701.293 133.173 700.248 134.24 698.904 135.008C697.56 135.776 696.024 136.16 694.296 136.16C692.568 136.16 691.021 135.776 689.656 135.008C688.312 134.24 687.267 133.173 686.52 131.808C685.773 130.443 685.4 128.875 685.4 127.104V115.52C685.4 114.965 685.592 114.507 685.976 114.144C686.36 113.76 686.851 113.568 687.448 113.568C687.96 113.568 688.408 113.76 688.792 114.144C689.176 114.507 689.368 114.965 689.368 115.52V127.104C689.368 128.128 689.592 129.045 690.04 129.856C690.488 130.645 691.085 131.253 691.832 131.68C692.6 132.107 693.421 132.32 694.296 132.32C695.213 132.32 696.067 132.107 696.856 131.68C697.667 131.253 698.307 130.645 698.776 129.856C699.267 129.045 699.512 128.128 699.512 127.104V115.52C699.512 114.944 699.672 114.475 699.992 114.112C700.312 113.749 700.749 113.568 701.304 113.568ZM717.211 113.6C718.299 113.6 719.333 113.931 720.315 114.592C721.296 115.232 722.085 116.107 722.683 117.216C723.28 118.304 723.579 119.499 723.579 120.8C723.579 122.08 723.28 123.275 722.683 124.384C722.085 125.493 721.296 126.379 720.315 127.04C719.333 127.68 718.299 128 717.211 128H711.643V134.048C711.643 134.624 711.472 135.093 711.131 135.456C710.789 135.819 710.341 136 709.786 136C709.253 136 708.816 135.819 708.475 135.456C708.133 135.072 707.963 134.603 707.963 134.048V115.552C707.963 114.997 708.144 114.539 708.507 114.176C708.891 113.792 709.36 113.6 709.915 113.6H717.211ZM717.211 124.352C717.616 124.352 718.011 124.181 718.395 123.84C718.8 123.499 719.12 123.061 719.355 122.528C719.611 121.973 719.739 121.397 719.739 120.8C719.739 120.203 719.611 119.637 719.355 119.104C719.12 118.549 718.8 118.112 718.395 117.792C718.011 117.451 717.616 117.28 717.211 117.28H711.643V124.352H717.211ZM736.492 113.6C737.58 113.6 738.614 113.931 739.596 114.592C740.577 115.232 741.366 116.107 741.964 117.216C742.561 118.304 742.86 119.499 742.86 120.8C742.86 122.08 742.561 123.275 741.964 124.384C741.366 125.493 740.577 126.379 739.596 127.04C738.614 127.68 737.58 128 736.492 128H730.924V134.048C730.924 134.624 730.753 135.093 730.412 135.456C730.07 135.819 729.622 136 729.068 136C728.534 136 728.097 135.819 727.756 135.456C727.414 135.072 727.244 134.603 727.244 134.048V115.552C727.244 114.997 727.425 114.539 727.788 114.176C728.172 113.792 728.641 113.6 729.196 113.6H736.492ZM736.492 124.352C736.897 124.352 737.292 124.181 737.676 123.84C738.081 123.499 738.401 123.061 738.636 122.528C738.892 121.973 739.02 121.397 739.02 120.8C739.02 120.203 738.892 119.637 738.636 119.104C738.401 118.549 738.081 118.112 737.676 117.792C737.292 117.451 736.897 117.28 736.492 117.28H730.924V124.352H736.492ZM767.133 124.8C767.133 126.912 766.664 128.853 765.725 130.624C764.786 132.373 763.485 133.76 761.821 134.784C760.178 135.808 758.322 136.32 756.253 136.32C754.184 136.32 752.317 135.808 750.653 134.784C749.01 133.76 747.72 132.373 746.781 130.624C745.864 128.853 745.405 126.912 745.405 124.8C745.405 122.688 745.864 120.757 746.781 119.008C747.72 117.237 749.01 115.84 750.653 114.816C752.317 113.792 754.184 113.28 756.253 113.28C758.322 113.28 760.178 113.792 761.821 114.816C763.485 115.84 764.786 117.237 765.725 119.008C766.664 120.757 767.133 122.688 767.133 124.8ZM762.973 124.8C762.973 123.371 762.685 122.08 762.109 120.928C761.533 119.755 760.733 118.827 759.709 118.144C758.685 117.461 757.533 117.12 756.253 117.12C754.952 117.12 753.789 117.461 752.765 118.144C751.762 118.805 750.973 119.723 750.397 120.896C749.842 122.069 749.565 123.371 749.565 124.8C749.565 126.229 749.842 127.531 750.397 128.704C750.973 129.877 751.762 130.805 752.765 131.488C753.789 132.149 754.952 132.48 756.253 132.48C757.533 132.48 758.685 132.139 759.709 131.456C760.733 130.773 761.533 129.856 762.109 128.704C762.685 127.531 762.973 126.229 762.973 124.8ZM788.374 132.864C788.652 133.035 788.865 133.259 789.014 133.536C789.185 133.813 789.27 134.101 789.27 134.4C789.27 134.784 789.142 135.136 788.886 135.456C788.566 135.84 788.076 136.032 787.414 136.032C786.902 136.032 786.433 135.915 786.006 135.68C784.47 134.805 783.702 133.024 783.702 130.336C783.702 129.568 783.446 128.96 782.934 128.512C782.444 128.064 781.729 127.84 780.79 127.84H774.806V134.048C774.806 134.624 774.646 135.093 774.326 135.456C774.028 135.819 773.622 136 773.11 136C772.492 136 771.948 135.819 771.478 135.456C771.03 135.072 770.806 134.603 770.806 134.048V115.552C770.806 114.997 770.988 114.539 771.35 114.176C771.734 113.792 772.204 113.6 772.758 113.6H781.974C783.084 113.6 784.129 113.899 785.11 114.496C786.092 115.093 786.87 115.915 787.446 116.96C788.044 118.005 788.342 119.179 788.342 120.48C788.342 121.547 788.054 122.592 787.478 123.616C786.902 124.619 786.156 125.419 785.238 126.016C786.582 126.955 787.318 128.213 787.446 129.792C787.51 130.133 787.542 130.464 787.542 130.784C787.628 131.445 787.713 131.925 787.798 132.224C787.884 132.501 788.076 132.715 788.374 132.864ZM781.814 124.544C782.198 124.544 782.572 124.363 782.934 124C783.297 123.637 783.596 123.157 783.83 122.56C784.065 121.941 784.182 121.28 784.182 120.576C784.182 119.979 784.065 119.435 783.83 118.944C783.596 118.432 783.297 118.027 782.934 117.728C782.572 117.429 782.198 117.28 781.814 117.28H774.806V124.544H781.814ZM807.026 113.6C807.602 113.6 808.072 113.771 808.434 114.112C808.797 114.453 808.978 114.901 808.978 115.456C808.978 116.011 808.797 116.459 808.434 116.8C808.072 117.12 807.602 117.28 807.026 117.28H802.002V134.048C802.002 134.603 801.8 135.072 801.394 135.456C800.989 135.819 800.488 136 799.89 136C799.293 136 798.802 135.819 798.418 135.456C798.034 135.072 797.842 134.603 797.842 134.048V117.28H792.818C792.242 117.28 791.773 117.109 791.41 116.768C791.048 116.427 790.866 115.979 790.866 115.424C790.866 114.891 791.048 114.453 791.41 114.112C791.794 113.771 792.264 113.6 792.818 113.6H807.026Z" fill="white"/>
<defs>
<linearGradient id="paint0_linear" x1="1475.83" y1="233.841" x2="1417.5" y2="-192.809" gradientUnits="userSpaceOnUse">
<stop stop-color="#D58ABB"/>
<stop offset="1" stop-color="#817FBC"/>
</linearGradient>
</defs>
</svg>
