<svg width="1440" height="900" viewBox="0 0 1440 900" fill="none" xmlns="http://www.w3.org/2000/svg">
<g clip-path="url(#clip0)">
<rect width="1440" height="900" fill="#F4F5F7"/>
<g opacity="0.3">
<path d="M992.261 153L989.731 667.143L1452.68 785.555V693.955V595.76V503.437L1454.85 415.063V272.904L1356.45 247.401L1355.9 668.576L1093.01 602.626L1095.43 179.743L992.261 153Z" fill="url(#paint0_linear)"/>
<path d="M1124.63 540.97L1122.12 1055.33L1454.48 789.953L1457 273.942L1124.63 540.97ZM1174.94 942.74L1182.84 592.318L1400.58 410.206V762.468L1174.94 942.74Z" fill="url(#paint1_linear)"/>
<path d="M662.047 422.764L659.519 938.548L1122.47 1055.32V963.719L855.664 892.223L859.576 799.137L1122.47 865.524V773.199L859.576 706.074L861.02 615.216L1124.63 684.828V542.669L662.047 422.764Z" fill="url(#paint2_linear)"/>
</g>
</g>
<defs>
<linearGradient id="paint0_linear" x1="1057.01" y1="641.885" x2="1509.72" y2="190.877" gradientUnits="userSpaceOnUse">
<stop offset="0.202324" stop-color="#E7A8D1"/>
<stop offset="0.604167" stop-color="#817FBC"/>
</linearGradient>
<linearGradient id="paint1_linear" x1="1457" y1="688.13" x2="1147.96" y2="453.443" gradientUnits="userSpaceOnUse">
<stop offset="0.421875" stop-color="#FDD4C1"/>
<stop offset="1" stop-color="#FB9CCB" stop-opacity="0.7"/>
</linearGradient>
<linearGradient id="paint2_linear" x1="1131.07" y1="1145.59" x2="646.573" y2="426.696" gradientUnits="userSpaceOnUse">
<stop stop-color="#FB9CCB"/>
<stop offset="1" stop-color="#817FBC"/>
</linearGradient>
<clipPath id="clip0">
<rect width="1440" height="900" fill="white"/>
</clipPath>
</defs>
</svg>
