<svg width="1440" height="898" viewBox="0 0 1440 898" fill="none" xmlns="http://www.w3.org/2000/svg">
<g clip-path="url(#clip0)">
<rect width="1440" height="898" fill="white"/>
<circle cx="1275.5" cy="-55.5" r="522.5" fill="url(#paint0_linear)" fill-opacity="0.5"/>
<circle cx="289" cy="99" r="39" fill="url(#paint1_linear)" fill-opacity="0.5"/>
<circle cx="759" cy="804" r="37.5" stroke="url(#paint2_linear)" stroke-width="3"/>
<circle cx="580" cy="948" r="120" fill="url(#paint3_linear)" fill-opacity="0.5"/>
<g filter="url(#filter0_f)">
<circle cx="151.577" cy="212.577" r="275.161" transform="rotate(-67.858 151.577 212.577)" fill="url(#paint4_linear)" fill-opacity="0.2"/>
</g>
<g filter="url(#filter1_f)">
<circle cx="102.604" cy="879.604" r="223" transform="rotate(-67.858 102.604 879.604)" fill="url(#paint5_linear)" fill-opacity="0.2"/>
</g>
<path d="M764.727 571.279L1044.64 731.535L1364.17 545.654L1085.37 384.751L764.727 571.279Z" fill="url(#paint6_linear)"/>
<path opacity="0.32" d="M1073.18 595.651C1082.4 589.989 1091.56 584.216 1100.65 578.331C1116.16 568.253 1133.42 558.675 1147.85 546.635L1071.05 504.568L997.984 566.542C1013.01 574.409 1033.47 585.322 1063.14 601.577C1066.41 599.595 1069.86 597.696 1073.18 595.651Z" fill="url(#paint7_linear)"/>
<path opacity="0.32" d="M1234.37 605.875C1243.6 600.214 1252.76 594.441 1261.84 588.556C1277.35 578.478 1294.62 568.9 1309.04 556.86L1236.48 537.308L1159.24 576.766C1174.27 584.633 1194.73 595.546 1224.39 611.802C1227.65 609.819 1231.05 607.92 1234.37 605.875Z" fill="url(#paint8_linear)"/>
<path opacity="0.32" d="M991.68 694.914C1022.99 678.074 1096.93 640.89 1127.95 623.654L908.89 546.447L820.526 599.428C853.216 616.538 946.423 666.931 991.68 694.914Z" fill="url(#paint9_linear)"/>
<path d="M1042.01 354.578V179.131L763.203 340.222V515.669L1042.01 354.578Z" fill="url(#paint10_linear)" fill-opacity="0.9"/>
<path d="M1045.85 498.329L1093.17 523.223L1094.59 534.908L1044.49 506.655" fill="#3D467F"/>
<path d="M1043.91 479.236L1024.41 549.515L1027.98 551.601C1028.91 551.115 1029.8 550.565 1030.65 549.953C1031.72 549.16 1055.98 476.126 1055.98 476.126" fill="#3D467F"/>
<path d="M1088.89 465.526L1102.19 507.03L1101.06 590.059L1098.08 592.02L1093.97 589.454L1090.88 506.988L1078.87 465.526" fill="#3D467F"/>
<path d="M1036.64 460.56C1036.64 460.56 1035.16 469.762 1038.34 474.875C1041.51 479.987 1049.9 467.258 1049.9 467.258" fill="#FFB469"/>
<path d="M1080.75 410.376L1078.87 444.013L1087.68 448.562L1089.33 412.546" fill="#CA6B00"/>
<path d="M1136.14 435.145L1142.04 480.592L1148.03 547.428L1144.17 549.703L1140.37 547.324L1131.83 481.635L1126.09 435.145" fill="#3D467F"/>
<path d="M1130.14 440.8C1132.63 441.551 1137.95 437.649 1139.56 435.124C1148.31 421.394 1145.82 402.739 1130.04 394.037C1123.07 390.177 1115.89 386.358 1108.96 382.394C1102.8 378.867 1096.26 375.883 1090.31 371.96C1089.54 371.424 1088.7 370.969 1087.83 370.604C1086.2 370.165 1084.48 370.22 1082.89 370.762C1081.29 371.305 1079.9 372.311 1078.87 373.651" fill="#F39AC4"/>
<path d="M1130.79 440.215C1134.97 440.069 1137.41 434.498 1138.66 431.222C1142.08 422.207 1142.84 405.055 1132.4 399.922C1132.2 399.836 1132.03 399.7 1131.9 399.528C1131.77 399.356 1131.69 399.154 1131.67 398.941L1111.94 387.548L1096.68 378.742C1094.01 377.198 1091.48 375.445 1088.81 373.901C1086.14 372.357 1083.51 370.562 1080.59 372.315C1077.66 374.068 1076.91 377.907 1076.41 381.308C1075.09 389.162 1075.5 397.211 1077.62 404.888C1079.47 409.769 1083.09 413.771 1087.77 416.093L1101.94 424.294L1128.22 439.443C1128.65 439.711 1129.1 439.922 1129.58 440.069C1129.97 440.18 1130.38 440.23 1130.79 440.215Z" fill="#817FBC"/>
<path d="M1133.65 476.607L1134.44 477.066C1136.67 478.164 1138.67 479.672 1140.33 481.51C1144.32 486.498 1140.46 492.215 1136.51 495.721C1125.82 505.215 1109.62 512.977 1095.14 509.472C1082.59 506.094 1070.62 500.831 1059.65 493.863C1050.59 488.417 1039.25 481.844 1036.87 470.597C1036.45 468.09 1036.61 465.517 1037.36 463.085C1038.1 460.653 1039.41 458.43 1041.17 456.596C1063.93 430.241 1095.93 454.989 1118.41 467.884L1133.65 476.607Z" fill="#F39AC4"/>
<path d="M1141.56 477.65C1142.23 480.818 1142.39 484.073 1142.02 487.29C1140.53 490.825 1138.31 494.004 1135.51 496.618C1132.86 498.704 1134.44 483.889 1134.44 483.889" fill="#FB9CCB"/>
<path d="M1133.65 470.284L1134.44 470.743C1136.67 471.841 1138.67 473.349 1140.33 475.188C1144.32 480.175 1140.46 485.892 1136.51 489.398C1125.82 498.892 1109.62 506.655 1095.14 503.149C1082.59 499.771 1070.62 494.509 1059.65 487.541C1050.59 482.094 1039.25 475.521 1036.87 464.274C1036.45 461.767 1036.61 459.194 1037.36 456.762C1038.1 454.33 1039.41 452.107 1041.17 450.273C1063.93 423.918 1095.93 448.666 1118.41 461.562L1133.65 470.284Z" fill="#817FBC"/>
<path d="M1269.96 451.379C1241.45 451.379 1218.32 458.933 1218.32 468.26H1321.61C1321.61 458.933 1298.48 451.379 1269.96 451.379Z" fill="#0A1D23"/>
<path d="M1218.49 469.554L1218.32 468.239C1218.32 468.682 1218.38 469.124 1218.49 469.554Z" fill="#06489E"/>
<path d="M1321.61 468.26L1321.4 469.741C1321.53 469.259 1321.6 468.761 1321.61 468.26Z" fill="#06489E"/>
<path d="M1269.96 485.12C1296.96 485.12 1319.1 478.36 1321.4 469.721L1321.61 468.239H1218.32L1218.49 469.554C1220.51 478.214 1242.79 485.12 1269.96 485.12Z" fill="#0A1D23"/>
<path d="M1289.71 381.121H1278.08V500.937H1289.71V381.121Z" fill="#A27CEF"/>
<path d="M1283.89 383.583C1287.09 383.583 1289.69 382.481 1289.69 381.121C1289.69 379.761 1287.09 378.659 1283.89 378.659C1280.68 378.659 1278.08 379.761 1278.08 381.121C1278.08 382.481 1280.68 383.583 1283.89 383.583Z" fill="#A27CEF"/>
<path d="M1315.5 403.972L1304.11 401.647L1280.13 519.041L1291.53 521.366L1315.5 403.972Z" fill="white"/>
<path d="M1315.5 403.983C1315.78 402.651 1313.45 401.051 1310.31 400.41C1307.17 399.769 1304.4 400.33 1304.13 401.662C1303.86 402.995 1306.19 404.594 1309.33 405.235C1312.47 405.876 1315.23 405.316 1315.5 403.983Z" fill="#FF8F02"/>
<path d="M1255.92 470.889L1245.31 476.961C1245.1 477.086 1244.84 477.119 1244.6 477.055C1244.36 476.99 1244.15 476.833 1244.03 476.617C1243.9 476.401 1243.87 476.145 1243.93 475.904C1244 475.663 1244.16 475.458 1244.37 475.334L1255.23 469.074C1255.33 469.011 1255.44 468.969 1255.56 468.948L1253.47 457.472L1242.79 463.607C1242.68 463.668 1242.56 463.708 1242.44 463.724C1242.32 463.74 1242.19 463.732 1242.07 463.7C1241.95 463.668 1241.84 463.613 1241.74 463.538C1241.65 463.463 1241.56 463.369 1241.5 463.262C1241.44 463.155 1241.4 463.037 1241.38 462.915C1241.37 462.793 1241.38 462.668 1241.41 462.549C1241.44 462.43 1241.5 462.318 1241.57 462.221C1241.65 462.123 1241.74 462.041 1241.85 461.979L1252.7 455.719C1252.82 455.648 1252.96 455.605 1253.1 455.594L1251.14 444.973L1240.7 450.961C1240.48 451.086 1240.23 451.12 1239.98 451.055C1239.74 450.99 1239.54 450.833 1239.41 450.617C1239.29 450.401 1239.26 450.145 1239.32 449.904C1239.39 449.663 1239.54 449.458 1239.76 449.334L1250.61 443.074H1250.82L1248.63 431.242L1238.19 437.21C1237.98 437.335 1237.72 437.368 1237.48 437.304C1237.24 437.239 1237.03 437.082 1236.91 436.866C1236.78 436.65 1236.75 436.394 1236.82 436.153C1236.88 435.912 1237.04 435.707 1237.25 435.583L1248.11 429.323H1248.28L1246.19 417.762L1235.5 423.96C1235.28 424.084 1235.03 424.118 1234.79 424.054C1234.55 423.989 1234.34 423.831 1234.22 423.616C1234.09 423.4 1234.06 423.143 1234.12 422.903C1234.19 422.662 1234.34 422.457 1234.56 422.332L1245.42 416.072C1245.52 416.01 1245.63 415.968 1245.75 415.947L1243.89 405.91L1233.27 411.982C1233.05 412.107 1232.79 412.141 1232.55 412.076C1232.31 412.011 1232.11 411.854 1231.98 411.638C1231.86 411.422 1231.82 411.166 1231.89 410.925C1231.95 410.684 1232.11 410.479 1232.33 410.355L1243.18 404.095C1243.29 404.03 1243.41 403.988 1243.54 403.97L1241.68 393.954L1231.07 400.005C1230.86 400.129 1230.6 400.163 1230.36 400.099C1230.12 400.034 1229.92 399.877 1229.79 399.661C1229.67 399.445 1229.63 399.188 1229.7 398.948C1229.76 398.707 1229.92 398.502 1230.14 398.377L1240.99 392.117C1241.09 392.065 1241.19 392.029 1241.3 392.013L1239.22 380.995L1228.78 386.984C1228.56 387.109 1228.31 387.142 1228.07 387.078C1227.82 387.013 1227.62 386.856 1227.49 386.64C1227.37 386.424 1227.34 386.168 1227.4 385.927C1227.47 385.686 1227.62 385.481 1227.84 385.357L1238.69 379.097H1238.9L1237.94 373.963L1214.98 388.236C1214.98 388.236 1231.35 479.319 1231.68 479.507C1241.24 484.494 1258.63 485.078 1258.63 485.078L1255.92 470.889Z" fill="url(#paint11_linear)"/>
<path d="M1227.84 385.44C1227.62 385.565 1227.47 385.77 1227.4 386.01C1227.34 386.251 1227.37 386.508 1227.49 386.723C1227.62 386.939 1227.82 387.097 1228.07 387.161C1228.31 387.226 1228.56 387.192 1228.78 387.068L1239.22 381.079L1238.86 379.159H1238.65L1227.84 385.44Z" fill="#A27CEF"/>
<path d="M1230.14 398.419C1229.92 398.544 1229.76 398.749 1229.7 398.99C1229.63 399.23 1229.67 399.487 1229.79 399.703C1229.92 399.918 1230.12 400.076 1230.36 400.141C1230.6 400.205 1230.86 400.171 1231.07 400.047L1241.68 393.996L1241.32 392.097C1241.21 392.113 1241.11 392.148 1241.01 392.201L1230.14 398.419Z" fill="#A27CEF"/>
<path d="M1232.31 410.334C1232.09 410.458 1231.93 410.664 1231.87 410.904C1231.8 411.145 1231.84 411.401 1231.96 411.617C1232.09 411.833 1232.29 411.99 1232.53 412.055C1232.77 412.12 1233.03 412.086 1233.25 411.961L1243.87 405.889L1243.52 404.011C1243.39 404.029 1243.27 404.072 1243.16 404.136L1232.31 410.334Z" fill="#A27CEF"/>
<path d="M1234.54 422.228C1234.32 422.352 1234.17 422.558 1234.1 422.798C1234.04 423.039 1234.07 423.295 1234.2 423.511C1234.32 423.727 1234.52 423.885 1234.77 423.949C1235.01 424.014 1235.26 423.98 1235.48 423.855L1246.08 417.783L1245.73 415.905C1245.61 415.926 1245.5 415.968 1245.39 416.03L1234.54 422.228Z" fill="#A27CEF"/>
<path d="M1237.19 435.645C1237.08 435.707 1236.99 435.789 1236.92 435.887C1236.84 435.985 1236.78 436.096 1236.75 436.216C1236.72 436.335 1236.71 436.459 1236.73 436.581C1236.74 436.704 1236.78 436.822 1236.85 436.928C1236.91 437.035 1236.99 437.129 1237.09 437.204C1237.19 437.279 1237.3 437.334 1237.42 437.366C1237.54 437.398 1237.66 437.407 1237.78 437.391C1237.91 437.374 1238.02 437.334 1238.13 437.273L1248.57 431.305L1248.21 429.364H1248.05L1237.19 435.645Z" fill="#A27CEF"/>
<path d="M1239.67 449.417C1239.46 449.542 1239.3 449.747 1239.24 449.987C1239.17 450.228 1239.21 450.485 1239.33 450.7C1239.45 450.916 1239.66 451.074 1239.9 451.138C1240.14 451.203 1240.4 451.169 1240.61 451.045L1251.05 445.056L1250.7 443.136H1250.49L1239.67 449.417Z" fill="#A27CEF"/>
<path d="M1252.7 455.803L1241.85 462.063C1241.74 462.124 1241.65 462.206 1241.57 462.304C1241.5 462.402 1241.44 462.514 1241.41 462.633C1241.38 462.752 1241.37 462.876 1241.38 462.999C1241.4 463.121 1241.44 463.239 1241.5 463.346C1241.56 463.453 1241.65 463.546 1241.74 463.622C1241.84 463.697 1241.95 463.752 1242.07 463.784C1242.19 463.816 1242.32 463.824 1242.44 463.808C1242.56 463.792 1242.68 463.752 1242.79 463.69L1253.45 457.597L1253.1 455.74C1252.96 455.732 1252.83 455.753 1252.7 455.803Z" fill="#A27CEF"/>
<path d="M1244.39 475.334C1244.29 475.396 1244.19 475.478 1244.12 475.576C1244.04 475.673 1243.99 475.785 1243.95 475.904C1243.92 476.023 1243.91 476.148 1243.93 476.27C1243.95 476.392 1243.99 476.51 1244.05 476.617C1244.11 476.724 1244.19 476.818 1244.29 476.893C1244.39 476.968 1244.5 477.023 1244.62 477.055C1244.74 477.087 1244.86 477.095 1244.98 477.079C1245.11 477.063 1245.23 477.023 1245.33 476.961L1255.94 470.889L1255.58 469.011C1255.46 469.032 1255.35 469.074 1255.25 469.136L1244.39 475.334Z" fill="#A27CEF"/>
<path d="M1304.12 401.654C1304.12 401.654 1304.7 404.7 1309.31 405.222C1313.93 405.744 1315.58 403.97 1315.58 403.97L1314.07 381.017L1304.12 401.654Z" fill="#FFD8BD"/>
<path d="M1314.01 381.121L1309.42 390.657C1310.07 391.37 1310.96 391.832 1311.92 391.966C1312.88 392.099 1313.85 391.894 1314.68 391.387L1314.01 381.121Z" fill="#3D467F"/>
<path d="M1278.08 380.432C1278.08 380.432 1279.15 383.354 1283.78 383.145C1288.42 382.936 1289.69 380.933 1289.69 380.933L1284.6 358.585L1278.08 380.432Z" fill="#FFD8BD"/>
<path d="M1284.6 358.585L1281.57 368.726C1282.33 369.331 1283.28 369.651 1284.25 369.632C1285.22 369.613 1286.16 369.256 1286.89 368.622L1284.6 358.585Z" fill="#3D467F"/>
<path d="M1269.96 485.12C1242.83 485.12 1220.53 478.255 1218.49 469.554C1219.84 479.987 1229.11 551.601 1229.47 552.019C1229.47 552.019 1234.21 572.218 1269.96 572.197C1300.38 572.197 1309.06 556.922 1309.06 556.922L1321.4 469.721C1319 478.359 1296.96 485.12 1269.96 485.12Z" fill="url(#paint12_linear)"/>
<path d="M1042.01 346.357L764.894 504.923V522.054L1047.27 362.07L1048.04 348.715L1042.01 346.357Z" fill="#3D467F"/>
<path d="M769.716 508.011L765.103 504.86L759.529 507.615L769.946 513.666" fill="#3D467F"/>
<path d="M759.529 507.614V518.152L764.894 522.054L766.167 507.614" fill="#3D467F"/>
<path d="M1082.47 595.755L1073.82 591.79C1073.82 591.79 1072.99 584.299 1075.91 582.713C1078.83 581.128 1082.47 595.755 1082.47 595.755Z" fill="#473F47"/>
<path d="M1061.19 574.889C1061.19 574.889 1060.42 593.335 1059.11 595.255C1057.79 597.174 1041.68 606.126 1040.32 609.381C1038.96 612.636 1058.61 608.714 1065.01 606.94C1071.42 605.166 1077.35 601.828 1077.54 599.407C1077.73 596.986 1074.82 584.675 1077.2 584.8C1079.58 584.926 1082.28 595.651 1082.28 595.651L1087.87 592.166L1074.37 549.306" fill="#473F47"/>
<path d="M1043.22 578.373L1034.58 574.409C1034.58 574.409 1033.74 566.918 1036.67 565.332C1039.59 563.746 1043.22 578.373 1043.22 578.373Z" fill="#473F47"/>
<path d="M1021.95 557.507C1021.95 557.507 1021.18 575.953 1019.86 577.873C1018.55 579.792 1002.43 588.744 1001.07 591.999C999.717 595.255 1019.36 591.332 1025.77 589.558C1032.18 587.784 1038.11 584.446 1038.29 582.025C1038.48 579.605 1035.58 567.293 1037.96 567.419C1040.34 567.544 1043.03 578.269 1043.03 578.269L1048.63 574.784L1035.12 531.924" fill="#473F47"/>
<path d="M1082.4 417.7C1085.47 420.517 1093.38 460.477 1089.15 479.862C1084.91 499.247 1038.25 508.324 1038.25 508.324L1050.34 557.173C1050.34 557.173 1032.7 571.133 1015.46 565.958C1009.19 564.08 993.559 493.926 998.757 483.973C1003.95 474.019 1065.91 438.65 1065.91 438.65" fill="#FFF0D7"/>
<path d="M1119.66 431.556C1122.73 434.373 1131.86 456.742 1120.85 484.703C1113.59 503.149 1072.09 516.984 1072.09 516.984L1087.6 571.028C1087.6 571.028 1069.25 586.929 1052.72 579.813C1036.19 572.698 1030.11 505.987 1035.33 496.034C1040.55 486.08 1094.13 450.294 1094.13 450.294" fill="#FFF0D7"/>
<path d="M1103.57 377.949C1103.57 377.949 1134.88 390.114 1127.16 434.143C1121.75 465.172 1091.21 469.261 1091.21 469.261C1091.21 469.261 1070.86 457.096 1073.03 452.798L1099.96 438.003L1068.65 423.083L1046.98 446.913L1030.78 434.873C1030.78 434.873 1052.97 398.273 1062.63 383.145C1072.3 368.016 1103.57 377.949 1103.57 377.949Z" fill="#3D467F"/>
<path d="M1065.22 453.423L1070.59 449C1070.59 449 1058.19 438.149 1041.63 439.985C1037.11 433.354 1030.42 428.489 1022.72 426.213L1015.98 431.305" fill="white"/>
<path d="M1070.57 448.917L1075.58 480.363L1065.95 485.934L1057.65 457.284" fill="white"/>
<path d="M1065.22 453.424L1070.38 483.201L1065.95 485.934C1065.95 485.934 1018.98 461.52 1019.42 461.019C1019.86 460.518 1015.96 431.222 1015.96 431.222" fill="url(#paint13_linear)"/>
<path d="M1019.26 428.718L1065.22 453.424L1061.01 455.928L1015.96 431.222L1019.26 428.718Z" fill="url(#paint14_linear)"/>
<path opacity="0.42" d="M1019.26 428.718L1065.22 453.424L1061.01 455.928L1015.96 431.222L1019.26 428.718Z" fill="#1371A5"/>
<path d="M1059.48 457.702C1059.36 457.285 1059.36 456.846 1059.46 456.426C1059.57 456.007 1059.78 455.622 1060.08 455.31C1060.38 454.998 1060.76 454.77 1061.17 454.648C1061.59 454.525 1062.03 454.514 1062.45 454.613C1066.01 455.834 1069.77 456.379 1073.53 456.22C1073.94 456.199 1074.34 456.285 1074.7 456.47H1074.8C1078.42 459.945 1082.42 463.004 1086.72 465.589L1085.47 466.215C1083.86 469.55 1081.99 472.758 1079.9 475.814C1079.41 476.505 1078.77 477.071 1078.02 477.466C1077.27 477.862 1076.44 478.075 1075.6 478.088C1075.04 478.53 1074.46 478.928 1073.84 479.278C1072.97 479.792 1071.95 480.03 1070.94 479.963C1069.92 479.897 1068.95 479.527 1068.15 478.902C1067.57 479.279 1066.86 479.421 1066.18 479.299C1065.75 479.536 1065.25 479.643 1064.75 479.606C1064.26 479.569 1063.78 479.39 1063.39 479.09C1062.24 478.474 1061.38 477.435 1060.99 476.196C1060.6 474.957 1060.71 473.614 1061.3 472.454C1060.49 471.568 1060.01 470.427 1059.95 469.228C1059.89 468.029 1060.25 466.846 1060.96 465.881C1061.96 464.387 1063.2 463.074 1064.64 462C1063.46 461.83 1062.36 461.339 1061.45 460.58C1060.54 459.821 1059.86 458.825 1059.48 457.702Z" fill="#F3B496"/>
<path d="M1014.62 448.228C1014.35 447.811 1014.08 447.414 1013.81 446.976C1013.62 446.69 1013.5 446.367 1013.45 446.03C1013.41 445.692 1013.43 445.348 1013.53 445.022C1013.63 444.696 1013.8 444.396 1014.03 444.142C1014.26 443.888 1014.54 443.688 1014.85 443.554L1015.19 443.22C1014.93 442.671 1014.89 442.047 1015.06 441.467C1015.23 440.887 1015.61 440.39 1016.12 440.069C1016.47 439.868 1016.87 439.754 1017.27 439.735C1017.67 439.717 1018.08 439.796 1018.44 439.965C1018.66 440.014 1018.87 440.098 1019.07 440.215C1020.84 441.278 1022.21 442.89 1022.97 444.806C1023.13 445.324 1023.11 445.879 1022.91 446.384C1022.72 446.89 1022.37 447.318 1021.91 447.602C1021.64 447.749 1021.35 447.847 1021.05 447.894C1021.92 449.015 1022.62 450.251 1023.14 451.567C1023.83 453.278 1022.07 454.822 1020.49 454.718L1020.86 455.218C1022.26 456.95 1020.07 459.392 1018.17 458.891C1017.5 458.684 1016.87 458.34 1016.34 457.881C1015.8 457.421 1015.37 456.856 1015.06 456.22C1014.22 454.801 1013.43 453.34 1012.66 451.901C1012.49 451.535 1012.4 451.133 1012.41 450.729C1012.42 450.324 1012.52 449.927 1012.71 449.569C1012.9 449.212 1013.18 448.905 1013.51 448.672C1013.84 448.439 1014.22 448.287 1014.62 448.228Z" fill="#F3B496"/>
<path d="M1067.52 411.982C1067.52 411.982 1067.39 439.839 1069.11 442.844C1070.82 445.849 1100.54 457.701 1100.54 457.701L1118.25 434.393L1067.52 411.982Z" fill="#3D467F"/>
<path d="M1081.42 363.989C1081.42 363.989 1076.49 375.403 1078.58 379.41C1080.67 383.416 1091.53 380.39 1091.53 380.39" fill="#473F47"/>
<path d="M1080.36 358.23C1080.36 358.23 1080.54 381.183 1090.04 383.458C1099.54 385.732 1104.26 373.963 1104.26 373.963C1104.26 373.963 1105.82 358.439 1102.69 355.183C1099.56 351.928 1085.2 351.615 1080.36 358.23Z" fill="#F3B496"/>
<path d="M1076.66 355.768C1076.66 355.768 1083.22 364.615 1087.1 366.806C1090.98 368.997 1095.12 367.599 1096.49 370.688C1097.87 373.776 1093.59 392.305 1097.98 395.728C1102.36 399.15 1110.5 388.904 1114.38 393.641C1118.27 398.378 1116.47 407.475 1122.27 409.312C1128.08 411.148 1134.8 402.008 1129.08 394.955C1123.36 387.903 1122.82 384.397 1125.89 381.956C1130.56 378.325 1125.36 365.45 1119.75 363.176C1114.13 360.901 1112.36 348.298 1102.32 345.418C1092.28 342.538 1078.65 348.611 1076.66 355.768Z" fill="#473F47"/>
<path d="M1069.52 403.093C1069.79 415.947 1070.33 428.787 1071.15 441.613C1071.15 443.074 1069.06 443.116 1068.88 441.613C1068.07 428.787 1067.53 415.947 1067.25 403.093C1067.25 402.792 1067.37 402.502 1067.58 402.289C1067.79 402.076 1068.08 401.956 1068.39 401.956C1068.69 401.956 1068.98 402.076 1069.19 402.289C1069.4 402.502 1069.52 402.792 1069.52 403.093Z" fill="#F39AC4"/>
<path d="M1073.45 452.005C1080.72 448.529 1087.08 443.401 1092.02 437.032C1096.96 430.663 1100.34 423.229 1101.9 415.321C1102.19 413.882 1104.38 414.445 1104.11 415.885C1102.5 424.07 1099.01 431.769 1093.91 438.374C1088.82 444.979 1082.25 450.31 1074.74 453.946C1073.32 454.592 1072.13 452.652 1073.45 452.005Z" fill="#F39AC4"/>
<path d="M840.962 506.571C841.109 547.929 841.317 585.134 841.317 585.134C841.317 585.134 842.194 588.493 848.415 585.739V504.15C845.952 504.985 843.447 505.778 840.962 506.571Z" fill="#473F47"/>
<path d="M1013.93 607.128C1014.08 648.485 1014.29 685.691 1014.29 685.691C1014.29 685.691 1015.16 689.05 1021.39 686.296V604.728C1018.92 605.5 1016.42 606.356 1013.93 607.128Z" fill="#473F47"/>
<path d="M1120.48 544.486C1120.63 585.844 1120.83 623.049 1120.83 623.049C1120.83 623.049 1121.71 626.408 1127.93 623.654V542.065C1125.47 542.9 1122.98 543.693 1120.48 544.486Z" fill="#473F47"/>
<path d="M839.501 504.15V511.182L1018 614.431L1127.78 542.357L1127.95 534.491" fill="url(#paint15_linear)"/>
<path opacity="0.36" d="M839.501 504.15V511.182L1018 614.431L1127.78 542.357L1127.95 534.491" fill="#06489E"/>
<path d="M839.501 504.151L954.355 438.65L1127.95 534.491L1017.38 607.357L839.501 504.151Z" fill="url(#paint16_linear)"/>
<path d="M997.525 506.362C997.692 506.362 999.299 505.716 997.963 504.693C997.071 503.997 996.137 503.356 995.166 502.773" fill="#A27CEF"/>
<path d="M997.525 497.87C997.525 497.87 996.189 502.857 997.525 505.507L979.218 516.253L961.119 526.687V518.945" fill="white"/>
<path d="M998.068 497.098C998.068 497.445 998.026 497.793 997.942 498.141L961.077 519.008V526.749L997.901 505.34C997.901 505.653 997.901 505.945 997.901 506.258L959.637 528.293V517.86L998.068 497.098Z" fill="#A27CEF"/>
<path d="M997.859 497.244L959.825 519.008L906.468 487.708L943.668 466.382C944.229 466.056 944.866 465.884 945.515 465.884C946.164 465.884 946.801 466.056 947.362 466.382L997.838 496.284C997.927 496.328 998.001 496.395 998.054 496.479C998.107 496.562 998.136 496.659 998.138 496.757C998.141 496.856 998.116 496.954 998.066 497.039C998.017 497.125 997.945 497.196 997.859 497.244Z" fill="url(#paint17_linear)" fill-opacity="0.8"/>
<path d="M959.637 528.294C959.637 528.294 906.322 496.993 906.468 496.743C906.614 496.493 906.468 487.666 906.468 487.666L959.825 518.966L959.637 528.294Z" fill="#A27CEF"/>
<path d="M997.859 496.284C998.016 496.395 998.147 496.538 998.244 496.703C998.341 496.869 998.402 497.053 998.423 497.244C998.423 497.89 997.796 498.203 997.546 498.349" fill="#F3B496"/>
<path d="M1023.85 496.993C1024.02 496.993 1025.62 496.347 1024.29 495.324C1023.39 494.628 1022.46 493.986 1021.49 493.404" fill="#9A433A"/>
<path d="M1023.85 488.646C1023.85 488.646 1022.51 493.634 1023.85 496.284L1005.54 507.03L987.442 517.463V509.722" fill="white"/>
<path d="M1024.45 487.833C1024.45 488.181 1024.41 488.529 1024.33 488.876L987.463 509.743V517.484L1024.31 496.013C1024.31 496.326 1024.31 496.618 1024.31 496.931L986.044 519.029V508.491L1024.45 487.833Z" fill="#9A433A"/>
<path d="M1024.25 487.958L986.232 509.722L932.875 478.422L970.075 457.096C970.636 456.77 971.273 456.598 971.922 456.598C972.571 456.598 973.208 456.77 973.769 457.096L1024.25 486.998C1024.33 487.044 1024.41 487.113 1024.46 487.198C1024.51 487.282 1024.53 487.379 1024.53 487.478C1024.53 487.577 1024.51 487.674 1024.46 487.758C1024.41 487.843 1024.33 487.912 1024.25 487.958Z" fill="#F39AC4"/>
<path d="M986.044 519.028C986.044 519.028 932.812 487.645 932.812 487.499C932.812 487.353 932.812 478.422 932.812 478.422L986.169 509.722L986.044 519.028Z" fill="#9A433A"/>
<path d="M1024.27 486.998C1024.42 487.109 1024.55 487.252 1024.65 487.418C1024.75 487.583 1024.81 487.767 1024.83 487.958C1024.83 488.605 1024.2 488.918 1023.95 489.064" fill="#F39AC4"/>
</g>
<defs>
<filter id="filter0_f" x="-307" y="-246" width="917.155" height="917.155" filterUnits="userSpaceOnUse" color-interpolation-filters="sRGB">
<feFlood flood-opacity="0" result="BackgroundImageFix"/>
<feBlend mode="normal" in="SourceGraphic" in2="BackgroundImageFix" result="shape"/>
<feGaussianBlur stdDeviation="50" result="effect1_foregroundBlur"/>
</filter>
<filter id="filter1_f" x="-288" y="489" width="781.207" height="781.207" filterUnits="userSpaceOnUse" color-interpolation-filters="sRGB">
<feFlood flood-opacity="0" result="BackgroundImageFix"/>
<feBlend mode="normal" in="SourceGraphic" in2="BackgroundImageFix" result="shape"/>
<feGaussianBlur stdDeviation="50" result="effect1_foregroundBlur"/>
</filter>
<linearGradient id="paint0_linear" x1="1275.65" y1="-864.115" x2="514.312" y2="-501.58" gradientUnits="userSpaceOnUse">
<stop stop-color="#D1CFFF"/>
<stop offset="1" stop-color="#FFCDFA"/>
<stop offset="1" stop-color="#FFCDFA"/>
</linearGradient>
<linearGradient id="paint1_linear" x1="289.011" y1="38.6441" x2="232.184" y2="65.7041" gradientUnits="userSpaceOnUse">
<stop stop-color="#D1CFFF"/>
<stop offset="1" stop-color="#FFCDFA"/>
<stop offset="1" stop-color="#FFCDFA"/>
</linearGradient>
<linearGradient id="paint2_linear" x1="759.011" y1="743.644" x2="702.184" y2="770.704" gradientUnits="userSpaceOnUse">
<stop stop-color="#D1CFFF"/>
<stop offset="1" stop-color="#FFCDFA"/>
<stop offset="1" stop-color="#FFCDFA"/>
</linearGradient>
<linearGradient id="paint3_linear" x1="580.035" y1="762.289" x2="405.182" y2="845.551" gradientUnits="userSpaceOnUse">
<stop stop-color="#D1CFFF"/>
<stop offset="1" stop-color="#FFCDFA"/>
<stop offset="1" stop-color="#FFCDFA"/>
</linearGradient>
<linearGradient id="paint4_linear" x1="151.657" y1="-213.258" x2="-249.282" y2="-22.3389" gradientUnits="userSpaceOnUse">
<stop stop-color="#D1CFFF"/>
<stop offset="1" stop-color="#FFCDFA"/>
<stop offset="1" stop-color="#FFCDFA"/>
</linearGradient>
<linearGradient id="paint5_linear" x1="102.668" y1="534.492" x2="-222.267" y2="689.219" gradientUnits="userSpaceOnUse">
<stop stop-color="#D1CFFF"/>
<stop offset="1" stop-color="#FFCDFA"/>
<stop offset="1" stop-color="#FFCDFA"/>
</linearGradient>
<linearGradient id="paint6_linear" x1="1064.54" y1="289.804" x2="745.165" y2="552.687" gradientUnits="userSpaceOnUse">
<stop stop-color="#D1CFFF"/>
<stop offset="1" stop-color="#FFCDFA"/>
<stop offset="1" stop-color="#FFCDFA"/>
</linearGradient>
<linearGradient id="paint7_linear" x1="1043.99" y1="568.837" x2="1129.75" y2="513.134" gradientUnits="userSpaceOnUse">
<stop stop-color="#FFD555" stop-opacity="0.03"/>
<stop offset="1" stop-color="#942500"/>
</linearGradient>
<linearGradient id="paint8_linear" x1="41020.8" y1="16948.3" x2="42432.8" y2="13975.3" gradientUnits="userSpaceOnUse">
<stop stop-color="#FFD555" stop-opacity="0.03"/>
<stop offset="1" stop-color="#942500"/>
</linearGradient>
<linearGradient id="paint9_linear" x1="46027.5" y1="37850.1" x2="47350.8" y2="29633" gradientUnits="userSpaceOnUse">
<stop stop-color="#FFD555" stop-opacity="0.03"/>
<stop offset="1" stop-color="#942500"/>
</linearGradient>
<linearGradient id="paint10_linear" x1="1064.87" y1="493.917" x2="773.931" y2="170.837" gradientUnits="userSpaceOnUse">
<stop stop-color="#D58ABB"/>
<stop offset="1" stop-color="#817FBC"/>
</linearGradient>
<linearGradient id="paint11_linear" x1="1258.63" y1="432.861" x2="1215.85" y2="403.082" gradientUnits="userSpaceOnUse">
<stop offset="0.421875" stop-color="#FDD4C1"/>
<stop offset="1" stop-color="#FB9CCB" stop-opacity="0.7"/>
</linearGradient>
<linearGradient id="paint12_linear" x1="1329.84" y1="565.562" x2="1244.38" y2="450.706" gradientUnits="userSpaceOnUse">
<stop stop-color="#D58ABB"/>
<stop offset="1" stop-color="#817FBC"/>
</linearGradient>
<linearGradient id="paint13_linear" x1="1070.38" y1="460.223" x2="1051.1" y2="426.236" gradientUnits="userSpaceOnUse">
<stop offset="0.421875" stop-color="#FDD4C1"/>
<stop offset="1" stop-color="#FB9CCB" stop-opacity="0.7"/>
</linearGradient>
<linearGradient id="paint14_linear" x1="1065.22" y1="443.141" x2="1058.87" y2="422.776" gradientUnits="userSpaceOnUse">
<stop offset="0.421875" stop-color="#FDD4C1"/>
<stop offset="1" stop-color="#FB9CCB" stop-opacity="0.7"/>
</linearGradient>
<linearGradient id="paint15_linear" x1="1127.95" y1="562.606" x2="1109.28" y2="476.077" gradientUnits="userSpaceOnUse">
<stop offset="0.421875" stop-color="#FDD4C1"/>
<stop offset="1" stop-color="#FB9CCB" stop-opacity="0.7"/>
</linearGradient>
<linearGradient id="paint16_linear" x1="1127.95" y1="528.076" x2="1086.72" y2="403.151" gradientUnits="userSpaceOnUse">
<stop offset="0.421875" stop-color="#FDD4C1"/>
<stop offset="1" stop-color="#FB9CCB" stop-opacity="0.7"/>
</linearGradient>
<linearGradient id="paint17_linear" x1="1005.65" y1="515.574" x2="972.014" y2="437.762" gradientUnits="userSpaceOnUse">
<stop stop-color="#D58ABB"/>
<stop offset="1" stop-color="#817FBC"/>
</linearGradient>
<clipPath id="clip0">
<rect width="1440" height="898" fill="white"/>
</clipPath>
</defs>
</svg>
