<svg width="1440" height="558" viewBox="0 0 1440 558" fill="none" xmlns="http://www.w3.org/2000/svg">
<path d="M-0.5 202C92.8333 252.667 220.8 311.6 406 246C591.2 180.4 718.167 261.167 765.5 284.5C849.5 325.908 886 379 972 379C1079 379 1261.5 326 1349 414C1412.79 478.151 1437.82 482.821 1440 472.047V468.5C1440.21 469.802 1440.21 470.998 1440 472.047V561.5H-0.5V202Z" fill="#E1EEFB"/>
<path d="M654.848 261.561L624.129 283.205L487.74 378.851C477.265 386.385 466.356 393.299 455.07 399.557C445.872 404.517 440.614 413.986 429.483 416.511C423.956 417.47 418.296 417.372 412.805 416.222C403.827 414.763 394.993 412.524 386.405 409.531C385.357 409.17 383.857 408.953 383.388 409.964C382.918 410.974 385.447 410.865 384.562 410.18C304.604 399.358 228.205 370.5 148.97 355.35C148.049 355.18 147.209 354.715 146.576 354.027C145.943 353.339 145.551 352.464 145.459 351.534C145.367 350.604 145.581 349.669 146.067 348.871C146.554 348.072 147.287 347.453 148.157 347.107C154.535 344.51 161.492 343.5 168.521 342.129C181.17 339.803 193.638 337.53 206.251 335.474C231.67 331.079 257.335 328.236 283.101 326.961C325.89 325.157 369.076 329.72 411.396 323.101C451.6 316.824 489.438 300.79 526.842 284.738C535.877 280.878 545.075 276.874 552.14 270.093C557.687 264.772 562.132 257.756 569.198 254.257C576.534 250.649 585.46 251.281 593.339 251.641C614.119 252.561 634.646 256.782 654.848 261.561Z" fill="url(#paint0_linear)"/>
<path d="M152.439 328.494L331.04 250.938C334.908 249 339.274 248.277 343.562 248.864L564.463 267.604C568.692 268.199 567.933 286.343 564.463 289.247L434.001 400.098C430.071 403.56 425.367 406.032 420.283 407.306C415.2 408.58 409.884 408.619 404.782 407.42L154.011 346.548C150.813 345.773 149.44 329.973 152.439 328.494Z" fill="#F39AC4"/>
<path d="M152.439 328.494L331.04 250.938C334.908 249 339.274 248.277 343.562 248.864L564.463 267.604C568.692 268.199 567.933 286.343 564.463 289.247L434.001 400.098C430.071 403.56 425.367 406.032 420.283 407.306C415.2 408.58 409.884 408.619 404.782 407.42L154.011 346.548C150.813 345.773 149.44 329.973 152.439 328.494Z" fill="#3D467F"/>
<path d="M564.518 276.387L434.055 387.238C430.129 390.706 425.426 393.183 420.341 394.46C415.257 395.737 409.94 395.778 404.836 394.579L154.012 333.688C150.813 332.913 150.398 327.863 153.379 326.366L222.116 287.642L240.186 277.505L295.136 246.682C299.004 244.743 303.37 244.02 307.658 244.607L562.295 266.72C566.524 267.225 567.933 273.483 564.518 276.387Z" fill="#F39AC4"/>
<path d="M307.639 250.65L540.395 285.009L468.748 343.085L229.886 294.838L307.639 250.65Z" fill="#FDECF4"/>
<path d="M283.282 309.231L379.195 328.584L329.594 368.967L229.886 346.638L283.282 309.231Z" fill="#E1EEFB"/>
<path d="M235.325 353.636C236.306 355.603 237.694 357.339 239.399 358.729C241.103 360.119 243.083 361.131 245.209 361.699C252.256 363.394 293.329 373.891 293.329 373.891C293.329 373.891 300.015 374.685 303.719 370.284L235.325 353.636Z" fill="url(#paint1_linear)"/>
<path d="M300.339 244.499L563.036 281.816C564.961 282.084 566.916 281.608 568.502 280.484C570.087 279.361 571.183 277.676 571.565 275.774L609.041 86.8805C609.443 84.8646 609.414 82.7868 608.957 80.7827C608.5 78.7786 607.624 76.8932 606.388 75.2493C605.152 73.6054 603.583 72.24 601.783 71.2421C599.983 70.2441 597.992 69.6361 595.941 69.4575L336.515 46.7499C332.697 46.416 328.899 47.5885 325.937 50.016C322.975 52.4435 321.083 55.9329 320.668 59.736L300.339 244.499Z" fill="#F39AC4"/>
<path d="M300.339 244.499L562.349 281.708C564.466 282.007 566.617 281.486 568.361 280.252C570.105 279.017 571.31 277.163 571.727 275.071L609.041 86.8805C609.443 84.8646 609.414 82.7868 608.957 80.7827C608.5 78.7786 607.624 76.8932 606.388 75.2493C605.152 73.6054 603.583 72.24 601.783 71.2421C599.983 70.2441 597.992 69.6361 595.941 69.4575L336.515 46.7499C332.697 46.416 328.899 47.5885 325.937 50.016C322.975 52.4435 321.083 55.9329 320.668 59.736L300.339 244.499Z" fill="#3D467F"/>
<path d="M558.284 270.958L595.598 80.3694L331.04 55.9845L310.007 236.437L558.284 270.958Z" fill="white"/>
<path d="M536.528 115.017L350.971 95.7363L355.181 72.2892L540.792 91.5699C542.361 91.6715 543.891 92.1008 545.282 92.8301C546.674 93.5594 547.897 94.5724 548.871 95.8035C549.846 97.0346 550.55 98.4563 550.939 99.9765C551.328 101.497 551.392 103.081 551.128 104.628C550.416 107.857 548.528 110.708 545.831 112.627C543.134 114.547 539.818 115.398 536.528 115.017Z" fill="#F39AC4"/>
<path opacity="0.56" d="M350.971 95.7363L500.858 111.338L505.069 87.8184L355.181 72.199L350.971 95.7363Z" fill="#5B5B5B"/>
<path d="M527.51 105.864C530.68 104.627 532.327 101.27 531.189 98.3662C530.051 95.4625 526.56 94.1116 523.39 95.3487C520.221 96.5859 518.574 99.9428 519.712 102.846C520.85 105.75 524.341 107.101 527.51 105.864Z" stroke="#5B5B5B" stroke-width="1.04" stroke-miterlimit="10"/>
<path d="M529.3 110.364C529.174 110.057 527.602 105.782 527.602 105.782" stroke="#5B5B5B" stroke-width="1.04" stroke-miterlimit="10"/>
<path opacity="0.18" d="M534.739 148.961L345.369 128.725L346.363 125.622L535.715 145.859L534.739 148.961Z" fill="#F39AC4"/>
<path opacity="0.18" d="M412.697 124.143L348.748 116.586L350.049 111.031L414.016 117.993L412.697 124.143Z" fill="#F39AC4"/>
<path opacity="0.18" d="M532.39 161.46L343.02 141.224L343.996 138.121L533.366 158.358L532.39 161.46Z" fill="#F39AC4"/>
<g opacity="0.66">
<path opacity="0.18" d="M402.524 174.068L338.575 166.529L339.876 160.955L403.843 167.917L402.524 174.068Z" fill="#F39AC4"/>
<path opacity="0.18" d="M524.06 200.004L334.69 179.767L335.684 176.647L525.054 196.902L524.06 200.004Z" fill="#F39AC4"/>
<path opacity="0.18" d="M519.742 214.469L330.372 194.232L331.365 191.13L520.717 211.367L519.742 214.469Z" fill="#F39AC4"/>
</g>
<path opacity="0.18" d="M516.073 245.726L326.902 221.07L327.878 217.986L517.049 242.641L516.073 245.726Z" fill="#F39AC4"/>
<path d="M411.106 227.509C411.106 227.509 217.58 291.466 191.126 234.056C164.673 176.647 309.537 160.919 309.537 160.919C309.537 160.919 140.26 177.747 178.243 248.666C216.225 319.584 422.653 249.459 422.653 249.459L411.106 227.509Z" fill="#5B5B5B"/>
<path d="M411.558 224.858C411.639 227.485 412.359 230.054 413.654 232.343L418.425 242.515C419.442 245.046 420.87 247.392 422.653 249.459C424.05 250.867 425.759 251.928 427.642 252.555C429.526 253.181 431.531 253.357 433.495 253.066C434.421 253.006 435.316 252.708 436.095 252.203C436.873 251.698 437.508 251.001 437.94 250.181C438.753 248.07 437.38 245.816 436.277 243.85C433.314 238.565 432.049 232.541 430.64 226.661C429.555 222.08 427.351 215.623 421.749 214.974C416.798 214.397 411.847 220.042 411.558 224.858Z" fill="#F39AC4"/>
<path d="M460.165 201.158C460.165 201.158 419.22 163.769 379.195 201.158C379.195 201.158 410.131 197.172 419.671 214.18L460.165 201.158Z" fill="#F39AC4"/>
<path d="M476.898 235.337C476.898 235.337 474.946 290.708 420.177 293.053C420.177 293.053 444.698 273.808 439.223 255.086L476.898 235.337Z" fill="#F39AC4"/>
<path d="M419.671 214.216C419.671 214.216 548.779 140.268 621.365 152.1C621.365 152.1 604.958 205.342 439.169 255.086L419.671 214.216Z" fill="#5B5B5B"/>
<path d="M621.455 152.063C621.455 152.063 605.048 205.306 439.259 255.05L433.35 242.659L419.671 214.216C419.671 214.216 534.269 148.492 608.228 150.837C612.659 150.957 617.078 151.367 621.455 152.063Z" fill="url(#paint2_linear)"/>
<path d="M621.455 152.063C609.981 167.088 570.372 194.773 488.95 224.299C484.349 225.982 479.608 227.665 474.73 229.349C461.9 233.774 448.107 238.211 433.35 242.659L419.689 214.216C419.689 214.216 433.802 205.757 455.377 195.008C466.761 189.326 480.223 183.014 494.787 176.971C535.426 160.108 584.683 145.228 621.455 152.063Z" fill="#5B5B5B"/>
<path d="M521.964 179.677C515.079 182.545 507.345 182.076 499.901 182.563C497.688 182.651 495.492 182.996 493.359 183.591C489.149 185.217 485.309 187.67 482.066 190.805C481.625 191.107 481.296 191.544 481.126 192.05C481.077 192.575 481.204 193.101 481.488 193.547C483.136 196.9 485.032 200.125 487.161 203.196C489.691 206.803 492.673 210.645 492.582 215.082C492.326 218.48 491.004 221.71 488.806 224.317L488.264 225.074C485.657 228.578 482.826 231.909 479.789 235.048C477.548 237.357 478.994 244.409 473.573 242.714C468.857 241.253 471.152 235.661 472.76 232.721L474.567 229.367L477.603 223.757C479.916 219.519 482.265 214.487 480.313 210.068C478.94 206.984 475.778 205.126 472.814 203.467C467.222 200.158 461.358 197.328 455.287 195.008C466.67 189.326 480.132 183.014 494.697 176.971C504.204 177.768 513.756 177.907 523.283 177.386C524.078 178.144 522.957 179.262 521.964 179.677Z" fill="url(#paint3_linear)"/>
<path d="M505.882 211.529C514.085 211.529 520.735 204.891 520.735 196.703C520.735 188.515 514.085 181.877 505.882 181.877C497.678 181.877 491.028 188.515 491.028 196.703C491.028 204.891 497.678 211.529 505.882 211.529Z" fill="#F39AC4"/>
<path d="M505.882 206.298C511.47 206.298 516.001 201.776 516.001 196.198C516.001 190.62 511.47 186.098 505.882 186.098C500.293 186.098 495.763 190.62 495.763 196.198C495.763 201.776 500.293 206.298 505.882 206.298Z" fill="url(#paint4_linear)"/>
<path d="M483.674 164.418C483.674 164.508 481.542 164.148 481.596 164.256C482.084 164.829 482.704 165.275 483.403 165.555C485.96 166.585 488.579 167.452 491.245 168.152C493.902 168.422 495.185 165.915 496.016 163.805C496.684 162.11 497.371 160.414 498.076 158.737C498.616 157.658 498.959 156.491 499.088 155.292C499.114 155.017 499.077 154.739 498.979 154.48C498.807 154.148 498.517 153.891 498.166 153.759C497.633 153.542 497.037 153.542 496.504 153.759C495.528 154.174 495.076 155.274 494.588 156.212C493.45 158.358 491.661 160.108 490.685 162.326C489.955 162.372 489.236 162.132 488.679 161.659L485.517 159.603C485.365 159.482 485.185 159.401 484.993 159.368C484.837 159.36 484.681 159.391 484.54 159.457C484.398 159.523 484.274 159.622 484.18 159.747C483.612 160.432 483.271 161.277 483.204 162.164C483.114 162.616 483.114 163.082 483.204 163.534C483.317 163.85 483.476 164.148 483.674 164.418Z" fill="#F39AC4"/>
<path d="M486.114 159.512L487.234 160.198C487.397 160.198 487.559 160.378 487.613 160.559C487.65 160.688 487.65 160.826 487.613 160.955L486.873 164.238C486.647 165.707 486.118 167.114 485.319 168.368C484.885 168.963 481.705 166.763 481.162 166.474C479.81 165.578 478.629 164.448 477.675 163.138C477.234 162.604 476.897 161.992 476.681 161.334C476.355 159.67 476.61 157.945 477.404 156.446C478.669 153.975 480.801 155.202 482.409 156.717C483.554 157.762 484.794 158.698 486.114 159.512Z" fill="#F39AC4"/>
<path d="M465.713 241.433C465.768 241.669 465.894 241.883 466.074 242.046C468.651 244.554 471.721 246.501 475.091 247.764C475.296 247.878 475.525 247.94 475.76 247.944C475.984 247.897 476.184 247.771 476.324 247.589C476.463 247.407 476.532 247.181 476.518 246.952C476.473 246.495 476.305 246.059 476.031 245.69C475.368 244.642 474.625 243.647 473.808 242.714C473.047 242.086 472.561 241.186 472.453 240.207C472.524 239.719 472.651 239.24 472.832 238.782C473.374 236.744 469.977 236.329 468.55 236.816C467.743 237.304 467.064 237.978 466.571 238.781C466.077 239.584 465.783 240.493 465.713 241.433Z" fill="#F39AC4"/>
<path d="M457.401 184.15C457.401 184.15 451.239 192.735 457.582 200.383C461.973 205.685 468.568 209.292 474.64 212.322C475.706 212.864 476.971 213.296 478 213.946C480.006 215.208 478.777 216.272 477.711 217.95C475.037 222.242 472.339 226.505 469.616 230.737C468.043 232.88 466.963 235.344 466.454 237.952L473.339 240.044C477.048 233.733 481.279 227.742 485.987 222.134C488.029 219.717 490.667 216.723 490.288 213.369C489.812 210.263 488.444 207.362 486.349 205.018L473.465 190.084L457.401 184.15Z" fill="#5B5B5B"/>
<path d="M487.324 143.117C487.541 143.749 488.155 144.254 488.246 144.921C488.336 145.588 487.65 146.382 487.198 147.122C486.746 147.861 486.439 149.286 485.824 150.278C485.715 150.496 485.537 150.673 485.319 150.783C485.122 150.854 484.914 150.891 484.704 150.891C483.883 150.868 483.069 150.734 482.283 150.494C482.143 150.406 481.977 150.367 481.813 150.386C481.676 150.467 481.573 150.595 481.524 150.747C480.605 152.644 480.165 154.737 480.241 156.843C480.241 157.528 480.241 158.394 479.681 158.737C479.478 158.87 479.237 158.933 478.994 158.917C477.404 158.917 476.193 157.492 475.38 156.086C474.715 154.821 474.2 153.483 473.844 152.1C473.715 151.698 473.666 151.275 473.7 150.855C473.784 150.366 473.955 149.895 474.206 149.466C475.008 147.903 475.655 146.266 476.139 144.578C476.56 142.367 477.316 140.232 478.38 138.248C478.793 137.617 479.393 137.132 480.096 136.859C480.9 136.684 481.737 136.727 482.518 136.985C484.15 137.246 485.619 138.125 486.62 139.438C486.927 139.907 487.071 142.306 487.324 143.117Z" fill="#F39AC4"/>
<path d="M471.477 191.202C470.097 191.422 468.685 191.342 467.339 190.968C465.365 190.573 463.346 190.458 461.34 190.625C460.148 190.923 458.982 191.315 457.852 191.797C456.936 192.043 455.977 192.089 455.041 191.93C454.105 191.771 453.215 191.412 452.432 190.877C452.432 190.607 452.432 190.318 452.432 190.048C452.703 187.631 451.691 184.204 452.432 181.877C455.088 172.589 457.346 165.645 462.641 157.673C464.159 155.382 470.14 152.442 472.597 151.216C473.156 150.916 473.772 150.738 474.404 150.693C475.132 150.722 475.843 150.92 476.482 151.27C478.669 152.334 479.518 154.318 480.584 156.374C481.826 158.469 482.671 160.774 483.078 163.174C483.349 166.276 484.451 169.18 482.68 172.066C480.241 176.124 476.193 178.865 473.934 183.248C473.534 183.881 473.309 184.61 473.284 185.358C473.284 186.404 474.025 187.36 474.025 188.406C473.951 189.082 473.664 189.716 473.207 190.218C472.749 190.72 472.143 191.065 471.477 191.202Z" fill="#F39AC4"/>
<path d="M485.409 176.575C486.276 176.971 487.216 177.314 487.957 177.603C492.203 178.953 496.606 179.754 501.057 179.984C506.656 180.689 512.314 180.792 517.934 180.29C520.23 180.114 522.455 179.417 524.439 178.252C525.018 177.873 525.614 177.188 525.325 176.557C525.157 176.275 524.904 176.054 524.602 175.925C522.432 174.783 519.984 174.27 517.537 174.446C517.537 173.599 517.32 172.517 516.489 172.444C515.657 172.372 515.17 173.509 514.682 174.248C513.598 176.052 511.068 176.25 509.044 176.232C504.366 176.301 499.697 175.822 495.13 174.807C492.841 174.262 490.622 173.457 488.517 172.408C487.162 171.723 484.433 168.891 483.096 170.406C481.759 171.921 480.512 172.931 482.319 174.537C483.24 175.368 484.281 176.056 485.409 176.575Z" fill="#F39AC4"/>
<path d="M478.361 159.17C478.361 159.17 485.445 169.144 486.475 169.739C487.505 170.334 480.114 177.585 480.114 177.585C480.114 177.585 471.549 168.332 470.555 163.607C469.561 158.881 473.988 155.635 478.361 159.17Z" fill="#F39AC4"/>
<path d="M486.565 138.464C486.261 138.879 485.875 139.228 485.43 139.488C484.986 139.749 484.493 139.916 483.982 139.979C483.091 140.121 482.191 140.199 481.289 140.214C481.289 140.214 481.127 140.214 481.072 140.214C481.04 140.25 481.015 140.293 480.999 140.34C480.984 140.386 480.978 140.435 480.982 140.484C480.944 141.177 480.764 141.854 480.453 142.475C480.143 143.095 479.707 143.646 479.175 144.091C479.035 144.179 478.922 144.304 478.85 144.452C478.777 144.662 478.777 144.891 478.85 145.101C478.976 145.823 478.976 146.562 478.85 147.284C478.747 148.017 478.404 148.696 477.874 149.214C477.742 149.305 477.646 149.439 477.603 149.592C477.602 149.726 477.64 149.858 477.711 149.971C477.96 150.725 477.908 151.545 477.567 152.262C476.887 151.741 476.1 151.378 475.263 151.197C474.426 151.016 473.559 151.022 472.724 151.216C472.217 151.259 471.736 151.461 471.351 151.793C468.93 154.336 466.942 157.348 464.394 159.801C463.31 160.847 462.099 161.767 461.087 162.903C459.561 164.761 458.342 166.849 457.473 169.09C456.811 170.846 455.931 172.512 454.853 174.05C454.312 174.814 453.624 175.464 452.831 175.962C452.037 176.461 451.152 176.797 450.227 176.953C449.352 177.025 448.471 176.915 447.641 176.629C446.81 176.344 446.048 175.889 445.403 175.294C444.275 174.262 443.47 172.926 443.085 171.448C442.7 169.969 442.752 168.411 443.234 166.961C443.47 166.512 443.534 165.993 443.415 165.5C443.275 165.228 443.077 164.988 442.837 164.797C441.729 163.645 441.111 162.11 441.111 160.513C441.111 158.917 441.729 157.382 442.837 156.23C444.048 155.094 446.957 153.993 447.119 152.118C447.282 150.242 445.602 148.384 446.288 146.22C446.537 145.562 446.897 144.951 447.354 144.416C448.225 143.139 449.407 142.102 450.788 141.404C452.185 140.934 453.65 140.696 455.124 140.701C459.859 140.376 464.81 138.897 467.936 135.29C468.639 134.355 469.412 133.475 470.249 132.656C471.229 131.9 472.345 131.336 473.537 130.997C476.404 129.902 479.567 129.858 482.464 130.871C483.47 131.29 484.369 131.932 485.091 132.747C485.814 133.562 486.343 134.53 486.638 135.578C486.833 136.037 486.928 136.531 486.915 137.029C486.903 137.527 486.784 138.016 486.565 138.464Z" fill="#FC682D"/>
<path d="M486.041 146.274C485.346 146.25 484.652 146.19 483.963 146.093C483.764 146.472 484.668 147.897 484.866 148.005C484.962 148.088 485.084 148.133 485.21 148.133C485.336 148.133 485.458 148.088 485.553 148.005C485.633 147.892 485.688 147.763 485.716 147.627L486.041 146.256" fill="#5B5B5B"/>
<path d="M484.415 143.208C484.715 143.208 484.957 142.965 484.957 142.667C484.957 142.368 484.715 142.126 484.415 142.126C484.116 142.126 483.873 142.368 483.873 142.667C483.873 142.965 484.116 143.208 484.415 143.208Z" fill="#231F20"/>
<path d="M497.323 149.487L496.542 149.339C496.052 149.246 495.579 149.567 495.486 150.056L494.492 155.265C494.399 155.754 494.721 156.227 495.211 156.32L495.992 156.468C496.482 156.561 496.955 156.24 497.048 155.751L498.042 150.542C498.135 150.053 497.814 149.58 497.323 149.487Z" fill="#F39AC4"/>
<path d="M495.745 149.917C495.27 149.967 494.818 150.147 494.439 150.437C494.06 150.726 493.767 151.114 493.594 151.558C493.445 152.137 493.475 152.747 493.682 153.308C493.889 153.868 494.261 154.353 494.751 154.697C495.745 155.362 496.886 155.777 498.076 155.905C498.249 155.965 498.435 155.983 498.617 155.957C498.799 155.932 498.972 155.865 499.124 155.761C499.279 155.59 499.38 155.376 499.413 155.148C499.697 154.344 499.814 153.491 499.756 152.641C499.508 151.792 498.972 151.057 498.24 150.56C497.508 150.063 496.626 149.836 495.745 149.917Z" fill="#F39AC4"/>
<path d="M492.456 146.039L492.276 148.095C492.216 148.368 492.266 148.653 492.414 148.889C492.563 149.125 492.799 149.294 493.071 149.358C496.534 149.6 499.922 150.481 503.063 151.955C504.767 152.912 506.387 154.01 507.906 155.238C508.52 155.725 509.406 155.238 509.55 154.192L511.158 143.37C511.303 142.414 510.616 141.747 509.894 142.107C506.876 143.641 500.1 146.454 493.83 144.723C493.161 144.56 492.529 145.192 492.456 146.039Z" fill="#F39AC4"/>
<path d="M466.147 239.215C465.281 239.77 464.641 240.614 464.34 241.595C464.24 241.9 464.24 242.228 464.34 242.533C464.467 242.805 464.659 243.04 464.9 243.219C467.789 245.788 471.04 247.921 474.549 249.549C474.994 249.777 475.479 249.918 475.977 249.964C476.223 249.992 476.473 249.955 476.701 249.857C476.93 249.759 477.128 249.603 477.278 249.405C477.449 249.116 477.537 248.785 477.531 248.449C477.55 247.83 477.444 247.213 477.219 246.636C476.994 246.059 476.654 245.533 476.221 245.09C475.787 244.647 475.268 244.296 474.695 244.058C474.122 243.82 473.507 243.7 472.887 243.706C472.442 243.742 471.994 243.742 471.549 243.706C471.133 243.6 470.741 243.416 470.393 243.164C469.444 242.612 468.548 241.972 467.719 241.253C467.159 240.601 466.634 239.921 466.147 239.215Z" fill="#5B5B5B"/>
<defs>
<linearGradient id="paint0_linear" x1="-125.418" y1="-84.8965" x2="1229.52" y2="930.352" gradientUnits="userSpaceOnUse">
<stop offset="0.01"/>
<stop offset="0.08" stop-opacity="0.69"/>
<stop offset="0.21" stop-opacity="0.32"/>
<stop offset="1" stop-opacity="0"/>
</linearGradient>
<linearGradient id="paint1_linear" x1="9854.2" y1="5036.41" x2="9720.05" y2="6198.54" gradientUnits="userSpaceOnUse">
<stop offset="0.01"/>
<stop offset="0.08" stop-opacity="0.69"/>
<stop offset="0.21" stop-opacity="0.32"/>
<stop offset="1" stop-opacity="0"/>
</linearGradient>
<linearGradient id="paint2_linear" x1="54978" y1="12604.3" x2="56306.5" y2="25186.5" gradientUnits="userSpaceOnUse">
<stop offset="0.01"/>
<stop offset="0.08" stop-opacity="0.69"/>
<stop offset="0.21" stop-opacity="0.32"/>
<stop offset="1" stop-opacity="0"/>
</linearGradient>
<linearGradient id="paint3_linear" x1="15161.1" y1="10785.5" x2="24255.8" y2="10057.2" gradientUnits="userSpaceOnUse">
<stop offset="0.01"/>
<stop offset="0.08" stop-opacity="0.69"/>
<stop offset="0.21" stop-opacity="0.32"/>
<stop offset="1" stop-opacity="0"/>
</linearGradient>
<linearGradient id="paint4_linear" x1="4723.91" y1="1792.04" x2="7181.7" y2="3950.35" gradientUnits="userSpaceOnUse">
<stop offset="0.01"/>
<stop offset="0.08" stop-opacity="0.69"/>
<stop offset="0.21" stop-opacity="0.32"/>
<stop offset="1" stop-opacity="0"/>
</linearGradient>
</defs>
</svg>
