<svg width="1440" height="900" viewBox="0 0 1440 900" fill="none" xmlns="http://www.w3.org/2000/svg">
<g filter="url(#filter0_d)">
<path d="M-146 307.63C-146 307.63 49.31 481.39 339.47 343.15C629.63 204.91 851.47 70.51 1084.69 201.07C1317.91 331.63 1493.34 167.47 1493.34 167.47V-19.25H-146V307.63Z" fill="url(#paint0_linear)"/>
</g>
<g filter="url(#filter1_d)">
<path d="M489.9 227.48C761.4 118.95 943.97 14.99 1145.9 157.19C1342.17 295.43 1529.81 141.63 1529.81 141.63L1545.56 -43.92L16 -177C16 -177 107.86 380.2 489.9 227.48Z" fill="url(#paint1_linear)"/>
</g>
<g filter="url(#filter2_d)">
<path d="M809.387 813.1L1090.51 975.407C1092.39 976.502 1094.54 977.079 1096.72 977.079C1098.9 977.079 1101.04 976.502 1102.93 975.407L1495.37 746.579C1497.24 745.49 1498.8 743.929 1499.87 742.052C1500.95 740.175 1501.52 738.047 1501.52 735.882C1501.52 733.717 1500.95 731.59 1499.87 729.713C1498.8 727.836 1497.24 726.275 1495.37 725.185L1208.41 558.444C1206.53 557.353 1204.39 556.779 1202.21 556.779C1200.04 556.779 1197.9 557.353 1196.02 558.444L801.01 787.296C799.099 788.407 797.52 790.011 796.438 791.939C795.356 793.868 794.81 796.052 794.857 798.264C794.905 800.475 795.543 802.633 796.707 804.514C797.87 806.395 799.516 807.929 801.473 808.958L809.387 813.1Z" fill="url(#paint2_linear)"/>
<path d="M1092.92 932.132L1270.16 832.984L1183.16 784.664L1028.07 887.906C1043.46 897.263 1077.8 922.36 1092.92 932.132Z" fill="url(#paint3_linear)"/>
<path d="M1298.97 450.305C1298.97 450.305 1308.17 457.274 1311.46 464.925C1314.75 472.576 1314.94 473.015 1320.54 476.767C1326.14 480.52 1324.22 484.077 1322.47 488.683C1320.71 493.288 1319.18 494.068 1323.24 498.112C1327.31 502.157 1331.74 505.081 1328.65 509.346C1325.56 513.61 1322.98 514.365 1326.22 519.092C1329.45 523.819 1333.52 526.256 1331.48 530.691C1331.48 530.691 1296.68 536.88 1273.28 529.326C1249.88 521.772 1262.69 506.69 1263.25 506.105C1263.81 505.52 1275.06 473.795 1275.06 473.795" fill="#3D467F"/>
<path d="M1221.27 844.338L1331.82 778.305L1287.33 751.989L1169.4 815.805C1184.79 825.162 1206.15 834.567 1221.27 844.338Z" fill="url(#paint4_linear)"/>
<path d="M1324.93 741.487C1324.93 741.487 1311.65 749.284 1305.45 745.678C1305.45 745.678 1308.9 772.481 1303.3 775.697C1297.7 778.914 1289.25 785.639 1291.86 787.369C1294.46 789.099 1295.1 791.048 1302.89 788.88C1307.93 787.396 1312.82 785.438 1317.5 783.032C1317.5 783.032 1318.98 768.412 1321.81 769.192C1324.63 769.971 1323.98 781.74 1323.98 781.74L1331.55 778.573L1324.93 741.487Z" fill="#D5C1FC"/>
<path d="M1301.55 729.718C1301.55 729.718 1288.28 737.515 1282.07 733.909C1282.07 733.909 1285.53 760.712 1279.93 763.928C1274.33 767.145 1265.88 773.87 1268.48 775.6C1271.09 777.33 1271.72 779.279 1279.51 777.111C1284.56 775.627 1289.45 773.669 1294.12 771.263C1294.12 771.263 1295.61 756.643 1298.43 757.422C1301.26 758.202 1300.6 769.971 1300.6 769.971L1308.17 766.804L1301.55 729.718Z" fill="#D5C1FC"/>
<path d="M1263.03 563.074C1263.03 563.074 1262.08 613.196 1262.61 636.832C1263.15 660.467 1275.93 735.249 1275.93 735.249C1275.93 735.249 1280.36 743.168 1301.26 736.175L1304.18 751.355C1304.18 751.355 1330.4 758.373 1345.21 742.242C1345.21 742.242 1336.05 628.157 1334.57 615.535C1331.62 591.169 1315.09 560.467 1315.09 560.467" fill="#F39AC4"/>
<path opacity="0.63" d="M1287.72 586.271C1287.6 584.346 1284.58 584.346 1284.72 586.271C1288.21 636.45 1293.72 686.418 1301.23 736.175C1301.52 738.075 1304.42 737.271 1304.13 735.371C1296.66 685.841 1291.19 636.141 1287.72 586.271Z" fill="black"/>
<path d="M891.885 815.586L1028.05 734.956L974.894 683.786L831.57 771.945C845.644 780.473 872.137 803.232 891.885 815.586Z" fill="url(#paint5_linear)"/>
<path d="M1029.27 579.765V538.732C1029.27 529.277 1028.07 518.337 1030.53 509.053C1033.43 498.112 1047.21 483.346 1059.34 492.142C1065.48 496.602 1065.72 505.788 1065.79 512.684C1065.91 527.304 1065.79 542.143 1065.79 556.86C1065.79 557.83 1066.18 558.759 1066.86 559.445C1067.55 560.13 1068.48 560.515 1069.44 560.515C1070.41 560.515 1071.34 560.13 1072.03 559.445C1072.71 558.759 1073.1 557.83 1073.1 556.86C1073.1 539.804 1074.92 521.577 1072.68 504.545C1070 484.175 1050.28 475.524 1033.72 489.681C1022.6 499.209 1021.96 513.634 1021.96 527.133V579.765C1021.96 580.734 1022.35 581.664 1023.03 582.349C1023.72 583.035 1024.65 583.42 1025.61 583.42C1026.58 583.42 1027.51 583.035 1028.2 582.349C1028.88 581.664 1029.27 580.734 1029.27 579.765Z" fill="#D5C1FC"/>
<path d="M987.848 556.665L1091.51 497.138L1125.28 513.025L1028.39 593.021L987.848 556.665Z" fill="#F39AC4"/>
<path opacity="0.63" d="M987.848 556.665L1091.51 497.138L1125.28 513.025L1028.39 593.021L987.848 556.665Z" fill="black"/>
<path d="M1031.07 573.064C1034.09 571.261 1125.5 513.488 1125.5 513.488L1155.57 665.17L1028.05 734.981L1031.07 573.064Z" fill="#F39AC4"/>
<path d="M1031.07 573.064L987.775 556.203L967.004 710.736L1028.07 734.956" fill="#F39AC4"/>
<path opacity="0.22" d="M1031.07 573.064L987.775 556.203L967.004 710.736L1028.07 734.956" fill="black"/>
<path d="M1061.75 589.195V548.162C1061.75 538.707 1060.56 527.767 1063.02 518.483C1065.91 507.542 1079.7 492.776 1091.82 501.573C1097.96 506.032 1098.2 515.218 1098.28 522.114C1098.4 536.734 1098.28 551.573 1098.28 566.29C1098.28 567.26 1098.66 568.189 1099.35 568.875C1100.03 569.56 1100.96 569.945 1101.93 569.945C1102.9 569.945 1103.83 569.56 1104.51 568.875C1105.2 568.189 1105.58 567.26 1105.58 566.29C1105.58 549.234 1107.41 531.007 1105.17 513.975C1102.49 493.605 1082.76 484.954 1066.21 499.111C1055.08 508.639 1054.45 523.064 1054.45 536.563V589.195C1054.45 590.164 1054.83 591.094 1055.52 591.78C1056.2 592.465 1057.13 592.85 1058.1 592.85C1059.07 592.85 1060 592.465 1060.68 591.78C1061.37 591.094 1061.75 590.164 1061.75 589.195Z" fill="#D5C1FC"/>
<path d="M949.448 775.186V718.265L1000.36 689.805V746.36L949.448 775.186Z" fill="#3D467F"/>
<path d="M949.448 718.265L899.92 689.781C899.92 689.781 898.532 747.164 899.92 748.09C901.308 749.016 949.472 775.186 949.472 775.186L949.448 718.265Z" fill="#3D467F"/>
<path d="M899.92 689.781L949.448 659.493L1000.39 689.781L949.448 718.265L899.92 689.781Z" fill="#F39AC4"/>
<path d="M918.767 678.255L970.365 706.569V736.272L985.194 728.792V698.285L933.62 669.167L918.767 678.255Z" fill="#F3B496"/>
<path d="M1279.2 677.402L1177.46 739.464L1121.46 773.578C1119.15 774.628 1116.99 775.954 1115 777.525C1112.01 780.79 1113.32 775.429 1116.29 778.646C1111.77 773.773 1102.17 770.337 1096.47 766.974L1036.65 731.74V738.051L1137.84 665.268L1167.48 644.02C1172.52 640.389 1180.8 636.491 1184.72 631.617C1187.66 627.938 1187.15 633.128 1183.45 629.96C1185.21 631.163 1187.06 632.206 1189 633.079L1218.76 649.771L1279.22 683.713C1283.34 686.028 1287.01 679.717 1282.9 677.402L1187.08 623.625C1186.52 623.295 1185.89 623.121 1185.24 623.121C1184.59 623.121 1183.96 623.295 1183.4 623.625L1032.97 731.74C1032.43 732.071 1031.98 732.535 1031.68 733.088C1031.37 733.64 1031.21 734.263 1031.21 734.896C1031.21 735.528 1031.37 736.151 1031.68 736.703C1031.98 737.256 1032.43 737.72 1032.97 738.051L1112.89 785.079C1113.44 785.404 1114.08 785.575 1114.72 785.575C1115.37 785.575 1116 785.404 1116.56 785.079L1282.9 683.64C1286.89 681.277 1283.24 674.941 1279.2 677.402Z" fill="#42210B"/>
<path d="M1114.52 779.352L1117.95 853.232" stroke="#42210B" stroke-miterlimit="10"/>
<path d="M1034.97 738.1L1043.49 787.54C1045.17 797.286 1044 814.002 1052.98 819.655C1069.88 830.303 1087.98 839.343 1105.39 849.139C1109.16 851.258 1114.39 855.815 1118.92 855.547C1121.36 855.401 1124.5 853.11 1126.55 852.184L1237.8 802.696L1259.57 792.949C1262 791.877 1266.49 790.853 1268.41 789.026C1271.01 786.589 1270.84 782.423 1271.38 778.963L1275.76 751.599C1279.22 730.034 1282.41 708.397 1286.11 686.857C1287.18 680.667 1288.55 674.673 1290.03 668.46C1291.52 662.246 1290.03 664.464 1294.15 659.785L1303.62 649.137C1304.01 648.738 1304.3 648.256 1304.48 647.728C1304.65 647.2 1304.71 646.638 1304.64 646.085C1304.57 645.533 1304.38 645.003 1304.07 644.536C1303.77 644.068 1303.36 643.676 1302.89 643.386L1254.31 618.606L1221.97 602.036C1218.08 600.038 1211.6 594.726 1207.07 594.483C1201.76 594.068 1189.39 602.548 1185.96 606.3C1181.8 610.857 1182.11 620.774 1181.53 626.866C1179.77 644.532 1179.39 662.466 1178.34 680.204L1174.56 743.29C1174.27 747.993 1181.58 747.968 1181.87 743.29L1188.57 632.348C1188.93 626.11 1189.9 622.602 1190.51 615.682C1190.51 614.658 1191.83 609.639 1190.51 611.71C1189.2 613.781 1192.95 610.516 1194.07 609.858C1198.21 607.251 1203.81 604.985 1207.34 601.549C1205.49 603.303 1203.05 599.697 1207.34 602.67C1210.39 604.508 1213.56 606.136 1216.84 607.543L1246.42 622.699L1299.24 649.771L1298.51 644.02C1294.24 648.893 1287.77 653.767 1284.8 659.517C1281.83 665.268 1281 674.698 1279.71 681.447C1277.27 694.337 1275.52 707.446 1273.45 720.434L1264.05 778.378C1263.83 780.374 1263.52 782.359 1263.1 784.323C1262.88 785.176 1266.24 782.325 1263.39 783.349C1258.89 784.957 1254.55 787.296 1250.19 789.221L1139.87 838.368L1121.58 846.507C1120.06 846.919 1118.62 847.56 1117.29 848.408C1115.66 850.162 1119.87 849.943 1118.85 848.286C1116.27 843.997 1103.51 839.66 1099.37 837.248L1070.78 821.166L1058.49 814.245C1057.34 813.588 1056.05 812.978 1055.03 812.296C1053.01 811.102 1055.3 812.686 1055.61 813.636C1053.42 807.033 1053.18 799.016 1051.94 792.291L1042.2 736.248C1041.39 731.618 1034.36 733.592 1035.16 738.197L1034.97 738.1Z" fill="#42210B"/>
<path d="M1212.09 594.312C1212.09 594.312 1203.2 597.333 1206.49 607.811L1278.66 642.826C1278.66 642.826 1290.13 642.387 1290.27 631.496L1212.09 594.312Z" fill="#A27CEF"/>
<path d="M1061.29 880.62C1065.43 880.62 1068.79 877.064 1068.79 872.677C1068.79 868.29 1065.43 864.733 1061.29 864.733C1057.15 864.733 1053.79 868.29 1053.79 872.677C1053.79 877.064 1057.15 880.62 1061.29 880.62Z" fill="#42210B"/>
<path d="M1117.95 906.668C1122.09 906.668 1125.45 903.112 1125.45 898.725C1125.45 894.338 1122.09 890.781 1117.95 890.781C1113.81 890.781 1110.45 894.338 1110.45 898.725C1110.45 903.112 1113.81 906.668 1117.95 906.668Z" fill="#42210B"/>
<path d="M1262.64 840.927C1266.78 840.927 1270.14 837.371 1270.14 832.984C1270.14 828.596 1266.78 825.04 1262.64 825.04C1258.5 825.04 1255.14 828.596 1255.14 832.984C1255.14 837.371 1258.5 840.927 1262.64 840.927Z" fill="#42210B"/>
<path d="M1059.27 749.357L1066.96 823.359" stroke="#42210B" stroke-miterlimit="10"/>
<path d="M1270.14 760.59C1270.14 760.59 1116.73 829.962 1116.88 830.839L1047.48 789.416L1180.04 712.831L1270.14 760.541" stroke="#42210B" stroke-miterlimit="10"/>
<path d="M1145.12 766.852L1147.75 838.783" stroke="#42210B" stroke-miterlimit="10"/>
<path d="M1174.73 749.357L1176.37 826.063" stroke="#42210B" stroke-miterlimit="10"/>
<path d="M1212.62 725.015L1207.7 812.126" stroke="#42210B" stroke-miterlimit="10"/>
<path d="M1249.37 702.524L1239.09 798.164" stroke="#42210B" stroke-miterlimit="10"/>
<path d="M1276.22 722.286L1183.28 674.064C1183.28 674.064 1042.46 760.151 1042.46 760.59L1117.15 804.45L1275.66 729.303" stroke="#42210B" stroke-miterlimit="10"/>
<path d="M1051.86 814.855L1178.24 743.265L1266.58 785.931L1265.07 818.266L1117.95 887.906L1062.58 859.738L1095.04 839.148L1089.14 766.95" stroke="#42210B" stroke-miterlimit="10"/>
<path d="M1217.57 644.922C1217.32 647.066 1205.76 756.545 1205.76 756.545" stroke="#42210B" stroke-miterlimit="10"/>
<path d="M1253.87 665.316L1240.45 773.31" stroke="#42210B" stroke-miterlimit="10"/>
<path d="M1152.62 653.401C1152.62 655.058 1154.79 756.545 1154.79 756.545" stroke="#42210B" stroke-miterlimit="10"/>
<path d="M1122.09 672.212C1122.7 671.774 1127.25 774.382 1127.25 774.382" stroke="#42210B" stroke-miterlimit="10"/>
<path d="M1089.61 695.555L1096.23 773.309" stroke="#42210B" stroke-miterlimit="10"/>
<path d="M1063.11 714.683C1062.12 715.39 1067.98 754.62 1067.98 754.62" stroke="#42210B" stroke-miterlimit="10"/>
<path d="M1108.75 702.792V679.084C1108.75 673.626 1108.06 667.29 1109.48 662.027C1111.16 655.692 1119.22 647.163 1126.11 652.28C1129.66 654.863 1129.78 660.175 1129.83 664.147C1129.83 672.651 1129.83 681.204 1129.83 689.683C1129.89 690.203 1130.13 690.684 1130.52 691.033C1130.91 691.383 1131.42 691.576 1131.94 691.576C1132.46 691.576 1132.97 691.383 1133.35 691.033C1133.74 690.684 1133.99 690.203 1134.05 689.683C1134.05 679.766 1135.09 669.288 1133.8 659.444C1132.24 647.675 1120.85 642.68 1111.3 650.843C1104.87 656.35 1104.51 664.683 1104.51 672.48V702.89C1104.56 703.41 1104.81 703.891 1105.2 704.24C1105.59 704.59 1106.09 704.783 1106.62 704.783C1107.14 704.783 1107.64 704.59 1108.03 704.24C1108.42 703.891 1108.67 703.41 1108.72 702.89L1108.75 702.792Z" fill="#D5C1FC"/>
<path d="M1084.79 689.439L1144.71 655.034L1164.24 664.22L1108.23 710.444L1084.79 689.439Z" fill="#F39AC4"/>
<path opacity="0.63" d="M1084.79 689.439L1144.71 655.034L1164.24 664.22L1108.23 710.444L1084.79 689.439Z" fill="black"/>
<path d="M1109.79 698.918C1111.52 697.87 1164.36 664.488 1164.36 664.488L1181.75 752.208L1108.06 792.559L1109.79 698.918Z" fill="#F39AC4"/>
<path d="M1109.79 698.918L1084.76 689.171L1072.76 778.475L1108.04 792.486" fill="#F39AC4"/>
<path opacity="0.22" d="M1109.79 698.918L1084.76 689.171L1072.76 778.475L1108.04 792.486" fill="black"/>
<path d="M1127.52 708.251V684.542C1127.52 679.084 1126.84 672.748 1128.25 667.485C1129.93 661.15 1137.99 652.621 1144.88 657.738C1148.44 660.321 1148.56 665.633 1148.61 669.605C1148.61 678.109 1148.61 686.662 1148.61 695.141C1148.66 695.661 1148.91 696.142 1149.3 696.492C1149.69 696.841 1150.19 697.034 1150.71 697.034C1151.24 697.034 1151.74 696.841 1152.13 696.492C1152.52 696.142 1152.76 695.661 1152.82 695.141C1152.82 685.224 1153.87 674.746 1152.58 664.902C1151.02 653.133 1139.62 648.138 1130.08 656.301C1123.65 661.808 1123.28 670.141 1123.28 677.938V708.348C1123.34 708.868 1123.58 709.349 1123.97 709.698C1124.36 710.048 1124.87 710.241 1125.39 710.241C1125.91 710.241 1126.42 710.048 1126.8 709.698C1127.19 709.349 1127.44 708.868 1127.5 708.348L1127.52 708.251Z" fill="#D5C1FC"/>
<path d="M1131.81 757.179L1248.69 689.659V753.256C1248.69 753.256 1131.81 823.042 1131.81 820.776V757.179Z" fill="url(#paint6_linear)" fill-opacity="0.8"/>
<path d="M1131.81 757.179L1110.43 747.627V811.224L1131.81 820.751V757.179Z" fill="#3D467F"/>
<path d="M1110.43 747.7L1131.81 760.566L1248.76 689.659L1229.21 678.621L1110.43 747.7Z" fill="#A27CEF"/>
<path d="M1282.92 677.402L1280.88 676.257C1280.68 676.424 1280.48 676.579 1280.27 676.72C1278.03 678.085 1275.7 679.306 1273.3 680.375L1273.86 680.692L1177.51 739.464L1121.51 773.578C1119.22 774.621 1117.06 775.93 1115.08 777.476C1110.21 773.188 1101.76 770.166 1096.5 766.974L1041.52 734.664H1041.64C1039.35 733.47 1037.13 732.032 1034.84 730.644L1033.04 731.935C1032.5 732.266 1032.06 732.73 1031.75 733.283C1031.44 733.835 1031.28 734.458 1031.28 735.09C1031.28 735.723 1031.44 736.346 1031.75 736.898C1032.06 737.45 1032.5 737.915 1033.04 738.246L1112.96 785.274C1113.52 785.599 1114.15 785.77 1114.8 785.77C1115.44 785.77 1116.08 785.599 1116.64 785.274L1282.97 683.835C1283.45 683.566 1283.85 683.187 1284.14 682.729C1284.44 682.27 1284.62 681.747 1284.67 681.204C1284.87 680.465 1284.81 679.68 1284.49 678.985C1284.17 678.29 1283.61 677.73 1282.92 677.402Z" fill="#42210B"/>
<path d="M1183.5 629.96C1183.78 630.188 1184.07 630.4 1184.38 630.594C1184.07 630.409 1183.77 630.197 1183.5 629.96Z" fill="#42210B"/>
<path d="M1185.33 631.008C1187.15 629.156 1187.13 631.422 1185.33 631.008V631.008Z" fill="#42210B"/>
<path d="M1114.91 777.696C1112.47 780.132 1113.06 777.135 1114.91 777.696V777.696Z" fill="#42210B"/>
<path d="M1115.76 778.037C1115.97 778.199 1116.16 778.378 1116.34 778.573C1116.15 778.5 1115.93 778.329 1115.76 778.037Z" fill="#42210B"/>
<path d="M1115.76 779.315L1113.33 779.428L1116.75 853.302L1119.18 853.189L1115.76 779.315Z" fill="#42210B"/>
<path d="M1303.01 643.484L1254.31 618.606L1221.97 602.036C1218.08 600.038 1211.6 594.726 1207.07 594.483C1201.76 594.068 1189.39 602.548 1185.96 606.3C1182.53 610.053 1182.19 616.778 1181.82 622.529C1184.4 622.529 1186.98 622.845 1189.56 623.016C1189.88 620.872 1190.2 618.606 1190.44 615.706C1190.44 615.097 1190.95 613.05 1191.05 611.953C1191.97 611.393 1193.48 610.248 1194.04 609.882C1198.39 607.623 1202.57 605.067 1206.56 602.231L1207.24 602.694C1210.29 604.532 1213.47 606.16 1216.74 607.567L1246.32 622.724L1295.02 647.626C1291.06 651.073 1287.61 655.078 1284.8 659.517C1281.66 665.511 1281 674.698 1279.71 681.447C1277.27 694.337 1275.52 707.446 1273.45 720.434L1264.05 778.378C1263.78 780.01 1263.64 781.74 1263.3 783.373C1258.84 784.981 1254.5 787.296 1250.17 789.221L1139.87 838.369L1121.58 846.507C1120.82 846.848 1119.46 847.214 1118.41 847.701C1115.08 843.607 1103.32 839.562 1099.25 837.272L1070.66 821.19L1058.37 814.27L1055.13 812.442C1053.28 806.107 1052.91 798.748 1051.82 792.34L1042.08 736.297C1041.27 731.667 1034.23 733.641 1035.04 738.246C1037.89 754.718 1041.76 771.068 1043.56 787.686C1044.66 797.749 1044.07 814.148 1053.06 819.801C1069.96 830.449 1088.05 839.489 1105.46 849.285C1109.23 851.405 1114.47 855.961 1119 855.693C1121.43 855.547 1124.57 853.257 1126.62 852.331L1237.87 802.842L1259.64 793.095C1262.08 792.023 1266.56 791 1268.48 789.172C1271.09 786.736 1270.92 782.569 1271.45 779.109L1275.84 751.745C1279.29 730.181 1282.48 708.543 1286.18 687.003C1287.26 680.814 1288.62 674.819 1290.1 668.606C1291.59 662.392 1290.1 664.61 1294.22 659.931L1303.69 649.283C1304.09 648.887 1304.4 648.405 1304.58 647.874C1304.77 647.343 1304.83 646.776 1304.77 646.217C1304.7 645.658 1304.51 645.121 1304.2 644.648C1303.9 644.174 1303.49 643.776 1303.01 643.484ZM1206.46 602.061C1205.12 602.207 1204.2 600.672 1206.46 602.061V602.061Z" fill="#42210B"/>
<path d="M1212.14 594.312C1212.14 594.312 1203.25 597.333 1206.54 607.811L1278.66 642.826C1278.66 642.826 1290.13 642.387 1290.28 631.496L1212.14 594.312Z" fill="#A27CEF"/>
<path d="M1061.34 880.62C1065.48 880.62 1068.84 877.064 1068.84 872.677C1068.84 868.29 1065.48 864.733 1061.34 864.733C1057.19 864.733 1053.84 868.29 1053.84 872.677C1053.84 877.064 1057.19 880.62 1061.34 880.62Z" fill="#42210B"/>
<path d="M1117.97 906.668C1122.12 906.668 1125.47 903.112 1125.47 898.725C1125.47 894.338 1122.12 890.781 1117.97 890.781C1113.83 890.781 1110.47 894.338 1110.47 898.725C1110.47 903.112 1113.83 906.668 1117.97 906.668Z" fill="#42210B"/>
<path d="M1262.69 840.927C1266.83 840.927 1270.19 837.371 1270.19 832.984C1270.19 828.596 1266.83 825.04 1262.69 825.04C1258.54 825.04 1255.19 828.596 1255.19 832.984C1255.19 837.371 1258.54 840.927 1262.69 840.927Z" fill="#42210B"/>
<path d="M1060.55 749.204L1058.13 749.456L1065.83 823.447L1068.26 823.194L1060.55 749.204Z" fill="#42210B"/>
<path d="M1272.96 760.688L1207.22 725.868L1204.78 727.281L1267.51 760.517C1258.74 764.489 1225.94 779.352 1193.12 794.289C1136.04 820.288 1121.07 827.184 1117.17 829.499L1049.94 789.489L1090.51 766.048L1088.07 764.611L1045.14 789.465L1118.19 833.057V831.521C1126.35 827.233 1220.46 784.421 1270.7 761.735L1272.96 760.688Z" fill="#42210B"/>
<path d="M1146.37 766.838L1143.94 766.928L1146.57 838.859L1149.01 838.769L1146.37 766.838Z" fill="#42210B"/>
<path d="M1176 749.327L1173.56 749.378L1175.2 826.067L1177.63 826.015L1176 749.327Z" fill="#42210B"/>
<path d="M1211.49 724.981L1206.55 812.074L1208.98 812.212L1213.93 725.119L1211.49 724.981Z" fill="#42210B"/>
<path d="M1248.14 702.364L1237.91 798.017L1240.33 798.277L1250.56 702.624L1248.14 702.364Z" fill="#42210B"/>
<path d="M1244.01 704.157L1241.57 705.595L1275.84 723.358L1276.96 721.189L1244.01 704.157Z" fill="#42210B"/>
<path d="M1117.32 803.086L1044.9 760.541C1047.58 758.836 1053.59 755.108 1061.8 750.039C1061.07 749.552 1060.34 749.016 1059.63 748.504C1041.27 759.859 1041.3 760.127 1041.42 760.834V761.394L1116.59 805.547L1117.15 805.863L1276.18 730.327L1275.13 728.134L1117.32 803.086Z" fill="#42210B"/>
<path d="M1117.95 889.246L1060.14 859.86L1093.77 838.515L1090.19 794.655L1052.5 816L1051.3 813.88L1090 791.95L1087.98 767.12L1090.41 766.925L1092.33 790.634L1178.24 741.901L1267.9 785.2L1266.31 819.07L1117.95 889.246ZM1065.06 859.616L1118 886.42L1264.05 817.486L1265.49 786.687L1178.34 744.63L1092.55 793.217L1096.35 839.757L1065.06 859.616Z" fill="#42210B"/>
<path d="M1314.7 546.797C1314.19 536.612 1322.66 503.619 1315.06 495.895C1313.38 495.042 1301.62 485.929 1299.92 485.125C1294.21 482.201 1287.68 481.341 1281.41 482.688C1274.16 484.273 1267.28 487.225 1261.13 491.387C1247.25 500.33 1257.01 541.997 1263.03 563.098C1278.83 571.7 1299.7 570.043 1315.06 560.662C1314.7 546.797 1315.38 560.54 1314.7 546.797Z" fill="#D5C1FC"/>
<path d="M1270.04 462.781C1269.53 464.681 1269.14 486.806 1283.12 488.22C1297.09 489.633 1299.43 471.894 1298.46 462.781C1297.48 453.668 1274.67 445.627 1270.04 462.781Z" fill="#F3B496"/>
<path d="M1269.85 471.723C1270.19 472.454 1276.86 463.804 1280.02 459.54C1280.02 459.54 1284.26 478.79 1297.07 474.014C1295.46 477.285 1294.22 480.725 1293.37 484.272C1293.37 484.272 1302.45 480.495 1303.33 466.216C1304.2 451.938 1297.04 446.114 1287.35 445.529C1280.78 445.188 1259.76 450.402 1269.85 471.723Z" fill="#3D467F"/>
<path d="M1298.68 473.453C1298.31 472.967 1297.79 472.632 1297.19 472.515C1296.6 472.398 1295.98 472.506 1295.46 472.82C1294.08 473.855 1293.12 475.364 1292.78 477.06C1292.74 477.198 1292.74 477.345 1292.77 477.486C1292.8 477.627 1292.86 477.76 1292.95 477.872C1293.04 477.984 1293.16 478.073 1293.29 478.131C1293.42 478.189 1293.56 478.214 1293.71 478.205L1293.22 478.887C1293.14 478.987 1293.08 479.104 1293.05 479.228C1292.22 479.935 1293.05 481.397 1294.1 480.763C1295.49 479.88 1296.71 478.738 1297.68 477.401C1298.41 476.45 1299.5 474.842 1298.68 473.453Z" fill="#F3B496"/>
<path d="M1219.59 609.249C1222.83 604.375 1226.89 600.063 1230.64 595.506C1232.64 593.069 1234.61 590.633 1236.66 588.196C1234.54 583.981 1226.7 587.879 1223.7 582.86C1219.13 585.48 1214.97 588.764 1211.36 592.606C1211.03 592.909 1210.82 593.312 1210.75 593.752C1208.77 594.815 1207.15 596.455 1206.12 598.454C1206 598.808 1205.98 599.186 1206.05 599.552C1206.13 599.918 1206.3 600.257 1206.54 600.536C1206.79 600.816 1207.11 601.025 1207.46 601.143C1207.81 601.261 1208.19 601.283 1208.56 601.208L1209.24 601.037C1208.68 601.695 1208.17 602.377 1207.66 603.084C1206.92 603.867 1206.34 604.786 1205.95 605.789C1205.86 606.072 1205.83 606.372 1205.86 606.667C1205.9 606.963 1205.99 607.249 1206.14 607.505C1206.3 607.761 1206.5 607.981 1206.74 608.152C1206.99 608.322 1207.27 608.439 1207.56 608.493C1206.32 610.272 1205.76 612.27 1208.7 613.001H1208.9C1209.32 613.157 1209.79 613.175 1210.22 613.052C1210.66 612.93 1211.05 612.673 1211.33 612.319C1211.89 611.637 1212.53 611.028 1213.09 610.345C1213.09 610.875 1213.28 611.385 1213.63 611.789C1213.97 612.194 1214.44 612.467 1214.96 612.563C1215.13 612.721 1215.32 612.842 1215.54 612.92C1215.76 612.998 1215.99 613.029 1216.22 613.013C1216.44 612.997 1216.67 612.934 1216.87 612.827C1217.07 612.72 1217.25 612.572 1217.4 612.392L1219 610.589C1219.14 610.121 1219.34 609.671 1219.59 609.249Z" fill="#F3B496"/>
<path d="M1264.71 594.458C1262.91 596.895 1254.55 612.489 1252.53 614.756L1247.08 622.26C1246.93 622.438 1246.82 622.645 1246.76 622.868C1246.69 623.091 1246.68 623.325 1246.71 623.555C1246.74 623.784 1246.82 624.005 1246.94 624.202C1247.06 624.398 1247.23 624.567 1247.42 624.697C1247.62 625.185 1247.99 625.587 1248.45 625.836C1248.92 626.085 1249.46 626.164 1249.98 626.062C1249.44 626.768 1248.95 627.499 1248.42 628.182C1248.15 628.524 1247.99 628.939 1247.96 629.374C1247.93 629.808 1248.03 630.242 1248.25 630.618C1248.25 630.618 1248.25 630.618 1248.25 630.789C1249.59 633.518 1251.44 632.543 1252.9 630.959C1253.01 631.236 1253.19 631.484 1253.4 631.688C1253.62 631.892 1253.88 632.046 1254.17 632.141C1254.45 632.235 1254.75 632.268 1255.05 632.237C1255.35 632.205 1255.63 632.11 1255.89 631.958C1256.79 631.366 1257.57 630.605 1258.18 629.717C1258.79 629.083 1259.33 628.425 1259.86 627.743C1259.86 627.987 1259.86 628.206 1259.86 628.45C1259.87 628.819 1259.98 629.179 1260.17 629.495C1260.36 629.811 1260.63 630.072 1260.95 630.252C1261.27 630.431 1261.63 630.524 1262 630.52C1262.37 630.516 1262.73 630.415 1263.05 630.228C1264.79 628.802 1266.05 626.882 1266.68 624.722C1267.1 624.566 1267.45 624.274 1267.68 623.893C1270.33 619.458 1278.39 603.791 1279.61 598.722C1274.35 596.919 1270.58 594.288 1264.71 594.458Z" fill="#F3B496"/>
<path d="M1257.94 607.47L1248.05 611.393L1254.36 614.414" fill="#F3B496"/>
<path d="M1257.94 598.016C1257.94 598.016 1270.11 609.176 1281 607.47C1281 607.47 1305.2 564.073 1309.27 548.308C1313.33 532.542 1318.33 499.794 1309.27 497.381C1300.21 494.969 1289.79 503.059 1287.35 513.488C1284.92 523.917 1282.02 556.787 1282.02 556.787L1257.94 598.016Z" fill="#D5C1FC"/>
<path d="M1213.99 580.374C1213.99 580.374 1224.46 593.069 1235.54 592.874C1235.54 592.874 1265.41 553.181 1271.6 538.123C1277.78 523.064 1287.18 491.29 1278.54 487.684C1269.89 484.077 1258.38 490.656 1254.72 500.647C1248.83 516.826 1245.67 535.686 1236.22 550.257C1233.03 555.13 1228.91 559.59 1225.58 564.365L1213.99 580.374Z" fill="#D5C1FC"/>
<path d="M1232.32 593.435V604.181L1225.92 601.135L1232.32 593.435Z" fill="#F3B496"/>
<path d="M1264.66 518.41C1264.66 518.087 1264.53 517.777 1264.3 517.548C1264.07 517.32 1263.76 517.191 1263.44 517.191C1263.12 517.191 1262.81 517.32 1262.58 517.548C1262.35 517.777 1262.22 518.087 1262.22 518.41C1261.82 532.754 1261.82 547.097 1262.22 561.441C1262.22 563.001 1264.66 563.001 1264.66 561.441C1264.25 547.097 1264.25 532.754 1264.66 518.41Z" fill="#CE6D0D"/>
<path d="M1302.18 566.29L1314.36 535.637L1315.06 560.564L1302.18 566.29Z" fill="#CE6D0D"/>
<path d="M1289.74 525.622C1284.32 550.796 1273.64 574.538 1258.4 595.287C1257.48 596.554 1259.59 597.723 1260.49 596.505C1275.89 575.556 1286.68 551.581 1292.15 526.158C1292.42 524.623 1290.06 524.087 1289.74 525.622Z" fill="#CE6D0D"/>
</g>
<defs>
<filter id="filter0_d" x="-158" y="-27.25" width="1663.34" height="439.814" filterUnits="userSpaceOnUse" color-interpolation-filters="sRGB">
<feFlood flood-opacity="0" result="BackgroundImageFix"/>
<feColorMatrix in="SourceAlpha" type="matrix" values="0 0 0 0 0 0 0 0 0 0 0 0 0 0 0 0 0 0 127 0"/>
<feOffset dy="4"/>
<feGaussianBlur stdDeviation="6"/>
<feColorMatrix type="matrix" values="0 0 0 0 0 0 0 0 0 0 0 0 0 0 0 0 0 0 0.1 0"/>
<feBlend mode="normal" in2="BackgroundImageFix" result="effect1_dropShadow"/>
<feBlend mode="normal" in="SourceGraphic" in2="effect1_dropShadow" result="shape"/>
</filter>
<filter id="filter1_d" x="4" y="-185" width="1553.56" height="454.981" filterUnits="userSpaceOnUse" color-interpolation-filters="sRGB">
<feFlood flood-opacity="0" result="BackgroundImageFix"/>
<feColorMatrix in="SourceAlpha" type="matrix" values="0 0 0 0 0 0 0 0 0 0 0 0 0 0 0 0 0 0 127 0"/>
<feOffset dy="4"/>
<feGaussianBlur stdDeviation="6"/>
<feColorMatrix type="matrix" values="0 0 0 0 0 0 0 0 0 0 0 0 0 0 0 0 0 0 0.1 0"/>
<feBlend mode="normal" in2="BackgroundImageFix" result="effect1_dropShadow"/>
<feBlend mode="normal" in="SourceGraphic" in2="effect1_dropShadow" result="shape"/>
</filter>
<filter id="filter2_d" x="692" y="329" width="998" height="755" filterUnits="userSpaceOnUse" color-interpolation-filters="sRGB">
<feFlood flood-opacity="0" result="BackgroundImageFix"/>
<feColorMatrix in="SourceAlpha" type="matrix" values="0 0 0 0 0 0 0 0 0 0 0 0 0 0 0 0 0 0 127 0"/>
<feOffset dy="4"/>
<feGaussianBlur stdDeviation="6"/>
<feColorMatrix type="matrix" values="0 0 0 0 0 0 0 0 0 0 0 0 0 0 0 0 0 0 0.1 0"/>
<feBlend mode="normal" in2="BackgroundImageFix" result="effect1_dropShadow"/>
<feBlend mode="normal" in="SourceGraphic" in2="effect1_dropShadow" result="shape"/>
</filter>
<linearGradient id="paint0_linear" x1="282.5" y1="-255" x2="453.97" y2="778.611" gradientUnits="userSpaceOnUse">
<stop stop-color="#D4D2FF"/>
<stop offset="1" stop-color="#FFDDFF"/>
</linearGradient>
<linearGradient id="paint1_linear" x1="781" y1="-295" x2="426.478" y2="304.135" gradientUnits="userSpaceOnUse">
<stop stop-color="#D1CFFF"/>
<stop offset="0.479167" stop-color="#E7CEFD"/>
<stop offset="1" stop-color="#FFCDFA"/>
</linearGradient>
<linearGradient id="paint2_linear" x1="1148.29" y1="441.703" x2="763.41" y2="749.845" gradientUnits="userSpaceOnUse">
<stop stop-color="#D1CFFF"/>
<stop offset="1" stop-color="#FFCDFA"/>
<stop offset="1" stop-color="#FFCDFA"/>
</linearGradient>
<linearGradient id="paint3_linear" x1="1132.24" y1="866.195" x2="1388.26" y2="710.818" gradientUnits="userSpaceOnUse">
<stop stop-opacity="0"/>
<stop offset="1" stop-color="#2E3192"/>
</linearGradient>
<linearGradient id="paint4_linear" x1="1231.42" y1="812.759" x2="1321.25" y2="739.257" gradientUnits="userSpaceOnUse">
<stop stop-color="#808080" stop-opacity="0"/>
<stop offset="1" stop-color="#2E3192"/>
</linearGradient>
<linearGradient id="paint5_linear" x1="16436" y1="24681.8" x2="26048.5" y2="12662.5" gradientUnits="userSpaceOnUse">
<stop stop-opacity="0"/>
<stop offset="1" stop-color="#2E3192"/>
</linearGradient>
<linearGradient id="paint6_linear" x1="1258.27" y1="812.351" x2="1146.02" y2="678.288" gradientUnits="userSpaceOnUse">
<stop stop-color="#D58ABB"/>
<stop offset="1" stop-color="#817FBC"/>
</linearGradient>
</defs>
</svg>
