<svg width="107" height="83" viewBox="0 0 107 83" fill="none" xmlns="http://www.w3.org/2000/svg">
<g clip-path="url(#clip0)">
<path opacity="0.18" d="M47.0353 12.0158C41.0264 17.0198 36.2052 23.3789 29.8182 27.8783C23.9153 32.0389 16.7931 34.5374 11.7138 39.6649C7.37902 44.0429 4.95028 49.9523 4.95558 56.1083C4.96087 62.2644 7.39977 68.1696 11.7421 72.5402C17.8146 78.6523 26.7961 80.9531 35.4029 81.4084C44.0097 81.8636 52.6483 80.7308 61.2586 81.1931C69.4059 81.6307 77.5178 83.494 85.6475 82.8729C93.7771 82.2518 102.398 78.43 105.615 70.9451C109.17 62.6628 105.095 53.3429 102.285 44.7783C100.159 38.3049 98.7558 31.6172 98.0999 24.8364C97.1244 14.6943 95.3323 0.610404 82.5476 0.0493067C69.6418 -0.438466 57.0054 3.81959 47.0353 12.0158Z" fill="url(#paint0_linear)"/>
<path d="M83.7174 72.1168C64.4149 74.587 44.8578 72.6885 25.3962 72.745C23.9824 72.745 22.056 73.3308 22.2787 74.7176C33.5895 77.3855 45.335 77.5937 56.9639 77.7913L78.1257 78.1442C82.9646 78.2254 87.807 78.3065 92.6176 78.0348C94.4167 77.9325 96.2618 77.7666 97.8842 76.9761C102.44 74.7529 100.182 71.8274 96.2512 71.3299C92.098 70.8076 87.8494 71.5875 83.7174 72.1168Z" fill="url(#paint1_linear)"/>
<path d="M55.55 18.3045V70.6029C55.55 72.865 57.5577 74.693 60.0319 74.6894L83.9825 74.6541C86.4568 74.6541 88.4644 72.812 88.4644 70.5535V18.2515C88.4644 15.9895 86.4568 14.158 83.9825 14.1651L60.0319 14.2003C57.5577 14.2039 55.55 16.0424 55.55 18.3045ZM57.8334 18.3398C57.8334 16.9458 59.0705 15.8131 60.5975 15.8131H63.973V16.1236C63.9941 16.5711 64.1919 16.9921 64.5232 17.2943C64.8544 17.5965 65.292 17.7555 65.7404 17.7363L78.617 17.7151C79.0654 17.7324 79.5025 17.5724 79.8334 17.2697C80.1643 16.9671 80.3623 16.5464 80.3843 16.0989V15.7884H83.8694C85.3964 15.7884 86.6335 16.9141 86.6335 18.308V70.4477C86.6335 71.8416 85.3964 72.9708 83.8694 72.9744L60.5975 73.0132C59.0705 73.0132 57.8334 71.8875 57.8334 70.4935V18.3398Z" fill="url(#paint2_linear)"/>
<path d="M54.4226 19.3773V71.6793C54.4226 73.9414 56.4303 75.7694 58.9045 75.7658L82.8586 75.727C85.3329 75.727 87.3405 73.8884 87.3405 71.6264V19.3279C87.3405 17.0659 85.3329 15.2344 82.8586 15.2379L58.9045 15.2767C56.4303 15.2803 54.4226 17.1188 54.4226 19.3773ZM56.7095 19.4162C56.7095 18.0046 57.9431 16.8895 59.47 16.8859H62.8456V17.1965C62.8667 17.6437 63.0646 18.0643 63.3959 18.366C63.7273 18.6676 64.1649 18.8258 64.6129 18.8057H77.486C77.935 18.8229 78.3726 18.6624 78.7036 18.359C79.0346 18.0556 79.2322 17.634 79.2533 17.1859V16.8789H82.742C84.2654 16.8789 85.5025 18.0046 85.5025 19.3985V71.5241C85.5025 72.9145 84.2654 74.0472 82.742 74.0508L59.4877 74.1002C57.9608 74.1002 56.7272 72.9745 56.7272 71.5805L56.7095 19.4162Z" fill="white"/>
<path d="M56.7095 19.402V71.5664C56.7095 72.9779 57.9431 74.0895 59.47 74.086L82.7455 74.0507C84.2689 74.0507 85.506 72.9144 85.506 71.524V19.3702C85.506 17.9587 84.2689 16.8471 82.7455 16.8506H79.2568V17.1576C79.2357 17.6057 79.0382 18.0274 78.7072 18.3307C78.3762 18.6341 77.9385 18.7946 77.4895 18.7774H64.6164C64.1684 18.7975 63.7308 18.6394 63.3994 18.3377C63.0681 18.036 62.8702 17.6154 62.8491 17.1682V16.8577H59.4877C57.9431 16.8894 56.7095 18.0222 56.7095 19.402Z" stroke="url(#paint3_linear)" stroke-width="0.45" stroke-miterlimit="10"/>
<path d="M56.7095 19.402V71.5664C56.7095 72.9779 57.9431 74.0895 59.47 74.086L82.7455 74.0507C84.2689 74.0507 85.506 72.9144 85.506 71.524V19.3702C85.506 17.9587 84.2689 16.8471 82.7455 16.8506H79.2568V17.1576C79.2357 17.6057 79.0382 18.0274 78.7072 18.3307C78.3762 18.6341 77.9385 18.7946 77.4895 18.7774H64.6164C64.1684 18.7975 63.7308 18.6394 63.3994 18.3377C63.0681 18.036 62.8702 17.6154 62.8491 17.1682V16.8577H59.4877C57.9431 16.8894 56.7095 18.0222 56.7095 19.402Z" fill="url(#paint4_linear)"/>
<path opacity="0.28" d="M82.1269 32.9106H61.467V37.9499H82.1269V32.9106Z" fill="white"/>
<path opacity="0.28" d="M82.1269 25.4717H61.467V30.511H82.1269V25.4717Z" fill="white"/>
<path d="M71.9014 35.6666V35.9878L82.8163 43.9137C82.8163 43.9137 83.0177 45.7805 83.3111 46.0028C83.7702 46.2393 84.2522 46.4285 84.7497 46.5674V47.8061L87.3547 49.6094L88.1783 49.8917V47.2803L84.6154 44.4571L83.502 43.1867L83.0708 43.5396L71.9014 35.6666Z" fill="url(#paint5_linear)"/>
<path d="M69.2998 17.6622L73.7216 17.6551V17.2952L69.2998 17.3022V17.6622Z" fill="url(#paint6_linear)"/>
<path d="M68.1368 17.8696C68.4023 17.867 68.6155 17.6674 68.6132 17.4238C68.6108 17.1802 68.3936 16.9848 68.1282 16.9874C67.8627 16.99 67.6494 17.1895 67.6518 17.4332C67.6542 17.6768 67.8713 17.8722 68.1368 17.8696Z" fill="url(#paint7_linear)"/>
<path d="M0 47.4639C0.0212077 48.3496 0.463035 49.1648 0.897793 49.9341C2.88425 53.4383 5.11459 56.8931 8.19678 59.4939C12.7211 63.3193 18.6522 64.9673 24.3783 66.5129C23.8657 66.2624 23.2472 63.6298 23.021 63.0511C22.5791 61.9148 22.1656 60.7714 21.7379 59.6316C21.0663 57.8283 19.6525 56.3779 18.2775 55.044C15.1609 52.0508 11.3797 49.8356 7.24244 48.579C4.89292 47.8687 2.45469 47.4933 0 47.4639Z" fill="url(#paint8_linear)"/>
<path d="M0 47.4639C0.0212077 48.3496 0.463035 49.1648 0.897793 49.9341C2.88425 53.4383 5.11459 56.8931 8.19678 59.4939C12.7211 63.3193 18.6522 64.9673 24.3783 66.5129C23.8657 66.2624 23.2472 63.6298 23.021 63.0511C22.5791 61.9148 22.1656 60.7714 21.7379 59.6316C21.0663 57.8283 19.6525 56.3779 18.2775 55.044C15.1609 52.0508 11.3797 49.8356 7.24244 48.579C4.89292 47.8687 2.45469 47.4933 0 47.4639Z" fill="url(#paint9_linear)"/>
<path d="M22.4024 49.426C21.9359 46.1652 21.4551 42.8551 20.1403 39.8344C18.8254 36.8136 16.5456 34.0611 13.4528 32.9106C13.3656 37.5829 13.276 42.2552 13.1841 46.9275C13.1346 49.6271 13.0887 52.3761 13.8628 54.9628C15.2201 59.4904 19.9423 64.8085 24.4949 66.3047C25.17 64.1274 24.039 60.8314 23.7173 58.5694L22.4024 49.426Z" fill="url(#paint10_linear)"/>
<path d="M22.4024 49.426C21.9359 46.1652 21.4551 42.8551 20.1403 39.8344C18.8254 36.8136 16.5456 34.0611 13.4528 32.9106C13.3656 37.5829 13.276 42.2552 13.1841 46.9275C13.1346 49.6271 13.0887 52.3761 13.8628 54.9628C15.2201 59.4904 19.9423 64.8085 24.4949 66.3047C25.17 64.1274 24.039 60.8314 23.7173 58.5694L22.4024 49.426Z" fill="url(#paint11_linear)"/>
<path d="M40.0155 42.7704C39.8564 42.7704 39.7575 42.601 39.7186 42.4458C39.7046 42.2872 39.6374 42.1379 39.5277 42.0223C39.4641 41.9729 39.3722 41.9411 39.3474 41.8635C39.3386 41.8288 39.3386 41.7924 39.3474 41.7576C39.3911 41.578 39.474 41.4103 39.5901 41.2663C39.7061 41.1224 39.8526 41.0058 40.019 40.9248C40.1887 41.073 40.4467 41.0695 40.6093 41.2248C40.7802 41.4164 40.9123 41.6393 40.9981 41.8811L42.5816 45.6359L43.0765 46.8075C43.2667 47.1814 43.374 47.5918 43.391 48.0109C43.3967 48.2209 43.3364 48.4275 43.2185 48.6015C43.1006 48.7756 42.931 48.9084 42.7336 48.9813C42.5979 49.0107 42.4574 49.0094 42.3223 48.9777C42.1871 48.9459 42.0608 48.8845 41.9525 48.7978C41.7365 48.6207 41.5647 48.396 41.4505 48.1414C41.0405 47.3157 40.9804 46.377 40.8567 45.4489C40.733 44.5208 40.6446 43.448 40.0155 42.7704Z" fill="#FFBBAB"/>
<path d="M39.8634 45.7205C39.8247 45.6892 39.7798 45.6665 39.7317 45.6537C39.6836 45.6409 39.6333 45.6384 39.5842 45.6464C39.5325 45.6653 39.4872 45.6983 39.4534 45.7417C39.2834 45.9409 39.1628 46.1773 39.1014 46.4318C39.0399 46.6862 39.0395 46.9515 39.0999 47.2062C39.1369 47.4277 39.2376 47.6337 39.3898 47.7991C39.5578 47.9459 39.7538 48.0575 39.9659 48.1272L41.6696 48.8048C41.7984 48.8697 41.9431 48.8966 42.0867 48.8824C42.1614 48.8611 42.2311 48.8251 42.2918 48.7767C42.3525 48.7282 42.4029 48.6682 42.4401 48.6001C42.5478 48.4296 42.6163 48.2373 42.6408 48.0372C42.6652 47.8371 42.645 47.634 42.5815 47.4426C42.2634 46.451 40.6799 46.2005 39.8634 45.7205Z" fill="#FFBBAB"/>
<path d="M38.082 43.4409L39.4358 44.7254L40.4219 45.6606C40.6446 45.8723 40.9274 46.0629 41.0193 46.3664C41.1325 46.7946 41.0925 47.2489 40.9062 47.6509C40.696 48.0779 40.5404 48.5296 40.4432 48.9954C40.4432 48.826 39.9024 48.4343 39.7822 48.339C39.5206 48.1344 39.2449 47.9544 38.9834 47.7532C38.7218 47.5521 38.3966 47.3439 38.3047 47.0828C38.2783 46.9147 38.27 46.7444 38.28 46.5746L38.1068 43.8573L38.082 43.4409Z" fill="url(#paint12_linear)"/>
<path d="M38.082 43.4409L39.4358 44.7254L40.4219 45.6606C40.6446 45.8723 40.9274 46.0629 41.0193 46.3664C41.1325 46.7946 41.0925 47.2489 40.9062 47.6509C40.696 48.0779 40.5404 48.5296 40.4432 48.9954C40.4432 48.826 39.9024 48.4343 39.7822 48.339C39.5206 48.1344 39.2449 47.9544 38.9834 47.7532C38.7218 47.5521 38.3966 47.3439 38.3047 47.0828C38.2783 46.9147 38.27 46.7444 38.28 46.5746L38.1068 43.8573L38.082 43.4409Z" fill="url(#paint13_linear)"/>
<path d="M57.4588 60.0267C57.1358 60.3477 56.8796 60.7294 56.7049 61.1497C56.5302 61.57 56.4405 62.0207 56.4409 62.4758C56.4379 62.962 56.5391 63.4433 56.7378 63.8873C56.9467 64.3636 57.2605 64.7867 57.6558 65.1252C58.0511 65.4637 58.5178 65.7088 59.0211 65.8423V66.6363H17.2207C16.1407 66.6049 15.1154 66.1544 14.3626 65.3805C13.6098 64.6067 13.1887 63.5704 13.1887 62.4916C13.1887 61.4129 13.6098 60.3766 14.3626 59.6027C15.1154 58.8289 16.1407 58.3784 17.2207 58.3469H59.0211V59.1409C58.4313 59.2935 57.8923 59.5991 57.4588 60.0267Z" fill="url(#paint14_linear)"/>
<path d="M59.0211 65.8283V66.6223H17.2207C16.3511 66.6235 15.5032 66.3515 14.7972 65.8448C14.0911 65.3381 13.5626 64.6225 13.2866 63.7992C14.8737 64.078 24.9261 65.6766 30.5214 62.49L56.7377 63.9016C56.95 64.3726 57.2653 64.7901 57.6604 65.1235C58.0556 65.457 58.5205 65.6978 59.0211 65.8283Z" fill="url(#paint15_linear)"/>
<path d="M57.4587 60.0267C57.0269 60.4572 56.7165 60.9937 56.5586 61.5822C56.4007 62.1706 56.401 62.7902 56.5594 63.3785C56.7178 63.9669 57.0288 64.5031 57.461 64.9332C57.8931 65.3632 58.4312 65.672 59.021 65.8282V65.9447H33.9959C33.0753 65.9447 32.1925 65.5796 31.5415 64.9297C30.8906 64.2798 30.5249 63.3984 30.5249 62.4793C30.5249 61.5602 30.8906 60.6788 31.5415 60.0289C32.1925 59.379 33.0753 59.0139 33.9959 59.0139H59.021V59.1268C58.4297 59.2835 57.8905 59.594 57.4587 60.0267Z" fill="white"/>
<path d="M52.6057 64.7697C52.755 64.8338 52.9171 64.8628 53.0794 64.8544L55.5536 64.9144C55.6203 64.918 55.6872 64.9109 55.7516 64.8932C55.8235 64.8566 55.8822 64.7985 55.9196 64.7271C55.957 64.6556 55.9711 64.5743 55.9601 64.4944C55.9264 64.2848 55.8272 64.0911 55.6768 63.9409C55.5264 63.7908 55.3324 63.6918 55.1224 63.6581C54.7025 63.595 54.2779 63.569 53.8535 63.5805C53.6812 63.5802 53.5113 63.5399 53.3573 63.4627C53.2033 63.3855 53.0694 63.2736 52.9663 63.1358C52.7719 62.8923 52.5386 62.6418 52.2169 62.8747C51.7115 63.2593 52.125 64.5121 52.6057 64.7697Z" fill="#FFBBAB"/>
<path d="M40.1957 53.5973C40.1957 53.5973 47.1058 53.382 48.8237 54.1019C50.5415 54.8218 53.2101 63.1077 53.2101 63.1077L51.768 63.6582C51.768 63.6582 49.315 58.4989 48.5091 58.0367C47.7032 57.5744 39.0681 55.8805 39.0681 55.8805C39.0681 55.8805 38.4071 55.3759 40.1957 53.5973Z" fill="#473F47"/>
<path d="M40.1957 53.5973C40.1957 53.5973 47.1058 53.382 48.8237 54.1019C50.5415 54.8218 53.2101 63.1077 53.2101 63.1077L51.768 63.6582C51.768 63.6582 49.315 58.4989 48.5091 58.0367C47.7032 57.5744 39.0681 55.8805 39.0681 55.8805C39.0681 55.8805 38.4071 55.3759 40.1957 53.5973Z" fill="url(#paint16_linear)"/>
<path d="M57.4588 68.3126C57.1334 68.6363 56.8758 69.0214 56.701 69.4455C56.5262 69.8696 56.4378 70.3242 56.4408 70.7828C56.4402 71.2632 56.5414 71.7382 56.7377 72.1768C56.946 72.6535 57.2596 73.077 57.655 73.4155C58.0504 73.7541 58.5174 73.9989 59.0211 74.1318V74.9258H17.2207C16.6757 74.9258 16.1361 74.8186 15.6327 74.6104C15.1292 74.4022 14.6718 74.097 14.2864 73.7123C13.9011 73.3276 13.5955 72.8709 13.3869 72.3683C13.1784 71.8656 13.071 71.3269 13.071 70.7828C13.071 70.2388 13.1784 69.7 13.3869 69.1974C13.5955 68.6948 13.9011 68.238 14.2864 67.8533C14.6718 67.4686 15.1292 67.1635 15.6327 66.9553C16.1361 66.7471 16.6757 66.6399 17.2207 66.6399H59.0211V67.4304C58.4322 67.5834 57.8936 67.8875 57.4588 68.3126Z" fill="url(#paint17_linear)"/>
<path d="M59.0211 74.1V74.894H17.2207C16.3511 74.8952 15.5032 74.6231 14.7972 74.1164C14.0911 73.6097 13.5626 72.8941 13.2866 72.0708C14.8737 72.3496 24.9261 73.9482 30.5214 70.7651L56.7377 72.1591C56.9477 72.6331 57.262 73.0538 57.6573 73.3899C58.0527 73.7259 58.5188 73.9686 59.0211 74.1Z" fill="url(#paint18_linear)"/>
<path d="M57.4587 68.3128C57.0305 68.7436 56.7232 69.2791 56.5674 69.8657C56.4116 70.4524 56.4129 71.0695 56.5711 71.6555C56.7293 72.2415 57.0388 72.7758 57.4688 73.2048C57.8987 73.6338 58.434 73.9426 59.021 74.1002V74.2167H33.9959C33.0753 74.2167 32.1925 73.8516 31.5415 73.2017C30.8906 72.5518 30.5249 71.6704 30.5249 70.7513C30.5249 69.8322 30.8906 68.9508 31.5415 68.3009C32.1925 67.651 33.0753 67.2859 33.9959 67.2859H59.021V67.3988C58.4287 67.5609 57.8898 67.8762 57.4587 68.3128Z" fill="white"/>
<path d="M50.7113 67.1906C50.847 67.1901 50.9819 67.2116 51.1107 67.2541C51.175 67.2753 51.2319 67.3145 51.2745 67.3671C51.3171 67.4197 51.3437 67.4833 51.3511 67.5505C51.3461 67.6168 51.3248 67.6808 51.2891 67.7368C51.2533 67.7929 51.2042 67.8392 51.1461 67.8717C51.033 67.9422 50.9057 67.9846 50.7926 68.0587C50.6986 68.1375 50.5981 68.2083 50.4922 68.2704C50.3015 68.3257 50.0978 68.317 49.9125 68.2457C49.0464 68.0373 48.1505 67.9811 47.2651 68.0799C47.1782 68.0904 47.0904 68.0904 47.0035 68.0799C46.878 68.0435 46.7637 67.9758 46.6716 67.8832C46.5795 67.7906 46.5125 67.6761 46.4769 67.5505C46.2995 67.0118 46.2464 66.44 46.3213 65.8778C46.3218 65.8161 46.3376 65.7555 46.3673 65.7014C46.4007 65.6559 46.4459 65.6205 46.4981 65.599C47.3393 65.1826 47.7988 66.0119 48.4138 66.4142C49.0981 66.8699 49.8905 67.1377 50.7113 67.1906Z" fill="#FFBBAB"/>
<path d="M35.5086 54.0276C35.5086 54.0276 35.3001 57.1613 38.103 58.107C40.0471 58.7599 42.281 58.6399 44.2921 58.4599C44.6456 58.4282 45.0344 58.3435 45.395 58.347C46.1019 58.347 45.957 58.8128 45.9499 59.4057C45.9499 60.9066 45.9369 62.4064 45.911 63.905C45.8464 64.6915 45.9587 65.4824 46.2397 66.22L48.3075 65.6695C48.2519 63.4973 48.3772 61.3242 48.6821 59.1728C48.8165 58.2411 49.0179 57.0766 48.3923 56.2826C47.7845 55.5717 46.9825 55.053 46.0842 54.7898L40.4854 53.0254L35.5086 54.0276Z" fill="#473F47"/>
<path d="M39.5418 39.6402C39.6443 39.8131 39.8564 39.9154 39.9271 40.1095C39.9978 40.3036 39.8493 40.5753 39.7645 40.8153C39.6514 41.1364 39.6867 41.4964 39.5736 41.8211C39.5542 41.8917 39.515 41.9554 39.4605 42.0046C39.4079 42.0383 39.349 42.0611 39.2873 42.0716C39.048 42.121 38.8027 42.1353 38.5592 42.114C38.5135 42.0978 38.4636 42.0978 38.4178 42.114C38.3826 42.1463 38.36 42.1901 38.3542 42.2375C38.2131 42.8494 38.2228 43.4863 38.3825 44.0937C38.4355 44.2913 38.492 44.5383 38.3436 44.6795C38.2923 44.7295 38.2269 44.7627 38.1563 44.7748C37.6932 44.8877 37.2479 44.5454 36.9333 44.189C36.6567 43.8651 36.4195 43.5097 36.2264 43.1303C36.1634 43.0214 36.1214 42.9017 36.1026 42.7774C36.0939 42.6293 36.1131 42.4809 36.1592 42.3398C36.2905 41.8338 36.371 41.3161 36.3995 40.7941C36.4349 40.1272 36.3995 39.432 36.6399 38.8144C36.7167 38.6028 36.8591 38.421 37.0464 38.2957C37.2671 38.1937 37.5115 38.1534 37.7533 38.1792C38.2435 38.147 38.7273 38.305 39.1035 38.6203C39.2131 38.7368 39.411 39.4249 39.5418 39.6402Z" fill="#FFBBAB"/>
<path d="M40.1957 53.5972C39.8824 53.87 39.5133 54.0711 39.1141 54.1866C38.8313 54.2854 38.5415 54.3771 38.2481 54.4689C37.8323 54.5938 37.4259 54.7483 37.0322 54.9312C36.6151 55.0688 36.304 55.1711 36.0672 55.2417C35.8538 55.3172 35.6368 55.382 35.4169 55.4358C35.4384 55.4236 35.4609 55.413 35.484 55.404C35.484 55.404 35.3426 54.7794 35.1306 53.9042C34.7771 52.2951 34.1833 49.8495 33.897 48.9355C33.762 48.3576 33.7274 47.7608 33.7945 47.1711C33.9394 45.2302 34.7099 42.6964 36.1238 42.8587C36.1238 42.8587 38.1244 43.8927 38.7288 44.6973C39.2802 45.4419 40.0154 46.003 40.0225 47.0087C40.0401 48.4203 39.4499 49.7437 39.563 51.2046C39.565 51.4176 39.6183 51.627 39.7185 51.8151C39.8881 52.0798 40.2239 52.2068 40.3901 52.4715C40.4839 52.6549 40.5156 52.8637 40.4806 53.0667C40.4455 53.2696 40.3456 53.4558 40.1957 53.5972Z" fill="url(#paint19_linear)"/>
<path d="M37.9831 53.3183C38.2183 53.6526 38.3135 54.0654 38.2482 54.4687C38.2142 54.6047 38.1404 54.7276 38.0361 54.8216C37.8667 54.9476 37.6689 55.03 37.46 55.0615C37.0026 55.1657 36.5363 55.2259 36.0674 55.2415C35.9012 55.2415 35.7351 55.2415 35.569 55.2415C35.5549 54.7623 35.4067 54.2965 35.1413 53.897C34.7878 52.2878 34.194 49.8423 33.9077 48.9283C33.7728 48.3503 33.7381 47.7535 33.8052 47.1638C34.0427 46.8662 34.24 46.5388 34.392 46.1899C34.498 45.9146 34.6747 45.6146 34.9716 45.5935C35.2685 45.5723 35.4417 45.7911 35.6043 45.9958C36.6152 47.2838 37.354 48.8754 38.2412 50.2587C38.2869 50.3174 38.3129 50.389 38.3154 50.4634C38.295 50.541 38.2457 50.6079 38.1775 50.6504C37.7958 50.968 37.3893 51.3562 37.3469 51.8432C37.3045 52.3302 37.6933 52.856 37.9831 53.3183Z" fill="url(#paint20_linear)"/>
<path d="M36.972 51.748C37.0363 51.9389 37.1318 52.1177 37.2548 52.2773C37.581 52.5914 38.0141 52.7704 38.4672 52.7784C38.9862 52.8319 39.5077 52.859 40.0295 52.8596C40.383 52.8596 40.9414 52.6902 41.2383 52.9725C41.309 53.0431 41.362 53.1278 41.4363 53.1948C41.6318 53.3448 41.8763 53.4166 42.122 53.396C42.6575 53.4057 43.1914 53.3343 43.7055 53.1843C43.7272 53.1826 43.7481 53.175 43.7658 53.1624C43.7836 53.1498 43.7975 53.1326 43.8063 53.1126C43.815 53.0927 43.8181 53.0708 43.8153 53.0492C43.8125 53.0276 43.8039 53.0072 43.7903 52.9902C43.6857 52.6809 43.5305 52.3911 43.3308 52.1326C43.2303 52.0042 43.1022 51.8999 42.956 51.8272C42.8099 51.7546 42.6493 51.7154 42.4861 51.7127C42.317 51.7324 42.1501 51.7678 41.9877 51.8186C41.4937 51.8902 40.9902 51.8565 40.5102 51.7198C39.9507 51.6438 39.4115 51.4592 38.9232 51.1763C38.7889 51.0662 38.6793 50.9291 38.6015 50.774C38.379 50.3551 38.2013 49.9139 38.0713 49.4577C38.0183 49.2813 37.9405 49.0801 37.7638 49.0201C37.6989 49.0057 37.6317 49.0042 37.5662 49.0157C37.5007 49.0272 37.4381 49.0515 37.3821 49.0872C36.9481 49.2853 36.6049 49.6394 36.4206 50.0788C36.2899 50.5305 36.7918 51.3069 36.972 51.748Z" fill="#FFBBAB"/>
<path d="M36.9085 45.4806C36.9085 45.4806 38.1703 48.8896 38.4177 49.1401C38.6652 49.3907 35.9859 50.9046 35.9859 50.9046C35.9859 50.9046 34.2398 47.5874 34.3211 46.1511C34.4024 44.7149 35.9223 44.1255 36.9085 45.4806Z" fill="url(#paint21_linear)"/>
<path d="M38.8986 38.5675C38.8586 38.8958 38.7018 39.1989 38.4568 39.4215C38.22 39.6438 37.9266 39.792 37.6827 40.0073C37.5523 40.1032 37.4482 40.2305 37.3802 40.3774C37.3123 40.5242 37.2826 40.6858 37.2939 40.8472C37.1992 40.81 37.0944 40.807 36.9977 40.8385C36.9009 40.8701 36.8182 40.9343 36.7637 41.0201C36.7408 41.0786 36.734 41.1422 36.7439 41.2042C36.7539 41.2662 36.7802 41.3245 36.8203 41.373C36.8641 41.4228 36.9187 41.462 36.9799 41.4877C37.0411 41.5134 37.1074 41.5248 37.1737 41.5212C36.9201 41.6228 36.7024 41.7972 36.5481 42.0223C36.1557 42.6046 35.6998 43.0421 35.8412 43.8185C35.9472 44.3372 36.2264 44.8066 36.3749 45.3147C36.5146 45.7938 36.5369 46.2994 36.44 46.7889C36.343 47.2783 36.1296 47.7374 35.8178 48.1273C35.5059 48.5171 35.1047 48.8265 34.648 49.0291C34.1914 49.2318 33.6926 49.3219 33.1937 49.2918C32.2535 49.2389 31.2744 48.6284 31.1224 47.7003C30.9528 46.6416 31.8576 45.7065 31.9602 44.6443C32.0132 44.069 31.8294 43.4762 31.9602 42.9151C32.1546 42.1387 32.9004 41.6588 33.4659 41.0942C34.6783 39.8767 34.6853 37.8652 36.5976 37.3535C37.4883 37.1383 38.987 37.3994 38.8986 38.5675Z" fill="#3D467F"/>
<path d="M42.6453 52.962L44.8757 47.2981H50.7714L47.8059 54.1018L38.7749 53.7631L39.0647 53.2161L42.6453 52.962Z" fill="url(#paint22_linear)"/>
<path d="M42.6453 52.962L44.8757 47.2981H50.7714L47.8059 54.1018L38.7749 53.7631L39.0647 53.2161L42.6453 52.962Z" fill="url(#paint23_linear)"/>
<path d="M55.2461 63.5135C55.1066 63.4566 54.9546 63.4372 54.8052 63.457C54.6558 63.4768 54.5142 63.5352 54.3943 63.6264C54.2741 63.7464 54.214 63.9122 54.0938 64.0322C53.9224 64.1661 53.7106 64.2383 53.493 64.2369C53.1479 64.2622 52.801 64.2432 52.4608 64.1804C52.4051 64.1667 52.3469 64.1667 52.2912 64.1804C52.2464 64.1992 52.2084 64.2313 52.1825 64.2723C52.1566 64.3133 52.1439 64.3613 52.1463 64.4098C52.1531 64.5059 52.1796 64.5996 52.224 64.6851C52.2741 64.8251 52.3637 64.9477 52.4821 65.038C52.6011 65.0985 52.734 65.1265 52.8673 65.1191C53.7831 65.1633 54.7009 65.1421 55.6137 65.0556C55.8427 65.0499 56.0625 64.9651 56.2358 64.8156C56.7448 64.2933 55.642 63.6405 55.2461 63.5135Z" fill="url(#paint24_linear)"/>
<path d="M49.5199 66.6894C49.3997 66.6894 49.2795 66.6894 49.1664 66.6894C49.1231 66.6823 49.0789 66.6823 49.0356 66.6894C48.9528 66.7241 48.8825 66.7832 48.8341 66.8588C48.7175 67.007 48.6115 67.2117 48.4347 67.2858C48.2733 67.3516 48.1029 67.3933 47.9293 67.4093C47.5374 67.4424 47.1428 67.415 46.7593 67.3281C46.7036 67.3144 46.6454 67.3144 46.5897 67.3281C46.5445 67.3465 46.5063 67.3785 46.4803 67.4196C46.4543 67.4607 46.4419 67.509 46.4447 67.5575C46.4516 67.6536 46.478 67.7473 46.5225 67.8328C46.5687 67.9981 46.6697 68.143 46.809 68.2436C46.9484 68.3442 47.1177 68.3947 47.2895 68.3868H48.7316C49.177 68.3868 49.6224 68.3868 50.0677 68.3692C50.3688 68.3641 50.668 68.3214 50.9584 68.2421C51.1593 68.1925 51.3389 68.08 51.471 67.921C51.5337 67.8396 51.5678 67.7397 51.5678 67.6369C51.5678 67.5342 51.5337 67.4343 51.471 67.3529C51.3818 67.2686 51.2721 67.209 51.1529 67.1799L50.2162 66.8553C50.0383 66.788 49.855 66.736 49.6683 66.7L49.5199 66.6894Z" fill="url(#paint25_linear)"/>
<path d="M85.9479 43.4692H85.9231C85.8117 43.3876 85.7129 43.2901 85.6298 43.1798C85.3765 42.8608 85.0661 42.5916 84.7143 42.3858C84.5694 42.3011 84.3608 42.2341 84.2477 42.3611C84.2088 42.4035 84.1912 42.4634 84.1487 42.5023C84.0498 42.594 83.8907 42.534 83.7776 42.4634C83.6645 42.3929 83.5196 42.3152 83.4029 42.3858C83.3682 42.4128 83.3405 42.4477 83.322 42.4876C83.3036 42.5275 83.295 42.5713 83.2969 42.6152C83.3113 42.8199 83.3769 43.0177 83.4878 43.1904C83.6568 43.5288 83.8505 43.8544 84.0674 44.1644C84.1206 44.2579 84.1985 44.3351 84.2926 44.3874C84.3868 44.4397 84.4935 44.4651 84.6012 44.4608C84.9374 44.4606 85.2682 44.5456 85.5626 44.7078C85.6182 44.7609 85.6883 44.7965 85.7641 44.8102C85.9797 44.8313 86.0539 44.1679 86.0893 44.0162C86.1069 43.9421 86.2024 43.695 86.167 43.6209C86.1317 43.5468 86.0186 43.508 85.9479 43.4692Z" fill="#FFBBAB"/>
<path d="M91.5889 56.512L91.9317 73.4579H94.2328L94.8973 59.9915L96.3465 73.4579L98.9833 73.899L99.5877 55.958L91.5889 56.512Z" fill="url(#paint26_linear)"/>
<path d="M91.5889 56.512L91.9317 73.4579H94.2328L94.8973 59.9915L96.3465 73.4579L98.9833 73.899L99.5877 55.958L91.5889 56.512Z" fill="url(#paint27_linear)"/>
<path d="M97.407 73.1932V57.486L99.5879 55.958L98.8527 73.4579L97.407 73.1932Z" fill="url(#paint28_linear)"/>
<path d="M85.3257 45.4171L85.3752 45.4595C85.8665 45.8829 89.7298 49.2036 90.3236 49.0096C91.1208 48.6502 91.891 48.2339 92.6282 47.7639L92.8226 47.6474V42.9822L90.3979 45.8688L86.1104 43.3457L85.3257 45.4171Z" fill="url(#paint29_linear)"/>
<path d="M85.3752 45.4595C85.8666 45.8829 89.7299 49.2036 90.3237 49.0096C91.1209 48.6502 91.8911 48.2339 92.6283 47.7638C92.6525 47.5743 92.6607 47.3831 92.653 47.1922C92.653 46.7793 92.7979 45.7806 92.1617 46.0206C91.6456 46.2182 91.271 46.8851 90.7479 47.1357C90.5843 47.282 90.3817 47.3777 90.1646 47.411C89.8112 47.4321 89.5284 47.1463 89.281 46.8957C88.4195 46.0108 87.4084 45.2845 86.2942 44.7502C86.2462 44.7215 86.1911 44.7069 86.1352 44.7078C86.0717 44.7241 86.0156 44.7614 85.9761 44.8137C85.7782 45.0325 85.5767 45.2477 85.3752 45.4595Z" fill="url(#paint30_linear)"/>
<path d="M97.8808 41.5212C98.4949 41.8283 99.0931 42.1664 99.6729 42.534C100.903 43.321 100.684 43.6845 100.458 45.0431C99.9803 47.9477 99.7438 50.8867 99.7506 53.8301C99.7983 54.5395 99.7472 55.2521 99.5986 55.9474C99.4714 56.385 99.178 56.752 99.1427 57.2143C97.2446 57.4755 92.9005 58.4494 91.5998 56.5085C90.3556 54.6453 92.5966 48.0391 92.1795 45.0819C91.7624 42.1247 95.5798 41.8106 95.5798 41.8106L97.8808 41.5212Z" fill="url(#paint31_linear)"/>
<path d="M95.2652 55.104L98.7043 57.4225L99.2663 56.7167C99.599 55.5225 99.7538 54.2859 99.7258 53.0466C99.6445 51.1975 99.7258 51.8574 99.7258 51.8574L94.887 54.9134L95.2652 55.104Z" fill="url(#paint32_linear)"/>
<path d="M93.5508 38.6558C93.5485 38.8516 93.5603 39.0474 93.5861 39.2416C93.6777 39.6451 93.8366 40.0305 94.0562 40.3814C94.113 40.505 94.1977 40.6137 94.3036 40.699C94.5234 40.8074 94.7764 40.8276 95.0106 40.7555C95.0664 40.7431 95.1244 40.7431 95.1802 40.7555C95.3146 40.8084 95.3322 40.9919 95.3252 41.1366L95.2863 41.8106C95.2721 41.9026 95.2883 41.9967 95.3322 42.0788C95.3788 42.1354 95.4418 42.1761 95.5125 42.1953C95.7617 42.2769 96.0285 42.2896 96.2843 42.2318C96.5401 42.174 96.7755 42.0479 96.9652 41.8671C97.0593 41.7799 97.1361 41.6757 97.1914 41.5601C97.237 41.4473 97.2656 41.3283 97.2763 41.2072C97.3576 40.5614 97.2763 39.9085 97.3363 39.2627C97.4203 38.7293 97.4357 38.1874 97.3823 37.65C97.3314 37.3624 97.2098 37.092 97.0285 36.8628C96.8471 36.6337 96.6116 36.4531 96.3431 36.3373C95.7854 36.1613 95.185 36.175 94.6359 36.3761C94.3663 36.4517 94.1009 36.5412 93.8406 36.6443C93.714 36.6776 93.6044 36.7569 93.5331 36.8666C93.4306 37.0748 93.5331 37.3748 93.5331 37.5971C93.5578 37.9535 93.5508 38.3064 93.5508 38.6558Z" fill="#FFBBAB"/>
<path d="M98.0856 36.242C97.5766 35.4797 96.389 35.4656 95.5619 35.3562C95.4434 35.3495 95.3288 35.3118 95.2296 35.2468C95.2055 35.2291 95.1852 35.2067 95.1699 35.181C95.1546 35.1552 95.1447 35.1267 95.1407 35.097C95.1368 35.0674 95.1389 35.0372 95.1469 35.0084C95.1548 34.9795 95.1686 34.9526 95.1872 34.9292L94.5581 35.2821V34.8163C94.3422 34.9867 94.1142 35.1413 93.8759 35.2786V34.8622C93.5982 35.0779 93.3913 35.3715 93.2817 35.7053C93.1721 36.0391 93.1649 36.398 93.2609 36.736C93.4623 37.4418 94.5298 37.5159 95.1271 37.4841C95.2918 37.47 95.4573 37.47 95.622 37.4841C95.7861 37.5023 95.9386 37.5772 96.0532 37.6959C96.1858 37.9198 96.26 38.1734 96.2688 38.4334C96.271 38.4488 96.2771 38.4634 96.2865 38.4758C96.297 38.4773 96.3078 38.4773 96.3183 38.4758C96.5021 38.4969 96.6718 38.2817 96.8414 38.3558C96.8825 38.3786 96.9168 38.4118 96.941 38.4521C96.9652 38.4923 96.9784 38.5382 96.9793 38.5852C96.9925 38.6978 96.9766 38.812 96.9333 38.9169C96.9108 38.9572 96.8964 39.0016 96.8909 39.0475C96.8929 39.0778 96.9001 39.1077 96.9121 39.1357L97.0288 39.4568C97.059 39.5752 97.1304 39.679 97.2302 39.7497C97.3055 39.7725 97.3852 39.7763 97.4622 39.7609C97.5393 39.7455 97.6114 39.7114 97.6721 39.6615C97.7643 39.6149 97.8451 39.5486 97.9089 39.4674C97.9511 39.3956 97.9799 39.3166 97.9937 39.2345C98.1493 38.435 98.2133 37.6205 98.1846 36.8066C98.1921 36.6135 98.1583 36.421 98.0856 36.242Z" fill="#3D467F"/>
<path d="M97.2799 41.2141C97.2799 41.2141 97.8066 41.567 97.7924 41.9799C97.7783 42.3928 94.9223 50.414 94.9223 50.414C94.9223 50.414 94.8587 42.7245 94.9223 42.3681C95.0194 42.0205 95.1484 41.6827 95.3076 41.3588C95.3076 41.3588 96.4493 42.1846 97.2799 41.2141Z" fill="white"/>
<path d="M96.3466 41.9375L96.5375 42.5586L96.2159 42.8303L96.0603 47.1885L94.9257 50.4104L94.8975 47.1356L95.873 42.8091L95.516 42.1986L95.9861 41.9375H96.3466Z" fill="#212741"/>
<path d="M94.2329 53.2794C94.5693 53.7041 94.9509 54.091 95.3711 54.4334L95.6326 54.6416C95.7277 54.7239 95.8441 54.7777 95.9684 54.7969C96.0543 54.795 96.1387 54.7745 96.2158 54.7369C97.8785 54.0906 99.5076 53.3616 101.097 52.5525C101.765 52.1996 102.493 51.7655 102.635 51.0315C102.671 50.777 102.665 50.5183 102.617 50.2658C102.365 48.4112 101.88 46.5958 101.171 44.863C100.97 44.3725 100.722 43.4267 100.196 43.0985L100.132 43.0668L100.058 43.0315C99.351 42.7774 98.736 43.4832 98.5416 44.0902C98.3211 44.958 98.3493 45.8701 98.6229 46.7227C98.8963 47.569 99.0985 48.4366 99.2273 49.3165C99.2458 49.4352 99.2336 49.5567 99.192 49.6694C99.1248 49.7817 99.0314 49.8761 98.9198 49.9446L94.2329 53.2794Z" fill="url(#paint33_linear)"/>
<path d="M94.233 73.4578L94.1093 74.707L93.321 74.8517L92.9676 74.5412L92.3596 75.0176H89.995C89.995 75.0176 89.3941 73.9836 90.7019 73.6307L92.0062 73.2778L94.233 73.4578Z" fill="#212741"/>
<path d="M98.8492 73.4578L98.7255 74.707L97.9373 74.8517L97.5838 74.5412L96.9829 75.0176H94.6183C94.6183 75.0176 94.0174 73.9836 95.3252 73.6307L96.6294 73.2778L98.8492 73.4578Z" fill="#212741"/>
<path d="M94.8976 59.9916L93.8408 59.134L93.095 73.2779L94.2331 73.4579L94.8976 59.9916Z" fill="url(#paint34_linear)"/>
<path d="M95.3711 54.4333L95.6327 54.6415C95.7277 54.7238 95.8441 54.7776 95.9684 54.7968C96.0543 54.7949 96.1387 54.7744 96.2159 54.7368C97.8785 54.0905 99.5076 53.3615 101.097 52.5524C101.765 52.1995 102.493 51.7655 102.635 51.0314C102.671 50.777 102.665 50.5182 102.617 50.2657C102.365 48.4111 101.88 46.5957 101.171 44.8629C100.97 44.3724 100.723 43.4266 100.196 43.0984L100.132 43.0667L100.058 43.0314C99.726 43.0269 99.4009 43.1266 99.1288 43.3166C98.8567 43.5066 98.6513 43.7772 98.5416 44.0901C98.5416 44.0901 101.058 49.2282 100.949 50.0045C100.839 50.7809 95.5584 53.2794 95.5584 53.2794L95.3711 54.4333Z" fill="url(#paint35_linear)"/>
<path d="M93.0665 53.71C92.9286 53.7447 92.7996 53.8085 92.6883 53.897C92.6346 53.9429 92.5949 54.003 92.5736 54.0704C92.5524 54.1378 92.5505 54.2097 92.5681 54.2781C92.6097 54.3575 92.6582 54.4331 92.7131 54.504C92.7802 54.624 92.7908 54.7757 92.8509 54.8992C92.9726 55.0875 93.1605 55.2235 93.3776 55.2803C94.0067 55.5062 94.7738 55.5379 95.2827 55.1039C95.6362 54.7898 96.3926 53.4876 95.5761 53.29C95.2286 53.269 94.88 53.3048 94.544 53.3959C94.0437 53.4598 93.5495 53.5648 93.0665 53.71Z" fill="#FFBBAB"/>
<path d="M72.0074 35.5503L71.9014 35.6667L87.2275 45.0501L87.3406 44.796L72.0074 35.5503Z" fill="white"/>
<path d="M83.3039 42.6928C83.2794 42.5783 83.2983 42.4589 83.3569 42.3575C83.3978 42.3127 83.4482 42.2777 83.5046 42.2551C83.5609 42.2325 83.6216 42.2229 83.6821 42.227C83.7404 42.2221 83.7992 42.2281 83.8553 42.2446C83.9826 42.2905 84.0568 42.4175 84.1381 42.5269C84.1638 42.5609 84.1935 42.5917 84.2264 42.6187C84.2714 42.6485 84.3202 42.6722 84.3714 42.6893C84.4437 42.7116 84.5127 42.7436 84.5764 42.7845C84.6744 42.859 84.7562 42.9527 84.8167 43.0598C84.8763 43.1451 84.9272 43.2362 84.9687 43.3315C85.0149 43.4555 85.0354 43.5876 85.0288 43.7197C85.033 43.7644 85.0217 43.8092 84.997 43.8467C84.964 43.8825 84.9184 43.904 84.8697 43.9067C84.6753 43.9222 84.4813 43.8726 84.3183 43.7656C84.1522 43.6668 84.0038 43.5362 83.8482 43.4127C83.71 43.3401 83.5895 43.238 83.4954 43.1135C83.4013 42.9891 83.3359 42.8454 83.3039 42.6928Z" fill="#FFBBAB"/>
</g>
<defs>
<linearGradient id="paint0_linear" x1="47.5679" y1="-45.6369" x2="129.625" y2="84.1655" gradientUnits="userSpaceOnUse">
<stop stop-color="#D5C1FC"/>
<stop offset="1" stop-color="#FB9CCB"/>
</linearGradient>
<linearGradient id="paint1_linear" x1="58.6994" y1="49.6165" x2="68.3216" y2="139.903" gradientUnits="userSpaceOnUse">
<stop offset="0.01"/>
<stop offset="0.08" stop-opacity="0.69"/>
<stop offset="0.21" stop-opacity="0.32"/>
<stop offset="1" stop-opacity="0"/>
</linearGradient>
<linearGradient id="paint2_linear" x1="69.2944" y1="-19.1276" x2="131.53" y2="24.4112" gradientUnits="userSpaceOnUse">
<stop stop-color="#D5C1FC"/>
<stop offset="1" stop-color="#FB9CCB"/>
</linearGradient>
<linearGradient id="paint3_linear" x1="97.2151" y1="26.8621" x2="54.0655" y2="64.4884" gradientUnits="userSpaceOnUse">
<stop stop-color="white"/>
<stop offset="1" stop-color="#CBCBCB"/>
</linearGradient>
<linearGradient id="paint4_linear" x1="68.7343" y1="-14.6329" x2="125.89" y2="22.3596" gradientUnits="userSpaceOnUse">
<stop stop-color="#D5C1FC"/>
<stop offset="1" stop-color="#FB9CCB"/>
</linearGradient>
<linearGradient id="paint5_linear" x1="4058.94" y1="1652.06" x2="3670.01" y2="3129.35" gradientUnits="userSpaceOnUse">
<stop offset="0.01"/>
<stop offset="0.08" stop-opacity="0.69"/>
<stop offset="0.21" stop-opacity="0.32"/>
<stop offset="1" stop-opacity="0"/>
</linearGradient>
<linearGradient id="paint6_linear" x1="-11933" y1="36.6017" x2="-11933" y2="39.5563" gradientUnits="userSpaceOnUse">
<stop stop-color="white"/>
<stop offset="1" stop-color="#CBCBCB"/>
</linearGradient>
<linearGradient id="paint7_linear" x1="-1794.59" y1="265.075" x2="-1794.92" y2="270.281" gradientUnits="userSpaceOnUse">
<stop stop-color="white"/>
<stop offset="1" stop-color="#CBCBCB"/>
</linearGradient>
<linearGradient id="paint8_linear" x1="10.1798" y1="36.9856" x2="28.6836" y2="67.4484" gradientUnits="userSpaceOnUse">
<stop stop-color="#D5C1FC"/>
<stop offset="1" stop-color="#FB9CCB"/>
</linearGradient>
<linearGradient id="paint9_linear" x1="24.3606" y1="46.6346" x2="-11.1246" y2="76.9128" gradientUnits="userSpaceOnUse">
<stop offset="0.01"/>
<stop offset="0.13" stop-opacity="0.69"/>
<stop offset="0.25" stop-opacity="0.32"/>
<stop offset="1" stop-opacity="0"/>
</linearGradient>
<linearGradient id="paint10_linear" x1="17.9816" y1="14.5416" x2="45.1272" y2="26.615" gradientUnits="userSpaceOnUse">
<stop stop-color="#D5C1FC"/>
<stop offset="1" stop-color="#FB9CCB"/>
</linearGradient>
<linearGradient id="paint11_linear" x1="-96.1776" y1="7779.67" x2="2844.07" y2="6840.33" gradientUnits="userSpaceOnUse">
<stop offset="0.01"/>
<stop offset="0.13" stop-opacity="0.69"/>
<stop offset="0.25" stop-opacity="0.32"/>
<stop offset="1" stop-opacity="0"/>
</linearGradient>
<linearGradient id="paint12_linear" x1="39.3349" y1="40.3856" x2="45.0332" y2="44.3452" gradientUnits="userSpaceOnUse">
<stop stop-color="#D5C1FC"/>
<stop offset="1" stop-color="#FB9CCB"/>
</linearGradient>
<linearGradient id="paint13_linear" x1="375.505" y1="953.38" x2="472.088" y2="897.453" gradientUnits="userSpaceOnUse">
<stop offset="0.01"/>
<stop offset="0.08" stop-opacity="0.69"/>
<stop offset="0.21" stop-opacity="0.32"/>
<stop offset="1" stop-opacity="0"/>
</linearGradient>
<linearGradient id="paint14_linear" x1="32.3273" y1="53.7872" x2="34.8293" y2="71.5827" gradientUnits="userSpaceOnUse">
<stop stop-color="#D5C1FC"/>
<stop offset="1" stop-color="#FB9CCB"/>
</linearGradient>
<linearGradient id="paint15_linear" x1="4627.43" y1="574.034" x2="4638.86" y2="1637.08" gradientUnits="userSpaceOnUse">
<stop offset="0.01"/>
<stop offset="0.08" stop-opacity="0.69"/>
<stop offset="0.21" stop-opacity="0.32"/>
<stop offset="1" stop-opacity="0"/>
</linearGradient>
<linearGradient id="paint16_linear" x1="2212.53" y1="1942.42" x2="1517.01" y2="2229" gradientUnits="userSpaceOnUse">
<stop offset="0.01"/>
<stop offset="0.08" stop-opacity="0.69"/>
<stop offset="0.21" stop-opacity="0.32"/>
<stop offset="1" stop-opacity="0"/>
</linearGradient>
<linearGradient id="paint17_linear" x1="32.2588" y1="62.0821" x2="34.7525" y2="79.8721" gradientUnits="userSpaceOnUse">
<stop stop-color="#D5C1FC"/>
<stop offset="1" stop-color="#FB9CCB"/>
</linearGradient>
<linearGradient id="paint18_linear" x1="4627.43" y1="678.859" x2="4638.84" y2="1740.96" gradientUnits="userSpaceOnUse">
<stop offset="0.01"/>
<stop offset="0.08" stop-opacity="0.69"/>
<stop offset="0.21" stop-opacity="0.32"/>
<stop offset="1" stop-opacity="0"/>
</linearGradient>
<linearGradient id="paint19_linear" x1="36.5729" y1="35.929" x2="49.4397" y2="44.785" gradientUnits="userSpaceOnUse">
<stop stop-color="#D5C1FC"/>
<stop offset="1" stop-color="#FB9CCB"/>
</linearGradient>
<linearGradient id="paint20_linear" x1="439.18" y1="1592.4" x2="763.358" y2="1652.12" gradientUnits="userSpaceOnUse">
<stop offset="0.01"/>
<stop offset="0.08" stop-opacity="0.69"/>
<stop offset="0.21" stop-opacity="0.32"/>
<stop offset="1" stop-opacity="0"/>
</linearGradient>
<linearGradient id="paint21_linear" x1="36.0369" y1="41.3139" x2="42.7281" y2="47.0393" gradientUnits="userSpaceOnUse">
<stop stop-color="#D5C1FC"/>
<stop offset="1" stop-color="#FB9CCB"/>
</linearGradient>
<linearGradient id="paint22_linear" x1="43.7844" y1="43.5556" x2="49.2825" y2="56.0265" gradientUnits="userSpaceOnUse">
<stop stop-color="#D5C1FC"/>
<stop offset="1" stop-color="#FB9CCB"/>
</linearGradient>
<linearGradient id="paint23_linear" x1="1461.68" y1="1122.22" x2="1642.95" y2="678.213" gradientUnits="userSpaceOnUse">
<stop offset="0.01"/>
<stop offset="0.08" stop-opacity="0.69"/>
<stop offset="0.21" stop-opacity="0.32"/>
<stop offset="1" stop-opacity="0"/>
</linearGradient>
<linearGradient id="paint24_linear" x1="53.9088" y1="62.5187" x2="54.9608" y2="65.8952" gradientUnits="userSpaceOnUse">
<stop stop-color="#D5C1FC"/>
<stop offset="1" stop-color="#FB9CCB"/>
</linearGradient>
<linearGradient id="paint25_linear" x1="48.5838" y1="65.747" x2="49.4874" y2="69.2429" gradientUnits="userSpaceOnUse">
<stop stop-color="#D5C1FC"/>
<stop offset="1" stop-color="#FB9CCB"/>
</linearGradient>
<linearGradient id="paint26_linear" x1="94.929" y1="46.0892" x2="111.88" y2="55.8111" gradientUnits="userSpaceOnUse">
<stop stop-color="#D5C1FC"/>
<stop offset="1" stop-color="#FB9CCB"/>
</linearGradient>
<linearGradient id="paint27_linear" x1="-22606.6" y1="3574.68" x2="-23418.3" y2="3789.86" gradientUnits="userSpaceOnUse">
<stop offset="0.01"/>
<stop offset="0.08" stop-opacity="0.69"/>
<stop offset="0.21" stop-opacity="0.32"/>
<stop offset="1" stop-opacity="0"/>
</linearGradient>
<linearGradient id="paint28_linear" x1="-5468.6" y1="3414.98" x2="-5308.23" y2="3432.11" gradientUnits="userSpaceOnUse">
<stop offset="0.01"/>
<stop offset="0.08" stop-opacity="0.69"/>
<stop offset="0.21" stop-opacity="0.32"/>
<stop offset="1" stop-opacity="0"/>
</linearGradient>
<linearGradient id="paint29_linear" x1="88.4562" y1="39.6622" x2="94.3982" y2="49.1567" gradientUnits="userSpaceOnUse">
<stop stop-color="#D5C1FC"/>
<stop offset="1" stop-color="#FB9CCB"/>
</linearGradient>
<linearGradient id="paint30_linear" x1="-20835.4" y1="780.075" x2="-20806.3" y2="628.08" gradientUnits="userSpaceOnUse">
<stop offset="0.01"/>
<stop offset="0.08" stop-opacity="0.69"/>
<stop offset="0.21" stop-opacity="0.32"/>
<stop offset="1" stop-opacity="0"/>
</linearGradient>
<linearGradient id="paint31_linear" x1="95.1504" y1="32.6272" x2="112.135" y2="45.3485" gradientUnits="userSpaceOnUse">
<stop stop-color="#D5C1FC"/>
<stop offset="1" stop-color="#FB9CCB"/>
</linearGradient>
<linearGradient id="paint32_linear" x1="-13370.4" y1="1010.17" x2="-13271.3" y2="1190.29" gradientUnits="userSpaceOnUse">
<stop offset="0.01"/>
<stop offset="0.08" stop-opacity="0.69"/>
<stop offset="0.21" stop-opacity="0.32"/>
<stop offset="1" stop-opacity="0"/>
</linearGradient>
<linearGradient id="paint33_linear" x1="97.7512" y1="36.4772" x2="110.64" y2="48.2968" gradientUnits="userSpaceOnUse">
<stop stop-color="#D5C1FC"/>
<stop offset="1" stop-color="#FB9CCB"/>
</linearGradient>
<linearGradient id="paint34_linear" x1="-4306.17" y1="3068.48" x2="-4362.13" y2="3070.07" gradientUnits="userSpaceOnUse">
<stop offset="0.01"/>
<stop offset="0.08" stop-opacity="0.69"/>
<stop offset="0.21" stop-opacity="0.32"/>
<stop offset="1" stop-opacity="0"/>
</linearGradient>
<linearGradient id="paint35_linear" x1="-20778" y1="1827.16" x2="-20285.5" y2="1989.88" gradientUnits="userSpaceOnUse">
<stop offset="0.01"/>
<stop offset="0.08" stop-opacity="0.69"/>
<stop offset="0.21" stop-opacity="0.32"/>
<stop offset="1" stop-opacity="0"/>
</linearGradient>
<clipPath id="clip0">
<rect width="107" height="83" fill="white"/>
</clipPath>
</defs>
</svg>
