<svg width="999" height="698" viewBox="0 0 999 698" fill="none" xmlns="http://www.w3.org/2000/svg">
<g clip-path="url(#clip0)">
<path d="M252.668 24H149.668V144H252.668V24Z" fill="#F2F2F2"/>
<path d="M530.668 94H427.668V214H530.668V94Z" fill="#F2F2F2"/>
<path d="M809.668 24H706.668V144H809.668V24Z" fill="#F2F2F2"/>
<path d="M499.611 430.337H228.621V497.907H499.611V430.337Z" fill="#3F3D56"/>
<path d="M784.198 696.3H545.438L612.488 580.17L664.818 489.53L784.198 696.3Z" fill="#3F3D56"/>
<path d="M533.778 515.85H136.938V696.35H533.778V515.85Z" fill="#3F3D56"/>
<path d="M664.4 489.37C690.388 489.37 711.455 468.303 711.455 442.315C711.455 416.327 690.388 395.26 664.4 395.26C638.412 395.26 617.345 416.327 617.345 442.315C617.345 468.303 638.412 489.37 664.4 489.37Z" fill="#A880F7"/>
<path d="M862.354 695.551H1.56445V697.551H862.354V695.551Z" fill="#3F3D56"/>
<path opacity="0.1" d="M499.608 434.87V497.91H435.798L474.798 430.34H496.998L499.608 434.87Z" fill="black"/>
<path opacity="0.1" d="M533.778 515.85V696.35H321.228L321.428 696L425.438 515.85H533.778Z" fill="black"/>
<path opacity="0.1" d="M679.538 696.3H545.438L612.488 580.17L615.488 585.36L679.538 696.3Z" fill="black"/>
<path d="M664.628 696.45H335.168L335.428 696L443.478 508.85L499.898 411.12L600.488 585.36L664.538 696.3L664.628 696.45Z" fill="#A880F7"/>
<path d="M499.4 413.583C510.594 413.583 519.668 404.509 519.668 393.315C519.668 382.121 510.594 373.047 499.4 373.047C488.207 373.047 479.133 382.121 479.133 393.315C479.133 404.509 488.207 413.583 499.4 413.583Z" fill="#3F3D56"/>
<path d="M443.438 399.766C402.348 399.797 361.543 392.948 322.715 379.501C270.663 361.504 228.021 336.68 195.973 305.719C135.352 247.153 85.6518 238.327 54.6396 241.233C21.0693 244.381 1.52879 261.571 1.33543 261.745L-3.05176e-05 260.256C0.197229 260.079 20.1406 242.498 54.3232 239.254C74.3686 237.354 95.331 240.666 116.63 249.102C143.19 259.622 170.353 278.187 197.363 304.281C229.199 335.038 271.594 359.71 323.369 377.61C418.416 410.472 525.538 402.516 617.268 355.781C647.639 340.307 677.656 329.744 706.485 324.387C742.839 317.63 777.315 319.199 808.965 329.045C878.514 350.683 926.019 349.535 953.623 344.765C983.407 339.617 996.921 329.314 997.054 329.211L998.282 330.789C997.723 331.224 984.236 341.503 953.963 346.735C926.141 351.545 878.296 352.71 808.371 330.955C737.57 308.93 665.862 333.267 618.176 357.563C572.837 380.785 523.33 394.751 472.539 398.647C462.804 399.393 453.103 399.765 443.438 399.766Z" fill="#3F3D56"/>
<path d="M217.649 323.348L216.218 321.951C222.8 314.488 227.789 305.759 230.88 296.3C235.746 281.657 238.123 258.531 221.812 231.517C205.124 203.877 204.373 181.428 206.681 167.462C209.193 152.266 215.602 143.748 215.874 143.393L217.463 144.607C217.399 144.69 211.046 153.163 208.635 167.906C206.41 181.518 207.186 203.423 223.524 230.483C240.251 258.188 237.773 281.956 232.75 297.016C227.306 313.334 218.041 322.947 217.649 323.348Z" fill="#3F3D56"/>
<path d="M292.668 145H148.668V1H292.668V145ZM150.668 143H290.668V3H150.668V143Z" fill="#3F3D56"/>
<path d="M496.649 394.348L495.218 392.951C501.8 385.488 506.789 376.76 509.88 367.301C514.746 352.657 517.122 329.531 500.812 302.517C484.124 274.877 483.373 252.428 485.682 238.462C488.193 223.266 494.602 214.748 494.874 214.393L496.463 215.607C496.399 215.69 490.046 224.163 487.635 238.906C485.409 252.518 486.186 274.423 502.524 301.483C519.252 329.188 516.773 352.956 511.749 368.017C506.306 384.334 497.041 393.946 496.649 394.348Z" fill="#3F3D56"/>
<path d="M571.668 216H427.668V72H571.668V216ZM429.668 214H569.668V74H429.668V214Z" fill="#3F3D56"/>
<path d="M774.649 322.348L773.218 320.951C779.8 313.488 784.789 304.759 787.88 295.3C792.746 280.657 795.122 257.531 778.812 230.517C762.124 202.877 761.373 180.428 763.682 166.462C766.193 151.266 772.602 142.748 772.874 142.393L774.463 143.607C774.399 143.69 768.046 152.163 765.635 166.906C763.409 180.518 764.186 202.423 780.524 229.483C797.252 257.188 794.773 280.956 789.749 296.016C784.306 312.334 775.041 321.947 774.649 322.348Z" fill="#3F3D56"/>
<path d="M849.668 144H705.668V0H849.668V144ZM707.668 142H847.668V2H707.668V142Z" fill="#3F3D56"/>
<path d="M266.668 43H178.668V45H266.668V43Z" fill="#3F3D56"/>
<path d="M266.668 65H178.668V67H266.668V65Z" fill="#3F3D56"/>
<path d="M266.668 87H178.668V89H266.668V87Z" fill="#3F3D56"/>
<path d="M543.668 111H455.668V113H543.668V111Z" fill="#3F3D56"/>
<path d="M543.668 133H455.668V135H543.668V133Z" fill="#3F3D56"/>
<path d="M543.668 155H455.668V157H543.668V155Z" fill="#3F3D56"/>
<path d="M821.668 43H733.668V45H821.668V43Z" fill="#3F3D56"/>
<path d="M821.668 65H733.668V67H821.668V65Z" fill="#3F3D56"/>
<path d="M821.668 87H733.668V89H821.668V87Z" fill="#3F3D56"/>
<path d="M821.42 664.152C826.811 684.08 845.276 696.422 845.276 696.422C845.276 696.422 855.001 676.454 849.61 656.526C844.219 636.598 825.754 624.256 825.754 624.256C825.754 624.256 816.029 644.224 821.42 664.152Z" fill="#A880F7"/>
<path d="M829.342 659.869C844.135 674.27 845.942 696.406 845.942 696.406C845.942 696.406 823.764 695.195 808.971 680.795C794.179 666.395 792.372 644.258 792.372 644.258C792.372 644.258 814.549 645.469 829.342 659.869Z" fill="#3F3D56"/>
<path d="M294.668 558H191.668V678H294.668V558Z" fill="#F2F2F2"/>
<path d="M334.668 678H190.668V534H334.668V678ZM192.668 676H332.668V536H192.668V676Z" fill="white"/>
<path d="M306.668 577H218.668V579H306.668V577Z" fill="#A880F7"/>
<path d="M306.668 599H218.668V601H306.668V599Z" fill="#A880F7"/>
<path d="M306.668 621H218.668V623H306.668V621Z" fill="#A880F7"/>
<path d="M226.538 217.187H226.538C202.506 217.187 183.025 238.807 183.025 265.477V299.362H193.446L199.479 286.807L197.971 299.362H264.956L270.441 287.949L269.069 299.362H276.611V272.756C276.611 242.066 254.193 217.187 226.538 217.187Z" fill="#2F2E41"/>
<path d="M176.679 438.572L149.962 449.927L57.1202 525.402C53.7063 529.598 51.6142 534.712 51.1089 540.097C50.441 548.78 22.388 594.199 32.4069 600.21C42.4258 606.222 78.4939 624.256 80.4976 612.233C82.5014 600.21 93.1883 548.78 93.1883 548.78L182.691 468.629L176.679 438.572Z" fill="#2F2E41"/>
<path d="M71.8146 602.214L60.4599 635.61C60.4599 635.61 72.4826 648.301 66.4712 658.988V695.724H57.1202L54.4485 676.354C54.4485 676.354 43.7977 695.479 38.4183 695.724C27.1411 696.237 4.80902 700.248 4.14109 694.237C3.47316 688.225 21.0522 682.365 21.0522 682.365L39.7542 630.935L47.7693 599.542L71.8146 602.214Z" fill="#2F2E41"/>
<path d="M246.144 429.889C246.144 429.889 252.155 488.666 234.789 499.353C217.423 510.04 140.611 544.104 140.611 544.104C140.611 544.104 173.34 574.829 166.66 582.176C159.981 589.523 129.924 609.561 125.917 605.554C121.909 601.546 77.158 553.455 82.5014 538.093C87.8449 522.731 161.985 472.636 161.985 472.636L170.668 441.243L173.34 415.862L201.392 397.828L246.144 429.889Z" fill="#2F2E41"/>
<path d="M215.543 293.04C230.921 293.04 243.387 280.573 243.387 265.195C243.387 249.817 230.921 237.35 215.543 237.35C200.164 237.35 187.698 249.817 187.698 265.195C187.698 280.573 200.164 293.04 215.543 293.04Z" fill="#FFB9B9"/>
<path d="M237.127 276.599C237.127 276.599 235.791 301.981 256.496 309.996C277.202 318.011 205.066 370.109 205.066 370.109V312C205.066 312 214.417 301.981 205.066 286.618L237.127 276.599Z" fill="#FFB9B9"/>
<path d="M281.544 395.824L276.2 421.874L260.17 511.376C260.17 511.376 273.529 549.448 255.495 548.78C237.461 548.112 246.144 507.368 246.144 507.368L255.495 433.228V404.508L281.544 395.824Z" fill="#FFB9B9"/>
<path d="M166.66 383.134L160.649 406.511L133.264 472.636C133.264 472.636 114.562 504.029 129.924 503.361C145.287 502.693 145.287 472.636 145.287 472.636L176.679 419.202V389.145L166.66 383.134Z" fill="#FFB9B9"/>
<path d="M161.985 578.169L184.026 598.874C184.026 598.874 199.389 595.535 205.4 613.569C211.411 631.603 215.419 642.958 215.419 642.958L207.404 647.633L197.385 633.607C197.385 633.607 191.374 658.988 185.362 660.992C179.351 662.995 149.294 676.354 151.966 660.992L166.66 639.618C166.66 639.618 168.664 615.573 162.653 613.569C156.641 611.565 140.611 591.527 140.611 591.527L161.985 578.169Z" fill="#2F2E41"/>
<path d="M247.202 450.594C247.202 450.594 184.417 427.885 180.41 429.889C177.427 431.207 174.249 432.031 171.002 432.331L171.059 423.21C171.059 423.21 191.765 415.862 203.119 420.538C214.474 425.213 249.206 445.919 249.206 445.919L247.202 450.594Z" fill="#3F3D56"/>
<path d="M209.074 356.751C209.074 356.751 227.108 336.045 232.451 323.354C235.832 315.661 242.037 309.559 249.786 306.308C249.786 306.308 289.893 315.339 289.225 331.369C288.557 347.4 263.844 372.113 263.844 372.113C263.844 372.113 267.183 460.947 249.149 459.611C245.259 454.969 242.514 449.478 241.134 443.581C239.13 434.23 177.013 424.211 177.013 424.211C177.013 424.211 171.67 433.562 171.002 429.555C170.334 425.547 176.345 327.362 176.345 327.362L208.197 306.308L209.074 356.751Z" fill="#D0CDE1"/>
<path d="M284.08 324.917L284.527 325.168C285.955 325.969 287.143 327.136 287.97 328.548C288.797 329.961 289.233 331.568 289.232 333.205L289.226 382.774C289.231 384.121 289.529 385.452 290.099 386.672C290.67 387.893 291.499 388.975 292.529 389.843C295.102 392.031 297.488 395.185 292.565 396.826C284.549 399.498 253.157 412.856 252.489 408.181C251.821 403.506 250.485 398.162 252.489 398.162C254.058 398.162 263.404 350.266 270.914 329.788C271.373 328.534 272.099 327.395 273.041 326.449C273.983 325.504 275.12 324.774 276.372 324.311C277.624 323.847 278.962 323.662 280.292 323.766C281.623 323.871 282.916 324.264 284.08 324.917V324.917Z" fill="#D0CDE1"/>
<path d="M185.362 325.024L176.011 327.696L165.324 373.783C165.324 373.783 152.634 376.455 156.641 381.13C160.649 385.806 177.347 397.828 177.347 397.828L185.362 325.024Z" fill="#D0CDE1"/>
<path d="M238.909 230.489C236.815 227.677 234.101 225.386 230.978 223.792C227.856 222.198 224.408 221.346 220.902 221.3H220.048C203.576 221.3 190.223 236.205 190.223 254.591V254.591H195.743L196.634 247.807L197.941 254.591H230.675L233.417 248.851L232.732 254.591H239.171C242.176 269.515 237.859 284.438 226.218 299.362H237.188L242.673 287.882L241.302 299.362H262.213L266.327 272.959C266.327 253.185 254.838 236.417 238.909 230.489Z" fill="#2F2E41"/>
<path opacity="0.1" d="M415.141 430.337H311.141V464.237H415.141V430.337Z" fill="black"/>
<path d="M411.141 401.237H317.141V459.237H411.141V401.237Z" fill="#A880F7"/>
</g>
<defs>
<clipPath id="clip0">
<rect width="998.282" height="697.551" fill="white"/>
</clipPath>
</defs>
</svg>
