<svg width="1041" height="650" viewBox="0 0 1041 650" fill="none" xmlns="http://www.w3.org/2000/svg">
<g clip-path="url(#clip0)">
<path d="M254.48 408.16H169.16C164.278 408.16 160.32 412.118 160.32 417V440.32C160.32 445.202 164.278 449.16 169.16 449.16H254.48C259.362 449.16 263.32 445.202 263.32 440.32V417C263.32 412.118 259.362 408.16 254.48 408.16Z" fill="#A880F7"/>
<path d="M357.48 408.16H272.16C267.278 408.16 263.32 412.118 263.32 417V440.32C263.32 445.202 267.278 449.16 272.16 449.16H357.48C362.362 449.16 366.32 445.202 366.32 440.32V417C366.32 412.118 362.362 408.16 357.48 408.16Z" fill="#A880F7"/>
<path opacity="0.1" d="M357.48 408.16H272.16C267.278 408.16 263.32 412.118 263.32 417V440.32C263.32 445.202 267.278 449.16 272.16 449.16H357.48C362.362 449.16 366.32 445.202 366.32 440.32V417C366.32 412.118 362.362 408.16 357.48 408.16Z" fill="black"/>
<path d="M460.48 408.16H375.16C370.278 408.16 366.32 412.118 366.32 417V440.32C366.32 445.202 370.278 449.16 375.16 449.16H460.48C465.362 449.16 469.32 445.202 469.32 440.32V417C469.32 412.118 465.362 408.16 460.48 408.16Z" fill="#A880F7"/>
<path d="M563.48 408.16H478.16C473.278 408.16 469.32 412.118 469.32 417V440.32C469.32 445.202 473.278 449.16 478.16 449.16H563.48C568.362 449.16 572.32 445.202 572.32 440.32V417C572.32 412.118 568.362 408.16 563.48 408.16Z" fill="#A880F7"/>
<path opacity="0.1" d="M563.48 408.16H478.16C473.278 408.16 469.32 412.118 469.32 417V440.32C469.32 445.202 473.278 449.16 478.16 449.16H563.48C568.362 449.16 572.32 445.202 572.32 440.32V417C572.32 412.118 568.362 408.16 563.48 408.16Z" fill="black"/>
<path d="M666.48 408.16H581.16C576.278 408.16 572.32 412.118 572.32 417V440.32C572.32 445.202 576.278 449.16 581.16 449.16H666.48C671.362 449.16 675.32 445.202 675.32 440.32V417C675.32 412.118 671.362 408.16 666.48 408.16Z" fill="#A880F7"/>
<path d="M769.48 408.16H684.16C679.278 408.16 675.32 412.118 675.32 417V440.32C675.32 445.202 679.278 449.16 684.16 449.16H769.48C774.362 449.16 778.32 445.202 778.32 440.32V417C778.32 412.118 774.362 408.16 769.48 408.16Z" fill="#A880F7"/>
<path opacity="0.1" d="M769.48 408.16H684.16C679.278 408.16 675.32 412.118 675.32 417V440.32C675.32 445.202 679.278 449.16 684.16 449.16H769.48C774.362 449.16 778.32 445.202 778.32 440.32V417C778.32 412.118 774.362 408.16 769.48 408.16Z" fill="black"/>
<path d="M684.16 408.16H769.48C774.362 408.16 778.32 404.202 778.32 399.32V376C778.32 371.118 774.362 367.16 769.48 367.16H684.16C679.278 367.16 675.32 371.118 675.32 376V399.32C675.32 404.202 679.278 408.16 684.16 408.16Z" fill="#A880F7"/>
<path d="M581.16 408.16H666.48C671.362 408.16 675.32 404.202 675.32 399.32V376C675.32 371.118 671.362 367.16 666.48 367.16H581.16C576.278 367.16 572.32 371.118 572.32 376V399.32C572.32 404.202 576.278 408.16 581.16 408.16Z" fill="#A880F7"/>
<path opacity="0.1" d="M581.16 408.16H666.48C671.362 408.16 675.32 404.202 675.32 399.32V376C675.32 371.118 671.362 367.16 666.48 367.16H581.16C576.278 367.16 572.32 371.118 572.32 376V399.32C572.32 404.202 576.278 408.16 581.16 408.16Z" fill="black"/>
<path d="M478.16 408.16H563.48C568.362 408.16 572.32 404.202 572.32 399.32V376C572.32 371.118 568.362 367.16 563.48 367.16H478.16C473.278 367.16 469.32 371.118 469.32 376V399.32C469.32 404.202 473.278 408.16 478.16 408.16Z" fill="#A880F7"/>
<path d="M375.16 408.16H460.48C465.362 408.16 469.32 404.202 469.32 399.32V376C469.32 371.118 465.362 367.16 460.48 367.16H375.16C370.278 367.16 366.32 371.118 366.32 376V399.32C366.32 404.202 370.278 408.16 375.16 408.16Z" fill="#A880F7"/>
<path opacity="0.1" d="M375.16 408.16H460.48C465.362 408.16 469.32 404.202 469.32 399.32V376C469.32 371.118 465.362 367.16 460.48 367.16H375.16C370.278 367.16 366.32 371.118 366.32 376V399.32C366.32 404.202 370.278 408.16 375.16 408.16Z" fill="black"/>
<path d="M272.16 408.16H357.48C362.362 408.16 366.32 404.202 366.32 399.32V376C366.32 371.118 362.362 367.16 357.48 367.16H272.16C267.278 367.16 263.32 371.118 263.32 376V399.32C263.32 404.202 267.278 408.16 272.16 408.16Z" fill="#A880F7"/>
<path d="M169.16 408.16H254.48C259.362 408.16 263.32 404.202 263.32 399.32V376C263.32 371.118 259.362 367.16 254.48 367.16H169.16C164.278 367.16 160.32 371.118 160.32 376V399.32C160.32 404.202 164.278 408.16 169.16 408.16Z" fill="#A880F7"/>
<path opacity="0.1" d="M169.16 408.16H254.48C259.362 408.16 263.32 404.202 263.32 399.32V376C263.32 371.118 259.362 367.16 254.48 367.16H169.16C164.278 367.16 160.32 371.118 160.32 376V399.32C160.32 404.202 164.278 408.16 169.16 408.16Z" fill="black"/>
<path d="M254.48 326.16H169.16C164.278 326.16 160.32 330.118 160.32 335V358.32C160.32 363.202 164.278 367.16 169.16 367.16H254.48C259.362 367.16 263.32 363.202 263.32 358.32V335C263.32 330.118 259.362 326.16 254.48 326.16Z" fill="#A880F7"/>
<path d="M357.48 326.16H272.16C267.278 326.16 263.32 330.118 263.32 335V358.32C263.32 363.202 267.278 367.16 272.16 367.16H357.48C362.362 367.16 366.32 363.202 366.32 358.32V335C366.32 330.118 362.362 326.16 357.48 326.16Z" fill="#A880F7"/>
<path opacity="0.1" d="M357.48 326.16H272.16C267.278 326.16 263.32 330.118 263.32 335V358.32C263.32 363.202 267.278 367.16 272.16 367.16H357.48C362.362 367.16 366.32 363.202 366.32 358.32V335C366.32 330.118 362.362 326.16 357.48 326.16Z" fill="black"/>
<path d="M460.48 326.16H375.16C370.278 326.16 366.32 330.118 366.32 335V358.32C366.32 363.202 370.278 367.16 375.16 367.16H460.48C465.362 367.16 469.32 363.202 469.32 358.32V335C469.32 330.118 465.362 326.16 460.48 326.16Z" fill="#A880F7"/>
<path d="M563.48 326.16H478.16C473.278 326.16 469.32 330.118 469.32 335V358.32C469.32 363.202 473.278 367.16 478.16 367.16H563.48C568.362 367.16 572.32 363.202 572.32 358.32V335C572.32 330.118 568.362 326.16 563.48 326.16Z" fill="#A880F7"/>
<path opacity="0.1" d="M563.48 326.16H478.16C473.278 326.16 469.32 330.118 469.32 335V358.32C469.32 363.202 473.278 367.16 478.16 367.16H563.48C568.362 367.16 572.32 363.202 572.32 358.32V335C572.32 330.118 568.362 326.16 563.48 326.16Z" fill="black"/>
<path d="M666.48 326.16H581.16C576.278 326.16 572.32 330.118 572.32 335V358.32C572.32 363.202 576.278 367.16 581.16 367.16H666.48C671.362 367.16 675.32 363.202 675.32 358.32V335C675.32 330.118 671.362 326.16 666.48 326.16Z" fill="#A880F7"/>
<path d="M769.48 326.16H684.16C679.278 326.16 675.32 330.118 675.32 335V358.32C675.32 363.202 679.278 367.16 684.16 367.16H769.48C774.362 367.16 778.32 363.202 778.32 358.32V335C778.32 330.118 774.362 326.16 769.48 326.16Z" fill="#A880F7"/>
<path opacity="0.1" d="M769.48 326.16H684.16C679.278 326.16 675.32 330.118 675.32 335V358.32C675.32 363.202 679.278 367.16 684.16 367.16H769.48C774.362 367.16 778.32 363.202 778.32 358.32V335C778.32 330.118 774.362 326.16 769.48 326.16Z" fill="black"/>
<path d="M684.16 326.16H769.48C774.362 326.16 778.32 322.202 778.32 317.32V294C778.32 289.118 774.362 285.16 769.48 285.16H684.16C679.278 285.16 675.32 289.118 675.32 294V317.32C675.32 322.202 679.278 326.16 684.16 326.16Z" fill="#A880F7"/>
<path d="M581.16 326.16H666.48C671.362 326.16 675.32 322.202 675.32 317.32V294C675.32 289.118 671.362 285.16 666.48 285.16H581.16C576.278 285.16 572.32 289.118 572.32 294V317.32C572.32 322.202 576.278 326.16 581.16 326.16Z" fill="#A880F7"/>
<path opacity="0.1" d="M581.16 326.16H666.48C671.362 326.16 675.32 322.202 675.32 317.32V294C675.32 289.118 671.362 285.16 666.48 285.16H581.16C576.278 285.16 572.32 289.118 572.32 294V317.32C572.32 322.202 576.278 326.16 581.16 326.16Z" fill="black"/>
<path d="M478.16 326.16H563.48C568.362 326.16 572.32 322.202 572.32 317.32V294C572.32 289.118 568.362 285.16 563.48 285.16H478.16C473.278 285.16 469.32 289.118 469.32 294V317.32C469.32 322.202 473.278 326.16 478.16 326.16Z" fill="#A880F7"/>
<path d="M375.16 326.16H460.48C465.362 326.16 469.32 322.202 469.32 317.32V294C469.32 289.118 465.362 285.16 460.48 285.16H375.16C370.278 285.16 366.32 289.118 366.32 294V317.32C366.32 322.202 370.278 326.16 375.16 326.16Z" fill="#A880F7"/>
<path opacity="0.1" d="M375.16 326.16H460.48C465.362 326.16 469.32 322.202 469.32 317.32V294C469.32 289.118 465.362 285.16 460.48 285.16H375.16C370.278 285.16 366.32 289.118 366.32 294V317.32C366.32 322.202 370.278 326.16 375.16 326.16Z" fill="black"/>
<path d="M272.16 326.16H357.48C362.362 326.16 366.32 322.202 366.32 317.32V294C366.32 289.118 362.362 285.16 357.48 285.16H272.16C267.278 285.16 263.32 289.118 263.32 294V317.32C263.32 322.202 267.278 326.16 272.16 326.16Z" fill="#A880F7"/>
<path d="M169.16 326.16H254.48C259.362 326.16 263.32 322.202 263.32 317.32V294C263.32 289.118 259.362 285.16 254.48 285.16H169.16C164.278 285.16 160.32 289.118 160.32 294V317.32C160.32 322.202 164.278 326.16 169.16 326.16Z" fill="#A880F7"/>
<path opacity="0.1" d="M169.16 326.16H254.48C259.362 326.16 263.32 322.202 263.32 317.32V294C263.32 289.118 259.362 285.16 254.48 285.16H169.16C164.278 285.16 160.32 289.118 160.32 294V317.32C160.32 322.202 164.278 326.16 169.16 326.16Z" fill="black"/>
<path d="M254.48 246.16H169.16C164.278 246.16 160.32 250.118 160.32 255V278.32C160.32 283.202 164.278 287.16 169.16 287.16H254.48C259.362 287.16 263.32 283.202 263.32 278.32V255C263.32 250.118 259.362 246.16 254.48 246.16Z" fill="#A880F7"/>
<path d="M357.48 246.16H272.16C267.278 246.16 263.32 250.118 263.32 255V278.32C263.32 283.202 267.278 287.16 272.16 287.16H357.48C362.362 287.16 366.32 283.202 366.32 278.32V255C366.32 250.118 362.362 246.16 357.48 246.16Z" fill="#A880F7"/>
<path opacity="0.1" d="M357.48 246.16H272.16C267.278 246.16 263.32 250.118 263.32 255V278.32C263.32 283.202 267.278 287.16 272.16 287.16H357.48C362.362 287.16 366.32 283.202 366.32 278.32V255C366.32 250.118 362.362 246.16 357.48 246.16Z" fill="black"/>
<path d="M460.48 246.16H375.16C370.278 246.16 366.32 250.118 366.32 255V278.32C366.32 283.202 370.278 287.16 375.16 287.16H460.48C465.362 287.16 469.32 283.202 469.32 278.32V255C469.32 250.118 465.362 246.16 460.48 246.16Z" fill="#A880F7"/>
<path d="M563.48 246.16H478.16C473.278 246.16 469.32 250.118 469.32 255V278.32C469.32 283.202 473.278 287.16 478.16 287.16H563.48C568.362 287.16 572.32 283.202 572.32 278.32V255C572.32 250.118 568.362 246.16 563.48 246.16Z" fill="#A880F7"/>
<path opacity="0.1" d="M563.48 246.16H478.16C473.278 246.16 469.32 250.118 469.32 255V278.32C469.32 283.202 473.278 287.16 478.16 287.16H563.48C568.362 287.16 572.32 283.202 572.32 278.32V255C572.32 250.118 568.362 246.16 563.48 246.16Z" fill="black"/>
<path d="M666.48 246.16H581.16C576.278 246.16 572.32 250.118 572.32 255V278.32C572.32 283.202 576.278 287.16 581.16 287.16H666.48C671.362 287.16 675.32 283.202 675.32 278.32V255C675.32 250.118 671.362 246.16 666.48 246.16Z" fill="#A880F7"/>
<path d="M769.48 246.16H684.16C679.278 246.16 675.32 250.118 675.32 255V278.32C675.32 283.202 679.278 287.16 684.16 287.16H769.48C774.362 287.16 778.32 283.202 778.32 278.32V255C778.32 250.118 774.362 246.16 769.48 246.16Z" fill="#A880F7"/>
<path opacity="0.1" d="M769.48 246.16H684.16C679.278 246.16 675.32 250.118 675.32 255V278.32C675.32 283.202 679.278 287.16 684.16 287.16H769.48C774.362 287.16 778.32 283.202 778.32 278.32V255C778.32 250.118 774.362 246.16 769.48 246.16Z" fill="black"/>
<path d="M684.16 246.16H769.48C774.362 246.16 778.32 242.202 778.32 237.32V214C778.32 209.118 774.362 205.16 769.48 205.16H684.16C679.278 205.16 675.32 209.118 675.32 214V237.32C675.32 242.202 679.278 246.16 684.16 246.16Z" fill="#A880F7"/>
<path d="M581.16 246.16H666.48C671.362 246.16 675.32 242.202 675.32 237.32V214C675.32 209.118 671.362 205.16 666.48 205.16H581.16C576.278 205.16 572.32 209.118 572.32 214V237.32C572.32 242.202 576.278 246.16 581.16 246.16Z" fill="#A880F7"/>
<path opacity="0.1" d="M581.16 246.16H666.48C671.362 246.16 675.32 242.202 675.32 237.32V214C675.32 209.118 671.362 205.16 666.48 205.16H581.16C576.278 205.16 572.32 209.118 572.32 214V237.32C572.32 242.202 576.278 246.16 581.16 246.16Z" fill="black"/>
<path d="M478.16 246.16H563.48C568.362 246.16 572.32 242.202 572.32 237.32V214C572.32 209.118 568.362 205.16 563.48 205.16H478.16C473.278 205.16 469.32 209.118 469.32 214V237.32C469.32 242.202 473.278 246.16 478.16 246.16Z" fill="#A880F7"/>
<path d="M375.16 246.16H460.48C465.362 246.16 469.32 242.202 469.32 237.32V214C469.32 209.118 465.362 205.16 460.48 205.16H375.16C370.278 205.16 366.32 209.118 366.32 214V237.32C366.32 242.202 370.278 246.16 375.16 246.16Z" fill="#A880F7"/>
<path opacity="0.1" d="M375.16 246.16H460.48C465.362 246.16 469.32 242.202 469.32 237.32V214C469.32 209.118 465.362 205.16 460.48 205.16H375.16C370.278 205.16 366.32 209.118 366.32 214V237.32C366.32 242.202 370.278 246.16 375.16 246.16Z" fill="black"/>
<path d="M272.16 246.16H357.48C362.362 246.16 366.32 242.202 366.32 237.32V214C366.32 209.118 362.362 205.16 357.48 205.16H272.16C267.278 205.16 263.32 209.118 263.32 214V237.32C263.32 242.202 267.278 246.16 272.16 246.16Z" fill="#A880F7"/>
<path d="M169.16 246.16H254.48C259.362 246.16 263.32 242.202 263.32 237.32V214C263.32 209.118 259.362 205.16 254.48 205.16H169.16C164.278 205.16 160.32 209.118 160.32 214V237.32C160.32 242.202 164.278 246.16 169.16 246.16Z" fill="#A880F7"/>
<path opacity="0.1" d="M169.16 246.16H254.48C259.362 246.16 263.32 242.202 263.32 237.32V214C263.32 209.118 259.362 205.16 254.48 205.16H169.16C164.278 205.16 160.32 209.118 160.32 214V237.32C160.32 242.202 164.278 246.16 169.16 246.16Z" fill="black"/>
<path d="M254.48 164.16H169.16C164.278 164.16 160.32 168.118 160.32 173V196.32C160.32 201.202 164.278 205.16 169.16 205.16H254.48C259.362 205.16 263.32 201.202 263.32 196.32V173C263.32 168.118 259.362 164.16 254.48 164.16Z" fill="#A880F7"/>
<path d="M357.48 164.16H272.16C267.278 164.16 263.32 168.118 263.32 173V196.32C263.32 201.202 267.278 205.16 272.16 205.16H357.48C362.362 205.16 366.32 201.202 366.32 196.32V173C366.32 168.118 362.362 164.16 357.48 164.16Z" fill="#A880F7"/>
<path opacity="0.1" d="M357.48 164.16H272.16C267.278 164.16 263.32 168.118 263.32 173V196.32C263.32 201.202 267.278 205.16 272.16 205.16H357.48C362.362 205.16 366.32 201.202 366.32 196.32V173C366.32 168.118 362.362 164.16 357.48 164.16Z" fill="black"/>
<path d="M460.48 164.16H375.16C370.278 164.16 366.32 168.118 366.32 173V196.32C366.32 201.202 370.278 205.16 375.16 205.16H460.48C465.362 205.16 469.32 201.202 469.32 196.32V173C469.32 168.118 465.362 164.16 460.48 164.16Z" fill="#A880F7"/>
<path d="M563.48 164.16H478.16C473.278 164.16 469.32 168.118 469.32 173V196.32C469.32 201.202 473.278 205.16 478.16 205.16H563.48C568.362 205.16 572.32 201.202 572.32 196.32V173C572.32 168.118 568.362 164.16 563.48 164.16Z" fill="#A880F7"/>
<path opacity="0.1" d="M563.48 164.16H478.16C473.278 164.16 469.32 168.118 469.32 173V196.32C469.32 201.202 473.278 205.16 478.16 205.16H563.48C568.362 205.16 572.32 201.202 572.32 196.32V173C572.32 168.118 568.362 164.16 563.48 164.16Z" fill="black"/>
<path d="M666.48 164.16H581.16C576.278 164.16 572.32 168.118 572.32 173V196.32C572.32 201.202 576.278 205.16 581.16 205.16H666.48C671.362 205.16 675.32 201.202 675.32 196.32V173C675.32 168.118 671.362 164.16 666.48 164.16Z" fill="#A880F7"/>
<path d="M769.48 164.16H684.16C679.278 164.16 675.32 168.118 675.32 173V196.32C675.32 201.202 679.278 205.16 684.16 205.16H769.48C774.362 205.16 778.32 201.202 778.32 196.32V173C778.32 168.118 774.362 164.16 769.48 164.16Z" fill="#A880F7"/>
<path opacity="0.1" d="M769.48 164.16H684.16C679.278 164.16 675.32 168.118 675.32 173V196.32C675.32 201.202 679.278 205.16 684.16 205.16H769.48C774.362 205.16 778.32 201.202 778.32 196.32V173C778.32 168.118 774.362 164.16 769.48 164.16Z" fill="black"/>
<path d="M769.48 27.5699H676.16C671.278 27.5699 667.32 31.5277 667.32 36.4099V62.9099C667.32 67.7921 671.278 71.7499 676.16 71.7499H769.48C774.362 71.7499 778.32 67.7921 778.32 62.9099V36.4099C778.32 31.5277 774.362 27.5699 769.48 27.5699Z" fill="url(#paint0_linear)"/>
<path d="M680.16 70.16L765.48 70.16C770.362 70.16 774.32 66.2022 774.32 61.32V38C774.32 33.1178 770.362 29.16 765.48 29.16L680.16 29.16C675.278 29.16 671.32 33.1178 671.32 38V61.32C671.32 66.2022 675.278 70.16 680.16 70.16Z" fill="#A880F7"/>
<path d="M581.16 164.16H666.48C671.362 164.16 675.32 160.202 675.32 155.32V132C675.32 127.118 671.362 123.16 666.48 123.16L581.16 123.16C576.278 123.16 572.32 127.118 572.32 132V155.32C572.32 160.202 576.278 164.16 581.16 164.16Z" fill="#A880F7"/>
<path opacity="0.1" d="M581.16 164.16H666.48C671.362 164.16 675.32 160.202 675.32 155.32V132C675.32 127.118 671.362 123.16 666.48 123.16L581.16 123.16C576.278 123.16 572.32 127.118 572.32 132V155.32C572.32 160.202 576.278 164.16 581.16 164.16Z" fill="black"/>
<path d="M478.16 164.16H563.48C568.362 164.16 572.32 160.202 572.32 155.32V132C572.32 127.118 568.362 123.16 563.48 123.16L478.16 123.16C473.278 123.16 469.32 127.118 469.32 132V155.32C469.32 160.202 473.278 164.16 478.16 164.16Z" fill="#A880F7"/>
<path d="M375.16 164.16H460.48C465.362 164.16 469.32 160.202 469.32 155.32V132C469.32 127.118 465.362 123.16 460.48 123.16L375.16 123.16C370.278 123.16 366.32 127.118 366.32 132V155.32C366.32 160.202 370.278 164.16 375.16 164.16Z" fill="#A880F7"/>
<path opacity="0.1" d="M375.16 164.16H460.48C465.362 164.16 469.32 160.202 469.32 155.32V132C469.32 127.118 465.362 123.16 460.48 123.16L375.16 123.16C370.278 123.16 366.32 127.118 366.32 132V155.32C366.32 160.202 370.278 164.16 375.16 164.16Z" fill="black"/>
<path d="M272.16 164.16H357.48C362.362 164.16 366.32 160.202 366.32 155.32V132C366.32 127.118 362.362 123.16 357.48 123.16L272.16 123.16C267.278 123.16 263.32 127.118 263.32 132V155.32C263.32 160.202 267.278 164.16 272.16 164.16Z" fill="#A880F7"/>
<path d="M169.16 164.16H254.48C259.362 164.16 263.32 160.202 263.32 155.32V132C263.32 127.118 259.362 123.16 254.48 123.16L169.16 123.16C164.278 123.16 160.32 127.118 160.32 132V155.32C160.32 160.202 164.278 164.16 169.16 164.16Z" fill="#A880F7"/>
<path opacity="0.1" d="M169.16 164.16H254.48C259.362 164.16 263.32 160.202 263.32 155.32V132C263.32 127.118 259.362 123.16 254.48 123.16L169.16 123.16C164.278 123.16 160.32 127.118 160.32 132V155.32C160.32 160.202 164.278 164.16 169.16 164.16Z" fill="black"/>
<path d="M499 649.16C774.59 649.16 998 598.344 998 535.66C998 472.976 774.59 422.16 499 422.16C223.41 422.16 0 472.976 0 535.66C0 598.344 223.41 649.16 499 649.16Z" fill="#F5F5F5"/>
<path d="M113.95 484.72C113.95 484.72 122.95 454.31 112.27 431.92C107.743 422.56 106.378 411.983 108.38 401.78C109.368 396.943 110.797 392.206 112.65 387.63" stroke="#535461" stroke-width="2" stroke-miterlimit="10"/>
<path d="M106.03 373.49C106.03 377.22 112.78 388.03 112.78 388.03C112.78 388.03 119.53 377.22 119.53 373.49C119.53 371.7 118.819 369.983 117.553 368.717C116.287 367.451 114.57 366.74 112.78 366.74C110.99 366.74 109.273 367.451 108.007 368.717C106.741 369.983 106.03 371.7 106.03 373.49V373.49Z" fill="#A880F7"/>
<path d="M94.87 394.14C96.87 397.27 108.44 402.67 108.44 402.67C108.44 402.67 108.23 389.93 106.2 386.8C105.222 385.308 103.693 384.264 101.948 383.896C100.202 383.528 98.3822 383.866 96.8851 384.836C95.3881 385.806 94.3357 387.329 93.9582 389.072C93.5806 390.816 93.9084 392.638 94.87 394.14Z" fill="#A880F7"/>
<path d="M95.36 429.42C98.69 431.1 111.36 429.94 111.36 429.94C111.36 429.94 104.75 419.05 101.42 417.37C99.8273 416.608 97.9994 416.501 96.3284 417.07C94.6573 417.64 93.2761 418.842 92.4807 420.418C91.6854 421.995 91.5393 423.82 92.0738 425.503C92.6083 427.185 93.7808 428.592 95.34 429.42H95.36Z" fill="#A880F7"/>
<path d="M101.74 456.03C104.74 458.25 117.44 459.25 117.44 459.25C117.44 459.25 112.76 447.4 109.77 445.18C108.327 444.231 106.574 443.872 104.874 444.176C103.174 444.48 101.655 445.424 100.629 446.815C99.6043 448.205 99.1512 449.935 99.3634 451.65C99.5756 453.364 100.437 454.932 101.77 456.03H101.74Z" fill="#A880F7"/>
<path d="M122.61 403.39C119.94 405.99 107.48 408.68 107.48 408.68C107.48 408.68 110.53 396.31 113.2 393.68C113.836 393.062 114.587 392.576 115.41 392.248C116.234 391.92 117.114 391.758 118 391.771C118.887 391.783 119.762 391.97 120.576 392.321C121.39 392.672 122.127 393.179 122.745 393.815C123.363 394.451 123.849 395.202 124.177 396.025C124.505 396.849 124.667 397.729 124.654 398.615C124.642 399.502 124.455 400.377 124.104 401.191C123.753 402.005 123.246 402.742 122.61 403.36V403.39Z" fill="#A880F7"/>
<path d="M129.68 434.58C126.35 436.26 113.68 435.1 113.68 435.1C113.68 435.1 120.29 424.21 123.62 422.53C125.207 421.814 127.009 421.739 128.65 422.32C130.291 422.902 131.644 424.095 132.426 425.65C133.208 427.205 133.359 429.003 132.848 430.667C132.336 432.331 131.201 433.733 129.68 434.58V434.58Z" fill="#A880F7"/>
<path d="M132.38 465.9C129.38 468.12 116.68 469.12 116.68 469.12C116.68 469.12 121.36 457.27 124.35 455.05C125.793 454.101 127.546 453.742 129.246 454.046C130.946 454.35 132.465 455.294 133.491 456.685C134.516 458.075 134.969 459.805 134.757 461.52C134.544 463.234 133.683 464.802 132.35 465.9H132.38Z" fill="#A880F7"/>
<path d="M596.98 312.38C596.98 312.38 629.87 345.27 611.3 394.07C592.73 442.87 643.13 524.07 643.13 524.07C643.13 524.07 642.59 523.99 641.59 523.81C574.04 511.84 540.48 434.58 578.04 377.2C592 355.86 603.47 330.84 596.98 312.38Z" fill="#A880F7"/>
<path opacity="0.2" d="M596.98 312.38C596.98 312.38 629.87 345.27 611.3 394.07C592.73 442.87 643.13 524.07 643.13 524.07C643.13 524.07 642.59 523.99 641.59 523.81C574.04 511.84 540.48 434.58 578.04 377.2C592 355.86 603.47 330.84 596.98 312.38Z" fill="black"/>
<path d="M596.98 312.38C596.98 312.38 615.55 352.69 596.98 385.58C578.41 418.47 593.8 510.76 643.16 524.02" stroke="#535461" stroke-miterlimit="10"/>
<path d="M538.41 445.39C538.41 445.39 575.94 439.39 579.36 473.05C582.78 506.71 651.52 511.34 651.52 511.34L650.23 512.2C593.47 549.46 539.23 535.93 547.39 486.46C550.43 468.07 550.16 449.58 538.41 445.39Z" fill="#A880F7"/>
<path opacity="0.2" d="M538.41 445.39C538.41 445.39 575.94 439.39 579.36 473.05C582.78 506.71 651.52 511.34 651.52 511.34L650.23 512.2C593.47 549.46 539.23 535.93 547.39 486.46C550.43 468.07 550.16 449.58 538.41 445.39Z" fill="#F5F5F5"/>
<path d="M538.41 445.39C538.41 445.39 567.54 451.78 565.15 478.27C562.76 504.76 608.41 536.51 651.52 511.34" stroke="#535461" stroke-miterlimit="10"/>
<path d="M823.93 522.81C823.93 522.81 768.23 511.67 753.37 496.81C738.51 481.95 671.67 455.96 664.24 474.53C656.81 493.1 563.98 556.24 627.16 567.38C690.34 578.52 775.7 582.23 794.27 574.81C812.84 567.39 823.93 522.81 823.93 522.81Z" fill="#A8A8A8"/>
<path opacity="0.2" d="M627.16 560.48C690.29 571.62 775.7 575.33 794.27 567.91C808.41 562.25 818.27 535.08 822.12 522.43L823.98 522.82C823.98 522.82 812.84 567.38 794.27 574.82C775.7 582.26 690.27 578.53 627.16 567.39C608.94 564.17 603.73 556.62 605.69 547.06C607.16 553.29 613.55 558.08 627.16 560.48Z" fill="black"/>
<path d="M936.63 28.17C935.637 25.6962 934.054 23.5026 932.02 21.78C917.07 8.15996 892.9 12.29 874.34 3.95997C870.06 2.03997 865.68 -0.620033 861.04 0.109967C854.56 1.10997 848.53 8.50996 842.88 5.22996L843.28 6.45997L842.88 6.24997L847.04 18.91C848.64 23.77 850.32 28.77 853.42 32.82C848.83 36.8225 845.317 41.912 843.202 47.6231C841.088 53.3342 840.439 59.4843 841.315 65.511C842.192 71.5376 844.565 77.2482 848.219 82.1203C851.873 86.9925 856.69 90.8707 862.23 93.4C862.43 93.82 862.62 94.25 862.81 94.68L863.34 94.9C864.571 97.7318 865.49 100.689 866.08 103.72C861.27 104.39 852.88 109.72 844.64 117.56L828.16 117.01C817.501 116.654 807.186 113.146 798.52 106.93L749.16 71.48C745.644 71.8263 742.332 73.2914 739.71 75.66C733.59 69.28 728.39 62.66 728.83 58.66C728.83 58.66 705.89 15.73 697.55 37.19C689.21 58.65 713.19 81.19 713.19 81.19L728.4 100.9C727.799 104.356 727.419 107.846 727.26 111.35C746.03 132.82 811.71 152.24 811.71 152.24L821.95 152.74L822.01 153.24C821.38 155.927 821.071 158.68 821.09 161.44C821.09 161.84 821.09 162.25 821.09 162.67C821.09 163.09 821.09 163.22 821.09 163.49C821.61 197.73 826.3 302.49 826.3 302.49C827.21 302.08 828.16 301.71 829.12 301.36L828.39 310.67C828.39 310.67 784.6 316.8 752.28 329.07C719.96 341.34 718.92 355.65 718.92 355.65V481.91C709.69 486.65 695.12 492.91 687.64 489.54C679.52 485.92 675.07 488.96 674.26 492.13C674.106 492.757 674.106 493.413 674.26 494.04C674.329 494.322 674.433 494.594 674.57 494.85V494.91C674.719 495.174 674.904 495.417 675.12 495.63C678.25 498.7 746.02 525.27 761.66 521.18C762.144 521.053 762.618 520.893 763.08 520.7C763.23 520.64 763.36 520.56 763.51 520.49C763.66 520.42 764.09 520.22 764.36 520.06C764.63 519.9 764.67 519.85 764.82 519.75C764.97 519.65 765.29 519.44 765.51 519.27C765.73 519.1 765.8 519.01 765.94 518.88C766.08 518.75 766.35 518.53 766.53 518.33C766.71 518.13 766.79 518.03 766.92 517.88C767.05 517.73 767.28 517.48 767.44 517.26C767.6 517.04 767.66 516.93 767.78 516.77C767.9 516.61 768.1 516.31 768.24 516.07C768.38 515.83 768.43 515.73 768.52 515.55C768.61 515.37 768.8 515.04 768.93 514.77C769.06 514.5 769.09 514.42 769.16 514.24C769.23 514.06 769.41 513.67 769.52 513.38C769.63 513.09 769.64 513.03 769.71 512.85C769.78 512.67 769.93 512.22 770.02 511.85C770.02 511.68 770.11 511.51 770.16 511.34C770.25 510.99 770.35 510.65 770.43 510.34C770.43 510.18 770.5 510.02 770.53 509.86C770.61 509.48 770.69 509.1 770.75 508.72C770.75 508.58 770.75 508.43 770.82 508.29C770.89 507.88 770.95 507.46 771 507.05V506.69C771.05 506.24 771.1 505.79 771.14 505.34V505.06C771.18 504.573 771.21 504.087 771.23 503.6V503.4C771.23 502.88 771.23 502.36 771.23 501.84V501.74C771.211 495.643 770.541 489.565 769.23 483.61V483.61L773.16 376.08C793.639 376.398 814.12 375.644 834.52 373.82L836.76 425.14C836.76 425.14 836.76 458.87 848.23 474.2C858.05 487.32 869.39 545.35 872.45 561.82C868.24 569.82 860.18 579.82 846.14 579.48C846.14 579.48 819.73 577.2 821.22 584.48C821.262 584.671 821.319 584.858 821.39 585.04V585.04C821.473 585.249 821.57 585.453 821.68 585.65V585.65C821.79 585.84 821.91 586.03 822.05 586.23L822.13 586.35C822.28 586.56 822.45 586.78 822.64 587.01V587.06C822.82 587.27 823.01 587.48 823.22 587.69L823.4 587.87C823.64 588.11 823.88 588.35 824.16 588.6C837.71 600.87 916.95 602.91 916.95 602.91V602.63C916.95 602.55 916.95 602.45 916.95 602.34C916.95 598.79 916.43 580.17 911.69 566.15H912.79C912.79 566.15 901.32 462.91 891.94 450.65C891.94 450.65 889.45 396.21 895.07 362.1L896.07 361.72C922.35 351.9 924.22 327.72 921.51 309.96C926.51 311.56 929.43 312.65 929.43 312.65C929.43 312.65 929.34 311.88 929.17 310.51L929.43 310.61C929.43 310.61 928.93 307.36 928.1 302.3C926.22 288.37 922.58 264.03 918.7 252.54C918.07 250.01 917.47 247.85 916.92 246.22C914.681 239.315 913.143 232.203 912.33 224.99C911.267 215.641 910.73 206.239 910.72 196.83C910.805 184.258 911.768 171.708 913.6 159.27C915.19 148.41 916.6 136.05 916.5 127.42C916.61 124.406 916.399 121.389 915.87 118.42C914.48 112.05 908.33 107.91 901.94 105.27C901.53 105.1 901.11 104.96 900.69 104.8C900.85 102.39 901.05 99.65 901.31 96.8C902.076 97.3306 902.941 97.7 903.854 97.8856C904.767 98.0713 905.708 98.0694 906.62 97.88C909.37 97.28 911.34 94.99 913.09 92.88C922.33 81.53 931.82 69.7 935.37 55.6C936.804 49.3033 937.475 42.857 937.37 36.4C937.37 36.0466 937.37 35.6933 937.37 35.34C937.541 32.9251 937.29 30.499 936.63 28.17V28.17Z" fill="url(#paint1_linear)"/>
<path d="M852.5 83.5C852.5 83.5 866.5 104.5 863.5 114.5C860.5 124.5 896.5 118.5 896.5 118.5C896.5 118.5 897.5 79.5 904.5 70.5C911.5 61.5 852.5 83.5 852.5 83.5Z" fill="#F7C4A7"/>
<path d="M760 97C760 97 731 73 732 64C732 64 710 22 702 43C694 64 717 86 717 86L745 123L760 97Z" fill="#F7C4A7"/>
<path d="M730.5 473.5C730.5 473.5 703.5 490.5 692.5 485.5C681.5 480.5 677.5 488.5 680.5 491.5C683.5 494.5 748.5 520.5 763.5 516.5C778.5 512.5 770.87 479.74 770.87 479.74L730.5 473.5Z" fill="#535461"/>
<path d="M873.5 546.5C873.5 546.5 867 574 844.5 573.5C844.5 573.5 810.5 570.5 823.5 582.5C836.5 594.5 912.5 596.5 912.5 596.5C912.5 596.5 912.5 555.5 898.5 546.5C884.5 537.5 873.5 546.5 873.5 546.5Z" fill="#535461"/>
<path d="M832.5 352.5L835.5 422.5C835.5 422.5 835.5 455.5 846.5 470.5C857.5 485.5 870.5 560.5 870.5 560.5H908.5C908.5 560.5 897.5 459.5 888.5 447.5C888.5 447.5 884.5 358.5 898.5 338.5L832.5 352.5Z" fill="#575988"/>
<path opacity="0.1" d="M832.5 352.5L835.5 422.5C835.5 422.5 835.5 455.5 846.5 470.5C857.5 485.5 870.5 560.5 870.5 560.5H908.5C908.5 560.5 897.5 459.5 888.5 447.5C888.5 447.5 884.5 358.5 898.5 338.5L832.5 352.5Z" fill="black"/>
<path d="M911.5 289.5C911.5 289.5 934.5 344.5 892.5 360.5C850.5 376.5 774.5 374.5 774.5 374.5L770.5 490.5C770.5 490.5 723.5 496.5 722.5 481.5V354.5C722.5 354.5 723.5 340.5 754.5 328.5C785.5 316.5 827.5 310.5 827.5 310.5L829.5 284.5L911.5 289.5Z" fill="#575988"/>
<path opacity="0.1" d="M874.65 108.31C882.638 107.426 890.72 108.567 898.15 111.63C904.28 114.21 910.15 118.26 911.51 124.49C913.09 131.87 911.34 148.42 909.33 162.43C906.11 184.385 905.7 206.661 908.11 228.72C909.11 237.91 910.56 245.92 912.51 249.49C918.51 260.49 924.51 312.49 924.51 312.49C924.51 312.49 858.51 287.49 825.51 302.49C825.51 302.49 821.01 199.99 820.51 166.49C820.12 140.55 853.01 110.99 864.01 109.99C870.45 109.41 868.24 108.98 874.65 108.31Z" fill="black"/>
<path d="M874.65 106.31C882.638 105.426 890.72 106.567 898.15 109.63C904.28 112.21 910.15 116.26 911.51 122.49C913.09 129.87 911.34 146.42 909.33 160.43C906.11 182.385 905.7 204.661 908.11 226.72C908.888 233.772 910.362 240.729 912.51 247.49C917.01 260.99 924.51 310.49 924.51 310.49C924.51 310.49 858.51 285.49 825.51 300.49C825.51 300.49 821.01 197.99 820.51 164.49C820.12 138.55 853.01 108.99 864.01 107.99C870.45 107.41 868.24 106.98 874.65 106.31Z" fill="#E14B5A"/>
<path opacity="0.1" d="M892.5 161.5L821.5 157.5C821.5 157.5 816.98 122.69 827.23 123.05L897.5 125.5C897.5 125.5 912.5 143.5 892.5 161.5Z" fill="black"/>
<path d="M892.5 159.5L811.5 155.5C811.5 155.5 748.5 136.5 730.5 115.5C730.5 115.5 731.5 78.5 751.5 76.5L798.81 111.19C807.079 117.255 816.982 120.691 827.23 121.05L897.5 123.5C897.5 123.5 912.5 141.5 892.5 159.5Z" fill="#E14B5A"/>
<path opacity="0.1" d="M896 88C897.19 78.52 901.49 75.37 904.5 71.5C911.5 62.5 852.5 84.5 852.5 84.5C855.55 89.1849 858.225 94.1035 860.5 99.21C865.204 101.377 870.321 102.5 875.5 102.5C884.16 102.5 889.78 93.13 896 88Z" fill="black"/>
<path d="M875.5 101.5C895.382 101.5 911.5 85.3823 911.5 65.5C911.5 45.6177 895.382 29.5 875.5 29.5C855.618 29.5 839.5 45.6177 839.5 65.5C839.5 85.3823 855.618 101.5 875.5 101.5Z" fill="#F7C4A7"/>
<path opacity="0.1" d="M852.77 40.27C848.94 36.08 847.09 30.5 845.35 25.09L841.35 12.7C846.77 15.9 852.55 8.69997 858.77 7.69997C863.22 6.98997 867.43 9.58998 871.53 11.46C889.33 19.6 912.53 15.56 926.85 28.89C928.807 30.585 930.324 32.7297 931.27 35.14C931.931 37.4113 932.201 39.7782 932.07 42.14C932.187 48.4517 931.559 54.7552 930.2 60.92C926.8 74.71 917.7 86.29 908.83 97.39C907.15 99.5 905.26 101.74 902.62 102.33C897.47 103.48 893.49 97.92 891.5 93.04C888.864 86.5735 886.919 79.846 885.7 72.97C885.18 70.06 884.77 67.06 883.32 64.49C880.22 59 872.58 53.8 867.94 49.54C863.3 45.28 857.03 44.92 852.77 40.27Z" fill="black"/>
<path d="M852.77 39.27C848.94 35.08 847.09 29.5 845.35 24.09L841.35 11.7C846.77 14.9 852.55 7.69997 858.77 6.69997C863.22 5.98997 867.43 8.58998 871.53 10.46C889.33 18.6 912.53 14.56 926.85 27.89C928.807 29.585 930.324 31.7297 931.27 34.14C931.931 36.4113 932.201 38.7782 932.07 41.14C932.187 47.4517 931.559 53.7552 930.2 59.92C926.8 73.71 917.7 85.29 908.83 96.39C907.15 98.5 905.26 100.74 902.62 101.33C897.47 102.48 893.49 96.92 891.5 92.04C888.864 85.5735 886.919 78.846 885.7 71.97C885.18 69.06 884.77 66.06 883.32 63.49C880.22 58 872.58 52.8 867.94 48.54C863.3 44.28 857.03 43.92 852.77 39.27Z" fill="#632652"/>
<path d="M885 76C886.657 76 888 73.0899 888 69.5C888 65.9101 886.657 63 885 63C883.343 63 882 65.9101 882 69.5C882 73.0899 883.343 76 885 76Z" fill="#F7C4A7"/>
<path opacity="0.1" d="M903 243C903 243 901 249 891 248C881 247 852 245 852 248" fill="black"/>
<path opacity="0.5" d="M823.5 581.5C821.7 579.84 820.8 578.5 820.59 577.33C820.33 578.63 821.13 580.33 823.5 582.5C836.5 594.5 912.5 596.5 912.5 596.5C912.5 596.5 912.5 596.15 912.5 595.5C912.01 595.49 836.46 593.46 823.5 581.5Z" fill="white"/>
<path opacity="0.5" d="M763.5 514.5C748.5 518.5 683.5 492.5 680.5 489.5C680.1 489.094 679.814 488.591 679.67 488.04C679.497 488.639 679.482 489.273 679.628 489.88C679.773 490.486 680.074 491.045 680.5 491.5C683.5 494.5 748.5 520.5 763.5 516.5C771.22 514.44 772.94 504.77 772.8 495.86C772.65 504.16 770.64 512.58 763.5 514.5Z" fill="white"/>
<path d="M502.09 503.74C502.488 503.74 502.869 503.582 503.151 503.301C503.432 503.019 503.59 502.638 503.59 502.24C503.59 501.842 503.432 501.461 503.151 501.179C502.869 500.898 502.488 500.74 502.09 500.74C501.692 500.74 501.311 500.898 501.029 501.179C500.748 501.461 500.59 501.842 500.59 502.24C500.59 502.638 500.748 503.019 501.029 503.301C501.311 503.582 501.692 503.74 502.09 503.74V503.74Z" fill="#67647E"/>
<path d="M91.49 477.21C91.49 477.21 128.81 476.06 140.05 468.05C151.29 460.04 197.45 450.48 200.24 463.32C203.03 476.16 256.33 527.2 214.16 527.58C171.99 527.96 116.27 521.02 105.04 514.18C93.81 507.34 91.49 477.21 91.49 477.21Z" fill="#A8A8A8"/>
<path opacity="0.2" d="M214.95 523.07C172.82 523.41 117.06 516.51 105.83 509.67C97.28 504.46 93.83 485.78 92.74 477.16H91.49C91.49 477.16 93.85 507.26 105.08 514.09C116.31 520.92 172.07 527.88 214.16 527.58C226.32 527.48 230.52 523.16 230.29 516.75C228.64 520.58 224 523 214.95 523.07Z" fill="black"/>
<path d="M946.16 573.16H1031.48C1036.36 573.16 1040.32 569.202 1040.32 564.32V541C1040.32 536.118 1036.36 532.16 1031.48 532.16H946.16C941.278 532.16 937.32 536.118 937.32 541V564.32C937.32 569.202 941.278 573.16 946.16 573.16Z" fill="#A880F7"/>
<path opacity="0.1" d="M946.16 573.16H1031.48C1036.36 573.16 1040.32 569.202 1040.32 564.32V541C1040.32 536.118 1036.36 532.16 1031.48 532.16H946.16C941.278 532.16 937.32 536.118 937.32 541V564.32C937.32 569.202 941.278 573.16 946.16 573.16Z" fill="black"/>
<path d="M1031.48 493.16H946.16C941.278 493.16 937.32 497.118 937.32 502V525.32C937.32 530.202 941.278 534.16 946.16 534.16H1031.48C1036.36 534.16 1040.32 530.202 1040.32 525.32V502C1040.32 497.118 1036.36 493.16 1031.48 493.16Z" fill="#A880F7"/>
<path d="M946.16 493.16H1031.48C1036.36 493.16 1040.32 489.202 1040.32 484.32V461C1040.32 456.118 1036.36 452.16 1031.48 452.16H946.16C941.278 452.16 937.32 456.118 937.32 461V484.32C937.32 489.202 941.278 493.16 946.16 493.16Z" fill="#A880F7"/>
<path opacity="0.1" d="M946.16 493.16H1031.48C1036.36 493.16 1040.32 489.202 1040.32 484.32V461C1040.32 456.118 1036.36 452.16 1031.48 452.16H946.16C941.278 452.16 937.32 456.118 937.32 461V484.32C937.32 489.202 941.278 493.16 946.16 493.16Z" fill="black"/>
<path d="M1031.48 411.16H946.16C941.278 411.16 937.32 415.118 937.32 420V443.32C937.32 448.202 941.278 452.16 946.16 452.16H1031.48C1036.36 452.16 1040.32 448.202 1040.32 443.32V420C1040.32 415.118 1036.36 411.16 1031.48 411.16Z" fill="#A880F7"/>
</g>
<defs>
<linearGradient id="paint0_linear" x1="722.82" y1="71.7499" x2="722.82" y2="27.5699" gradientUnits="userSpaceOnUse">
<stop stop-color="#808080" stop-opacity="0.25"/>
<stop offset="0.54" stop-color="#808080" stop-opacity="0.12"/>
<stop offset="1" stop-color="#808080" stop-opacity="0.1"/>
</linearGradient>
<linearGradient id="paint1_linear" x1="233849" y1="439182" x2="233849" y2="75618.7" gradientUnits="userSpaceOnUse">
<stop stop-color="#808080" stop-opacity="0.25"/>
<stop offset="0.54" stop-color="#808080" stop-opacity="0.12"/>
<stop offset="1" stop-color="#808080" stop-opacity="0.1"/>
</linearGradient>
<clipPath id="clip0">
<rect width="1040.32" height="649.16" fill="white"/>
</clipPath>
</defs>
</svg>
