<svg width="1031" height="328" viewBox="0 0 1031 328" fill="none" xmlns="http://www.w3.org/2000/svg">
<path d="M125.723 0L124.774 186.892L298.379 229.935V196.638V160.944V127.384L299.192 95.2604V43.5853L262.295 34.3149L262.085 187.413L163.502 163.44L164.41 9.72102L125.723 0Z" fill="url(#paint0_linear)"/>
<path d="M175.362 141.028L174.419 328L299.056 231.534L300 43.9626L175.362 141.028ZM194.226 287.072L197.191 159.693L278.844 93.4949V221.543L194.226 287.072Z" fill="url(#paint1_linear)"/>
<path d="M1.89252 98.0596L0.944336 285.548L174.55 327.995V294.698L74.4988 268.709L75.966 234.872L174.55 259.004V225.443L75.966 201.043L76.5074 168.016L175.362 193.321V141.645L1.89252 98.0596Z" fill="url(#paint2_linear)"/>
<path d="M408.824 213.44C411.32 213.44 413.384 214.304 415.016 216.032C416.744 217.664 417.608 219.584 417.608 221.792C417.608 224.192 416.744 226.16 415.016 227.696C413.384 229.232 411.32 230 408.824 230H360.584C358.088 230 355.976 229.184 354.248 227.552C352.616 225.824 351.8 223.712 351.8 221.216V137.984C351.8 135.488 352.616 133.424 354.248 131.792C355.976 130.064 358.088 129.2 360.584 129.2H408.824C411.32 129.2 413.384 130.016 415.016 131.648C416.744 133.184 417.608 135.2 417.608 137.696C417.608 140.096 416.792 142.064 415.16 143.6C413.528 145.04 411.416 145.76 408.824 145.76H369.8V170.24H402.344C404.84 170.24 406.904 171.056 408.536 172.688C410.264 174.224 411.128 176.24 411.128 178.736C411.128 181.136 410.312 183.104 408.68 184.64C407.048 186.08 404.936 186.8 402.344 186.8H369.8V213.44H408.824ZM491.535 123.44C494.031 123.44 496.095 124.256 497.727 125.888C499.359 127.52 500.175 129.632 500.175 132.224V221.216C500.175 223.712 499.359 225.824 497.727 227.552C496.095 229.184 494.031 230 491.535 230C489.039 230 486.975 229.184 485.343 227.552C483.807 225.92 482.991 223.856 482.895 221.36C480.495 224.144 477.231 226.544 473.103 228.56C469.071 230.48 464.799 231.44 460.287 231.44C453.663 231.44 447.663 229.76 442.287 226.4C436.911 222.944 432.639 218.192 429.471 212.144C426.399 206.096 424.863 199.232 424.863 191.552C424.863 183.872 426.399 177.008 429.471 170.96C432.543 164.816 436.719 160.064 441.999 156.704C447.375 153.248 453.279 151.52 459.711 151.52C464.319 151.52 468.639 152.384 472.671 154.112C476.703 155.744 480.111 157.856 482.895 160.448V132.224C482.895 129.728 483.711 127.664 485.343 126.032C486.975 124.304 489.039 123.44 491.535 123.44ZM462.447 215.6C468.687 215.6 473.775 213.344 477.711 208.832C481.647 204.224 483.615 198.464 483.615 191.552C483.615 184.64 481.647 178.88 477.711 174.272C473.775 169.664 468.687 167.36 462.447 167.36C456.303 167.36 451.263 169.664 447.327 174.272C443.391 178.88 441.423 184.64 441.423 191.552C441.423 198.464 443.343 204.224 447.183 208.832C451.119 213.344 456.207 215.6 462.447 215.6ZM575.44 152.96C577.936 152.96 580 153.824 581.632 155.552C583.264 157.184 584.08 159.248 584.08 161.744V198.32C584.08 208.688 581.2 216.8 575.44 222.656C569.776 228.512 561.664 231.44 551.104 231.44C540.544 231.44 532.432 228.512 526.768 222.656C521.104 216.8 518.272 208.688 518.272 198.32V161.744C518.272 159.248 519.088 157.184 520.72 155.552C522.352 153.824 524.416 152.96 526.912 152.96C529.408 152.96 531.472 153.824 533.104 155.552C534.736 157.184 535.552 159.248 535.552 161.744V198.32C535.552 204.176 536.848 208.544 539.44 211.424C542.032 214.208 545.92 215.6 551.104 215.6C556.384 215.6 560.32 214.208 562.912 211.424C565.504 208.544 566.8 204.176 566.8 198.32V161.744C566.8 159.248 567.616 157.184 569.248 155.552C570.88 153.824 572.944 152.96 575.44 152.96ZM639.94 151.52C642.82 151.52 645.22 152.336 647.14 153.968C649.156 155.6 650.164 157.52 650.164 159.728C650.164 162.704 649.396 164.96 647.86 166.496C646.324 167.936 644.5 168.656 642.388 168.656C640.948 168.656 639.316 168.32 637.492 167.648C637.204 167.552 636.532 167.36 635.476 167.072C634.516 166.784 633.46 166.64 632.308 166.64C629.812 166.64 627.412 167.408 625.108 168.944C622.804 170.48 620.884 172.832 619.348 176C617.908 179.072 617.188 182.768 617.188 187.088V221.216C617.188 223.712 616.372 225.824 614.74 227.552C613.108 229.184 611.044 230 608.548 230C606.052 230 603.988 229.184 602.356 227.552C600.724 225.824 599.908 223.712 599.908 221.216V161.744C599.908 159.248 600.724 157.184 602.356 155.552C603.988 153.824 606.052 152.96 608.548 152.96C611.044 152.96 613.108 153.824 614.74 155.552C616.372 157.184 617.188 159.248 617.188 161.744V163.616C619.396 159.68 622.564 156.704 626.692 154.688C630.82 152.576 635.236 151.52 639.94 151.52ZM730.247 191.552C730.247 199.232 728.519 206.144 725.063 212.288C721.607 218.336 716.855 223.04 710.807 226.4C704.855 229.76 698.279 231.44 691.079 231.44C683.783 231.44 677.159 229.76 671.207 226.4C665.255 223.04 660.551 218.336 657.095 212.288C653.639 206.144 651.911 199.232 651.911 191.552C651.911 183.872 653.639 177.008 657.095 170.96C660.551 164.816 665.255 160.064 671.207 156.704C677.159 153.248 683.783 151.52 691.079 151.52C698.279 151.52 704.855 153.248 710.807 156.704C716.855 160.064 721.607 164.816 725.063 170.96C728.519 177.008 730.247 183.872 730.247 191.552ZM712.967 191.552C712.967 186.848 711.959 182.672 709.943 179.024C708.023 175.28 705.383 172.4 702.023 170.384C698.759 168.368 695.111 167.36 691.079 167.36C687.047 167.36 683.351 168.368 679.991 170.384C676.727 172.4 674.087 175.28 672.071 179.024C670.151 182.672 669.191 186.848 669.191 191.552C669.191 196.256 670.151 200.432 672.071 204.08C674.087 207.728 676.727 210.56 679.991 212.576C683.351 214.592 687.047 215.6 691.079 215.6C695.111 215.6 698.759 214.592 702.023 212.576C705.383 210.56 708.023 207.728 709.943 204.08C711.959 200.432 712.967 196.256 712.967 191.552ZM815.82 191.552C815.82 199.232 814.092 206.144 810.636 212.288C807.18 218.336 802.428 223.04 796.38 226.4C790.428 229.76 783.852 231.44 776.652 231.44C769.356 231.44 762.732 229.76 756.78 226.4C750.828 223.04 746.124 218.336 742.668 212.288C739.212 206.144 737.484 199.232 737.484 191.552C737.484 183.872 739.212 177.008 742.668 170.96C746.124 164.816 750.828 160.064 756.78 156.704C762.732 153.248 769.356 151.52 776.652 151.52C783.852 151.52 790.428 153.248 796.38 156.704C802.428 160.064 807.18 164.816 810.636 170.96C814.092 177.008 815.82 183.872 815.82 191.552ZM798.54 191.552C798.54 186.848 797.532 182.672 795.516 179.024C793.596 175.28 790.956 172.4 787.596 170.384C784.332 168.368 780.684 167.36 776.652 167.36C772.62 167.36 768.924 168.368 765.564 170.384C762.3 172.4 759.66 175.28 757.644 179.024C755.724 182.672 754.764 186.848 754.764 191.552C754.764 196.256 755.724 200.432 757.644 204.08C759.66 207.728 762.3 210.56 765.564 212.576C768.924 214.592 772.62 215.6 776.652 215.6C780.684 215.6 784.332 214.592 787.596 212.576C790.956 210.56 793.596 207.728 795.516 204.08C797.532 200.432 798.54 196.256 798.54 191.552ZM916.225 151.52C925.729 151.52 932.305 154.448 935.953 160.304C939.601 166.064 941.425 174.08 941.425 184.352V221.216C941.425 223.712 940.609 225.824 938.977 227.552C937.345 229.184 935.281 230 932.785 230C930.289 230 928.225 229.184 926.593 227.552C924.961 225.824 924.145 223.712 924.145 221.216V184.352C924.145 179.072 923.089 174.944 920.977 171.968C918.961 168.896 915.361 167.36 910.177 167.36C904.801 167.36 900.577 168.992 897.505 172.256C894.529 175.424 893.041 179.456 893.041 184.352V221.216C893.041 223.712 892.225 225.824 890.593 227.552C888.961 229.184 886.897 230 884.401 230C881.905 230 879.841 229.184 878.209 227.552C876.577 225.824 875.761 223.712 875.761 221.216V184.352C875.761 179.072 874.705 174.944 872.593 171.968C870.577 168.896 866.977 167.36 861.793 167.36C856.417 167.36 852.193 168.992 849.121 172.256C846.145 175.424 844.657 179.456 844.657 184.352V221.216C844.657 223.712 843.841 225.824 842.209 227.552C840.577 229.184 838.513 230 836.017 230C833.521 230 831.457 229.184 829.825 227.552C828.193 225.824 827.377 223.712 827.377 221.216V161.744C827.377 159.248 828.193 157.184 829.825 155.552C831.457 153.824 833.521 152.96 836.017 152.96C838.513 152.96 840.577 153.824 842.209 155.552C843.841 157.184 844.657 159.248 844.657 161.744V164.048C847.249 160.592 850.513 157.664 854.449 155.264C858.481 152.768 862.945 151.52 867.841 151.52C879.937 151.52 887.665 156.8 891.025 167.36C893.233 163.328 896.545 159.68 900.961 156.416C905.473 153.152 910.561 151.52 916.225 151.52Z" fill="url(#paint3_linear)"/>
<defs>
<linearGradient id="paint0_linear" x1="150.002" y1="177.71" x2="314.503" y2="8.64469" gradientUnits="userSpaceOnUse">
<stop offset="0.202324" stop-color="#E7A8D1"/>
<stop offset="0.604167" stop-color="#817FBC"/>
</linearGradient>
<linearGradient id="paint1_linear" x1="300" y1="194.521" x2="186.77" y2="105.814" gradientUnits="userSpaceOnUse">
<stop stop-color="#FDD4C1"/>
<stop offset="1" stop-color="#FB9CCB" stop-opacity="0.7"/>
</linearGradient>
<linearGradient id="paint2_linear" x1="177.777" y1="360.807" x2="3.77924" y2="94.4654" gradientUnits="userSpaceOnUse">
<stop stop-color="#FB9CCB"/>
<stop offset="1" stop-color="#817FBC"/>
</linearGradient>
<linearGradient id="paint3_linear" x1="1087.57" y1="303.126" x2="941.83" y2="-158.505" gradientUnits="userSpaceOnUse">
<stop stop-color="#D58ABB"/>
<stop offset="1" stop-color="#817FBC"/>
</linearGradient>
</defs>
</svg>
