<svg width="219" height="62" viewBox="0 0 219 62" fill="none" xmlns="http://www.w3.org/2000/svg">
<path d="M20.5348 6L20.3799 37.4913L48.7355 44.7441V39.1336V33.1191V27.4643L48.8682 22.0514V13.3441L42.8417 11.7821L42.8075 37.5791L26.7055 33.5396L26.8537 7.63799L20.5348 6Z" fill="url(#paint0_linear)"/>
<path d="M28.6424 29.7632L28.4883 61.2681L48.8458 45.0135L48.9999 13.4077L28.6424 29.7632ZM31.7235 54.3717L32.2077 32.9083L45.5445 21.7539V43.33L31.7235 54.3717Z" fill="url(#paint1_linear)"/>
<path d="M0.309167 22.5229L0.154297 54.1148L28.5099 61.267V55.6565L12.1682 51.2774L12.4079 45.5758L28.5099 49.6421V43.9871L12.4079 39.8757L12.4963 34.3107L28.6426 38.5744V29.8672L0.309167 22.5229Z" fill="url(#paint2_linear)"/>
<path d="M80.62 33.92C80.596 34.496 80.368 34.964 79.936 35.324C79.504 35.684 79 35.864 78.424 35.864H66.544C66.832 37.28 67.492 38.396 68.524 39.212C69.556 40.004 70.72 40.4 72.016 40.4C73 40.4 73.768 40.316 74.32 40.148C74.872 39.956 75.304 39.764 75.616 39.572C75.952 39.356 76.18 39.212 76.3 39.14C76.732 38.924 77.14 38.816 77.524 38.816C78.028 38.816 78.46 38.996 78.82 39.356C79.18 39.716 79.36 40.136 79.36 40.616C79.36 41.264 79.024 41.852 78.352 42.38C77.68 42.932 76.78 43.4 75.652 43.784C74.524 44.168 73.384 44.36 72.232 44.36C70.216 44.36 68.452 43.94 66.94 43.1C65.452 42.26 64.3 41.108 63.484 39.644C62.668 38.156 62.26 36.488 62.26 34.64C62.26 32.576 62.692 30.764 63.556 29.204C64.42 27.644 65.56 26.456 66.976 25.64C68.392 24.8 69.904 24.38 71.512 24.38C73.096 24.38 74.584 24.812 75.976 25.676C77.392 26.54 78.52 27.704 79.36 29.168C80.2 30.632 80.62 32.216 80.62 33.92ZM71.512 28.34C68.728 28.34 67.084 29.648 66.58 32.264H76.012V32.012C75.916 31.004 75.424 30.14 74.536 29.42C73.648 28.7 72.64 28.34 71.512 28.34ZM99.8108 17.36C100.435 17.36 100.951 17.564 101.359 17.972C101.767 18.38 101.971 18.908 101.971 19.556V41.804C101.971 42.428 101.767 42.956 101.359 43.388C100.951 43.796 100.435 44 99.8108 44C99.1868 44 98.6708 43.796 98.2628 43.388C97.8788 42.98 97.6748 42.464 97.6508 41.84C97.0508 42.536 96.2348 43.136 95.2028 43.64C94.1948 44.12 93.1268 44.36 91.9988 44.36C90.3428 44.36 88.8428 43.94 87.4988 43.1C86.1548 42.236 85.0868 41.048 84.2948 39.536C83.5268 38.024 83.1428 36.308 83.1428 34.388C83.1428 32.468 83.5268 30.752 84.2948 29.24C85.0628 27.704 86.1068 26.516 87.4268 25.676C88.7708 24.812 90.2468 24.38 91.8548 24.38C93.0068 24.38 94.0868 24.596 95.0948 25.028C96.1028 25.436 96.9548 25.964 97.6508 26.612V19.556C97.6508 18.932 97.8548 18.416 98.2628 18.008C98.6708 17.576 99.1868 17.36 99.8108 17.36ZM92.5388 40.4C94.0988 40.4 95.3708 39.836 96.3548 38.708C97.3388 37.556 97.8308 36.116 97.8308 34.388C97.8308 32.66 97.3388 31.22 96.3548 30.068C95.3708 28.916 94.0988 28.34 92.5388 28.34C91.0028 28.34 89.7428 28.916 88.7588 30.068C87.7748 31.22 87.2828 32.66 87.2828 34.388C87.2828 36.116 87.7628 37.556 88.7228 38.708C89.7068 39.836 90.9788 40.4 92.5388 40.4ZM121.507 24.74C122.131 24.74 122.647 24.956 123.055 25.388C123.463 25.796 123.667 26.312 123.667 26.936V36.08C123.667 38.672 122.947 40.7 121.507 42.164C120.091 43.628 118.063 44.36 115.423 44.36C112.783 44.36 110.755 43.628 109.339 42.164C107.923 40.7 107.215 38.672 107.215 36.08V26.936C107.215 26.312 107.419 25.796 107.827 25.388C108.235 24.956 108.751 24.74 109.375 24.74C109.999 24.74 110.515 24.956 110.923 25.388C111.331 25.796 111.535 26.312 111.535 26.936V36.08C111.535 37.544 111.859 38.636 112.507 39.356C113.155 40.052 114.127 40.4 115.423 40.4C116.743 40.4 117.727 40.052 118.375 39.356C119.023 38.636 119.347 37.544 119.347 36.08V26.936C119.347 26.312 119.551 25.796 119.959 25.388C120.367 24.956 120.883 24.74 121.507 24.74ZM138.352 24.38C139.072 24.38 139.672 24.584 140.152 24.992C140.656 25.4 140.908 25.88 140.908 26.432C140.908 27.176 140.716 27.74 140.332 28.124C139.948 28.484 139.492 28.664 138.964 28.664C138.604 28.664 138.196 28.58 137.74 28.412C137.668 28.388 137.5 28.34 137.236 28.268C136.996 28.196 136.732 28.16 136.444 28.16C135.82 28.16 135.22 28.352 134.644 28.736C134.068 29.12 133.588 29.708 133.204 30.5C132.844 31.268 132.664 32.192 132.664 33.272V41.804C132.664 42.428 132.46 42.956 132.052 43.388C131.644 43.796 131.128 44 130.504 44C129.88 44 129.364 43.796 128.956 43.388C128.548 42.956 128.344 42.428 128.344 41.804V26.936C128.344 26.312 128.548 25.796 128.956 25.388C129.364 24.956 129.88 24.74 130.504 24.74C131.128 24.74 131.644 24.956 132.052 25.388C132.46 25.796 132.664 26.312 132.664 26.936V27.404C133.216 26.42 134.008 25.676 135.04 25.172C136.072 24.644 137.176 24.38 138.352 24.38ZM161.649 34.388C161.649 36.308 161.217 38.036 160.353 39.572C159.489 41.084 158.301 42.26 156.789 43.1C155.301 43.94 153.657 44.36 151.857 44.36C150.033 44.36 148.377 43.94 146.889 43.1C145.401 42.26 144.225 41.084 143.361 39.572C142.497 38.036 142.065 36.308 142.065 34.388C142.065 32.468 142.497 30.752 143.361 29.24C144.225 27.704 145.401 26.516 146.889 25.676C148.377 24.812 150.033 24.38 151.857 24.38C153.657 24.38 155.301 24.812 156.789 25.676C158.301 26.516 159.489 27.704 160.353 29.24C161.217 30.752 161.649 32.468 161.649 34.388ZM157.329 34.388C157.329 33.212 157.077 32.168 156.573 31.256C156.093 30.32 155.433 29.6 154.593 29.096C153.777 28.592 152.865 28.34 151.857 28.34C150.849 28.34 149.925 28.592 149.085 29.096C148.269 29.6 147.609 30.32 147.105 31.256C146.625 32.168 146.385 33.212 146.385 34.388C146.385 35.564 146.625 36.608 147.105 37.52C147.609 38.432 148.269 39.14 149.085 39.644C149.925 40.148 150.849 40.4 151.857 40.4C152.865 40.4 153.777 40.148 154.593 39.644C155.433 39.14 156.093 38.432 156.573 37.52C157.077 36.608 157.329 35.564 157.329 34.388ZM183.762 34.388C183.762 36.308 183.33 38.036 182.466 39.572C181.602 41.084 180.414 42.26 178.902 43.1C177.414 43.94 175.77 44.36 173.97 44.36C172.146 44.36 170.49 43.94 169.002 43.1C167.514 42.26 166.338 41.084 165.474 39.572C164.61 38.036 164.178 36.308 164.178 34.388C164.178 32.468 164.61 30.752 165.474 29.24C166.338 27.704 167.514 26.516 169.002 25.676C170.49 24.812 172.146 24.38 173.97 24.38C175.77 24.38 177.414 24.812 178.902 25.676C180.414 26.516 181.602 27.704 182.466 29.24C183.33 30.752 183.762 32.468 183.762 34.388ZM179.442 34.388C179.442 33.212 179.19 32.168 178.686 31.256C178.206 30.32 177.546 29.6 176.706 29.096C175.89 28.592 174.978 28.34 173.97 28.34C172.962 28.34 172.038 28.592 171.198 29.096C170.382 29.6 169.722 30.32 169.218 31.256C168.738 32.168 168.498 33.212 168.498 34.388C168.498 35.564 168.738 36.608 169.218 37.52C169.722 38.432 170.382 39.14 171.198 39.644C172.038 40.148 172.962 40.4 173.97 40.4C174.978 40.4 175.89 40.148 176.706 39.644C177.546 39.14 178.206 38.432 178.686 37.52C179.19 36.608 179.442 35.564 179.442 34.388ZM209.583 24.38C211.959 24.38 213.603 25.112 214.515 26.576C215.427 28.016 215.883 30.02 215.883 32.588V41.804C215.883 42.428 215.679 42.956 215.271 43.388C214.863 43.796 214.347 44 213.723 44C213.099 44 212.583 43.796 212.175 43.388C211.767 42.956 211.563 42.428 211.563 41.804V32.588C211.563 31.268 211.299 30.236 210.771 29.492C210.267 28.724 209.367 28.34 208.071 28.34C206.727 28.34 205.671 28.748 204.903 29.564C204.159 30.356 203.787 31.364 203.787 32.588V41.804C203.787 42.428 203.583 42.956 203.175 43.388C202.767 43.796 202.251 44 201.627 44C201.003 44 200.487 43.796 200.079 43.388C199.671 42.956 199.467 42.428 199.467 41.804V32.588C199.467 31.268 199.203 30.236 198.675 29.492C198.171 28.724 197.271 28.34 195.975 28.34C194.631 28.34 193.575 28.748 192.807 29.564C192.063 30.356 191.691 31.364 191.691 32.588V41.804C191.691 42.428 191.487 42.956 191.079 43.388C190.671 43.796 190.155 44 189.531 44C188.907 44 188.391 43.796 187.983 43.388C187.575 42.956 187.371 42.428 187.371 41.804V26.936C187.371 26.312 187.575 25.796 187.983 25.388C188.391 24.956 188.907 24.74 189.531 24.74C190.155 24.74 190.671 24.956 191.079 25.388C191.487 25.796 191.691 26.312 191.691 26.936V27.512C192.339 26.648 193.155 25.916 194.139 25.316C195.147 24.692 196.263 24.38 197.487 24.38C200.511 24.38 202.443 25.7 203.283 28.34C203.835 27.332 204.663 26.42 205.767 25.604C206.895 24.788 208.167 24.38 209.583 24.38Z" fill="url(#paint3_linear)"/>
<defs>
<linearGradient id="paint0_linear" x1="24.5004" y1="35.9442" x2="52.2291" y2="8.31998" gradientUnits="userSpaceOnUse">
<stop offset="0.202324" stop-color="#E7A8D1"/>
<stop offset="0.604167" stop-color="#817FBC"/>
</linearGradient>
<linearGradient id="paint1_linear" x1="48.9999" y1="38.7768" x2="30.0709" y2="24.4022" gradientUnits="userSpaceOnUse">
<stop offset="0.421875" stop-color="#FDD4C1"/>
<stop offset="1" stop-color="#FB9CCB" stop-opacity="0.7"/>
</linearGradient>
<linearGradient id="paint2_linear" x1="29.0369" y1="66.796" x2="-0.638603" y2="22.7638" gradientUnits="userSpaceOnUse">
<stop stop-color="#FB9CCB"/>
<stop offset="1" stop-color="#817FBC"/>
</linearGradient>
<linearGradient id="paint3_linear" x1="231.954" y1="57.0572" x2="203.749" y2="-40.868" gradientUnits="userSpaceOnUse">
<stop stop-color="#D58ABB"/>
<stop offset="1" stop-color="#817FBC"/>
</linearGradient>
</defs>
</svg>
