<svg width="136" height="90" viewBox="0 0 136 90" fill="none" xmlns="http://www.w3.org/2000/svg">
<path opacity="0.1" d="M40.6549 4.47433C39.6625 4.27467 38.6592 4.13137 37.6499 4.04516C32.7687 3.66529 27.9021 4.93784 23.8587 7.65138C17.0864 12.2213 14.1522 20.6258 12.4556 28.1919C10.5406 36.6859 10.7428 45.7998 14.227 53.8905C18.9913 64.9555 30.6613 73.4654 42.855 72.5455C48.1633 72.1481 53.2167 70.0837 58.5087 69.4956C64.5874 68.8201 70.6944 70.1076 76.7993 70.489C86.0054 71.0583 95.2231 69.572 103.761 66.1417C108.788 64.1171 113.72 61.2599 116.659 56.7695C121.053 50.0478 120.042 41.1505 117.142 33.6817C115.603 29.708 113.595 25.9209 111.682 22.1061C109.769 18.2912 108.503 14.2062 106.724 10.3834C103.743 3.98158 95.5227 0.202499 88.619 1.17409C82.5342 2.02846 77.3089 5.93073 71.3213 7.29374C68.4781 7.93948 65.5318 7.9971 62.6138 7.92955C57.6635 7.8163 52.7051 7.35136 47.8862 6.23274C45.4697 5.67839 43.0835 4.9492 40.6549 4.47433Z" fill="url(#paint0_linear)"/>
<path opacity="0.24" d="M80.0727 75.9238C78.6798 75.9938 77.1624 76.1137 76.1526 77.0579C88.3212 78.35 100.605 78.1764 112.73 76.5408C111.969 75.1495 110.049 74.9471 108.437 74.9122C103.87 74.8122 98.5139 73.5508 94.0127 74.2827C89.3568 75.0421 84.7972 75.9238 80.0727 75.9238Z" fill="url(#paint1_linear)"/>
<path opacity="0.24" d="M22.2801 75.9637C21.5189 75.9812 20.4557 76.3259 20.6131 77.0678C20.7222 77.5674 21.3514 77.7572 21.8817 77.8372C34.6216 79.8155 47.6684 79.6057 60.426 77.7247C60.2662 76.9354 57.1808 77.2576 55.8589 77.0403C54.235 76.773 52.6111 76.4932 50.9974 76.166C48.258 75.6017 45.459 75.3685 42.6623 75.4716L22.2801 75.9637Z" fill="url(#paint2_linear)"/>
<path d="M88.811 13.0544H40.1809C36.6244 13.0544 33.7412 15.8929 33.7412 19.3943V46.1927C33.7412 49.6942 36.6244 52.5326 40.1809 52.5326H88.811C92.3676 52.5326 95.2507 49.6942 95.2507 46.1927V19.3943C95.2507 15.8929 92.3676 13.0544 88.811 13.0544Z" fill="url(#paint3_linear)"/>
<path d="M88.4712 13.0544H39.8411C36.2845 13.0544 33.4014 15.8929 33.4014 19.3943V46.1927C33.4014 49.6942 36.2845 52.5326 39.8411 52.5326H88.4712C92.0277 52.5326 94.9109 49.6942 94.9109 46.1927V19.3943C94.9109 15.8929 92.0277 13.0544 88.4712 13.0544Z" fill="url(#paint4_linear)"/>
<path opacity="0.24" d="M60.6646 39.6006C60.6687 40.9566 60.2686 42.2839 59.5139 43.4182C58.7592 44.5524 57.6831 45.4438 56.4188 45.9818C55.1546 46.5198 53.7578 46.6808 52.4015 46.4448C51.0452 46.2089 49.789 45.5864 48.7886 44.6545C47.7881 43.7225 47.0874 42.5221 46.7732 41.2019C46.459 39.8817 46.5452 38.4997 47.021 37.2272C47.4968 35.9548 48.3414 34.8477 49.4501 34.0432C50.5587 33.2387 51.8828 32.7721 53.2582 32.7012C53.3837 32.6867 53.51 32.6808 53.6363 32.6837C55.4999 32.6837 57.2872 33.4124 58.6052 34.7095C59.9232 36.0066 60.664 37.7659 60.6646 39.6006Z" fill="url(#paint5_linear)"/>
<path opacity="0.45" d="M60.1696 20.9683C60.1138 21.1581 59.2131 21.3954 58.9822 21.5403C58.5845 21.8161 58.2349 22.1536 57.947 22.5395C57.3964 23.2539 56.9625 24.0533 56.3129 24.6828C56.1221 24.8409 55.9562 25.0262 55.8207 25.2324C55.6456 25.5296 55.6456 25.8893 55.5416 26.2141C55.4329 26.5413 55.2277 26.8292 54.952 27.041C54.6762 27.2528 54.3427 27.3789 53.9938 27.4031C54.2738 27.6438 54.4683 27.9664 54.5489 28.3237C54.6295 28.681 54.5919 29.0542 54.4418 29.389C54.2916 29.7238 54.0366 30.0026 53.7141 30.1846C53.3916 30.3666 53.0184 30.4423 52.649 30.4007C53.0238 31.107 53.232 31.8874 53.258 32.6838C52.2518 32.7344 51.2684 32.9977 50.3747 33.4559C49.4811 33.9141 48.6982 34.5565 48.0793 35.3392C47.8587 35.2903 47.6509 35.1966 47.4692 35.0641C47.2875 34.9316 47.1358 34.7633 47.0238 34.5698C46.4631 35.0694 45.5649 34.7497 44.9762 34.2926C42.8474 32.6664 42.2486 29.4015 43.6695 27.1458C44.3673 26.0217 45.8643 25.1474 47.0061 25.8219C47.3055 25.3473 47.9804 25.2049 48.5284 25.3473C49.0741 25.5346 49.5718 25.8363 49.9874 26.2315C49.8808 25.4022 50.5964 24.6029 51.4286 24.4405C51.8534 24.3865 52.2851 24.4385 52.6842 24.5917C53.0832 24.7449 53.4367 24.9944 53.7122 25.3173C53.4787 25.05 58.089 21.1406 58.5737 20.8209C58.8452 20.6535 60.4893 19.8916 60.1696 20.9683Z" fill="#3D467F"/>
<path opacity="0.24" d="M59.1219 31.3271C57.3635 33.5553 55.1408 35.8959 52.2711 35.9459C51.7459 35.9459 51.1979 35.886 50.7107 36.0858C49.7744 36.4705 49.5029 37.6246 49.3558 38.6163C48.9879 41.1142 48.6225 43.6497 49.102 46.1102C49.475 48.0287 50.3529 49.8972 50.1677 51.8406C50.1322 52.1978 50.0332 52.59 49.7211 52.7798C49.474 52.8896 49.1985 52.9219 48.932 52.8723L44.5374 52.4926C44.1708 52.496 43.8112 52.3945 43.5022 52.2003C43.2552 51.9689 43.0793 51.6737 42.9947 51.3485C41.2186 46.375 41.6449 40.9419 42.0864 35.6911C42.1828 34.5345 42.2843 33.358 42.7156 32.2764C43.147 31.1947 43.9564 30.2055 45.0728 29.8333C47.6101 28.9865 50.0637 31.5619 52.7456 31.6644C55.5367 31.7693 57.4878 29.3512 59.4847 27.81C60.152 27.2929 61.7911 25.7416 61.9383 27.3279C62.0449 28.382 59.7613 30.5303 59.1219 31.3271Z" fill="url(#paint6_linear)"/>
<path opacity="0.24" d="M62.0018 46.2776C65.8849 46.2776 69.0327 43.1785 69.0327 39.3556C69.0327 35.5328 65.8849 32.4337 62.0018 32.4337C58.1188 32.4337 54.9709 35.5328 54.9709 39.3556C54.9709 43.1785 58.1188 46.2776 62.0018 46.2776Z" fill="url(#paint7_linear)"/>
<path d="M33.3885 33.6204C33.117 34.2923 32.8404 35.0042 32.9673 35.7162C33.0702 36.1635 33.2588 36.5874 33.523 36.9652C34.2885 38.1994 35.1621 39.3654 36.1338 40.4499C36.3858 40.7878 36.7349 41.0437 37.1361 41.1843C37.5088 38.5363 37.5981 35.8571 37.4025 33.1907C37.4047 32.9504 37.3481 32.7131 37.2376 32.4988C37.0505 32.2565 36.7957 32.0733 36.5043 31.9717C35.8319 31.6619 35.1621 31.2997 34.4744 31.0499C34.2715 31.2997 33.5965 33.6204 33.3885 33.6204Z" fill="#F3B496"/>
<path d="M61.2152 25.7242L58.409 25.2721C58.409 25.2721 58.1197 24.6851 58.5612 24.4852L63.0015 25.2346L61.2152 25.7242Z" fill="#606161"/>
<path d="M52.6467 30.6976C53.0712 30.7583 53.502 30.7642 53.928 30.7151C54.0929 30.6502 58.8935 26.8982 60.7331 25.9689C61.5837 25.4503 62.5618 25.1696 63.5622 25.1571C64.024 25.1271 64.5771 25.1421 64.8309 25.5293C64.9046 25.6651 64.9382 25.8185 64.9278 25.9721C64.9175 26.1258 64.8637 26.2735 64.7725 26.3986C64.5877 26.6464 64.3413 26.8434 64.057 26.9706C63.4702 27.2711 62.8266 27.4489 62.1667 27.4927C61.9946 27.4914 61.8234 27.5167 61.6592 27.5676C61.4475 27.671 61.2652 27.8247 61.1289 28.0148C59.7672 29.6018 58.3421 31.1314 56.8535 32.6036C56.0594 33.3879 55.1612 34.1973 54.0422 34.3222C53.6396 34.3564 53.2341 34.3303 52.8395 34.2448C52.0686 34.0975 51.3222 33.8453 50.6219 33.4954C50.4695 33.4305 50.3348 33.3312 50.2286 33.2056C50.1171 33.0287 50.0664 32.8211 50.084 32.6136C50.0995 31.9237 50.3527 31.2596 50.8021 30.7301C51.3907 30.0406 51.8931 30.5352 52.6467 30.6976Z" fill="#F3B496"/>
<path d="M45.9507 21.4251C45.9974 21.9985 45.9752 22.5754 45.8847 23.1437C45.7705 23.7232 45.4407 24.3377 44.8698 24.4876C44.5298 24.575 44.1314 24.4876 43.8548 24.7149C43.6468 24.8823 43.5884 25.1646 43.4489 25.3919C43.3135 25.5814 43.1332 25.7355 42.9236 25.8408C42.714 25.9462 42.4815 25.9996 42.2462 25.9964C41.7757 25.9846 41.3107 25.8942 40.871 25.7291C40.7559 25.7026 40.6489 25.6495 40.5589 25.5742C40.4424 25.4264 40.3863 25.2411 40.4016 25.0547C40.3491 23.6308 40.3288 22.2053 40.3407 20.7781C40.3169 20.3662 40.3827 19.954 40.5335 19.5691C40.7993 19.1144 41.2068 18.7561 41.6956 18.5474C42.3865 18.1966 43.1301 17.9571 43.898 17.838C44.6059 17.7256 45.7832 17.7905 45.9126 18.6898C45.9189 19.0185 45.9036 19.3472 45.8669 19.674C45.8796 20.251 45.9278 20.8356 45.9507 21.4251Z" fill="#F3B496"/>
<path d="M46.3793 16.8166C46.4918 16.9842 46.5632 17.1752 46.5878 17.3746C46.6125 17.5741 46.5898 17.7764 46.5214 17.9657C46.3784 18.3449 46.1327 18.6783 45.8109 18.9299C45.62 19.0658 45.4492 19.2272 45.3035 19.4095C44.9965 19.8616 45.1436 20.4661 45.0498 21.0057C45.0498 21.0482 45.0244 21.1006 44.9787 21.1081C44.933 21.1156 44.9001 21.0782 44.8696 21.0432C44.7845 20.9463 44.6702 20.8789 44.5433 20.8506C44.4165 20.8224 44.2838 20.8349 44.1647 20.8862C44.0455 20.9376 43.9462 21.0252 43.8813 21.1361C43.8164 21.2471 43.7893 21.3756 43.8039 21.5028C43.8395 21.8275 44.1363 22.0948 44.1236 22.4221C44.0973 22.6075 44.0161 22.7813 43.8902 22.9217C43.7982 23.0682 43.6627 23.1833 43.502 23.2514C43.37 23.2801 43.2331 23.2801 43.1011 23.2514L40.3608 22.9392C40.2064 22.9277 40.054 22.8983 39.9066 22.8517C39.7133 22.7701 39.5413 22.6463 39.4037 22.4896C39.2662 22.333 39.1665 22.1476 39.1124 21.9475C39.0087 21.5462 38.9642 21.1322 38.9805 20.7184C38.9805 19.969 38.945 19.1797 38.6329 18.4852C38.5756 18.3866 38.5475 18.2741 38.5517 18.1605C38.5713 18.0848 38.6086 18.0146 38.6608 17.9557C39.0947 17.4036 39.7544 17.0239 40.0512 16.3919C40.0978 16.2732 40.1565 16.1593 40.2263 16.0522C40.4547 15.7549 40.8987 15.7499 41.2768 15.7699L42.9692 15.8623C43.3574 15.8823 43.6593 15.7399 44.0298 15.715C44.3046 15.7152 44.5762 15.7731 44.8265 15.8848C45.3339 16.1047 46.0495 16.3694 46.3793 16.8166Z" fill="#606161"/>
<path d="M46.3793 16.8166C46.4918 16.9842 46.5632 17.1752 46.5878 17.3746C46.6125 17.5741 46.5898 17.7764 46.5214 17.9657C46.3784 18.3449 46.1327 18.6783 45.8109 18.9299C45.62 19.0658 45.4492 19.2272 45.3035 19.4095C44.9965 19.8616 45.1436 20.4661 45.0498 21.0057C45.0498 21.0482 45.0244 21.1006 44.9787 21.1081C44.933 21.1156 44.9001 21.0782 44.8696 21.0432C44.7845 20.9463 44.6702 20.8789 44.5433 20.8506C44.4165 20.8224 44.2838 20.8349 44.1647 20.8862C44.0455 20.9376 43.9462 21.0252 43.8813 21.1361C43.8164 21.2471 43.7893 21.3756 43.8039 21.5028C43.8395 21.8275 44.1363 22.0948 44.1236 22.4221C44.0973 22.6075 44.0161 22.7813 43.8902 22.9217C43.7982 23.0682 43.6627 23.1833 43.502 23.2514C43.37 23.2801 43.2331 23.2801 43.1011 23.2514L40.3608 22.9392C40.2064 22.9277 40.054 22.8983 39.9066 22.8517C39.7133 22.7701 39.5413 22.6463 39.4037 22.4896C39.2662 22.333 39.1665 22.1476 39.1124 21.9475C39.0087 21.5462 38.9642 21.1322 38.9805 20.7184C38.9805 19.969 38.945 19.1797 38.6329 18.4852C38.5756 18.3866 38.5475 18.2741 38.5517 18.1605C38.5713 18.0848 38.6086 18.0146 38.6608 17.9557C39.0947 17.4036 39.7544 17.0239 40.0512 16.3919C40.0978 16.2732 40.1565 16.1593 40.2263 16.0522C40.4547 15.7549 40.8987 15.7499 41.2768 15.7699L42.9692 15.8623C43.3574 15.8823 43.6593 15.7399 44.0298 15.715C44.3046 15.7152 44.5762 15.7731 44.8265 15.8848C45.3339 16.1047 46.0495 16.3694 46.3793 16.8166Z" fill="url(#paint8_linear)"/>
<path d="M40.2315 25.2722C41.2464 25.4471 42.3121 25.4021 43.3524 25.4421C44.9306 25.4995 46.5519 25.7743 47.8764 26.6186C48.4137 26.9832 48.9188 27.3918 49.3861 27.8401L51.6697 29.916C51.7606 29.9761 51.8307 30.0622 51.8706 30.1626C51.9105 30.2631 51.9183 30.3731 51.893 30.478C51.7714 31.5787 51.2355 32.5947 50.3909 33.3257C50.3414 33.3779 50.2767 33.4137 50.2057 33.4281C50.1356 33.4288 50.0665 33.4116 50.0052 33.3782L47.4679 32.2191C47.3804 32.7108 47.3804 33.2137 47.4679 33.7054C48.12 37.31 47.4679 41.0645 47.1482 44.7115C47.1466 44.8778 47.1076 45.0415 47.034 45.1912C46.9283 45.3449 46.7829 45.4682 46.6128 45.5484C45.1843 46.3352 43.4666 46.3677 41.83 46.3577C40.3076 46.3577 38.6964 46.2828 37.4734 45.4085C37.3269 45.3134 37.2031 45.1881 37.1106 45.0413C37.0195 44.8362 36.9794 44.6127 36.9939 44.3893L36.8518 34.8845C36.863 34.6591 36.8312 34.4338 36.7579 34.22C36.5321 33.6655 34.4312 32.8011 34.0684 31.105C34.3246 29.3289 38.7776 25.5345 40.2315 25.2722Z" fill="url(#paint9_linear)"/>
<path d="M40.2315 25.2722C41.2464 25.4471 42.3121 25.4021 43.3524 25.4421C44.9306 25.4995 46.5519 25.7743 47.8764 26.6186C48.4137 26.9832 48.9188 27.3918 49.3861 27.8401L51.6697 29.916C51.7606 29.9761 51.8307 30.0622 51.8706 30.1626C51.9105 30.2631 51.9183 30.3731 51.893 30.478C51.7714 31.5787 51.2355 32.5947 50.3909 33.3257C50.3414 33.3779 50.2767 33.4137 50.2057 33.4281C50.1356 33.4288 50.0665 33.4116 50.0052 33.3782L47.4679 32.2191C47.3804 32.7108 47.3804 33.2137 47.4679 33.7054C48.12 37.31 47.4679 41.0645 47.1482 44.7115C47.1466 44.8778 47.1076 45.0415 47.034 45.1912C46.9283 45.3449 46.7829 45.4682 46.6128 45.5484C45.1843 46.3352 43.4666 46.3677 41.83 46.3577C40.3076 46.3577 38.6964 46.2828 37.4734 45.4085C37.3269 45.3134 37.2031 45.1881 37.1106 45.0413C37.0195 44.8362 36.9794 44.6127 36.9939 44.3893L36.8518 34.8845C36.863 34.6591 36.8312 34.4338 36.7579 34.22C36.5321 33.6655 34.4312 32.8011 34.0684 31.105C34.3246 29.3289 38.7776 25.5345 40.2315 25.2722Z" fill="url(#paint10_linear)"/>
<path d="M47.0263 45.181C47.0263 45.181 49.1196 56.1722 49.1196 57.6435C49.1196 59.1148 46.3996 73.2509 46.3996 73.2509C46.3996 73.2509 44.0171 73.3858 43.4056 72.5815L44.5626 59.0549L42.6292 53.2445L41.632 60.8584L35.304 72.9162L32.178 71.0452L38.3157 58.0557C38.3157 58.0557 35.238 51.6533 37.1156 45.0411L47.0263 45.181Z" fill="#606161"/>
<path d="M47.0263 45.181C47.0263 45.181 49.1196 56.1722 49.1196 57.6435C49.1196 59.1148 46.3996 73.2509 46.3996 73.2509C46.3996 73.2509 44.0171 73.3858 43.4056 72.5815L44.5626 59.0549L42.6292 53.2445L41.632 60.8584L35.304 72.9162L32.178 71.0452L38.3157 58.0557C38.3157 58.0557 35.238 51.6533 37.1156 45.0411L47.0263 45.181Z" fill="url(#paint11_linear)"/>
<path d="M43.4464 77.0729C43.4432 77.1096 43.4493 77.1465 43.4641 77.1803C43.4925 77.2226 43.536 77.2529 43.5859 77.2652C44.0401 77.4075 44.5152 77.4742 44.9916 77.4626C46.5292 77.5025 48.0685 77.5367 49.6095 77.565C49.6095 76.8406 48.9752 76.2535 48.2927 75.9837C47.6101 75.714 46.8616 75.669 46.1512 75.4841C46.0057 75.4607 45.873 75.3883 45.7756 75.2793C45.7167 75.1731 45.6886 75.053 45.6944 74.9321L45.6386 73.5007C45.6461 73.4143 45.6359 73.3273 45.6084 73.2449C45.5809 73.1625 45.5368 73.0864 45.4788 73.0211C45.4117 72.9732 45.3359 72.9384 45.2555 72.9187C44.9739 72.8363 44.2533 72.539 43.9868 72.7164C43.7204 72.8937 43.7204 73.6207 43.6798 73.9204C43.5309 74.965 43.453 76.0181 43.4464 77.0729Z" fill="#606161"/>
<path d="M31.0949 74.2627C31.0697 74.2931 31.0512 74.3282 31.0403 74.3659C31.0295 74.4036 31.0266 74.4431 31.0318 74.4819C31.0371 74.5208 31.0503 74.5582 31.0707 74.5918C31.0912 74.6254 31.1184 74.6545 31.1507 74.6774L33.381 77.1754C33.4387 77.2505 33.5112 77.3134 33.5941 77.3602C33.6921 77.4004 33.7976 77.42 33.9037 77.4177C34.8273 77.4552 35.7559 77.4527 36.6795 77.4177C36.6199 77.1198 36.4929 76.8389 36.308 76.5959C36.123 76.3529 35.8849 76.1539 35.6113 76.0138C35.2637 75.839 34.8501 75.764 34.5558 75.5142C34.2947 75.2759 34.091 74.9832 33.9595 74.6574C33.8405 74.4932 33.7801 74.2947 33.7879 74.0931C33.7958 73.8915 33.8713 73.6982 34.0026 73.5433L34.4619 72.7939C34.5287 72.7134 34.575 72.6184 34.5971 72.5168C34.6191 72.4151 34.6163 72.3098 34.5888 72.2094C34.5227 72.1 34.4245 72.0129 34.3071 71.9596C33.9874 71.7748 33.5459 71.3976 33.1805 71.3301C32.8152 71.2627 32.6731 71.5999 32.4853 71.9021C32.0362 72.669 31.4653 73.4459 31.0949 74.2627Z" fill="#606161"/>
<path opacity="0.24" d="M89.0596 21.6051H72.1154C71.7777 21.6051 71.5039 21.8746 71.5039 22.2071V22.2096C71.5039 22.5421 71.7777 22.8116 72.1154 22.8116H89.0596C89.3973 22.8116 89.6711 22.5421 89.6711 22.2096V22.2071C89.6711 21.8746 89.3973 21.6051 89.0596 21.6051Z" fill="url(#paint12_linear)"/>
<path opacity="0.24" d="M88.8567 23.6809H71.9125C71.5748 23.6809 71.301 23.9504 71.301 24.2829V24.2854C71.301 24.6179 71.5748 24.8874 71.9125 24.8874H88.8567C89.1944 24.8874 89.4682 24.6179 89.4682 24.2854V24.2829C89.4682 23.9504 89.1944 23.6809 88.8567 23.6809Z" fill="url(#paint13_linear)"/>
<path opacity="0.24" d="M88.6514 25.7592H71.7072C71.3695 25.7592 71.0957 26.0287 71.0957 26.3612V26.3637C71.0957 26.6962 71.3695 26.9657 71.7072 26.9657H88.6514C88.9891 26.9657 89.2628 26.6962 89.2628 26.3637V26.3612C89.2628 26.0287 88.9891 25.7592 88.6514 25.7592Z" fill="url(#paint14_linear)"/>
<path opacity="0.24" d="M88.4482 27.8352H71.5041C71.1664 27.8352 70.8926 28.1047 70.8926 28.4372V28.4397C70.8926 28.7722 71.1664 29.0417 71.5041 29.0417H88.4482C88.786 29.0417 89.0597 28.7722 89.0597 28.4397V28.4372C89.0597 28.1047 88.786 27.8352 88.4482 27.8352Z" fill="url(#paint15_linear)"/>
<path opacity="0.24" d="M89.468 31.1848H70.6208V47.5292H89.468V31.1848Z" fill="url(#paint16_linear)"/>
<path opacity="0.24" d="M72.4809 36.7228L76.2894 42.9728L82.4601 35.3814L85.0913 39.0435L88.811 33.0608V46.6349H71.301V39.3133L72.4809 36.7228Z" fill="#3D467F"/>
<path opacity="0.24" d="M90.1989 33.7105C89.3286 32.9011 87.9889 32.7238 86.8319 33.0211C85.6749 33.3183 84.6701 34.0327 83.7871 34.8246C83.2408 35.2738 82.7854 35.8204 82.4449 36.4358C82.0313 37.2601 81.9831 38.2144 81.978 39.1336C81.9704 41.1676 82.1402 43.1984 82.4855 45.2037C82.502 45.3949 82.5674 45.5788 82.6758 45.7383C83.0006 46.1355 83.6349 45.9506 84.15 46.0056C84.7742 46.073 85.2841 46.5452 85.6013 47.0797C85.8807 47.6329 86.1248 48.2027 86.3321 48.7858C86.7998 49.8576 87.5464 50.789 88.4964 51.4862C89.1815 51.9858 90.1888 52.343 90.8485 51.8059C91.0713 51.5957 91.2445 51.3399 91.3559 51.0565C94.5022 44.2995 91.9141 36.166 94.18 29.0742C94.3221 28.6296 95.3573 26.5463 94.6874 26.234C94.18 26.0092 93.4061 27.3007 93.1879 27.5904C92.5176 28.448 91.9234 29.3606 91.4118 30.3182C91.2037 30.6954 89.8513 33.3883 90.1989 33.7105Z" fill="url(#paint17_linear)"/>
<path d="M67.6043 17.8558C67.1121 18.6551 65.9703 19.6043 64.5012 20.3687C62.2303 21.5478 60.0355 21.835 59.5915 21.0057C59.5368 20.882 59.5109 20.7478 59.5157 20.6129C59.5205 20.4781 59.556 20.346 59.6194 20.2263C59.8224 19.7267 60.3349 19.1322 61.0707 18.5502C61.639 18.1021 62.251 17.7105 62.8976 17.3811C64.3083 16.6467 65.6886 16.257 66.6376 16.267L67.6043 17.8558Z" fill="url(#paint18_linear)"/>
<path opacity="0.24" d="M61.0705 18.5501C60.3347 19.1321 59.8222 19.7217 59.6192 20.2263C59.0788 19.5968 57.5894 19.1221 57.5894 19.1221C58.8174 18.2453 60.6062 18.4752 61.0705 18.5501Z" fill="#3D467F"/>
<path opacity="0.24" d="M60.4768 23.8331C60.4768 23.8331 62.4661 22.834 62.8264 21.0729C62.8264 21.0729 61.1365 21.7373 60.3347 21.4326C60.3347 21.4326 60.8675 22.1845 60.4768 23.8331Z" fill="#3D467F"/>
<path opacity="0.24" d="M67.6144 17.8381L66.6477 16.2494C66.6477 16.2494 68.2335 15.9996 68.4466 16.2793C68.6598 16.5591 67.721 17.7132 67.6144 17.8381Z" fill="#3D467F"/>
<path opacity="0.24" d="M62.6259 20.0214C63.0211 20.0214 63.3414 19.706 63.3414 19.317C63.3414 18.9279 63.0211 18.6125 62.6259 18.6125C62.2308 18.6125 61.9104 18.9279 61.9104 19.317C61.9104 19.706 62.2308 20.0214 62.6259 20.0214Z" fill="#3D467F"/>
<path opacity="0.24" d="M64.1155 19.0421C64.4266 19.0421 64.6788 18.7938 64.6788 18.4875C64.6788 18.1813 64.4266 17.933 64.1155 17.933C63.8044 17.933 63.5522 18.1813 63.5522 18.4875C63.5522 18.7938 63.8044 19.0421 64.1155 19.0421Z" fill="#3D467F"/>
<path opacity="0.24" d="M65.5286 18.3377C65.8397 18.3377 66.0919 18.0895 66.0919 17.7832C66.0919 17.4769 65.8397 17.2286 65.5286 17.2286C65.2175 17.2286 64.9653 17.4769 64.9653 17.7832C64.9653 18.0895 65.2175 18.3377 65.5286 18.3377Z" fill="#3D467F"/>
<path d="M36.7506 34.2099V29.7985C36.7506 29.7985 34.6497 30.7827 34.2869 31.6744C34.2869 31.6744 36.2634 33.9751 36.7506 34.2099Z" fill="url(#paint19_linear)"/>
<path d="M91.2368 59.4472C91.1312 59.8498 91.1453 60.2738 91.2774 60.6687C92.0005 63.7962 92.678 66.9637 92.6932 70.1611C92.6932 71.0379 92.645 71.9372 92.2923 72.7415C91.9591 73.4466 91.4609 74.0638 90.8384 74.5426C90.6076 74.7324 90.331 74.9822 90.4122 75.267C90.4514 75.3828 90.5269 75.4834 90.6279 75.5542C90.825 75.7068 91.0626 75.8003 91.3122 75.8238C91.5619 75.8473 91.8131 75.7997 92.0361 75.6866C92.2811 75.5379 92.4997 75.3505 92.6831 75.1321L94.3831 73.3111C94.4756 73.2222 94.5505 73.1172 94.6038 73.0013C94.6579 72.759 94.6284 72.5059 94.5201 72.2819C93.8274 70.1386 94.751 67.8455 94.8677 65.5998C94.9743 63.509 94.3729 61.4531 93.7792 59.4422C93.7283 59.2194 93.6344 59.0082 93.5026 58.8202C93.3782 58.6847 93.2238 58.5791 93.0513 58.5115C92.8789 58.4439 92.693 58.4162 92.508 58.4305C92.1385 58.4619 91.7762 58.5504 91.4347 58.6928" fill="#F3B496"/>
<path d="M94.7305 59.8769C95.0434 62.2867 95.3352 64.7014 95.6058 67.1211C95.8875 69.654 96.1437 72.2594 95.4739 74.7225C95.3369 75.2221 95.1745 75.8266 95.4967 76.2462C95.6587 76.4266 95.8813 76.5434 96.1237 76.5751C96.3661 76.6067 96.612 76.5512 96.8161 76.4186C97.0155 76.2804 97.1834 76.1029 97.3092 75.8973C97.435 75.6917 97.5159 75.4626 97.5469 75.2246C97.6014 74.749 97.6014 74.2688 97.5469 73.7932C97.3794 70.7382 98.0873 67.7081 98.2776 64.6556C98.3774 63.5061 98.3228 62.3488 98.1152 61.2134C97.8767 60.0643 97.2957 58.4106 96.2021 57.7736C94.7964 56.9468 94.6188 59.0076 94.7305 59.8769Z" fill="#F3B496"/>
<path d="M89.6281 75.6639C89.5508 75.7321 89.4915 75.8179 89.4556 75.9137C89.4425 76.0021 89.4587 76.0923 89.5016 76.171C89.5446 76.2497 89.612 76.3127 89.6941 76.3509C89.8599 76.4225 90.0413 76.4525 90.2218 76.4383C90.9132 76.457 91.5921 76.2555 92.1578 75.8638C92.9012 75.2967 93.2488 74.3075 94.0582 73.8404C94.0837 73.822 94.1133 73.81 94.1445 73.8054C94.3678 73.7779 94.2891 74.2051 94.4794 74.3175C94.6697 74.4299 94.8245 74.1751 94.86 73.9803C94.926 73.6311 94.926 73.2729 94.86 72.9236C94.8347 72.8062 94.7865 72.6738 94.6672 72.6389C94.5479 72.6039 94.3982 72.7613 94.3247 72.8887C94.1085 73.313 93.7907 73.6791 93.3985 73.9553C92.6754 74.4124 91.9497 74.1751 91.1784 74.345C90.5085 74.5074 90.0772 75.1943 89.6281 75.6639Z" fill="url(#paint20_linear)"/>
<path d="M95.1772 76.456C95.1582 76.749 95.1856 77.0431 95.2584 77.3278C95.2965 77.4701 95.3673 77.6018 95.4654 77.7127C95.5636 77.8236 95.6863 77.9107 95.8242 77.9673C95.9978 78.0077 96.1787 78.006 96.3515 77.9625C96.5243 77.919 96.6838 77.835 96.8163 77.7175C97.2873 77.3385 97.6197 76.8183 97.7627 76.2362C97.9026 75.6565 97.9403 75.0574 97.8744 74.4651C97.8541 74.2278 97.7957 73.9506 97.5775 73.8481C97.5229 74.1396 97.3836 74.4093 97.1764 74.6243C96.9693 74.8394 96.7031 74.9906 96.4104 75.0597C96.2233 75.1084 96.0245 75.0871 95.8525 74.9999C95.6805 74.9127 95.5475 74.7658 95.4792 74.5875C95.1316 75.0422 95.1874 75.889 95.1772 76.456Z" fill="url(#paint21_linear)"/>
<path d="M89.9251 48.8681C89.8385 50.4051 89.8648 51.9462 90.0038 53.4794L90.2575 57.2489L90.529 61.3606C90.5184 61.7436 90.615 62.122 90.8081 62.4547C91.0618 62.8044 91.4982 62.8718 91.889 62.9118C94.1586 63.1472 96.4398 63.2581 98.722 63.244C99.0214 63.244 99.3614 63.2216 99.5618 62.9618C99.693 62.7474 99.7639 62.5026 99.7673 62.2523C99.8993 60.9384 99.9247 59.6095 100.059 58.2955C100.275 56.1473 100.78 54.0489 100.99 51.9107C101.201 49.7724 101.097 47.4742 100.176 45.5758C100.084 45.3474 99.9382 45.1443 99.7496 44.9837C99.5486 44.859 99.3172 44.7899 99.0797 44.7839C96.9489 44.5573 94.8058 44.4614 92.6629 44.4966C92.2899 44.4966 91.5287 44.3567 91.2014 44.5691C90.9147 44.7539 90.6939 45.5108 90.5645 45.848C90.2148 46.822 89.9997 47.8378 89.9251 48.8681Z" fill="#606161"/>
<path d="M90.6102 24.4452C90.2905 25.382 90.09 26.4061 90.3844 27.3504C90.3996 27.4182 90.4339 27.4806 90.4833 27.5302C90.5277 27.5641 90.5786 27.5888 90.633 27.6027L91.0263 27.7301C91.1947 27.8019 91.3792 27.8294 91.5617 27.81C91.6529 27.7983 91.7365 27.7539 91.7965 27.6852C91.8564 27.6164 91.8885 27.5284 91.8865 27.4378L92.0412 27.9824L94.1497 27.795C94.2191 27.7944 94.2868 27.7745 94.3451 27.7376C94.3775 27.7045 94.4027 27.6653 94.4193 27.6224C94.4359 27.5795 94.4435 27.5337 94.4415 27.4878C94.5709 26.2163 94.5405 24.9348 94.5557 23.6559C94.5557 22.9639 94.5811 22.2445 94.302 21.61C94.0229 20.9755 93.3429 20.4534 92.6502 20.5833C91.9575 20.7132 91.6099 21.2478 91.5033 21.8748C91.346 22.7616 90.902 23.5984 90.6102 24.4452Z" fill="#606161"/>
<path d="M90.6102 24.4452C90.2905 25.382 90.09 26.4061 90.3844 27.3504C90.3996 27.4182 90.4339 27.4806 90.4833 27.5302C90.5277 27.5641 90.5786 27.5888 90.633 27.6027L91.0263 27.7301C91.1947 27.8019 91.3792 27.8294 91.5617 27.81C91.6529 27.7983 91.7365 27.7539 91.7965 27.6852C91.8564 27.6164 91.8885 27.5284 91.8865 27.4378L92.0412 27.9824L94.1497 27.795C94.2191 27.7944 94.2868 27.7745 94.3451 27.7376C94.3775 27.7045 94.4027 27.6653 94.4193 27.6224C94.4359 27.5795 94.4435 27.5337 94.4415 27.4878C94.5709 26.2163 94.5405 24.9348 94.5557 23.6559C94.5557 22.9639 94.5811 22.2445 94.302 21.61C94.0229 20.9755 93.3429 20.4534 92.6502 20.5833C91.9575 20.7132 91.6099 21.2478 91.5033 21.8748C91.346 22.7616 90.902 23.5984 90.6102 24.4452Z" fill="url(#paint22_linear)"/>
<path d="M100.987 30.6304C101.457 31.5896 101.518 32.6863 101.569 33.7504C101.675 35.8837 102.375 38.2068 101.467 40.1477C100.231 42.7981 102.759 44.207 100.929 46.3353C100.658 46.65 91.1199 47.2995 90.3485 45.6483C90.0618 45.0388 90.8332 42.878 90.7748 42.2086C90.4652 38.6839 90.1709 35.0344 91.3584 31.697C91.5927 30.9376 91.9967 30.2394 92.5408 29.6537C95.21 27.0483 99.3002 27.1432 100.987 30.6304Z" fill="url(#paint23_linear)"/>
<path d="M100.987 30.6304C101.457 31.5896 101.518 32.6863 101.569 33.7504C101.675 35.8837 102.375 38.2068 101.467 40.1477C100.231 42.7981 102.759 44.207 100.929 46.3353C100.658 46.65 91.1199 47.2995 90.3485 45.6483C90.0618 45.0388 90.8332 42.878 90.7748 42.2086C90.4652 38.6839 90.1709 35.0344 91.3584 31.697C91.5927 30.9376 91.9967 30.2394 92.5408 29.6537C95.21 27.0483 99.3002 27.1432 100.987 30.6304Z" fill="url(#paint24_linear)"/>
<path d="M91.7441 24.4702C91.6579 24.9997 91.6579 25.5394 91.7441 26.0689C91.7882 26.3334 91.8897 26.5855 92.0416 26.8079C92.1936 27.0303 92.3924 27.2179 92.6246 27.3579C92.9354 27.4898 93.2594 27.5895 93.5913 27.6551C93.6862 27.6722 93.7742 27.7155 93.845 27.78C93.8935 27.8359 93.9266 27.9029 93.9414 27.9749C93.9995 28.3258 94.0131 28.6824 93.982 29.0365C93.9686 29.2142 93.9979 29.3926 94.0676 29.5571C94.1372 29.7216 94.2453 29.8676 94.3829 29.9833C94.5025 30.0533 94.6369 30.0949 94.7757 30.1049C94.9144 30.1149 95.0536 30.0929 95.1822 30.0407C95.4394 29.9347 95.6698 29.7744 95.8571 29.5711C95.9846 29.4481 96.0978 29.3116 96.1946 29.1639C96.4415 28.6976 96.5481 28.1715 96.5016 27.6476C96.5016 26.9532 96.4306 26.2588 96.4255 25.5643C96.4255 24.3353 97.0217 23.6034 96.9811 22.3769C96.9811 22.1621 96.5219 21.4451 96.4255 21.2528C96.3309 21.092 96.21 20.9477 96.0677 20.8256C95.9302 20.6817 95.7689 20.5618 95.5907 20.4709C95.3185 20.3768 95.0249 20.3595 94.7432 20.421C94.1395 20.511 93.549 20.6729 92.9849 20.9031C92.7649 20.9826 92.5624 21.103 92.3886 21.2578C92.309 21.3379 92.2482 21.4342 92.2105 21.54C92.1728 21.6457 92.1591 21.7583 92.1704 21.8698C92.1466 22.1505 92.099 22.4287 92.0283 22.7016C91.9116 23.2895 91.8169 23.879 91.7441 24.4702Z" fill="#F3B496"/>
<path d="M91.7393 18.8374C91.1012 19.4454 90.699 20.254 90.6026 21.1231C90.5618 21.4002 90.5748 21.6825 90.6407 21.9549C90.6882 22.1596 90.8055 22.3421 90.973 22.472C91.1658 22.5912 91.3937 22.6431 91.6201 22.6194C91.8652 22.6199 92.1045 22.5457 92.3051 22.407C92.4051 22.3373 92.4824 22.2404 92.5274 22.1282C92.5725 22.016 92.5834 21.8933 92.5589 21.775L92.6248 22.3995C92.6243 22.4425 92.6376 22.4845 92.6629 22.5195C92.6879 22.5392 92.7169 22.5535 92.748 22.5613C92.7791 22.569 92.8115 22.5701 92.8431 22.5644L94.236 22.4895C94.3183 22.5027 94.4025 22.4841 94.4711 22.4376C94.5397 22.391 94.5873 22.3201 94.604 22.2397L94.8577 21.5802C94.8502 21.8405 94.9218 22.0971 95.0632 22.3171C95.1662 22.4366 95.3089 22.5162 95.466 22.5419C95.623 22.5675 95.7842 22.5374 95.9208 22.457C95.9081 24.2056 95.8828 26.0166 95.119 27.5929C95.2484 27.7507 95.4142 27.8757 95.6027 27.9574C95.7913 28.0391 95.9969 28.0751 96.2025 28.0625C96.4975 28.0787 96.7911 28.0129 97.0499 27.8726C97.178 27.8016 97.2848 27.6987 97.3596 27.5741C97.4344 27.4496 97.4746 27.3079 97.4762 27.1632L97.4458 27.6004C97.438 27.6421 97.4471 27.6851 97.4711 27.7203C97.4898 27.734 97.5112 27.7438 97.5339 27.749C97.5566 27.7541 97.5802 27.7546 97.6031 27.7502L99.024 27.6503C99.1051 27.6583 99.1865 27.6375 99.2534 27.5918C99.3204 27.546 99.3686 27.4782 99.3893 27.4005C99.789 26.6746 100.117 25.9125 100.369 25.1249C100.734 23.8559 100.701 22.5095 100.577 21.198C100.554 20.8164 100.481 20.4393 100.359 20.0764C99.9501 19.0098 98.7905 18.3878 97.6538 18.1804C96.5171 17.9731 95.3855 18.128 94.2513 18.0281C93.7979 17.9736 93.338 18.0179 92.9039 18.1578C92.4698 18.2976 92.0723 18.5296 91.7393 18.8374Z" fill="#606161"/>
<path d="M91.7393 18.8374C91.1012 19.4454 90.699 20.254 90.6026 21.1231C90.5618 21.4002 90.5748 21.6825 90.6407 21.9549C90.6882 22.1596 90.8055 22.3421 90.973 22.472C91.1658 22.5912 91.3937 22.6431 91.6201 22.6194C91.8652 22.6199 92.1045 22.5457 92.3051 22.407C92.4051 22.3373 92.4824 22.2404 92.5274 22.1282C92.5725 22.016 92.5834 21.8933 92.5589 21.775L92.6248 22.3995C92.6243 22.4425 92.6376 22.4845 92.6629 22.5195C92.6879 22.5392 92.7169 22.5535 92.748 22.5613C92.7791 22.569 92.8115 22.5701 92.8431 22.5644L94.236 22.4895C94.3183 22.5027 94.4025 22.4841 94.4711 22.4376C94.5397 22.391 94.5873 22.3201 94.604 22.2397L94.8577 21.5802C94.8502 21.8405 94.9218 22.0971 95.0632 22.3171C95.1662 22.4366 95.3089 22.5162 95.466 22.5419C95.623 22.5675 95.7842 22.5374 95.9208 22.457C95.9081 24.2056 95.8828 26.0166 95.119 27.5929C95.2484 27.7507 95.4142 27.8757 95.6027 27.9574C95.7913 28.0391 95.9969 28.0751 96.2025 28.0625C96.4975 28.0787 96.7911 28.0129 97.0499 27.8726C97.178 27.8016 97.2848 27.6987 97.3596 27.5741C97.4344 27.4496 97.4746 27.3079 97.4762 27.1632L97.4458 27.6004C97.438 27.6421 97.4471 27.6851 97.4711 27.7203C97.4898 27.734 97.5112 27.7438 97.5339 27.749C97.5566 27.7541 97.5802 27.7546 97.6031 27.7502L99.024 27.6503C99.1051 27.6583 99.1865 27.6375 99.2534 27.5918C99.3204 27.546 99.3686 27.4782 99.3893 27.4005C99.789 26.6746 100.117 25.9125 100.369 25.1249C100.734 23.8559 100.701 22.5095 100.577 21.198C100.554 20.8164 100.481 20.4393 100.359 20.0764C99.9501 19.0098 98.7905 18.3878 97.6538 18.1804C96.5171 17.9731 95.3855 18.128 94.2513 18.0281C93.7979 17.9736 93.338 18.0179 92.9039 18.1578C92.4698 18.2976 92.0723 18.5296 91.7393 18.8374Z" fill="url(#paint25_linear)"/>
<path d="M92.1907 43.4499L83.3735 44.684L80.5571 32.5962L89.3743 31.3622L92.1907 43.4499Z" fill="white"/>
<path d="M103.271 40.2202C103.271 40.6024 103.271 41.022 103.017 41.3193C102.764 41.6166 102.31 41.719 101.901 41.7639C98.9405 42.0875 95.951 41.4955 93.3477 40.0703C93.141 39.975 92.9615 39.8308 92.825 39.6507C92.7134 39.4441 92.6583 39.2125 92.6652 38.9787C92.6444 38.5039 92.6555 38.0282 92.6982 37.5548C92.6931 37.4503 92.7112 37.3459 92.751 37.2489C92.7909 37.1519 92.8516 37.0645 92.9291 36.9928C93.0746 36.9147 93.2425 36.8866 93.4061 36.9129L97.4049 37.1077C97.5384 37.131 97.676 37.1043 97.7906 37.0328C97.8811 36.9444 97.9345 36.8258 97.9403 36.7005C98.1559 35.4315 97.9403 34.1276 98.0671 32.8461C98.1661 31.9169 98.605 30.3481 99.691 30.0983C100.96 29.8061 101.368 31.3773 101.693 32.2491C102.651 34.8053 103.184 37.4969 103.271 40.2202Z" fill="url(#paint26_linear)"/>
<path d="M91.0311 36.6178C90.8687 36.5395 90.6987 36.4776 90.5236 36.433C90.3637 36.4047 90.2014 36.3913 90.039 36.393C89.6914 36.393 89.3463 36.393 89.0012 36.393C88.6944 36.388 88.3879 36.4174 88.0878 36.4804C87.9999 36.4949 87.9195 36.538 87.8595 36.6028C87.8189 36.6636 87.7976 36.7349 87.7985 36.8077C87.785 37.0598 87.8437 37.3106 87.9679 37.5314C88.0922 37.7523 88.2771 37.9343 88.5014 38.0567C88.6048 38.0961 88.6934 38.1658 88.7551 38.2565C88.783 38.3115 88.783 38.3789 88.8084 38.4364C88.8651 38.532 88.9553 38.6039 89.0621 38.6387C89.609 38.883 90.196 39.0285 90.7951 39.0684C90.8777 39.0668 90.9598 39.0821 91.0361 39.1133C91.0899 39.1451 91.1416 39.1802 91.1909 39.2182C91.3025 39.2796 91.4263 39.3164 91.5537 39.3264C91.6812 39.3363 91.8092 39.319 91.9293 39.2757C92.168 39.1884 92.4131 39.1191 92.6626 39.0684C92.8706 39.0434 93.1243 39.0509 93.2284 38.876C93.2778 38.7695 93.2877 38.6492 93.2563 38.5363C93.2362 38.2469 93.193 37.9596 93.1269 37.677C93.0609 37.4696 92.8884 37.4272 92.693 37.3497L91.8532 36.9775C91.6248 36.8751 91.2214 36.7852 91.0311 36.6178Z" fill="#F3B496"/>
<path d="M21.0953 61.0533C21.3116 58.7629 21.0411 56.4532 20.3011 54.2713C19.8723 53.0223 19.2862 51.8083 18.9081 50.5243C18.5301 49.2404 18.355 47.8715 18.7635 46.6075C19.172 45.3435 19.4663 44.2669 20.1387 43.1228C20.8796 41.8738 21.6332 40.5923 22.6963 39.5881C21.6643 41.1153 20.9518 42.8297 20.6007 44.6312C20.2495 46.4326 20.2667 48.2849 20.6513 50.0797C20.8669 51.0539 21.1892 52.0031 21.4353 52.9723C22.0062 55.2205 22.166 57.5512 22.1965 59.8693C22.1965 60.3139 22.1965 60.7935 21.9225 61.1533C21.6484 61.513 21.3668 61.4205 21.0953 61.0533Z" fill="url(#paint27_linear)"/>
<path d="M18.6746 40.7697C18.6746 40.7697 22.8129 44.4991 22.5846 49.6625C22.3562 54.8258 21.7549 60.9034 21.9071 61.1532C22.0593 61.403 24.5078 61.418 24.5078 61.418C24.2493 57.5416 24.1909 53.6547 24.3328 49.7724C24.5611 43.2951 18.6746 40.7697 18.6746 40.7697Z" fill="url(#paint28_linear)"/>
<path d="M18.6746 40.7697C18.6746 40.7697 22.8129 44.4991 22.5846 49.6625C22.3562 54.8258 21.7549 60.9034 21.9071 61.1532C22.0593 61.403 24.5078 61.418 24.5078 61.418C24.2493 57.5416 24.1909 53.6547 24.3328 49.7724C24.5611 43.2951 18.6746 40.7697 18.6746 40.7697Z" fill="url(#paint29_linear)"/>
<path d="M31.2241 41.2118C31.2241 41.2118 26.3271 44.9588 25.2005 51.1163C24.074 57.2738 23.4929 61.443 23.4929 61.443L26.284 61.3281C26.284 61.3281 26.322 51.3836 28.499 46.8697C30.6761 42.3559 31.2241 41.2118 31.2241 41.2118Z" fill="url(#paint30_linear)"/>
<path d="M31.2241 41.2118C31.2241 41.2118 26.3271 44.9588 25.2005 51.1163C24.074 57.2738 23.4929 61.443 23.4929 61.443L26.284 61.3281C26.284 61.3281 26.322 51.3836 28.499 46.8697C30.6761 42.3559 31.2241 41.2118 31.2241 41.2118Z" fill="url(#paint31_linear)"/>
<path d="M25.8222 37.5724C25.8222 37.5724 27.5983 44.0372 26.4845 47.2496C25.3706 50.462 24.9621 61.5331 24.9621 61.5331L23.4854 61.4382C23.4854 61.4382 23.6198 49.7151 24.1451 47.994C24.6703 46.2729 26.2688 42.0138 25.8222 37.5724Z" fill="url(#paint32_linear)"/>
<path d="M25.8222 37.5724C25.8222 37.5724 27.5983 44.0372 26.4845 47.2496C25.3706 50.462 24.9621 61.5331 24.9621 61.5331L23.4854 61.4382C23.4854 61.4382 23.6198 49.7151 24.1451 47.994C24.6703 46.2729 26.2688 42.0138 25.8222 37.5724Z" fill="url(#paint33_linear)"/>
<path d="M13.9351 46.8324C13.9351 46.8324 21.0395 45.7233 22.8715 50.427C24.7034 55.1307 22.8715 61.3957 22.8715 61.3957L21.9022 61.1584C21.9022 61.1584 22.8131 51.2114 17.3351 48.4586L13.9351 46.8324Z" fill="url(#paint34_linear)"/>
<path d="M13.9351 46.8324C13.9351 46.8324 21.0395 45.7233 22.8715 50.427C24.7034 55.1307 22.8715 61.3957 22.8715 61.3957L21.9022 61.1584C21.9022 61.1584 22.8131 51.2114 17.3351 48.4586L13.9351 46.8324Z" fill="url(#paint35_linear)"/>
<path d="M21.0953 61.0533C21.3116 58.7629 21.0411 56.4532 20.3011 54.2713C19.8723 53.0223 19.2862 51.8083 18.9081 50.5243C18.5301 49.2404 18.355 47.8715 18.7635 46.6075C19.172 45.3435 19.4663 44.2669 20.1387 43.1228C20.8796 41.8738 21.6332 40.5923 22.6963 39.5881C21.6643 41.1153 20.9518 42.8297 20.6007 44.6312C20.2495 46.4326 20.2667 48.2849 20.6513 50.0797C20.8669 51.0539 21.1892 52.0031 21.4353 52.9723C22.0062 55.2205 22.166 57.5512 22.1965 59.8693C22.1965 60.3139 22.1965 60.7935 21.9225 61.1533C21.6484 61.513 21.3668 61.4205 21.0953 61.0533Z" fill="url(#paint36_linear)"/>
<path d="M19.3345 60.6387H28.6591L26.7942 74.8672H21.0446L19.3345 60.6387Z" fill="url(#paint37_linear)"/>
<path d="M19.3345 60.6387H28.6591L26.7942 74.8672H21.0446L19.3345 60.6387Z" fill="url(#paint38_linear)" fill-opacity="0.8"/>
<defs>
<linearGradient id="paint0_linear" x1="56.5097" y1="-38.3573" x2="120.192" y2="85.6742" gradientUnits="userSpaceOnUse">
<stop stop-color="#D5C1FC"/>
<stop offset="1" stop-color="#FB9CCB"/>
</linearGradient>
<linearGradient id="paint1_linear" x1="91.4267" y1="71.9337" x2="92.1143" y2="80.3214" gradientUnits="userSpaceOnUse">
<stop stop-color="#D5C1FC"/>
<stop offset="1" stop-color="#FB9CCB"/>
</linearGradient>
<linearGradient id="paint2_linear" x1="37.229" y1="73.367" x2="37.8371" y2="81.6036" gradientUnits="userSpaceOnUse">
<stop stop-color="#D5C1FC"/>
<stop offset="1" stop-color="#FB9CCB"/>
</linearGradient>
<linearGradient id="paint3_linear" x1="59.4262" y1="-8.66131" x2="93.952" y2="60.5392" gradientUnits="userSpaceOnUse">
<stop stop-color="#D5C1FC"/>
<stop offset="1" stop-color="#FB9CCB"/>
</linearGradient>
<linearGradient id="paint4_linear" x1="58.4776" y1="-26.9408" x2="65.1637" y2="45.6026" gradientUnits="userSpaceOnUse">
<stop offset="0.270833" stop-color="white" stop-opacity="0"/>
<stop offset="1" stop-color="white"/>
</linearGradient>
<linearGradient id="paint5_linear" x1="52.4659" y1="25.0549" x2="67.1206" y2="44.1916" gradientUnits="userSpaceOnUse">
<stop stop-color="#D5C1FC"/>
<stop offset="1" stop-color="#FB9CCB"/>
</linearGradient>
<linearGradient id="paint6_linear" x1="50.1518" y1="12.1859" x2="78.8982" y2="40.6896" gradientUnits="userSpaceOnUse">
<stop stop-color="#D5C1FC"/>
<stop offset="1" stop-color="#FB9CCB"/>
</linearGradient>
<linearGradient id="paint7_linear" x1="60.8428" y1="24.8186" x2="75.47" y2="43.9315" gradientUnits="userSpaceOnUse">
<stop stop-color="#D5C1FC"/>
<stop offset="1" stop-color="#FB9CCB"/>
</linearGradient>
<linearGradient id="paint8_linear" x1="38.5466" y1="19.5044" x2="46.595" y2="19.5044" gradientUnits="userSpaceOnUse">
<stop stop-color="#010101" stop-opacity="0"/>
<stop offset="0.95" stop-color="#010101"/>
</linearGradient>
<linearGradient id="paint9_linear" x1="41.5176" y1="13.673" x2="64.5169" y2="38.7031" gradientUnits="userSpaceOnUse">
<stop stop-color="#D5C1FC"/>
<stop offset="1" stop-color="#FB9CCB"/>
</linearGradient>
<linearGradient id="paint10_linear" x1="3338.25" y1="4387.49" x2="985.914" y2="5842.84" gradientUnits="userSpaceOnUse">
<stop stop-color="#010101" stop-opacity="0"/>
<stop offset="0.95" stop-color="#010101"/>
</linearGradient>
<linearGradient id="paint11_linear" x1="2966.47" y1="9912.98" x2="2966.47" y2="5614.77" gradientUnits="userSpaceOnUse">
<stop stop-color="#010101" stop-opacity="0"/>
<stop offset="0.95" stop-color="#010101"/>
</linearGradient>
<linearGradient id="paint12_linear" x1="79.0901" y1="20.9414" x2="79.2261" y2="23.5758" gradientUnits="userSpaceOnUse">
<stop stop-color="#D5C1FC"/>
<stop offset="1" stop-color="#FB9CCB"/>
</linearGradient>
<linearGradient id="paint13_linear" x1="78.8872" y1="23.0172" x2="79.0232" y2="25.6516" gradientUnits="userSpaceOnUse">
<stop stop-color="#D5C1FC"/>
<stop offset="1" stop-color="#FB9CCB"/>
</linearGradient>
<linearGradient id="paint14_linear" x1="78.6819" y1="25.0955" x2="78.8179" y2="27.7298" gradientUnits="userSpaceOnUse">
<stop stop-color="#D5C1FC"/>
<stop offset="1" stop-color="#FB9CCB"/>
</linearGradient>
<linearGradient id="paint15_linear" x1="78.4788" y1="27.1715" x2="78.6148" y2="29.8058" gradientUnits="userSpaceOnUse">
<stop stop-color="#D5C1FC"/>
<stop offset="1" stop-color="#FB9CCB"/>
</linearGradient>
<linearGradient id="paint16_linear" x1="78.491" y1="22.1943" x2="95.0754" y2="46.7956" gradientUnits="userSpaceOnUse">
<stop stop-color="#D5C1FC"/>
<stop offset="1" stop-color="#FB9CCB"/>
</linearGradient>
<linearGradient id="paint17_linear" x1="87.3784" y1="11.98" x2="113.142" y2="28.5519" gradientUnits="userSpaceOnUse">
<stop stop-color="#D5C1FC"/>
<stop offset="1" stop-color="#FB9CCB"/>
</linearGradient>
<linearGradient id="paint18_linear" x1="2170.3" y1="624.214" x2="2180.13" y2="787.011" gradientUnits="userSpaceOnUse">
<stop stop-color="white" stop-opacity="0"/>
<stop offset="0.95" stop-color="white"/>
</linearGradient>
<linearGradient id="paint19_linear" x1="411.263" y1="862.414" x2="409.842" y2="1102.92" gradientUnits="userSpaceOnUse">
<stop stop-color="#010101" stop-opacity="0"/>
<stop offset="0.95" stop-color="#010101"/>
</linearGradient>
<linearGradient id="paint20_linear" x1="91.7305" y1="70.5393" x2="95.2238" y2="76.9811" gradientUnits="userSpaceOnUse">
<stop stop-color="#D5C1FC"/>
<stop offset="1" stop-color="#FB9CCB"/>
</linearGradient>
<linearGradient id="paint21_linear" x1="96.3133" y1="71.5663" x2="100.793" y2="75.3651" gradientUnits="userSpaceOnUse">
<stop stop-color="#D5C1FC"/>
<stop offset="1" stop-color="#FB9CCB"/>
</linearGradient>
<linearGradient id="paint22_linear" x1="1667.41" y1="1235.5" x2="1740.86" y2="1235.5" gradientUnits="userSpaceOnUse">
<stop stop-color="#010101" stop-opacity="0"/>
<stop offset="0.95" stop-color="#010101"/>
</linearGradient>
<linearGradient id="paint23_linear" x1="95.1459" y1="17.4491" x2="115.278" y2="33.4106" gradientUnits="userSpaceOnUse">
<stop stop-color="#D5C1FC"/>
<stop offset="1" stop-color="#FB9CCB"/>
</linearGradient>
<linearGradient id="paint24_linear" x1="4724.2" y1="3891.68" x2="3579.54" y2="6204.18" gradientUnits="userSpaceOnUse">
<stop stop-color="#010101" stop-opacity="0"/>
<stop offset="0.95" stop-color="#010101"/>
</linearGradient>
<linearGradient id="paint25_linear" x1="94.0077" y1="24.0582" x2="104.049" y2="17.8942" gradientUnits="userSpaceOnUse">
<stop stop-color="#010101" stop-opacity="0"/>
<stop offset="0.47" stop-color="#010101" stop-opacity="0.47"/>
<stop offset="0.95" stop-color="#010101"/>
</linearGradient>
<linearGradient id="paint26_linear" x1="97.0881" y1="23.5787" x2="109.852" y2="38.3669" gradientUnits="userSpaceOnUse">
<stop stop-color="#D5C1FC"/>
<stop offset="1" stop-color="#FB9CCB"/>
</linearGradient>
<linearGradient id="paint27_linear" x1="20.2692" y1="27.6008" x2="31.3356" y2="30.323" gradientUnits="userSpaceOnUse">
<stop stop-color="#D5C1FC"/>
<stop offset="1" stop-color="#FB9CCB"/>
</linearGradient>
<linearGradient id="paint28_linear" x1="21.1104" y1="29.4116" x2="35.6217" y2="34.6853" gradientUnits="userSpaceOnUse">
<stop stop-color="#D5C1FC"/>
<stop offset="1" stop-color="#FB9CCB"/>
</linearGradient>
<linearGradient id="paint29_linear" x1="641.728" y1="5266.66" x2="334.27" y2="5446.14" gradientUnits="userSpaceOnUse">
<stop stop-color="#010101" stop-opacity="0"/>
<stop offset="0.95" stop-color="#010101"/>
</linearGradient>
<linearGradient id="paint30_linear" x1="26.7213" y1="30.0832" x2="44.2565" y2="38.7034" gradientUnits="userSpaceOnUse">
<stop stop-color="#D5C1FC"/>
<stop offset="1" stop-color="#FB9CCB"/>
</linearGradient>
<linearGradient id="paint31_linear" x1="982.548" y1="5553.6" x2="616.675" y2="5593.08" gradientUnits="userSpaceOnUse">
<stop stop-color="#010101" stop-opacity="0"/>
<stop offset="0.95" stop-color="#010101"/>
</linearGradient>
<linearGradient id="paint32_linear" x1="24.891" y1="24.3923" x2="34.0712" y2="26.0515" gradientUnits="userSpaceOnUse">
<stop stop-color="#D5C1FC"/>
<stop offset="1" stop-color="#FB9CCB"/>
</linearGradient>
<linearGradient id="paint33_linear" x1="415.516" y1="5970" x2="-676.913" y2="6760.18" gradientUnits="userSpaceOnUse">
<stop stop-color="#BA1A1A" stop-opacity="0"/>
<stop offset="0.95" stop-color="#010101"/>
</linearGradient>
<linearGradient id="paint34_linear" x1="18.0067" y1="38.645" x2="33.8762" y2="52.2073" gradientUnits="userSpaceOnUse">
<stop stop-color="#D5C1FC"/>
<stop offset="1" stop-color="#FB9CCB"/>
</linearGradient>
<linearGradient id="paint35_linear" x1="898.218" y1="4079.71" x2="1234.77" y2="4664.9" gradientUnits="userSpaceOnUse">
<stop stop-color="#010101" stop-opacity="0"/>
<stop offset="0.95" stop-color="#010101"/>
</linearGradient>
<linearGradient id="paint36_linear" x1="430.841" y1="5906.34" x2="301.1" y2="5915.38" gradientUnits="userSpaceOnUse">
<stop stop-color="#010101" stop-opacity="0"/>
<stop offset="0.95" stop-color="#010101"/>
</linearGradient>
<linearGradient id="paint37_linear" x1="23.2282" y1="52.812" x2="38.5786" y2="65.7531" gradientUnits="userSpaceOnUse">
<stop stop-color="#D5C1FC"/>
<stop offset="1" stop-color="#FB9CCB"/>
</linearGradient>
<linearGradient id="paint38_linear" x1="29.4236" y1="73.9475" x2="17.1586" y2="63.1735" gradientUnits="userSpaceOnUse">
<stop stop-color="#D58ABB"/>
<stop offset="1" stop-color="#817FBC"/>
</linearGradient>
</defs>
</svg>
