<svg width="1364" height="250" viewBox="0 0 1364 250" fill="none" xmlns="http://www.w3.org/2000/svg">
<rect width="1364" height="250" fill="url(#paint0_linear)"/>
<path d="M502.374 113.6C502.971 113.6 503.451 113.781 503.814 114.144C504.177 114.507 504.358 114.976 504.358 115.552V134.048C504.358 134.603 504.166 135.072 503.782 135.456C503.398 135.819 502.907 136 502.31 136C501.777 136 501.318 135.819 500.934 135.456C500.55 135.072 500.358 134.603 500.358 134.048V126.592H490.15V134.048C490.15 134.603 489.947 135.072 489.542 135.456C489.137 135.819 488.667 136 488.134 136C487.558 136 487.078 135.819 486.694 135.456C486.331 135.072 486.15 134.603 486.15 134.048V115.552C486.15 114.997 486.342 114.539 486.726 114.176C487.11 113.792 487.601 113.6 488.198 113.6C488.731 113.6 489.19 113.792 489.574 114.176C489.958 114.539 490.15 114.997 490.15 115.552V122.912H500.358V115.552C500.358 114.997 500.561 114.539 500.966 114.176C501.371 113.792 501.841 113.6 502.374 113.6ZM529.758 124.8C529.758 126.912 529.289 128.853 528.35 130.624C527.411 132.373 526.11 133.76 524.446 134.784C522.803 135.808 520.947 136.32 518.878 136.32C516.809 136.32 514.942 135.808 513.278 134.784C511.635 133.76 510.345 132.373 509.406 130.624C508.489 128.853 508.03 126.912 508.03 124.8C508.03 122.688 508.489 120.757 509.406 119.008C510.345 117.237 511.635 115.84 513.278 114.816C514.942 113.792 516.809 113.28 518.878 113.28C520.947 113.28 522.803 113.792 524.446 114.816C526.11 115.84 527.411 117.237 528.35 119.008C529.289 120.757 529.758 122.688 529.758 124.8ZM525.598 124.8C525.598 123.371 525.31 122.08 524.734 120.928C524.158 119.755 523.358 118.827 522.334 118.144C521.31 117.461 520.158 117.12 518.878 117.12C517.577 117.12 516.414 117.461 515.39 118.144C514.387 118.805 513.598 119.723 513.022 120.896C512.467 122.069 512.19 123.371 512.19 124.8C512.19 126.229 512.467 127.531 513.022 128.704C513.598 129.877 514.387 130.805 515.39 131.488C516.414 132.149 517.577 132.48 518.878 132.48C520.158 132.48 521.31 132.139 522.334 131.456C523.358 130.773 524.158 129.856 524.734 128.704C525.31 127.531 525.598 126.229 525.598 124.8ZM558.459 113.504C558.971 113.504 559.44 113.707 559.867 114.112C560.315 114.496 560.539 114.987 560.539 115.584C560.539 115.776 560.507 115.989 560.443 116.224L554.139 134.784C554.011 135.147 553.787 135.435 553.467 135.648C553.147 135.861 552.795 135.979 552.411 136C552.027 136 551.664 135.893 551.323 135.68C550.982 135.467 550.715 135.157 550.523 134.752L545.979 124.416L541.403 134.752C541.211 135.157 540.944 135.467 540.603 135.68C540.262 135.893 539.899 136 539.515 136C539.131 135.979 538.779 135.861 538.459 135.648C538.139 135.435 537.915 135.147 537.787 134.784L531.483 116.224C531.419 115.989 531.387 115.776 531.387 115.584C531.387 114.987 531.6 114.496 532.027 114.112C532.475 113.707 532.966 113.504 533.499 113.504C533.926 113.504 534.31 113.621 534.651 113.856C534.992 114.069 535.227 114.368 535.355 114.752L540.123 129.216L544.283 119.232C544.454 118.848 544.699 118.549 545.019 118.336C545.339 118.101 545.702 117.995 546.107 118.016C546.512 117.995 546.864 118.101 547.163 118.336C547.483 118.549 547.728 118.848 547.899 119.232L551.835 129.12L556.571 114.752C556.699 114.368 556.934 114.069 557.275 113.856C557.638 113.621 558.032 113.504 558.459 113.504ZM591.855 113.568C592.389 113.568 592.847 113.76 593.231 114.144C593.637 114.507 593.839 114.965 593.839 115.52V134.048C593.839 134.603 593.658 135.072 593.295 135.456C592.933 135.819 592.453 136 591.855 136C591.258 136 590.767 135.819 590.383 135.456C590.021 135.093 589.839 134.624 589.839 134.048V121.152L584.559 129.216C584.346 129.472 584.101 129.685 583.823 129.856C583.546 130.005 583.258 130.069 582.959 130.048C582.682 130.069 582.405 130.005 582.127 129.856C581.85 129.685 581.605 129.472 581.391 129.216L576.111 120.864V134.048C576.111 134.624 575.941 135.093 575.599 135.456C575.258 135.819 574.81 136 574.255 136C573.722 136 573.285 135.819 572.943 135.456C572.602 135.072 572.431 134.603 572.431 134.048V115.52C572.431 114.987 572.623 114.528 573.007 114.144C573.413 113.76 573.893 113.568 574.447 113.568C574.767 113.568 575.087 113.653 575.407 113.824C575.727 113.973 575.973 114.176 576.143 114.432L583.119 125.152L590.287 114.432C590.458 114.176 590.682 113.973 590.959 113.824C591.258 113.653 591.557 113.568 591.855 113.568ZM616.218 133.504C616.325 133.781 616.378 134.037 616.378 134.272C616.378 134.827 616.197 135.285 615.834 135.648C615.471 135.989 615.055 136.16 614.586 136.16C614.202 136.16 613.85 136.043 613.53 135.808C613.231 135.573 612.997 135.253 612.826 134.848L611.162 130.976H601.626L599.962 134.88C599.813 135.285 599.578 135.605 599.258 135.84C598.959 136.053 598.629 136.16 598.266 136.16C597.711 136.16 597.285 136.011 596.986 135.712C596.709 135.413 596.57 135.008 596.57 134.496C596.57 134.304 596.602 134.101 596.666 133.888L604.634 114.752C604.805 114.325 605.061 113.995 605.402 113.76C605.743 113.525 606.127 113.429 606.554 113.472C606.938 113.472 607.29 113.589 607.61 113.824C607.951 114.037 608.197 114.347 608.346 114.752L616.218 133.504ZM609.594 127.296L606.362 119.808L603.194 127.296H609.594ZM633.905 115.488C633.905 115.915 633.787 116.309 633.553 116.672L626.865 126.24V134.048C626.865 134.603 626.683 135.072 626.321 135.456C625.958 135.819 625.521 136 625.009 136C624.475 136 624.017 135.819 623.633 135.456C623.27 135.072 623.089 134.603 623.089 134.048V125.792L616.433 116.96C616.049 116.448 615.857 115.947 615.857 115.456C615.857 114.901 616.07 114.443 616.497 114.08C616.945 113.696 617.414 113.504 617.905 113.504C618.502 113.504 619.025 113.803 619.473 114.4L625.105 122.176L630.385 114.464C630.833 113.824 631.366 113.504 631.985 113.504C632.497 113.504 632.945 113.696 633.329 114.08C633.713 114.464 633.905 114.933 633.905 115.488ZM670.928 113.504C671.44 113.504 671.909 113.707 672.336 114.112C672.784 114.496 673.008 114.987 673.008 115.584C673.008 115.776 672.976 115.989 672.912 116.224L666.608 134.784C666.48 135.147 666.256 135.435 665.936 135.648C665.616 135.861 665.264 135.979 664.88 136C664.496 136 664.133 135.893 663.792 135.68C663.45 135.467 663.184 135.157 662.992 134.752L658.448 124.416L653.872 134.752C653.68 135.157 653.413 135.467 653.072 135.68C652.73 135.893 652.368 136 651.984 136C651.6 135.979 651.248 135.861 650.928 135.648C650.608 135.435 650.384 135.147 650.256 134.784L643.952 116.224C643.888 115.989 643.856 115.776 643.856 115.584C643.856 114.987 644.069 114.496 644.496 114.112C644.944 113.707 645.434 113.504 645.968 113.504C646.394 113.504 646.778 113.621 647.12 113.856C647.461 114.069 647.696 114.368 647.824 114.752L652.592 129.216L656.752 119.232C656.922 118.848 657.168 118.549 657.488 118.336C657.808 118.101 658.17 117.995 658.576 118.016C658.981 117.995 659.333 118.101 659.632 118.336C659.952 118.549 660.197 118.848 660.368 119.232L664.304 129.12L669.04 114.752C669.168 114.368 669.402 114.069 669.744 113.856C670.106 113.621 670.501 113.504 670.928 113.504ZM688.603 132.32C689.158 132.32 689.617 132.512 689.979 132.896C690.363 133.259 690.555 133.685 690.555 134.176C690.555 134.709 690.363 135.147 689.979 135.488C689.617 135.829 689.158 136 688.603 136H677.883C677.329 136 676.859 135.819 676.475 135.456C676.113 135.072 675.931 134.603 675.931 134.048V115.552C675.931 114.997 676.113 114.539 676.475 114.176C676.859 113.792 677.329 113.6 677.883 113.6H688.603C689.158 113.6 689.617 113.781 689.979 114.144C690.363 114.485 690.555 114.933 690.555 115.488C690.555 116.021 690.374 116.459 690.011 116.8C689.649 117.12 689.179 117.28 688.603 117.28H679.931V122.72H687.163C687.718 122.72 688.177 122.901 688.539 123.264C688.923 123.605 689.115 124.053 689.115 124.608C689.115 125.141 688.934 125.579 688.571 125.92C688.209 126.24 687.739 126.4 687.163 126.4H679.931V132.32H688.603ZM719.437 113.6C720.034 113.6 720.514 113.781 720.877 114.144C721.239 114.507 721.421 114.976 721.421 115.552V134.048C721.421 134.603 721.229 135.072 720.845 135.456C720.461 135.819 719.97 136 719.373 136C718.839 136 718.381 135.819 717.997 135.456C717.613 135.072 717.421 134.603 717.421 134.048V126.592H707.213V134.048C707.213 134.603 707.01 135.072 706.605 135.456C706.199 135.819 705.73 136 705.197 136C704.621 136 704.141 135.819 703.757 135.456C703.394 135.072 703.213 134.603 703.213 134.048V115.552C703.213 114.997 703.405 114.539 703.789 114.176C704.173 113.792 704.663 113.6 705.261 113.6C705.794 113.6 706.253 113.792 706.637 114.176C707.021 114.539 707.213 114.997 707.213 115.552V122.912H717.421V115.552C717.421 114.997 717.623 114.539 718.029 114.176C718.434 113.792 718.903 113.6 719.437 113.6ZM738.885 132.32C739.439 132.32 739.898 132.512 740.26 132.896C740.645 133.259 740.837 133.685 740.837 134.176C740.837 134.709 740.645 135.147 740.26 135.488C739.898 135.829 739.439 136 738.885 136H728.165C727.61 136 727.141 135.819 726.757 135.456C726.394 135.072 726.213 134.603 726.213 134.048V115.552C726.213 114.997 726.394 114.539 726.757 114.176C727.141 113.792 727.61 113.6 728.165 113.6H738.885C739.439 113.6 739.898 113.781 740.26 114.144C740.645 114.485 740.837 114.933 740.837 115.488C740.837 116.021 740.655 116.459 740.293 116.8C739.93 117.12 739.461 117.28 738.885 117.28H730.213V122.72H737.445C737.999 122.72 738.458 122.901 738.821 123.264C739.205 123.605 739.397 124.053 739.397 124.608C739.397 125.141 739.215 125.579 738.853 125.92C738.49 126.24 738.021 126.4 737.445 126.4H730.213V132.32H738.885ZM756.877 132.256C757.432 132.256 757.89 132.437 758.253 132.8C758.637 133.141 758.829 133.589 758.829 134.144C758.829 134.677 758.637 135.125 758.253 135.488C757.89 135.829 757.432 136 756.877 136H746.477C745.922 136 745.453 135.819 745.069 135.456C744.706 135.072 744.525 134.603 744.525 134.048V115.552C744.525 114.997 744.717 114.539 745.101 114.176C745.485 113.792 745.976 113.6 746.573 113.6C747.106 113.6 747.565 113.792 747.949 114.176C748.333 114.539 748.525 114.997 748.525 115.552V132.256H756.877ZM771.742 113.6C772.83 113.6 773.864 113.931 774.846 114.592C775.827 115.232 776.616 116.107 777.214 117.216C777.811 118.304 778.11 119.499 778.11 120.8C778.11 122.08 777.811 123.275 777.214 124.384C776.616 125.493 775.827 126.379 774.846 127.04C773.864 127.68 772.83 128 771.742 128H766.174V134.048C766.174 134.624 766.003 135.093 765.662 135.456C765.32 135.819 764.872 136 764.318 136C763.784 136 763.347 135.819 763.006 135.456C762.664 135.072 762.494 134.603 762.494 134.048V115.552C762.494 114.997 762.675 114.539 763.038 114.176C763.422 113.792 763.891 113.6 764.446 113.6H771.742ZM771.742 124.352C772.147 124.352 772.542 124.181 772.926 123.84C773.331 123.499 773.651 123.061 773.886 122.528C774.142 121.973 774.27 121.397 774.27 120.8C774.27 120.203 774.142 119.637 773.886 119.104C773.651 118.549 773.331 118.112 772.926 117.792C772.542 117.451 772.147 117.28 771.742 117.28H766.174V124.352H771.742ZM806.936 115.488C806.936 115.915 806.818 116.309 806.584 116.672L799.896 126.24V134.048C799.896 134.603 799.714 135.072 799.352 135.456C798.989 135.819 798.552 136 798.04 136C797.506 136 797.048 135.819 796.664 135.456C796.301 135.072 796.12 134.603 796.12 134.048V125.792L789.464 116.96C789.08 116.448 788.888 115.947 788.888 115.456C788.888 114.901 789.101 114.443 789.528 114.08C789.976 113.696 790.445 113.504 790.936 113.504C791.533 113.504 792.056 113.803 792.504 114.4L798.136 122.176L803.416 114.464C803.864 113.824 804.397 113.504 805.016 113.504C805.528 113.504 805.976 113.696 806.36 114.08C806.744 114.464 806.936 114.933 806.936 115.488ZM829.571 124.8C829.571 126.912 829.101 128.853 828.163 130.624C827.224 132.373 825.923 133.76 824.259 134.784C822.616 135.808 820.76 136.32 818.691 136.32C816.621 136.32 814.755 135.808 813.091 134.784C811.448 133.76 810.157 132.373 809.219 130.624C808.301 128.853 807.843 126.912 807.843 124.8C807.843 122.688 808.301 120.757 809.219 119.008C810.157 117.237 811.448 115.84 813.091 114.816C814.755 113.792 816.621 113.28 818.691 113.28C820.76 113.28 822.616 113.792 824.259 114.816C825.923 115.84 827.224 117.237 828.163 119.008C829.101 120.757 829.571 122.688 829.571 124.8ZM825.411 124.8C825.411 123.371 825.123 122.08 824.547 120.928C823.971 119.755 823.171 118.827 822.147 118.144C821.123 117.461 819.971 117.12 818.691 117.12C817.389 117.12 816.227 117.461 815.203 118.144C814.2 118.805 813.411 119.723 812.835 120.896C812.28 122.069 812.003 123.371 812.003 124.8C812.003 126.229 812.28 127.531 812.835 128.704C813.411 129.877 814.2 130.805 815.203 131.488C816.227 132.149 817.389 132.48 818.691 132.48C819.971 132.48 821.123 132.139 822.147 131.456C823.171 130.773 823.971 129.856 824.547 128.704C825.123 127.531 825.411 126.229 825.411 124.8ZM849.148 113.568C849.702 113.568 850.15 113.749 850.492 114.112C850.833 114.475 851.004 114.944 851.004 115.52V127.104C851.004 128.875 850.63 130.443 849.884 131.808C849.137 133.173 848.092 134.24 846.748 135.008C845.404 135.776 843.868 136.16 842.14 136.16C840.412 136.16 838.865 135.776 837.5 135.008C836.156 134.24 835.11 133.173 834.364 131.808C833.617 130.443 833.244 128.875 833.244 127.104V115.52C833.244 114.965 833.436 114.507 833.82 114.144C834.204 113.76 834.694 113.568 835.292 113.568C835.804 113.568 836.252 113.76 836.636 114.144C837.02 114.507 837.212 114.965 837.212 115.52V127.104C837.212 128.128 837.436 129.045 837.884 129.856C838.332 130.645 838.929 131.253 839.676 131.68C840.444 132.107 841.265 132.32 842.14 132.32C843.057 132.32 843.91 132.107 844.7 131.68C845.51 131.253 846.15 130.645 846.62 129.856C847.11 129.045 847.356 128.128 847.356 127.104V115.52C847.356 114.944 847.516 114.475 847.836 114.112C848.156 113.749 848.593 113.568 849.148 113.568ZM867.367 125.888C867.367 125.333 867.548 124.875 867.911 124.512C868.274 124.128 868.732 123.936 869.287 123.936C870.695 123.936 871.826 123.605 872.679 122.944C873.532 122.283 873.959 121.259 873.959 119.872C873.959 118.805 873.575 117.92 872.807 117.216C872.039 116.512 871.079 116.16 869.927 116.16C868.754 116.16 867.719 116.555 866.823 117.344C866.311 117.813 865.778 118.048 865.223 118.048C864.818 118.048 864.455 117.92 864.135 117.664C863.58 117.237 863.303 116.736 863.303 116.16C863.303 115.669 863.506 115.221 863.911 114.816C864.679 114.027 865.575 113.419 866.599 112.992C867.644 112.544 868.754 112.32 869.927 112.32C871.378 112.32 872.7 112.651 873.895 113.312C875.09 113.973 876.039 114.891 876.743 116.064C877.447 117.216 877.799 118.485 877.799 119.872C877.799 121.92 877.212 123.541 876.039 124.736C874.866 125.931 873.308 126.677 871.367 126.976C871.26 127.019 871.207 127.072 871.207 127.136V128.32C871.207 128.875 871.026 129.344 870.663 129.728C870.3 130.091 869.842 130.272 869.287 130.272C868.732 130.272 868.274 130.091 867.911 129.728C867.548 129.344 867.367 128.875 867.367 128.32V125.888ZM869.127 136C868.508 136 868.028 135.84 867.687 135.52C867.367 135.179 867.207 134.699 867.207 134.08V133.536C867.207 132.917 867.367 132.448 867.687 132.128C868.028 131.787 868.508 131.616 869.127 131.616H869.543C870.162 131.616 870.631 131.787 870.951 132.128C871.292 132.448 871.463 132.917 871.463 133.536V134.08C871.463 134.699 871.292 135.179 870.951 135.52C870.631 135.84 870.162 136 869.543 136H869.127Z" fill="white"/>
<defs>
<linearGradient id="paint0_linear" x1="1475.83" y1="233.841" x2="1417.5" y2="-192.809" gradientUnits="userSpaceOnUse">
<stop stop-color="#D58ABB"/>
<stop offset="1" stop-color="#817FBC"/>
</linearGradient>
</defs>
</svg>
