<svg width="1050" height="679" viewBox="0 0 1050 679" fill="none" xmlns="http://www.w3.org/2000/svg">
<g clip-path="url(#clip0)">
<path d="M1049.58 670.92H0V678.59H1049.58V670.92Z" fill="#85848B"/>
<path d="M831.54 535.49C831.54 541.39 797.15 558.59 756.3 558.59C715.45 558.59 683.62 541.39 683.62 535.49C683.62 529.59 716.73 531.49 757.62 531.49C798.51 531.49 831.54 529.58 831.54 535.49Z" fill="#504F60"/>
<path opacity="0.2" d="M831.54 535.49C831.54 541.39 797.15 558.59 756.3 558.59C715.45 558.59 683.62 541.39 683.62 535.49" fill="#A880F7"/>
<path d="M420.15 427.23C426.78 428.08 433.66 428.62 440.01 426.56C441.01 426.25 442.11 425.56 442.01 424.56C441.939 424.197 441.785 423.854 441.56 423.56C439.166 419.97 437.155 416.139 435.56 412.13C435.497 411.921 435.367 411.738 435.19 411.61C434.983 411.535 434.757 411.535 434.55 411.61C431.62 412.38 429.09 414.27 426.18 415.08C424.696 415.487 423.148 415.602 421.62 415.42C420.3 415.27 418.5 414.18 417.3 414.32C417.98 418.69 419.64 422.77 420.15 427.23Z" fill="#6C63FF"/>
<path d="M545.54 416.16C549.91 413.16 554.44 410.01 557.02 405.38C557.204 405.103 557.311 404.782 557.33 404.45C557.286 404.123 557.159 403.813 556.96 403.55C554.502 399.643 551.338 396.228 547.63 393.48C545.695 394.847 543.947 396.46 542.43 398.28C541.33 399.44 538.29 401.28 538.26 403.05C538.26 404.05 539.42 405.21 539.96 406.05C540.69 407.13 541.38 408.23 542.04 409.35C542.42 409.9 545.89 415.94 545.54 416.16Z" fill="#6C63FF"/>
<path d="M446.14 440.62C446.218 441.65 445.935 442.675 445.34 443.52C444.873 443.989 444.295 444.333 443.66 444.52C434.39 447.84 423.66 443.7 414.41 446.97C412.51 447.64 410.71 448.61 408.8 449.25C406.523 449.935 404.174 450.351 401.8 450.49C398.53 450.8 395.24 451 391.96 451.09C389.468 451.266 386.964 451.047 384.54 450.44C383.328 450.13 382.195 449.568 381.215 448.791C380.234 448.014 379.429 447.039 378.85 445.93C378.347 444.936 378.247 443.786 378.57 442.72C378.715 442.354 378.921 442.016 379.18 441.72C379.807 441.017 380.543 440.419 381.36 439.95L384.77 437.75C386.369 436.619 388.107 435.698 389.94 435.01C391.29 434.57 392.72 434.38 394.09 434.01C398.88 432.61 402.54 428.81 405.94 425.16L410.58 420.21C411.014 419.665 411.564 419.225 412.19 418.92C412.834 418.705 413.518 418.64 414.19 418.73C418.697 419.052 423.049 420.511 426.84 422.97C427.809 423.697 428.855 424.314 429.96 424.81C432.68 425.87 436.17 425.07 438.68 423.73C439.87 423.09 439.61 422.73 440.11 421.59C440.61 420.45 441.83 419.72 442.89 420.76C443.21 421.12 443.436 421.552 443.55 422.02C444.55 425.32 444.17 428.87 444.17 432.33C444.141 432.871 444.208 433.413 444.37 433.93C444.625 434.451 444.93 434.947 445.28 435.41C445.351 435.533 445.415 435.659 445.47 435.79C446.082 437.322 446.312 438.979 446.14 440.62V440.62Z" fill="#514E7F"/>
<path d="M446.14 440.62C446.218 441.65 445.935 442.676 445.34 443.52C444.873 443.99 444.295 444.334 443.66 444.52C434.39 447.84 423.66 443.7 414.41 446.97C412.51 447.64 410.71 448.61 408.8 449.25C406.523 449.935 404.174 450.351 401.8 450.49C398.53 450.8 395.24 451 391.96 451.09C389.468 451.266 386.964 451.047 384.54 450.44C383.328 450.13 382.195 449.568 381.215 448.791C380.234 448.014 379.429 447.039 378.85 445.93C378.347 444.936 378.247 443.786 378.57 442.72C378.715 442.354 378.921 442.016 379.18 441.72C379.72 442.85 380.11 444.35 380.45 444.89C380.909 445.69 381.534 446.383 382.282 446.923C383.031 447.463 383.886 447.837 384.79 448.02C386.144 448.103 387.501 447.93 388.79 447.51C397.19 445.43 406.12 445.4 414.19 442.25C416.96 441.16 419.6 439.71 422.51 439.05C425.42 438.39 428.51 438.57 431.51 438.32C436.25 437.94 440.84 436.51 445.51 435.76C446.113 437.304 446.329 438.973 446.14 440.62V440.62Z" fill="#464353"/>
<path d="M566.77 415.55C566.33 419.07 564.1 422.1 561.65 424.67C559.2 427.24 556.43 429.55 554.48 432.51C552.08 436.18 551 440.73 547.88 443.83C546.682 444.957 545.337 445.916 543.88 446.68C542.248 447.643 540.523 448.437 538.73 449.05C534.07 450.54 529.05 450.2 524.18 449.84C522.599 449.825 521.034 449.523 519.56 448.95C518.889 448.609 518.247 448.215 517.64 447.77C516.419 447.018 515.392 445.991 514.64 444.77C514.271 444.106 514.167 443.327 514.35 442.59C514.628 441.778 515.106 441.049 515.74 440.47C516.836 439.33 518.012 438.271 519.26 437.3C520.972 436.195 522.515 434.848 523.84 433.3C524.653 432.077 525.252 430.724 525.61 429.3C526.318 426.805 526.751 424.239 526.9 421.65C526.894 419.929 527.072 418.213 527.43 416.53C528.17 413.89 530.13 411.53 529.91 408.8C529.821 408.409 529.856 408 530.01 407.63C530.243 407.341 530.567 407.14 530.93 407.06C532.458 406.451 534.07 406.077 535.71 405.95C536.533 405.893 537.358 406.02 538.126 406.321C538.893 406.622 539.585 407.089 540.15 407.69C540.83 408.51 541.28 409.69 542.28 410.01C542.775 410.145 543.295 410.166 543.8 410.07C546.26 409.82 548.86 409.51 550.8 407.92C551.697 407.116 552.417 406.135 552.916 405.038C553.415 403.942 553.682 402.754 553.7 401.55C553.7 400.64 553.29 399.69 554.7 399.55C555.76 399.41 556.6 400.55 557.14 401.25C559.09 403.86 561.09 406.59 561.82 409.77C562.104 409.66 562.405 409.602 562.71 409.6C563.334 409.594 563.949 409.74 564.505 410.024C565.06 410.307 565.539 410.721 565.9 411.23C566.696 412.52 567.005 414.052 566.77 415.55Z" fill="#514E7F"/>
<path d="M566.77 415.55C566.33 419.07 564.1 422.1 561.65 424.67C559.2 427.24 556.43 429.55 554.48 432.51C552.08 436.18 551 440.73 547.88 443.83C546.682 444.957 545.337 445.916 543.88 446.68C542.248 447.643 540.523 448.437 538.73 449.05C534.07 450.54 529.05 450.2 524.18 449.84C522.599 449.825 521.034 449.523 519.56 448.95C518.889 448.609 518.247 448.215 517.64 447.77C516.419 447.018 515.392 445.991 514.64 444.77C515.577 444.319 516.6 444.074 517.64 444.05C519.8 444.17 521.38 446.21 523.45 446.84C526.4 447.73 529.34 445.65 532.33 444.94C534.28 444.48 536.33 444.6 538.26 443.94C539.868 443.318 541.354 442.418 542.65 441.28C544.426 440.01 546.006 438.488 547.34 436.76C548.448 435.032 549.37 433.192 550.09 431.27C551.669 427.587 553.528 424.03 555.65 420.63C555.964 420.092 556.343 419.595 556.78 419.15C557.25 418.72 557.78 418.42 558.31 418.04C560.31 416.53 561.14 414.04 561.84 411.6C562.03 410.858 562.294 410.138 562.63 409.45C563.254 409.444 563.869 409.59 564.425 409.874C564.98 410.157 565.459 410.571 565.82 411.08C566.68 412.4 567.019 413.994 566.77 415.55V415.55Z" fill="#464353"/>
<path d="M357.08 103.77C359.569 105.635 361.617 108.025 363.08 110.77C364.48 113.51 372.55 134.77 372.08 137.86C374.71 135.21 385.08 134.78 387.74 132.13C388.85 131.02 394.84 125.48 395.74 124.19C396.64 122.9 403.32 120.19 404.05 118.83C406.78 113.94 384.69 95.4099 387.52 90.5799C387.677 90.358 387.757 90.0914 387.75 89.8199C387.686 89.592 387.557 89.3872 387.38 89.2299C385.57 87.3799 383.17 86.2299 380.99 84.8599C378.81 83.4899 376.71 81.5799 376.12 79.0599C374.041 80.0169 372.133 81.3072 370.47 82.8799C366.417 86.3533 362.433 89.8966 358.52 93.5099C356.99 94.9299 354.03 96.8199 353.32 98.8499C352.48 101.03 355.62 102.58 357.08 103.77Z" fill="#A1616A"/>
<path d="M392.84 95.9C389.451 98.1775 386.284 100.769 383.38 103.64C380.64 106.35 378.04 109.49 377.38 113.28C377.1 114.77 377.14 116.28 376.91 117.79C375.91 124.34 370.25 129.14 367.75 135.27C367.026 137.162 366.493 139.122 366.16 141.12C365.458 144.908 365.073 148.748 365.01 152.6C364.95 156.33 368.61 158.9 369.95 162.38C371.29 165.86 371.65 169.44 372.33 173.01C373.61 179.75 375.96 186.25 378.33 192.71C383.26 206.33 399.24 243.98 404.17 257.61C419.28 253.82 459.5 245.11 472.88 237.12C477.34 234.46 441.93 204.45 446.7 202.38C446.973 202.338 447.232 202.232 447.457 202.073C447.682 201.913 447.867 201.703 447.996 201.46C448.126 201.216 448.198 200.946 448.206 200.67C448.213 200.394 448.156 200.12 448.04 199.87C443.27 179.01 428.35 161.87 421.58 141.56C419.23 134.51 415.01 128.49 411.81 121.79C408.91 115.72 407.36 109.01 403.89 103.24C403.236 102.051 402.38 100.985 401.36 100.09C400.495 99.4264 399.559 98.8597 398.57 98.4C396.59 97.44 394.75 96.87 392.84 95.9Z" fill="#514E7F"/>
<path d="M357.88 101.4C370.942 101.4 381.53 90.8115 381.53 77.75C381.53 64.6884 370.942 54.1 357.88 54.1C344.818 54.1 334.23 64.6884 334.23 77.75C334.23 90.8115 344.818 101.4 357.88 101.4Z" fill="#A1616A"/>
<path d="M381.94 88.86C383.119 87.7729 384.599 87.0686 386.186 86.8401C387.773 86.6116 389.392 86.8696 390.83 87.58C392.43 88.41 393.83 90.09 393.47 91.85L405.2 92.03C407.067 91.979 408.933 92.1502 410.76 92.54C412.598 92.9403 414.239 93.9694 415.4 95.45C415.54 95.64 415.7 95.87 415.94 95.9C416.135 95.9031 416.326 95.8396 416.48 95.72C418.284 94.815 420.317 94.467 422.32 94.72C428.66 95.13 434.52 98.3 439.49 102.26C440.386 102.876 441.082 103.742 441.49 104.75C441.9 106.08 441.41 107.75 442.49 108.7C442.49 119.7 446.27 129.98 448.79 140.7C449.24 142.61 451.07 144.3 452.34 145.8C453.909 147.463 455.19 149.376 456.13 151.46C458.27 157.02 455.32 163.56 457.4 169.14C458.28 171.5 459.98 173.44 461.4 175.49C463.272 177.857 464.455 180.694 464.82 183.69C464.91 185.03 464.74 186.38 464.82 187.69C464.954 189.492 465.29 191.273 465.82 193C466.673 196.227 467.567 199.45 468.5 202.67C470.02 207.87 472 213.48 476.66 216.25C465.41 218.16 453.55 220.03 442.83 216.12C441.335 215.61 439.915 214.9 438.61 214.01C434.74 211.25 432.87 206.53 431.2 202.07C429.34 197.07 427.45 191.98 427.07 186.66C427.074 184.968 426.835 183.284 426.36 181.66C425.27 178.76 422.36 177.01 419.72 175.4C416.739 173.766 414.038 171.667 411.72 169.18C410.57 167.928 409.689 166.453 409.131 164.846C408.574 163.239 408.352 161.536 408.48 159.84C408.68 158.19 409.33 156.6 409.39 154.94C409.45 153.28 408.71 151.38 407.12 150.94C398.93 148.46 395.02 138.76 393.2 130.4C392.415 126.079 392.063 121.691 392.15 117.3L392.04 108.77C390.91 107.742 390.001 106.494 389.368 105.103C388.735 103.713 388.392 102.208 388.36 100.68C388.469 99.7888 388.452 98.8866 388.31 98C387.914 96.9163 387.27 95.9403 386.43 95.15C384.622 93.2943 383.108 91.1731 381.94 88.86V88.86Z" fill="#464353"/>
<path d="M356.75 115.9C356.48 118.54 357.08 121.25 356.49 123.84C356.26 124.84 355.86 125.84 355.57 126.77C354.683 130.498 355.067 134.415 356.66 137.9C358.251 141.351 360.156 144.648 362.35 147.75C363.092 148.809 363.703 149.954 364.17 151.16C364.548 152.426 364.783 153.731 364.87 155.05C365.449 160.345 366.378 165.597 367.65 170.77C368.77 175.25 381.49 213.55 384.45 217.1C384.987 217.886 385.802 218.44 386.73 218.65C387.399 218.675 388.065 218.538 388.67 218.25L394.67 215.95C395.18 215.794 395.653 215.535 396.06 215.19C396.622 214.533 396.928 213.695 396.92 212.83C397.35 207.95 384.6 169.38 382.98 164.77C378.08 150.85 371.56 137.43 368.37 123.02C367.48 119.02 367.01 112.86 364.08 109.67C362.87 108.35 363.28 108.91 361.83 109.6C361.097 109.918 360.389 110.289 359.71 110.71C358.861 111.3 358.155 112.072 357.643 112.97C357.131 113.868 356.826 114.869 356.75 115.9Z" fill="#464353"/>
<path d="M374.96 142.31C376.57 150.82 378.23 159.31 379.88 167.82L403.36 161.67C403.55 159.21 402.24 156.93 401.36 154.67C399.22 149.3 399.17 143.32 397.44 137.8C396.13 133.6 393.85 129.74 392.62 125.51C391.91 123.05 391.55 120.51 390.85 118.02C390.099 115.575 389.177 113.185 388.09 110.87C386.772 107.512 385.053 104.325 382.97 101.38C379.97 102.5 376.77 103.8 375.06 106.51C374.183 108.037 373.682 109.751 373.6 111.51C373.19 116.78 375.1 122.08 374.47 127.32C373.821 132.31 373.987 137.373 374.96 142.31V142.31Z" fill="#6C63FF"/>
<path d="M403.75 255.51C405.07 260.51 403.16 265.77 401.6 270.72C399.251 278.176 397.65 285.847 396.82 293.62C396.718 295.598 396.32 297.55 395.64 299.41C394.9 301.08 393.64 302.49 392.78 304.08C390.42 308.26 390.48 313.36 390.99 318.14C391.33 321.29 391.84 324.43 392.47 327.53C393.24 331.32 394.19 335.28 393.08 338.98C394.94 338.57 396.2 340.98 396.08 342.87C395.96 344.76 395.35 346.87 396.26 348.5C398.56 349.34 398.58 352.5 398.51 354.95C398.548 359.198 399.085 363.427 400.11 367.55C403.59 384.283 407.283 400.97 411.19 417.61C419.64 420.23 429.51 422.96 437.57 419.33C439.07 418.66 440.57 417.59 440.91 415.97C440.998 415.097 440.888 414.215 440.59 413.39L436.77 399.49C435.84 396.13 434.91 392.66 435.4 389.21C435.77 386.64 436.89 383.87 435.63 381.6C435.2 380.82 434.52 380.21 434.02 379.47C432.02 376.54 433.07 372.62 433.23 369.07C433.292 368.273 433.238 367.471 433.07 366.69C432.796 365.777 432.413 364.901 431.93 364.08C428.773 357.951 427.257 351.109 427.53 344.22C427.649 343.341 427.528 342.446 427.18 341.63C426.937 341.293 426.72 340.939 426.53 340.57C426.381 339.928 426.455 339.254 426.74 338.66C425.594 337.79 424.559 336.783 423.66 335.66C424.215 335.315 424.684 334.849 425.032 334.296C425.38 333.744 425.598 333.119 425.669 332.47C425.74 331.821 425.663 331.164 425.443 330.549C425.223 329.934 424.867 329.377 424.4 328.92C424.808 328.838 425.185 328.644 425.489 328.361C425.794 328.077 426.014 327.715 426.124 327.314C426.235 326.913 426.233 326.489 426.117 326.089C426.002 325.69 425.778 325.33 425.47 325.05C424.98 324.71 424.33 324.56 423.98 324.05C423.44 323.31 423.88 322.28 424.32 321.49L426.65 317.28C428.39 314.15 428.78 310.28 430.65 307.28C433.33 302.91 435.08 298.04 436.81 293.22L443.54 274.65L448.07 278.58C449.579 279.733 450.843 281.174 451.79 282.82C452.434 284.447 452.842 286.158 453 287.9C454.66 297.98 461 306.72 463.35 316.65C463.87 318.86 464.22 321.18 465.49 323.07C465.944 323.65 466.352 324.266 466.71 324.91C467.041 325.893 467.213 326.923 467.22 327.96C467.43 329.991 468.074 331.953 469.109 333.713C470.145 335.473 471.547 336.99 473.22 338.16C475.45 339.69 478.22 340.74 479.43 343.16C479.672 343.909 480.008 344.625 480.43 345.29C481.51 346.59 483.84 346.74 484.3 348.37C484.56 349.28 484.08 350.37 484.59 351.17C484.88 351.54 485.263 351.827 485.7 352L492.21 355.25C499.49 358.89 503.21 367.25 508.58 373.34C510.434 375.324 512.077 377.495 513.48 379.82C515.8 383.97 516.87 389.18 520.79 391.82C521.844 392.366 522.803 393.079 523.63 393.93C524.86 395.55 524.41 397.82 524.52 399.86C524.63 401.9 526.19 404.33 528.13 403.71C527.45 406.181 527.45 408.789 528.13 411.26C536.647 410.823 544.769 407.533 551.19 401.92C553.09 400.26 554.92 398.14 554.94 395.62C554.969 395.185 554.872 394.751 554.66 394.37C554.275 393.878 553.769 393.495 553.19 393.26C547.1 389.96 545.27 382.31 542.19 376.1C539.5 370.62 535.52 365.9 532.19 360.81C524.95 349.86 520.01 336.61 509.06 329.38C506.65 327.79 503.85 326.38 502.64 323.75C501.97 322.28 501.89 320.6 501.36 319.08C500.83 317.56 499.56 316.08 497.94 316.08C498.84 313.88 498.66 311.2 498.72 308.82C498.781 307.764 498.66 306.705 498.36 305.69C497.944 304.598 497.404 303.558 496.75 302.59C493.893 297.753 492.465 292.205 492.63 286.59C492.71 283.7 493.22 280.72 492.35 277.96C491.91 276.57 491.14 275.3 490.61 273.96C489.811 271.532 489.39 268.996 489.36 266.44L488.76 256.83C488.669 253.63 488.254 250.447 487.52 247.33C485.52 239.87 483.52 208.62 476.67 205.1C469.82 201.58 458.05 225.63 450.34 226.1C446.929 226.242 443.559 226.893 440.34 228.03C435.21 229.95 430.91 233.53 426.72 237.03L412.54 248.94C409.54 251.41 407.06 253.77 403.75 255.51Z" fill="#464353"/>
<path d="M335.69 51.4899C338.81 47.2299 344.17 44.9699 349.45 44.7799C354.73 44.5899 359.93 46.2499 364.66 48.5999C366.056 49.3939 367.548 50.0055 369.1 50.4199C371.6 50.9299 374.38 50.2499 376.64 51.4199C379.64 53.0099 380.22 57.0599 379.96 60.4199C379.7 63.7799 379.07 67.5099 380.86 70.4199C381.495 71.2498 382.073 72.1218 382.59 73.0299C383.36 74.7599 382.91 76.7599 382.45 78.5899C381.28 77.5899 380.62 76.0799 379.58 74.9199C378.54 73.7599 376.73 72.9799 375.44 73.8499C374.15 74.7199 374.17 76.2999 374.1 77.7199C374.03 79.1399 373.67 80.8399 372.33 81.2999C371.77 81.4273 371.185 81.3839 370.65 81.1753C370.116 80.9668 369.656 80.6026 369.33 80.1299C367.04 77.3299 367.96 72.8599 365.69 70.0399C364.4 68.4399 362.25 67.6599 361.06 65.9799C360.12 64.6599 359.88 62.9799 359.06 61.5599C358.24 60.1399 356.33 59.0999 355.06 60.0799C354.627 60.494 354.265 60.9773 353.99 61.5099C353.198 62.6443 352.047 63.4784 350.722 63.8776C349.397 64.2769 347.977 64.2178 346.69 63.7099C345.707 63.1063 344.643 62.645 343.53 62.3399C342.802 62.3035 342.078 62.4714 341.44 62.8249C340.802 63.1783 340.275 63.7031 339.92 64.3399C339.202 65.6123 338.856 67.0605 338.92 68.5199C338.92 70.5199 339.28 72.6499 338.14 74.2499C337.706 74.8523 337.164 75.3679 336.54 75.7699C334.87 76.8399 332.54 77.5599 331 76.3399C330.478 75.8538 330.09 75.2416 329.873 74.5621C329.655 73.8826 329.617 73.1587 329.76 72.4599C330.06 71.0681 330.454 69.6982 330.94 68.3599C331.82 65.2599 330.67 61.7699 331.63 58.8499C332.636 56.2202 334.002 53.7432 335.69 51.4899V51.4899Z" fill="#464353"/>
<path d="M348.36 122.04C348.21 122.769 348.287 123.526 348.58 124.21C348.877 124.676 349.282 125.063 349.76 125.34C353.123 127.435 356.948 128.674 360.9 128.95C361.438 128.959 361.966 129.096 362.44 129.35C363.38 129.97 363.44 131.35 363.09 132.45C362.623 133.488 362.381 134.612 362.38 135.75C362.67 137.84 365.15 138.75 367.24 139.06C370.17 139.43 373.38 139.24 375.7 137.41C377.272 135.977 378.47 134.181 379.19 132.18C384.93 118.99 386.94 104.41 392.75 91.26C393.19 90.4013 393.484 89.4753 393.62 88.52C393.681 88.0418 393.614 87.5558 393.424 87.1127C393.234 86.6695 392.929 86.2853 392.54 86C391.46 85.33 389.78 85.71 389.05 84.66C388.69 84.13 388.73 83.41 388.41 82.85C387.74 81.66 385.98 81.85 384.78 81.16C383.84 80.66 383.19 79.63 382.14 79.43C381.625 79.4008 381.109 79.4923 380.635 79.6972C380.162 79.902 379.742 80.2146 379.41 80.61C376 83.79 374.21 88.3 372.31 92.56C369.409 99.0899 366.012 105.388 362.15 111.4C362.6 110.7 359.99 105.4 358.97 105.17C357.18 104.81 354.89 107.95 353.92 109.12C350.876 112.81 348.947 117.292 348.36 122.04V122.04Z" fill="#6C63FF"/>
<path opacity="0.1" d="M384.69 82.09C383.972 82.1019 383.265 82.2753 382.623 82.5973C381.981 82.9193 381.419 83.3816 380.98 83.95C379.91 85.34 379.7 87.18 379.43 88.95C378.52 94.5576 376.519 99.9324 373.54 104.77" fill="#A880F7"/>
<path opacity="0.1" d="M389.79 86.08C388.798 86.102 387.83 86.382 386.979 86.8923C386.129 87.4025 385.426 88.1255 384.94 88.99C384.278 90.5629 383.866 92.2297 383.72 93.93C382.863 97.6995 381.209 101.242 378.87 104.32" fill="#A880F7"/>
<path d="M627.45 281.58V269.16C627.447 260.017 623.813 251.25 617.347 244.785C610.882 238.321 602.113 234.69 592.97 234.69H102.48C93.3371 234.69 84.5685 238.321 78.1025 244.785C71.6365 251.25 68.0027 260.017 68 269.16V292.06L627.45 281.58Z" fill="#33323D"/>
<path d="M238.93 220.13C238.93 220.13 237.53 306.99 252.93 335.57C268.33 364.15 274.93 488.48 274.93 488.48C274.93 488.48 436.37 505.18 548.87 468.48C661.37 431.78 900.75 416.77 900.75 416.77L860.41 144.88C860.41 144.88 661.12 132.1 547.75 186.17C434.38 240.24 238.93 220.13 238.93 220.13Z" fill="#8DD070"/>
<path opacity="0.1" d="M238.93 220.13C238.93 220.13 237.53 306.99 252.93 335.57C268.33 364.15 274.93 488.48 274.93 488.48C274.93 488.48 436.37 505.18 548.87 468.48C661.37 431.78 900.75 416.77 900.75 416.77L860.41 144.88C860.41 144.88 661.12 132.1 547.75 186.17C434.38 240.24 238.93 220.13 238.93 220.13Z" fill="#A880F7"/>
<path d="M274.66 251.86C274.66 251.86 269.61 323.53 282.28 346.43C294.95 369.33 295.54 471.56 295.54 471.56C295.54 471.56 440.83 478.3 544.18 443.12C647.53 407.94 864.71 385.12 864.71 385.12L840.03 162.77C840.03 162.77 660.33 160.92 555.45 210.44C450.57 259.96 274.66 251.86 274.66 251.86Z" fill="#8DD070"/>
<path opacity="0.1" d="M553.854 402.41C574.527 399.835 586.808 361.805 581.286 317.468C575.763 273.13 554.528 239.275 533.855 241.85C513.183 244.425 500.902 282.455 506.424 326.792C511.947 371.129 533.182 404.985 553.854 402.41Z" fill="#A880F7"/>
<path opacity="0.2" d="M751.15 12.4301C751.15 12.4301 557.54 61.4301 466.24 147.68C374.94 233.93 182.74 274.77 182.74 274.77C182.74 274.77 208.06 357.86 231.48 380.34C254.9 402.82 299.32 519.14 299.32 519.14C299.32 519.14 458.09 485.48 553.89 416C649.69 346.52 872.96 258.77 872.96 258.77L751.15 12.4301Z" fill="#A880F7"/>
<path d="M179.83 262.33C179.83 262.33 205.14 345.43 228.54 367.91C251.94 390.39 296.38 506.7 296.38 506.7C296.38 506.7 455.17 473.05 550.98 403.57C646.79 334.09 870.04 246.37 870.04 246.37L748.23 0C748.23 0 554.63 49 463.33 135.25C372.03 221.5 179.83 262.33 179.83 262.33Z" fill="#8DD070"/>
<path opacity="0.1" d="M179.83 262.33C179.83 262.33 205.14 345.43 228.54 367.91C251.94 390.39 296.38 506.7 296.38 506.7C296.38 506.7 455.17 473.05 550.98 403.57C646.79 334.09 870.04 246.37 870.04 246.37L748.23 0C748.23 0 554.63 49 463.33 135.25C372.03 221.5 179.83 262.33 179.83 262.33Z" fill="#A880F7"/>
<path d="M223.54 281.57C223.54 281.57 240.73 351.34 259.82 369.24C278.91 387.14 310.82 484.24 310.82 484.24C310.82 484.24 451.16 446.06 538.73 380.86C626.3 315.66 826.02 227.39 826.02 227.39L734.31 23.27C734.31 23.27 562.72 76.64 478.09 155.96C393.46 235.28 223.54 281.57 223.54 281.57Z" fill="#8DD070"/>
<path opacity="0.1" d="M535.492 339.178C554.377 330.384 554.397 290.421 535.535 249.917C516.674 209.413 486.075 183.708 467.19 192.502C448.305 201.296 448.285 241.26 467.147 281.764C486.008 322.267 516.607 347.973 535.492 339.178Z" fill="#A880F7"/>
<path opacity="0.1" d="M640.69 293.77V638.77C640.69 642.688 639.918 646.568 638.418 650.188C636.919 653.808 634.721 657.096 631.95 659.867C629.178 662.637 625.889 664.834 622.269 666.332C618.648 667.831 614.768 668.601 610.85 668.6H97.85C89.9403 668.597 82.3555 665.453 76.7635 659.859C71.1714 654.266 68.03 646.68 68.03 638.77V258.99C82.73 264.45 82.73 264.45 97.85 263.99H610.85C618.754 263.99 626.335 267.126 631.929 272.709C637.523 278.292 640.674 285.866 640.69 293.77V293.77Z" fill="#A880F7"/>
<path d="M640.69 298.16V643.16C640.687 651.072 637.542 658.66 631.947 664.254C626.351 669.847 618.762 672.99 610.85 672.99H97.85C89.9403 672.987 82.3555 669.843 76.7635 664.249C71.1714 658.655 68.03 651.07 68.03 643.16V263.37C82.73 268.82 82.73 268.82 97.85 268.37H610.85C618.755 268.37 626.338 271.507 631.932 277.092C637.527 282.678 640.677 290.255 640.69 298.16V298.16Z" fill="#504F60"/>
<path opacity="0.1" d="M639.23 425.71V536.04H532.23C517.728 535.845 503.886 529.947 493.7 519.623C483.514 509.298 477.803 495.378 477.803 480.875C477.803 466.372 483.514 452.452 493.7 442.127C503.886 431.803 517.728 425.905 532.23 425.71H639.23Z" fill="#A880F7"/>
<path d="M640.69 422.77V533.12H533.69C519.188 532.925 505.346 527.027 495.16 516.703C484.974 506.378 479.263 492.458 479.263 477.955C479.263 463.452 484.974 449.532 495.16 439.207C505.346 428.883 519.188 422.985 533.69 422.79L640.69 422.77Z" fill="#33323D"/>
<path opacity="0.1" d="M538.82 502.39C550.7 502.39 560.33 492.76 560.33 480.88C560.33 469 550.7 459.37 538.82 459.37C526.94 459.37 517.31 469 517.31 480.88C517.31 492.76 526.94 502.39 538.82 502.39Z" fill="#A880F7"/>
<path d="M540.28 499.47C552.16 499.47 561.79 489.84 561.79 477.96C561.79 466.08 552.16 456.45 540.28 456.45C528.4 456.45 518.77 466.08 518.77 477.96C518.77 489.84 528.4 499.47 540.28 499.47Z" fill="#6C63FF"/>
<path d="M826.42 421.82C827.27 431.03 820.3 439.97 822.33 448.99C822.77 450.92 823.6 452.74 823.9 454.69C824.74 460.05 821.55 465.12 818.5 469.6L792.3 508.04C791.251 509.73 789.994 511.282 788.56 512.66C783.56 517.12 776.04 516.66 769.46 517.99C764.834 518.929 760.467 520.86 756.66 523.65C756.501 523.786 756.4 523.978 756.377 524.186C756.355 524.394 756.413 524.603 756.54 524.77C757.627 526.251 759.068 527.436 760.731 528.216C762.394 528.997 764.226 529.349 766.06 529.24C766.75 530.15 766.06 531.48 765.06 532.13C763.65 533.13 761.72 533.37 761.44 535.75C761.34 536.581 761.509 537.421 761.92 538.15C762.976 539.767 764.618 540.91 766.5 541.34C775.57 544.11 785.37 539.24 792.16 532.61C798.95 525.98 803.82 517.61 810.48 510.86C814.17 507.13 818.36 503.93 822.16 500.31C829.74 493.09 835.63 484.31 841.32 475.52C843.03 472.87 844.75 470.15 845.47 467.08C846.19 464.01 845.85 460.91 846.66 457.94C847.72 454.04 850.57 450.94 852.94 447.67C857.59 441.27 860.69 433.44 860.08 425.56C859.47 417.68 854.58 409.89 847.14 407.21C844.834 406.284 842.291 406.13 839.89 406.77C836.84 407.71 834.59 410.23 832.51 412.64L827.51 418.39C826.263 419.652 825.278 421.147 824.61 422.79C824.29 423.615 824.214 424.515 824.391 425.382C824.568 426.249 824.991 427.047 825.61 427.68" fill="#FBBEBE"/>
<path opacity="0.05" d="M826.42 421.82C827.27 431.03 820.3 439.97 822.33 448.99C822.77 450.92 823.6 452.74 823.9 454.69C824.74 460.05 821.55 465.12 818.5 469.6L792.3 508.04C791.251 509.73 789.994 511.282 788.56 512.66C783.56 517.12 776.04 516.66 769.46 517.99C764.834 518.929 760.467 520.86 756.66 523.65C756.501 523.786 756.4 523.978 756.377 524.186C756.355 524.394 756.413 524.603 756.54 524.77C757.627 526.251 759.068 527.436 760.731 528.216C762.394 528.997 764.226 529.349 766.06 529.24C766.75 530.15 766.06 531.48 765.06 532.13C763.65 533.13 761.72 533.37 761.44 535.75C761.34 536.581 761.509 537.421 761.92 538.15C762.976 539.767 764.618 540.91 766.5 541.34C775.57 544.11 785.37 539.24 792.16 532.61C798.95 525.98 803.82 517.61 810.48 510.86C814.17 507.13 818.36 503.93 822.16 500.31C829.74 493.09 835.63 484.31 841.32 475.52C843.03 472.87 844.75 470.15 845.47 467.08C846.19 464.01 845.85 460.91 846.66 457.94C847.72 454.04 850.57 450.94 852.94 447.67C857.59 441.27 860.69 433.44 860.08 425.56C859.47 417.68 854.58 409.89 847.14 407.21C844.834 406.284 842.291 406.13 839.89 406.77C836.84 407.71 834.59 410.23 832.51 412.64L827.51 418.39C826.263 419.652 825.278 421.147 824.61 422.79C824.29 423.615 824.214 424.515 824.391 425.382C824.568 426.249 824.991 427.047 825.61 427.68" fill="#A880F7"/>
<path d="M846.25 658.92C840.53 662.41 833.4 662.62 826.75 661.81C825.68 661.68 824.41 661.6 823.75 662.43C822.75 663.63 823.93 665.43 825.15 666.36C829.072 669.305 833.681 671.201 838.54 671.87C842.879 672.485 847.258 672.776 851.64 672.74C863.64 672.95 875.64 673.15 887.45 671.43C888.15 671.377 888.831 671.18 889.45 670.85C890.211 670.315 890.741 669.511 890.93 668.6C891.74 665.52 890.18 662.22 887.82 660.08C885.46 657.94 882.43 656.75 879.47 655.6L869.07 651.55C866.63 650.6 862.72 648.08 860.07 648.28C855.09 648.64 850.38 656.5 846.25 658.92Z" fill="#3F3D56"/>
<path opacity="0.05" d="M846.25 658.92C840.53 662.41 833.4 662.62 826.75 661.81C825.68 661.68 824.41 661.6 823.75 662.43C822.75 663.63 823.93 665.43 825.15 666.36C829.072 669.305 833.681 671.201 838.54 671.87C842.879 672.485 847.258 672.776 851.64 672.74C863.64 672.95 875.64 673.15 887.45 671.43C888.15 671.377 888.831 671.18 889.45 670.85C890.211 670.315 890.741 669.511 890.93 668.6C891.74 665.52 890.18 662.22 887.82 660.08C885.46 657.94 882.43 656.75 879.47 655.6L869.07 651.55C866.63 650.6 862.72 648.08 860.07 648.28C855.09 648.64 850.38 656.5 846.25 658.92Z" fill="#A880F7"/>
<path d="M853.54 520.86C849.21 526.62 844.73 533.27 845.8 540.4C846.38 544.24 848.53 547.63 850.11 551.18C852.25 556 853.37 561.18 854.47 566.34C856.09 573.88 857.72 581.44 858.71 589.1C859.84 597.75 854.53 622.78 854.04 631.49C853.92 633.59 853.67 635.86 852.21 637.37C851.64 637.97 850.88 638.45 850.62 639.23C850.468 639.982 850.592 640.763 850.97 641.43C853.41 646.93 858.4 651.03 863.97 653.37C869.54 655.71 882.97 659.75 889.04 659.96C889.84 660.048 890.65 659.942 891.4 659.65C892.208 659.157 892.843 658.427 893.22 657.56C897.57 649.24 893.39 619.66 893.45 610.27C893.51 602.44 895.36 594.66 895.02 586.84C894.74 580.56 893.02 574.42 892.45 568.16C891.45 557.9 893.33 547.59 895.22 537.45C896.66 529.67 898.11 521.89 899.96 514.21C901.09 509.52 902.4 504.79 904.96 500.72C906.96 497.49 909.77 494.79 912.1 491.72C918.567 483.241 921.44 472.559 920.1 461.98C919.96 460.98 905.1 465.75 903.79 466.32C898.445 468.583 893.527 471.746 889.25 475.67C885.81 478.95 883.1 483.33 880.09 487C875.83 492.193 871.623 497.423 867.47 502.69C862.73 508.71 858.087 514.767 853.54 520.86Z" fill="#464353"/>
<path opacity="0.05" d="M853.54 520.51C849.21 526.27 844.73 532.93 845.8 540.05C846.38 543.9 848.53 547.29 850.11 550.84C852.25 555.65 853.37 560.84 854.47 565.99C856.09 573.54 857.72 581.1 858.71 588.75C859.84 597.41 854.53 622.43 854.04 631.14C853.92 633.24 853.67 635.52 852.21 637.03C851.64 637.62 850.88 638.1 850.62 638.88C850.467 639.631 850.591 640.413 850.97 641.08C853.41 646.59 858.4 650.68 863.97 653.08C869.54 655.48 882.97 657.57 889.04 657.77C889.84 657.858 890.65 657.752 891.4 657.46C892.209 656.974 892.845 656.246 893.22 655.38C897.57 647.06 893.39 619.38 893.45 609.98C893.51 602.14 895.36 594.37 895.02 586.54C894.74 580.26 893.02 574.12 892.45 567.87C891.45 557.6 893.33 547.29 895.22 537.15C896.66 529.38 898.11 521.6 899.96 513.91C901.09 509.22 902.4 504.49 904.96 500.42C906.96 497.19 909.77 494.49 912.1 491.42C918.569 482.942 921.443 472.259 920.1 461.68C919.96 460.68 905.1 465.45 903.79 466.02C898.446 468.29 893.529 471.456 889.25 475.38C885.81 478.65 883.1 483.03 880.09 486.7C875.83 491.893 871.623 497.127 867.47 502.4C862.73 508.373 858.087 514.41 853.54 520.51Z" fill="#A880F7"/>
<path d="M805.36 394C818.764 394 829.63 383.134 829.63 369.73C829.63 356.326 818.764 345.46 805.36 345.46C791.956 345.46 781.09 356.326 781.09 369.73C781.09 383.134 791.956 394 805.36 394Z" fill="#FBBEBE"/>
<path d="M827.22 368.71C829.462 372.287 832.402 375.375 835.864 377.791C839.326 380.206 843.239 381.9 847.37 382.77L845.54 389.42C842.38 400.84 838.83 412.92 830.01 420.84C831.01 416.97 829.73 412.84 827.55 409.48C825.37 406.12 822.31 403.48 819.31 400.87L805.34 388.77C804.937 388.442 804.598 388.042 804.34 387.59C803.995 386.737 803.995 385.783 804.34 384.93C806.12 379.39 811.2 375.93 815.34 372.19C817.417 370.256 819.272 368.096 820.87 365.75C823.66 361.77 825.39 365.77 827.22 368.71Z" fill="#FBBEBE"/>
<path d="M773.39 345.33L772.84 340.77C776.67 341.77 780.31 338.51 782.76 335.14C785.21 331.77 787.48 327.8 791.21 326.39C795.74 324.69 800.54 327.39 804.87 329.67C809.718 332.36 815.038 334.091 820.54 334.77C821.418 334.799 822.288 334.94 823.13 335.19C825.95 336.19 827.29 339.73 827.7 342.94C828.11 346.15 828 349.56 829.39 352.42C830.39 354.59 832.25 356.2 833.39 358.34C836.39 364.08 833.49 371.93 836.62 377.56L828.84 370.43C828.13 369.78 827.13 369.1 826.34 369.65C825.72 370.09 825.67 371.04 825.42 371.8C824.67 374.02 821.89 374.68 819.88 373.8C817.87 372.92 816.4 371.01 814.88 369.27C811.44 365.21 807.34 361.64 802.54 359.91C800.436 359.123 798.189 358.793 795.947 358.941C793.706 359.09 791.522 359.713 789.54 360.77C785.91 362.82 783.25 367.6 778.8 367.77C772.7 368 770.16 356.64 767.34 352.15C768.372 351.373 769.098 350.259 769.39 349.001C769.683 347.743 769.524 346.422 768.94 345.27C769.35 345.1 773.3 344.63 773.39 345.33Z" fill="#464353"/>
<path d="M473.2 203.44C471.25 205.174 469.447 207.068 467.81 209.1C466.162 211.161 465.285 213.732 465.33 216.37C465.339 217.135 465.583 217.879 466.03 218.5C466.258 218.797 466.574 219.016 466.932 219.125C467.291 219.235 467.675 219.229 468.03 219.11C468.432 218.905 468.776 218.603 469.03 218.23C470.087 216.96 471.208 215.745 472.39 214.59C472.82 214.16 473.39 213.71 473.97 213.87C474.23 213.962 474.463 214.117 474.65 214.32C475.323 214.902 475.813 215.666 476.06 216.52C476.41 218.05 475.52 219.58 474.51 220.78C473.5 221.98 472.31 223.13 471.9 224.64C471.745 225.039 471.745 225.481 471.9 225.88C472.093 226.168 472.364 226.397 472.68 226.54C474.112 227.328 475.7 227.793 477.331 227.9C478.962 228.007 480.597 227.754 482.12 227.16C484.12 226.35 485.9 224.96 487.96 224.24C488.852 223.996 489.717 223.661 490.54 223.24C491.129 222.848 491.635 222.343 492.028 221.754C492.421 221.165 492.694 220.505 492.83 219.81C493.09 218.422 493.141 217.003 492.98 215.6C492.731 210.168 491.568 204.816 489.54 199.77C489.423 199.445 489.223 199.155 488.96 198.93C488.659 198.747 488.312 198.653 487.96 198.66C485.4 198.39 481.2 197.08 478.73 198.03C477.866 198.504 477.121 199.167 476.55 199.97C476.09 200.48 473.2 202.77 473.2 203.44Z" fill="#A1616A"/>
<path d="M472.39 201.18C472.39 198.74 469.39 192.85 474.16 192.46C474.16 189.85 470.47 188.23 471.16 185.46C471.38 184.54 472.16 183.79 472.25 182.85C472.55 180.18 467.73 178.73 468.53 176.17C468.83 175.17 469.89 174.59 470.12 173.6C470.66 171.29 466.53 170.26 466.45 167.89C466.45 167.09 466.9 166.34 466.86 165.54C466.86 164.54 465.99 163.78 465.51 162.91C464.26 160.68 464.87 157.23 462.59 156.08C464.1 156.21 464.59 153.97 463.97 152.6C463.35 151.23 462.08 150.04 462.07 148.52C462.145 147.969 462.145 147.411 462.07 146.86C461.65 145.4 459.26 145.28 458.86 143.86C458.808 143.315 458.792 142.767 458.81 142.22C458.65 141.09 457.49 140.37 456.4 140.05C455.268 139.858 454.178 139.468 453.18 138.9C452.48 138.37 451.67 137.49 450.92 137.9C450.64 138.07 450.5 138.39 450.29 138.63C449.39 139.68 447.67 139.22 446.54 138.45C443.2 136.18 441.54 132.11 440.83 128.14C440.12 124.17 440.14 120.07 439.25 116.14C438.979 114.915 438.618 113.712 438.17 112.54C437.79 111.54 436.57 109.97 436.49 108.96C436.31 106.66 441.07 108.23 442.88 108.46C444.637 108.632 446.375 108.966 448.07 109.46C449.879 110.144 451.652 110.921 453.38 111.79C460.6 114.98 469.32 115.37 475.12 120.73C477.03 122.49 478.64 124.8 481.12 125.6C482.257 125.818 483.38 126.109 484.48 126.47C487.23 127.76 487.66 131.41 489.16 134.05C489.632 134.747 490.043 135.483 490.39 136.25C490.679 137.154 490.814 138.101 490.79 139.05L491 145.98C491.34 157.59 491.68 169.23 490.44 180.77C490.04 184.58 489.44 188.5 490.57 192.16C490.87 193.16 491.29 194.1 491.57 195.11C491.817 196.294 491.945 197.5 491.95 198.71L492.11 203.2C492.166 203.549 492.087 203.906 491.89 204.2C491.723 204.336 491.527 204.432 491.318 204.482C491.109 204.533 490.891 204.535 490.68 204.49C484.43 203.93 478.11 200.41 472.21 202.54" fill="#464353"/>
<path d="M757.61 546.18C798.457 546.18 831.57 541.394 831.57 535.49C831.57 529.586 798.457 524.8 757.61 524.8C716.763 524.8 683.65 529.586 683.65 535.49C683.65 541.394 716.763 546.18 757.61 546.18Z" fill="#504F60"/>
<path d="M821.24 536.01C819.94 530.44 819.13 525.55 819.13 525.55C819.13 525.55 819.43 519.49 816.71 514.94V513.42V502.22C817.484 500.186 818.431 498.223 819.54 496.35C821.54 492.83 819.54 479.93 819.54 479.93C819.54 479.93 812.07 461.74 813.88 450.2C815.69 438.66 798.54 398.96 798.54 398.96C798.646 395.131 799.186 391.327 800.15 387.62C800.333 386.841 800.407 386.04 800.37 385.24C800.37 385.14 800.37 385.05 800.37 384.95C800.37 384.85 800.37 385.01 800.37 385.04C800.11 377.43 794.09 363.17 794.09 363.17L794.9 335.99C794.9 335.99 798.74 319.99 792.48 298.44C790.29 290.93 788.89 284.92 788 280.28C787.9 279.76 787.8 279.28 787.72 278.77C800.61 276.77 810.46 275.17 810.46 275.17C810.46 275.17 802.98 243.88 797.93 238.4C792.88 232.92 788.84 215.71 788.84 215.71C788.84 215.71 786.21 193.62 790.46 187.16C794.71 180.7 795.31 169.56 795.31 169.56C795.31 169.56 805 162.56 806.22 159.39C807.44 156.22 809.45 149.22 809.45 145.51C809.45 141.8 808.24 138.51 808.64 136.51C809.04 134.51 805.81 127.12 807.43 123.6C807.849 122.519 808.066 121.37 808.07 120.21C808.074 120.177 808.074 120.143 808.07 120.11C808.07 120.11 808.07 120.11 808.07 120.11C808.085 117.03 807.8 113.955 807.22 110.93C804.417 108.563 801.146 106.815 797.62 105.8L797.41 104.96L796.86 102.76C796.553 102.557 796.236 102.37 795.91 102.2V101.4L795.82 98.22L797.34 91.08C800.34 78.66 783.75 76.81 783.75 76.81C782.744 74.9049 781.071 73.4379 779.05 72.69C775.72 71.52 778.5 91.37 780.05 92.69C781.22 93.69 784.84 99.87 786.59 102.93L786.87 103.43C786.596 103.676 786.342 103.944 786.11 104.23L786.74 108.54L786.84 109.2C785.741 110.565 784.848 112.085 784.19 113.71C784.19 113.71 787.19 117.03 786.62 120.71C786.05 124.39 787.55 129.06 787.62 129.31C787.44 129.1 785.31 126.8 783.18 127.36C781.05 127.92 775.1 129.71 775.1 129.71C775.1 129.71 770.66 130.49 771.1 131.47C771.54 132.45 768.1 136.75 768.1 136.75L756.16 125.43C756.04 125.09 755.91 124.75 755.81 124.43C755.323 122.798 754.988 121.124 754.81 119.43C756.111 119.121 757.388 118.716 758.63 118.22C759.885 117.789 761.017 117.062 761.93 116.1C763.14 114.67 763.37 112.73 763.86 110.95C764.8 107.47 766.86 104.38 768.29 101.07C770.712 95.4769 771.492 89.3102 770.54 83.29C770.357 81.4348 769.729 79.6512 768.71 78.0901C766.76 75.4101 763.22 74.32 760.65 72.18C758.08 70.04 756.42 66.77 753.42 65.18C750.71 63.73 747.42 63.9 744.36 64.4C738.384 65.3855 732.642 67.4744 727.43 70.56C725.69 71.56 723.77 72.79 721.77 72.42C720.05 72.11 718.77 70.74 717.69 69.42C717.702 69.3654 717.719 69.3119 717.74 69.26C717.691 69.2113 717.648 69.1577 717.61 69.1C716.345 71.9085 715.71 74.96 715.75 78.04C715.75 78.52 715.75 79.04 715.81 79.47V79.97C715.81 80.11 715.81 80.25 715.81 80.38C715.81 80.5932 715.779 80.8053 715.72 81.01C715.468 81.6218 715.086 82.1712 714.6 82.6201C714.233 83.037 713.899 83.4816 713.6 83.95C713.6 83.79 713.7 83.63 713.76 83.46C712.997 84.5735 712.567 85.8812 712.52 87.2301C712.464 88.212 712.786 89.178 713.42 89.93C714.018 90.5114 714.672 91.0338 715.37 91.49C715.132 92.8102 715.012 94.1487 715.01 95.49C715.033 99.4665 716.081 103.37 718.053 106.823C720.026 110.276 722.856 113.161 726.27 115.2C726.41 115.53 726.54 115.87 726.67 116.2C728.2 120.2 729.35 124.9 728.84 129.2C728.84 129.51 728.75 129.83 728.7 130.14C728.65 130.45 728.4 130.47 728.27 130.64C728.27 130.64 708.54 130.84 703.9 126.64C699.26 122.44 692.18 136.91 692.18 136.91C692.18 136.91 685.11 138.28 683.69 136.91C682.27 135.54 674 136.72 674 136.72C670.612 133.707 666.203 132.098 661.67 132.22C658.924 130.133 655.893 128.449 652.67 127.22V127.22L652.45 127.14C651.028 126.622 649.507 126.43 648 126.58C648 126.58 638.3 118.58 635.47 114.26C632.64 109.94 619.17 93.99 619.11 93.92V93.1501L618.96 90.83C618.56 90.8928 618.155 90.9263 617.75 90.93C617.68 90.7 617.58 90.4301 617.48 90.1201C616.704 87.8571 615.748 85.66 614.62 83.55C614.62 83.55 614.62 80.62 615.47 79.88C616.32 79.14 615.12 68.39 615.12 68.39C615.12 68.39 606.38 47.96 598.55 63.21C598.55 63.21 583.75 73.08 596.17 84.58C596.17 84.58 601.17 86.98 601.83 88.88C602.29 90.11 603.97 93.56 605.1 95.88L605.61 96.88L605.47 97L605.65 98.92L605.73 99.66C603.39 100.99 601.8 102.31 602.19 103.3C602.879 104.994 603.353 106.768 603.6 108.58C603.6 108.58 620.78 130.1 623 139.29C623 139.29 669.07 166.67 684.22 168.62L681.54 182.27C681.15 185.974 680.949 189.696 680.94 193.42C681.14 196.35 679.12 209.65 679.12 209.65C679.12 209.65 676.49 229.21 674.27 231.95C672.05 234.69 672.45 246.42 672.45 246.42C671.926 252.035 670.922 257.596 669.45 263.04C667.23 270.47 668.84 279.67 668.84 279.67C668.84 279.67 661.17 297.27 679.55 285.34C679.55 285.34 688.55 284.78 698.97 284.42C698.97 284.76 698.97 285.11 698.97 285.42C698.97 286.76 698.97 288.21 698.9 289.73C698.76 299.81 698.7 313.73 699.16 324.21C699.97 342.79 705.63 379.56 705.63 379.56V398.07C705.265 399.806 705.084 401.576 705.09 403.35C704.97 409.863 706.704 416.275 710.09 421.84L711.51 434.16C711.51 434.16 714.83 442.28 714.89 447.16C714.877 447.553 714.83 447.945 714.75 448.33C714.621 448.951 714.567 449.586 714.59 450.22C714.4 455.82 717.77 469.22 717.77 469.22C717.77 469.22 717.97 482.71 719.99 483.5C721.72 484.17 717.68 491.27 716.48 493.31C716.448 493.185 716.425 493.058 716.41 492.93L716.16 493.33C715.743 494.422 715.53 495.581 715.53 496.75C715.416 497.671 715.566 498.606 715.963 499.445C716.359 500.284 716.986 500.993 717.77 501.49C721.61 503.84 723.67 505.79 720.41 506.57C719.211 506.756 718.022 507.007 716.85 507.32C716.85 507.17 716.73 507.01 716.68 506.87C716.22 507.05 715.836 507.383 715.594 507.813C715.352 508.243 715.265 508.744 715.35 509.23C715.381 510.816 715.789 512.373 716.54 513.77C719.77 521.01 722.01 523.77 722.01 523.77L723.56 523.6C723.331 524.192 723.029 524.753 722.66 525.27C722.07 526.109 721.288 526.794 720.38 527.27C719.533 527.777 718.59 528.1 717.61 528.22C716.515 528.256 715.439 528.522 714.454 529.001C713.468 529.48 712.595 530.161 711.89 531C709.89 533.61 708.61 537.16 712.59 540.28L727.04 545.28C727.04 545.28 751.9 548.51 750.58 542.93C749.26 537.35 748.46 532.47 748.46 532.47C748.567 529.063 747.882 525.678 746.46 522.58C746.199 522.074 745.905 521.587 745.58 521.12L746.46 521.03C746.46 521.03 748.28 508.7 750.7 506.36C751.26 505.82 751.39 505.36 751.26 505.08C751.51 504.41 750.87 504.02 750.06 503.79L749.88 504.28C749.088 504.107 748.281 504.017 747.47 504.01C747.47 504.01 746.66 497.56 749.29 495.21C749.502 494.942 749.657 494.633 749.745 494.303C749.833 493.973 749.851 493.628 749.8 493.29C749.82 492.405 749.726 491.521 749.52 490.66C749.494 490.715 749.464 490.769 749.43 490.82C748.11 484.96 743.63 475.65 743.63 475.65C743.63 475.65 743.43 469.79 745.05 467.44C746.67 465.09 744.84 435.56 744.84 435.56C744.84 435.56 745.45 421.29 743.63 414.64C741.81 407.99 745.85 400.16 745.85 400.16C745.85 400.16 745.85 400.01 745.85 399.74V399.64L745.62 397.39C745.614 397.437 745.614 397.484 745.62 397.53C745.21 393.75 744.44 386.9 743.87 383.74C743.06 379.24 744.08 357.74 744.08 357.74L747.71 348.54L754.18 364.39L761.05 385.51C761.05 385.51 764.45 389.97 764.53 394.51C764.53 394.73 764.53 394.95 764.53 395.17C764.475 395.638 764.448 396.109 764.45 396.58C764.328 399.248 765.06 401.886 766.54 404.11C766.54 404.11 768.36 414.11 771.19 416.62C774.02 419.13 774.02 424.05 774.02 424.05C774.02 424.05 777.45 438.53 779.02 441.05C780.38 443.19 780.45 449.05 780.44 450.88C780.44 451.21 780.44 451.4 780.44 451.4C780.44 451.4 780.92 456.58 780.9 460.92C780.9 461.46 780.9 461.98 780.9 462.47C780.905 462.434 780.905 462.397 780.9 462.36C780.899 463.546 780.758 464.727 780.48 465.88L780.42 466.08C780.42 465.83 780.42 465.59 780.49 465.35C779.787 468.297 779.451 471.32 779.49 474.35C779.4 479.55 780.19 485.71 783.34 489.35C788.8 495.61 792.23 494.83 792.23 494.83C792.23 494.83 789.61 502.65 786.37 504.22C786.247 504.278 786.133 504.352 786.03 504.44C786.03 504.28 785.97 504.13 785.95 503.98C785.589 504.37 785.313 504.831 785.141 505.334C784.969 505.837 784.904 506.371 784.95 506.9C784.72 510.34 786.89 515.9 788.95 518.49C789.715 519.239 790.653 519.789 791.68 520.09C791.517 520.205 791.347 520.309 791.17 520.4C790.81 520.598 790.44 520.774 790.06 520.93C789.534 521.153 788.978 521.298 788.41 521.36C787.314 521.389 786.236 521.652 785.25 522.132C784.263 522.611 783.391 523.296 782.69 524.14C780.69 526.74 779.41 530.29 783.39 533.41L797.84 538.41C797.84 538.41 822.54 541.58 821.24 536.01Z" fill="url(#paint0_linear)"/>
<path d="M726.33 545.25L712.33 540.25C708.47 537.13 709.7 533.58 711.65 530.97C712.321 530.138 713.163 529.459 714.118 528.979C715.074 528.5 716.122 528.231 717.19 528.19C718.138 528.069 719.049 527.745 719.86 527.24C720.747 526.758 721.508 526.073 722.08 525.24C723.101 523.619 723.652 521.746 723.67 519.83C723.67 519.83 739.03 515.33 743.23 519.83C743.98 520.645 744.606 521.564 745.09 522.56C746.485 525.667 747.169 529.046 747.09 532.45C747.09 532.45 747.87 537.33 749.14 542.91C750.41 548.49 726.33 545.25 726.33 545.25Z" fill="#2D293D"/>
<path d="M794.77 538.35L780.77 533.35C776.91 530.23 778.14 526.68 780.09 524.08C780.756 523.244 781.595 522.563 782.55 522.083C783.505 521.603 784.552 521.336 785.62 521.3C786.173 521.243 786.713 521.098 787.22 520.87C787.59 520.714 787.95 520.537 788.3 520.34C792.21 518.19 792.11 512.91 792.11 512.91C792.11 512.91 807.46 508.41 811.67 512.91C812.233 513.52 812.726 514.19 813.14 514.91C815.77 519.46 815.48 525.53 815.48 525.53C815.48 525.53 816.26 530.42 817.48 535.99C818.7 541.56 794.77 538.35 794.77 538.35Z" fill="#2D293D"/>
<path opacity="0.1" d="M743.24 519.82C743.99 520.635 744.616 521.554 745.1 522.55L722.1 525.22C723.121 523.599 723.672 521.726 723.69 519.81C723.69 519.81 739.04 515.32 743.24 519.82Z" fill="#A880F7"/>
<path opacity="0.1" d="M813.16 514.93V519.24C809.58 525.13 792.27 523.84 787.24 520.89C787.61 520.734 787.97 520.557 788.32 520.36C792.23 518.21 792.13 512.93 792.13 512.93C792.13 512.93 807.48 508.43 811.69 512.93C812.253 513.539 812.746 514.21 813.16 514.93V514.93Z" fill="#A880F7"/>
<path d="M815.89 496.35C814.82 498.228 813.907 500.191 813.16 502.22V517.67C809.24 524.12 788.91 521.97 786.16 518.45C783.41 514.93 780.54 505.77 783.63 504.18C786.72 502.59 789.3 494.79 789.3 494.79C789.3 494.79 785.97 495.57 780.69 489.31C775.41 483.05 776.98 469.17 777.96 465.85C778.94 462.53 777.96 451.38 777.96 451.38C777.96 451.38 778.16 443.55 776.6 441.01C775.04 438.47 771.71 424.01 771.71 424.01C771.71 424.01 771.71 419.12 768.97 416.58C766.23 414.04 764.47 404.06 764.47 404.06C762.868 401.566 762.179 398.594 762.52 395.65C763.1 390.76 759.19 385.48 759.19 385.48L752.54 364.35L746.28 348.51L742.76 357.7C742.76 357.7 741.76 379.21 742.57 383.7C743.38 388.19 744.57 400.13 744.57 400.13C744.57 400.13 740.66 407.95 742.42 414.6C744.18 421.25 743.54 435.54 743.54 435.54C743.54 435.54 745.3 465.06 743.73 467.41C742.16 469.76 742.36 475.63 742.36 475.63C742.36 475.63 750.36 492.83 747.84 495.18C745.32 497.53 746.08 503.98 746.08 503.98C746.08 503.98 751.55 503.98 749.21 506.33C746.87 508.68 745.1 521 745.1 521L721.45 523.77C721.45 523.77 719.29 521.04 716.16 513.77C713.03 506.5 716.74 507.32 719.89 506.53C723.04 505.74 721.05 503.8 717.33 501.45C713.61 499.1 715.77 493.82 715.77 493.82C715.77 493.82 721.44 484.24 719.48 483.46C717.52 482.68 717.33 469.18 717.33 469.18C717.33 469.18 713.42 453.18 714.4 448.84C715.38 444.5 711.27 434.18 711.27 434.18L709.9 421.86C705.716 414.869 704.189 406.605 705.6 398.58V379.58C705.6 379.58 700.12 342.82 699.34 324.24C698.84 312.34 698.98 296.1 699.14 285.97C699.24 280.29 699.34 276.52 699.34 276.52L783.82 267.72C783.82 267.72 783.74 271.62 785.35 280.27C786.22 284.91 787.57 290.92 789.69 298.43C795.75 319.94 792.04 335.97 792.04 335.97L791.25 363.16C791.25 363.16 798.68 381.34 797.12 387.6C796.177 391.317 795.647 395.127 795.54 398.96C795.54 398.96 812.16 438.66 810.4 450.2C808.64 461.74 815.87 479.93 815.87 479.93C815.87 479.93 817.85 492.83 815.89 496.35Z" fill="#464353"/>
<path opacity="0.05" d="M767.59 394.47L793.31 391.04C793.31 391.04 778.74 405.91 767.59 394.47Z" fill="#A880F7"/>
<path opacity="0.1" d="M789.59 365.91C789.59 365.91 790.47 375.01 784.9 378.43C784.9 378.43 794.87 376.87 789.59 365.91Z" fill="#A880F7"/>
<path opacity="0.1" d="M788.01 336.97C788.01 336.97 766.51 354.67 758.69 353.2C750.87 351.73 788.01 336.97 788.01 336.97Z" fill="#A880F7"/>
<path opacity="0.1" d="M735.71 402.77C735.71 402.77 719.38 406.48 718.89 413.04C718.4 419.6 735.71 402.77 735.71 402.77Z" fill="#A880F7"/>
<path opacity="0.05" d="M739.3 484.33C739.3 484.33 716.23 488.63 722.78 491.56C729.33 494.49 740.09 496.84 740.09 496.84C740.09 496.84 747.54 497.23 739.3 484.33Z" fill="#A880F7"/>
<g opacity="0.05">
<path opacity="0.05" d="M718.12 496.22C717.54 495.858 717.049 495.369 716.683 494.791C716.318 494.213 716.088 493.56 716.01 492.88L715.77 493.29C715.77 493.29 713.62 498.57 717.34 500.91C717.76 501.18 718.17 501.45 718.54 501.71C719.23 501.58 719.97 501.48 720.68 501.3C723.83 500.52 721.84 498.57 718.12 496.22Z" fill="#A880F7"/>
<path opacity="0.05" d="M747.84 494.65C748.48 494.07 748.46 492.57 748.07 490.65C747.07 492.16 746.78 494.52 746.76 496.31C747.003 495.689 747.37 495.124 747.84 494.65V494.65Z" fill="#A880F7"/>
<path opacity="0.05" d="M744.29 397.36C743.44 399.673 742.915 402.093 742.73 404.55C743.176 402.853 743.775 401.199 744.52 399.61L744.29 397.36Z" fill="#A880F7"/>
<path opacity="0.05" d="M797.13 387.1C797.284 386.397 797.354 385.679 797.34 384.96C797.05 386.42 796.85 387.77 796.7 388.96C796.83 388.35 796.97 387.77 797.13 387.1Z" fill="#A880F7"/>
<path opacity="0.05" d="M743.74 466.89C744.06 466.41 744.24 464.79 744.32 462.54C743.596 464.281 743.213 466.145 743.19 468.03C743.327 467.629 743.511 467.246 743.74 466.89V466.89Z" fill="#A880F7"/>
<path opacity="0.05" d="M748.54 503.77C747.327 507.693 746.428 511.705 745.85 515.77L722.2 518.5C722.2 518.5 720.04 515.77 716.91 508.5C716.657 507.938 716.434 507.364 716.24 506.78C714.82 507.43 714.24 508.9 716.12 513.19C719.25 520.43 721.42 523.19 721.42 523.19L745.07 520.45C745.07 520.45 746.83 508.13 749.17 505.78C750.37 504.65 749.63 504.06 748.54 503.77Z" fill="#A880F7"/>
<path opacity="0.05" d="M717.34 468.65C717.34 468.65 717.53 482.14 719.49 482.92C720.49 480.69 721.14 478.57 720.26 478.22C718.26 477.44 718.11 463.94 718.11 463.94C718.11 463.94 714.2 447.94 715.18 443.6C716.16 439.26 712.05 428.94 712.05 428.94L710.68 416.62C706.496 409.629 704.969 401.365 706.38 393.34V374.34C706.38 374.34 700.9 337.58 700.12 319C699.62 307.1 699.76 290.86 699.92 280.73C699.92 278.9 699.98 277.28 700.01 275.91L699.34 275.98C699.34 275.98 699.23 279.74 699.14 285.43C698.98 295.56 698.83 311.8 699.34 323.69C700.12 342.27 705.59 379.04 705.59 379.04V398.04C704.186 406.063 705.716 414.322 709.9 421.31L711.26 433.63C711.26 433.63 715.37 443.99 714.39 448.3C713.41 452.61 717.34 468.65 717.34 468.65Z" fill="#A880F7"/>
<path opacity="0.05" d="M786.96 513.23C785.039 510.449 783.758 507.276 783.21 503.94C780.8 506.12 783.57 514.58 786.21 517.94C788.94 521.46 809.28 523.61 813.21 517.15V513.43C807.88 518.66 789.54 516.56 786.96 513.23Z" fill="#A880F7"/>
<path opacity="0.05" d="M816.68 491.13C815.607 493.008 814.691 494.972 813.94 497V499.77C814.39 498.77 815.02 497.43 815.94 495.85C816.559 494.31 816.852 492.659 816.8 491C816.8 491 816.71 491.09 816.68 491.13Z" fill="#A880F7"/>
<path opacity="0.05" d="M788.16 494.22C788.904 492.714 789.548 491.16 790.09 489.57C790.09 489.57 786.76 490.35 781.48 484.09C777.64 479.54 777.42 470.94 777.97 465.32C776.97 468.65 775.42 482.53 780.7 488.79C784.15 492.88 786.76 493.96 788.16 494.22Z" fill="#A880F7"/>
<path opacity="0.05" d="M777.96 450.85C778.305 454.703 778.435 458.572 778.35 462.44C778.448 461.829 778.581 461.225 778.75 460.63C779.75 457.3 778.75 446.16 778.75 446.16C778.75 446.16 778.95 438.33 777.38 435.79C775.81 433.25 772.54 418.77 772.54 418.77C772.54 418.77 772.54 413.88 769.8 411.34C767.06 408.8 765.3 398.82 765.3 398.82C763.684 396.331 762.977 393.36 763.3 390.41C763.89 385.52 759.98 380.24 759.98 380.24L753.33 359.12L747.07 343.28L743.54 352.48C743.54 352.48 743.54 353.64 743.42 355.48L746.28 348.01L752.54 363.82L759.19 384.94C759.19 384.94 763.1 390.22 762.51 395.11C762.187 398.06 762.894 401.031 764.51 403.52C764.51 403.52 766.27 413.52 769.01 416.04C771.75 418.56 771.74 423.47 771.74 423.47C771.74 423.47 775.07 437.94 776.63 440.47C778.19 443 777.96 450.85 777.96 450.85Z" fill="#A880F7"/>
</g>
<path d="M794.38 91.0501L792.91 98.1901L793 101.37L793.06 103.71L784.9 104.55L783.99 102.86C782.3 99.8001 778.79 93.5801 777.66 92.6201C776.15 91.3601 773.46 71.5001 776.66 72.6801C778.63 73.4409 780.247 74.9053 781.2 76.7901C781.2 76.7901 797.27 78.6301 794.38 91.0501Z" fill="#FFCDD3"/>
<path opacity="0.1" d="M793.06 103.71L784.9 104.55L783.99 102.86C785.088 101.61 786.584 100.78 788.225 100.51C789.866 100.24 791.55 100.548 792.99 101.38L793.06 103.71Z" fill="#A880F7"/>
<path d="M795.12 107.58L784.36 110.07L784.13 108.47L783.52 104.16C783.52 104.16 787.78 98.4799 793.94 102.74L794.48 104.93L795.12 107.58Z" fill="#6C63FF"/>
<path d="M620.82 91.83L609.33 97.99L608.33 95.83C607.24 93.54 605.61 90.09 605.16 88.83C604.48 86.93 599.69 84.53 599.69 84.53C587.69 73.04 601.99 63.16 601.99 63.16C609.57 47.91 617.99 68.34 617.99 68.34C617.99 68.34 619.17 79.11 618.34 79.83C617.51 80.55 617.51 83.5 617.51 83.5C618.605 85.6135 619.531 87.8104 620.28 90.07C620.63 91.16 620.82 91.83 620.82 91.83Z" fill="#FFCDD3"/>
<path opacity="0.1" d="M620.82 91.8299L609.33 97.99L608.33 95.8299C609.95 94.4699 615.7 89.83 617.59 90.02C618.492 90.1326 619.403 90.156 620.31 90.09C620.63 91.16 620.82 91.8299 620.82 91.8299Z" fill="#A880F7"/>
<path d="M621.99 95.3L609.08 101.66L608.82 98.89L608.64 96.97C608.64 96.97 616.12 90.56 618.33 90.81C619.447 90.9719 620.582 90.9719 621.7 90.81L621.85 93.13L621.99 95.3Z" fill="#6C63FF"/>
<path d="M763.09 138.48C763.09 138.48 706.81 144.83 717.33 141.41C724.65 139.02 727.56 134.41 728.17 129.21C728.67 124.88 727.55 120.21 726.08 116.21C724.757 112.662 723.082 109.255 721.08 106.04C721.08 106.04 764.08 82.38 755.49 103.89C754.165 107.144 753.342 110.579 753.05 114.08C752.792 117.559 753.168 121.056 754.16 124.4C755.782 129.827 758.873 134.699 763.09 138.48V138.48Z" fill="#FFCDD3"/>
<path opacity="0.1" d="M755.46 103.86C754.135 107.114 753.313 110.549 753.02 114.05C748.97 117.46 744.53 117.23 738.82 117.23C734.44 117.23 729.58 118.29 726.08 116.18C724.757 112.632 723.082 109.224 721.08 106.01C721.08 106.01 764.07 82.35 755.46 103.86Z" fill="#A880F7"/>
<path d="M738.06 118.73C750.912 118.73 761.33 108.312 761.33 95.4599C761.33 82.6083 750.912 72.1899 738.06 72.1899C725.208 72.1899 714.79 82.6083 714.79 95.4599C714.79 108.312 725.208 118.73 738.06 118.73Z" fill="#FFCDD3"/>
<path opacity="0.1" d="M763.09 138.48C763.09 138.48 706.81 144.83 717.33 141.41C724.65 139.02 727.56 134.41 728.17 129.21C730.97 126.21 736.6 123.98 740.17 122.82C743.471 121.71 747.034 121.651 750.37 122.65C751.682 123.045 752.931 123.624 754.08 124.37C755.719 129.816 758.839 134.701 763.09 138.48V138.48Z" fill="#A880F7"/>
<path opacity="0.1" d="M795.12 107.58L784.36 110.07L784.13 108.47C785.282 106.887 786.894 105.698 788.746 105.065C790.598 104.432 792.6 104.384 794.48 104.93L795.12 107.58Z" fill="#A880F7"/>
<path opacity="0.1" d="M621.99 95.3L609.08 101.66L608.82 98.89C613.002 96.6417 617.347 94.7128 621.82 93.12L621.99 95.3Z" fill="#A880F7"/>
<path opacity="0.1" d="M785.35 280.29C763.54 283.77 732.54 288.21 727.62 286.71C723.53 285.47 710.49 285.6 699.14 285.99C699.24 280.31 699.34 276.54 699.34 276.54L783.82 267.74C783.82 267.74 783.74 271.64 785.35 280.29Z" fill="#A880F7"/>
<path d="M807.09 275.17C807.09 275.17 735.32 287.49 727.62 285.17C719.92 282.85 680.37 285.36 680.37 285.36C662.57 297.29 670 279.69 670 279.69C670 279.69 668.44 270.5 670.59 263.07C672.034 257.615 673.021 252.049 673.54 246.43C673.54 246.43 673.15 234.69 675.3 231.95C677.45 229.21 680 209.66 680 209.66C680 209.66 681.95 196.36 681.76 193.43C681.57 190.5 682.34 182.28 682.34 182.28L684.89 168.59C670.22 166.64 625.63 139.26 625.63 139.26C623.48 130.07 606.86 108.56 606.86 108.56C606.618 106.751 606.158 104.978 605.49 103.28C604.32 100.15 621.92 93.89 621.92 93.89C621.92 93.89 635.02 109.89 637.76 114.23C640.5 118.57 649.88 126.55 649.88 126.55C651.337 126.4 652.81 126.592 654.18 127.11L654.41 127.18C657.553 128.414 660.501 130.098 663.16 132.18C667.57 132.075 671.848 133.689 675.09 136.68C675.09 136.68 683.09 135.5 684.48 136.87C685.87 138.24 692.69 136.87 692.69 136.87C692.69 136.87 699.53 122.4 704.03 126.6C708.53 130.8 727.62 130.6 727.62 130.6C730.16 127.22 736.35 124.8 740.22 123.6C743.521 122.495 747.083 122.435 750.42 123.43C751.859 123.859 753.213 124.536 754.42 125.43L766.03 136.77C766.03 136.77 769.35 132.46 768.96 131.49C768.57 130.52 772.87 129.73 772.87 129.73C772.87 129.73 778.54 127.97 780.69 127.38C782.84 126.79 784.81 129.12 784.99 129.33C784.92 129.08 783.45 124.33 783.99 120.73C784.53 117.13 781.64 113.73 781.64 113.73C788.48 96.91 803.93 110.99 803.93 110.99C803.93 110.99 805.69 120.18 804.13 123.7C802.57 127.22 805.69 134.65 805.3 136.61C804.91 138.57 806.09 141.89 806.09 145.61C806.09 149.33 804.09 156.36 802.96 159.49C801.83 162.62 792.4 169.66 792.4 169.66C792.4 169.66 791.81 180.81 787.7 187.26C783.59 193.71 786.17 215.77 786.17 215.77C786.17 215.77 790.08 232.98 794.97 238.46C799.86 243.94 807.09 275.17 807.09 275.17Z" fill="#3F3D56"/>
<path opacity="0.1" d="M702.47 146.49C702.47 146.49 700.32 140.04 698.36 139.49C696.414 138.774 694.52 137.926 692.69 136.95L693.95 134.54C693.95 134.54 701.29 136.54 702.47 138.71C703.65 140.88 702.47 146.49 702.47 146.49Z" fill="#A880F7"/>
<path opacity="0.1" d="M663.16 132.22C662.77 134.22 645.36 135.93 645.36 135.93L654.16 127.11L654.38 127.19C657.536 128.431 660.494 130.125 663.16 132.22V132.22Z" fill="#A880F7"/>
<path d="M612.8 106.94C613.662 106.94 614.36 106.242 614.36 105.38C614.36 104.518 613.662 103.82 612.8 103.82C611.938 103.82 611.24 104.518 611.24 105.38C611.24 106.242 611.938 106.94 612.8 106.94Z" fill="#575988"/>
<path d="M614.8 110.07C615.662 110.07 616.36 109.372 616.36 108.51C616.36 107.648 615.662 106.95 614.8 106.95C613.938 106.95 613.24 107.648 613.24 108.51C613.24 109.372 613.938 110.07 614.8 110.07Z" fill="#575988"/>
<path d="M616.76 112.96C617.622 112.96 618.32 112.262 618.32 111.4C618.32 110.538 617.622 109.84 616.76 109.84C615.898 109.84 615.2 110.538 615.2 111.4C615.2 112.262 615.898 112.96 616.76 112.96Z" fill="#575988"/>
<path d="M618.81 116.08C619.672 116.08 620.37 115.382 620.37 114.52C620.37 113.658 619.672 112.96 618.81 112.96C617.948 112.96 617.25 113.658 617.25 114.52C617.25 115.382 617.948 116.08 618.81 116.08Z" fill="#575988"/>
<path d="M803.15 115.62C803.851 115.62 804.42 115.051 804.42 114.35C804.42 113.649 803.851 113.08 803.15 113.08C802.449 113.08 801.88 113.649 801.88 114.35C801.88 115.051 802.449 115.62 803.15 115.62Z" fill="#575988"/>
<path d="M803.35 118.51C804.051 118.51 804.62 117.941 804.62 117.24C804.62 116.539 804.051 115.97 803.35 115.97C802.649 115.97 802.08 116.539 802.08 117.24C802.08 117.941 802.649 118.51 803.35 118.51Z" fill="#575988"/>
<path d="M803.52 121.39C804.221 121.39 804.79 120.821 804.79 120.12C804.79 119.419 804.221 118.85 803.52 118.85C802.819 118.85 802.25 119.419 802.25 120.12C802.25 120.821 802.819 121.39 803.52 121.39Z" fill="#575988"/>
<path opacity="0.1" d="M702.54 199.49C702.35 199.26 746.44 254.93 780.66 222.76C780.69 222.77 726.62 230.1 702.54 199.49Z" fill="#A880F7"/>
<path opacity="0.1" d="M677.24 228.43C677.24 228.43 703.62 229.15 706.38 236.74V244.64C705.629 245.057 704.784 245.276 703.925 245.276C703.066 245.276 702.221 245.057 701.47 244.64C698.81 243.2 682.86 235.1 677.24 239V228.43Z" fill="#A880F7"/>
<path d="M677.73 228.43C677.73 228.43 702.96 229.12 705.6 236.36V243.88C704.881 244.279 704.072 244.489 703.25 244.489C702.428 244.489 701.619 244.279 700.9 243.88C698.36 242.52 683.11 234.79 677.73 238.51V228.43Z" fill="#3F3D56"/>
<path opacity="0.1" d="M691.64 171.15C694.335 177.388 697.77 183.281 701.87 188.7C706.329 194.69 711.733 199.915 717.87 204.17C717.87 204.17 692.08 174.77 691.64 171.15Z" fill="#A880F7"/>
<path opacity="0.1" d="M683.01 140.5C683.01 140.5 687.41 159.5 698.75 165.95L683.01 140.5Z" fill="#A880F7"/>
<path opacity="0.1" d="M676.26 142.42C676.15 142.07 672.35 157.42 690.88 165.95C690.88 165.95 683.01 163.28 676.26 142.42Z" fill="#A880F7"/>
<path opacity="0.1" d="M791.45 129.68C791.16 129.68 800.59 135.68 803.16 138.48C803.16 138.48 797.02 129.28 791.45 129.68Z" fill="#A880F7"/>
<path d="M731.77 116.55C731.773 117.058 731.882 117.559 732.089 118.022C732.296 118.486 732.598 118.901 732.974 119.243C733.349 119.584 733.792 119.843 734.273 120.005C734.755 120.166 735.264 120.226 735.77 120.18C742.86 120.62 750.25 120.93 756.77 118.18C757.993 117.743 759.091 117.016 759.97 116.06C761.13 114.63 761.36 112.69 761.83 110.91C762.75 107.43 764.71 104.34 766.12 101.03C768.505 95.4377 769.305 89.2965 768.43 83.28C768.245 81.4357 767.636 79.6593 766.65 78.09C764.77 75.4 761.34 74.31 758.85 72.17C756.36 70.03 754.76 66.76 751.85 65.17C749.23 63.71 746.02 63.89 743.07 64.39C737.267 65.3753 731.707 67.4629 726.69 70.54C725 71.54 723.15 72.77 721.21 72.4C719.51 72.08 718.27 70.65 717.21 69.31C715.846 72.5101 715.273 75.9916 715.54 79.46C715.614 79.9689 715.597 80.4869 715.49 80.99C715.245 81.5982 714.874 82.1471 714.4 82.6C712.65 84.6 711.56 87.85 713.29 89.91C714.04 90.8 715.2 91.29 715.93 92.2C717.24 93.83 716.8 96.2 716.77 98.28C716.698 99.0063 716.882 99.7349 717.29 100.34C717.668 100.693 718.131 100.941 718.634 101.062C719.137 101.183 719.663 101.172 720.16 101.03C721.151 100.732 722.191 100.633 723.22 100.74C724.304 101.093 725.24 101.796 725.88 102.74C729.11 106.95 730.39 111.53 731.77 116.55Z" fill="#2D293D"/>
<g opacity="0.1">
<path opacity="0.1" d="M760.8 114.29C759.921 115.246 758.823 115.973 757.6 116.41C751.04 119.14 743.66 118.83 736.6 118.41C735.842 118.418 735.093 118.25 734.41 117.92C733.33 117.29 732.92 115.97 732.59 114.77C731.21 109.77 729.94 105.18 726.66 101.01C726.028 100.048 725.091 99.3262 724 98.96C722.971 98.8629 721.933 98.9613 720.94 99.25C720.444 99.3934 719.919 99.4062 719.416 99.287C718.913 99.1679 718.449 98.9209 718.07 98.57C717.662 97.9649 717.478 97.2363 717.55 96.51C717.55 94.41 718.02 92.06 716.71 90.43C715.98 89.52 714.82 89.03 714.07 88.13C713.581 87.4664 713.281 86.6827 713.201 85.8621C713.122 85.0416 713.267 84.2149 713.62 83.47C712.37 85.47 711.84 87.98 713.29 89.7C714.04 90.59 715.2 91.08 715.93 91.99C717.24 93.63 716.8 95.99 716.77 98.07C716.693 98.7952 716.874 99.5243 717.28 100.13C717.659 100.484 718.124 100.734 718.629 100.855C719.134 100.976 719.661 100.964 720.16 100.82C721.151 100.522 722.191 100.423 723.22 100.53C724.304 100.883 725.24 101.586 725.88 102.53C729.15 106.7 730.43 111.28 731.81 116.3C731.972 117.535 732.589 118.666 733.54 119.47C734.226 119.8 734.979 119.965 735.74 119.95C742.83 120.39 750.22 120.71 756.74 117.95C757.964 117.516 759.063 116.788 759.94 115.83C760.381 115.267 760.719 114.63 760.94 113.95C760.95 114.08 760.88 114.19 760.8 114.29Z" fill="#A880F7"/>
<path opacity="0.1" d="M715.54 80.38C715.854 80.0389 716.096 79.6374 716.25 79.2C716.34 78.694 716.34 78.176 716.25 77.67C716.055 74.8189 716.426 71.9574 717.34 69.25L717.21 69.1C715.842 72.2953 715.269 75.7747 715.54 79.24C715.57 79.6194 715.57 80.0006 715.54 80.38V80.38Z" fill="#A880F7"/>
</g>
<path opacity="0.1" d="M727.62 130.65C727.62 130.65 756.69 134.51 759.3 130.14Z" fill="#A880F7"/>
<path opacity="0.1" d="M784.13 118.62C784.13 118.62 800.29 118.62 803.84 124.7Z" fill="#A880F7"/>
<path d="M874.54 658.77C869.747 663.055 863.518 665.382 857.09 665.29C855.45 665.29 853.18 665.6 853.17 667.24C853.21 667.721 853.375 668.183 853.65 668.58C855.679 671.963 858.883 674.479 862.65 675.65C866.15 676.71 869.89 676.53 873.54 676.34L884.19 675.79C886.19 675.68 888.19 675.58 890.19 675.33C892.19 675.08 894.37 674.67 896.46 674.33C901.595 673.6 906.789 673.359 911.97 673.61C913.35 673.66 914.97 673.61 915.79 672.61C916.61 671.61 916.19 669.7 915.88 668.2C915.24 665.11 915.88 661.87 915.29 658.77C914.29 653.33 909.58 649.16 904.42 647.19C899.62 645.37 891.12 643.28 886.58 646.32C881.79 649.51 878.86 654.84 874.54 658.77Z" fill="#3F3D56"/>
<path d="M885.12 476.51C886.06 480.98 890.39 484.4 890.51 488.96C890.62 492.62 888.01 495.69 886.13 498.82C884.359 502.062 882.863 505.447 881.66 508.94C878.12 518.035 873.727 526.774 868.54 535.04C866.04 539.04 863.24 543.31 863.81 547.96C864.208 550.134 864.976 552.225 866.08 554.14L873.58 569.04C875.223 572.015 876.508 575.173 877.41 578.45C878.06 581.28 878.12 584.21 878.5 587.09C879.68 596.23 883.97 605.43 881.43 614.29C881.21 615.05 880.43 615.97 879.82 615.44C882.3 620.07 884.29 624.73 884.1 629.98C884 632.73 883.16 635.6 884.17 638.16C884.6 639.23 885.35 640.23 885.34 641.38C885.34 642.14 884.99 642.85 884.91 643.59C884.7 645.7 886.64 647.46 888.65 648.13C890.66 648.8 892.85 648.75 894.88 649.36C898.78 650.53 901.57 653.89 904.88 656.22C908.276 658.559 912.278 659.862 916.4 659.97C916.988 660.033 917.581 659.914 918.1 659.63C918.394 659.373 918.63 659.056 918.792 658.701C918.954 658.346 919.039 657.96 919.04 657.57C919.221 655.702 918.94 653.819 918.222 652.085C917.503 650.352 916.369 648.822 914.92 647.63C914.285 647.232 913.759 646.682 913.39 646.03C913.203 645.453 913.155 644.839 913.25 644.24C913.854 636.044 913.706 627.809 912.81 619.64C912.406 617.051 912.275 614.426 912.42 611.81C912.63 609.63 913.29 607.47 913.05 605.3C912.81 603.13 911.7 601.15 911.05 599.06C909.89 595.34 910.21 591.34 910.05 587.45C909.85 580.69 908.3 574.05 906.76 567.45C906.15 564.86 905.48 562.15 903.65 560.23C902.09 558.6 899.57 557.04 900.16 554.87C900.487 554.07 900.973 553.345 901.59 552.74C902.314 551.831 902.846 550.784 903.152 549.663C903.458 548.542 903.532 547.371 903.37 546.22C904.028 546.388 904.723 546.322 905.338 546.034C905.953 545.746 906.448 545.253 906.74 544.64C918.92 538.89 928.74 527.39 933.12 514.64C933.378 513.693 933.776 512.79 934.3 511.96C935.43 510.38 937.39 509.7 939.13 508.83C944.59 506.08 948.36 500.93 951.82 495.89C953.82 492.97 955.82 489.95 956.72 486.51C957.193 484.285 957.418 482.014 957.39 479.74L957.7 467.99C957.768 467.216 957.693 466.437 957.48 465.69C957.183 464.992 956.752 464.36 956.21 463.83C952.884 460.313 948.516 457.957 943.75 457.11C940.55 456.54 937.28 456.65 934.04 456.38C927.76 455.86 921.56 453.91 915.28 454.38C905.41 455.11 896.62 461.95 891.97 470.69C890.34 473.77 888.62 476.45 885.12 476.51Z" fill="#464353"/>
<path d="M830.32 400.11C830.453 401.924 830.208 403.746 829.6 405.46C828.83 407.1 826.9 408.38 825.21 407.71C825.72 406.56 824.37 405.25 823.11 405.39C822.49 405.533 821.914 405.824 821.432 406.239C820.949 406.653 820.575 407.179 820.34 407.77C819.505 409.449 819.224 411.351 819.54 413.2C819.94 415.5 821.27 417.71 820.92 420.02C820.64 421.94 819.23 423.85 819.98 425.63C820.466 426.443 821.077 427.175 821.79 427.8C822.778 429.017 823.261 430.567 823.14 432.13C823.02 433.693 822.303 435.149 821.14 436.2L840.06 436.58C839.37 439.74 840.79 442.97 842.41 445.78C846.947 453.505 853.213 460.075 860.715 464.973C868.217 469.871 876.752 472.964 885.65 474.01C885.169 474.291 884.756 474.675 884.442 475.135C884.127 475.595 883.919 476.119 883.832 476.669C883.745 477.22 883.781 477.782 883.938 478.317C884.095 478.851 884.369 479.344 884.74 479.76C886.28 481.29 888.89 481.1 890.82 480.11C892.75 479.12 894.26 477.48 896.02 476.21C899.127 474.008 902.917 472.987 906.71 473.33C909.08 473.56 911.38 474.33 913.76 474.45C920.76 474.82 926.76 469.78 933.5 467.72C938.41 466.21 943.98 466.21 948.1 463.14C949.88 461.82 951.34 459.65 950.82 457.51C950.39 456.28 949.709 455.153 948.82 454.2C946.45 451.13 945.05 447.44 943.35 443.95C939.982 437.04 935.345 430.826 929.68 425.63C925.404 421.893 920.873 418.458 916.12 415.35C914.971 414.502 913.746 413.762 912.46 413.14C910.8 412.41 908.96 412.06 907.46 411.14C905.24 409.74 903.96 407.27 902.25 405.28C898.5 400.9 892.74 398.89 888.12 395.45C885.02 393.14 882.28 390.1 878.58 388.99C876.78 388.44 874.87 388.4 873.07 387.86C868.98 386.62 866 382.99 861.99 381.52C858.82 380.36 855.32 380.66 851.99 380.25C848.236 379.787 844.651 378.421 841.54 376.27C840.538 375.454 839.414 374.799 838.21 374.33C833.14 372.79 832.73 382.23 832.21 385.5C831.54 390.36 830.32 395.19 830.32 400.11Z" fill="#6C63FF"/>
<path d="M835.26 431.77C836.11 440.99 829.15 449.92 831.18 458.95C831.61 460.87 832.44 462.7 832.74 464.65C833.59 470 830.39 475.07 827.34 479.55L801.14 518C800.088 519.688 798.832 521.24 797.4 522.62C792.4 527.07 784.88 526.62 778.3 527.94C773.678 528.89 769.313 530.82 765.5 533.6C765.328 533.733 765.215 533.927 765.185 534.142C765.156 534.357 765.211 534.575 765.34 534.75C766.426 536.229 767.866 537.413 769.527 538.194C771.188 538.975 773.018 539.328 774.85 539.22C775.54 540.12 774.85 541.46 773.9 542.11C772.5 543.11 770.56 543.34 770.28 545.73C770.185 546.561 770.353 547.4 770.76 548.13C771.819 549.741 773.46 550.881 775.34 551.31C784.41 554.09 794.21 549.21 801 542.58C807.79 535.95 812.66 527.58 819.32 520.84C823.01 517.1 827.2 513.91 831 510.29C838.58 503.06 844.48 494.29 850.16 485.5C851.87 482.85 853.6 480.13 854.31 477.06C855.02 473.99 854.69 470.88 855.5 467.91C856.56 464.02 859.41 460.91 861.78 457.65C866.43 451.25 869.54 443.42 868.92 435.53C868.3 427.64 863.42 419.86 855.98 417.18C853.672 416.263 851.132 416.109 848.73 416.74C845.68 417.68 843.43 420.2 841.35 422.62L836.35 428.36C835.133 429.631 834.178 431.13 833.54 432.77C833.218 433.596 833.14 434.498 833.318 435.367C833.495 436.237 833.92 437.036 834.54 437.67" fill="#FBBEBE"/>
<path d="M848.54 393.95C845.1 394.15 841.31 394.49 838.88 396.95C837.861 398.079 837.036 399.37 836.44 400.77C834.08 405.58 831.78 410.61 831.61 415.97C831.47 420.25 832.71 424.44 833.36 428.67C833.9 432.19 832.53 435.78 832.27 439.34C836.54 438.03 842.18 436.25 846.05 434.04C848.69 432.53 851.24 430.81 854.12 429.85C858.23 428.48 865.12 430.85 869.03 432.75C869.24 430.01 867.18 425.23 867.4 422.48C867.431 421.322 867.636 420.176 868.01 419.08C868.595 417.921 869.288 416.819 870.08 415.79C871.568 413.37 872.253 410.541 872.036 407.708C871.818 404.876 870.71 402.184 868.87 400.02C865.4 396.12 859.97 394.66 854.79 394.02C851.528 393.642 848.24 393.528 844.96 393.68" fill="#6C63FF"/>
</g>
<defs>
<linearGradient id="paint0_linear" x1="706.22" y1="546.18" x2="706.22" y2="57.52" gradientUnits="userSpaceOnUse">
<stop stop-color="#808080" stop-opacity="0.25"/>
<stop offset="0.54" stop-color="#808080" stop-opacity="0.12"/>
<stop offset="1" stop-color="#808080" stop-opacity="0.1"/>
</linearGradient>
<clipPath id="clip0">
<rect width="1049.58" height="678.59" fill="white"/>
</clipPath>
</defs>
</svg>
