<svg width="428" height="321" viewBox="0 0 428 321" fill="none" xmlns="http://www.w3.org/2000/svg">
<path d="M209.977 308.802L25.4018 199.715C19.5275 196.42 14.4878 190.995 20.2123 187.453L205.44 80.6887C208.222 78.966 212.438 77.8425 215.263 79.4796L409.04 191.926C414.914 195.339 415.973 204.873 410.11 208.286L234.33 308.631C230.636 310.776 226.447 311.92 222.176 311.95C217.905 311.98 213.7 310.895 209.977 308.802Z" fill="url(#paint0_linear)"/>
<path d="M331.786 141.935C331.679 142.16 331.122 144.236 330.716 143.797C330.309 143.359 327.976 144.354 327.976 144.354L321.556 136.168L322.412 133.493H328.212" fill="url(#paint1_linear)"/>
<path d="M300.67 106.668L300.06 104.528L293.287 100.837V89.3237C293.287 89.099 299.836 93.1757 299.836 93.1757L300.146 92.5337C300.514 90.7684 301.187 89.0809 302.136 87.5475L297.375 78.7521L303.431 74.1511L307.957 83.2247C309.604 82.8428 311.32 82.8722 312.954 83.3103V74.6112L321.61 79.4155V88.5212C323.312 90.1582 324.86 91.9492 326.232 93.8712L331.454 90.5328L337.35 101.746L332.77 105.449L333.166 107.332C333.77 109.323 334.252 111.349 334.61 113.399L341.555 117.219V128.7L334.91 124.751C334.622 126.843 333.893 128.849 332.77 130.636L337.724 139.047L331.443 143.797L327.035 135.141H321.546V143.797L313.285 138.758V130.198C311.389 128.341 309.716 126.269 308.299 124.024L303.324 127.426L297.332 115.967L302.307 112.286L301.815 110.563C301.387 109.29 301.002 107.974 300.67 106.668Z" fill="url(#paint2_linear)"/>
<path d="M285.005 94.117L292.656 89.4946L294.56 92.3194L291.607 98.5147" fill="url(#paint3_linear)"/>
<path d="M295.01 132.284L300.681 129.93V126.495" fill="url(#paint4_linear)"/>
<path d="M313.232 148.602L321.546 143.797L319.438 137.506L311.958 139.71L313.232 148.602Z" fill="url(#paint5_linear)"/>
<path d="M303.452 74.1401L295.127 78.9337L299.696 88.0394L304.683 88.125L305.838 78.9337L303.452 74.1401Z" fill="url(#paint6_linear)"/>
<path d="M310.901 119.875C312.832 119.117 313.34 115.813 312.037 112.496C310.734 109.18 308.113 107.106 306.182 107.865C304.252 108.623 303.743 111.927 305.046 115.243C306.349 118.56 308.97 120.634 310.901 119.875Z" fill="url(#paint7_linear)"/>
<path d="M321.663 79.4154L313.339 84.209L304.683 79.4154L313.007 74.6111L321.663 79.4154Z" fill="url(#paint8_linear)"/>
<path d="M323.183 95.3048L331.507 90.5112L337.403 101.725L329.079 106.529L323.183 95.3048Z" fill="url(#paint9_linear)"/>
<path d="M337.735 139.046L329.41 143.851L323.129 148.602L331.454 143.797L337.735 139.046Z" fill="url(#paint10_linear)"/>
<path opacity="0.44" d="M331.786 141.935C331.679 142.16 331.122 144.236 330.716 143.797C330.309 143.359 327.976 144.354 327.976 144.354L321.556 136.168L322.412 133.493H328.212" fill="#053855"/>
<path d="M300.67 106.668L300.06 104.528L293.287 100.837V89.3237C293.287 89.099 299.836 93.1757 299.836 93.1757L300.146 92.5337C300.514 90.7684 301.187 89.0809 302.136 87.5475L297.375 78.7521L303.431 74.1511L307.957 83.2247C309.604 82.8428 311.32 82.8722 312.954 83.3103V74.6112L321.61 79.4155V88.5212C323.312 90.1582 324.86 91.9492 326.232 93.8712L331.454 90.5328L337.35 101.746L332.77 105.449L333.166 107.332C333.77 109.323 334.252 111.349 334.61 113.399L341.555 117.219V128.7L334.91 124.751C334.622 126.843 333.893 128.849 332.77 130.636L337.724 139.047L331.443 143.797L327.035 135.141H321.546V143.797L313.285 138.758V130.198C311.389 128.341 309.716 126.269 308.299 124.024L303.324 127.426L297.332 115.967L302.307 112.286L301.815 110.563C301.387 109.29 301.002 107.974 300.67 106.668Z" fill="url(#paint11_linear)"/>
<path opacity="0.44" d="M285.005 94.117L292.656 89.4946L294.56 92.3194L291.607 98.5147" fill="#053855"/>
<path d="M295.01 132.284L300.681 129.93V126.495" fill="url(#paint12_linear)"/>
<path d="M313.232 148.602L321.546 143.797L319.438 137.506L311.958 139.71L313.232 148.602Z" fill="url(#paint13_linear)"/>
<path d="M303.452 74.1401L295.127 78.9337L299.696 88.0394L304.683 88.125L305.838 78.9337L303.452 74.1401Z" fill="url(#paint14_linear)"/>
<path d="M310.901 119.875C312.832 119.117 313.34 115.813 312.037 112.496C310.734 109.18 308.113 107.106 306.182 107.865C304.252 108.623 303.743 111.927 305.046 115.243C306.349 118.56 308.97 120.634 310.901 119.875Z" fill="url(#paint15_linear)"/>
<path d="M323.183 95.3048L331.507 90.5112L337.403 101.725L329.079 106.529L323.183 95.3048Z" fill="url(#paint16_linear)"/>
<path d="M337.735 139.046L329.41 143.851L323.129 148.602L331.454 143.797L337.735 139.046Z" fill="url(#paint17_linear)"/>
<path opacity="0.44" d="M300.67 106.668L300.06 104.528L293.287 100.837V89.3237C293.287 89.099 299.836 93.1757 299.836 93.1757L300.146 92.5337C300.514 90.7684 301.187 89.0809 302.136 87.5475L297.375 78.7521L303.431 74.1511L307.957 83.2247C309.604 82.8428 311.32 82.8722 312.954 83.3103V74.6112L321.61 79.4155V88.5212C323.312 90.1582 324.86 91.9492 326.232 93.8712L331.454 90.5328L337.35 101.746L332.77 105.449L333.166 107.332C333.77 109.323 334.252 111.349 334.61 113.399L341.555 117.219V128.7L334.91 124.751C334.622 126.843 333.893 128.849 332.77 130.636L337.724 139.047L331.443 143.797L327.035 135.141H321.546V143.797L313.285 138.758V130.198C311.389 128.341 309.716 126.269 308.299 124.024L303.324 127.426L297.332 115.967L302.307 112.286L301.815 110.563C301.387 109.29 301.002 107.974 300.67 106.668Z" fill="#053855"/>
<path opacity="0.1" d="M295.01 132.284L300.681 129.93V126.495" fill="#053855"/>
<path opacity="0.1" d="M313.232 148.602L321.546 143.797L319.438 137.506L311.958 139.71L313.232 148.602Z" fill="#053855"/>
<path opacity="0.1" d="M310.901 119.875C312.832 119.117 313.34 115.813 312.037 112.496C310.734 109.18 308.113 107.106 306.182 107.865C304.252 108.623 303.743 111.927 305.046 115.243C306.349 118.56 308.97 120.634 310.901 119.875Z" fill="#053855"/>
<path opacity="0.1" d="M323.183 95.3048L331.507 90.5112L337.403 101.725L329.079 106.529L323.183 95.3048Z" fill="#053855"/>
<path opacity="0.1" d="M337.735 139.046L329.41 143.851L323.129 148.602L331.454 143.797L337.735 139.046Z" fill="#053855"/>
<path opacity="0.1" d="M295.01 132.284L300.681 129.93V126.495" fill="#053855"/>
<path opacity="0.44" d="M313.232 148.602L321.546 143.797L319.438 137.506L311.958 139.71L313.232 148.602Z" fill="#053855"/>
<path d="M292.378 111.462L291.768 109.322L284.995 105.631V94.1601C284.995 93.9354 291.543 98.0121 291.543 98.0121L291.853 97.3701C292.221 95.6048 292.895 93.9173 293.844 92.3839L289.082 83.5886L295.138 78.9875L299.6 88.0076C301.248 87.6257 302.964 87.6551 304.597 88.0933V79.4156L313.253 84.2198V93.3255C314.956 94.9626 316.503 96.7535 317.876 98.6755L323.14 95.305L329.036 106.519L324.413 110.21L324.809 112.093C325.413 114.085 325.895 116.111 326.254 118.16L333.198 121.98V133.461L326.585 129.513C326.298 131.604 325.568 133.61 324.445 135.398L329.4 143.808L323.14 148.602L318.732 139.945H313.243V148.602L304.95 143.562V135.002C303.054 133.145 301.38 131.073 299.964 128.828L294.988 132.231L288.996 120.771L293.972 117.09L293.48 115.368C293.062 114.094 292.688 112.767 292.378 111.462Z" fill="url(#paint18_linear)"/>
<path opacity="0.44" d="M310.901 119.875C312.832 119.117 313.34 115.813 312.037 112.496C310.734 109.18 308.113 107.106 306.182 107.865C304.252 108.623 303.743 111.927 305.046 115.243C306.349 118.56 308.97 120.634 310.901 119.875Z" fill="#053855"/>
<path opacity="0.44" d="M337.735 139.046L329.41 143.851L323.129 148.602L331.454 143.797L337.735 139.046Z" fill="#053855"/>
<path d="M321.663 79.4154L313.339 84.209L304.683 79.4154L313.007 74.6111L321.663 79.4154Z" fill="url(#paint19_linear)"/>
<path opacity="0.44" d="M321.663 79.3833L313.36 84.209L304.683 79.4475L312.986 74.6111L321.663 79.3833Z" fill="#053855"/>
<path d="M341.523 117.208L333.198 122.012V133.493L341.523 128.7V117.208Z" fill="url(#paint20_linear)"/>
<path opacity="0.44" d="M341.523 117.208L333.198 122.012V133.493L341.523 128.7V117.208Z" fill="#053855"/>
<path d="M273.642 76.3339C273.556 76.4944 273.15 78.0459 272.829 77.7142C272.508 77.3825 270.796 78.1208 270.796 78.1208L266.013 72.0432L266.644 70.053H270.924" fill="url(#paint21_linear)"/>
<path d="M250.562 50.1509L250.112 48.578L245.083 45.8388V37.2788C245.083 37.1076 249.941 40.1357 249.941 40.1357L250.166 39.6542C250.439 38.3435 250.938 37.0905 251.643 35.952L248.101 29.4143L252.595 26.001L255.955 32.7313C257.175 32.4492 258.447 32.4713 259.657 32.7955V26.3755L266.077 29.9386V36.701C267.356 37.9102 268.52 39.2355 269.554 40.66L273.428 38.1883L277.804 46.5129L274.337 49.22L274.637 50.6217C275.084 52.1002 275.442 53.6045 275.707 55.1264L280.864 57.9619V66.5219L275.953 63.5901C275.741 65.1411 275.201 66.6292 274.369 67.9557L278.05 74.2045L273.385 77.7355L270.111 71.3155H266.034V77.7355L259.903 74.0012V67.6882C258.5 66.3167 257.261 64.7871 256.211 63.13L252.52 65.6017L248.069 57.0952L251.76 54.3667L251.45 53.0934C251.065 52.0983 250.787 51.1139 250.562 50.1509Z" fill="url(#paint22_linear)"/>
<path d="M238.909 40.8312L244.591 37.3965L246.004 39.4937L243.81 44.1054" fill="url(#paint23_linear)"/>
<path d="M246.335 69.1647L250.551 67.4206V64.874" fill="url(#paint24_linear)"/>
<path d="M259.86 81.2771L266.045 77.7247L264.472 73.0488L258.918 74.6859L259.86 81.2771Z" fill="url(#paint25_linear)"/>
<path d="M252.605 26.001L246.421 29.5641L249.813 36.3158L253.526 36.38L254.382 29.5641L252.605 26.001Z" fill="url(#paint26_linear)"/>
<path d="M258.141 59.9581C259.571 59.3962 259.945 56.9432 258.977 54.4791C258.009 52.0151 256.065 50.473 254.635 51.0349C253.205 51.5968 252.83 54.0498 253.799 56.5138C254.767 58.9779 256.711 60.5199 258.141 59.9581Z" fill="url(#paint27_linear)"/>
<path d="M266.13 29.9171L259.946 33.4802L253.526 29.9171L259.7 26.354L266.13 29.9171Z" fill="url(#paint28_linear)"/>
<path d="M267.254 41.7194L273.438 38.1562L277.815 46.4809L271.63 50.044L267.254 41.7194Z" fill="url(#paint29_linear)"/>
<path d="M278.05 74.1938L271.876 77.7569L267.211 81.2772L273.396 77.7248L278.05 74.1938Z" fill="url(#paint30_linear)"/>
<path opacity="0.44" d="M273.642 76.3339C273.556 76.4944 273.15 78.0459 272.829 77.7142C272.508 77.3825 270.796 78.1208 270.796 78.1208L266.013 72.0432L266.644 70.053H270.924" fill="#053855"/>
<path d="M250.562 50.1509L250.112 48.578L245.083 45.8388V37.2788C245.083 37.1076 249.941 40.1357 249.941 40.1357L250.166 39.6542C250.439 38.3435 250.938 37.0905 251.643 35.952L248.101 29.4143L252.595 26.001L255.955 32.7313C257.175 32.4492 258.447 32.4713 259.657 32.7955V26.3755L266.077 29.9386V36.701C267.356 37.9102 268.52 39.2355 269.554 40.66L273.428 38.1883L277.804 46.5129L274.337 49.22L274.637 50.6217C275.084 52.1002 275.442 53.6045 275.707 55.1264L280.864 57.9619V66.5219L275.953 63.5901C275.741 65.1411 275.201 66.6292 274.369 67.9557L278.05 74.2045L273.385 77.7355L270.111 71.3155H266.034V77.7355L259.903 74.0012V67.6882C258.5 66.3167 257.261 64.7871 256.211 63.13L252.52 65.6017L248.069 57.0952L251.76 54.3667L251.45 53.0934C251.065 52.0983 250.787 51.1139 250.562 50.1509Z" fill="url(#paint31_linear)"/>
<path opacity="0.44" d="M238.909 40.8312L244.591 37.3965L246.004 39.4937L243.81 44.1054" fill="#053855"/>
<path d="M246.335 69.1647L250.551 67.4206V64.874" fill="url(#paint32_linear)"/>
<path d="M259.86 81.2771L266.045 77.7247L264.472 73.0488L258.918 74.6859L259.86 81.2771Z" fill="url(#paint33_linear)"/>
<path d="M252.605 26.001L246.421 29.5641L249.813 36.3158L253.526 36.38L254.382 29.5641L252.605 26.001Z" fill="url(#paint34_linear)"/>
<path d="M258.141 59.9581C259.571 59.3962 259.945 56.9432 258.977 54.4791C258.009 52.0151 256.065 50.473 254.635 51.0349C253.205 51.5968 252.83 54.0498 253.799 56.5138C254.767 58.9779 256.711 60.5199 258.141 59.9581Z" fill="url(#paint35_linear)"/>
<path d="M267.254 41.7194L273.438 38.1562L277.815 46.4809L271.63 50.044L267.254 41.7194Z" fill="url(#paint36_linear)"/>
<path d="M278.05 74.1938L271.876 77.7569L267.211 81.2772L273.396 77.7248L278.05 74.1938Z" fill="url(#paint37_linear)"/>
<path opacity="0.44" d="M250.562 50.1509L250.112 48.578L245.083 45.8388V37.2788C245.083 37.1076 249.941 40.1357 249.941 40.1357L250.166 39.6542C250.439 38.3435 250.938 37.0905 251.643 35.952L248.101 29.4143L252.595 26.001L255.955 32.7313C257.175 32.4492 258.447 32.4713 259.657 32.7955V26.3755L266.077 29.9386V36.701C267.356 37.9102 268.52 39.2355 269.554 40.66L273.428 38.1883L277.804 46.5129L274.337 49.22L274.637 50.6217C275.084 52.1002 275.442 53.6045 275.707 55.1264L280.864 57.9619V66.5219L275.953 63.5901C275.741 65.1411 275.201 66.6292 274.369 67.9557L278.05 74.2045L273.385 77.7355L270.111 71.3155H266.034V77.7355L259.903 74.0012V67.6882C258.5 66.3167 257.261 64.7871 256.211 63.13L252.52 65.6017L248.069 57.0952L251.76 54.3667L251.45 53.0934C251.065 52.0983 250.787 51.1139 250.562 50.1509Z" fill="#053855"/>
<path opacity="0.1" d="M246.335 69.1647L250.551 67.4206V64.874" fill="#053855"/>
<path opacity="0.1" d="M259.86 81.2771L266.045 77.7247L264.472 73.0488L258.918 74.6859L259.86 81.2771Z" fill="#053855"/>
<path opacity="0.1" d="M258.141 59.9581C259.571 59.3962 259.945 56.9432 258.977 54.4791C258.009 52.0151 256.065 50.473 254.635 51.0349C253.205 51.5968 252.83 54.0498 253.799 56.5138C254.767 58.9779 256.711 60.5199 258.141 59.9581Z" fill="#053855"/>
<path opacity="0.1" d="M267.254 41.7194L273.438 38.1562L277.815 46.4809L271.63 50.044L267.254 41.7194Z" fill="#053855"/>
<path opacity="0.1" d="M278.05 74.1938L271.876 77.7569L267.211 81.2772L273.396 77.7248L278.05 74.1938Z" fill="#053855"/>
<path opacity="0.1" d="M246.335 69.1647L250.551 67.4206V64.874" fill="#053855"/>
<path opacity="0.44" d="M259.86 81.2771L266.045 77.7247L264.472 73.0488L258.918 74.6859L259.86 81.2771Z" fill="#053855"/>
<path d="M244.377 53.7141L243.96 52.1305L238.931 49.3913V40.8313C238.931 40.6601 243.789 43.6882 243.789 43.6882L244.013 43.2067C244.286 41.8959 244.786 40.643 245.49 39.5045L241.948 32.9668L246.442 29.5535L249.802 36.2838C251.023 36.0017 252.294 36.0237 253.504 36.348V29.9601L259.924 33.5232V40.2856C261.188 41.4933 262.338 42.815 263.359 44.2339L267.254 41.7301L271.63 50.0547L268.163 52.8153L268.463 54.217C268.91 55.6955 269.268 57.1998 269.533 58.7217L274.69 61.5572V70.1172L269.779 67.1854C269.567 68.7364 269.027 70.2245 268.195 71.551L271.876 77.7998L267.211 81.3201L263.937 74.9001H259.86V81.3201L253.729 77.5858V71.2728C252.321 69.8952 251.079 68.3583 250.027 66.6932L246.335 69.2184L241.884 60.7119L245.576 57.9834L245.212 56.7101C244.891 55.6401 244.613 54.6771 244.377 53.7141Z" fill="url(#paint38_linear)"/>
<path opacity="0.44" d="M258.141 59.9581C259.571 59.3962 259.945 56.9432 258.977 54.4791C258.009 52.0151 256.065 50.473 254.635 51.0349C253.205 51.5968 252.83 54.0498 253.799 56.5138C254.767 58.9779 256.711 60.5199 258.141 59.9581Z" fill="#053855"/>
<path opacity="0.44" d="M278.05 74.1938L271.876 77.7569L267.211 81.2772L273.396 77.7248L278.05 74.1938Z" fill="#053855"/>
<path d="M266.13 29.9171L259.946 33.4802L253.526 29.9171L259.7 26.354L266.13 29.9171Z" fill="url(#paint39_linear)"/>
<path opacity="0.44" d="M266.13 29.8957L259.967 33.4802L253.526 29.9385L259.689 26.354L266.13 29.8957Z" fill="#053855"/>
<path d="M280.864 57.9834L274.69 61.5465V70.0637L280.864 66.5113V57.9834Z" fill="url(#paint40_linear)"/>
<path opacity="0.44" d="M280.864 57.9834L274.69 61.5465V70.0637L280.864 66.5113V57.9834Z" fill="#053855"/>
<path d="M262.653 21.9564C271.919 29.0719 280.725 38.1134 289.66 45.9565C303.88 58.4113 318.036 71.0052 330.459 85.279C341.694 98.1832 351.11 113.484 349.269 131.289C349.034 133.534 348.648 135.761 348.114 137.955C347.339 141.141 346.231 144.236 344.807 147.189C340.527 156.081 332.074 161.195 322.209 158.874C311.102 156.263 303.452 146.954 296.176 138.811C285.701 127.041 276.37 114.415 266.911 101.875C258.137 90.2331 247.534 79.501 239.947 67.0141C239.947 67.0141 225.224 42.7037 234.886 25.4981C244.548 8.29245 262.653 21.9564 262.653 21.9564Z" stroke="#2E3192" stroke-width="2" stroke-miterlimit="10" stroke-linecap="round" stroke-dasharray="4 7.01"/>
<path opacity="0.48" d="M191.284 274.605L133.183 256.319L209.217 214.075L228.146 203.557L276.06 223.266C270.56 226.594 196.645 271.138 191.284 274.605Z" fill="url(#paint41_linear)"/>
<path opacity="0.48" d="M200.614 207.173L184.917 185.388L164.47 178.219L133.183 192.033L84.4231 222.603L133.183 256.319L198.817 219.553" fill="url(#paint42_linear)"/>
<path d="M222.817 127.993L225.77 130.54L225.321 207.216L227.985 208.971L231.644 206.681L235.4 127.993C232.03 127.961 226.145 128.132 222.817 127.993Z" fill="#F2F2F2"/>
<path d="M187.4 161.517L161.463 177.609L161.142 184.318L188.502 166.214" fill="#A27CEF"/>
<path d="M187.721 150.57L201.631 189.797L199.683 191.113C199.136 190.872 198.607 190.593 198.1 190.278C197.468 189.861 180.723 149.244 180.723 149.244" fill="#A27CEF"/>
<path d="M161.581 144.589L155.685 168.76L159.676 215.979L161.463 216.974L163.699 215.337L162.116 168.268L167.284 144.182" fill="#A27CEF"/>
<path d="M191.113 139.646C191.113 139.646 192.322 144.825 190.727 147.863C189.133 150.902 183.837 144.001 183.837 144.001" fill="#F3B496"/>
<path d="M163.988 112.864L166.406 131.931L161.57 134.884L159.195 114.436" fill="#CA6B00"/>
<path d="M133.472 129.192L131.942 155.3L131.225 193.606L133.515 194.74L135.59 193.221L137.795 155.482L139.175 128.785" fill="#3D467F"/>
<path d="M137.11 132.177C135.73 132.712 132.541 130.701 131.524 129.331C125.993 121.841 126.677 111.141 135.28 105.556C139.089 103.084 143.027 100.612 146.815 98.0657C150.175 95.8187 153.77 93.8499 157.012 91.421C157.433 91.0822 157.889 90.7882 158.371 90.5436C159.28 90.2282 160.262 90.1911 161.192 90.437C162.122 90.6829 162.958 91.2006 163.592 91.9239" fill="#5B5B5B"/>
<path d="M136.714 131.867C134.317 131.953 132.712 128.882 131.877 127.063C129.566 122.066 128.496 112.339 134.135 108.99C134.243 108.933 134.334 108.849 134.4 108.746C134.466 108.642 134.503 108.524 134.51 108.402L145.274 101.126L153.598 95.4976C155.054 94.5132 156.423 93.4111 157.878 92.4267C159.334 91.4423 160.757 90.2867 162.49 91.1962C164.405 92.1699 164.801 94.2243 165.229 96.1503C166.3 100.571 166.388 105.174 165.486 109.632C164.78 112.607 162.619 114.758 160.136 116.427L152.4 121.67L138.062 131.3C137.832 131.472 137.58 131.612 137.313 131.717C137.121 131.795 136.92 131.845 136.714 131.867Z" fill="url(#paint43_linear)"/>
<path d="M136.553 152.7L136.115 152.989C134.88 153.698 133.79 154.634 132.905 155.749C130.84 158.756 133.258 161.848 135.655 163.689C142.075 168.664 151.651 172.431 159.751 169.852C166.802 167.605 173.265 163.774 179.289 159.537C184.233 156.07 190.417 151.865 191.305 145.37C191.448 143.925 191.25 142.466 190.725 141.111C190.201 139.756 189.366 138.543 188.288 137.57C174.282 123.489 157.065 138.865 144.792 147.114L136.553 152.7Z" fill="#5B5B5B"/>
<path d="M132.102 153.609C132.006 153.716 131.728 157.889 132.231 159.109C133.221 161.063 134.614 162.784 136.318 164.16C137.912 165.23 136.404 156.873 136.404 156.873" fill="#5B5B5B"/>
<path d="M136.297 149.094L135.858 149.383C134.623 150.092 133.534 151.028 132.648 152.143C130.583 155.15 133.001 158.242 135.398 160.083C141.818 165.058 151.394 168.825 159.494 166.246C166.546 163.999 173.008 160.168 179.033 155.931C183.976 152.464 190.16 148.259 191.049 141.764C191.192 140.319 190.993 138.86 190.469 137.505C189.945 136.15 189.11 134.937 188.031 133.964C174.025 119.883 156.809 135.259 144.536 143.508L136.297 149.094Z" fill="url(#paint44_linear)"/>
<path d="M153.085 173.105L154.091 246.614L156.755 248.369L160.414 246.079L163.111 173.725C159.765 173.554 156.423 173.347 153.085 173.105Z" fill="#F2F2F2"/>
<path d="M267.008 150.335L269.704 222.72L273.364 225.01L276.028 223.255L276.552 144.589C273.16 144.6 270.239 151.17 267.008 150.335Z" fill="#F2F2F2"/>
<path d="M219.971 221.8C218.304 220.495 216.49 219.389 214.567 218.505C212.566 217.638 206.831 210.929 206.403 210.255C205.975 209.581 205.001 206.392 203.974 206.168C202.947 205.943 200.625 207.173 200.625 207.173C200.625 207.173 197.415 203.846 194.59 204.905C194.59 204.905 191.99 206.285 192.044 213.7C191.956 213.754 191.874 213.815 191.797 213.882C191.637 215.042 191.544 216.21 191.519 217.381C192.518 219.094 194.009 220.466 195.799 221.319C198.068 222.506 202.99 226.669 206.178 227.514C209.367 228.359 215.648 228.028 217.756 227.214C218.426 226.99 219.02 226.583 219.47 226.038C219.92 225.493 220.209 224.833 220.302 224.133C220.482 223.341 220.364 222.511 219.971 221.8Z" fill="#3D467F"/>
<path d="M201.278 206.895C201.278 206.895 197.468 203.749 194.579 204.905C191.69 206.061 192.054 212.716 192.054 212.716C192.054 212.716 192.054 216.514 196.666 218.729C201.278 220.944 200.497 222.913 206.51 224.775C212.523 226.637 218.901 225.149 220.067 223.33C221.233 221.511 217.477 219.928 217.21 219.692C216.942 219.457 211.56 216.151 210.341 214.492C209.121 212.834 206.949 209.987 206.168 208.575C205.386 207.163 205.098 205.9 203.642 206.018C202.786 206.076 201.965 206.38 201.278 206.895Z" fill="white"/>
<path d="M212.438 216.236C211.648 216.073 210.847 215.976 210.041 215.947C210.198 215.469 210.351 214.988 210.501 214.503C210.297 214.292 210.104 214.07 209.923 213.839H209.87C209.284 213.732 208.689 213.678 208.094 213.679L208.607 212.748C208.638 212.662 208.638 212.567 208.607 212.48C208.604 212.412 208.579 212.347 208.537 212.294C208.495 212.24 208.437 212.201 208.372 212.181C208.298 212.161 208.221 212.161 208.147 212.181C207.462 212.052 206.778 211.935 206.103 211.849C206.317 211.5 206.546 211.143 206.788 210.779C207.099 210.351 206.392 209.934 206.071 210.362C205.757 210.794 205.467 211.244 205.205 211.71C203.981 211.589 202.745 211.665 201.545 211.935C201.032 212.063 201.246 212.855 201.77 212.727C202.759 212.503 203.776 212.428 204.787 212.502C204.461 213.175 204.189 213.872 203.974 214.588C203.568 214.834 203.974 215.487 204.434 215.273C205.133 214.96 205.871 214.74 206.628 214.62L206.093 215.69C205.997 215.867 205.911 216.05 205.836 216.236C205.818 216.289 205.793 216.34 205.761 216.386C205.672 216.432 205.603 216.508 205.565 216.601C205.528 216.694 205.525 216.797 205.558 216.892C205.59 216.987 205.656 217.067 205.742 217.117C205.828 217.168 205.93 217.185 206.029 217.167C206.949 216.923 207.892 216.776 208.843 216.728C208.614 217.392 208.375 218.055 208.126 218.719C208.104 218.798 208.107 218.882 208.133 218.96C208.16 219.038 208.208 219.107 208.274 219.157C208.339 219.208 208.418 219.238 208.5 219.243C208.582 219.249 208.664 219.23 208.736 219.189C209.936 218.384 211.195 217.668 212.502 217.049H212.62C212.675 217.063 212.732 217.066 212.788 217.057C212.844 217.047 212.897 217.026 212.945 216.995C212.992 216.964 213.032 216.923 213.063 216.875C213.094 216.827 213.114 216.774 213.123 216.718C212.93 216.621 212.662 216.429 212.438 216.236ZM204.948 214.225C205.143 213.675 205.376 213.138 205.643 212.62C206.275 212.694 206.906 212.791 207.527 212.908L207.056 213.775C206.353 213.849 205.66 213.999 204.991 214.225H204.948ZM206.842 216.193C206.97 215.883 207.066 215.573 207.184 215.348L207.591 214.556C208.235 214.529 208.881 214.572 209.517 214.685C209.381 215.106 209.242 215.526 209.099 215.947C208.357 215.954 207.617 216.018 206.885 216.14L206.842 216.193ZM209.303 217.873L209.688 216.803C210.157 216.81 210.624 216.843 211.09 216.9C210.533 217.21 209.934 217.509 209.346 217.863L209.303 217.873Z" fill="#3D467F"/>
<path d="M206.381 225.107C204.715 223.802 202.901 222.696 200.978 221.811C198.977 220.944 193.242 214.235 192.814 213.561C192.386 212.887 191.412 209.699 190.385 209.474C189.358 209.249 187.036 210.48 187.036 210.48C187.036 210.48 183.826 207.152 181.001 208.211C181.001 208.211 178.401 209.592 178.454 217.007C178.367 217.06 178.285 217.121 178.208 217.189C178.048 218.349 177.955 219.517 177.93 220.688C178.929 222.4 180.42 223.773 182.21 224.625C184.479 225.813 189.401 229.975 192.589 230.82C195.778 231.666 202.059 231.334 204.167 230.521C204.837 230.297 205.431 229.889 205.881 229.345C206.331 228.8 206.619 228.14 206.713 227.439C206.893 226.647 206.775 225.817 206.381 225.107Z" fill="#3D467F"/>
<path d="M187.689 210.202C187.689 210.202 183.88 207.056 180.991 208.211C178.102 209.367 178.465 216.022 178.465 216.022C178.465 216.022 178.465 219.821 183.077 222.036C187.689 224.251 186.908 226.219 192.921 228.081C198.935 229.943 205.312 228.456 206.478 226.637C207.644 224.818 203.889 223.234 203.621 222.999C203.354 222.763 197.972 219.457 196.752 217.799C195.532 216.14 193.36 213.294 192.579 211.881C191.798 210.469 191.509 209.206 190.054 209.324C189.197 209.382 188.376 209.687 187.689 210.202Z" fill="white"/>
<path d="M198.838 219.543C198.049 219.379 197.247 219.283 196.441 219.254C196.598 218.776 196.752 218.294 196.901 217.809C196.697 217.598 196.504 217.377 196.324 217.146H196.27C195.684 217.038 195.09 216.985 194.494 216.985L195.007 216.054C195.038 215.968 195.038 215.873 195.007 215.787C195.004 215.719 194.979 215.654 194.937 215.6C194.895 215.546 194.837 215.507 194.772 215.487C194.698 215.467 194.621 215.467 194.547 215.487C193.863 215.359 193.178 215.241 192.504 215.156C192.718 214.806 192.946 214.449 193.188 214.086C193.499 213.658 192.793 213.24 192.472 213.668C192.157 214.101 191.867 214.551 191.605 215.016C190.381 214.896 189.145 214.972 187.945 215.241C187.432 215.37 187.646 216.161 188.17 216.033C189.159 215.81 190.176 215.734 191.187 215.808C190.861 216.481 190.59 217.179 190.374 217.895C189.968 218.141 190.374 218.794 190.834 218.58C191.534 218.266 192.271 218.047 193.028 217.927L192.493 218.997C192.397 219.174 192.311 219.356 192.236 219.543C192.218 219.596 192.193 219.646 192.161 219.692C192.072 219.738 192.003 219.815 191.965 219.908C191.928 220 191.925 220.104 191.958 220.198C191.99 220.293 192.056 220.373 192.142 220.423C192.229 220.474 192.33 220.492 192.429 220.473C193.349 220.229 194.292 220.082 195.243 220.035C195.015 220.698 194.776 221.362 194.526 222.025C194.504 222.105 194.507 222.189 194.533 222.267C194.56 222.345 194.609 222.413 194.674 222.464C194.739 222.514 194.818 222.544 194.9 222.55C194.982 222.555 195.064 222.537 195.136 222.496C196.336 221.69 197.595 220.975 198.902 220.356H199.02C199.075 220.37 199.132 220.372 199.188 220.363C199.244 220.354 199.297 220.333 199.345 220.301C199.392 220.27 199.433 220.229 199.463 220.182C199.494 220.134 199.514 220.08 199.523 220.024C199.298 219.928 199.02 219.735 198.838 219.543ZM191.348 217.531C191.544 216.981 191.776 216.445 192.043 215.926C192.675 216.001 193.306 216.097 193.927 216.215L193.456 217.082C192.756 217.159 192.067 217.314 191.402 217.542L191.348 217.531ZM193.242 219.5C193.37 219.189 193.467 218.879 193.584 218.654L193.991 217.863C194.636 217.835 195.281 217.879 195.917 217.991C195.781 218.412 195.642 218.833 195.5 219.254C194.76 219.279 194.023 219.361 193.295 219.5H193.242ZM195.703 221.18L196.088 220.11C196.557 220.117 197.025 220.149 197.49 220.206C196.933 220.484 196.345 220.827 195.81 221.18H195.703Z" fill="#3D467F"/>
<path d="M176.068 126.998C176.967 128.871 204.958 155.803 208.907 163.378C212.855 170.954 206.275 206.981 206.275 206.981C206.275 206.981 198.442 210.469 192.365 206.649C192.365 206.649 192.022 176.817 190.225 174.763C188.427 172.709 166.749 155.107 164.545 151.533C162.34 147.96 170.751 127.801 170.751 127.801" fill="url(#paint45_linear)"/>
<path d="M169.638 131.268C170.537 133.14 192.461 160.81 196.388 168.354C200.315 175.897 193.756 211.956 193.756 211.956C193.756 211.956 185.923 215.445 179.846 211.625C179.846 211.625 179.503 181.793 177.706 179.739C175.908 177.684 153.866 160.297 152.026 156.509C146.194 144.846 152.464 129.759 152.464 129.759" fill="url(#paint46_linear)"/>
<path d="M180.948 116.255C181.344 111.761 182.414 107.364 182.799 102.87C183.665 92.7475 177.748 86.4131 168.632 84.8723C163.495 87.7361 158.808 91.3415 154.722 95.5723C150.57 100.238 150.859 119.658 150.859 119.658C151.683 125.008 151.202 129.128 151.458 132.027C158.285 138.993 170.718 135.515 179.107 130.444C180.562 125.853 180.53 121.038 180.948 116.255Z" fill="#3D467F"/>
<path d="M165.326 83.0107L164.78 89.7731C164.78 89.7731 166.867 91.4744 172.901 89.4949L173.757 85.5787" fill="#EFBD95"/>
<path d="M167.166 75.863H166.235C166.119 75.8962 166.017 75.9664 165.944 76.063C165.871 76.1595 165.832 76.2771 165.832 76.398C165.832 76.5189 165.871 76.6366 165.944 76.7331C166.017 76.8296 166.119 76.8998 166.235 76.933H167.166C167.282 76.8998 167.385 76.8296 167.457 76.7331C167.53 76.6366 167.57 76.5189 167.57 76.398C167.57 76.2771 167.53 76.1595 167.457 76.063C167.385 75.9664 167.282 75.8962 167.166 75.863Z" fill="#1C5028"/>
<path d="M175.105 80.6244C173.955 81.6858 172.536 82.4115 171.003 82.7228C169.469 83.0341 167.879 82.9189 166.406 82.3899C165.732 82.1545 165.443 83.2245 166.107 83.4599C167.766 84.0491 169.555 84.1721 171.279 83.8155C173.004 83.459 174.597 82.6365 175.887 81.4376C176.422 80.924 175.63 80.1429 175.105 80.6244Z" fill="#1C5028"/>
<path d="M179.075 73.4555C179.075 73.4555 178.059 87.1622 174.592 87.8149C171.125 88.4676 167.316 86.7449 166.107 84.958C164.898 83.1711 162.351 74.579 163.582 72.9954C164.812 71.4118 177.139 70.9517 179.075 73.4555Z" fill="#FFDAB6"/>
<path d="M181.333 68.6192C180.564 68.3171 179.739 68.1892 178.915 68.2447C178.644 67.0644 177.984 66.0093 177.042 65.2487C176.198 64.6305 175.2 64.2582 174.157 64.1732C173.114 64.0882 172.069 64.2938 171.136 64.7672C170.806 64.9407 170.5 65.1565 170.226 65.4092C169.704 64.9242 169.085 64.5553 168.41 64.3266C167.735 64.098 167.02 64.0147 166.31 64.0824C165.492 64.1515 164.711 64.4546 164.06 64.9555C163.409 65.4564 162.916 66.1339 162.64 66.9072C162.5 67.3348 162.442 67.7849 162.469 68.234C161.643 68.2812 160.852 68.5789 160.2 69.0874C159.548 69.5959 159.067 70.2911 158.82 71.0802C158.626 71.6695 158.57 72.2956 158.657 72.9098C158.745 73.5241 158.972 74.11 159.323 74.6219C158.845 75.1063 158.517 75.7178 158.376 76.3836C158.236 77.0494 158.29 77.7415 158.531 78.3776C158.79 79.0451 159.225 79.6298 159.791 80.0689C160.356 80.5081 161.03 80.7852 161.741 80.8707C161.522 81.5224 161.485 82.2218 161.634 82.893C162.351 84.5194 164.32 85.1935 166.139 85.6108C166.214 84.7548 166.299 83.8881 166.353 83.0321C166.364 82.9511 166.385 82.872 166.417 82.7967C165.804 82.249 165.284 81.6058 164.876 80.8921C164.299 79.9505 163.881 78.613 164.876 77.757C165.111 77.5693 165.384 77.4368 165.676 77.3692C165.969 77.3015 166.273 77.3006 166.566 77.3663C166.859 77.4321 167.133 77.5629 167.368 77.7491C167.604 77.9352 167.794 78.172 167.926 78.4418C168.121 78.0023 168.346 77.5769 168.6 77.1685C169.477 74.975 171.756 74.7396 173.95 74.7289C177.16 76.4516 181.975 77.6928 183.302 73.5412C183.661 72.6242 183.657 71.6049 183.291 70.6906C182.926 69.7763 182.225 69.0356 181.333 68.6192Z" fill="#FF8E0E"/>
<path d="M189.326 192.943L192.322 195.468L191.872 272.144L194.537 273.899L198.196 271.609L201.866 192.953C198.538 192.911 192.6 193.082 189.326 192.943Z" fill="#F2F2F2"/>
<path d="M276.563 137.195V144.6H272.016L276.563 137.195Z" fill="#D3514A"/>
<path d="M150.089 171.628V165.315L154.101 170.355L150.089 171.628Z" fill="#D3514A"/>
<path d="M213.379 126.399L158.542 157.729C158.542 157.729 140.919 169.499 156.584 183.184C172.248 196.869 193.798 196.891 207.505 191.016C221.212 185.142 270.175 155.76 270.175 155.76C270.175 155.76 288.9 141.689 262.342 126.388C254.946 121.953 246.484 119.611 237.859 119.613C229.235 119.614 220.773 121.96 213.379 126.399Z" fill="#3D467F"/>
<path d="M213.379 120.375L158.542 151.705C158.542 151.705 140.919 163.475 156.584 177.16C172.248 190.845 193.798 190.867 207.505 184.992C221.212 179.118 270.175 149.736 270.175 149.736C270.175 149.736 288.9 135.665 262.342 120.364C254.946 115.929 246.484 113.587 237.859 113.589C229.235 113.591 220.773 115.936 213.379 120.375Z" fill="url(#paint47_linear)"/>
<path opacity="0.48" d="M370.092 214.931L365.598 208.65L359.723 206.596L350.746 210.565L336.75 219.35L348.028 227.15C355.315 222.988 362.923 219.35 370.092 214.931Z" fill="url(#paint48_linear)"/>
<path d="M347.301 163.635C348.738 163.551 350.173 163.831 351.474 164.448C352.806 165.204 353.843 166.388 354.416 167.808C355.058 169.156 355.347 171.082 356.674 171.96C357.197 172.236 357.65 172.628 358.001 173.105C358.326 173.565 358.533 174.099 358.604 174.659C358.675 175.219 358.608 175.787 358.407 176.315C357.819 177.502 355.347 178.23 354.213 178.016" fill="#3D467F"/>
<path d="M346.209 163.785C344.534 163.935 342.948 164.604 341.672 165.7C340.397 166.795 339.495 168.262 339.094 169.895C338.694 171.547 338.694 173.271 339.094 174.924C339.415 176.261 340.164 178.572 341.833 178.669C344.037 178.808 344.743 176.743 345.439 175.052C346.134 173.361 346.862 171.5 348.649 170.836C349.515 170.51 350.458 170.444 351.361 170.648C352.265 170.851 353.088 171.315 353.731 171.981L346.209 163.785Z" fill="#A27CEF"/>
<path d="M356.31 172.719C354.983 170.997 353.881 169.124 352.597 167.369C351.874 166.222 351.007 165.172 350.018 164.245C346.958 162.758 343.106 164.127 340.848 166.727C341.159 166.824 341.587 166.845 341.833 166.931C343.188 167.453 344.391 168.307 345.332 169.413C346.691 170.911 347.739 172.741 348.938 174.335C350.885 176.914 353.464 179.043 356.802 177.545C358.878 176.55 357.209 173.939 356.31 172.719Z" fill="#3D467F"/>
<path d="M367.074 150.592C367.074 150.592 373.965 150.046 373.837 160.949C373.708 171.853 363.404 164.684 365.673 158.114" fill="#A27CEF"/>
<path d="M366.079 161.313C366.004 157.996 369.728 155.578 372.874 155.15C372.527 153.758 371.724 152.523 370.594 151.64C369.463 150.758 368.07 150.28 366.635 150.281C361.917 150.399 358.375 155.204 357.583 160.853C357.388 162.557 357.6 164.283 358.203 165.888C358.806 167.494 359.782 168.933 361.05 170.087L363.329 172.035C367.534 170.387 365.94 164.341 366.079 161.313Z" fill="#3D467F"/>
<path d="M384.847 169.124C384.748 167.057 384.204 165.035 383.253 163.196C382.816 162.316 382.186 161.546 381.409 160.944C380.633 160.342 379.73 159.923 378.769 159.719L374.885 167.209C374.885 167.209 380.674 157.097 378.309 164.887C375.945 172.677 383.734 181.408 384.804 169.798C384.826 169.552 384.836 169.338 384.847 169.124Z" fill="#A27CEF"/>
<path d="M357.38 188.577C357.38 188.577 352.191 191.947 353.635 199.844C354.143 202.579 354.914 205.26 355.936 207.847C356.941 210.415 357.68 213.732 360.216 215.177C361.527 215.888 362.991 216.269 364.482 216.288C365.974 216.307 367.447 215.962 368.776 215.284C371.001 213.925 371.793 210.843 372.606 208.543C373.579 205.719 374.246 202.799 374.596 199.833C377.164 180.766 357.38 188.577 357.38 188.577Z" fill="url(#paint49_linear)"/>
<path d="M364.41 192.472C368.588 192.472 371.975 191.245 371.975 189.732C371.975 188.22 368.588 186.993 364.41 186.993C360.232 186.993 356.845 188.22 356.845 189.732C356.845 191.245 360.232 192.472 364.41 192.472Z" fill="#34323D"/>
<path d="M365.02 175.159C363.95 172.612 361.992 170.462 361.361 167.733C360.972 165.882 361.131 163.958 361.819 162.197C362.507 160.435 363.694 158.912 365.234 157.814C365.812 157.397 365.234 156.423 364.667 156.851C359.83 160.361 358.899 166.364 361.714 171.478C362.727 173.002 363.58 174.626 364.26 176.325C364.956 178.604 364.175 180.241 363.115 181.953C363.176 180.263 362.573 178.616 361.435 177.363C360.184 176.197 358.322 176.004 356.77 175.48C353.753 174.41 351.11 172.741 350.596 169.381C350.489 168.675 349.409 168.974 349.526 169.681C349.756 170.979 350.301 172.201 351.112 173.24C351.923 174.279 352.977 175.103 354.181 175.64C355.638 176.271 357.141 176.793 358.675 177.203C359.34 177.457 359.946 177.844 360.455 178.341C360.965 178.838 361.368 179.434 361.639 180.092C362.356 181.739 361.863 182.863 361.468 184.468C360.943 186.544 360.119 188.32 361.542 190.289C361.96 190.867 362.933 190.289 362.505 189.722C360.237 186.597 363.864 183.623 365.084 180.926C365.489 180.017 365.693 179.031 365.682 178.036C365.671 177.04 365.445 176.059 365.02 175.159Z" fill="#A27CEF"/>
<path d="M378.983 168.3C374.2 167.455 370.948 171.157 371.226 175.79C371.326 176.95 371.541 178.097 371.868 179.214C372.246 180.163 372.46 181.169 372.499 182.189C372.339 182.906 372.008 183.572 371.532 184.132C371.057 184.691 370.452 185.126 369.771 185.399C368.793 185.761 367.916 186.352 367.214 187.123C366.512 187.894 366.006 188.822 365.737 189.829C365.706 189.968 365.729 190.113 365.802 190.235C365.876 190.357 365.993 190.447 366.13 190.485C366.267 190.524 366.413 190.508 366.539 190.442C366.665 190.375 366.761 190.263 366.807 190.128C367.877 186.073 373.569 186.662 373.612 182.2C373.612 180.06 372.478 177.973 372.339 175.78C372.103 171.97 374.596 168.653 378.684 169.36C379.39 169.499 379.689 168.418 378.983 168.3Z" fill="#A27CEF"/>
<path d="M383.253 163.197C381.402 159.783 378.031 158.981 374.693 159.987C374.236 160.17 373.793 160.385 373.366 160.628C365.063 166.781 370.958 180.67 372.232 180.563C376.512 180.21 376.03 177.727 377.443 170.761C377.686 169.191 378.489 167.762 379.705 166.739C380.921 165.716 382.466 165.168 384.055 165.197C383.847 164.508 383.578 163.839 383.253 163.197Z" fill="#3D467F"/>
<path d="M381.434 160.928C380.05 160.711 378.633 160.92 377.371 161.525C376.108 162.131 375.059 163.105 374.361 164.32C371.322 169.402 372.029 175.309 372.435 180.915C372.435 181.632 373.601 181.632 373.505 180.915C373.216 176.871 372.638 172.858 373.741 168.878C374.276 166.931 374.928 164.758 376.49 163.367C377.33 162.623 378.369 162.141 379.48 161.981C380.591 161.821 381.724 161.991 382.739 162.469L382.311 161.891C381.99 161.57 381.733 161.26 381.434 160.928Z" fill="#A27CEF"/>
<path opacity="0.48" d="M208.415 156.038C207.54 154.83 206.543 153.714 205.44 152.71C204.683 152.147 203.893 151.629 203.075 151.159C201.895 150.771 200.814 150.128 199.909 149.276C199.005 148.423 198.3 147.382 197.843 146.226L184.864 142.481L157.29 158.125L196.238 182.863C204.723 177.984 219.275 169.905 227.814 165.133C226.84 163.261 209.656 157.729 208.415 156.038Z" fill="url(#paint50_linear)"/>
<path d="M207.965 176.25L167.219 152.507L221.287 121.434L261.957 143.423" fill="url(#paint51_linear)"/>
<path opacity="0.38" d="M207.965 176.25L167.219 152.507L221.287 121.434L261.957 143.423" fill="black"/>
<path d="M186.736 140.063L191.016 140.94C191.016 140.94 196.024 142.01 195.928 142.61C195.831 143.209 191.016 143.241 191.016 143.241C191.016 143.241 197.939 145.573 198.185 146.451C198.431 147.328 196.912 147.296 196.912 147.296C196.912 147.296 197.982 148.516 197.233 149.436C196.484 150.356 195.382 149.436 195.382 149.436C195.382 149.436 197.094 150.667 195.596 151.191C194.098 151.715 191.006 149.147 191.006 149.147C190.922 149.813 190.617 150.431 190.139 150.902C189.433 151.448 181.354 145.22 180.124 143.412" fill="#F3B496"/>
<path d="M163.111 117.7C163.111 117.7 186.159 137.356 186.651 138.961C187.143 140.566 181.461 143.787 177.866 144.632C176.058 145.06 173.469 143.562 171.938 142.781C168.641 141.177 165.469 139.327 162.448 137.249C159.241 135.147 156.252 132.731 153.524 130.037C152.017 128.657 150.836 126.959 150.068 125.065C149.3 123.172 148.963 121.131 149.083 119.091C149.286 112.04 149.757 102.346 154.048 96.3963C154.048 96.3963 157.311 91.881 161.217 95.3264C161.27 95.3371 167.337 100.708 163.111 117.7Z" fill="#5B5B5B"/>
<path d="M205.815 125.254C206.157 125.254 215.177 128.539 215.177 128.539L222.849 133.729C222.716 133.918 222.542 134.076 222.34 134.191C222.139 134.306 221.914 134.374 221.683 134.392C221.683 134.392 222.475 135.087 221.758 135.59C221.562 135.733 221.326 135.81 221.084 135.81C220.841 135.81 220.605 135.733 220.409 135.59C220.2 135.854 219.936 136.069 219.634 136.218C219.333 136.368 219.002 136.45 218.665 136.457C217.66 136.382 212.245 132.37 211.796 132.905C211.347 133.44 214.417 134.97 213.69 135.933C212.962 136.896 210.202 135.216 209.281 134.403C208.361 133.589 203.685 129.267 203.685 129.267" fill="#F3B496"/>
<path d="M182.028 95.3369C182.028 95.3369 187.432 111.719 189.326 113.58C191.22 115.442 208.329 124.462 208.329 124.462C208.329 124.462 208.5 130.882 202.444 132.905C202.444 132.905 185.602 129.32 180.113 121.391" fill="#5B5B5B"/>
<path d="M218.515 129.47C218.515 129.47 207.815 176.892 207.965 176.304C208.115 175.715 260.738 147.414 261.091 146.429C261.444 145.445 274.99 97.2629 274.99 97.2629L218.515 129.47Z" fill="url(#paint52_linear)"/>
<path d="M175.555 84.7226C175.517 84.5463 175.44 84.3808 175.33 84.2384C175.219 84.096 175.078 83.9804 174.916 83.9002C174.755 83.82 174.577 83.7772 174.397 83.7751C174.217 83.773 174.038 83.8116 173.875 83.8881C173.732 83.95 173.604 84.0424 173.501 84.1589C173.397 84.2753 173.321 84.4129 173.276 84.5621C171.286 84.4872 168.932 83.9951 167.648 82.5185C168.437 82.0862 169.093 81.4477 169.547 80.6713C170.002 79.8948 170.236 79.0095 170.226 78.1101C170.152 77.23 169.822 76.3908 169.278 75.6949C168.734 74.999 168 74.4766 167.164 74.1914C166.328 73.9062 165.427 73.8706 164.571 74.0889C163.715 74.3072 162.942 74.77 162.345 75.4208C161.747 76.0715 161.353 76.8821 161.209 77.7535C161.065 78.6249 161.177 79.5193 161.533 80.3277C161.889 81.136 162.473 81.8232 163.213 82.3053C163.953 82.7875 164.817 83.0437 165.7 83.0428C166.01 83.0448 166.318 83.0125 166.62 82.9464C168.108 84.9045 170.954 85.6 173.426 85.6749C173.472 85.7515 173.526 85.8232 173.586 85.8889C173.662 85.9709 173.764 86.0239 173.875 86.0388C173.991 86.1045 174.118 86.148 174.25 86.1671C174.439 86.1909 174.632 86.1686 174.811 86.1021C174.99 86.0356 175.15 85.9268 175.279 85.785C175.407 85.6432 175.499 85.4726 175.547 85.2877C175.595 85.1027 175.598 84.9089 175.555 84.7226Z" fill="#535259"/>
<path d="M166.706 74.6539C166.706 74.6539 167.209 66.6396 170.226 65.4091C170.226 65.4091 168.835 62.809 164.812 64.521C164.812 64.521 162.287 68.4051 163.581 74.6539" fill="#535259"/>
<path d="M134.456 23.9787C138.383 21.8922 141.625 23.9787 141.69 28.5262L142.31 64.414C142.385 69.0043 139.271 74.3971 135.334 76.4836L83.0428 104.143C79.1159 106.219 75.8738 104.143 75.8096 99.5956L75.2425 63.7078C75.1676 59.1175 78.292 53.714 82.2189 51.6382L134.456 23.9787Z" fill="url(#paint53_linear)"/>
<path d="M134.98 71.6257L148.067 83.1603L124.826 79.854" fill="url(#paint54_linear)"/>
<path d="M84.5301 65.3233L134.488 38.8729C136.318 37.9099 134.692 35.1386 132.873 36.1016L82.9572 62.552C81.1275 63.515 82.7539 66.2863 84.5729 65.3233H84.5301Z" fill="white"/>
<path d="M84.5301 75.0711L134.488 48.6207C136.318 47.6577 134.692 44.8864 132.873 45.8494L82.9572 72.2998C81.1275 73.2628 82.7539 76.0341 84.5729 75.0711H84.5301Z" fill="white"/>
<path d="M84.1982 83.1924L99.97 74.8464L84.1982 83.1924Z" fill="white"/>
<path d="M85.0114 84.53L100.783 76.184C102.613 75.221 100.987 72.4497 99.1675 73.4127L83.3957 81.7587C81.566 82.7217 83.1924 85.493 85.0114 84.53Z" fill="white"/>
<path d="M165.272 80.4745C166.413 80.4745 167.337 79.4446 167.337 78.174C167.337 76.9035 166.413 75.8735 165.272 75.8735C164.132 75.8735 163.207 76.9035 163.207 78.174C163.207 79.4446 164.132 80.4745 165.272 80.4745Z" fill="#AAAAAA"/>
<path d="M247.795 138.856C250.255 133.942 250.073 128.868 247.389 127.525C244.704 126.181 240.534 129.076 238.074 133.99C235.614 138.905 235.796 143.978 238.481 145.322C241.165 146.665 245.335 143.771 247.795 138.856Z" fill="white"/>
<defs>
<linearGradient id="paint0_linear" x1="183.189" y1="-49.6316" x2="376.397" y2="372.641" gradientUnits="userSpaceOnUse">
<stop stop-color="#D5C1FC"/>
<stop offset="1" stop-color="#FB9CCB"/>
</linearGradient>
<linearGradient id="paint1_linear" x1="326.672" y1="130.52" x2="319.061" y2="133.933" gradientUnits="userSpaceOnUse">
<stop stop-color="#D1CFFF"/>
<stop offset="1" stop-color="#FFCDFA"/>
<stop offset="1" stop-color="#FFCDFA"/>
</linearGradient>
<linearGradient id="paint2_linear" x1="317.428" y1="55.0824" x2="278.525" y2="67.9207" gradientUnits="userSpaceOnUse">
<stop stop-color="#D1CFFF"/>
<stop offset="1" stop-color="#FFCDFA"/>
<stop offset="1" stop-color="#FFCDFA"/>
</linearGradient>
<linearGradient id="paint3_linear" x1="289.784" y1="87.025" x2="282.976" y2="90.459" gradientUnits="userSpaceOnUse">
<stop stop-color="#D1CFFF"/>
<stop offset="1" stop-color="#FFCDFA"/>
<stop offset="1" stop-color="#FFCDFA"/>
</linearGradient>
<linearGradient id="paint4_linear" x1="297.846" y1="124.91" x2="293.683" y2="126.852" gradientUnits="userSpaceOnUse">
<stop stop-color="#D1CFFF"/>
<stop offset="1" stop-color="#FFCDFA"/>
<stop offset="1" stop-color="#FFCDFA"/>
</linearGradient>
<linearGradient id="paint5_linear" x1="316.753" y1="134.468" x2="309.425" y2="137.483" gradientUnits="userSpaceOnUse">
<stop stop-color="#D1CFFF"/>
<stop offset="1" stop-color="#FFCDFA"/>
<stop offset="1" stop-color="#FFCDFA"/>
</linearGradient>
<linearGradient id="paint6_linear" x1="300.484" y1="70.3112" x2="292.035" y2="73.3924" gradientUnits="userSpaceOnUse">
<stop stop-color="#D1CFFF"/>
<stop offset="1" stop-color="#FFCDFA"/>
<stop offset="1" stop-color="#FFCDFA"/>
</linearGradient>
<linearGradient id="paint7_linear" x1="304.891" y1="104.576" x2="299.72" y2="108.464" gradientUnits="userSpaceOnUse">
<stop stop-color="#D1CFFF"/>
<stop offset="1" stop-color="#FFCDFA"/>
<stop offset="1" stop-color="#FFCDFA"/>
</linearGradient>
<linearGradient id="paint8_linear" x1="313.175" y1="71.9832" x2="304.299" y2="79.4614" gradientUnits="userSpaceOnUse">
<stop stop-color="#D1CFFF"/>
<stop offset="1" stop-color="#FFCDFA"/>
<stop offset="1" stop-color="#FFCDFA"/>
</linearGradient>
<linearGradient id="paint9_linear" x1="330.295" y1="86.1256" x2="319.513" y2="90.6838" gradientUnits="userSpaceOnUse">
<stop stop-color="#D1CFFF"/>
<stop offset="1" stop-color="#FFCDFA"/>
<stop offset="1" stop-color="#FFCDFA"/>
</linearGradient>
<linearGradient id="paint10_linear" x1="330.434" y1="136.43" x2="321.901" y2="142.641" gradientUnits="userSpaceOnUse">
<stop stop-color="#D1CFFF"/>
<stop offset="1" stop-color="#FFCDFA"/>
<stop offset="1" stop-color="#FFCDFA"/>
</linearGradient>
<linearGradient id="paint11_linear" x1="317.428" y1="55.0824" x2="278.525" y2="67.9207" gradientUnits="userSpaceOnUse">
<stop stop-color="#D1CFFF"/>
<stop offset="1" stop-color="#FFCDFA"/>
<stop offset="1" stop-color="#FFCDFA"/>
</linearGradient>
<linearGradient id="paint12_linear" x1="297.846" y1="124.91" x2="293.683" y2="126.852" gradientUnits="userSpaceOnUse">
<stop stop-color="#D1CFFF"/>
<stop offset="1" stop-color="#FFCDFA"/>
<stop offset="1" stop-color="#FFCDFA"/>
</linearGradient>
<linearGradient id="paint13_linear" x1="316.753" y1="134.468" x2="309.425" y2="137.483" gradientUnits="userSpaceOnUse">
<stop stop-color="#D1CFFF"/>
<stop offset="1" stop-color="#FFCDFA"/>
<stop offset="1" stop-color="#FFCDFA"/>
</linearGradient>
<linearGradient id="paint14_linear" x1="300.484" y1="70.3112" x2="292.035" y2="73.3924" gradientUnits="userSpaceOnUse">
<stop stop-color="#D1CFFF"/>
<stop offset="1" stop-color="#FFCDFA"/>
<stop offset="1" stop-color="#FFCDFA"/>
</linearGradient>
<linearGradient id="paint15_linear" x1="304.891" y1="104.576" x2="299.72" y2="108.464" gradientUnits="userSpaceOnUse">
<stop stop-color="#D1CFFF"/>
<stop offset="1" stop-color="#FFCDFA"/>
<stop offset="1" stop-color="#FFCDFA"/>
</linearGradient>
<linearGradient id="paint16_linear" x1="330.295" y1="86.1256" x2="319.513" y2="90.6838" gradientUnits="userSpaceOnUse">
<stop stop-color="#D1CFFF"/>
<stop offset="1" stop-color="#FFCDFA"/>
<stop offset="1" stop-color="#FFCDFA"/>
</linearGradient>
<linearGradient id="paint17_linear" x1="330.434" y1="136.43" x2="321.901" y2="142.641" gradientUnits="userSpaceOnUse">
<stop stop-color="#D1CFFF"/>
<stop offset="1" stop-color="#FFCDFA"/>
<stop offset="1" stop-color="#FFCDFA"/>
</linearGradient>
<linearGradient id="paint18_linear" x1="309.103" y1="59.9276" x2="270.246" y2="72.7398" gradientUnits="userSpaceOnUse">
<stop stop-color="#D1CFFF"/>
<stop offset="1" stop-color="#FFCDFA"/>
<stop offset="1" stop-color="#FFCDFA"/>
</linearGradient>
<linearGradient id="paint19_linear" x1="313.175" y1="71.9832" x2="304.299" y2="79.4614" gradientUnits="userSpaceOnUse">
<stop stop-color="#D1CFFF"/>
<stop offset="1" stop-color="#FFCDFA"/>
<stop offset="1" stop-color="#FFCDFA"/>
</linearGradient>
<linearGradient id="paint20_linear" x1="337.361" y1="112.749" x2="330.338" y2="114.459" gradientUnits="userSpaceOnUse">
<stop stop-color="#D1CFFF"/>
<stop offset="1" stop-color="#FFCDFA"/>
<stop offset="1" stop-color="#FFCDFA"/>
</linearGradient>
<linearGradient id="paint21_linear" x1="269.828" y1="67.8441" x2="264.159" y2="70.3968" gradientUnits="userSpaceOnUse">
<stop stop-color="#D1CFFF"/>
<stop offset="1" stop-color="#FFCDFA"/>
<stop offset="1" stop-color="#FFCDFA"/>
</linearGradient>
<linearGradient id="paint22_linear" x1="262.979" y1="11.8364" x2="234.129" y2="21.3378" gradientUnits="userSpaceOnUse">
<stop stop-color="#D1CFFF"/>
<stop offset="1" stop-color="#FFCDFA"/>
<stop offset="1" stop-color="#FFCDFA"/>
</linearGradient>
<linearGradient id="paint23_linear" x1="242.457" y1="35.5596" x2="237.4" y2="38.1064" gradientUnits="userSpaceOnUse">
<stop stop-color="#D1CFFF"/>
<stop offset="1" stop-color="#FFCDFA"/>
<stop offset="1" stop-color="#FFCDFA"/>
</linearGradient>
<linearGradient id="paint24_linear" x1="248.444" y1="63.6993" x2="245.353" y2="65.1455" gradientUnits="userSpaceOnUse">
<stop stop-color="#D1CFFF"/>
<stop offset="1" stop-color="#FFCDFA"/>
<stop offset="1" stop-color="#FFCDFA"/>
</linearGradient>
<linearGradient id="paint25_linear" x1="262.483" y1="70.796" x2="257.039" y2="73.0408" gradientUnits="userSpaceOnUse">
<stop stop-color="#D1CFFF"/>
<stop offset="1" stop-color="#FFCDFA"/>
<stop offset="1" stop-color="#FFCDFA"/>
</linearGradient>
<linearGradient id="paint26_linear" x1="250.402" y1="23.1593" x2="244.125" y2="25.452" gradientUnits="userSpaceOnUse">
<stop stop-color="#D1CFFF"/>
<stop offset="1" stop-color="#FFCDFA"/>
<stop offset="1" stop-color="#FFCDFA"/>
</linearGradient>
<linearGradient id="paint27_linear" x1="253.676" y1="48.5915" x2="249.843" y2="51.4693" gradientUnits="userSpaceOnUse">
<stop stop-color="#D1CFFF"/>
<stop offset="1" stop-color="#FFCDFA"/>
<stop offset="1" stop-color="#FFCDFA"/>
</linearGradient>
<linearGradient id="paint28_linear" x1="259.83" y1="24.4029" x2="253.239" y2="29.9536" gradientUnits="userSpaceOnUse">
<stop stop-color="#D1CFFF"/>
<stop offset="1" stop-color="#FFCDFA"/>
<stop offset="1" stop-color="#FFCDFA"/>
</linearGradient>
<linearGradient id="paint29_linear" x1="272.536" y1="34.9015" x2="264.53" y2="38.2883" gradientUnits="userSpaceOnUse">
<stop stop-color="#D1CFFF"/>
<stop offset="1" stop-color="#FFCDFA"/>
<stop offset="1" stop-color="#FFCDFA"/>
</linearGradient>
<linearGradient id="paint30_linear" x1="272.632" y1="72.2545" x2="266.305" y2="76.8652" gradientUnits="userSpaceOnUse">
<stop stop-color="#D1CFFF"/>
<stop offset="1" stop-color="#FFCDFA"/>
<stop offset="1" stop-color="#FFCDFA"/>
</linearGradient>
<linearGradient id="paint31_linear" x1="262.979" y1="11.8364" x2="234.129" y2="21.3378" gradientUnits="userSpaceOnUse">
<stop stop-color="#D1CFFF"/>
<stop offset="1" stop-color="#FFCDFA"/>
<stop offset="1" stop-color="#FFCDFA"/>
</linearGradient>
<linearGradient id="paint32_linear" x1="248.444" y1="63.6993" x2="245.353" y2="65.1455" gradientUnits="userSpaceOnUse">
<stop stop-color="#D1CFFF"/>
<stop offset="1" stop-color="#FFCDFA"/>
<stop offset="1" stop-color="#FFCDFA"/>
</linearGradient>
<linearGradient id="paint33_linear" x1="262.483" y1="70.796" x2="257.039" y2="73.0408" gradientUnits="userSpaceOnUse">
<stop stop-color="#D1CFFF"/>
<stop offset="1" stop-color="#FFCDFA"/>
<stop offset="1" stop-color="#FFCDFA"/>
</linearGradient>
<linearGradient id="paint34_linear" x1="250.402" y1="23.1593" x2="244.125" y2="25.452" gradientUnits="userSpaceOnUse">
<stop stop-color="#D1CFFF"/>
<stop offset="1" stop-color="#FFCDFA"/>
<stop offset="1" stop-color="#FFCDFA"/>
</linearGradient>
<linearGradient id="paint35_linear" x1="253.676" y1="48.5915" x2="249.843" y2="51.4693" gradientUnits="userSpaceOnUse">
<stop stop-color="#D1CFFF"/>
<stop offset="1" stop-color="#FFCDFA"/>
<stop offset="1" stop-color="#FFCDFA"/>
</linearGradient>
<linearGradient id="paint36_linear" x1="272.536" y1="34.9015" x2="264.53" y2="38.2883" gradientUnits="userSpaceOnUse">
<stop stop-color="#D1CFFF"/>
<stop offset="1" stop-color="#FFCDFA"/>
<stop offset="1" stop-color="#FFCDFA"/>
</linearGradient>
<linearGradient id="paint37_linear" x1="272.632" y1="72.2545" x2="266.305" y2="76.8652" gradientUnits="userSpaceOnUse">
<stop stop-color="#D1CFFF"/>
<stop offset="1" stop-color="#FFCDFA"/>
<stop offset="1" stop-color="#FFCDFA"/>
</linearGradient>
<linearGradient id="paint38_linear" x1="256.816" y1="15.3801" x2="227.976" y2="24.8665" gradientUnits="userSpaceOnUse">
<stop stop-color="#D1CFFF"/>
<stop offset="1" stop-color="#FFCDFA"/>
<stop offset="1" stop-color="#FFCDFA"/>
</linearGradient>
<linearGradient id="paint39_linear" x1="259.83" y1="24.4029" x2="253.239" y2="29.9536" gradientUnits="userSpaceOnUse">
<stop stop-color="#D1CFFF"/>
<stop offset="1" stop-color="#FFCDFA"/>
<stop offset="1" stop-color="#FFCDFA"/>
</linearGradient>
<linearGradient id="paint40_linear" x1="277.778" y1="54.6759" x2="272.569" y2="55.9436" gradientUnits="userSpaceOnUse">
<stop stop-color="#D1CFFF"/>
<stop offset="1" stop-color="#FFCDFA"/>
<stop offset="1" stop-color="#FFCDFA"/>
</linearGradient>
<linearGradient id="paint41_linear" x1="167.423" y1="282.94" x2="219.436" y2="222.581" gradientUnits="userSpaceOnUse">
<stop offset="0.01" stop-color="#2E3192" stop-opacity="0"/>
<stop offset="1" stop-color="#0071BC"/>
</linearGradient>
<linearGradient id="paint42_linear" x1="13334.9" y1="17974.7" x2="16665.4" y2="12225.8" gradientUnits="userSpaceOnUse">
<stop offset="0.01" stop-color="#2E3192" stop-opacity="0"/>
<stop offset="1" stop-color="#0071BC"/>
</linearGradient>
<linearGradient id="paint43_linear" x1="145.081" y1="68.312" x2="189.617" y2="118.747" gradientUnits="userSpaceOnUse">
<stop stop-color="#D5C1FC"/>
<stop offset="1" stop-color="#FB9CCB"/>
</linearGradient>
<linearGradient id="paint44_linear" x1="156.599" y1="106.895" x2="190.987" y2="174.373" gradientUnits="userSpaceOnUse">
<stop stop-color="#D5C1FC"/>
<stop offset="1" stop-color="#FB9CCB"/>
</linearGradient>
<linearGradient id="paint45_linear" x1="187.179" y1="104.701" x2="148.846" y2="115.009" gradientUnits="userSpaceOnUse">
<stop stop-color="#D1CFFF"/>
<stop offset="1" stop-color="#FFCDFA"/>
<stop offset="1" stop-color="#FFCDFA"/>
</linearGradient>
<linearGradient id="paint46_linear" x1="173.599" y1="106.855" x2="133.609" y2="117.804" gradientUnits="userSpaceOnUse">
<stop stop-color="#D1CFFF"/>
<stop offset="1" stop-color="#FFCDFA"/>
<stop offset="1" stop-color="#FFCDFA"/>
</linearGradient>
<linearGradient id="paint47_linear" x1="193.183" y1="116.897" x2="272.105" y2="180.078" gradientUnits="userSpaceOnUse">
<stop stop-color="#E1EEFE"/>
<stop offset="1" stop-color="#FFEBFD"/>
</linearGradient>
<linearGradient id="paint48_linear" x1="11004.6" y1="4556.16" x2="11370.4" y2="4059.17" gradientUnits="userSpaceOnUse">
<stop offset="0.01" stop-color="#2E3192" stop-opacity="0"/>
<stop offset="1" stop-color="#0071BC"/>
</linearGradient>
<linearGradient id="paint49_linear" x1="364.107" y1="178.972" x2="347.017" y2="184.929" gradientUnits="userSpaceOnUse">
<stop stop-color="#D1CFFF"/>
<stop offset="1" stop-color="#FFCDFA"/>
<stop offset="1" stop-color="#FFCDFA"/>
</linearGradient>
<linearGradient id="paint50_linear" x1="173.18" y1="177.855" x2="216.033" y2="141.968" gradientUnits="userSpaceOnUse">
<stop offset="0.01" stop-color="#2E3192" stop-opacity="0"/>
<stop offset="1" stop-color="#9E005D"/>
</linearGradient>
<linearGradient id="paint51_linear" x1="214.602" y1="106.426" x2="164.121" y2="147.971" gradientUnits="userSpaceOnUse">
<stop stop-color="#D1CFFF"/>
<stop offset="1" stop-color="#FFCDFA"/>
<stop offset="1" stop-color="#FFCDFA"/>
</linearGradient>
<linearGradient id="paint52_linear" x1="241.486" y1="75.6205" x2="189.979" y2="96.4178" gradientUnits="userSpaceOnUse">
<stop stop-color="#D1CFFF"/>
<stop offset="1" stop-color="#FFCDFA"/>
<stop offset="1" stop-color="#FFCDFA"/>
</linearGradient>
<linearGradient id="paint53_linear" x1="108.786" y1="0.775588" x2="56.7739" y2="21.0872" gradientUnits="userSpaceOnUse">
<stop stop-color="#D1CFFF"/>
<stop offset="1" stop-color="#FFCDFA"/>
<stop offset="1" stop-color="#FFCDFA"/>
</linearGradient>
<linearGradient id="paint54_linear" x1="136.45" y1="68.4676" x2="125.634" y2="78.8443" gradientUnits="userSpaceOnUse">
<stop stop-color="#D1CFFF"/>
<stop offset="1" stop-color="#FFCDFA"/>
<stop offset="1" stop-color="#FFCDFA"/>
</linearGradient>
</defs>
</svg>
