<svg width="779" height="683" viewBox="0 0 779 683" fill="none" xmlns="http://www.w3.org/2000/svg">
<path d="M4.12307 429.84C8.35747 454.203 34.2387 567.49 128.781 591.593C200.251 609.833 383.123 604.617 515.417 578.829C774.922 591.593 787.784 472.24 774.922 426.363C765.959 394.378 754.898 362.301 754.601 328.911C754.304 293.986 767.403 259.633 768.828 224.449C772.449 135.414 705.51 48.0079 614.233 22.4611C575.154 11.5468 543.198 0.392104 502.417 0.077625C419.648 -0.58833 223.224 0.0776367 126.466 131.659C109.172 155.171 84.0622 172.763 64.77 194.888C39.047 224.486 21.9115 260.244 11.563 297.223C-0.715275 340.47 -3.24877 385.63 4.12307 429.84Z" fill="#FDECF4"/>
<path d="M532.462 444.244H397.042L421.002 376.641H512.253L532.462 444.244Z" fill="#D5C1FC"/>
<path d="M532.462 444.244H397.042L421.002 376.641H512.253L532.462 444.244Z" fill="url(#paint0_linear)"/>
<path d="M645.913 131.208H295.002C281.574 131.208 270.688 142.099 270.688 155.533V377.672C270.688 391.106 281.574 401.996 295.002 401.996H645.913C659.342 401.996 670.228 391.106 670.228 377.672V155.533C670.228 142.099 659.342 131.208 645.913 131.208Z" fill="#D5C1FC"/>
<path d="M670.228 155.515V350.36H270.776V155.515C270.776 149.068 273.336 142.886 277.893 138.327C282.449 133.769 288.629 131.208 295.073 131.208H645.931C652.375 131.208 658.555 133.769 663.111 138.327C667.668 142.886 670.228 149.068 670.228 155.515Z" fill="#473F47"/>
<path d="M664.22 160.156V343.852H276.748V160.156C276.786 153.934 279.291 147.982 283.714 143.607C288.137 139.232 294.115 136.794 300.334 136.827H640.634C646.853 136.794 652.831 139.232 657.254 143.607C661.677 147.982 664.182 153.934 664.22 160.156Z" fill="white"/>
<path opacity="0.18" d="M664.22 160.156V343.852H276.748V160.156C276.786 153.934 279.291 147.982 283.714 143.607C288.137 139.232 294.115 136.794 300.334 136.827H640.634C646.853 136.794 652.831 139.232 657.254 143.607C661.677 147.982 664.182 153.934 664.22 160.156Z" fill="#D5C1FC"/>
<path d="M456.265 88H300.121V198.349H456.265V88Z" fill="#3D467F"/>
<path d="M602.651 150.892C602.42 147.567 602.651 144.153 602.296 140.845C601.747 136.076 600.197 131.476 597.746 127.349C595.296 123.221 592 119.658 588.077 116.894C580.131 111.389 570.442 108.991 560.847 110.155C545.295 111.933 532.231 122.602 524.748 136.062C516.234 151.372 524.197 163.907 531.076 177.795C536.23 188.179 533.191 201.141 526.508 210.618C521.264 218.033 513.515 225.146 514.173 234.214C514.581 239.726 518.101 244.438 521.495 248.794C523.77 251.711 526.312 254.804 529.902 255.64C531.712 255.969 533.567 255.969 535.377 255.64C539.433 255.068 543.451 254.255 547.41 253.204C551.249 252.173 555.195 250.893 559.141 251.426C565.824 252.28 570.765 257.916 574.622 263.41C578.479 268.905 582.282 275.022 588.414 277.76C593.071 279.858 598.403 279.662 603.487 279.236C618.328 278.009 634.058 274.559 644.26 263.713C646.514 261.221 648.587 258.57 650.463 255.782C651.611 254.319 652.539 252.695 653.218 250.964C654.995 245.789 652.152 240.295 648.952 235.761C645.753 231.227 641.843 226.87 641.381 221.429C640.954 217.162 642.66 213.019 643.158 208.787C644.242 200.714 641.096 192.517 636.048 186.098C630.821 179.855 624.556 174.561 617.528 170.451C612.196 167.108 606.508 163.641 604.02 158.004C603.146 155.733 602.683 153.325 602.651 150.892Z" fill="#3D467F"/>
<path d="M593.924 166.948C595.097 170.504 595.701 174.327 597.745 177.528C600.234 181.582 604.464 184.178 608.659 186.418C610.922 187.427 612.973 188.857 614.702 190.632C615.907 192.174 616.751 193.967 617.172 195.878C617.781 198.391 617.932 200.993 617.617 203.559C617.111 205.696 616.973 207.902 617.208 210.085C617.83 212.806 620.052 214.797 621.989 216.806C625.848 220.445 628.455 225.213 629.436 230.427C630.147 235.654 628.032 241.469 623.411 244.029C621.735 244.891 619.937 245.49 618.079 245.807C615.094 246.396 612.071 246.765 609.032 246.91C606.867 247.072 604.689 246.892 602.58 246.376C600.007 245.457 597.605 244.117 595.47 242.411L567.174 222.283C563.885 220.259 561.038 217.592 558.803 214.441C557.254 211.588 556.224 208.481 555.763 205.266C554.217 197.46 553.026 189.103 556.048 181.742C558.394 175.981 563.051 171.518 567.565 167.233L579.03 156.386C582.353 153.239 584.966 151.852 587.916 155.71C590.52 159.103 592.549 162.899 593.924 166.948Z" fill="url(#paint1_linear)"/>
<path d="M613.635 269.954C623.038 280.498 626.948 293.478 634.075 305.516C634.915 307.237 636.197 308.704 637.79 309.766C640.403 311.188 643.656 310.193 646.286 308.806C667.455 297.497 669.392 265.153 690.152 253.115C694.969 250.341 700.443 248.883 705.224 246.003C707.002 244.936 708.921 243.033 708.21 241.077C707.885 240.477 707.434 239.953 706.888 239.542C706.342 239.13 705.714 238.842 705.047 238.695C699.581 236.806 693.781 236.086 688.019 236.579C685.442 236.81 681.852 236.579 681.567 233.965C681.639 233.214 681.639 232.458 681.567 231.707C680.999 229.822 677.853 230.515 677.071 232.329C676.288 234.143 676.875 236.205 676.804 238.179C676.449 241.268 675.257 244.201 673.356 246.661C668.875 253.571 663.972 260.199 658.675 266.504C643.673 284.285 639.887 255.925 628.032 250.004C626.905 249.536 625.698 249.288 624.477 249.275C613.92 248.551 603.35 248.338 592.769 248.634C596.519 251.639 610.258 266.184 613.635 269.954Z" fill="#FDD4C1"/>
<path d="M583.384 204.306C583.384 204.306 614.098 218.158 615.91 221.785C617.723 225.412 615.91 328.898 615.91 328.898H507.632L513.853 219.847L545.526 206.867L583.384 204.306Z" fill="#D5C1FC"/>
<path d="M507.614 328.916H615.91C615.91 328.916 617.688 225.43 615.91 221.767C614.133 218.104 583.384 204.306 583.384 204.306L545.543 206.849L513.87 219.829L510.866 272.194L507.614 328.916Z" fill="#A880F7"/>
<path d="M615.911 221.732L641.701 254.591C636.511 269.936 615.911 289.406 615.911 289.406V221.732Z" fill="#FDECF4"/>
<path d="M615.911 251.586L632.032 271.412L615.911 289.46V251.586Z" fill="url(#paint2_linear)"/>
<path d="M582.602 189.583C581.553 195.167 583.171 199.416 583.402 204.537C583.722 212.13 575.688 223.99 572.489 230.924C571.458 233.165 570.231 235.601 567.974 236.614C566.377 237.196 564.662 237.373 562.98 237.13C560.474 237.194 557.992 236.626 555.763 235.476C552.849 233.698 551.587 230.142 550.574 226.835C548.921 221.5 544.726 213.054 545.739 207.56C546.059 205.782 547.659 204.004 548.103 202.083C548.524 199.6 548.661 197.077 548.512 194.562C548.387 181.191 582.602 189.583 582.602 189.583Z" fill="#FDD4C1"/>
<path d="M582.602 189.583C582.602 189.583 578.265 212.841 564.455 211.49C560.687 211.261 557.093 209.82 554.21 207.382C551.328 204.943 549.31 201.638 548.458 197.958L582.602 189.583Z" fill="#E0BE99"/>
<path d="M583.811 185.565C582.972 189.283 581.519 192.835 579.51 196.074C573.858 204.342 561.025 206.884 552.529 201.408C547.954 198.119 544.415 193.591 542.327 188.356C537.358 177.395 535.696 165.221 537.545 153.328C538.034 148.685 539.807 144.27 542.664 140.579C547.694 134.764 556.279 133.253 563.993 133.662C570.978 134.035 578.212 135.778 583.455 140.241C586.284 142.741 588.383 145.96 589.532 149.557C590.68 153.153 590.835 156.994 589.978 160.671C588.006 168.957 586.068 177.279 583.811 185.565Z" fill="#FDD4C1"/>
<path d="M421.855 217.464C420.706 216.353 419.283 215.568 417.731 215.188C416.162 214.989 414.584 214.87 413.003 214.833C409.751 214.459 406.338 212.734 403.405 214.192C402.418 214.766 401.605 215.596 401.051 216.595C400.497 217.593 400.224 218.723 400.259 219.865C400.348 222.146 401.002 224.37 402.161 226.337C407.067 235.672 414.283 238.784 422.761 243.78C427.222 246.412 430.333 252.671 433.426 257.027L444.641 272.568C449.227 278.916 453.883 285.352 460.015 290.242C461.012 291.108 462.156 291.789 463.392 292.251C465.644 292.791 468.012 292.553 470.111 291.576C478.998 288.144 486.907 281.636 494.586 276.017C498.14 273.386 501.82 270.683 505.392 268.034C506.938 266.878 509.818 265.402 510.813 263.659C511.361 262.549 511.682 261.34 511.755 260.103C513.106 249.612 511.24 238.926 511.506 228.346C499.811 241.718 486.303 255.854 470.626 264.477C470.16 264.79 469.622 264.98 469.062 265.029C468.494 264.982 467.945 264.799 467.463 264.495C454.467 257.567 443.023 248.055 433.834 236.543C430.441 231.809 427.467 226.788 424.947 221.536C424.144 220.02 423.1 218.645 421.855 217.464Z" fill="#FDD4C1"/>
<path d="M589.907 163.605C590.63 163.22 591.455 163.07 592.267 163.175C593.079 163.28 593.838 163.636 594.44 164.192C594.789 164.648 595.032 165.177 595.15 165.739C595.707 168.923 595.04 172.2 593.284 174.914C592.883 175.7 592.334 176.4 591.667 176.977C590.308 177.833 588.721 178.255 587.117 178.186C586.759 178.258 586.39 178.258 586.032 178.186C585.745 178.053 585.49 177.859 585.286 177.617C584.774 176.975 584.398 176.236 584.181 175.444C583.964 174.652 583.911 173.825 584.024 173.011C584.362 169.349 586.459 165.117 589.907 163.605Z" fill="#FDD4C1"/>
<path d="M536.372 177.492C537.092 177.885 537.917 178.041 538.73 177.939C539.543 177.837 540.304 177.481 540.905 176.923C541.254 176.467 541.497 175.939 541.615 175.376C542.181 172.192 541.514 168.911 539.749 166.201C539.344 165.413 538.796 164.707 538.132 164.121C536.775 163.26 535.186 162.838 533.582 162.912C533.217 162.866 532.846 162.903 532.497 163.018C532.206 163.145 531.95 163.34 531.751 163.587C531.239 164.229 530.863 164.968 530.646 165.76C530.429 166.552 530.376 167.38 530.489 168.193C530.827 171.767 532.942 175.999 536.372 177.492Z" fill="#FDD4C1"/>
<path d="M513.853 219.847L488.383 251.959C493.555 267.305 510.813 286.775 510.813 286.775L513.853 219.847Z" fill="#D5C1FC"/>
<path d="M592.733 171.713C592.285 172.838 591.557 173.83 590.618 174.594C590.205 174.934 589.694 175.133 589.16 175.162C588.626 175.191 588.097 175.048 587.65 174.754C587.484 174.643 587.359 174.481 587.294 174.292C587.229 173.984 587.273 173.663 587.419 173.385L587.632 172.816C587.684 172.65 587.762 172.494 587.863 172.354C588.254 171.838 589.054 171.927 589.641 171.607C590.227 171.287 590.458 170.469 590.778 169.829C590.889 169.564 591.074 169.336 591.31 169.172C591.546 169.008 591.824 168.915 592.111 168.904C592.382 168.961 592.628 169.104 592.81 169.313C592.993 169.521 593.103 169.783 593.124 170.06C593.154 170.637 593.018 171.211 592.733 171.713Z" fill="#E0BE99"/>
<path d="M532.835 170.575C533.279 171.702 534.008 172.695 534.95 173.456C535.365 173.798 535.878 173.999 536.414 174.031C536.951 174.063 537.484 173.924 537.936 173.634C538.103 173.516 538.227 173.347 538.292 173.154C538.347 172.852 538.304 172.54 538.167 172.265L537.954 171.696C537.906 171.529 537.828 171.372 537.723 171.233C537.332 170.718 536.532 170.789 535.946 170.469C535.359 170.149 535.128 169.331 534.808 168.691C534.693 168.428 534.508 168.203 534.273 168.039C534.037 167.876 533.761 167.781 533.475 167.766C533.203 167.814 532.954 167.952 532.771 168.159C532.587 168.365 532.478 168.628 532.462 168.904C532.421 169.486 532.55 170.067 532.835 170.575Z" fill="#E0BE99"/>
<path d="M583.384 204.306L590.6 207.649L587.046 241.042L567.921 248.403C567.921 248.403 575.937 223.936 583.384 204.306Z" fill="url(#paint3_linear)"/>
<path d="M580.931 243.407L583.366 256.209L560.189 282.116L567.921 248.492L580.931 243.407Z" fill="url(#paint4_linear)"/>
<path d="M545.277 207.062L538.061 210.387L533.937 241.042L552.991 248.403C552.991 248.403 545.526 217.553 545.277 207.062Z" fill="url(#paint5_linear)"/>
<path d="M539.998 243.407L537.545 256.209L560.722 282.116L552.991 248.492L539.998 243.407Z" fill="url(#paint6_linear)"/>
<path d="M530.631 328.507L602.118 315.758L615.911 251.586V323.013V328.898L530.631 328.507Z" fill="url(#paint7_linear)"/>
<path d="M558.11 139.547C558.998 144.882 559.887 150.821 563.975 154.555C566.291 156.5 569.002 157.92 571.92 158.715C578.599 160.91 585.549 162.173 592.573 162.467C593.6 157.871 593.588 153.103 592.538 148.511C591.488 143.92 589.427 139.621 586.504 135.928C583.581 132.236 579.871 129.243 575.644 127.168C571.417 125.093 566.781 123.989 562.073 123.936C549.827 123.598 556.812 131.564 558.11 139.547Z" fill="#3D467F"/>
<path d="M664.22 322.746H276.695V343.87H664.22V322.746Z" fill="white"/>
<path d="M569.574 450.236C567.028 452.788 565.198 455.966 564.268 459.45C563.339 462.934 563.343 466.601 564.28 470.083C565.217 473.565 567.053 476.738 569.605 479.285C572.157 481.831 575.334 483.661 578.816 484.589V489.284H331.759C326.602 489.284 321.578 487.657 317.4 484.633C313.222 481.61 310.105 477.344 308.493 472.445C307.655 469.952 307.229 467.34 307.231 464.71C307.228 461.487 307.861 458.295 309.093 455.317C310.325 452.339 312.131 449.633 314.409 447.354C316.688 445.075 319.392 443.268 322.369 442.035C325.346 440.803 328.537 440.17 331.759 440.172H578.816V444.867C575.315 445.806 572.125 447.659 569.574 450.236Z" fill="#F39AC4"/>
<path d="M578.816 484.589V489.284H331.759C326.603 489.284 321.578 487.657 317.4 484.633C313.223 481.61 310.105 477.344 308.493 472.445C317.877 474.099 377.296 483.576 410.373 464.71L565.308 472.978C566.541 475.806 568.397 478.318 570.736 480.329C573.074 482.339 575.837 483.796 578.816 484.589Z" fill="url(#paint8_linear)"/>
<path d="M569.574 450.236C567.028 452.788 565.198 455.966 564.269 459.45C563.339 462.934 563.343 466.601 564.28 470.083C565.217 473.565 567.053 476.738 569.605 479.285C572.157 481.831 575.334 483.661 578.816 484.589V485.283H430.902C428.156 485.364 425.422 484.893 422.862 483.897C420.302 482.902 417.967 481.403 415.997 479.489C414.026 477.575 412.46 475.284 411.39 472.753C410.32 470.222 409.769 467.503 409.769 464.755C409.769 462.007 410.32 459.287 411.39 456.756C412.46 454.225 414.026 451.935 415.997 450.021C417.967 448.106 420.302 446.607 422.862 445.612C425.422 444.617 428.156 444.146 430.902 444.226H578.816V444.902C575.318 445.832 572.129 447.672 569.574 450.236Z" fill="white"/>
<path d="M719.852 501.446C717.306 503.998 715.476 507.176 714.547 510.659C713.618 514.143 713.622 517.811 714.559 521.292C715.495 524.774 717.332 527.948 719.884 530.494C722.435 533.041 725.612 534.871 729.095 535.799V540.493H482.037C476.885 540.496 471.864 538.874 467.687 535.857C463.51 532.841 460.39 528.583 458.771 523.69C457.934 521.198 457.508 518.585 457.509 515.955C457.507 512.732 458.14 509.54 459.372 506.562C460.603 503.584 462.41 500.878 464.688 498.599C466.966 496.32 469.671 494.513 472.648 493.281C475.625 492.048 478.816 491.415 482.037 491.417H729.095V496.112C725.597 497.041 722.408 498.882 719.852 501.446Z" fill="#F39AC4"/>
<path d="M729.095 535.799V540.493H482.037C476.885 540.496 471.864 538.874 467.687 535.857C463.51 532.841 460.39 528.583 458.771 523.69C468.156 525.344 527.574 534.821 560.651 515.955L715.587 524.224C716.824 527.044 718.681 529.55 721.02 531.554C723.359 533.558 726.119 535.009 729.095 535.799Z" fill="url(#paint9_linear)"/>
<path d="M719.852 501.446C717.306 503.998 715.476 507.176 714.547 510.659C713.618 514.143 713.622 517.81 714.558 521.292C715.495 524.774 717.332 527.948 719.884 530.494C722.435 533.041 725.612 534.87 729.095 535.799V536.457H581.18C578.435 536.538 575.701 536.067 573.141 535.071C570.58 534.076 568.246 532.577 566.275 530.663C564.305 528.748 562.738 526.458 561.668 523.927C560.599 521.396 560.047 518.676 560.047 515.929C560.047 513.181 560.599 510.461 561.668 507.93C562.738 505.399 564.305 503.109 566.275 501.195C568.246 499.28 570.58 497.781 573.141 496.786C575.701 495.791 578.435 495.32 581.18 495.4H729.095V496.076C725.593 497.016 722.404 498.869 719.852 501.446Z" fill="#E1EEFB"/>
<path d="M409.253 214.086L379.624 143.175L413.003 214.833L409.253 214.086Z" fill="white"/>
<path d="M670.689 358.184C668.185 359.311 665.894 360.863 663.918 362.771C662.932 363.725 662.155 364.874 661.638 366.144C661.121 367.415 660.874 368.779 660.914 370.15C661.18 373.475 663.562 376.214 666.068 378.383C668.93 380.908 672.414 383.54 672.645 387.274C674.689 385.744 676.555 383.966 678.67 382.526C682.367 380.001 686.722 378.65 690.792 376.783C694.862 374.916 698.897 372.284 700.834 368.248C701.88 365.696 702.481 362.984 702.611 360.229C703.028 357.284 703.106 354.301 702.842 351.338C702.564 348.357 701.257 345.565 699.146 343.443C695.934 340.98 692.147 339.376 688.143 338.785C685.891 338.9 683.718 339.661 681.885 340.975C680.051 342.289 678.633 344.102 677.799 346.199C676.964 348.422 677.355 350.947 676.537 353.169C675.506 355.766 673 357.01 670.689 358.184Z" fill="#3D467F"/>
<path d="M578.567 492.627C577.765 492.611 576.966 492.731 576.204 492.982C575.823 493.114 575.487 493.351 575.236 493.666C574.984 493.98 574.827 494.36 574.782 494.76C574.814 495.152 574.942 495.529 575.157 495.858C575.371 496.187 575.663 496.457 576.008 496.645C576.666 497.072 577.43 497.321 578.088 497.765C578.642 498.226 579.237 498.637 579.865 498.992C580.991 499.33 582.197 499.286 583.295 498.868C588.416 497.619 593.718 497.288 598.954 497.89C599.462 497.952 599.975 497.952 600.483 497.89C601.229 497.674 601.907 497.272 602.454 496.722C603.002 496.171 603.4 495.49 603.611 494.743C604.66 491.559 604.97 488.178 604.517 484.856C604.511 484.485 604.42 484.12 604.251 483.789C604.039 483.531 603.772 483.325 603.469 483.185C598.51 480.731 595.79 485.639 592.147 488.039C588.093 490.717 583.414 492.298 578.567 492.627Z" fill="#FFBBAB"/>
<path d="M698.488 419.653C698.488 419.653 699.732 438.216 683.149 443.817C666.566 449.418 636.848 444.849 636.848 444.849C636.848 444.849 624.886 467.769 612.658 478.633L604.837 486.368C603.19 486.766 601.458 486.617 599.903 485.944C598.347 485.27 597.054 484.108 596.217 482.634C596.217 482.634 619.323 436.563 622.434 433.113C625.962 428.866 630.678 425.77 635.977 424.223L669.072 413.803L698.488 419.653Z" fill="#473F47"/>
<path d="M587.81 358.842L605.566 396.555L638.377 396.324L638.11 393.479L607.93 393.141L591.223 357.455L587.81 358.842Z" fill="#473F47"/>
<path d="M674.653 334.464C674.049 335.495 672.787 336.1 672.378 337.22C671.969 338.34 672.84 340.011 673.32 341.381C674.013 343.283 673.8 345.417 674.458 347.337C674.572 347.752 674.807 348.123 675.133 348.404C675.437 348.612 675.783 348.752 676.146 348.813C677.567 349.1 679.021 349.184 680.465 349.062C680.748 349.006 681.041 349.044 681.301 349.169C681.513 349.356 681.646 349.616 681.674 349.898C682.504 353.521 682.443 357.292 681.496 360.886C681.194 362.078 680.856 363.518 681.727 364.443C682.043 364.728 682.43 364.925 682.847 365.012C685.584 365.67 688.179 363.642 690.063 361.455C691.713 359.555 693.133 357.466 694.293 355.232C694.656 354.612 694.903 353.931 695.022 353.223C695.073 352.306 694.946 351.388 694.649 350.52C693.864 347.53 693.388 344.468 693.227 341.381C693.031 337.433 693.316 333.326 691.787 329.663C691.353 328.404 690.516 327.322 689.405 326.587C688.078 325.955 686.599 325.714 685.14 325.893C682.278 326 679.114 326.391 677.159 328.507C676.608 329.112 675.417 333.183 674.653 334.464Z" fill="#FFBBAB"/>
<path d="M694.791 353.472C694.791 353.472 682.972 359.588 679.399 364.389C675.826 369.19 669.997 372.729 672.289 381.815C674.582 390.901 671.792 404.77 671.792 404.77C671.792 404.77 676.928 420.933 689.566 425.023C702.203 429.112 698.719 427.814 698.719 427.814C698.719 427.814 705.42 397.853 708.051 389.514C710.681 381.175 706.238 352.138 694.791 353.472Z" fill="#3D467F"/>
<path d="M678.457 328.098C678.692 330.046 679.619 331.845 681.07 333.166C682.474 334.464 684.198 335.371 685.655 336.615C686.424 337.191 687.036 337.95 687.436 338.822C687.836 339.695 688.013 340.654 687.948 341.612C688.506 341.39 689.124 341.37 689.695 341.555C690.266 341.74 690.755 342.118 691.076 342.625C691.226 342.983 691.273 343.375 691.214 343.758C691.154 344.141 690.99 344.499 690.739 344.795C690.481 345.082 690.162 345.308 689.805 345.456C689.448 345.604 689.063 345.669 688.677 345.648C690.171 346.259 691.451 347.298 692.356 348.635C693.369 350.129 693.867 351.907 694.791 353.472C695.933 355.053 697.362 356.404 699.004 357.455C699.74 357.952 700.349 358.616 700.781 359.393C701.119 360.602 701.528 361.789 702.007 362.949C703.057 364.43 704.184 365.855 705.384 367.217C707.008 369.594 707.937 372.377 708.068 375.254C707.988 374.402 707.988 373.545 708.068 372.693C708.365 372.195 708.649 371.68 708.921 371.146C709.376 370.215 709.728 369.237 709.97 368.23C710.311 365.923 710.377 363.583 710.166 361.26C710.166 356.281 714.858 346.911 711.09 342.643C709.589 341.386 707.99 340.25 706.309 339.247C702.985 336.491 702.523 331.637 700.426 327.867C699.495 326.207 698.245 324.749 696.747 323.577C695.249 322.405 693.533 321.542 691.699 321.039C686.793 319.634 677.799 321.181 678.457 328.098Z" fill="#3D467F"/>
<path d="M690.241 369.048C690.241 369.048 682.776 389.247 681.354 390.723C679.932 392.199 695.733 401.125 695.733 401.125C695.733 401.125 706.06 381.477 705.58 372.978C705.1 364.478 696.053 361.029 690.241 369.048Z" fill="#E1EEFB"/>
<path d="M695.662 398.387C695.662 398.387 695.111 404.895 687.131 404.77L651.672 404.272C649.255 403.028 645.949 402.832 644.154 400.716C643.283 399.756 642.838 398.476 642.021 397.48C640.891 396.234 639.365 395.417 637.702 395.168C636.053 394.931 634.383 394.89 632.725 395.044C632.4 394.669 632.221 394.189 632.221 393.693C632.221 393.196 632.4 392.716 632.725 392.341C633.421 391.621 634.32 391.131 635.302 390.937C639.384 389.914 643.706 390.554 647.317 392.715C648.363 393.458 649.505 394.056 650.712 394.493C651.601 394.674 652.511 394.722 653.414 394.635C663.634 394.155 673.729 391.986 683.949 391.523C686.345 391.284 688.765 391.538 691.059 392.27C692.258 392.849 693.301 393.706 694.102 394.77C694.903 395.834 695.438 397.074 695.662 398.387Z" fill="#FFBBAB"/>
<path d="M581.642 400.556H576.612V492.627H581.642V400.556Z" fill="white"/>
<path d="M638.377 400.556H633.347V492.627H638.377V400.556Z" fill="white"/>
<path d="M641.149 396.555H570.711V404.557H641.149V396.555Z" fill="#D5C1FC"/>
<path d="M641.149 396.555H570.711V404.557H641.149V396.555Z" fill="url(#paint10_linear)"/>
<path d="M699.91 442.715H654.071C652.992 442.715 652.116 443.591 652.116 444.671V452.655C652.116 453.735 652.992 454.611 654.071 454.611H699.91C700.99 454.611 701.865 453.735 701.865 452.655V444.671C701.865 443.591 700.99 442.715 699.91 442.715Z" fill="#473F47"/>
<path d="M661.874 454.611H653.467L649.272 493.533H657.679L661.874 454.611Z" fill="#473F47"/>
<path d="M704.638 493.533L699.075 454.611H690.667L697.653 493.533H704.638Z" fill="#473F47"/>
<path d="M717.026 377.441H709.49L692.463 443.017H699.999L717.026 377.441Z" fill="#473F47"/>
<path d="M275.344 454.611H321.183C322.263 454.611 323.138 453.735 323.138 452.655V444.671C323.138 443.591 322.263 442.715 321.183 442.715H275.344C274.264 442.715 273.389 443.591 273.389 444.671V452.655C273.389 453.735 274.264 454.611 275.344 454.611Z" fill="#473F47"/>
<path d="M313.38 454.611H321.788L325.982 493.533H317.575L313.38 454.611Z" fill="#473F47"/>
<path d="M270.616 493.533L276.18 454.611H284.587L277.601 493.533H270.616Z" fill="#473F47"/>
<path d="M258.228 377.441H265.764L282.791 443.017H275.255L258.228 377.441Z" fill="#473F47"/>
<path d="M485.343 501.464C482.797 504.016 480.967 507.193 480.038 510.677C479.109 514.161 479.112 517.828 480.049 521.31C480.986 524.792 482.823 527.966 485.374 530.512C487.926 533.059 491.103 534.888 494.586 535.817V540.511H247.528C242.376 540.514 237.355 538.892 233.178 535.875C229.001 532.858 225.881 528.601 224.262 523.708C223.425 521.215 222.998 518.603 223 515.973C222.998 512.75 223.631 509.558 224.862 506.58C226.094 503.602 227.901 500.896 230.179 498.617C232.457 496.338 235.162 494.531 238.139 493.298C241.116 492.066 244.306 491.433 247.528 491.435H494.586V496.129C491.088 497.059 487.899 498.9 485.343 501.464Z" fill="#F39AC4"/>
<path d="M494.586 535.817V540.511H247.528C242.376 540.514 237.355 538.892 233.178 535.875C229.001 532.858 225.881 528.601 224.262 523.708C233.647 525.362 293.065 534.839 326.142 515.973L481.078 524.241C482.315 527.062 484.172 529.568 486.511 531.572C488.849 533.576 491.609 535.027 494.586 535.817Z" fill="url(#paint11_linear)"/>
<path d="M485.343 501.464C482.797 504.016 480.967 507.193 480.038 510.677C479.108 514.161 479.112 517.828 480.049 521.31C480.986 524.792 482.823 527.966 485.374 530.512C487.926 533.059 491.103 534.888 494.586 535.817V536.457H346.671C343.925 536.538 341.192 536.067 338.631 535.071C336.071 534.076 333.737 532.577 331.766 530.663C329.795 528.748 328.229 526.458 327.159 523.927C326.089 521.396 325.538 518.676 325.538 515.929C325.538 513.181 326.089 510.461 327.159 507.93C328.229 505.399 329.795 503.109 331.766 501.195C333.737 499.28 336.071 497.781 338.631 496.786C341.192 495.791 343.925 495.32 346.671 495.4H494.586V496.076C491.082 497.021 487.892 498.88 485.343 501.464Z" fill="#E1EEFB"/>
<path d="M300.121 326.409L316.58 333.308L300.121 339.763V326.409Z" fill="#D5C1FC"/>
<path d="M650.516 331.103H323.245V335.495H650.516V331.103Z" fill="#3D467F"/>
<path d="M279.13 420.151C279.13 420.151 277.886 438.714 294.469 444.315C306.306 448.316 319.886 447.445 332.15 446.36C334.123 446.182 337.66 445.187 339.401 446.502C341.854 448.281 340.628 453.241 340.557 455.926C340.397 461.759 340.255 467.573 340.095 473.405C340.095 476.09 340.095 478.846 339.881 481.513C339.668 484.181 339.01 487.31 338.815 490.262C338.79 490.385 338.791 490.512 338.819 490.634C338.846 490.757 338.899 490.872 338.975 490.973C339.077 491.053 339.194 491.112 339.319 491.145C339.444 491.179 339.575 491.187 339.704 491.169L361.423 490.226C361.657 490.253 361.892 490.189 362.081 490.048C362.401 489.746 362.188 489.213 361.939 488.857C359.699 485.969 356.579 483.89 353.052 482.936C352.22 482.728 351.427 482.385 350.706 481.922C348.448 480.144 350.315 476.321 350.83 474.17L353.07 464.817L357.478 446.431C358.793 440.99 359.113 436.847 354.918 433.06C351.143 429.318 346.575 426.474 341.552 424.738L308.475 414.319L279.13 420.151Z" fill="#473F47"/>
<path d="M409.822 358.842L392.066 396.555L359.255 396.324L359.522 393.479L389.684 393.141L406.391 357.455L409.822 358.842Z" fill="#473F47"/>
<path d="M322.961 334.464C323.583 335.495 324.845 336.1 325.253 337.22C325.662 338.34 324.791 340.011 324.294 341.381C323.618 343.283 323.831 345.417 323.174 347.337C323.059 347.752 322.824 348.123 322.498 348.404C322.193 348.609 321.848 348.749 321.485 348.813C320.065 349.1 318.61 349.184 317.166 349.062C316.884 349.006 316.591 349.044 316.331 349.169C316.119 349.356 315.986 349.616 315.958 349.898C315.122 353.52 315.176 357.29 316.118 360.886C316.438 362.078 316.775 363.518 315.904 364.443C315.588 364.728 315.202 364.925 314.785 365.012C312.047 365.67 309.452 363.642 307.568 361.455C305.919 359.555 304.499 357.466 303.338 355.232C302.976 354.612 302.729 353.931 302.609 353.223C302.558 352.306 302.685 351.388 302.983 350.52C303.761 347.529 304.232 344.467 304.387 341.381C304.6 337.433 304.387 333.326 305.826 329.663C306.268 328.402 307.111 327.322 308.226 326.587C309.547 325.955 311.021 325.714 312.474 325.893C315.353 326 318.499 326.391 320.454 328.507C321.023 329.112 322.214 333.183 322.961 334.464Z" fill="#FFBBAB"/>
<path d="M302.769 353.543H303.018C308.244 354.841 315.851 359.606 317.557 364.905C319.708 371.555 321.112 380.499 319.566 387.38C318.517 392.057 316.011 396.271 314.607 400.858C313.416 404.646 312.918 408.664 311.354 412.309C309.402 416.547 306.114 420.028 301.995 422.218C297.877 424.408 293.154 425.187 288.55 424.436C286.107 424.021 283.805 423.007 281.849 421.484C280.076 419.833 278.706 417.795 277.846 415.529C276.986 413.262 276.659 410.828 276.891 408.415C277.413 403.591 278.678 398.877 280.641 394.439L288.781 373.191C290.754 368.106 295.535 352.103 302.769 353.543Z" fill="#3D467F"/>
<path d="M298.557 405.801C299.014 406.565 299.316 407.411 299.446 408.291C299.47 408.939 299.392 409.587 299.215 410.211C298.377 413.666 298.025 417.221 298.166 420.773C298.111 421.415 298.309 422.053 298.717 422.551C299.178 422.881 299.732 423.056 300.299 423.049C302.331 423.38 304.415 423.172 306.342 422.445C308.416 421.141 309.979 419.164 310.768 416.844C313.372 410.391 315.354 403.705 316.686 396.875C317.022 395.783 317.131 394.633 317.006 393.497C316.788 392.653 316.406 391.861 315.881 391.166C315.356 390.47 314.7 389.885 313.949 389.443C312.527 388.465 310.91 387.754 309.541 386.687C306.84 384.624 304.849 380.872 301.17 380.392C299.898 380.3 298.634 380.654 297.596 381.394C296.557 382.134 295.81 383.214 295.482 384.446C293.065 390.83 295.66 399.951 298.557 405.801Z" fill="url(#paint12_linear)"/>
<path d="M307.408 369.048C307.408 369.048 314.873 389.247 316.295 390.723C317.717 392.199 301.934 401.125 301.934 401.125C301.934 401.125 291.59 381.477 292.087 372.978C292.585 364.478 301.578 361.029 307.408 369.048Z" fill="#D5C1FC"/>
<path d="M301.97 398.387C301.97 398.387 302.521 404.895 310.483 404.77L346.031 404.272C348.431 403.028 351.737 402.832 353.55 400.716C354.403 399.756 354.847 398.476 355.682 397.48C356.812 396.234 358.338 395.417 360.001 395.168C361.65 394.931 363.32 394.89 364.978 395.044C365.3 394.667 365.477 394.188 365.477 393.693C365.477 393.197 365.3 392.718 364.978 392.341C364.28 391.624 363.382 391.135 362.401 390.937C358.319 389.914 353.997 390.554 350.386 392.715C349.34 393.458 348.198 394.056 346.991 394.493C346.102 394.674 345.192 394.722 344.289 394.635C334.069 394.155 323.974 391.986 313.754 391.523C311.358 391.288 308.939 391.542 306.644 392.27C305.43 392.838 304.371 393.69 303.557 394.755C302.743 395.82 302.199 397.066 301.97 398.387Z" fill="#FFBBAB"/>
<path d="M353.887 400.556H348.857V492.627H353.887V400.556Z" fill="white"/>
<path d="M410.639 400.556H405.609V492.627H410.639V400.556Z" fill="white"/>
<path d="M413.394 396.555H342.956V404.557H413.394V396.555Z" fill="#D5C1FC"/>
<path d="M413.394 396.555H342.956V404.557H413.394V396.555Z" fill="url(#paint13_linear)"/>
<path d="M320.543 318.319C319.689 317.004 318.537 315.909 317.182 315.122C315.826 314.334 314.305 313.876 312.741 313.784C311.692 313.628 310.622 313.695 309.602 313.984C308.581 314.272 307.634 314.774 306.822 315.456C306.182 316.096 305.702 316.896 305.044 317.518C303.143 319.296 300.21 319.083 297.935 320.168C295.879 321.237 294.3 323.039 293.509 325.218C292.736 327.384 292.304 329.658 292.229 331.957C291.976 334.059 292.09 336.188 292.567 338.251C293.022 339.776 293.824 341.174 294.91 342.337C295.995 343.5 297.334 344.396 298.824 344.955C299.531 345.123 300.184 345.465 300.725 345.95C301.152 346.43 301.294 347.124 301.703 347.622C302.716 348.866 304.742 348.404 306.004 347.426C307.1 346.27 308.35 345.27 309.719 344.457L306.164 339.638C305.707 339.157 305.447 338.523 305.435 337.86C305.543 337.475 305.777 337.138 306.099 336.903C306.422 336.667 306.814 336.547 307.213 336.562C308.013 336.634 308.768 336.965 309.364 337.504C309.879 337.931 310.661 338.411 311.141 337.913C311.287 337.758 311.375 337.557 311.39 337.344C311.781 334.962 309.612 332.597 310.252 330.232C310.303 330.017 310.421 329.823 310.59 329.681C310.841 329.547 311.131 329.509 311.407 329.574C312.824 329.804 314.265 329.84 315.691 329.681C320.188 328.845 322.783 322.177 320.543 318.319Z" fill="#473F47"/>
<path d="M314.109 368.497C314.109 369.368 314.109 370.47 313.203 370.684C312.847 370.744 312.481 370.694 312.154 370.542C310.793 370.063 309.502 369.405 308.315 368.586C308.621 375.943 309.627 383.254 311.319 390.421C311.39 390.829 311.547 391.217 311.781 391.559C312.037 391.805 312.342 391.994 312.675 392.117C313.009 392.239 313.364 392.291 313.718 392.27C315.469 392.361 317.22 392.107 318.873 391.523C314.465 384.197 314.269 374.898 316.757 366.736C317.28 365.558 317.416 364.245 317.148 362.985C316.66 362.111 315.992 361.351 315.19 360.754C314.387 360.156 313.468 359.735 312.492 359.517C311.958 362.202 313.896 365.758 314.109 368.497Z" fill="url(#paint14_linear)"/>
<defs>
<linearGradient id="paint0_linear" x1="458.558" y1="360.726" x2="470.263" y2="518.408" gradientUnits="userSpaceOnUse">
<stop offset="0.01"/>
<stop offset="0.08" stop-opacity="0.69"/>
<stop offset="0.21" stop-opacity="0.32"/>
<stop offset="1" stop-opacity="0"/>
</linearGradient>
<linearGradient id="paint1_linear" x1="22443.6" y1="20067.2" x2="37775.7" y2="13929.2" gradientUnits="userSpaceOnUse">
<stop offset="0.01"/>
<stop offset="0.08" stop-opacity="0.69"/>
<stop offset="0.21" stop-opacity="0.32"/>
<stop offset="1" stop-opacity="0"/>
</linearGradient>
<linearGradient id="paint2_linear" x1="-35417.3" y1="8611.62" x2="-34790.7" y2="8522.14" gradientUnits="userSpaceOnUse">
<stop offset="0.01"/>
<stop offset="0.08" stop-opacity="0.69"/>
<stop offset="0.21" stop-opacity="0.32"/>
<stop offset="1" stop-opacity="0"/>
</linearGradient>
<linearGradient id="paint3_linear" x1="-51815.9" y1="9300.66" x2="-52794.6" y2="8772.43" gradientUnits="userSpaceOnUse">
<stop offset="0.01"/>
<stop offset="0.08" stop-opacity="0.69"/>
<stop offset="0.21" stop-opacity="0.32"/>
<stop offset="1" stop-opacity="0"/>
</linearGradient>
<linearGradient id="paint4_linear" x1="-53101" y1="8671.47" x2="-53870.3" y2="8351.05" gradientUnits="userSpaceOnUse">
<stop offset="0.01"/>
<stop offset="0.08" stop-opacity="0.69"/>
<stop offset="0.21" stop-opacity="0.32"/>
<stop offset="1" stop-opacity="0"/>
</linearGradient>
<linearGradient id="paint5_linear" x1="-10650.2" y1="8808.07" x2="-9690.65" y2="8344.15" gradientUnits="userSpaceOnUse">
<stop offset="0.01"/>
<stop offset="0.08" stop-opacity="0.69"/>
<stop offset="0.21" stop-opacity="0.32"/>
<stop offset="1" stop-opacity="0"/>
</linearGradient>
<linearGradient id="paint6_linear" x1="-13417.6" y1="8671.48" x2="-12648.1" y2="8351.09" gradientUnits="userSpaceOnUse">
<stop offset="0.01"/>
<stop offset="0.08" stop-opacity="0.69"/>
<stop offset="0.21" stop-opacity="0.32"/>
<stop offset="1" stop-opacity="0"/>
</linearGradient>
<linearGradient id="paint7_linear" x1="-207107" y1="14698.6" x2="-208666" y2="27816.2" gradientUnits="userSpaceOnUse">
<stop offset="0.01"/>
<stop offset="0.08" stop-opacity="0.69"/>
<stop offset="0.21" stop-opacity="0.32"/>
<stop offset="1" stop-opacity="0"/>
</linearGradient>
<linearGradient id="paint8_linear" x1="68535.5" y1="6329.91" x2="68615.8" y2="13759.9" gradientUnits="userSpaceOnUse">
<stop offset="0.01"/>
<stop offset="0.08" stop-opacity="0.69"/>
<stop offset="0.21" stop-opacity="0.32"/>
<stop offset="1" stop-opacity="0"/>
</linearGradient>
<linearGradient id="paint9_linear" x1="91544.3" y1="7079.34" x2="91624.5" y2="14498.5" gradientUnits="userSpaceOnUse">
<stop offset="0.01"/>
<stop offset="0.08" stop-opacity="0.69"/>
<stop offset="0.21" stop-opacity="0.32"/>
<stop offset="1" stop-opacity="0"/>
</linearGradient>
<linearGradient id="paint10_linear" x1="21001.3" y1="1982.62" x2="21001.8" y2="2489.55" gradientUnits="userSpaceOnUse">
<stop offset="0.01"/>
<stop offset="0.08" stop-opacity="0.69"/>
<stop offset="0.21" stop-opacity="0.32"/>
<stop offset="1" stop-opacity="0"/>
</linearGradient>
<linearGradient id="paint11_linear" x1="55643.3" y1="7079.39" x2="55723.5" y2="14498.6" gradientUnits="userSpaceOnUse">
<stop offset="0.01"/>
<stop offset="0.08" stop-opacity="0.69"/>
<stop offset="0.21" stop-opacity="0.32"/>
<stop offset="1" stop-opacity="0"/>
</linearGradient>
<linearGradient id="paint12_linear" x1="4076.96" y1="13105.1" x2="5252.32" y2="13032.7" gradientUnits="userSpaceOnUse">
<stop offset="0.01"/>
<stop offset="0.08" stop-opacity="0.69"/>
<stop offset="0.21" stop-opacity="0.32"/>
<stop offset="1" stop-opacity="0"/>
</linearGradient>
<linearGradient id="paint13_linear" x1="11756.7" y1="2110.32" x2="11757" y2="2325.51" gradientUnits="userSpaceOnUse">
<stop offset="0.01"/>
<stop offset="0.08" stop-opacity="0.69"/>
<stop offset="0.21" stop-opacity="0.32"/>
<stop offset="1" stop-opacity="0"/>
</linearGradient>
<linearGradient id="paint14_linear" x1="2619.29" y1="9838.44" x2="1770.59" y2="9755.6" gradientUnits="userSpaceOnUse">
<stop offset="0.01"/>
<stop offset="0.08" stop-opacity="0.69"/>
<stop offset="0.21" stop-opacity="0.32"/>
<stop offset="1" stop-opacity="0"/>
</linearGradient>
</defs>
</svg>
