<svg width="731" height="605" viewBox="0 0 731 605" fill="none" xmlns="http://www.w3.org/2000/svg">
<g clip-path="url(#clip0)">
<path opacity="0.18" d="M730.308 437.475C728.881 462.482 725.984 487.877 715.908 510.787C697.508 552.696 656.449 581.658 612.471 594.409C601.29 597.615 589.885 599.985 578.352 601.499C544.666 606.059 510.007 604.07 476.148 599.899C447.088 596.311 418.202 591.124 389.186 587.147C372.84 584.986 356.43 583.041 339.976 582.068C308.473 580.231 276.906 581.614 245.425 583.884C243.955 583.884 242.463 584.078 241.101 584.208C212.496 586.369 183.436 589.114 155.134 585.656C148.585 584.887 142.087 583.732 135.675 582.198C132.374 581.42 129.109 580.512 125.88 579.475C93.3397 569.165 64.7994 547.53 39.6969 525.204C13.8592 502.229 1.75121 466.61 0.583652 432.763C-0.800121 392.908 -6.20549 326.361 129.058 217.214C157.469 194.174 155.069 149.024 168.582 115.004C188.042 66.2232 227.912 24.6176 278.009 8.775C299.63 1.90197 322.614 -0.151297 345.338 0.129676C374.227 0.368226 402.98 4.12788 430.959 11.3254C483.802 24.8337 546.504 52.261 586.352 94.3853C593.243 101.612 599.466 109.446 604.947 117.793C638.892 169.837 635.065 237.552 670.006 289.273C685.141 311.599 706.762 329.365 718.784 353.507C731.605 379.011 731.951 408.902 730.308 437.475Z" fill="#F39AC4"/>
<path d="M245.425 583.884C243.955 583.884 242.463 584.078 241.101 584.208C212.496 586.369 183.436 589.114 155.134 585.656C148.585 584.887 142.087 583.733 135.675 582.198C132.374 581.42 129.109 580.512 125.88 579.475C122.983 487.272 202.182 365.157 211.825 350.503L241.512 351.757L335.327 355.712C250.506 436.2 242.549 533.006 245.425 583.884Z" fill="#F39AC4"/>
<path d="M245.425 583.884C243.955 583.884 242.463 584.078 241.101 584.208C212.496 586.369 183.436 589.114 155.134 585.656C148.585 584.887 142.087 583.733 135.675 582.198C132.374 581.42 129.109 580.512 125.88 579.475C122.983 487.272 202.182 365.157 211.825 350.503L241.512 351.757L335.327 355.712C250.506 436.2 242.549 533.006 245.425 583.884Z" fill="#3D467F"/>
<path d="M244.258 349.077C243.306 349.963 242.377 350.849 241.469 351.757C154.464 436.481 150.918 538.172 155.026 585.613C148.477 584.844 141.979 583.689 135.567 582.155C132.266 581.377 129.001 580.469 125.772 579.431C122.983 487.272 202.182 365.157 211.826 350.503L212.798 349.077H244.258Z" fill="#F39AC4"/>
<path d="M460.624 153.346C457.078 159.83 458.181 167.654 456.624 174.808C456.161 176.833 455.569 178.825 454.851 180.774C452.126 188.598 448.689 196.638 442.137 201.717C440.121 202.883 438.455 204.57 437.316 206.602C436.986 207.655 436.914 208.772 437.106 209.859C437.298 210.946 437.748 211.971 438.419 212.848C439.794 214.536 441.429 215.995 443.262 217.171C442.894 220.91 443.002 225.34 442.613 229.058C441.77 237.293 441.229 246.565 446.678 252.833C451.002 257.652 457.662 259.317 463.975 260.051C470.289 260.786 476.948 261.175 482.613 264.374C494.548 271.009 497.748 287.868 509.618 294.633C513.153 296.501 517.028 297.641 521.012 297.983C529.422 299.175 537.991 297.597 545.423 293.487C552.666 289.165 576.363 282.119 569.942 276.65C562.937 270.707 552.191 253.848 547.174 244.879C541.59 234.909 537.792 224.039 535.953 212.761C534.439 203.36 534.288 193.807 532.883 184.405C531.477 175.003 528.558 165.493 522.526 158.188C513.423 147.381 498.548 143.059 484.407 142.259C480.459 141.862 476.472 142.154 472.624 143.123C470.695 143.611 468.888 144.49 467.315 145.706C465.741 146.922 464.435 148.448 463.478 150.191" fill="#FDD4C1"/>
<path d="M599.952 197.524C599.391 202.521 598.01 207.392 595.866 211.94C594.633 215.006 592.869 217.83 590.655 220.283C586.331 224.13 586.201 230.636 583.542 235.715C581.724 238.96 579.206 241.758 576.169 243.906C570.091 248.391 563.002 251.31 555.529 252.407C548.055 253.504 540.426 252.744 533.315 250.196L531.153 249.374C524.802 246.411 518.78 242.789 513.185 238.568C512.834 238.336 512.551 238.015 512.364 237.638C511.996 236.731 512.775 235.823 513.466 235.11C515.751 232.765 517.549 229.992 518.759 226.951C519.969 223.91 520.565 220.659 520.515 217.387C520.626 214.589 519.762 211.839 518.072 209.606C517.196 208.525 515.978 207.774 514.619 207.476C513.26 207.177 511.839 207.349 510.591 207.963C508.429 209.195 506.267 212.135 504.407 210.557C503.861 209.961 503.526 209.201 503.456 208.396C502.835 203.584 501.562 198.88 499.672 194.412C497.129 190.097 494 186.154 490.375 182.697C481.948 173.414 475.176 162.756 470.353 151.185C470.064 150.143 469.422 149.234 468.537 148.613C467.709 148.249 466.794 148.13 465.899 148.267C461.957 148.498 458.003 148.426 454.072 148.051C452.067 148.05 450.119 147.381 448.537 146.149C445.856 143.577 447.067 138.995 449.229 135.991C454.137 129.096 462.332 125.487 470.137 122.223C468.126 120.905 464.948 118.009 462.937 116.69C462.242 116.327 461.682 115.752 461.337 115.048C460.905 113.708 462.202 112.411 463.499 111.762C465.76 110.617 468.322 110.202 470.829 110.574C470.461 104.608 464.061 99.0755 466.505 93.6289C468.17 90.0411 472.991 89.1117 476.84 90.0627C480.688 91.0137 484.018 93.3695 487.759 94.6231C488.602 92.0079 486.267 89.2846 486.699 86.5613C486.931 85.5858 487.434 84.6953 488.149 83.992C488.864 83.2886 489.763 82.8008 490.742 82.5845C492.736 82.192 494.796 82.3109 496.732 82.9303C501.26 84.1425 505.458 86.3587 509.012 89.4143C511.09 91.6092 513.437 93.5335 515.996 95.1418C521.056 97.757 527.131 96.309 532.818 96.309C539.521 96.5786 546.118 98.0806 552.277 100.74C556.365 102.273 560.364 104.034 564.255 106.013C569.446 108.595 574.291 111.82 578.677 115.61C589.747 125.336 596.666 139.19 599.714 153.584C602.431 168.098 602.512 182.982 599.952 197.524Z" fill="#3D467F"/>
<path d="M96.4102 128.361L107.437 116.82L369.511 128.361L430.44 344.149L419.413 355.69H145.772L96.4102 128.361Z" fill="#F39AC4"/>
<path d="M96.4102 128.361L107.437 116.82L369.511 128.361L430.44 344.149L419.413 355.69H145.772L96.4102 128.361Z" fill="url(#paint0_linear)"/>
<path d="M107.437 116.82H380.538L430.44 344.149H156.799L107.437 116.82Z" fill="#FE75B7"/>
<path d="M118.464 124.579H372.927L419.413 336.39H164.453L118.464 124.579Z" fill="white"/>
<path d="M317.079 423.643C316.899 425.171 316.34 426.629 315.453 427.886C314.565 429.143 313.378 430.159 311.998 430.84C308.019 433.174 303.155 433.304 298.528 433.369C295.319 433.652 292.087 433.231 289.057 432.137C286.473 430.743 284.153 428.907 282.203 426.712C270.96 415.905 256.02 407.714 250.441 393.211C247.739 386.165 247.609 378.449 247.522 370.949C247.522 362.974 247.522 354.221 252.82 348.234C256.949 343.5 263.782 341.101 266.463 335.417C261.95 332.878 257.852 329.664 254.312 325.886C252.566 323.976 251.271 321.699 250.523 319.223C249.775 316.747 249.591 314.134 249.987 311.578C256.251 313.664 262.252 316.471 267.868 319.942C278.113 326.272 286.982 334.593 293.949 344.413C300.917 354.233 305.841 365.351 308.43 377.109C310.592 387.505 310.809 398.312 313.663 408.578C314.938 413.333 317.641 418.866 317.079 423.643Z" fill="#FDD4C1"/>
<path d="M317.079 423.643C316.049 424.101 315.129 424.771 314.376 425.609C311.457 429.932 304.257 428.83 300.581 425.047C296.906 421.265 295.479 415.927 292.971 411.28C286.7 399.501 273.122 390.639 273.165 377.304C273.165 366.994 281.814 357.852 281.036 347.715C280.603 342.355 277.684 337.989 274.549 333.926C271.637 329.63 269.398 324.914 267.911 319.942C278.156 326.272 287.025 334.593 293.993 344.413C300.96 354.233 305.884 365.351 308.473 377.109C310.635 387.505 310.852 398.312 313.706 408.578C314.938 413.333 317.641 418.866 317.079 423.643Z" fill="url(#paint1_linear)"/>
<path d="M592.817 563.654C590.158 576.946 586.18 590.692 578.353 601.499C577.228 601.65 576.191 601.801 574.98 601.909C568.234 602.731 561.459 603.314 554.656 603.66C528.427 604.676 502.159 603.418 476.148 599.899C447.089 596.311 418.203 591.124 389.187 587.147C390.543 585.614 392.099 584.269 393.814 583.149C402.487 576.701 409.637 568.426 414.756 558.909C419.875 549.392 422.838 538.867 423.435 528.078C421.715 526.931 419.707 526.287 417.64 526.219C412.149 525.701 405.078 526.889 401.035 526.392C367.435 522.178 282.874 439.766 282.874 439.766L324.884 418.758L387.392 439.766C387.392 439.766 454.613 334.25 481.921 303.97C509.229 273.689 558.483 273.063 558.483 273.063C564.384 272.842 570.283 273.571 575.953 275.224C609.423 285.015 626.677 325.583 628.925 359.927C633.444 427.49 605.877 498.49 592.817 563.654Z" fill="white"/>
<path d="M599.952 197.524C599.391 202.521 598.01 207.392 595.866 211.94C594.633 215.006 592.869 217.83 590.655 220.283C586.331 224.13 586.201 230.636 583.542 235.715C581.725 238.96 579.206 241.758 576.169 243.906C570.091 248.391 563.002 251.31 555.529 252.407C548.055 253.504 540.426 252.744 533.315 250.196L531.153 249.374C530.222 247.917 529.495 246.339 528.991 244.684L537.639 244.382C537.473 241.352 536.249 238.476 534.18 236.255L553.877 235.866C556.568 236.185 559.288 235.605 561.615 234.218C563.942 232.83 565.745 230.712 566.742 228.193C569.726 223.568 572.817 218.511 572.32 213.064C571.815 209.86 570.692 206.784 569.012 204.008C564.688 195.557 560.364 186.717 559.153 177.359C557.942 168 560.731 157.431 568.277 151.596C569.869 150.61 571.274 149.352 572.428 147.878C573.394 146.104 573.73 144.054 573.38 142.064C572.385 133.03 565.358 126.006 558.742 119.738L544.104 105.797C545.747 107.375 553.228 107.569 555.672 108.348C559.786 109.757 563.82 111.387 567.758 113.232C567.153 111.438 565.596 108.909 564.234 106.013C569.424 108.595 574.269 111.819 578.655 115.61C589.725 125.336 596.644 139.19 599.693 153.584C602.417 168.097 602.505 182.981 599.952 197.524Z" fill="#A880F7"/>
<path d="M592.817 563.654C590.158 576.946 586.179 590.692 578.352 601.499C577.228 601.65 576.19 601.801 574.979 601.909C544.861 604.914 516.601 607.421 486.677 600.872C482.029 599.856 476.537 597.824 475.715 593.134C475.541 590.423 476.238 587.727 477.704 585.44C498.201 544.072 511.326 496.09 510.764 449.708C499.607 448.303 485.834 469.895 477.704 477.265L447.802 504.368C434.829 516.04 419.91 528.489 402.591 527.127C392.386 526.328 383.262 520.773 374.484 515.37L343.716 496.09C334.657 490.449 324.819 483.771 322.441 473.353C336.905 474.456 349.576 482.842 362.548 489.304C375.521 495.766 391.154 500.5 404.191 494.167C413.575 489.606 419.543 480.291 425.121 471.495C461.758 413.604 501.928 358.025 545.401 305.072C555.888 292.298 557.639 273.257 576.017 275.31C609.487 285.101 626.741 325.669 628.99 360.013C633.444 427.49 605.876 498.49 592.817 563.654Z" fill="#E1EEFB"/>
<path opacity="0.18" d="M181.166 166.466C183.442 163.542 186.298 161.121 189.556 159.355C193.278 157.132 197.373 155.601 201.642 154.838C207.148 154.131 212.744 154.81 217.921 156.814C223.098 158.819 227.692 162.084 231.285 166.314C238.409 174.968 242.102 185.937 241.663 197.135C243.118 196.642 244.698 196.67 246.134 197.214C247.57 197.758 248.772 198.785 249.533 200.118C250.955 202.855 251.484 205.969 251.047 209.022C251.004 211.582 250.256 214.079 248.885 216.241C248.177 217.306 247.157 218.124 245.964 218.585C244.771 219.046 243.465 219.125 242.225 218.813C242.964 221.96 242.982 225.233 242.278 228.388C241.575 231.543 240.167 234.498 238.161 237.033C236.474 239.195 234.29 241.118 233.836 243.777C233.404 247.105 235.998 250.131 239.112 251.579C242.267 252.714 245.487 253.66 248.755 254.41C255.827 257.124 261.643 262.36 265.079 269.107C268.461 275.806 270.996 282.899 272.625 290.224C273.014 291.693 273.317 293.487 272.193 294.546C271.385 295.128 270.394 295.397 269.404 295.303L183.761 297.961C182.788 288.041 182.226 276.823 188.907 269.41C194.074 263.704 202.204 261.953 209.772 260.484C209.679 256.111 208.655 251.807 206.766 247.862C206.276 246.631 205.461 245.555 204.41 244.749C203.264 244.158 202.03 243.756 200.755 243.56C192.345 241.399 187.783 232.343 185.62 223.936C185.345 222.412 184.803 220.949 184.02 219.613C182.782 218.093 181.215 216.874 179.437 216.047C168.994 210.06 166.81 203.381 174.334 194.433C181.102 186.717 174.594 175.522 181.166 166.466Z" fill="#F39AC4"/>
<path opacity="0.32" d="M24.6484 48.5219L60.6482 226.68H168.172L137.707 48.5219H24.6484Z" fill="#F39AC4"/>
<path opacity="0.32" d="M57.5779 291.218L93.556 469.398H201.08L170.615 291.218H57.5779Z" fill="#F39AC4"/>
<path opacity="0.32" d="M276.906 48.5219L312.884 226.68H420.408L389.943 48.5219H276.906Z" fill="#F39AC4"/>
<path d="M288.301 30.237L324.279 208.396H431.802L401.338 30.237H288.301Z" fill="url(#paint2_linear)"/>
<path d="M44.0645 53.3849L75.848 210.751H170.809L143.912 53.3849H44.0645Z" fill="url(#paint3_linear)"/>
<path d="M65.6213 283.394L101.599 461.552H209.123L178.658 283.394H65.6213Z" fill="url(#paint4_linear)"/>
</g>
<defs>
<linearGradient id="paint0_linear" x1="48216.8" y1="18187.4" x2="24926.2" y2="67514.6" gradientUnits="userSpaceOnUse">
<stop offset="0.01"/>
<stop offset="0.13" stop-opacity="0.69"/>
<stop offset="0.25" stop-opacity="0.32"/>
<stop offset="1" stop-opacity="0"/>
</linearGradient>
<linearGradient id="paint1_linear" x1="9107.55" y1="17844.5" x2="4555.74" y2="19029.5" gradientUnits="userSpaceOnUse">
<stop offset="0.01"/>
<stop offset="0.13" stop-opacity="0.69"/>
<stop offset="0.25" stop-opacity="0.32"/>
<stop offset="1" stop-opacity="0"/>
</linearGradient>
<linearGradient id="paint2_linear" x1="262.247" y1="45.2367" x2="1259.88" y2="780.622" gradientUnits="userSpaceOnUse">
<stop offset="0.01" stop-color="white"/>
<stop offset="0.13" stop-color="white" stop-opacity="0.69"/>
<stop offset="0.15" stop-color="white" stop-opacity="0.61"/>
<stop offset="0.2" stop-color="white" stop-opacity="0.47"/>
<stop offset="0.25" stop-color="white" stop-opacity="0.34"/>
<stop offset="0.3" stop-color="white" stop-opacity="0.23"/>
<stop offset="0.36" stop-color="white" stop-opacity="0.15"/>
<stop offset="0.44" stop-color="white" stop-opacity="0.08"/>
<stop offset="0.52" stop-color="white" stop-opacity="0.03"/>
<stop offset="0.65" stop-color="white" stop-opacity="0.01"/>
<stop offset="1" stop-color="white" stop-opacity="0"/>
</linearGradient>
<linearGradient id="paint3_linear" x1="1277.29" y1="4905" x2="60239.1" y2="39897.4" gradientUnits="userSpaceOnUse">
<stop offset="0.01" stop-color="white"/>
<stop offset="0.13" stop-color="white" stop-opacity="0.69"/>
<stop offset="0.15" stop-color="white" stop-opacity="0.61"/>
<stop offset="0.2" stop-color="white" stop-opacity="0.47"/>
<stop offset="0.25" stop-color="white" stop-opacity="0.34"/>
<stop offset="0.3" stop-color="white" stop-opacity="0.23"/>
<stop offset="0.36" stop-color="white" stop-opacity="0.15"/>
<stop offset="0.44" stop-color="white" stop-opacity="0.08"/>
<stop offset="0.52" stop-color="white" stop-opacity="0.03"/>
<stop offset="0.65" stop-color="white" stop-opacity="0.01"/>
<stop offset="1" stop-color="white" stop-opacity="0"/>
</linearGradient>
<linearGradient id="paint4_linear" x1="2691.7" y1="24880" x2="78261.7" y2="69731.9" gradientUnits="userSpaceOnUse">
<stop offset="0.01" stop-color="white"/>
<stop offset="0.13" stop-color="white" stop-opacity="0.69"/>
<stop offset="0.15" stop-color="white" stop-opacity="0.61"/>
<stop offset="0.2" stop-color="white" stop-opacity="0.47"/>
<stop offset="0.25" stop-color="white" stop-opacity="0.34"/>
<stop offset="0.3" stop-color="white" stop-opacity="0.23"/>
<stop offset="0.36" stop-color="white" stop-opacity="0.15"/>
<stop offset="0.44" stop-color="white" stop-opacity="0.08"/>
<stop offset="0.52" stop-color="white" stop-opacity="0.03"/>
<stop offset="0.65" stop-color="white" stop-opacity="0.01"/>
<stop offset="1" stop-color="white" stop-opacity="0"/>
</linearGradient>
<clipPath id="clip0">
<rect width="731" height="605" fill="white"/>
</clipPath>
</defs>
</svg>
