<svg width="76" height="80" viewBox="0 0 76 80" fill="none" xmlns="http://www.w3.org/2000/svg">
<g clip-path="url(#clip0)">
<path opacity="0.4" d="M42.0364 0.0389494C33.6821 0.728766 28.5294 9.49547 21.0129 13.2178C17.6362 14.8908 13.8319 15.5042 10.3683 16.987C4.47669 19.5079 -0.494214 25.3412 0.0376193 31.7397C0.727131 40.0336 9.6507 45.1838 12.4555 53.0155C13.2292 55.1774 13.5125 57.492 14.3103 59.6432C16.3013 65.013 21.6971 68.9309 27.4056 69.1533C31.9904 69.3314 36.3653 67.3557 40.9019 66.6592C46.4554 65.8046 52.1172 66.8856 57.7388 66.694C63.3605 66.5025 69.4979 64.5871 72.2546 59.6793C74.4862 55.7052 73.941 50.7546 72.7063 46.3652C71.4716 41.9758 69.5968 37.6922 69.3469 33.1381C69.0583 27.8352 70.7754 21.726 67.2824 17.7344C64.6901 14.7649 59.9022 14.0643 58.0528 10.5818C56.0565 6.8313 55.3563 6.33169 51.9996 4.1082C48.6803 1.9048 46.4126 -0.322702 42.0364 0.0389494Z" fill="url(#paint0_linear)"/>
<path d="M63.6248 7.73938H43.4325C41.8008 7.73938 40.478 9.0653 40.478 10.7009V54.5558C40.478 56.1914 41.8008 57.5174 43.4325 57.5174H63.6248C65.2565 57.5174 66.5793 56.1914 66.5793 54.5558V10.7009C66.5793 9.0653 65.2565 7.73938 63.6248 7.73938Z" fill="url(#paint1_linear)"/>
<path d="M65.5062 11.4737V53.3289C65.5059 54.0629 65.2147 54.7668 64.6968 55.2857C64.1788 55.8046 63.4765 56.0962 62.7442 56.0962H44.3131C43.5812 56.0954 42.8796 55.8036 42.3622 55.2848C41.8449 54.7659 41.5541 54.0625 41.5537 53.3289V11.4751C41.5541 10.7411 41.845 10.0373 42.3626 9.5182C42.8802 8.9991 43.5822 8.70713 44.3144 8.70642H47.1206V8.92475C47.1206 9.12932 47.1608 9.33189 47.2389 9.52089C47.317 9.70989 47.4315 9.88162 47.5758 10.0263C47.7201 10.1709 47.8914 10.2857 48.0799 10.364C48.2685 10.4422 48.4706 10.4825 48.6747 10.4825H58.2396C58.4438 10.4827 58.6459 10.4425 58.8346 10.3643C59.0232 10.2861 59.1946 10.1713 59.3389 10.0267C59.4833 9.88197 59.5977 9.71017 59.6758 9.5211C59.7538 9.33202 59.7939 9.12937 59.7937 8.92475V8.70642H62.7455C63.4775 8.70713 64.1793 8.99891 64.6969 9.51773C65.2144 10.0365 65.5055 10.74 65.5062 11.4737Z" fill="url(#paint2_linear)"/>
<path opacity="0.81" d="M65.5062 11.4737V53.3289C65.5059 54.0629 65.2147 54.7668 64.6968 55.2857C64.1788 55.8046 63.4765 56.0962 62.7442 56.0962H44.3131C43.5812 56.0954 42.8796 55.8036 42.3622 55.2848C41.8449 54.7659 41.5541 54.0625 41.5537 53.3289V11.4751C41.5541 10.7411 41.845 10.0373 42.3626 9.5182C42.8802 8.9991 43.5822 8.70713 44.3144 8.70642H47.1206V8.92475C47.1206 9.12932 47.1608 9.33189 47.2389 9.52089C47.317 9.70989 47.4315 9.88162 47.5758 10.0263C47.7201 10.1709 47.8914 10.2857 48.0799 10.364C48.2685 10.4422 48.4706 10.4825 48.6747 10.4825H58.2396C58.4438 10.4827 58.6459 10.4425 58.8346 10.3643C59.0232 10.2861 59.1946 10.1713 59.3389 10.0267C59.4833 9.88197 59.5977 9.71017 59.6758 9.5211C59.7538 9.33202 59.7939 9.12937 59.7937 8.92475V8.70642H62.7455C63.4775 8.70713 64.1793 8.99891 64.6969 9.51773C65.2144 10.0365 65.5055 10.74 65.5062 11.4737Z" fill="url(#paint3_linear)"/>
<path opacity="0.17" d="M61.7661 35.4646H46.8854C46.1327 35.4646 45.5225 36.0763 45.5225 36.8308V40.4902C45.5225 41.2448 46.1327 41.8565 46.8854 41.8565H61.7661C62.5189 41.8565 63.1291 41.2448 63.1291 40.4902V36.8308C63.1291 36.0763 62.5189 35.4646 61.7661 35.4646Z" fill="white"/>
<path opacity="0.17" d="M61.7661 44.4578H46.8854C46.1327 44.4578 45.5225 45.0694 45.5225 45.824V49.4834C45.5225 50.2379 46.1327 50.8496 46.8854 50.8496H61.7661C62.5189 50.8496 63.1291 50.2379 63.1291 49.4834V45.824C63.1291 45.0694 62.5189 44.4578 61.7661 44.4578Z" fill="white"/>
<path d="M70.0403 39.1038L63.7265 33.0388C63.7265 33.0388 61.4281 34.8631 62.4089 38.1649C63.3897 41.4666 66.5794 45.4408 66.5794 45.4408V54.549C66.5794 54.549 66.6155 57.5119 63.6236 57.5119H43.4326C43.4326 57.5119 45.1938 62.1598 48.7777 66.1058C52.3615 70.0518 58.7916 74.9261 58.5164 79.9999H76.0001C76.0001 79.9999 71.5209 64.019 73.0603 57.5173C74.5996 51.0156 74.025 42.928 70.0403 39.1038Z" fill="url(#paint4_linear)"/>
<path d="M43.3151 26.6403C42.6764 26.4836 41.0755 25.3772 39.7713 24.1945C38.9428 23.4444 38.2333 22.6635 37.9647 22.0741C37.2725 20.5579 37.1509 17.2374 39.7713 17.4919C39.7713 17.4919 40.8403 17.2481 43.3151 20.9463C45.7899 24.6445 44.3601 26.8975 43.3151 26.6403Z" fill="url(#paint5_linear)"/>
<path d="M43.8255 32.8058C43.1574 32.7656 41.2866 31.9177 39.7673 30.9546C38.8747 30.3894 38.0969 29.784 37.7442 29.2776C36.7901 27.9114 36.0752 24.6672 38.6996 24.4462C38.6996 24.4462 38.9963 24.3123 39.7686 24.7141C40.414 25.0476 41.3908 25.7482 42.8059 27.2042C45.9074 30.3961 44.9025 32.87 43.8255 32.8058Z" fill="url(#paint6_linear)"/>
<path d="M42.198 40.8291C41.7543 40.7086 40.7401 39.9384 39.7713 39.0115C38.8359 38.1208 37.9526 37.0854 37.652 36.3447C37.0373 34.8311 36.8502 31.4865 39.023 31.686C39.023 31.686 39.2542 31.6151 39.7713 32.045C40.259 32.4469 41.002 33.3041 42.0429 35.0882C44.1903 38.7624 43.0665 41.0635 42.198 40.8291Z" fill="url(#paint7_linear)"/>
<path d="M43.1947 47.4795C42.6321 47.4367 40.9966 46.6116 39.7712 45.7302C39.1939 45.315 38.7022 44.8877 38.4657 44.5247C37.7174 43.3929 37.1294 40.7207 39.1592 40.564C39.1592 40.564 39.3316 40.4863 39.7712 40.6858C40.2589 40.9069 41.0781 41.4721 42.3542 42.8691C44.7755 45.5199 44.0232 47.5425 43.1947 47.4795Z" fill="url(#paint8_linear)"/>
<path opacity="0.17" d="M61.7661 17.4785H46.8854C46.1327 17.4785 45.5225 18.0902 45.5225 18.8448V22.5041C45.5225 23.2587 46.1327 23.8704 46.8854 23.8704H61.7661C62.5189 23.8704 63.1291 23.2587 63.1291 22.5041V18.8448C63.1291 18.0902 62.5189 17.4785 61.7661 17.4785Z" fill="white"/>
<path opacity="0.17" d="M61.7661 26.4716H46.8854C46.1327 26.4716 45.5225 27.0832 45.5225 27.8378V31.4972C45.5225 32.2517 46.1327 32.8634 46.8854 32.8634H61.7661C62.5189 32.8634 63.1291 32.2517 63.1291 31.4972V27.8378C63.1291 27.0832 62.5189 26.4716 61.7661 26.4716Z" fill="white"/>
<path opacity="0.81" d="M39.7711 17.4919V24.1891C38.9427 23.439 38.2331 22.6581 37.9645 22.0688C37.2777 20.5579 37.1507 17.2374 39.7711 17.4919Z" fill="url(#paint9_linear)"/>
<path opacity="0.81" d="M39.7712 24.7128V30.9546C38.8786 30.3894 38.1009 29.784 37.7481 29.2777C36.794 27.9114 36.0791 24.6673 38.7035 24.4463C38.7035 24.4463 39.0002 24.3177 39.7712 24.7128Z" fill="url(#paint10_linear)"/>
<path opacity="0.81" d="M39.7713 32.045V39.0101C38.8359 38.1194 37.9526 37.084 37.652 36.3433C37.0373 34.8297 36.8502 31.4851 39.023 31.6847C39.023 31.686 39.2542 31.611 39.7713 32.045Z" fill="url(#paint11_linear)"/>
<path opacity="0.81" d="M39.7712 40.6858V45.7302C39.1939 45.315 38.7022 44.8877 38.4657 44.5247C37.7174 43.3929 37.1294 40.7207 39.1592 40.564C39.1592 40.564 39.3316 40.4863 39.7712 40.6858Z" fill="url(#paint12_linear)"/>
<path d="M37.7722 5.08995V56.9709C37.7724 57.3595 37.6962 57.7444 37.5479 58.1036C37.3997 58.4627 37.1823 58.7891 36.9081 59.0639C36.634 59.3388 36.3086 59.5569 35.9503 59.7057C35.5921 59.8545 35.2082 59.931 34.8204 59.931H10.2572C9.86948 59.931 9.48553 59.8545 9.12731 59.7057C8.76909 59.5569 8.44363 59.3388 8.16951 59.0639C7.89539 58.7891 7.67799 58.4627 7.52973 58.1036C7.38147 57.7444 7.30524 57.3595 7.30542 56.9709V5.08995C7.30524 4.70127 7.38147 4.31637 7.52973 3.95723C7.67799 3.59809 7.89539 3.27176 8.16951 2.99686C8.44363 2.72196 8.76909 2.5039 9.12731 2.35512C9.48553 2.20634 9.86948 2.12976 10.2572 2.12976H34.8204C35.2082 2.12976 35.5921 2.20634 35.9503 2.35512C36.3086 2.5039 36.634 2.72196 36.9081 2.99686C37.1823 3.27176 37.3997 3.59809 37.5479 3.95723C37.6962 4.31637 37.7724 4.70127 37.7722 5.08995Z" fill="url(#paint13_linear)"/>
<path opacity="0.17" d="M14.8393 2.12976V59.931H10.2572C9.86948 59.931 9.48553 59.8545 9.12731 59.7057C8.76909 59.5569 8.44363 59.3388 8.16951 59.0639C7.89539 58.7891 7.67799 58.4627 7.52973 58.1036C7.38147 57.7444 7.30524 57.3595 7.30542 56.9709V5.08995C7.30524 4.70127 7.38147 4.31637 7.52973 3.95723C7.67799 3.59809 7.89539 3.27176 8.16951 2.99686C8.44363 2.72196 8.76909 2.5039 9.12731 2.35512C9.48553 2.20634 9.86948 2.12976 10.2572 2.12976H14.8393Z" fill="white"/>
<path opacity="0.19" d="M33.1741 29.4156V38.7676C33.1741 39.1659 33.0163 39.5478 32.7354 39.8294C32.4545 40.111 32.0735 40.2692 31.6762 40.2692H7.30542V27.9154H31.6762C31.8728 27.9152 32.0676 27.9539 32.2493 28.0292C32.4311 28.1045 32.5962 28.215 32.7353 28.3543C32.8744 28.4936 32.9848 28.6591 33.0601 28.8412C33.1354 29.0233 33.1741 29.2185 33.1741 29.4156Z" fill="url(#paint14_linear)"/>
<path d="M30.0552 25.6639H1.80923C0.981935 25.6639 0.311279 26.3362 0.311279 27.1655V36.5175C0.311279 37.3468 0.981935 38.019 1.80923 38.019H30.0552C30.8825 38.019 31.5531 37.3468 31.5531 36.5175V27.1655C31.5531 26.3362 30.8825 25.6639 30.0552 25.6639Z" fill="url(#paint15_linear)"/>
<path opacity="0.19" d="M31.838 14.1981H12.3926C12.204 14.1981 12.023 14.1231 11.8895 13.9895C11.756 13.8559 11.6808 13.6746 11.6804 13.4855C11.6804 13.2962 11.7555 13.1146 11.889 12.9807C12.0226 12.8468 12.2038 12.7716 12.3926 12.7716H31.838C32.0269 12.7716 32.208 12.8468 32.3416 12.9807C32.4751 13.1146 32.5502 13.2962 32.5502 13.4855C32.5502 13.5792 32.5318 13.672 32.4959 13.7585C32.4601 13.8451 32.4077 13.9237 32.3415 13.9899C32.2753 14.0561 32.1968 14.1085 32.1104 14.1443C32.024 14.18 31.9314 14.1983 31.838 14.1981Z" fill="url(#paint16_linear)"/>
<path opacity="0.19" d="M31.838 18.5835H12.3926C12.2038 18.5835 12.0226 18.5083 11.889 18.3744C11.7555 18.2405 11.6804 18.0589 11.6804 17.8696C11.6808 17.6805 11.756 17.4992 11.8895 17.3656C12.023 17.232 12.204 17.157 12.3926 17.157H31.838C31.9314 17.1568 32.024 17.1751 32.1104 17.2108C32.1968 17.2466 32.2753 17.299 32.3415 17.3652C32.4077 17.4314 32.4601 17.51 32.4959 17.5966C32.5318 17.6831 32.5502 17.7759 32.5502 17.8696C32.5502 18.0589 32.4751 18.2405 32.3416 18.3744C32.208 18.5083 32.0269 18.5835 31.838 18.5835Z" fill="url(#paint17_linear)"/>
<path opacity="0.19" d="M31.838 22.9662H12.3926C12.204 22.9662 12.023 22.8912 11.8895 22.7576C11.756 22.624 11.6808 22.4427 11.6804 22.2536C11.6804 22.0643 11.7555 21.8827 11.889 21.7488C12.0226 21.6149 12.2038 21.5397 12.3926 21.5397H31.838C32.0269 21.5397 32.208 21.6149 32.3416 21.7488C32.4751 21.8827 32.5502 22.0643 32.5502 22.2536C32.5502 22.3473 32.5318 22.4401 32.4959 22.5266C32.4601 22.6132 32.4077 22.6918 32.3415 22.758C32.2753 22.8241 32.1968 22.8766 32.1104 22.9123C32.024 22.9481 31.9314 22.9664 31.838 22.9662Z" fill="url(#paint18_linear)"/>
<path opacity="0.19" d="M9.69197 28.7982V34.4868C9.69188 34.771 9.58231 35.0442 9.38611 35.2493C9.18991 35.4545 8.92225 35.5758 8.639 35.5878C8.62299 35.5892 8.6069 35.5892 8.59089 35.5878H2.91578C2.62375 35.5878 2.34369 35.4716 2.1372 35.2646C1.9307 35.0576 1.8147 34.7769 1.8147 34.4841V28.7982C1.8147 28.6533 1.84319 28.5098 1.89854 28.376C1.95389 28.2422 2.03502 28.1206 2.13728 28.0182C2.23954 27.9158 2.36093 27.8346 2.49451 27.7793C2.6281 27.724 2.77125 27.6956 2.91578 27.6958H8.59089C8.73542 27.6956 8.87857 27.724 9.01215 27.7793C9.14574 27.8346 9.26713 27.9158 9.36939 28.0182C9.47165 28.1206 9.55278 28.2422 9.60813 28.376C9.66348 28.5098 9.69197 28.6533 9.69197 28.7982Z" fill="url(#paint19_linear)"/>
<path opacity="0.17" d="M8.76453 34.7239C8.76471 35.0147 8.72239 35.304 8.63892 35.5825C8.62291 35.5838 8.60682 35.5838 8.59081 35.5825H2.95312C2.73189 34.8442 2.80455 34.0487 3.15584 33.3629C3.50713 32.6771 4.10975 32.1544 4.83725 31.9043C4.53209 31.7314 4.29152 31.4634 4.15201 31.141C4.01251 30.8187 3.98167 30.4595 4.06418 30.118C4.14669 29.7765 4.33805 29.4712 4.60924 29.2485C4.88043 29.0259 5.21666 28.8979 5.56694 28.8841C5.91723 28.8702 6.26247 28.9712 6.55031 29.1718C6.83814 29.3724 7.05288 29.6616 7.16197 29.9955C7.27105 30.3295 7.26853 30.69 7.15477 31.0224C7.04102 31.3547 6.82225 31.6409 6.53163 31.8374C7.17089 32.0014 7.73742 32.3742 8.14177 32.8969C8.54612 33.4196 8.76524 34.0624 8.76453 34.7239Z" fill="white"/>
</g>
<defs>
<linearGradient id="paint0_linear" x1="36.9002" y1="-18.9367" x2="-15.5171" y2="7.68982" gradientUnits="userSpaceOnUse">
<stop stop-color="#D1CFFF"/>
<stop offset="1" stop-color="#FFCDFA"/>
<stop offset="1" stop-color="#FFCDFA"/>
</linearGradient>
<linearGradient id="paint1_linear" x1="51.3773" y1="-19.642" x2="101.898" y2="14.4359" gradientUnits="userSpaceOnUse">
<stop stop-color="#D5C1FC"/>
<stop offset="1" stop-color="#FB9CCB"/>
</linearGradient>
<linearGradient id="paint2_linear" x1="51.5558" y1="-17.3612" x2="98.9677" y2="13.4661" gradientUnits="userSpaceOnUse">
<stop stop-color="#D5C1FC"/>
<stop offset="1" stop-color="#FB9CCB"/>
</linearGradient>
<linearGradient id="paint3_linear" x1="53.8126" y1="-25.4938" x2="53.3709" y2="64.0498" gradientUnits="userSpaceOnUse">
<stop/>
<stop offset="0.97" stop-opacity="0.1"/>
</linearGradient>
<linearGradient id="paint4_linear" x1="43.4326" y1="56.5194" x2="76.0001" y2="56.5194" gradientUnits="userSpaceOnUse">
<stop stop-color="#ECC4D7"/>
<stop offset="0.42" stop-color="#EFD4D1"/>
<stop offset="1" stop-color="#F2EAC9"/>
</linearGradient>
<linearGradient id="paint5_linear" x1="3124.04" y1="1530.34" x2="3506.1" y2="1530.34" gradientUnits="userSpaceOnUse">
<stop stop-color="#ECC4D7"/>
<stop offset="0.42" stop-color="#EFD4D1"/>
<stop offset="1" stop-color="#F2EAC9"/>
</linearGradient>
<linearGradient id="paint6_linear" x1="3455.01" y1="1815.19" x2="3934.23" y2="1815.19" gradientUnits="userSpaceOnUse">
<stop stop-color="#ECC4D7"/>
<stop offset="0.42" stop-color="#FFBBAB"/>
<stop offset="1" stop-color="#FFBBAB"/>
</linearGradient>
<linearGradient id="paint7_linear" x1="2631.34" y1="2513.64" x2="2904.07" y2="2513.64" gradientUnits="userSpaceOnUse">
<stop stop-color="#ECC4D7"/>
<stop offset="0.42" stop-color="#EFD4D1"/>
<stop offset="1" stop-color="#F2EAC9"/>
</linearGradient>
<linearGradient id="paint8_linear" x1="2736.72" y1="2318.37" x2="3026.47" y2="2318.37" gradientUnits="userSpaceOnUse">
<stop stop-color="#ECC4D7"/>
<stop offset="0.42" stop-color="#EFD4D1"/>
<stop offset="1" stop-color="#F2EAC9"/>
</linearGradient>
<linearGradient id="paint9_linear" x1="915.323" y1="1075.82" x2="1020.95" y2="1074.42" gradientUnits="userSpaceOnUse">
<stop/>
<stop offset="0.97" stop-opacity="0.1"/>
</linearGradient>
<linearGradient id="paint10_linear" x1="1180.59" y1="1386.9" x2="1317.49" y2="1384.48" gradientUnits="userSpaceOnUse">
<stop/>
<stop offset="0.97" stop-opacity="0.1"/>
</linearGradient>
<linearGradient id="paint11_linear" x1="1044.21" y1="1980.69" x2="1164.05" y2="1979.04" gradientUnits="userSpaceOnUse">
<stop/>
<stop offset="0.97" stop-opacity="0.1"/>
</linearGradient>
<linearGradient id="paint12_linear" x1="839.163" y1="1718.83" x2="933.997" y2="1717.36" gradientUnits="userSpaceOnUse">
<stop/>
<stop offset="0.97" stop-opacity="0.1"/>
</linearGradient>
<linearGradient id="paint13_linear" x1="20.0277" y1="-29.665" x2="78.8053" y2="10.1899" gradientUnits="userSpaceOnUse">
<stop stop-color="#D5C1FC"/>
<stop offset="1" stop-color="#FB9CCB"/>
</linearGradient>
<linearGradient id="paint14_linear" x1="18.1893" y1="31.1234" x2="24.7093" y2="42.2487" gradientUnits="userSpaceOnUse">
<stop stop-color="#183866"/>
<stop offset="1" stop-color="#1A7FC1"/>
</linearGradient>
<linearGradient id="paint15_linear" x1="13.3572" y1="18.8678" x2="20.9542" y2="43.5803" gradientUnits="userSpaceOnUse">
<stop stop-color="#D5C1FC"/>
<stop offset="1" stop-color="#FB9CCB"/>
</linearGradient>
<linearGradient id="paint16_linear" x1="6430.39" y1="98.8334" x2="6431.49" y2="171.481" gradientUnits="userSpaceOnUse">
<stop stop-color="#183866"/>
<stop offset="1" stop-color="#1A7FC1"/>
</linearGradient>
<linearGradient id="paint17_linear" x1="6285.76" y1="105.415" x2="6286.86" y2="178.063" gradientUnits="userSpaceOnUse">
<stop stop-color="#183866"/>
<stop offset="1" stop-color="#1A7FC1"/>
</linearGradient>
<linearGradient id="paint18_linear" x1="6141.13" y1="111.995" x2="6142.23" y2="184.643" gradientUnits="userSpaceOnUse">
<stop stop-color="#183866"/>
<stop offset="1" stop-color="#1A7FC1"/>
</linearGradient>
<linearGradient id="paint19_linear" x1="768.825" y1="1892.03" x2="771.582" y2="1892.03" gradientUnits="userSpaceOnUse">
<stop stop-color="#183866"/>
<stop offset="1" stop-color="#1A7FC1"/>
</linearGradient>
<clipPath id="clip0">
<rect width="76" height="80" fill="white"/>
</clipPath>
</defs>
</svg>
