<svg width="1440" height="900" viewBox="0 0 1440 900" fill="none" xmlns="http://www.w3.org/2000/svg">
<g clip-path="url(#clip0)">
<rect width="1440" height="900" fill="#F4F5F7"/>
<path d="M1073.01 929.794L706.448 713.32C694.782 706.78 684.773 696.015 696.142 688.987L1064 477.121C1069.53 473.702 1077.9 471.472 1083.51 474.721L1468.35 697.862C1480.01 704.636 1482.12 723.555 1470.47 730.328L1121.38 929.454C1114.04 933.711 1105.72 935.981 1097.24 936.04C1088.76 936.1 1080.41 933.947 1073.01 929.794V929.794Z" fill="url(#paint0_linear)"/>
<path d="M1314.92 598.66C1314.71 599.106 1313.6 603.226 1312.8 602.355C1311.99 601.484 1307.36 603.459 1307.36 603.459L1294.61 587.216L1296.31 581.907H1307.82" fill="url(#paint1_linear)"/>
<path d="M1253.13 528.675L1251.91 524.428L1238.46 517.103V494.256C1238.46 493.81 1251.47 501.9 1251.47 501.9L1252.08 500.626C1252.81 497.123 1254.15 493.774 1256.04 490.731L1246.58 473.277L1258.61 464.147L1267.6 482.153C1270.87 481.395 1274.28 481.453 1277.52 482.323V465.06L1294.71 474.594V492.663C1298.09 495.912 1301.17 499.466 1303.89 503.28L1314.26 496.655L1325.97 518.908L1316.88 526.254L1317.66 529.992C1318.86 533.943 1319.82 537.963 1320.53 542.031L1334.32 549.611V572.394L1321.13 564.559C1320.55 568.709 1319.1 572.69 1316.88 576.238L1326.71 592.927L1314.24 602.355L1305.49 585.177H1294.58V602.355L1278.18 592.354V575.367C1274.41 571.682 1271.09 567.57 1268.28 563.116L1258.4 569.868L1246.5 547.127L1256.38 539.823L1255.4 536.404C1254.55 533.877 1253.78 531.266 1253.13 528.675Z" fill="url(#paint2_linear)"/>
<path d="M1222.01 503.769L1237.21 494.596L1240.99 500.201L1235.13 512.495" fill="url(#paint3_linear)"/>
<path d="M1241.88 579.508L1253.15 574.836V568.021" fill="url(#paint4_linear)"/>
<path d="M1278.07 611.889L1294.58 602.355L1290.4 589.87L1275.54 594.244L1278.07 611.889Z" fill="url(#paint5_linear)"/>
<path d="M1258.65 464.126L1242.12 473.638L1251.19 491.708L1261.09 491.878L1263.39 473.638L1258.65 464.126Z" fill="url(#paint6_linear)"/>
<path d="M1273.44 554.883C1277.28 553.378 1278.29 546.822 1275.7 540.24C1273.11 533.659 1267.91 529.544 1264.07 531.049C1260.24 532.554 1259.23 539.11 1261.82 545.691C1264.4 552.273 1269.61 556.388 1273.44 554.883Z" fill="url(#paint7_linear)"/>
<path d="M1294.82 474.594L1278.28 484.106L1261.09 474.594L1277.63 465.06L1294.82 474.594Z" fill="url(#paint8_linear)"/>
<path d="M1297.83 506.125L1314.37 496.613L1326.08 518.865L1309.54 528.399L1297.83 506.125Z" fill="url(#paint9_linear)"/>
<path d="M1326.73 592.927L1310.2 602.461L1297.73 611.888L1314.26 602.354L1326.73 592.927Z" fill="url(#paint10_linear)"/>
<path opacity="0.44" d="M1314.92 598.66C1314.71 599.106 1313.6 603.226 1312.8 602.355C1311.99 601.484 1307.36 603.459 1307.36 603.459L1294.61 587.216L1296.31 581.907H1307.82" fill="#053855"/>
<path d="M1253.13 528.675L1251.91 524.428L1238.46 517.103V494.256C1238.46 493.81 1251.47 501.9 1251.47 501.9L1252.08 500.626C1252.81 497.123 1254.15 493.774 1256.04 490.731L1246.58 473.277L1258.61 464.147L1267.6 482.153C1270.87 481.395 1274.28 481.453 1277.52 482.323V465.06L1294.71 474.594V492.663C1298.09 495.912 1301.17 499.466 1303.89 503.28L1314.26 496.655L1325.97 518.908L1316.88 526.254L1317.66 529.992C1318.86 533.943 1319.82 537.963 1320.53 542.031L1334.32 549.611V572.394L1321.13 564.559C1320.55 568.709 1319.1 572.69 1316.88 576.238L1326.71 592.927L1314.24 602.355L1305.49 585.177H1294.58V602.355L1278.18 592.354V575.367C1274.41 571.682 1271.09 567.57 1268.28 563.116L1258.4 569.868L1246.5 547.127L1256.38 539.823L1255.4 536.404C1254.55 533.877 1253.78 531.266 1253.13 528.675Z" fill="url(#paint11_linear)"/>
<path opacity="0.44" d="M1222.01 503.769L1237.21 494.596L1240.99 500.201L1235.13 512.495" fill="#053855"/>
<path d="M1241.88 579.508L1253.15 574.836V568.021" fill="url(#paint12_linear)"/>
<path d="M1278.07 611.889L1294.58 602.355L1290.4 589.87L1275.54 594.244L1278.07 611.889Z" fill="url(#paint13_linear)"/>
<path d="M1258.65 464.126L1242.12 473.638L1251.19 491.708L1261.09 491.878L1263.39 473.638L1258.65 464.126Z" fill="url(#paint14_linear)"/>
<path d="M1273.44 554.883C1277.28 553.378 1278.29 546.822 1275.7 540.24C1273.11 533.659 1267.91 529.544 1264.07 531.049C1260.24 532.554 1259.23 539.11 1261.82 545.691C1264.4 552.273 1269.61 556.388 1273.44 554.883Z" fill="url(#paint15_linear)"/>
<path d="M1297.83 506.125L1314.37 496.613L1326.08 518.865L1309.54 528.399L1297.83 506.125Z" fill="url(#paint16_linear)"/>
<path d="M1326.73 592.927L1310.2 602.461L1297.73 611.888L1314.26 602.354L1326.73 592.927Z" fill="url(#paint17_linear)"/>
<path opacity="0.44" d="M1253.13 528.675L1251.91 524.428L1238.46 517.103V494.256C1238.46 493.81 1251.47 501.9 1251.47 501.9L1252.08 500.626C1252.81 497.123 1254.15 493.774 1256.04 490.731L1246.58 473.277L1258.61 464.147L1267.6 482.153C1270.87 481.395 1274.28 481.453 1277.52 482.323V465.06L1294.71 474.594V492.663C1298.09 495.912 1301.17 499.466 1303.89 503.28L1314.26 496.655L1325.97 518.908L1316.88 526.254L1317.66 529.992C1318.86 533.943 1319.82 537.963 1320.53 542.031L1334.32 549.611V572.394L1321.13 564.559C1320.55 568.709 1319.1 572.69 1316.88 576.238L1326.71 592.927L1314.24 602.355L1305.49 585.177H1294.58V602.355L1278.18 592.354V575.367C1274.41 571.682 1271.09 567.57 1268.28 563.116L1258.4 569.868L1246.5 547.127L1256.38 539.823L1255.4 536.404C1254.55 533.877 1253.78 531.266 1253.13 528.675Z" fill="#053855"/>
<path opacity="0.1" d="M1241.88 579.508L1253.15 574.836V568.021" fill="#053855"/>
<path opacity="0.1" d="M1278.07 611.889L1294.58 602.355L1290.4 589.87L1275.54 594.244L1278.07 611.889Z" fill="#053855"/>
<path opacity="0.1" d="M1273.44 554.883C1277.28 553.378 1278.29 546.822 1275.7 540.24C1273.11 533.659 1267.91 529.544 1264.07 531.049C1260.24 532.554 1259.23 539.11 1261.82 545.691C1264.4 552.273 1269.61 556.388 1273.44 554.883Z" fill="#053855"/>
<path opacity="0.1" d="M1297.83 506.125L1314.37 496.613L1326.08 518.865L1309.54 528.399L1297.83 506.125Z" fill="#053855"/>
<path opacity="0.1" d="M1326.73 592.927L1310.2 602.461L1297.73 611.888L1314.26 602.354L1326.73 592.927Z" fill="#053855"/>
<path opacity="0.1" d="M1241.88 579.508L1253.15 574.836V568.021" fill="#053855"/>
<path opacity="0.44" d="M1278.07 611.889L1294.58 602.355L1290.4 589.87L1275.54 594.244L1278.07 611.889Z" fill="#053855"/>
<path d="M1236.66 538.188L1235.45 533.941L1221.99 526.616V503.853C1221.99 503.408 1235 511.497 1235 511.497L1235.62 510.223C1236.35 506.72 1237.68 503.372 1239.57 500.329L1230.11 482.875L1242.14 473.745L1251 491.644C1254.27 490.886 1257.68 490.945 1260.92 491.814V474.594L1278.12 484.128V502.197C1281.5 505.446 1284.57 509 1287.3 512.814L1297.75 506.125L1309.46 528.378L1300.28 535.703L1301.07 539.441C1302.26 543.392 1303.22 547.412 1303.93 551.48L1317.73 559.06V581.844L1304.59 574.008C1304.02 578.158 1302.57 582.139 1300.34 585.687L1310.18 602.376L1297.75 611.889L1289 594.711H1278.09V611.889L1261.63 601.888V584.901C1257.86 581.216 1254.54 577.104 1251.72 572.649L1241.84 579.402L1229.94 556.661L1239.82 549.357L1238.85 545.938C1238.02 543.411 1237.27 540.778 1236.66 538.188Z" fill="url(#paint18_linear)"/>
<path opacity="0.44" d="M1273.44 554.883C1277.28 553.378 1278.29 546.822 1275.7 540.24C1273.11 533.659 1267.91 529.544 1264.07 531.049C1260.24 532.554 1259.23 539.11 1261.82 545.691C1264.4 552.273 1269.61 556.388 1273.44 554.883Z" fill="#053855"/>
<path opacity="0.44" d="M1326.73 592.927L1310.2 602.461L1297.73 611.888L1314.26 602.354L1326.73 592.927Z" fill="#053855"/>
<path d="M1294.82 474.594L1278.28 484.106L1261.09 474.594L1277.63 465.06L1294.82 474.594Z" fill="url(#paint19_linear)"/>
<path opacity="0.44" d="M1294.82 474.53L1278.33 484.106L1261.09 474.658L1277.58 465.06L1294.82 474.53Z" fill="#053855"/>
<path d="M1334.26 549.59L1317.72 559.124V581.907L1334.26 572.394V549.59Z" fill="url(#paint20_linear)"/>
<path opacity="0.44" d="M1334.26 549.59L1317.72 559.124V581.907L1334.26 572.394V549.59Z" fill="#053855"/>
<path d="M1199.45 468.479C1199.28 468.797 1198.47 471.876 1197.83 471.218C1197.19 470.559 1193.79 472.025 1193.79 472.025L1184.3 459.964L1185.55 456.015H1194.05" fill="url(#paint21_linear)"/>
<path d="M1153.61 416.521L1152.72 413.4L1142.73 407.964V390.977C1142.73 390.637 1152.38 396.646 1152.38 396.646L1152.82 395.691C1153.37 393.09 1154.36 390.604 1155.76 388.344L1148.72 375.371L1157.65 368.597L1164.32 381.953C1166.74 381.393 1169.27 381.437 1171.67 382.08V369.34L1184.42 376.411V389.831C1186.96 392.23 1189.28 394.86 1191.33 397.687L1199.02 392.782L1207.71 409.301L1200.83 414.674L1201.42 417.455C1202.31 420.389 1203.02 423.374 1203.55 426.394L1213.79 432.021V449.008L1204.04 443.19C1203.61 446.268 1202.54 449.221 1200.89 451.853L1208.2 464.253L1198.94 471.26L1192.43 458.52H1184.34V471.26L1172.16 463.85V451.322C1169.38 448.601 1166.92 445.565 1164.83 442.277L1157.5 447.182L1148.66 430.301L1155.99 424.887L1155.37 422.36C1154.61 420.385 1154.06 418.432 1153.61 416.521Z" fill="url(#paint22_linear)"/>
<path d="M1130.47 398.026L1141.75 391.21L1144.56 395.372L1140.2 404.524" fill="url(#paint23_linear)"/>
<path d="M1145.22 454.252L1153.59 450.791V445.738" fill="url(#paint24_linear)"/>
<path d="M1172.08 478.288L1184.36 471.239L1181.24 461.96L1170.21 465.209L1172.08 478.288Z" fill="url(#paint25_linear)"/>
<path d="M1157.67 368.597L1145.39 375.668L1152.12 389.066L1159.5 389.194L1161.2 375.668L1157.67 368.597Z" fill="url(#paint26_linear)"/>
<path d="M1168.66 435.982C1171.5 434.867 1172.25 430 1170.32 425.11C1168.4 420.22 1164.54 417.16 1161.7 418.275C1158.86 419.39 1158.12 424.258 1160.04 429.148C1161.96 434.037 1165.82 437.097 1168.66 435.982Z" fill="url(#paint27_linear)"/>
<path d="M1184.53 376.368L1172.25 383.439L1159.5 376.368L1171.76 369.297L1184.53 376.368Z" fill="url(#paint28_linear)"/>
<path d="M1186.76 399.788L1199.04 392.718L1207.74 409.237L1195.45 416.308L1186.76 399.788Z" fill="url(#paint29_linear)"/>
<path d="M1208.2 464.232L1195.94 471.303L1186.68 478.288L1198.96 471.239L1208.2 464.232Z" fill="url(#paint30_linear)"/>
<path opacity="0.44" d="M1199.45 468.479C1199.28 468.797 1198.47 471.876 1197.83 471.218C1197.19 470.559 1193.79 472.025 1193.79 472.025L1184.3 459.964L1185.55 456.015H1194.05" fill="#053855"/>
<path d="M1153.61 416.521L1152.72 413.4L1142.73 407.964V390.977C1142.73 390.637 1152.38 396.646 1152.38 396.646L1152.82 395.691C1153.37 393.09 1154.36 390.604 1155.76 388.344L1148.72 375.371L1157.65 368.597L1164.32 381.953C1166.74 381.393 1169.27 381.437 1171.67 382.08V369.34L1184.42 376.411V389.831C1186.96 392.23 1189.28 394.86 1191.33 397.687L1199.02 392.782L1207.71 409.301L1200.83 414.674L1201.42 417.455C1202.31 420.389 1203.02 423.374 1203.55 426.394L1213.79 432.021V449.008L1204.04 443.19C1203.61 446.268 1202.54 449.221 1200.89 451.853L1208.2 464.253L1198.94 471.26L1192.43 458.52H1184.34V471.26L1172.16 463.85V451.322C1169.38 448.601 1166.92 445.565 1164.83 442.277L1157.5 447.182L1148.66 430.301L1155.99 424.887L1155.37 422.36C1154.61 420.385 1154.06 418.432 1153.61 416.521Z" fill="url(#paint31_linear)"/>
<path opacity="0.44" d="M1130.47 398.026L1141.75 391.21L1144.56 395.372L1140.2 404.524" fill="#053855"/>
<path d="M1145.22 454.252L1153.59 450.791V445.738" fill="url(#paint32_linear)"/>
<path d="M1172.08 478.288L1184.36 471.239L1181.24 461.96L1170.21 465.209L1172.08 478.288Z" fill="url(#paint33_linear)"/>
<path d="M1157.67 368.597L1145.39 375.668L1152.12 389.066L1159.5 389.194L1161.2 375.668L1157.67 368.597Z" fill="url(#paint34_linear)"/>
<path d="M1168.66 435.982C1171.5 434.867 1172.25 430 1170.32 425.11C1168.4 420.22 1164.54 417.16 1161.7 418.275C1158.86 419.39 1158.12 424.258 1160.04 429.148C1161.96 434.037 1165.82 437.097 1168.66 435.982Z" fill="url(#paint35_linear)"/>
<path d="M1186.76 399.788L1199.04 392.718L1207.74 409.237L1195.45 416.308L1186.76 399.788Z" fill="url(#paint36_linear)"/>
<path d="M1208.2 464.232L1195.94 471.303L1186.68 478.288L1198.96 471.239L1208.2 464.232Z" fill="url(#paint37_linear)"/>
<path opacity="0.44" d="M1153.61 416.521L1152.72 413.4L1142.73 407.964V390.977C1142.73 390.637 1152.38 396.646 1152.38 396.646L1152.82 395.691C1153.37 393.09 1154.36 390.604 1155.76 388.344L1148.72 375.371L1157.65 368.597L1164.32 381.953C1166.74 381.393 1169.27 381.437 1171.67 382.08V369.34L1184.42 376.411V389.831C1186.96 392.23 1189.28 394.86 1191.33 397.687L1199.02 392.782L1207.71 409.301L1200.83 414.674L1201.42 417.455C1202.31 420.389 1203.02 423.374 1203.55 426.394L1213.79 432.021V449.008L1204.04 443.19C1203.61 446.268 1202.54 449.221 1200.89 451.853L1208.2 464.253L1198.94 471.26L1192.43 458.52H1184.34V471.26L1172.16 463.85V451.322C1169.38 448.601 1166.92 445.565 1164.83 442.277L1157.5 447.182L1148.66 430.301L1155.99 424.887L1155.37 422.36C1154.61 420.385 1154.06 418.432 1153.61 416.521Z" fill="#053855"/>
<path opacity="0.1" d="M1145.22 454.252L1153.59 450.791V445.738" fill="#053855"/>
<path opacity="0.1" d="M1172.08 478.288L1184.36 471.239L1181.24 461.96L1170.21 465.209L1172.08 478.288Z" fill="#053855"/>
<path opacity="0.1" d="M1168.66 435.982C1171.5 434.867 1172.25 430 1170.32 425.11C1168.4 420.22 1164.54 417.16 1161.7 418.275C1158.86 419.39 1158.12 424.258 1160.04 429.148C1161.96 434.037 1165.82 437.097 1168.66 435.982Z" fill="#053855"/>
<path opacity="0.1" d="M1186.76 399.788L1199.04 392.718L1207.74 409.237L1195.45 416.308L1186.76 399.788Z" fill="#053855"/>
<path opacity="0.1" d="M1208.2 464.232L1195.94 471.303L1186.68 478.288L1198.96 471.239L1208.2 464.232Z" fill="#053855"/>
<path opacity="0.1" d="M1145.22 454.252L1153.59 450.791V445.738" fill="#053855"/>
<path opacity="0.44" d="M1172.08 478.288L1184.36 471.239L1181.24 461.96L1170.21 465.209L1172.08 478.288Z" fill="#053855"/>
<path d="M1141.33 423.591L1140.5 420.449L1130.51 415.013V398.026C1130.51 397.687 1140.16 403.696 1140.16 403.696L1140.61 402.74C1141.15 400.139 1142.14 397.653 1143.54 395.393L1136.51 382.42L1145.43 375.646L1152.1 389.002C1154.53 388.443 1157.05 388.486 1159.46 389.13V376.453L1172.21 383.524V396.944C1174.72 399.34 1177 401.963 1179.03 404.779L1186.76 399.81L1195.45 416.33L1188.57 421.808L1189.16 424.589C1190.05 427.523 1190.76 430.509 1191.29 433.529L1201.53 439.155V456.142L1191.78 450.324C1191.35 453.402 1190.28 456.355 1188.63 458.987L1195.94 471.388L1186.68 478.373L1180.17 465.633H1172.08V478.373L1159.9 470.963V458.435C1157.11 455.702 1154.64 452.652 1152.55 449.347L1145.22 454.358L1136.38 437.478L1143.71 432.063L1142.99 429.537C1142.35 427.413 1141.8 425.502 1141.33 423.591Z" fill="url(#paint38_linear)"/>
<path opacity="0.44" d="M1168.66 435.982C1171.5 434.867 1172.25 430 1170.32 425.11C1168.4 420.22 1164.54 417.16 1161.7 418.275C1158.86 419.39 1158.12 424.258 1160.04 429.148C1161.96 434.037 1165.82 437.097 1168.66 435.982Z" fill="#053855"/>
<path opacity="0.44" d="M1208.2 464.232L1195.94 471.303L1186.68 478.288L1198.96 471.239L1208.2 464.232Z" fill="#053855"/>
<path d="M1184.53 376.368L1172.25 383.439L1159.5 376.368L1171.76 369.297L1184.53 376.368Z" fill="url(#paint39_linear)"/>
<path opacity="0.44" d="M1184.53 376.326L1172.29 383.439L1159.5 376.411L1171.74 369.297L1184.53 376.326Z" fill="#053855"/>
<path d="M1213.79 432.063L1201.53 439.134V456.036L1213.79 448.986V432.063Z" fill="url(#paint40_linear)"/>
<path opacity="0.44" d="M1213.79 432.063L1201.53 439.134V456.036L1213.79 448.986V432.063Z" fill="#053855"/>
<path d="M1177.62 360.571C1196.03 374.691 1213.51 392.633 1231.26 408.197C1259.5 432.913 1287.61 457.904 1312.28 486.23C1334.6 511.837 1353.3 542.201 1349.64 577.533C1349.18 581.989 1348.41 586.408 1347.35 590.761C1345.81 597.083 1343.61 603.225 1340.78 609.086C1332.28 626.731 1315.49 636.88 1295.9 632.273C1273.84 627.092 1258.65 608.619 1244.2 592.46C1223.4 569.103 1204.87 544.048 1186.08 519.163C1168.66 496.061 1147.6 474.764 1132.53 449.984C1132.53 449.984 1103.29 401.742 1122.48 367.599C1141.67 333.456 1177.62 360.571 1177.62 360.571Z" stroke="#2E3192" stroke-width="2" stroke-miterlimit="10" stroke-linecap="round" stroke-dasharray="4 7.01"/>
<path opacity="0.48" d="M1035.89 861.932L920.499 825.644L1071.5 741.815L1109.09 720.943L1204.25 760.055C1193.33 766.658 1046.53 855.053 1035.89 861.932Z" fill="url(#paint41_linear)"/>
<path opacity="0.48" d="M1054.42 728.12L1023.24 684.889L982.633 670.663L920.498 698.075L823.662 758.738L920.498 825.645L1050.85 752.687" fill="url(#paint42_linear)"/>
<path d="M1098.51 570.993L1104.37 576.047L1103.48 728.205L1108.77 731.687L1116.04 727.143L1123.5 570.993C1116.81 570.929 1105.12 571.269 1098.51 570.993Z" fill="#F2F2F2"/>
<path d="M1028.17 637.517L976.663 669.452L976.025 682.765L1030.36 646.839" fill="#A27CEF"/>
<path d="M1028.81 615.796L1056.43 693.637L1052.57 696.249C1051.48 695.771 1050.43 695.218 1049.42 694.592C1048.17 693.764 1014.91 613.163 1014.91 613.163" fill="#A27CEF"/>
<path d="M976.896 603.926L965.188 651.892L973.114 745.595L976.662 747.57L981.104 744.321L977.959 650.915L988.222 603.119" fill="#A27CEF"/>
<path d="M1035.55 594.116C1035.55 594.116 1037.95 604.393 1034.78 610.423C1031.62 616.454 1021.1 602.758 1021.1 602.758" fill="#F3B496"/>
<path d="M981.677 540.969L986.48 578.807L976.875 584.667L972.157 544.091" fill="#CA6B00"/>
<path d="M921.073 573.371L918.034 625.181L916.61 701.196L921.158 703.447L925.28 700.432L929.658 625.542L932.399 572.564" fill="#3D467F"/>
<path d="M928.298 579.296C925.556 580.357 919.224 576.366 917.205 573.648C906.219 558.784 907.579 537.551 924.664 526.467C932.229 521.562 940.049 516.657 947.571 511.604C954.244 507.145 961.384 503.238 967.823 498.418C968.659 497.746 969.564 497.162 970.521 496.677C972.327 496.051 974.278 495.977 976.125 496.465C977.972 496.953 979.632 497.98 980.891 499.416" fill="#5B5B5B"/>
<path d="M927.511 578.68C922.751 578.85 919.563 572.756 917.906 569.146C913.316 559.23 911.191 539.929 922.39 533.283C922.604 533.169 922.786 533.002 922.916 532.797C923.046 532.592 923.121 532.357 923.133 532.115L944.511 517.676L961.043 506.508C963.933 504.554 966.653 502.367 969.543 500.414C972.433 498.46 975.26 496.167 978.702 497.972C982.506 499.904 983.292 503.981 984.142 507.803C986.269 516.576 986.443 525.709 984.652 534.557C983.25 540.46 978.957 544.728 974.027 548.04L958.663 558.444L930.188 577.554C929.732 577.896 929.232 578.174 928.701 578.382C928.32 578.536 927.919 578.636 927.511 578.68V578.68Z" fill="url(#paint43_linear)"/>
<path d="M927.192 620.021L926.321 620.594C923.868 622.001 921.705 623.86 919.946 626.073C915.844 632.039 920.647 638.176 925.407 641.828C938.157 651.701 957.176 659.175 973.262 654.058C987.266 649.599 1000.1 641.998 1012.06 633.589C1021.88 626.71 1034.16 618.365 1035.93 605.476C1036.21 602.608 1035.82 599.712 1034.78 597.024C1033.74 594.335 1032.08 591.928 1029.94 589.997C1002.12 562.054 967.928 592.566 943.555 608.937L927.192 620.021Z" fill="#5B5B5B"/>
<path d="M918.353 621.826C918.161 622.038 917.609 630.319 918.608 632.74C920.574 636.616 923.341 640.032 926.725 642.762C929.891 644.885 926.895 628.302 926.895 628.302" fill="#5B5B5B"/>
<path d="M926.682 612.865L925.811 613.439C923.358 614.845 921.195 616.704 919.436 618.917C915.335 624.883 920.137 631.02 924.897 634.672C937.647 644.546 956.666 652.02 972.752 646.902C986.756 642.443 999.591 634.842 1011.55 626.433C1021.37 619.554 1033.65 611.209 1035.42 598.321C1035.7 595.452 1035.31 592.557 1034.27 589.868C1033.23 587.179 1031.57 584.773 1029.43 582.841C1001.61 554.898 967.418 585.411 943.045 601.782L926.682 612.865Z" fill="url(#paint44_linear)"/>
<path d="M960.023 660.513L962.021 806.386L967.312 809.868L974.58 805.324L979.935 661.744C973.29 661.404 966.653 660.994 960.023 660.513Z" fill="#F2F2F2"/>
<path d="M1186.27 615.328L1191.63 758.972L1198.89 763.515L1204.19 760.033L1205.23 603.926C1198.49 603.947 1192.69 616.984 1186.27 615.328Z" fill="#F2F2F2"/>
<path d="M1092.86 757.146C1089.55 754.556 1085.95 752.361 1082.13 750.606C1078.15 748.886 1066.76 735.573 1065.91 734.235C1065.06 732.897 1063.13 726.57 1061.09 726.124C1059.05 725.678 1054.44 728.12 1054.44 728.12C1054.44 728.12 1048.06 721.516 1042.45 723.618C1042.45 723.618 1037.29 726.357 1037.39 741.072C1037.22 741.178 1037.06 741.299 1036.91 741.433C1036.59 743.735 1036.4 746.053 1036.35 748.376C1038.34 751.775 1041.3 754.498 1044.85 756.19C1049.36 758.547 1059.13 766.807 1065.47 768.484C1071.8 770.162 1084.27 769.504 1088.46 767.89C1089.79 767.445 1090.97 766.637 1091.86 765.556C1092.76 764.475 1093.33 763.165 1093.52 761.775C1093.87 760.203 1093.64 758.555 1092.86 757.146V757.146Z" fill="#3D467F"/>
<path d="M1055.73 727.568C1055.73 727.568 1048.17 721.325 1042.43 723.618C1036.69 725.912 1037.42 739.119 1037.42 739.119C1037.42 739.119 1037.42 746.657 1046.57 751.052C1055.73 755.447 1054.18 759.354 1066.12 763.049C1078.07 766.743 1090.73 763.792 1093.05 760.182C1095.36 756.573 1087.91 753.43 1087.37 752.963C1086.84 752.496 1076.15 745.935 1073.73 742.644C1071.31 739.352 1067 733.704 1065.44 730.901C1063.89 728.099 1063.32 725.593 1060.43 725.827C1058.73 725.941 1057.1 726.546 1055.73 727.568Z" fill="white"/>
<path d="M1077.9 746.104C1076.33 745.78 1074.74 745.589 1073.14 745.531C1073.45 744.582 1073.75 743.627 1074.05 742.664C1073.65 742.246 1073.26 741.806 1072.9 741.348H1072.8C1071.63 741.135 1070.45 741.028 1069.27 741.029L1070.29 739.182C1070.35 739.011 1070.35 738.823 1070.29 738.651C1070.28 738.516 1070.23 738.387 1070.15 738.28C1070.07 738.174 1069.95 738.096 1069.82 738.057C1069.68 738.017 1069.52 738.017 1069.38 738.057C1068.02 737.802 1066.66 737.568 1065.32 737.399C1065.74 736.705 1066.2 735.997 1066.68 735.275C1067.29 734.426 1065.89 733.598 1065.25 734.447C1064.63 735.305 1064.05 736.198 1063.53 737.122C1061.1 736.883 1058.65 737.034 1056.27 737.568C1055.25 737.823 1055.67 739.394 1056.71 739.14C1058.68 738.697 1060.7 738.547 1062.7 738.694C1062.06 740.029 1061.52 741.413 1061.09 742.834C1060.28 743.323 1061.09 744.618 1062 744.193C1063.39 743.571 1064.86 743.135 1066.36 742.898L1065.3 745.021C1065.11 745.372 1064.94 745.734 1064.79 746.104C1064.75 746.21 1064.7 746.31 1064.64 746.401C1064.46 746.493 1064.32 746.644 1064.25 746.828C1064.17 747.013 1064.17 747.218 1064.23 747.406C1064.3 747.593 1064.43 747.752 1064.6 747.852C1064.77 747.952 1064.97 747.988 1065.17 747.952C1067 747.467 1068.87 747.175 1070.76 747.081C1070.3 748.397 1069.83 749.714 1069.33 751.03C1069.29 751.188 1069.3 751.355 1069.35 751.51C1069.4 751.665 1069.5 751.801 1069.63 751.901C1069.76 752.001 1069.91 752.06 1070.08 752.072C1070.24 752.083 1070.4 752.046 1070.55 751.965C1072.93 750.366 1075.43 748.946 1078.03 747.718H1078.26C1078.37 747.746 1078.48 747.751 1078.59 747.732C1078.7 747.714 1078.81 747.672 1078.9 747.61C1079 747.548 1079.08 747.467 1079.14 747.372C1079.2 747.277 1079.24 747.171 1079.26 747.06C1078.88 746.869 1078.34 746.486 1077.9 746.104ZM1063.02 742.112C1063.41 741.021 1063.87 739.957 1064.4 738.927C1065.66 739.076 1066.91 739.267 1068.14 739.501L1067.21 741.22C1065.81 741.367 1064.44 741.666 1063.11 742.112H1063.02ZM1066.78 746.019C1067.04 745.403 1067.23 744.788 1067.46 744.342L1068.27 742.771C1069.55 742.717 1070.83 742.802 1072.1 743.025C1071.83 743.861 1071.55 744.696 1071.27 745.531C1069.79 745.544 1068.32 745.672 1066.87 745.913L1066.78 746.019ZM1071.67 749.353L1072.44 747.23C1073.37 747.244 1074.3 747.308 1075.22 747.421C1074.12 748.036 1072.93 748.631 1071.76 749.332L1071.67 749.353Z" fill="#3D467F"/>
<path d="M1065.87 763.707C1062.56 761.117 1058.96 758.922 1055.14 757.167C1051.17 755.447 1039.77 742.134 1038.92 740.796C1038.07 739.458 1036.14 733.131 1034.1 732.685C1032.06 732.239 1027.45 734.681 1027.45 734.681C1027.45 734.681 1021.07 728.077 1015.46 730.179C1015.46 730.179 1010.3 732.918 1010.41 747.633C1010.23 747.739 1010.07 747.86 1009.92 747.994C1009.6 750.296 1009.42 752.614 1009.37 754.937C1011.35 758.336 1014.31 761.059 1017.87 762.751C1022.37 765.108 1032.15 773.368 1038.48 775.045C1044.81 776.723 1057.28 776.064 1061.47 774.451C1062.8 774.006 1063.98 773.197 1064.88 772.116C1065.77 771.035 1066.34 769.725 1066.53 768.335C1066.89 766.764 1066.65 765.116 1065.87 763.707V763.707Z" fill="#3D467F"/>
<path d="M1028.75 734.129C1028.75 734.129 1021.18 727.886 1015.44 730.179C1009.71 732.473 1010.43 745.68 1010.43 745.68C1010.43 745.68 1010.43 753.218 1019.59 757.613C1028.75 762.008 1027.19 765.915 1039.14 769.61C1051.08 773.304 1063.74 770.353 1066.06 766.743C1068.38 763.134 1060.92 759.991 1060.39 759.524C1059.86 759.057 1049.17 752.496 1046.74 749.205C1044.32 745.913 1040.01 740.265 1038.46 737.463C1036.91 734.66 1036.33 732.154 1033.44 732.388C1031.74 732.502 1030.11 733.107 1028.75 734.129V734.129Z" fill="white"/>
<path d="M1050.89 752.666C1049.32 752.342 1047.73 752.15 1046.13 752.092C1046.44 751.144 1046.75 750.188 1047.04 749.226C1046.64 748.807 1046.25 748.368 1045.9 747.909H1045.79C1044.63 747.696 1043.44 747.589 1042.26 747.591L1043.28 745.744C1043.34 745.572 1043.34 745.384 1043.28 745.213C1043.27 745.078 1043.23 744.948 1043.14 744.842C1043.06 744.735 1042.94 744.657 1042.81 744.618C1042.67 744.579 1042.51 744.579 1042.37 744.618C1041.01 744.363 1039.65 744.13 1038.31 743.96C1038.73 743.266 1039.19 742.559 1039.67 741.837C1040.29 740.987 1038.88 740.159 1038.25 741.009C1037.62 741.866 1037.05 742.76 1036.52 743.684C1034.09 743.445 1031.64 743.595 1029.26 744.13C1028.24 744.385 1028.66 745.956 1029.7 745.701C1031.67 745.258 1033.69 745.108 1035.7 745.255C1035.05 746.59 1034.51 747.975 1034.08 749.396C1033.27 749.884 1034.08 751.179 1034.99 750.755C1036.38 750.132 1037.85 749.697 1039.35 749.459L1038.29 751.583C1038.1 751.934 1037.93 752.295 1037.78 752.666C1037.74 752.771 1037.69 752.871 1037.63 752.963C1037.45 753.054 1037.31 753.206 1037.24 753.39C1037.17 753.574 1037.16 753.779 1037.22 753.967C1037.29 754.155 1037.42 754.314 1037.59 754.414C1037.76 754.514 1037.96 754.549 1038.16 754.513C1039.99 754.028 1041.86 753.736 1043.75 753.642C1043.3 754.959 1042.82 756.275 1042.33 757.592C1042.28 757.75 1042.29 757.917 1042.34 758.072C1042.39 758.227 1042.49 758.363 1042.62 758.462C1042.75 758.562 1042.9 758.622 1043.07 758.633C1043.23 758.644 1043.39 758.607 1043.54 758.526C1045.92 756.927 1048.42 755.508 1051.02 754.279H1051.25C1051.36 754.307 1051.47 754.312 1051.58 754.294C1051.7 754.275 1051.8 754.233 1051.9 754.171C1051.99 754.109 1052.07 754.028 1052.13 753.934C1052.19 753.839 1052.23 753.732 1052.25 753.621C1051.8 753.43 1051.25 753.048 1050.89 752.666ZM1036.01 748.674C1036.4 747.582 1036.86 746.518 1037.4 745.489C1038.65 745.637 1039.9 745.829 1041.14 746.062L1040.2 747.782C1038.81 747.936 1037.44 748.243 1036.12 748.695L1036.01 748.674ZM1039.78 752.581C1040.03 751.965 1040.22 751.349 1040.46 750.903L1041.26 749.332C1042.54 749.278 1043.83 749.363 1045.09 749.587C1044.82 750.422 1044.54 751.257 1044.26 752.092C1042.79 752.142 1041.33 752.305 1039.88 752.581H1039.78ZM1044.66 755.914L1045.43 753.791C1046.36 753.805 1047.29 753.869 1048.21 753.982C1047.11 754.534 1045.94 755.214 1044.88 755.914H1044.66Z" fill="#3D467F"/>
<path d="M1005.67 569.019C1007.45 572.734 1063.04 626.179 1070.88 641.212C1078.73 656.245 1065.66 727.738 1065.66 727.738C1065.66 727.738 1050.1 734.66 1038.03 727.08C1038.03 727.08 1037.35 667.881 1033.78 663.804C1030.21 659.727 987.16 624.799 982.782 617.707C978.405 610.615 995.107 570.611 995.107 570.611" fill="url(#paint45_linear)"/>
<path d="M992.897 577.49C994.682 581.206 1038.22 636.116 1046.02 651.085C1053.82 666.055 1040.79 737.611 1040.79 737.611C1040.79 737.611 1025.24 744.533 1013.17 736.953C1013.17 736.953 1012.49 677.754 1008.92 673.677C1005.35 669.601 961.575 635.097 957.92 627.58C946.339 604.436 958.791 574.497 958.791 574.497" fill="url(#paint46_linear)"/>
<path d="M1015.36 547.7C1016.14 538.782 1018.27 530.055 1019.03 521.137C1020.76 501.051 1009 488.48 990.9 485.423C980.697 491.106 971.389 498.26 963.275 506.656C955.03 515.914 955.603 554.452 955.603 554.452C957.24 565.069 956.283 573.244 956.793 578.998C970.351 592.821 995.043 585.92 1011.7 575.856C1014.59 566.747 1014.53 557.192 1015.36 547.7Z" fill="#3D467F"/>
<path d="M984.334 481.729L983.25 495.148C983.25 495.148 987.394 498.524 999.379 494.596L1001.08 486.825" fill="#EFBD95"/>
<path d="M987.989 467.544H986.14C985.909 467.61 985.706 467.75 985.562 467.941C985.417 468.133 985.339 468.366 985.339 468.606C985.339 468.846 985.417 469.079 985.562 469.271C985.706 469.463 985.909 469.602 986.14 469.668H987.989C988.22 469.602 988.423 469.463 988.568 469.271C988.712 469.079 988.791 468.846 988.791 468.606C988.791 468.366 988.712 468.133 988.568 467.941C988.423 467.75 988.22 467.61 987.989 467.544V467.544Z" fill="#1C5028"/>
<path d="M1003.76 476.993C1001.47 479.099 998.654 480.539 995.608 481.157C992.562 481.775 989.405 481.546 986.48 480.497C985.141 480.029 984.568 482.153 985.885 482.62C989.18 483.789 992.733 484.033 996.158 483.326C999.582 482.618 1002.75 480.986 1005.31 478.607C1006.37 477.588 1004.8 476.038 1003.76 476.993Z" fill="#1C5028"/>
<path d="M1011.64 462.767C1011.64 462.767 1009.62 489.967 1002.74 491.262C995.851 492.557 988.286 489.139 985.885 485.593C983.484 482.047 978.426 464.996 980.87 461.854C983.314 458.711 1007.79 457.798 1011.64 462.767Z" fill="#FFDAB6"/>
<path d="M1016.12 453.169C1014.6 452.57 1012.96 452.316 1011.32 452.426C1010.78 450.084 1009.47 447.99 1007.6 446.481C1005.93 445.254 1003.94 444.515 1001.87 444.347C999.802 444.178 997.726 444.586 995.873 445.525C995.218 445.87 994.611 446.298 994.067 446.799C993.03 445.837 991.8 445.105 990.46 444.651C989.119 444.197 987.698 444.032 986.289 444.166C984.664 444.304 983.113 444.905 981.82 445.899C980.528 446.893 979.549 448.237 979 449.772C978.723 450.621 978.607 451.514 978.66 452.405C977.021 452.499 975.449 453.089 974.155 454.098C972.86 455.108 971.904 456.487 971.414 458.053C971.029 459.222 970.918 460.465 971.091 461.684C971.264 462.903 971.717 464.065 972.413 465.081C971.464 466.043 970.811 467.256 970.533 468.577C970.254 469.898 970.361 471.272 970.84 472.534C971.354 473.859 972.219 475.019 973.342 475.89C974.465 476.762 975.804 477.312 977.215 477.481C976.779 478.775 976.706 480.163 977.003 481.495C978.427 484.722 982.337 486.06 985.949 486.888C986.098 485.189 986.268 483.469 986.374 481.771C986.396 481.61 986.439 481.453 986.502 481.303C985.285 480.217 984.251 478.94 983.442 477.524C982.294 475.655 981.465 473.001 983.442 471.303C983.907 470.93 984.45 470.667 985.031 470.533C985.612 470.399 986.215 470.397 986.797 470.527C987.378 470.658 987.923 470.917 988.391 471.287C988.858 471.656 989.237 472.126 989.498 472.662C989.885 471.789 990.333 470.945 990.837 470.135V470.135C992.579 465.782 997.105 465.315 1001.46 465.294C1007.84 468.712 1017.4 471.175 1020.03 462.937C1020.75 461.117 1020.74 459.094 1020.01 457.28C1019.29 455.466 1017.9 453.996 1016.12 453.169V453.169Z" fill="#FF8E0E"/>
<path d="M1032 699.879L1037.95 704.89L1037.05 857.048L1042.35 860.531L1049.61 855.987L1056.9 699.901C1050.29 699.816 1038.5 700.155 1032 699.879Z" fill="#F2F2F2"/>
<path d="M1205.25 589.254V603.947H1196.22L1205.25 589.254Z" fill="#D3514A"/>
<path d="M954.074 657.583V645.055L962.043 655.056L954.074 657.583Z" fill="#D3514A"/>
<path d="M1079.77 567.83L970.861 630.001C970.861 630.001 935.863 653.357 966.973 680.515C998.083 707.672 1040.88 707.715 1068.1 696.058C1095.32 684.401 1192.56 626.094 1192.56 626.094C1192.56 626.094 1229.75 598.172 1177.01 567.808C1162.32 559.006 1145.51 554.359 1128.38 554.362C1111.26 554.366 1094.45 559.021 1079.77 567.83V567.83Z" fill="#3D467F"/>
<path d="M1079.77 555.875L970.861 618.046C970.861 618.046 935.863 641.403 966.973 668.56C998.083 695.718 1040.88 695.76 1068.1 684.103C1095.32 672.446 1192.56 614.139 1192.56 614.139C1192.56 614.139 1229.75 586.217 1177.01 555.854C1162.32 547.052 1145.51 542.404 1128.38 542.408C1111.26 542.411 1094.45 547.066 1079.77 555.875V555.875Z" fill="url(#paint47_linear)"/>
<path opacity="0.48" d="M1391 743.514L1382.07 731.05L1370.4 726.973L1352.58 734.851L1324.78 752.283L1347.18 767.762C1361.65 759.503 1376.76 752.283 1391 743.514Z" fill="url(#paint48_linear)"/>
<path d="M1345.73 641.721C1348.59 641.554 1351.44 642.109 1354.02 643.335C1356.67 644.835 1358.72 647.185 1359.86 650.002C1361.14 652.678 1361.71 656.5 1364.35 658.241C1365.39 658.79 1366.29 659.567 1366.98 660.513C1367.63 661.428 1368.04 662.487 1368.18 663.597C1368.32 664.708 1368.19 665.836 1367.79 666.883C1366.62 669.24 1361.71 670.684 1359.46 670.259" fill="#3D467F"/>
<path d="M1343.56 642.019C1340.24 642.316 1337.09 643.644 1334.55 645.818C1332.02 647.992 1330.23 650.902 1329.43 654.143C1328.64 657.422 1328.64 660.843 1329.43 664.122C1330.07 666.777 1331.56 671.363 1334.87 671.554C1339.25 671.83 1340.65 667.732 1342.03 664.377C1343.42 661.022 1344.86 657.328 1348.41 656.011C1350.13 655.364 1352 655.234 1353.8 655.637C1355.59 656.041 1357.23 656.961 1358.5 658.283L1343.56 642.019Z" fill="#A27CEF"/>
<path d="M1363.62 659.748C1360.99 656.33 1358.8 652.614 1356.25 649.132C1354.81 646.856 1353.09 644.772 1351.13 642.932C1345.05 639.98 1337.4 642.698 1332.92 647.858C1333.53 648.049 1334.38 648.091 1334.87 648.261C1337.56 649.299 1339.95 650.992 1341.82 653.187C1344.52 656.16 1346.6 659.791 1348.98 662.955C1352.85 668.072 1357.97 672.297 1364.6 669.325C1368.72 667.35 1365.41 662.169 1363.62 659.748Z" fill="#3D467F"/>
<path d="M1385 615.838C1385 615.838 1398.69 614.755 1398.43 636.392C1398.18 658.029 1377.71 643.802 1382.22 630.765" fill="#A27CEF"/>
<path d="M1383.03 637.114C1382.88 630.531 1390.27 625.733 1396.52 624.883C1395.83 622.122 1394.24 619.67 1391.99 617.919C1389.75 616.168 1386.98 615.218 1384.13 615.222C1374.76 615.456 1367.73 624.99 1366.15 636.201C1365.77 639.582 1366.19 643.006 1367.38 646.193C1368.58 649.379 1370.52 652.235 1373.04 654.525L1377.56 658.389C1385.92 655.12 1382.75 643.123 1383.03 637.114Z" fill="#3D467F"/>
<path d="M1420.3 652.614C1420.1 648.511 1419.02 644.499 1417.13 640.851C1416.26 639.104 1415.01 637.576 1413.47 636.381C1411.93 635.186 1410.14 634.355 1408.23 633.95L1400.51 648.813C1400.51 648.813 1412.01 628.748 1407.31 644.205C1402.62 659.663 1418.09 676.99 1420.21 653.952C1420.26 653.463 1420.28 653.038 1420.3 652.614Z" fill="#A27CEF"/>
<path d="M1365.75 691.216C1365.75 691.216 1355.44 697.905 1358.31 713.575C1359.32 719.003 1360.85 724.322 1362.88 729.458C1364.88 734.554 1366.35 741.136 1371.38 744.002C1373.99 745.413 1376.89 746.17 1379.86 746.207C1382.82 746.244 1385.74 745.56 1388.38 744.215C1392.8 741.518 1394.37 735.403 1395.99 730.838C1397.92 725.234 1399.25 719.44 1399.94 713.554C1405.04 675.716 1365.75 691.216 1365.75 691.216Z" fill="url(#paint49_linear)"/>
<path d="M1379.71 698.945C1388.01 698.945 1394.74 696.512 1394.74 693.509C1394.74 690.507 1388.01 688.074 1379.71 688.074C1371.41 688.074 1364.69 690.507 1364.69 693.509C1364.69 696.512 1371.41 698.945 1379.71 698.945Z" fill="#34323D"/>
<path d="M1380.92 664.59C1378.8 659.536 1374.91 655.268 1373.66 649.854C1372.88 646.181 1373.2 642.363 1374.57 638.867C1375.93 635.371 1378.29 632.349 1381.35 630.171C1382.5 629.342 1381.35 627.41 1380.22 628.26C1370.62 635.224 1368.77 647.136 1374.36 657.285C1376.37 660.309 1378.06 663.533 1379.41 666.904C1380.8 671.427 1379.24 674.676 1377.14 678.073C1377.26 674.718 1376.06 671.449 1373.8 668.964C1371.32 666.649 1367.62 666.267 1364.54 665.227C1358.55 663.103 1353.3 659.791 1352.28 653.124C1352.07 651.722 1349.92 652.317 1350.15 653.718C1350.61 656.294 1351.69 658.719 1353.3 660.781C1354.91 662.843 1357.01 664.479 1359.4 665.545C1362.29 666.796 1365.27 667.832 1368.32 668.645C1369.64 669.15 1370.84 669.918 1371.86 670.904C1372.87 671.89 1373.67 673.072 1374.21 674.378C1375.63 677.648 1374.65 679.878 1373.87 683.063C1372.83 687.182 1371.19 690.707 1374.02 694.614C1374.85 695.76 1376.78 694.614 1375.93 693.488C1371.42 687.288 1378.63 681.385 1381.05 676.035C1381.85 674.23 1382.26 672.273 1382.24 670.298C1382.22 668.323 1381.77 666.376 1380.92 664.59V664.59Z" fill="#A27CEF"/>
<path d="M1408.65 650.979C1399.16 649.302 1392.7 656.649 1393.25 665.843C1393.45 668.144 1393.87 670.42 1394.52 672.637C1395.27 674.519 1395.7 676.516 1395.78 678.54C1395.46 679.962 1394.8 681.285 1393.86 682.395C1392.91 683.505 1391.71 684.368 1390.36 684.91C1388.42 685.628 1386.68 686.801 1385.28 688.331C1383.89 689.86 1382.88 691.702 1382.35 693.701C1382.29 693.976 1382.33 694.265 1382.48 694.507C1382.62 694.75 1382.86 694.927 1383.13 695.003C1383.4 695.08 1383.69 695.049 1383.94 694.917C1384.19 694.785 1384.38 694.563 1384.47 694.295C1386.6 686.248 1397.9 687.416 1397.99 678.561C1397.99 674.315 1395.73 670.174 1395.46 665.821C1394.99 658.262 1399.94 651.68 1408.06 653.081C1409.46 653.357 1410.06 651.213 1408.65 650.979Z" fill="#A27CEF"/>
<path d="M1417.13 640.851C1413.46 634.077 1406.76 632.485 1400.13 634.481C1399.23 634.845 1398.35 635.271 1397.5 635.755C1381.01 647.964 1392.72 675.525 1395.25 675.313C1403.75 674.612 1402.79 669.686 1405.59 655.863C1406.08 652.747 1407.67 649.911 1410.09 647.881C1412.5 645.851 1415.57 644.764 1418.73 644.822C1418.31 643.454 1417.78 642.125 1417.13 640.851Z" fill="#3D467F"/>
<path d="M1413.52 636.35C1410.77 635.92 1407.96 636.334 1405.45 637.535C1402.94 638.737 1400.86 640.671 1399.47 643.08C1393.44 653.166 1394.84 664.887 1395.65 676.013C1395.65 677.436 1397.96 677.436 1397.77 676.013C1397.2 667.987 1396.05 660.025 1398.24 652.126C1399.3 648.261 1400.6 643.951 1403.7 641.191C1405.37 639.713 1407.43 638.756 1409.64 638.439C1411.85 638.122 1414.1 638.459 1416.11 639.407L1415.26 638.261C1414.62 637.624 1414.11 637.008 1413.52 636.35Z" fill="#A27CEF"/>
<path opacity="0.48" d="M1069.91 626.646C1068.17 624.247 1066.19 622.035 1064 620.042C1062.5 618.925 1060.93 617.897 1059.3 616.963C1056.96 616.194 1054.81 614.918 1053.02 613.227C1051.22 611.535 1049.82 609.469 1048.91 607.175L1023.14 599.743L968.375 630.786L1045.72 679.878C1062.58 670.195 1091.48 654.164 1108.43 644.694C1106.5 640.978 1072.37 630.001 1069.91 626.646Z" fill="url(#paint50_linear)"/>
<path d="M1069.01 666.755L988.095 619.639L1095.47 557.977L1176.24 601.612" fill="url(#paint51_linear)"/>
<path opacity="0.38" d="M1069.01 666.755L988.095 619.639L1095.47 557.977L1176.24 601.612" fill="black"/>
<path d="M1026.86 594.944L1035.36 596.685C1035.36 596.685 1045.3 598.809 1045.11 599.998C1044.92 601.187 1035.36 601.251 1035.36 601.251C1035.36 601.251 1049.1 605.879 1049.59 607.621C1050.08 609.362 1047.06 609.298 1047.06 609.298C1047.06 609.298 1049.19 611.719 1047.7 613.545C1046.21 615.371 1044.03 613.545 1044.03 613.545C1044.03 613.545 1047.43 615.987 1044.45 617.027C1041.48 618.067 1035.33 612.971 1035.33 612.971C1035.17 614.292 1034.56 615.519 1033.61 616.454C1032.21 617.537 1016.17 605.179 1013.72 601.59" fill="#F3B496"/>
<path d="M979.935 550.567C979.935 550.567 1025.71 589.572 1026.68 592.757C1027.66 595.942 1016.38 602.333 1009.24 604.011C1005.65 604.86 1000.5 601.888 997.466 600.338C990.918 597.154 984.617 593.484 978.617 589.36C972.249 585.189 966.313 580.395 960.895 575.049C957.902 572.31 955.558 568.94 954.032 565.182C952.507 561.425 951.838 557.375 952.076 553.327C952.48 539.334 953.415 520.097 961.936 508.291C961.936 508.291 968.417 499.331 976.174 506.168C976.28 506.189 988.329 516.848 979.935 550.567Z" fill="#5B5B5B"/>
<path d="M1064.74 565.557C1065.42 565.557 1083.34 572.076 1083.34 572.076L1098.57 582.374C1098.31 582.75 1097.96 583.064 1097.56 583.291C1097.16 583.519 1096.72 583.655 1096.26 583.69C1096.26 583.69 1097.83 585.071 1096.41 586.069C1096.02 586.352 1095.55 586.504 1095.07 586.504C1094.59 586.504 1094.12 586.352 1093.73 586.069C1093.31 586.592 1092.79 587.017 1092.19 587.315C1091.59 587.612 1090.93 587.774 1090.26 587.788C1088.27 587.64 1077.51 579.677 1076.62 580.739C1075.73 581.801 1081.83 584.837 1080.38 586.748C1078.94 588.659 1073.46 585.325 1071.63 583.712C1069.8 582.098 1060.51 573.52 1060.51 573.52" fill="#F3B496"/>
<path d="M1017.5 506.189C1017.5 506.189 1028.24 538.697 1032 542.392C1035.76 546.086 1069.74 563.986 1069.74 563.986C1069.74 563.986 1070.08 576.726 1058.05 580.739C1058.05 580.739 1024.6 573.626 1013.7 557.892" fill="#5B5B5B"/>
<path d="M1089.97 573.923C1089.97 573.923 1068.72 668.029 1069.01 666.861C1069.31 665.694 1173.82 609.531 1174.52 607.578C1175.22 605.624 1202.12 510.011 1202.12 510.011L1089.97 573.923Z" fill="url(#paint52_linear)"/>
<path d="M1004.65 485.126C1004.57 484.776 1004.42 484.447 1004.2 484.165C1003.98 483.882 1003.7 483.653 1003.38 483.494C1003.06 483.334 1002.71 483.249 1002.35 483.245C1001.99 483.241 1001.64 483.318 1001.31 483.469C1001.03 483.592 1000.78 483.776 1000.57 484.007C1000.36 484.238 1000.21 484.511 1000.12 484.807C996.17 484.658 991.495 483.682 988.945 480.752C990.512 479.894 991.816 478.627 992.718 477.086C993.62 475.545 994.086 473.788 994.066 472.003C993.918 470.257 993.263 468.592 992.183 467.211C991.103 465.83 989.644 464.793 987.984 464.227C986.324 463.661 984.535 463.59 982.835 464.024C981.135 464.457 979.599 465.375 978.413 466.667C977.227 467.958 976.443 469.567 976.157 471.296C975.871 473.025 976.095 474.8 976.802 476.404C977.509 478.008 978.668 479.372 980.137 480.329C981.607 481.285 983.323 481.794 985.077 481.792C985.692 481.796 986.305 481.732 986.905 481.601C989.859 485.487 995.511 486.867 1000.42 487.015C1000.51 487.167 1000.62 487.31 1000.74 487.44C1000.89 487.603 1001.09 487.708 1001.31 487.737C1001.54 487.868 1001.79 487.954 1002.06 487.992C1002.43 488.039 1002.82 487.995 1003.17 487.863C1003.53 487.731 1003.85 487.515 1004.1 487.234C1004.35 486.952 1004.54 486.614 1004.63 486.247C1004.73 485.88 1004.73 485.495 1004.65 485.126V485.126Z" fill="#535259"/>
<path d="M987.075 465.145C987.075 465.145 988.074 449.241 994.066 446.799C994.066 446.799 991.304 441.64 983.314 445.037C983.314 445.037 978.299 452.745 980.87 465.145" fill="#535259"/>
<path d="M923.028 364.584C930.827 360.443 937.265 364.584 937.393 373.608L938.625 444.825C938.774 453.934 932.59 464.635 924.77 468.776L820.922 523.664C813.123 527.783 806.684 523.664 806.557 514.64L805.43 443.423C805.282 434.314 811.487 423.591 819.285 419.472L923.028 364.584Z" fill="url(#paint53_linear)"/>
<path d="M924.069 459.136L950.057 482.025L903.902 475.464" fill="url(#paint54_linear)"/>
<path d="M823.875 446.629L923.091 394.14C926.725 392.229 923.495 386.73 919.882 388.641L820.751 441.13C817.117 443.041 820.347 448.54 823.96 446.629H823.875Z" fill="white"/>
<path d="M823.875 465.973L923.091 413.484C926.725 411.573 923.495 406.074 919.882 407.985L820.751 460.474C817.117 462.385 820.347 467.884 823.96 465.973H823.875Z" fill="white"/>
<path d="M823.217 482.089L854.539 465.527Z" fill="white"/>
<path d="M824.831 484.743L856.153 468.181C859.787 466.27 856.557 460.771 852.944 462.682L821.622 479.244C817.988 481.155 821.218 486.654 824.831 484.743Z" fill="white"/>
<path d="M984.227 476.696C986.492 476.696 988.328 474.652 988.328 472.131C988.328 469.609 986.492 467.565 984.227 467.565C981.962 467.565 980.126 469.609 980.126 472.131C980.126 474.652 981.962 476.696 984.227 476.696Z" fill="#AAAAAA"/>
<path d="M1148.12 592.55C1153 582.797 1152.64 572.73 1147.31 570.063C1141.98 567.397 1133.7 573.141 1128.81 582.893C1123.93 592.646 1124.29 602.713 1129.62 605.38C1134.95 608.046 1143.23 602.302 1148.12 592.55Z" fill="white"/>
</g>
<defs>
<linearGradient id="paint0_linear" x1="1019.81" y1="218.51" x2="1403.02" y2="1056.71" gradientUnits="userSpaceOnUse">
<stop stop-color="#D5C1FC"/>
<stop offset="1" stop-color="#FB9CCB"/>
</linearGradient>
<linearGradient id="paint1_linear" x1="1304.77" y1="576.006" x2="1289.65" y2="582.79" gradientUnits="userSpaceOnUse">
<stop stop-color="#D1CFFF"/>
<stop offset="1" stop-color="#FFCDFA"/>
</linearGradient>
<linearGradient id="paint2_linear" x1="1286.41" y1="426.307" x2="1209.16" y2="451.819" gradientUnits="userSpaceOnUse">
<stop stop-color="#D1CFFF"/>
<stop offset="1" stop-color="#FFCDFA"/>
</linearGradient>
<linearGradient id="paint3_linear" x1="1231.51" y1="489.695" x2="1217.99" y2="496.518" gradientUnits="userSpaceOnUse">
<stop stop-color="#D1CFFF"/>
<stop offset="1" stop-color="#FFCDFA"/>
</linearGradient>
<linearGradient id="paint4_linear" x1="1247.52" y1="564.875" x2="1239.25" y2="568.734" gradientUnits="userSpaceOnUse">
<stop stop-color="#D1CFFF"/>
<stop offset="1" stop-color="#FFCDFA"/>
</linearGradient>
<linearGradient id="paint5_linear" x1="1285.07" y1="583.841" x2="1270.52" y2="589.832" gradientUnits="userSpaceOnUse">
<stop stop-color="#D1CFFF"/>
<stop offset="1" stop-color="#FFCDFA"/>
</linearGradient>
<linearGradient id="paint6_linear" x1="1252.76" y1="456.528" x2="1235.98" y2="462.651" gradientUnits="userSpaceOnUse">
<stop stop-color="#D1CFFF"/>
<stop offset="1" stop-color="#FFCDFA"/>
</linearGradient>
<linearGradient id="paint7_linear" x1="1261.51" y1="524.523" x2="1251.25" y2="532.246" gradientUnits="userSpaceOnUse">
<stop stop-color="#D1CFFF"/>
<stop offset="1" stop-color="#FFCDFA"/>
</linearGradient>
<linearGradient id="paint8_linear" x1="1277.96" y1="459.845" x2="1260.34" y2="474.699" gradientUnits="userSpaceOnUse">
<stop stop-color="#D1CFFF"/>
<stop offset="1" stop-color="#FFCDFA"/>
</linearGradient>
<linearGradient id="paint9_linear" x1="1311.96" y1="487.91" x2="1290.55" y2="496.967" gradientUnits="userSpaceOnUse">
<stop stop-color="#D1CFFF"/>
<stop offset="1" stop-color="#FFCDFA"/>
</linearGradient>
<linearGradient id="paint10_linear" x1="1312.24" y1="587.735" x2="1295.3" y2="600.073" gradientUnits="userSpaceOnUse">
<stop stop-color="#D1CFFF"/>
<stop offset="1" stop-color="#FFCDFA"/>
</linearGradient>
<linearGradient id="paint11_linear" x1="1286.41" y1="426.307" x2="1209.16" y2="451.819" gradientUnits="userSpaceOnUse">
<stop stop-color="#D1CFFF"/>
<stop offset="1" stop-color="#FFCDFA"/>
</linearGradient>
<linearGradient id="paint12_linear" x1="1247.52" y1="564.875" x2="1239.25" y2="568.734" gradientUnits="userSpaceOnUse">
<stop stop-color="#D1CFFF"/>
<stop offset="1" stop-color="#FFCDFA"/>
</linearGradient>
<linearGradient id="paint13_linear" x1="1285.07" y1="583.841" x2="1270.52" y2="589.832" gradientUnits="userSpaceOnUse">
<stop stop-color="#D1CFFF"/>
<stop offset="1" stop-color="#FFCDFA"/>
</linearGradient>
<linearGradient id="paint14_linear" x1="1252.76" y1="456.528" x2="1235.98" y2="462.651" gradientUnits="userSpaceOnUse">
<stop stop-color="#D1CFFF"/>
<stop offset="1" stop-color="#FFCDFA"/>
</linearGradient>
<linearGradient id="paint15_linear" x1="1261.51" y1="524.523" x2="1251.25" y2="532.246" gradientUnits="userSpaceOnUse">
<stop stop-color="#D1CFFF"/>
<stop offset="1" stop-color="#FFCDFA"/>
</linearGradient>
<linearGradient id="paint16_linear" x1="1311.96" y1="487.91" x2="1290.55" y2="496.967" gradientUnits="userSpaceOnUse">
<stop stop-color="#D1CFFF"/>
<stop offset="1" stop-color="#FFCDFA"/>
</linearGradient>
<linearGradient id="paint17_linear" x1="1312.24" y1="587.735" x2="1295.3" y2="600.073" gradientUnits="userSpaceOnUse">
<stop stop-color="#D1CFFF"/>
<stop offset="1" stop-color="#FFCDFA"/>
</linearGradient>
<linearGradient id="paint18_linear" x1="1269.87" y1="435.922" x2="1192.72" y2="461.383" gradientUnits="userSpaceOnUse">
<stop stop-color="#D1CFFF"/>
<stop offset="1" stop-color="#FFCDFA"/>
</linearGradient>
<linearGradient id="paint19_linear" x1="1277.96" y1="459.845" x2="1260.34" y2="474.699" gradientUnits="userSpaceOnUse">
<stop stop-color="#D1CFFF"/>
<stop offset="1" stop-color="#FFCDFA"/>
</linearGradient>
<linearGradient id="paint20_linear" x1="1325.99" y1="540.742" x2="1312.05" y2="544.139" gradientUnits="userSpaceOnUse">
<stop stop-color="#D1CFFF"/>
<stop offset="1" stop-color="#FFCDFA"/>
</linearGradient>
<linearGradient id="paint21_linear" x1="1191.87" y1="451.631" x2="1180.62" y2="456.703" gradientUnits="userSpaceOnUse">
<stop stop-color="#D1CFFF"/>
<stop offset="1" stop-color="#FFCDFA"/>
</linearGradient>
<linearGradient id="paint22_linear" x1="1178.27" y1="340.489" x2="1120.98" y2="359.37" gradientUnits="userSpaceOnUse">
<stop stop-color="#D1CFFF"/>
<stop offset="1" stop-color="#FFCDFA"/>
</linearGradient>
<linearGradient id="paint23_linear" x1="1137.52" y1="387.565" x2="1127.47" y2="392.626" gradientUnits="userSpaceOnUse">
<stop stop-color="#D1CFFF"/>
<stop offset="1" stop-color="#FFCDFA"/>
</linearGradient>
<linearGradient id="paint24_linear" x1="1149.41" y1="443.407" x2="1143.27" y2="446.28" gradientUnits="userSpaceOnUse">
<stop stop-color="#D1CFFF"/>
<stop offset="1" stop-color="#FFCDFA"/>
</linearGradient>
<linearGradient id="paint25_linear" x1="1177.29" y1="457.489" x2="1166.48" y2="461.95" gradientUnits="userSpaceOnUse">
<stop stop-color="#D1CFFF"/>
<stop offset="1" stop-color="#FFCDFA"/>
</linearGradient>
<linearGradient id="paint26_linear" x1="1153.29" y1="362.958" x2="1140.83" y2="367.514" gradientUnits="userSpaceOnUse">
<stop stop-color="#D1CFFF"/>
<stop offset="1" stop-color="#FFCDFA"/>
</linearGradient>
<linearGradient id="paint27_linear" x1="1159.8" y1="413.426" x2="1152.19" y2="419.143" gradientUnits="userSpaceOnUse">
<stop stop-color="#D1CFFF"/>
<stop offset="1" stop-color="#FFCDFA"/>
</linearGradient>
<linearGradient id="paint28_linear" x1="1172.02" y1="365.426" x2="1158.94" y2="376.451" gradientUnits="userSpaceOnUse">
<stop stop-color="#D1CFFF"/>
<stop offset="1" stop-color="#FFCDFA"/>
</linearGradient>
<linearGradient id="paint29_linear" x1="1197.25" y1="386.259" x2="1181.36" y2="392.989" gradientUnits="userSpaceOnUse">
<stop stop-color="#D1CFFF"/>
<stop offset="1" stop-color="#FFCDFA"/>
</linearGradient>
<linearGradient id="paint30_linear" x1="1197.44" y1="460.383" x2="1184.88" y2="469.542" gradientUnits="userSpaceOnUse">
<stop stop-color="#D1CFFF"/>
<stop offset="1" stop-color="#FFCDFA"/>
</linearGradient>
<linearGradient id="paint31_linear" x1="1178.27" y1="340.489" x2="1120.98" y2="359.37" gradientUnits="userSpaceOnUse">
<stop stop-color="#D1CFFF"/>
<stop offset="1" stop-color="#FFCDFA"/>
</linearGradient>
<linearGradient id="paint32_linear" x1="1149.41" y1="443.407" x2="1143.27" y2="446.28" gradientUnits="userSpaceOnUse">
<stop stop-color="#D1CFFF"/>
<stop offset="1" stop-color="#FFCDFA"/>
</linearGradient>
<linearGradient id="paint33_linear" x1="1177.29" y1="457.489" x2="1166.48" y2="461.95" gradientUnits="userSpaceOnUse">
<stop stop-color="#D1CFFF"/>
<stop offset="1" stop-color="#FFCDFA"/>
</linearGradient>
<linearGradient id="paint34_linear" x1="1153.29" y1="362.958" x2="1140.83" y2="367.514" gradientUnits="userSpaceOnUse">
<stop stop-color="#D1CFFF"/>
<stop offset="1" stop-color="#FFCDFA"/>
</linearGradient>
<linearGradient id="paint35_linear" x1="1159.8" y1="413.426" x2="1152.19" y2="419.143" gradientUnits="userSpaceOnUse">
<stop stop-color="#D1CFFF"/>
<stop offset="1" stop-color="#FFCDFA"/>
</linearGradient>
<linearGradient id="paint36_linear" x1="1197.25" y1="386.259" x2="1181.36" y2="392.989" gradientUnits="userSpaceOnUse">
<stop stop-color="#D1CFFF"/>
<stop offset="1" stop-color="#FFCDFA"/>
</linearGradient>
<linearGradient id="paint37_linear" x1="1197.44" y1="460.383" x2="1184.88" y2="469.542" gradientUnits="userSpaceOnUse">
<stop stop-color="#D1CFFF"/>
<stop offset="1" stop-color="#FFCDFA"/>
</linearGradient>
<linearGradient id="paint38_linear" x1="1166.03" y1="347.52" x2="1108.77" y2="366.372" gradientUnits="userSpaceOnUse">
<stop stop-color="#D1CFFF"/>
<stop offset="1" stop-color="#FFCDFA"/>
</linearGradient>
<linearGradient id="paint39_linear" x1="1172.02" y1="365.426" x2="1158.94" y2="376.451" gradientUnits="userSpaceOnUse">
<stop stop-color="#D1CFFF"/>
<stop offset="1" stop-color="#FFCDFA"/>
</linearGradient>
<linearGradient id="paint40_linear" x1="1207.66" y1="425.5" x2="1197.32" y2="428.019" gradientUnits="userSpaceOnUse">
<stop stop-color="#D1CFFF"/>
<stop offset="1" stop-color="#FFCDFA"/>
</linearGradient>
<linearGradient id="paint41_linear" x1="988.499" y1="878.473" x2="1091.7" y2="758.616" gradientUnits="userSpaceOnUse">
<stop offset="0.01" stop-color="#2E3192" stop-opacity="0"/>
<stop offset="1" stop-color="#0071BC"/>
</linearGradient>
<linearGradient id="paint42_linear" x1="27138.8" y1="35986.4" x2="33745.5" y2="24573.7" gradientUnits="userSpaceOnUse">
<stop offset="0.01" stop-color="#2E3192" stop-opacity="0"/>
<stop offset="1" stop-color="#0071BC"/>
</linearGradient>
<linearGradient id="paint43_linear" x1="944.127" y1="452.56" x2="1032.5" y2="552.714" gradientUnits="userSpaceOnUse">
<stop stop-color="#D5C1FC"/>
<stop offset="1" stop-color="#FB9CCB"/>
</linearGradient>
<linearGradient id="paint44_linear" x1="967.002" y1="529.124" x2="1035.21" y2="663.073" gradientUnits="userSpaceOnUse">
<stop stop-color="#D5C1FC"/>
<stop offset="1" stop-color="#FB9CCB"/>
</linearGradient>
<linearGradient id="paint45_linear" x1="1027.73" y1="524.771" x2="951.612" y2="545.257" gradientUnits="userSpaceOnUse">
<stop stop-color="#D1CFFF"/>
<stop offset="1" stop-color="#FFCDFA"/>
</linearGradient>
<linearGradient id="paint46_linear" x1="1000.76" y1="529.045" x2="921.353" y2="550.804" gradientUnits="userSpaceOnUse">
<stop stop-color="#D1CFFF"/>
<stop offset="1" stop-color="#FFCDFA"/>
</linearGradient>
<linearGradient id="paint47_linear" x1="1039.66" y1="548.973" x2="1196.3" y2="674.471" gradientUnits="userSpaceOnUse">
<stop stop-color="#E1EEFE"/>
<stop offset="1" stop-color="#FFEBFD"/>
</linearGradient>
<linearGradient id="paint48_linear" x1="22510.9" y1="9358.37" x2="23236.7" y2="8371.57" gradientUnits="userSpaceOnUse">
<stop offset="0.01" stop-color="#2E3192" stop-opacity="0"/>
<stop offset="1" stop-color="#0071BC"/>
</linearGradient>
<linearGradient id="paint49_linear" x1="1379.11" y1="672.156" x2="1345.17" y2="683.994" gradientUnits="userSpaceOnUse">
<stop stop-color="#D1CFFF"/>
<stop offset="1" stop-color="#FFCDFA"/>
</linearGradient>
<linearGradient id="paint50_linear" x1="999.931" y1="669.941" x2="1084.98" y2="598.658" gradientUnits="userSpaceOnUse">
<stop offset="0.01" stop-color="#2E3192" stop-opacity="0"/>
<stop offset="1" stop-color="#9E005D"/>
</linearGradient>
<linearGradient id="paint51_linear" x1="1082.2" y1="528.194" x2="982.004" y2="610.714" gradientUnits="userSpaceOnUse">
<stop stop-color="#D1CFFF"/>
<stop offset="1" stop-color="#FFCDFA"/>
</linearGradient>
<linearGradient id="paint52_linear" x1="1135.59" y1="467.063" x2="1033.32" y2="508.389" gradientUnits="userSpaceOnUse">
<stop stop-color="#D1CFFF"/>
<stop offset="1" stop-color="#FFCDFA"/>
</linearGradient>
<linearGradient id="paint53_linear" x1="872.047" y1="318.539" x2="768.773" y2="358.901" gradientUnits="userSpaceOnUse">
<stop stop-color="#D1CFFF"/>
<stop offset="1" stop-color="#FFCDFA"/>
</linearGradient>
<linearGradient id="paint54_linear" x1="926.986" y1="452.869" x2="905.523" y2="473.477" gradientUnits="userSpaceOnUse">
<stop stop-color="#D1CFFF"/>
<stop offset="1" stop-color="#FFCDFA"/>
</linearGradient>
<clipPath id="clip0">
<rect width="1440" height="900" fill="white"/>
</clipPath>
</defs>
</svg>
