<svg width="75" height="72" viewBox="0 0 75 72" fill="none" xmlns="http://www.w3.org/2000/svg">
<g clip-path="url(#clip0)">
<path opacity="0.24" d="M74.0528 42.8036C73.4641 43.8556 72.7301 44.8327 72.0227 45.816C71.2574 46.8945 70.5359 48.0011 70.1065 49.2498C69.4615 51.1227 69.5334 53.1752 69.2195 55.134C68.3543 60.6171 64.4439 65.3074 59.6247 68.0591C54.8054 70.8108 49.1616 71.819 43.613 71.9798C38.0645 72.1406 32.5253 71.5006 26.9861 71.176C23.816 70.9887 20.5209 70.8794 17.7099 69.4201C15.914 68.4961 14.4304 67.0695 13.0562 65.5836C4.34525 56.1204 -0.439657 43.1626 0.0335238 30.3187C0.14284 27.3407 0.528568 24.3409 1.59518 21.5564C4.7669 13.3419 13.1514 8.52052 21.1159 4.74337C25.5837 2.61911 30.2094 0.593184 35.1286 0.114017C38.0801 -0.171611 41.055 0.114017 43.98 0.593184C50.0814 1.59522 56.2671 3.59306 60.7616 7.84313C65.5199 12.3414 67.7062 18.6658 69.7551 24.7108C70.8295 27.9026 71.7853 31.2334 73.2923 34.2551C73.4797 34.6297 73.6561 34.9934 73.8264 35.3477C75.0054 37.8231 75.6472 39.9645 74.0528 42.8036Z" fill="url(#paint0_linear)"/>
<path opacity="0.51" d="M8.68749 37.6216C7.67554 37.6216 6.54334 37.6528 5.83435 38.377C5.12536 39.1012 5.11755 40.2765 5.55013 41.1864C5.98271 42.0964 6.77291 42.7613 7.58028 43.3606C14.1299 48.2522 22.5722 49.8427 29.6324 53.9616C33.9113 56.4589 38.0544 59.9942 43.008 59.913C46.934 59.849 50.4024 57.4844 53.6038 55.2103C53.8896 55.0074 54.1972 54.7701 54.2581 54.4299C54.3471 53.9335 53.8911 53.5262 53.4773 53.2296L38.7977 42.5443C37.0268 41.2551 35.2387 39.9565 33.2398 39.0591C25.9703 35.7814 16.4458 37.6793 8.68749 37.6216Z" fill="url(#paint1_linear)"/>
<path d="M19.7299 44.8248C19.7299 44.8248 15.465 40.9758 19.6908 36.4947L32.2528 29.4805C33.3443 29.4503 34.4253 29.6996 35.3933 30.2047C36.8925 31.0304 54.675 44.9293 56.0696 46.3231C57.4641 47.7169 57.7234 50.5607 57.7234 50.5607C57.7234 50.5607 57.828 51.4972 57.4657 51.903C57.1034 52.3088 45.0599 58.8783 44.5945 58.7706C44.1292 58.6629 42.5269 58.0463 42.5269 58.0463L19.7299 44.8248Z" fill="url(#paint2_linear)"/>
<path d="M35.3636 19.8862C35.3672 19.769 35.4002 19.6546 35.4595 19.5534C35.5188 19.4523 35.6026 19.3676 35.7031 19.3072C35.8036 19.2468 35.9177 19.2126 36.0349 19.2077C36.1521 19.2027 36.2687 19.2273 36.3739 19.279L48.9421 25.374C48.9421 25.374 49.7761 25.8968 49.748 26.8552C49.7198 27.8135 49.748 35.449 49.748 35.449C49.748 35.449 49.8479 36.3137 48.4768 35.513C47.1056 34.7123 35.8133 28.1241 35.8133 28.1241C35.8133 28.1241 35.3183 27.9196 35.2449 26.6523C35.1871 25.6705 35.3011 21.7935 35.3636 19.8862Z" fill="url(#paint3_linear)"/>
<path d="M35.3636 19.8862C35.3672 19.769 35.4002 19.6546 35.4595 19.5534C35.5188 19.4523 35.6026 19.3676 35.7031 19.3072C35.8036 19.2468 35.9177 19.2126 36.0349 19.2077C36.1521 19.2027 36.2687 19.2273 36.3739 19.279L48.9421 25.374C48.9421 25.374 49.7761 25.8968 49.748 26.8552C49.7198 27.8135 49.748 35.449 49.748 35.449C49.748 35.449 49.8479 36.3137 48.4768 35.513C47.1056 34.7123 35.8133 28.1241 35.8133 28.1241C35.8133 28.1241 35.3183 27.9196 35.2449 26.6523C35.1871 25.6705 35.3011 21.7935 35.3636 19.8862Z" fill="url(#paint4_linear)"/>
<path d="M35.1686 20.2671C35.1726 20.1501 35.2058 20.0359 35.2653 19.935C35.3247 19.8341 35.4084 19.7496 35.5088 19.6893C35.6092 19.629 35.7231 19.5947 35.8402 19.5895C35.9572 19.5844 36.0737 19.6086 36.179 19.6599L48.7487 25.7611C48.7487 25.7611 49.5827 26.284 49.553 27.2439C49.5233 28.2038 49.553 35.8361 49.553 35.8361C49.553 35.8361 49.6545 36.7008 48.2834 35.9001C46.9122 35.0994 35.6199 28.5128 35.6199 28.5128C35.6199 28.5128 35.1249 28.3084 35.0499 27.0394C34.9921 26.0593 35.1077 22.1822 35.1686 20.2671Z" fill="url(#paint5_linear)"/>
<path d="M35.0046 24.5217L49.4265 32.2711L49.7467 35.4489L35.0499 27.0409L35.0046 24.5217Z" fill="url(#paint6_linear)"/>
<path d="M74.0522 42.8036C73.4634 43.8556 72.7294 44.8327 72.022 45.816C70.7992 45.4414 69.35 45.2041 68.5192 44.2302C62.3741 37.0239 59.1852 37.1285 53.6835 34.7514C49.8059 33.072 45.3693 31.9654 41.993 29.4166C41.4417 29.0045 40.8795 28.3537 41.1278 27.7153C41.3761 27.0769 42.1804 26.9724 42.8456 26.9786C44.6527 26.9921 46.4516 27.2227 48.2037 27.6654C48.4102 27.7399 48.6331 27.7571 48.8486 27.7153C49.2281 27.606 49.4046 27.1534 49.3889 26.7585C49.328 25.5239 48.2958 25.0245 47.1683 24.5235C45.527 23.7883 43.7155 22.8331 42.071 22.1011C43.7061 22.1947 45.2209 21.2973 46.8341 20.9992C47.4767 20.8944 48.1259 20.8355 48.7768 20.8228C50.4124 20.7624 52.05 20.7036 53.6897 20.6464C54.241 20.6246 54.8079 20.6027 55.3373 20.7619C55.962 20.9554 56.4882 21.3737 56.9786 21.8076C59.4772 23.9928 61.4886 26.6742 63.7249 29.1294C65.9612 31.5845 73.1495 34.998 73.832 35.3445C75.0048 37.8231 75.6466 39.9645 74.0522 42.8036Z" fill="#F3B496"/>
<path d="M19.071 28.4705C16.8847 25.5784 12.6963 24.6809 10.7068 21.6529C14.1502 19.6567 18.095 18.7327 21.9741 17.8352C23.0376 19.3055 24.5821 20.3325 26.0219 21.4422C27.4618 22.552 28.8751 23.8334 29.4841 25.5425C29.862 26.6038 29.9011 27.7526 29.9354 28.8779L29.9854 30.5261C30.013 30.6586 29.9919 30.7965 29.9259 30.9147C29.8599 31.0328 29.7535 31.1232 29.6262 31.1692C28.6431 31.7668 27.6264 32.3072 26.581 32.7877C25.986 33.0484 25.3738 33.27 24.7882 33.5525C23.7981 34.0286 22.9142 34.6732 22.0413 35.3365C20.8935 36.2106 21.0527 34.8511 20.9481 33.9599C20.7045 32.0292 20.2641 30.047 19.071 28.4705Z" fill="white"/>
<path d="M19.6909 36.4949C19.6909 36.4949 31.9421 29.5587 32.2529 29.4807C32.5636 29.4026 34.6953 29.6742 36.207 30.9541C37.7186 32.2339 45.9376 38.7035 45.9376 38.7035C45.9376 38.7035 46.1313 39.4402 45.8189 39.8647C45.5066 40.2892 35.7385 45.8317 34.7312 45.5601C33.7239 45.2885 23.9948 35.0996 19.6909 36.4949Z" fill="url(#paint7_linear)"/>
<path d="M19.6909 36.4949C19.6909 36.4949 31.9421 29.5587 32.2529 29.4807C32.5636 29.4026 34.6953 29.6742 36.207 30.9541C37.7186 32.2339 45.9376 38.7035 45.9376 38.7035C45.9376 38.7035 46.1313 39.4402 45.8189 39.8647C45.5066 40.2892 35.7385 45.8317 34.7312 45.5601C33.7239 45.2885 23.9948 35.0996 19.6909 36.4949Z" fill="url(#paint8_linear)" fill-opacity="0.8"/>
<path d="M19.6521 37.3079C19.6521 37.3079 20.0409 35.836 24.0731 38.8577C28.1053 41.8795 45.7051 56.0625 45.7051 56.0625L45.2366 58.4646C45.2366 58.4646 20.1127 46.142 19.7254 44.8247C19.3382 43.5074 16.3179 40.4888 19.6521 37.3079Z" fill="url(#paint9_linear)"/>
<path d="M46.3248 55.7537L57.1033 49.5542L57.4656 51.9048L45.9375 57.7687L46.3248 55.7537Z" fill="url(#paint10_linear)"/>
<path d="M41.8476 47.0661L39.5895 48.3709L37.4844 46.7133L39.8206 45.4631L41.8476 47.0661Z" fill="url(#paint11_linear)"/>
<path d="M44.276 45.6616L41.8476 47.0663L39.8206 45.4633L42.3317 44.1257L44.276 45.6616Z" fill="url(#paint12_linear)"/>
<path d="M46.4749 44.3911L44.276 45.6616L42.3318 44.1257L44.6009 42.9146H44.6071L46.4749 44.3911Z" fill="url(#paint13_linear)"/>
<path d="M48.7487 43.075L46.4749 44.3908L44.6072 42.9142L46.92 41.6765L48.7487 43.075Z" fill="url(#paint14_linear)"/>
<path d="M51.0286 44.8139L48.7049 46.1578L46.4749 44.391L48.7486 43.0752L51.0286 44.8139Z" fill="url(#paint15_linear)"/>
<path d="M53.1602 46.4497L50.7974 47.8138L48.7048 46.1578L51.0286 44.814L53.1602 46.4497Z" fill="url(#paint16_linear)"/>
<path d="M55.1656 47.9793L52.7747 49.3778L50.7976 47.8139L53.1604 46.4497L55.1656 47.9793Z" fill="url(#paint17_linear)"/>
<path d="M52.7746 49.3776L50.5883 50.6544L48.605 49.0858L50.7975 47.8137L52.7746 49.3776Z" fill="url(#paint18_linear)"/>
<path d="M50.5882 50.6546L48.1707 52.0702L46.1765 50.4907L48.6049 49.0859L50.5882 50.6546Z" fill="url(#paint19_linear)"/>
<path d="M48.1709 52.07L45.9393 53.3749L43.9294 51.7891L46.1767 50.4905L48.1709 52.07Z" fill="url(#paint20_linear)"/>
<path d="M46.1767 50.4903L43.9294 51.7889L41.8306 50.1376L44.084 48.8328L46.1767 50.4903Z" fill="url(#paint21_linear)"/>
<path d="M44.084 48.833L41.8306 50.1378L39.5896 48.371L41.8478 47.0662L44.084 48.833Z" fill="url(#paint22_linear)"/>
<path d="M48.7047 46.1577L46.5075 47.4298L44.2759 45.6614L46.4747 44.3909L48.7047 46.1577Z" fill="url(#paint23_linear)"/>
<path d="M46.5076 47.4298L44.0839 48.8329L41.8477 47.0661L44.276 45.6614L46.5076 47.4298Z" fill="url(#paint24_linear)"/>
<path d="M50.7974 47.8137L48.6049 49.0858L46.5076 47.4298L48.7048 46.1577L50.7974 47.8137Z" fill="url(#paint25_linear)"/>
<path d="M48.605 49.0859L46.1766 50.4907L44.084 48.8331L46.5077 47.4299L48.605 49.0859Z" fill="url(#paint26_linear)"/>
</g>
<defs>
<linearGradient id="paint0_linear" x1="31.321" y1="-39.6077" x2="106.88" y2="61.6386" gradientUnits="userSpaceOnUse">
<stop stop-color="#D5C1FC"/>
<stop offset="1" stop-color="#FB9CCB"/>
</linearGradient>
<linearGradient id="paint1_linear" x1="25.7235" y1="24.5923" x2="41.6704" y2="68.7154" gradientUnits="userSpaceOnUse">
<stop stop-color="#D5C1FC"/>
<stop offset="1" stop-color="#FB9CCB"/>
</linearGradient>
<linearGradient id="paint2_linear" x1="34.4902" y1="13.3644" x2="62.0931" y2="61.7471" gradientUnits="userSpaceOnUse">
<stop stop-color="#D5C1FC"/>
<stop offset="1" stop-color="#FB9CCB"/>
</linearGradient>
<linearGradient id="paint3_linear" x1="41.2925" y1="10.0506" x2="59.3929" y2="30.3622" gradientUnits="userSpaceOnUse">
<stop stop-color="#D5C1FC"/>
<stop offset="1" stop-color="#FB9CCB"/>
</linearGradient>
<linearGradient id="paint4_linear" x1="35.2277" y1="27.5263" x2="49.7495" y2="27.5263" gradientUnits="userSpaceOnUse">
<stop stop-color="#010101" stop-opacity="0"/>
<stop offset="0.95" stop-color="#010101"/>
</linearGradient>
<linearGradient id="paint5_linear" x1="41.0976" y1="10.4295" x2="59.2045" y2="30.7418" gradientUnits="userSpaceOnUse">
<stop stop-color="#D5C1FC"/>
<stop offset="1" stop-color="#FB9CCB"/>
</linearGradient>
<linearGradient id="paint6_linear" x1="4151.42" y1="1880.73" x2="3925.61" y2="2741.37" gradientUnits="userSpaceOnUse">
<stop stop-color="#010101" stop-opacity="0"/>
<stop offset="0.95" stop-color="#010101"/>
</linearGradient>
<linearGradient id="paint7_linear" x1="30.6757" y1="20.6115" x2="44.3514" y2="49.3539" gradientUnits="userSpaceOnUse">
<stop stop-color="#D5C1FC"/>
<stop offset="1" stop-color="#FB9CCB"/>
</linearGradient>
<linearGradient id="paint8_linear" x1="48.1538" y1="44.529" x2="37.577" y2="21.3664" gradientUnits="userSpaceOnUse">
<stop stop-color="#D58ABB"/>
<stop offset="1" stop-color="#817FBC"/>
</linearGradient>
<linearGradient id="paint9_linear" x1="7579.68" y1="5678.01" x2="5677.53" y2="11243.4" gradientUnits="userSpaceOnUse">
<stop stop-color="#010101" stop-opacity="0"/>
<stop offset="0.95" stop-color="#010101"/>
</linearGradient>
<linearGradient id="paint10_linear" x1="4155.02" y1="2430.62" x2="3335.14" y2="5054.42" gradientUnits="userSpaceOnUse">
<stop stop-color="#010101" stop-opacity="0"/>
<stop offset="0.95" stop-color="#010101"/>
</linearGradient>
<linearGradient id="paint11_linear" x1="37.4859" y1="46.9178" x2="41.8476" y2="46.9178" gradientUnits="userSpaceOnUse">
<stop stop-color="white" stop-opacity="0"/>
<stop offset="0.66" stop-color="white"/>
</linearGradient>
<linearGradient id="paint12_linear" x1="1175.9" y1="903.152" x2="1303.02" y2="903.152" gradientUnits="userSpaceOnUse">
<stop stop-color="white" stop-opacity="0"/>
<stop offset="0.66" stop-color="white"/>
</linearGradient>
<linearGradient id="paint13_linear" x1="1165.39" y1="822.381" x2="1275.27" y2="822.381" gradientUnits="userSpaceOnUse">
<stop stop-color="white" stop-opacity="0"/>
<stop offset="0.66" stop-color="white"/>
</linearGradient>
<linearGradient id="paint14_linear" x1="1227.59" y1="790.021" x2="1337.42" y2="790.021" gradientUnits="userSpaceOnUse">
<stop stop-color="white" stop-opacity="0"/>
<stop offset="0.66" stop-color="white"/>
</linearGradient>
<linearGradient id="paint15_linear" x1="1401.64" y1="924.234" x2="1534.47" y2="924.234" gradientUnits="userSpaceOnUse">
<stop stop-color="white" stop-opacity="0"/>
<stop offset="0.66" stop-color="white"/>
</linearGradient>
<linearGradient id="paint16_linear" x1="1438.25" y1="934.965" x2="1565.37" y2="934.965" gradientUnits="userSpaceOnUse">
<stop stop-color="white" stop-opacity="0"/>
<stop offset="0.66" stop-color="white"/>
</linearGradient>
<linearGradient id="paint17_linear" x1="1471.6" y1="945.31" x2="1593.77" y2="945.31" gradientUnits="userSpaceOnUse">
<stop stop-color="white" stop-opacity="0"/>
<stop offset="0.66" stop-color="white"/>
</linearGradient>
<linearGradient id="paint18_linear" x1="1346.36" y1="943.874" x2="1457.68" y2="943.874" gradientUnits="userSpaceOnUse">
<stop stop-color="white" stop-opacity="0"/>
<stop offset="0.66" stop-color="white"/>
</linearGradient>
<linearGradient id="paint19_linear" x1="1350.66" y1="1016.14" x2="1475.29" y2="1016.14" gradientUnits="userSpaceOnUse">
<stop stop-color="white" stop-opacity="0"/>
<stop offset="0.66" stop-color="white"/>
</linearGradient>
<linearGradient id="paint20_linear" x1="1237.05" y1="1010.21" x2="1352.25" y2="1010.21" gradientUnits="userSpaceOnUse">
<stop stop-color="white" stop-opacity="0"/>
<stop offset="0.66" stop-color="white"/>
</linearGradient>
<linearGradient id="paint21_linear" x1="1205.97" y1="1001.73" x2="1326.92" y2="1001.73" gradientUnits="userSpaceOnUse">
<stop stop-color="white" stop-opacity="0"/>
<stop offset="0.66" stop-color="white"/>
</linearGradient>
<linearGradient id="paint22_linear" x1="1178.97" y1="1003.55" x2="1308.32" y2="1003.55" gradientUnits="userSpaceOnUse">
<stop stop-color="white" stop-opacity="0"/>
<stop offset="0.66" stop-color="white"/>
</linearGradient>
<linearGradient id="paint23_linear" x1="1299.95" y1="938.251" x2="1425.55" y2="938.251" gradientUnits="userSpaceOnUse">
<stop stop-color="white" stop-opacity="0"/>
<stop offset="0.66" stop-color="white"/>
</linearGradient>
<linearGradient id="paint24_linear" x1="1290.58" y1="1005.73" x2="1429.63" y2="1005.73" gradientUnits="userSpaceOnUse">
<stop stop-color="white" stop-opacity="0"/>
<stop offset="0.66" stop-color="white"/>
</linearGradient>
<linearGradient id="paint25_linear" x1="1324.07" y1="939.54" x2="1441.91" y2="939.54" gradientUnits="userSpaceOnUse">
<stop stop-color="white" stop-opacity="0"/>
<stop offset="0.66" stop-color="white"/>
</linearGradient>
<linearGradient id="paint26_linear" x1="1320.31" y1="1007.52" x2="1451.2" y2="1007.52" gradientUnits="userSpaceOnUse">
<stop stop-color="white" stop-opacity="0"/>
<stop offset="0.66" stop-color="white"/>
</linearGradient>
<clipPath id="clip0">
<rect width="75" height="72" fill="white"/>
</clipPath>
</defs>
</svg>
