<svg width="744" height="754" viewBox="0 0 744 754" fill="none" xmlns="http://www.w3.org/2000/svg">
<g clip-path="url(#clip0)">
<path d="M655.726 286.728C614.099 123.042 470.265 4.88348 301.435 0.144239C212.18 -2.36125 118.258 27.2407 49.8768 130.829C-72.3629 316.004 57.3887 443.965 147.848 504.77C191.551 534.206 230.93 569.599 264.844 609.926C325.946 682.433 443.493 772.534 583.486 631.36C684.954 529.036 683.453 395.759 655.726 286.728Z" fill="#F2F2F2"/>
<path d="M726.911 663.631C726.911 695.893 575.188 753.134 388.029 753.134C200.869 753.134 66.9108 637.135 66.9108 604.873C66.9108 572.611 200.869 636.301 388.029 636.301C575.188 636.301 726.911 631.368 726.911 663.631Z" fill="#3F3D56"/>
<path opacity="0.1" d="M726.911 663.631C726.911 695.893 575.188 753.134 388.029 753.134C200.869 753.134 66.9108 637.135 66.9108 604.873C66.9108 572.611 200.869 636.301 388.029 636.301C575.188 636.301 726.911 631.368 726.911 663.631Z" fill="black"/>
<path d="M726.911 663.289C726.911 695.551 575.188 721.705 388.029 721.705C200.869 721.705 66.9108 637.135 66.9108 604.873C66.9108 572.611 200.869 604.873 388.029 604.873C575.188 604.873 726.911 631.027 726.911 663.289Z" fill="#3F3D56"/>
<g opacity="0.7">
<path opacity="0.7" d="M715.693 175.833C703.401 199.691 664.441 227.805 640.583 215.513C616.725 203.221 617.002 155.178 629.294 131.319C635.198 119.865 645.41 111.224 657.685 107.298C669.959 103.372 683.29 104.482 694.746 110.384C706.202 116.286 714.844 126.497 718.772 138.771C722.701 151.044 721.593 164.376 715.693 175.833V175.833Z" fill="#A880F7"/>
<path opacity="0.7" d="M642.602 221.822C641.835 220.327 640.62 219.11 639.126 218.34C637.633 217.571 635.936 217.288 634.274 217.531L638.565 209.204L646.892 213.494L642.602 221.822Z" fill="#A880F7"/>
<path opacity="0.7" d="M636.532 213.202C637.489 214.524 638.745 215.6 640.199 216.341C641.652 217.082 643.261 217.468 644.892 217.466" stroke="#2F2E41" stroke-width="2" stroke-miterlimit="10"/>
<path opacity="0.4" d="M708.943 149.303C712.053 143.267 710.497 136.272 705.466 133.681C700.436 131.089 693.837 133.882 690.727 139.918C687.617 145.954 689.173 152.949 694.204 155.541C699.234 158.132 705.833 155.34 708.943 149.303Z" fill="white"/>
<path opacity="0.7" d="M640.36 215.811L604.105 307.044" stroke="#2F2E41" stroke-width="2" stroke-miterlimit="10"/>
</g>
<path d="M723.346 322.185C696.434 349.335 631.474 370.85 604.324 343.938C577.174 317.027 598.116 251.879 625.028 224.729C637.953 211.699 655.524 204.335 673.877 204.258C692.23 204.18 709.863 211.395 722.898 224.315C735.933 237.236 743.302 254.804 743.386 273.157C743.47 291.511 736.262 309.146 723.346 322.185Z" fill="#FF6584"/>
<path d="M604.366 353.373C603.964 351.014 602.834 348.841 601.134 347.156C599.435 345.472 597.251 344.361 594.889 343.98L604.283 334.503L613.759 343.897L604.366 353.373Z" fill="#FF6584"/>
<path d="M599.81 339.066C600.543 341.271 601.79 343.27 603.447 344.899C605.104 346.529 607.124 347.741 609.342 348.437" stroke="#2F2E41" stroke-width="2" stroke-miterlimit="10"/>
<path d="M602.516 346.228L513.28 436.253" stroke="#2F2E41" stroke-width="2" stroke-miterlimit="10"/>
<path opacity="0.4" d="M725.533 283.256C732.342 276.387 733.222 266.218 727.497 260.544C721.773 254.87 711.613 255.839 704.804 262.708C697.995 269.577 697.115 279.746 702.84 285.42C708.564 291.094 718.724 290.125 725.533 283.256Z" fill="white"/>
<path d="M639.232 234.23C630.364 271.415 586.067 323.573 548.882 314.705C511.697 305.837 495.706 239.301 504.574 202.116C508.843 184.27 520.023 168.849 535.657 159.243C551.291 149.637 570.1 146.632 587.949 150.889C605.798 155.146 621.226 166.316 630.843 181.943C640.459 197.571 643.477 216.378 639.232 234.23V234.23Z" fill="#A880F7"/>
<path d="M553.824 322.742C552.254 320.937 550.159 319.668 547.831 319.113C545.504 318.557 543.061 318.744 540.845 319.647L543.94 306.668L556.919 309.763L553.824 322.742Z" fill="#A880F7"/>
<path d="M542.492 312.891C544.265 314.393 546.37 315.452 548.633 315.982C550.895 316.512 553.251 316.497 555.507 315.938" stroke="#2F2E41" stroke-width="2" stroke-miterlimit="10"/>
<path opacity="0.4" d="M620.856 199.841C623.1 190.433 618.563 181.29 610.723 179.42C602.883 177.551 594.708 183.662 592.464 193.07C590.221 202.478 594.758 211.621 602.598 213.491C610.438 215.36 618.613 209.249 620.856 199.841Z" fill="white"/>
<path d="M548.676 317.585L519.271 440.885" stroke="#2F2E41" stroke-width="2" stroke-miterlimit="10"/>
<g opacity="0.8">
<path opacity="0.8" d="M227.064 560.278C207.734 579.088 161.634 593.439 142.824 574.109C124.014 554.779 139.617 509.087 158.947 490.277C163.543 485.805 168.976 482.281 174.934 479.908C180.892 477.535 187.259 476.358 193.672 476.446C200.084 476.533 206.417 477.883 212.308 480.418C218.199 482.953 223.533 486.623 228.006 491.219C232.479 495.816 236.002 501.248 238.375 507.206C240.749 513.164 241.925 519.531 241.838 525.944C241.75 532.356 240.401 538.689 237.866 544.58C235.331 550.471 231.661 555.806 227.064 560.278V560.278Z" fill="#A880F7"/>
<path opacity="0.8" d="M142.734 580.765C142.48 579.096 141.711 577.548 140.533 576.338C139.356 575.128 137.83 574.317 136.168 574.018L142.915 567.453L149.481 574.2L142.734 580.765Z" fill="#A880F7"/>
<path opacity="0.8" d="M139.702 570.614C140.191 572.179 141.045 573.605 142.193 574.776C143.342 575.946 144.751 576.827 146.307 577.346" stroke="#2F2E41" stroke-width="2" stroke-miterlimit="10"/>
<path opacity="0.4" d="M229.103 532.844C233.993 528.084 234.743 520.922 230.777 516.847C226.811 512.771 219.631 513.325 214.741 518.084C209.85 522.844 209.1 530.006 213.066 534.081C217.032 538.157 224.212 537.603 229.103 532.844Z" fill="white"/>
</g>
<path d="M436.859 163.886H450.439C459.348 163.886 467.892 167.425 474.192 173.725C480.492 180.025 484.031 188.569 484.031 197.478V244.651H403.266V197.478C403.266 193.067 404.135 188.699 405.823 184.623C407.512 180.547 409.986 176.844 413.105 173.725C416.225 170.605 419.928 168.131 424.003 166.443C428.079 164.755 432.447 163.886 436.859 163.886Z" fill="#2F2E41"/>
<path d="M398.311 374.183L388.119 395.613C388.119 395.613 379.811 424.401 389.224 427.478C398.638 430.556 400.476 397.936 400.476 397.936L408.272 376.336L398.311 374.183Z" fill="#FFB9B9"/>
<path opacity="0.1" d="M398.311 374.183L388.119 395.613C388.119 395.613 379.811 424.401 389.224 427.478C398.638 430.556 400.476 397.936 400.476 397.936L408.272 376.336L398.311 374.183Z" fill="black"/>
<path d="M400.242 340.643L387.351 385.76L407.762 396.502V342.791L400.242 340.643Z" fill="#575A89"/>
<path d="M435.154 220.867C435.154 220.867 434.08 238.055 431.932 238.055C429.783 238.055 425.486 258.465 425.486 258.465L443.748 270.281L466.307 249.871L459.861 233.758C459.861 233.758 456.639 227.313 457.713 220.867C458.787 214.422 435.154 220.867 435.154 220.867Z" fill="#FFB9B9"/>
<path opacity="0.1" d="M435.154 220.867C435.154 220.867 434.08 238.055 431.932 238.055C429.783 238.055 425.486 258.465 425.486 258.465L443.748 270.281L466.307 249.871L459.861 233.758C459.861 233.758 456.639 227.313 457.713 220.867C458.787 214.422 435.154 220.867 435.154 220.867Z" fill="black"/>
<path d="M502.83 391.668L504.979 415.301C504.979 415.301 512.498 444.305 522.166 442.157C531.834 440.008 516.795 411.004 516.795 411.004L512.498 388.446L502.83 391.668Z" fill="#FFB9B9"/>
<path d="M456.639 624.774C456.639 624.774 463.084 664.52 458.787 672.039C454.49 679.559 463.084 680.633 463.084 680.633L488.865 674.188V662.372C488.865 662.372 480.271 623.7 480.271 621.551C480.271 619.403 456.639 624.774 456.639 624.774Z" fill="#FFB9B9"/>
<path d="M404.002 446.453C404.002 446.453 411.521 523.797 423.338 548.504C435.154 573.211 445.896 640.887 451.267 641.961C456.638 643.035 497.459 635.516 502.83 631.219C508.201 626.922 466.306 522.723 466.306 521.649C466.306 520.574 456.638 424.969 456.638 424.969L443.748 403.485L404.002 446.453Z" fill="#2F2E41"/>
<path opacity="0.1" d="M404.002 446.453C404.002 446.453 411.521 523.797 423.338 548.504C435.154 573.211 445.896 640.887 451.267 641.961C456.638 643.035 497.459 635.516 502.83 631.219C508.201 626.922 466.306 522.723 466.306 521.649C466.306 520.574 456.638 424.969 456.638 424.969L443.748 403.485L404.002 446.453Z" fill="black"/>
<path d="M466.307 669.891C466.307 669.891 455.564 664.52 453.416 667.743L444.822 680.633C444.822 680.633 408.299 697.821 421.189 699.969C434.08 702.118 458.787 702.118 462.01 699.969C465.232 697.821 500.682 678.485 499.607 677.411C498.533 676.336 489.939 653.778 488.865 655.926C487.791 658.075 472.752 674.188 466.307 669.891Z" fill="#2F2E41"/>
<path d="M285.838 578.582C285.838 578.582 261.131 595.77 249.314 592.547C237.498 589.325 249.314 616.18 249.314 616.18L270.799 627.996L277.244 622.625C277.244 622.625 299.803 592.547 309.471 591.473C319.139 590.399 285.838 578.582 285.838 578.582Z" fill="#FFB9B9"/>
<path d="M397.556 382L401.853 404.559L321.287 527.02C321.287 527.02 272.947 575.36 277.244 580.731C281.541 586.102 308.396 617.254 314.842 612.957C321.287 608.661 470.603 447.528 469.529 426.043C468.455 404.559 433.006 363.739 433.006 363.739L397.556 379.852V382Z" fill="#2F2E41"/>
<path d="M254.685 600.067C254.685 600.067 264.353 589.325 258.982 588.25C252.941 587.186 246.844 586.468 240.721 586.102C238.572 586.102 209.568 571.063 207.42 576.434C205.271 581.805 220.31 609.735 228.904 612.957C237.498 616.18 268.65 638.739 268.65 638.739C268.65 638.739 284.763 624.774 282.615 621.551C280.467 618.329 250.388 611.883 254.685 600.067Z" fill="#2F2E41"/>
<path d="M443.748 231.61C457.986 231.61 469.529 220.067 469.529 205.828C469.529 191.59 457.986 180.047 443.748 180.047C429.509 180.047 417.967 191.59 417.967 205.828C417.967 220.067 429.509 231.61 443.748 231.61Z" fill="#FFB9B9"/>
<path d="M449.119 244.5C449.119 244.5 430.857 245.574 425.486 242.352C420.115 239.129 408.299 286.395 408.299 286.395L400.779 348.699C400.779 348.699 399.705 356.219 400.779 360.516C401.853 364.813 390.037 358.367 394.334 370.184C398.631 382 391.111 387.371 398.631 388.446C406.15 389.52 445.896 373.407 445.896 373.407L464.158 277.801L469.529 239.129L449.119 244.5Z" fill="#D0CDE1"/>
<path d="M433.234 235.774C433.234 235.774 423.338 233.758 420.115 235.906C416.892 238.055 405.076 254.168 405.076 258.465C405.076 262.762 400.779 310.028 400.779 314.324C400.779 318.621 397.556 341.18 397.556 343.328C397.556 345.477 400.312 354.711 400.312 354.711L407.224 342.254C407.224 342.254 405.076 326.141 412.595 300.36C420.115 274.578 433.234 235.774 433.234 235.774Z" fill="#575A89"/>
<path d="M443.748 252.02C443.748 252.02 458.099 229.461 458.98 231.61C459.861 233.758 475.974 236.981 475.974 236.981C475.974 236.981 504.978 257.391 502.83 265.985C500.682 274.578 485.642 339.032 485.642 339.032C485.642 339.032 471.678 372.332 482.42 395.965C493.162 419.598 480.271 428.192 480.271 428.192C480.271 428.192 471.678 432.489 473.826 436.785C475.974 441.082 449.119 457.196 445.896 445.379C442.674 433.563 402.928 362.664 411.521 336.883C420.115 311.102 443.748 252.02 443.748 252.02Z" fill="#575A89"/>
<path d="M497.459 262.762C497.459 262.762 509.275 285.321 507.127 288.543C504.979 291.766 514.646 311.102 514.646 311.102C513.978 312.83 513.978 314.745 514.646 316.473C515.721 319.696 522.166 333.66 522.166 339.032C522.166 344.403 521.092 361.59 522.166 369.11C523.24 376.629 537.205 394.891 525.389 395.965C513.572 397.039 494.236 406.707 495.311 395.965C496.385 385.223 499.607 359.442 495.311 355.145C491.014 350.848 487.791 350.848 489.939 345.477C492.088 340.106 480.271 326.141 480.271 326.141L497.459 262.762Z" fill="#575A89"/>
<path d="M465.29 199.477H424.514L415.281 178.259H472.215L465.29 199.477Z" fill="#2F2E41"/>
<path d="M419.164 215.003C420.253 214.687 420.454 212.077 419.612 209.172C418.77 206.268 417.205 204.169 416.116 204.485C415.027 204.8 414.826 207.411 415.668 210.315C416.509 213.22 418.075 215.319 419.164 215.003Z" fill="#FFB9B9"/>
<path d="M470.945 210.315C471.787 207.411 471.586 204.8 470.497 204.485C469.408 204.169 467.843 206.268 467.001 209.172C466.159 212.077 466.36 214.688 467.449 215.003C468.538 215.319 470.104 213.22 470.945 210.315Z" fill="#FFB9B9"/>
<path d="M711.911 618.979C711.911 643.931 697.078 652.643 678.781 652.643C678.356 652.643 677.93 652.637 677.511 652.632C676.66 652.609 675.821 652.568 674.994 652.511C658.478 651.344 645.651 642.184 645.651 618.979C645.651 594.969 676.327 564.672 678.643 562.419C678.644 562.419 678.644 562.419 678.645 562.419C678.646 562.419 678.647 562.418 678.647 562.418C678.648 562.417 678.648 562.416 678.648 562.416C678.649 562.415 678.649 562.414 678.649 562.414C678.735 562.333 678.781 562.287 678.781 562.287C678.781 562.287 711.911 594.026 711.911 618.979Z" fill="#F2F2F2"/>
<path d="M677.574 648.827L689.688 631.897L677.545 650.684L677.511 652.632C676.66 652.609 675.821 652.568 674.994 652.511L676.298 627.553L676.287 627.357L676.31 627.323L676.436 624.961L664.259 606.129L676.471 623.191L676.499 623.697L677.488 604.836L667.063 585.372L677.614 601.52L678.643 562.419L678.649 562.287V562.414L678.476 593.251L688.855 581.027L678.43 595.906L678.16 612.795L687.849 596.589L678.12 615.278L677.965 624.668L692.033 602.112L677.913 627.944L677.574 648.827Z" fill="#3F3D56"/>
</g>
<defs>
<clipPath id="clip0">
<rect width="743.404" height="753.134" fill="white"/>
</clipPath>
</defs>
</svg>
