<svg width="510" height="372" viewBox="0 0 510 372" fill="none" xmlns="http://www.w3.org/2000/svg">
<path d="M509.848 215.561L479.13 237.205L342.74 332.851C332.265 340.385 321.357 347.299 310.07 353.557C300.872 358.517 295.614 367.986 284.483 370.511C278.956 371.47 273.296 371.372 267.805 370.222C258.827 368.763 249.993 366.524 241.405 363.531C240.357 363.17 238.857 362.954 238.388 363.964C237.918 364.974 240.448 364.865 239.562 364.18C159.604 353.358 83.2055 324.5 3.97015 309.35C3.04956 309.18 2.20931 308.715 1.57601 308.027C0.942708 307.339 0.550648 306.464 0.458901 305.534C0.367153 304.604 0.580691 303.669 1.06733 302.871C1.55398 302.072 2.28737 301.453 3.15702 301.107C9.53561 298.51 16.4924 297.5 23.5215 296.129C36.1703 293.803 48.6383 291.53 61.2509 289.474C86.6704 285.079 112.335 282.236 138.101 280.961C180.89 279.157 224.077 283.72 266.396 277.101C306.601 270.824 344.438 254.79 381.843 238.738C390.877 234.878 400.075 230.874 407.14 224.093C412.688 218.772 417.133 211.756 424.198 208.257C431.534 204.65 440.461 205.281 448.339 205.642C469.119 206.561 489.646 210.782 509.848 215.561Z" fill="url(#paint0_linear)"/>
<path d="M7.43928 282.494L186.04 204.938C189.908 203 194.274 202.277 198.562 202.864L419.463 221.604C423.692 222.199 422.933 240.343 419.463 243.247L289 354.098C285.071 357.56 280.367 360.032 275.283 361.306C270.2 362.58 264.884 362.619 259.782 361.42L9.01133 300.548C5.813 299.773 4.43972 283.973 7.43928 282.494Z" fill="#F39AC4"/>
<path d="M7.43928 282.494L186.04 204.938C189.908 203 194.274 202.277 198.562 202.864L419.463 221.604C423.692 222.199 422.933 240.343 419.463 243.247L289 354.098C285.071 357.56 280.367 360.032 275.283 361.306C270.2 362.58 264.884 362.619 259.782 361.42L9.01133 300.548C5.813 299.773 4.43972 283.973 7.43928 282.494Z" fill="#3D467F"/>
<path d="M419.518 230.387L289.055 341.238C285.128 344.706 280.426 347.183 275.341 348.46C270.257 349.737 264.94 349.778 259.836 348.579L9.01147 287.688C5.81314 286.913 5.39755 281.863 8.37904 280.366L77.116 241.642L95.1856 231.506L150.135 200.682C154.004 198.743 158.369 198.02 162.658 198.607L417.295 220.72C421.523 221.225 422.933 227.483 419.518 230.387Z" fill="#F39AC4"/>
<path d="M162.64 204.649L395.395 239.008L323.749 297.085L84.8859 248.838L162.64 204.649Z" fill="#FDECF4"/>
<path d="M138.282 263.231L234.195 282.584L184.594 322.967L84.8859 300.638L138.282 263.231Z" fill="#E1EEFB"/>
<path d="M90.325 307.636C91.3057 309.603 92.6942 311.339 94.3983 312.729C96.1024 314.119 98.0831 315.131 100.209 315.699C107.256 317.394 148.329 327.891 148.329 327.891C148.329 327.891 155.014 328.685 158.719 324.284L90.325 307.636Z" fill="url(#paint1_linear)"/>
<path d="M155.34 198.499L418.036 235.816C419.961 236.084 421.917 235.608 423.502 234.485C425.087 233.361 426.183 231.677 426.565 229.774L464.041 40.8806C464.443 38.8646 464.414 36.7868 463.957 34.7828C463.5 32.7787 462.625 30.8932 461.389 29.2493C460.153 27.6055 458.583 26.24 456.783 25.2421C454.983 24.2442 452.992 23.6361 450.941 23.4575L191.515 0.74994C187.697 0.416063 183.9 1.58855 180.937 4.01606C177.975 6.44357 176.083 9.93289 175.668 13.736L155.34 198.499Z" fill="#F39AC4"/>
<path d="M155.34 198.499L417.349 235.708C419.466 236.007 421.618 235.486 423.362 234.252C425.106 233.017 426.31 231.164 426.728 229.071L464.041 40.8806C464.443 38.8646 464.414 36.7868 463.957 34.7828C463.5 32.7787 462.625 30.8932 461.389 29.2493C460.153 27.6055 458.583 26.24 456.783 25.2421C454.983 24.2442 452.992 23.6361 450.941 23.4576L191.515 0.74994C187.697 0.416063 183.9 1.58855 180.937 4.01606C177.975 6.44357 176.083 9.93289 175.668 13.736L155.34 198.499Z" fill="#3D467F"/>
<path d="M413.284 224.958L450.598 34.3694L186.04 9.98438L165.007 190.437L413.284 224.958Z" fill="white"/>
<path d="M391.528 69.0171L205.971 49.7364L210.181 26.2893L395.792 45.57C397.361 45.6716 398.891 46.1009 400.282 46.8302C401.674 47.5595 402.897 48.5725 403.871 49.8036C404.846 51.0347 405.55 52.4564 405.939 53.9766C406.328 55.4968 406.392 57.0816 406.128 58.6283C405.416 61.8575 403.528 64.7079 400.831 66.6273C398.134 68.5467 394.818 69.3983 391.528 69.0171Z" fill="#F39AC4"/>
<path opacity="0.56" d="M205.971 49.7363L355.858 65.3376L360.069 41.8184L210.181 26.199L205.971 49.7363Z" fill="#5B5B5B"/>
<path d="M382.51 59.8639C385.68 58.6267 387.327 55.2698 386.189 52.3662C385.051 49.4625 381.56 48.1116 378.39 49.3487C375.221 50.5859 373.574 53.9428 374.712 56.8464C375.85 59.7501 379.341 61.1011 382.51 59.8639Z" stroke="#5B5B5B" stroke-width="1.04" stroke-miterlimit="10"/>
<path d="M384.3 64.3637C384.174 64.0571 382.602 59.7825 382.602 59.7825" stroke="#5B5B5B" stroke-width="1.04" stroke-miterlimit="10"/>
<path opacity="0.18" d="M389.739 102.961L200.369 82.7245L201.363 79.6223L390.715 99.859L389.739 102.961Z" fill="#F39AC4"/>
<path opacity="0.18" d="M267.697 78.1434L203.748 70.5862L205.049 65.031L269.016 71.993L267.697 78.1434Z" fill="#F39AC4"/>
<path opacity="0.18" d="M387.39 115.46L198.02 95.2238L198.996 92.1216L388.366 112.358L387.39 115.46Z" fill="#F39AC4"/>
<g opacity="0.66">
<path opacity="0.18" d="M257.523 128.068L193.575 120.529L194.876 114.955L258.842 121.917L257.523 128.068Z" fill="#F39AC4"/>
<path opacity="0.18" d="M379.06 154.004L189.69 133.767L190.684 130.647L380.054 150.901L379.06 154.004Z" fill="#F39AC4"/>
<path opacity="0.18" d="M374.741 168.469L185.371 148.232L186.365 145.13L375.717 165.367L374.741 168.469Z" fill="#F39AC4"/>
</g>
<path opacity="0.18" d="M371.073 199.726L181.902 175.07L182.878 171.986L372.049 196.641L371.073 199.726Z" fill="#F39AC4"/>
<path d="M266.106 181.509C266.106 181.509 72.5806 245.465 46.1266 188.056C19.6727 130.647 164.537 114.919 164.537 114.919C164.537 114.919 -4.73943 131.747 33.243 202.666C71.2254 273.584 277.653 203.459 277.653 203.459L266.106 181.509Z" fill="#5B5B5B"/>
<path d="M266.558 178.858C266.639 181.485 267.359 184.054 268.654 186.343L273.425 196.515C274.442 199.046 275.87 201.392 277.653 203.459C279.05 204.867 280.759 205.928 282.642 206.555C284.526 207.181 286.531 207.356 288.495 207.066C289.421 207.006 290.316 206.708 291.095 206.203C291.873 205.698 292.508 205.001 292.94 204.18C293.753 202.07 292.38 199.816 291.277 197.85C288.314 192.565 287.049 186.541 285.64 180.661C284.555 176.08 282.351 169.623 276.749 168.974C271.798 168.397 266.847 174.042 266.558 178.858Z" fill="#F39AC4"/>
<path d="M315.166 155.158C315.166 155.158 274.22 117.769 234.196 155.158C234.196 155.158 265.131 151.172 274.672 168.18L315.166 155.158Z" fill="#F39AC4"/>
<path d="M331.898 189.337C331.898 189.337 329.946 244.708 275.177 247.053C275.177 247.053 299.698 227.808 294.223 209.086L331.898 189.337Z" fill="#F39AC4"/>
<path d="M274.672 168.216C274.672 168.216 403.779 94.2678 476.365 106.1C476.365 106.1 459.958 159.343 294.169 209.086L274.672 168.216Z" fill="#5B5B5B"/>
<path d="M476.455 106.063C476.455 106.063 460.048 159.306 294.259 209.05L288.35 196.659L274.672 168.216C274.672 168.216 389.269 102.492 463.228 104.837C467.659 104.957 472.078 105.367 476.455 106.063Z" fill="url(#paint2_linear)"/>
<path d="M476.455 106.063C464.981 121.088 425.372 148.773 343.95 178.299C339.349 179.982 334.608 181.665 329.73 183.349C316.9 187.774 303.107 192.211 288.35 196.659L274.689 168.216C274.689 168.216 288.802 159.757 310.377 149.008C321.761 143.326 335.223 137.014 349.787 130.972C390.426 114.108 439.683 99.2277 476.455 106.063Z" fill="#5B5B5B"/>
<path d="M376.964 133.677C370.079 136.545 362.345 136.076 354.901 136.563C352.688 136.651 350.493 136.996 348.359 137.591C344.149 139.217 340.309 141.67 337.066 144.805C336.626 145.107 336.296 145.544 336.126 146.05C336.077 146.575 336.204 147.101 336.488 147.547C338.136 150.9 340.032 154.125 342.162 157.196C344.691 160.803 347.673 164.645 347.582 169.082C347.326 172.479 346.005 175.71 343.806 178.317L343.264 179.074C340.657 182.577 337.826 185.909 334.789 189.048C332.549 191.357 333.994 198.409 328.573 196.713C323.857 195.253 326.152 189.661 327.76 186.721L329.567 183.367L332.603 177.757C334.916 173.519 337.265 168.487 335.313 164.068C333.94 160.984 330.778 159.126 327.814 157.467C322.222 154.158 316.358 151.328 310.287 149.008C321.671 143.326 335.133 137.014 349.697 130.971C359.204 131.768 368.756 131.907 378.283 131.386C379.078 132.144 377.958 133.262 376.964 133.677Z" fill="url(#paint3_linear)"/>
<path d="M360.882 165.529C369.085 165.529 375.735 158.891 375.735 150.703C375.735 142.515 369.085 135.877 360.882 135.877C352.678 135.877 346.028 142.515 346.028 150.703C346.028 158.891 352.678 165.529 360.882 165.529Z" fill="#F39AC4"/>
<path d="M360.882 160.298C366.47 160.298 371.001 155.776 371.001 150.198C371.001 144.62 366.47 140.098 360.882 140.098C355.293 140.098 350.763 144.62 350.763 150.198C350.763 155.776 355.293 160.298 360.882 160.298Z" fill="url(#paint4_linear)"/>
<path d="M338.674 118.418C338.674 118.508 336.542 118.148 336.596 118.256C337.084 118.829 337.704 119.275 338.403 119.555C340.96 120.585 343.579 121.452 346.245 122.152C348.902 122.422 350.185 119.915 351.016 117.805C351.684 116.11 352.371 114.414 353.076 112.737C353.616 111.658 353.959 110.491 354.088 109.292C354.114 109.017 354.077 108.739 353.979 108.48C353.807 108.148 353.517 107.891 353.166 107.759C352.633 107.542 352.037 107.542 351.504 107.759C350.528 108.174 350.076 109.274 349.588 110.212C348.45 112.358 346.661 114.108 345.685 116.326C344.955 116.372 344.236 116.132 343.679 115.659L340.517 113.603C340.365 113.482 340.185 113.401 339.993 113.368C339.837 113.36 339.681 113.391 339.54 113.457C339.398 113.523 339.274 113.622 339.18 113.747C338.612 114.432 338.271 115.277 338.204 116.164C338.114 116.616 338.114 117.082 338.204 117.534C338.317 117.85 338.476 118.148 338.674 118.418Z" fill="#F39AC4"/>
<path d="M341.114 113.512L342.234 114.198C342.397 114.198 342.559 114.378 342.613 114.559C342.65 114.688 342.65 114.826 342.613 114.955L341.873 118.238C341.647 119.707 341.118 121.114 340.319 122.368C339.885 122.963 336.705 120.763 336.163 120.474C334.81 119.578 333.629 118.448 332.675 117.138C332.234 116.604 331.897 115.992 331.681 115.334C331.355 113.67 331.61 111.945 332.404 110.446C333.669 107.975 335.801 109.202 337.409 110.717C338.554 111.762 339.794 112.698 341.114 113.512Z" fill="#F39AC4"/>
<path d="M320.713 195.433C320.768 195.669 320.894 195.883 321.074 196.046C323.651 198.554 326.722 200.501 330.091 201.764C330.296 201.878 330.525 201.94 330.76 201.944C330.984 201.897 331.184 201.771 331.324 201.589C331.463 201.407 331.532 201.181 331.519 200.952C331.473 200.495 331.305 200.059 331.031 199.69C330.368 198.642 329.625 197.647 328.808 196.714C328.047 196.086 327.561 195.186 327.453 194.207C327.524 193.719 327.651 193.24 327.832 192.782C328.375 190.744 324.977 190.329 323.55 190.816C322.743 191.304 322.064 191.978 321.571 192.781C321.078 193.584 320.783 194.494 320.713 195.433Z" fill="#F39AC4"/>
<path d="M312.401 138.15C312.401 138.15 306.239 146.735 312.582 154.383C316.972 159.685 323.568 163.292 329.639 166.322C330.705 166.864 331.97 167.296 333 167.946C335.006 169.208 333.777 170.272 332.711 171.95C330.037 176.242 327.338 180.505 324.616 184.737C323.042 186.88 321.963 189.344 321.454 191.952L328.338 194.044C332.047 187.733 336.278 181.742 340.987 176.134C343.029 173.717 345.667 170.723 345.288 167.369C344.812 164.263 343.443 161.362 341.348 159.018L328.465 144.084L312.401 138.15Z" fill="#5B5B5B"/>
<path d="M342.324 97.1176C342.541 97.7489 343.155 98.2539 343.246 98.9212C343.336 99.5885 342.649 100.382 342.198 101.122C341.746 101.861 341.439 103.286 340.824 104.278C340.714 104.496 340.537 104.673 340.318 104.783C340.121 104.854 339.913 104.891 339.704 104.891C338.883 104.868 338.068 104.734 337.283 104.494C337.143 104.406 336.977 104.368 336.813 104.386C336.675 104.467 336.572 104.595 336.524 104.747C335.605 106.644 335.164 108.737 335.241 110.843C335.241 111.529 335.241 112.394 334.681 112.737C334.477 112.87 334.236 112.933 333.994 112.917C332.404 112.917 331.193 111.492 330.38 110.086C329.715 108.821 329.199 107.483 328.844 106.1C328.715 105.698 328.666 105.275 328.7 104.855C328.784 104.366 328.955 103.895 329.205 103.466C330.007 101.904 330.655 100.267 331.139 98.5785C331.56 96.3672 332.316 94.2326 333.38 92.2478C333.792 91.6173 334.393 91.1317 335.096 90.859C335.9 90.6837 336.736 90.7273 337.518 90.9853C339.15 91.2465 340.619 92.1249 341.619 93.4382C341.926 93.9071 342.071 96.306 342.324 97.1176Z" fill="#F39AC4"/>
<path d="M326.477 145.202C325.097 145.422 323.685 145.342 322.339 144.968C320.365 144.573 318.346 144.458 316.34 144.625C315.148 144.923 313.982 145.315 312.853 145.797C311.936 146.043 310.977 146.089 310.041 145.93C309.105 145.771 308.215 145.412 307.432 144.877C307.432 144.607 307.432 144.318 307.432 144.048C307.703 141.631 306.691 138.204 307.432 135.877C310.088 126.589 312.347 119.645 317.641 111.673C319.159 109.382 325.14 106.442 327.597 105.216C328.156 104.916 328.772 104.738 329.404 104.693C330.132 104.722 330.844 104.92 331.482 105.27C333.669 106.334 334.518 108.318 335.584 110.374C336.826 112.469 337.671 114.774 338.078 117.174C338.349 120.276 339.451 123.18 337.68 126.066C335.241 130.124 331.193 132.865 328.934 137.248C328.534 137.881 328.309 138.61 328.284 139.358C328.284 140.404 329.025 141.36 329.025 142.406C328.951 143.081 328.665 143.716 328.207 144.218C327.749 144.72 327.143 145.065 326.477 145.202Z" fill="#F39AC4"/>
<path d="M340.409 130.575C341.276 130.971 342.216 131.314 342.957 131.603C347.203 132.953 351.606 133.753 356.057 133.983C361.656 134.689 367.314 134.792 372.934 134.29C375.23 134.114 377.455 133.417 379.439 132.252C380.017 131.873 380.614 131.188 380.325 130.557C380.156 130.275 379.903 130.054 379.602 129.925C377.432 128.783 374.984 128.27 372.537 128.446C372.537 127.599 372.32 126.516 371.489 126.444C370.657 126.372 370.169 127.508 369.682 128.248C368.597 130.052 366.068 130.25 364.044 130.232C359.366 130.3 354.697 129.822 350.13 128.807C347.841 128.262 345.622 127.457 343.517 126.408C342.162 125.723 339.433 122.891 338.096 124.406C336.759 125.921 335.512 126.931 337.319 128.537C338.239 129.368 339.281 130.055 340.409 130.575Z" fill="#F39AC4"/>
<path d="M333.361 113.17C333.361 113.17 340.445 123.144 341.475 123.739C342.505 124.334 335.114 131.585 335.114 131.585C335.114 131.585 326.549 122.332 325.555 117.607C324.562 112.881 328.989 109.635 333.361 113.17Z" fill="#F39AC4"/>
<path d="M341.565 92.4642C341.261 92.8794 340.875 93.228 340.43 93.4885C339.986 93.7491 339.493 93.9161 338.981 93.9793C338.091 94.1208 337.191 94.1992 336.289 94.2138C336.289 94.2138 336.126 94.2138 336.072 94.2138C336.04 94.2504 336.015 94.2932 335.999 94.3397C335.984 94.3862 335.978 94.4354 335.982 94.4843C335.944 95.177 335.764 95.8546 335.453 96.4751C335.142 97.0955 334.707 97.6457 334.175 98.0915C334.035 98.1791 333.922 98.3041 333.85 98.4523C333.777 98.6626 333.777 98.8913 333.85 99.1016C333.976 99.8236 333.976 100.562 333.85 101.284C333.747 102.017 333.404 102.696 332.874 103.214C332.742 103.305 332.646 103.439 332.603 103.593C332.602 103.727 332.64 103.858 332.711 103.971C332.96 104.725 332.908 105.545 332.567 106.262C331.887 105.741 331.1 105.378 330.263 105.197C329.426 105.016 328.559 105.022 327.724 105.216C327.217 105.259 326.736 105.461 326.351 105.793C323.929 108.336 321.942 111.348 319.394 113.801C318.31 114.847 317.099 115.767 316.087 116.903C314.561 118.761 313.341 120.849 312.473 123.09C311.811 124.846 310.93 126.512 309.853 128.05C309.312 128.814 308.624 129.464 307.83 129.962C307.037 130.461 306.152 130.797 305.227 130.954C304.352 131.026 303.471 130.915 302.64 130.63C301.81 130.344 301.048 129.889 300.403 129.294C299.275 128.262 298.47 126.926 298.085 125.448C297.7 123.969 297.752 122.411 298.234 120.961C298.47 120.512 298.534 119.993 298.415 119.501C298.274 119.228 298.077 118.988 297.837 118.797C296.729 117.645 296.111 116.11 296.111 114.514C296.111 112.917 296.729 111.382 297.837 110.23C299.048 109.094 301.957 107.993 302.119 106.118C302.282 104.242 300.602 102.384 301.288 100.22C301.537 99.5617 301.897 98.9515 302.354 98.4162C303.225 97.1388 304.407 96.1025 305.787 95.4041C307.185 94.9342 308.65 94.6966 310.124 94.7007C314.858 94.3761 319.81 92.8971 322.936 89.2899C323.639 88.3552 324.412 87.4749 325.248 86.6566C326.229 85.8996 327.345 85.3364 328.537 84.9972C331.404 83.9025 334.567 83.8578 337.464 84.871C338.47 85.2904 339.368 85.9318 340.091 86.7471C340.814 87.5623 341.343 88.5303 341.638 89.5784C341.833 90.0366 341.928 90.5313 341.915 91.0292C341.903 91.527 341.784 92.0164 341.565 92.4642Z" fill="#FC682D"/>
<path d="M341.041 100.274C340.346 100.25 339.652 100.19 338.963 100.094C338.764 100.472 339.668 101.897 339.867 102.005C339.962 102.088 340.084 102.133 340.21 102.133C340.336 102.133 340.458 102.088 340.553 102.005C340.633 101.892 340.688 101.763 340.716 101.627L341.041 100.256" fill="#5B5B5B"/>
<path d="M339.415 97.2077C339.714 97.2077 339.957 96.9654 339.957 96.6666C339.957 96.3677 339.714 96.1255 339.415 96.1255C339.116 96.1255 338.873 96.3677 338.873 96.6666C338.873 96.9654 339.116 97.2077 339.415 97.2077Z" fill="#231F20"/>
<path d="M352.323 103.487L351.542 103.339C351.052 103.246 350.579 103.567 350.486 104.056L349.492 109.265C349.399 109.754 349.721 110.227 350.211 110.32L350.992 110.468C351.482 110.561 351.955 110.24 352.048 109.751L353.042 104.542C353.135 104.053 352.814 103.58 352.323 103.487Z" fill="#F39AC4"/>
<path d="M350.745 103.917C350.27 103.967 349.818 104.147 349.439 104.437C349.06 104.726 348.768 105.114 348.594 105.558C348.445 106.137 348.476 106.747 348.682 107.308C348.889 107.868 349.262 108.353 349.751 108.697C350.745 109.362 351.886 109.777 353.076 109.905C353.25 109.965 353.435 109.982 353.617 109.957C353.799 109.932 353.973 109.865 354.124 109.761C354.279 109.59 354.38 109.376 354.413 109.148C354.697 108.344 354.814 107.491 354.756 106.641C354.508 105.792 353.972 105.057 353.24 104.56C352.509 104.063 351.626 103.836 350.745 103.917Z" fill="#F39AC4"/>
<path d="M347.456 100.039L347.275 102.095C347.216 102.368 347.266 102.653 347.414 102.889C347.563 103.125 347.799 103.294 348.071 103.358C351.533 103.6 354.922 104.481 358.063 105.955C359.767 106.912 361.387 108.01 362.906 109.238C363.52 109.725 364.405 109.238 364.55 108.192L366.158 97.37C366.303 96.414 365.616 95.7467 364.893 96.1074C361.876 97.6405 355.1 100.454 348.829 98.7227C348.161 98.5603 347.528 99.1916 347.456 100.039Z" fill="#F39AC4"/>
<path d="M321.147 193.215C320.281 193.77 319.641 194.614 319.34 195.595C319.24 195.9 319.24 196.229 319.34 196.533C319.467 196.805 319.659 197.04 319.9 197.219C322.789 199.788 326.04 201.921 329.549 203.549C329.994 203.777 330.479 203.918 330.977 203.964C331.223 203.992 331.473 203.955 331.701 203.857C331.93 203.759 332.128 203.603 332.278 203.405C332.449 203.116 332.537 202.785 332.531 202.449C332.55 201.83 332.444 201.213 332.219 200.636C331.994 200.059 331.654 199.533 331.221 199.09C330.787 198.647 330.268 198.296 329.695 198.058C329.122 197.82 328.507 197.7 327.887 197.706C327.442 197.742 326.994 197.742 326.549 197.706C326.133 197.6 325.741 197.416 325.393 197.165C324.444 196.612 323.548 195.972 322.719 195.253C322.159 194.601 321.634 193.921 321.147 193.215Z" fill="#5B5B5B"/>
<defs>
<linearGradient id="paint0_linear" x1="-270.417" y1="-130.896" x2="1084.52" y2="884.352" gradientUnits="userSpaceOnUse">
<stop offset="0.01"/>
<stop offset="0.08" stop-opacity="0.69"/>
<stop offset="0.21" stop-opacity="0.32"/>
<stop offset="1" stop-opacity="0"/>
</linearGradient>
<linearGradient id="paint1_linear" x1="9709.2" y1="4990.41" x2="9575.05" y2="6152.54" gradientUnits="userSpaceOnUse">
<stop offset="0.01"/>
<stop offset="0.08" stop-opacity="0.69"/>
<stop offset="0.21" stop-opacity="0.32"/>
<stop offset="1" stop-opacity="0"/>
</linearGradient>
<linearGradient id="paint2_linear" x1="54833" y1="12558.3" x2="56161.5" y2="25140.5" gradientUnits="userSpaceOnUse">
<stop offset="0.01"/>
<stop offset="0.08" stop-opacity="0.69"/>
<stop offset="0.21" stop-opacity="0.32"/>
<stop offset="1" stop-opacity="0"/>
</linearGradient>
<linearGradient id="paint3_linear" x1="15016.1" y1="10739.5" x2="24110.8" y2="10011.2" gradientUnits="userSpaceOnUse">
<stop offset="0.01"/>
<stop offset="0.08" stop-opacity="0.69"/>
<stop offset="0.21" stop-opacity="0.32"/>
<stop offset="1" stop-opacity="0"/>
</linearGradient>
<linearGradient id="paint4_linear" x1="4578.91" y1="1746.04" x2="7036.7" y2="3904.35" gradientUnits="userSpaceOnUse">
<stop offset="0.01"/>
<stop offset="0.08" stop-opacity="0.69"/>
<stop offset="0.21" stop-opacity="0.32"/>
<stop offset="1" stop-opacity="0"/>
</linearGradient>
</defs>
</svg>
