<svg width="96" height="87" viewBox="0 0 96 87" fill="none" xmlns="http://www.w3.org/2000/svg">
<g clip-path="url(#clip0)">
<path opacity="0.2" d="M95.9999 52.7152C96 54.5831 95.7922 56.4453 95.3801 58.2678C91.7178 74.5634 72.196 87 48.6689 87C38.9625 87 29.9391 84.8826 22.4303 81.2529C17.2489 78.7484 12.7872 75.5235 9.32063 71.774C7.84667 70.3854 6.54951 68.8229 5.45808 67.1214C-4.49712 51.7858 -0.764103 24.4214 16.0786 24.6494C18.0878 24.6887 20.0972 24.5867 22.0918 24.344C26.8243 23.7376 29.6947 22.3173 31.4331 20.7771C31.8599 20.4004 32.2488 19.9834 32.5946 19.5322C35.014 16.3397 38.5812 14.1973 42.5527 13.5514C77.6837 7.9651 90.4769 25.3508 94.4425 39.9996C95.52 43.9494 96.0396 48.0287 95.9866 52.1205C95.9969 52.3177 95.9999 52.5165 95.9999 52.7152Z" fill="url(#paint0_linear)"/>
<path opacity="0.05" d="M25.2847 74.9594L6.5401 68.6762C6.5401 68.6762 -0.357735 60.1821 0.0264596 45.8971L27.921 57.2318C27.921 57.2318 40.0504 53.7717 47.2765 53.4253C54.5026 53.079 86.5379 49.7401 86.5379 49.7401C86.5379 49.7401 92.7203 56.7759 89.9706 58.9283C87.2209 61.0807 67.4297 61.4431 67.4297 61.4431L53.6665 53.4356L42.0979 62.314L33.2659 70.5758L25.2847 74.9594Z" fill="#000405"/>
<path d="M56.0144 43.4175L55.72 44.1598C55.72 44.1598 56.6032 44.9357 56.0144 45.2689C56.0144 45.2689 59.0791 45.0804 56.0144 43.4175Z" fill="#3F3D56"/>
<path d="M20.9864 67.4562L20.6301 68.4586L23.5506 69.8161C23.5506 69.8161 26.265 70.1551 27.0996 69.4449C27.6059 69.002 27.9759 68.4261 28.1668 67.7835L20.9864 67.4562Z" fill="#333333"/>
<path d="M28.6455 58.0516C28.6455 58.0516 32.087 57.9917 33.0939 59.2323C34.1007 60.4729 30.4825 64.1464 30.4825 64.1464L22.1377 64.7309L28.6455 58.0516Z" fill="url(#paint1_linear)"/>
<path d="M28.6455 58.0516C28.6455 58.0516 32.087 57.9917 33.0939 59.2323C34.1007 60.4729 30.4825 64.1464 30.4825 64.1464L22.1377 64.7309L28.6455 58.0516Z" fill="url(#paint2_linear)"/>
<path d="M28.5215 63.3779C28.5215 63.3779 35.752 64.0252 37.0091 64.4855C39.3849 65.3725 38.6783 68.6865 37.5979 69.0401C36.7014 69.3397 29.8831 71.8165 27.703 72.6099C27.5223 72.6747 27.3234 72.6683 27.1473 72.5919C26.9713 72.5155 26.8314 72.375 26.7565 72.1993L26.0088 70.4298C25.9677 70.3329 25.9477 70.2285 25.9499 70.1234C25.9522 70.0184 25.9766 69.9149 26.0218 69.8199C26.0669 69.7248 26.1316 69.6402 26.2118 69.5716C26.292 69.5029 26.3858 69.4518 26.4872 69.4215L30.7766 68.1546C30.7766 68.1546 24.4087 68.7917 23.1222 68.5082C20.2738 67.8887 17.4652 64.2707 18.9608 61.1115C20.4563 57.9523 28.5215 63.3779 28.5215 63.3779Z" fill="url(#paint3_linear)"/>
<path d="M28.5215 63.3779C28.5215 63.3779 35.752 64.0252 37.0091 64.4855C39.3849 65.3725 38.6783 68.6865 37.5979 69.0401C36.7014 69.3397 29.8831 71.8165 27.703 72.6099C27.5223 72.6747 27.3234 72.6683 27.1473 72.5919C26.9713 72.5155 26.8314 72.375 26.7565 72.1993L26.0088 70.4298C25.9677 70.3329 25.9477 70.2285 25.9499 70.1234C25.9522 70.0184 25.9766 69.9149 26.0218 69.8199C26.0669 69.7248 26.1316 69.6402 26.2118 69.5716C26.292 69.5029 26.3858 69.4518 26.4872 69.4215L30.7766 68.1546C30.7766 68.1546 24.4087 68.7917 23.1222 68.5082C20.2738 67.8887 17.4652 64.2707 18.9608 61.1115C20.4563 57.9523 28.5215 63.3779 28.5215 63.3779Z" fill="url(#paint4_linear)"/>
<path d="M47.4106 45.5172L47.0764 46.8148L48.7898 48.3213C48.7898 48.3213 48.2997 48.3213 47.9066 49.0811L47.7506 50.7426C47.7506 50.7426 48.9017 53.215 52.0783 51.0538L57.2303 55.5748L68.6575 51.5798L68.9019 50.0339L47.4106 45.5172Z" fill="#3F3D56"/>
<path d="M78.3904 46.7578L72.7055 44.5411C72.3547 44.346 71.9616 44.238 71.5597 44.2263C71.1578 44.2146 70.759 44.2995 70.3973 44.4739C70.0771 44.6242 69.8043 44.8586 69.6084 45.1517C69.4125 45.4447 69.301 45.7854 69.286 46.1367C69.0902 48.2701 70.2472 58.0896 70.2472 58.0896C70.6739 58.2535 71.1186 58.3668 71.572 58.4271C71.9698 58.5057 72.38 58.4969 72.7739 58.4012C73.1679 58.3055 73.5359 58.1253 73.8522 57.8733L73.9626 50.4868C73.9626 50.4868 80.3702 54.4161 82.6562 54.0887C85.2146 53.7234 89.3303 51.6397 86.5497 46.8074C83.7691 41.9752 78.3904 46.7578 78.3904 46.7578Z" fill="url(#paint5_linear)"/>
<path d="M78.3904 46.7578L72.7055 44.5411C72.3547 44.346 71.9616 44.238 71.5597 44.2263C71.1578 44.2146 70.759 44.2995 70.3973 44.4739C70.0771 44.6242 69.8043 44.8586 69.6084 45.1517C69.4125 45.4447 69.301 45.7854 69.286 46.1367C69.0902 48.2701 70.2472 58.0896 70.2472 58.0896C70.6739 58.2535 71.1186 58.3668 71.572 58.4271C71.9698 58.5057 72.38 58.4969 72.7739 58.4012C73.1679 58.3055 73.5359 58.1253 73.8522 57.8733L73.9626 50.4868C73.9626 50.4868 80.3702 54.4161 82.6562 54.0887C85.2146 53.7234 89.3303 51.6397 86.5497 46.8074C83.7691 41.9752 78.3904 46.7578 78.3904 46.7578Z" fill="url(#paint6_linear)"/>
<path d="M73.6798 33.7645C73.6798 33.7645 72.0106 39.0396 71.5601 40.1705C71.1097 41.3015 63.2168 42.2426 63.2168 42.2426L63.5112 45.6282L72.4993 44.5206L75.2019 40.6411L73.6798 33.7645Z" fill="url(#paint7_linear)"/>
<path opacity="0.61" d="M73.6798 33.7645C73.6798 33.7645 72.0106 39.0396 71.5601 40.1705C71.1097 41.3015 63.2168 42.2426 63.2168 42.2426L63.5112 45.6282L72.4993 44.5206L75.2019 40.6411L73.6798 33.7645Z" fill="url(#paint8_linear)"/>
<path d="M78.1754 32.014L80.0051 33.0223C83.404 34.5288 84.639 37.8823 86.5526 46.8309C86.5526 46.8309 84.9452 50.3992 79.0277 47.9999C79.0277 47.9999 75.0121 42.1754 74.3497 39.9923C73.6872 37.8093 72.0195 34.0525 75.0857 32.6161C78.1518 31.1797 78.1754 32.014 78.1754 32.014Z" fill="url(#paint9_linear)"/>
<path opacity="0.05" d="M82.0982 39.6971L84.3268 48.0451C84.3268 48.0451 82.0526 49.4216 79.0129 47.9954C75.9732 46.5693 77.0492 45.1504 76.0688 43.4174L79.0467 41.8101L82.0982 39.6971Z" fill="#000405"/>
<path d="M77.9179 31.6531C77.8035 31.8989 77.6414 32.12 77.4409 32.3036C77.2404 32.4872 77.0054 32.6297 76.7493 32.7231C76.4932 32.8165 76.2211 32.8588 75.9486 32.8477C75.676 32.8366 75.4083 32.7723 75.1608 32.6584L75.0754 32.6175C75.0754 32.6175 73.3561 35.594 75.8114 35.2389C77.1127 35.0504 78.252 33.1275 78.4699 32.1528L77.9179 31.6531Z" fill="#333333"/>
<path d="M78.0283 29.2654C78.0283 29.299 77.9502 30.7675 77.8899 31.8255C77.8458 32.644 77.492 33.4159 76.8992 33.9866C76.5557 34.3408 76.143 34.6217 75.6863 34.8122C75.5761 34.8529 75.4568 34.8625 75.3414 34.8401C75.2261 34.8177 75.1193 34.764 75.0327 34.6851C74.9459 34.6057 74.8826 34.5042 74.8499 34.3916C74.8172 34.279 74.8163 34.1596 74.8472 34.0465C74.9061 33.8259 74.965 33.5716 75.0121 33.3057C75.1093 32.7533 75.1593 32.1557 75.0018 31.7334C74.9973 31.7175 74.9919 31.7019 74.9856 31.6866C74.8973 31.4689 74.9856 31.2307 75.1932 30.9911C75.4787 30.655 75.9792 30.3145 76.4797 30.0267C76.9813 29.7447 77.4983 29.4906 78.0283 29.2654Z" fill="#F3B496"/>
<path d="M75.3405 33.1933C75.2384 33.2446 75.1301 33.2824 75.0181 33.3058C75.1153 32.7535 75.1653 32.1558 75.0078 31.7335L75.1992 30.9912L75.3464 30.4389L76.4916 30.0268L77.6501 29.6104C77.3616 31.6531 76.262 32.7651 75.3405 33.1933Z" fill="url(#paint10_linear)"/>
<path d="M75.0474 23.4469C74.1767 23.4984 73.3622 23.8908 72.7827 24.5379C72.2031 25.185 71.9059 26.0339 71.9562 26.8983C71.9562 26.9816 71.9694 27.0649 71.9812 27.1481C72.0841 28.4744 72.4272 29.7712 72.9939 30.9766C74.067 32.7943 76.7755 31.298 77.2039 30.5499C77.6322 29.8017 79.2514 26.4161 78.5728 25.4531C78.1239 24.7985 76.805 23.3782 75.0474 23.4469Z" fill="#F3B496"/>
<path d="M72.1888 22.1609L72.7452 22.4444C72.4132 22.4367 72.0841 22.5076 71.7852 22.6512C71.4862 22.7947 71.226 23.0068 71.0259 23.27C70.5177 23.7745 70.2283 24.4562 70.2192 25.1696L71.1657 24.7312C71.1657 24.7312 71.0936 25.8885 72.8836 25.9776C74.6735 26.0668 76.571 26.1384 76.571 26.1384L75.9674 25.3025C75.9674 25.3025 77.0788 25.7409 77.2746 26.1559C77.4501 26.811 77.5761 27.4782 77.6514 28.1519C77.6514 28.1519 78.093 27.0093 78.28 27.2591C78.4669 27.509 78.0857 28.545 77.8516 28.7715C77.6176 28.998 77.6573 29.6804 77.6352 29.7359C77.6131 29.7914 78.7481 28.8592 78.7981 28.5392C78.8482 28.2192 79.9757 24.9767 79.2397 24.3016L79.6813 24.2695C79.4169 24.0909 79.1148 23.9749 78.7981 23.9304C78.7981 23.9304 75.8703 20.0889 72.1888 22.1609Z" fill="#333333"/>
<path d="M63.2068 42.6664C62.6402 42.568 62.0832 42.4213 61.5419 42.228C60.6746 42.0044 59.787 41.8669 58.8923 41.8174C58.8923 41.8174 58.7201 42.4019 59.1867 42.5217C59.6533 42.6415 60.1877 42.8373 60.1877 42.8373L58.2417 43.0317L56.4399 43.2757C56.4399 43.2757 56.6122 43.8602 57.0965 43.8602C57.2365 44.1119 57.425 44.3339 57.6514 44.5133C57.994 44.821 58.3119 45.1547 58.6023 45.5114C58.8468 45.703 59.1073 45.8736 59.381 46.0213C59.4811 46.0213 63.2745 45.583 63.5026 45.2235L63.2068 42.6664Z" fill="#F3B496"/>
<path d="M79.0308 47.9999C79.0308 47.9999 79.6196 50.9092 80.4925 51.6412C80.4925 51.6412 74.7693 56.0746 74.5029 59.282C74.1304 63.7154 88.2132 56.8403 88.2132 56.8403L87.2387 54.3913L81.1328 57.0785C81.1328 57.0785 84.8481 54.5856 86.6999 52.0913C88.1513 50.1128 87.3623 48.2921 86.5527 46.8776C86.538 46.8309 83.0332 49.7066 79.0308 47.9999Z" fill="url(#paint11_linear)"/>
<path d="M79.0308 47.9999C79.0308 47.9999 79.6196 50.9092 80.4925 51.6412C80.4925 51.6412 74.7693 56.0746 74.5029 59.282C74.1304 63.7154 88.2132 56.8403 88.2132 56.8403L87.2387 54.3913L81.1328 57.0785C81.1328 57.0785 84.8481 54.5856 86.6999 52.0913C88.1513 50.1128 87.3623 48.2921 86.5527 46.8776C86.538 46.8309 83.0332 49.7066 79.0308 47.9999Z" fill="url(#paint12_linear)"/>
<path d="M87.2224 54.3897L88.2793 54.0288L88.8019 55.4038L87.6346 56.1958L87.2224 54.3897Z" fill="#F3B496"/>
<path d="M71.6853 59.0321L71.5852 58.4228C71.9832 58.4854 72.3898 58.4681 72.7809 58.372C73.1721 58.2759 73.5398 58.1029 73.8624 57.8632L73.9242 58.8612C73.5928 59.0674 73.2159 59.1906 72.826 59.2204C72.436 59.2502 72.0446 59.1856 71.6853 59.0321Z" fill="#F3B496"/>
<path d="M71.6604 58.8451L69.158 59.7423C69.158 59.7423 67.767 59.4047 67.4888 60.1807C67.3063 60.5788 67.2884 61.032 67.4387 61.4432C67.4387 61.4432 68.0952 62.0276 69.7306 61.6872C71.366 61.3467 74.0407 60.5182 74.0407 60.5182L73.9406 58.8948C73.5812 59.0573 73.1896 59.1372 72.7948 59.1286C72.4 59.12 72.0122 59.0231 71.6604 58.8451Z" fill="#333333"/>
<path d="M88.4797 53.7133C88.4797 53.7133 87.8511 53.969 87.9232 54.1341C87.9954 54.2992 88.2176 53.9354 88.78 55.4098L88.4193 55.6713L89.2024 57.3327C88.9966 57.4869 88.8333 57.6901 88.7276 57.9236C88.6218 58.157 88.5771 58.4131 88.5974 58.6683C88.6754 59.0731 89.3982 59.1286 89.9767 58.9299C90.5552 58.7311 90.8055 57.4555 90.8055 57.4555C90.8055 57.4555 90.4272 54.3971 89.6485 53.8872C88.8698 53.3772 88.4797 53.7133 88.4797 53.7133Z" fill="#333333"/>
<path d="M69.6085 50.6052L57.7941 54.3007L52.3771 49.8352C50.1941 52.0504 47.5666 50.389 47.9272 49.0958C48.2879 47.8026 50.7093 48.2702 50.7093 48.2702L47.4268 45.5333L53.568 43.999C53.6062 44.2138 53.8624 45.2557 55.3535 45.339C57.0213 45.4339 57.3996 44.0867 56.0145 43.4277L59.9094 42.4209L69.6085 50.6052Z" fill="url(#paint13_linear)"/>
<path opacity="0.05" d="M66.4524 49.1542C66.3717 49.1757 66.2954 49.2113 66.2272 49.2594C66.1642 49.3194 66.108 49.3861 66.0594 49.4581C65.8416 49.727 65.4868 49.8337 65.1644 49.9608C64.8001 50.1037 64.4542 50.2891 64.134 50.5131C64.0859 50.5403 64.0481 50.5824 64.0266 50.633C63.978 50.7893 64.2223 50.8667 64.3048 51.0085C64.3291 51.0618 64.3373 51.1209 64.3284 51.1788C64.3195 51.2366 64.2939 51.2907 64.2547 51.3343C64.1755 51.4205 64.0813 51.4918 63.9765 51.5448C63.4158 51.8845 62.9261 52.328 62.5339 52.8511C64.3148 51.9315 66.1714 51.164 68.0834 50.557C68.2323 50.5201 68.3721 50.4535 68.4941 50.3612C68.5545 50.3141 68.5988 50.2497 68.6212 50.1768C68.6436 50.1039 68.6429 50.026 68.6192 49.9535C68.5869 49.8819 68.7002 49.8629 68.6413 49.8074C68.3543 49.5531 67.8715 49.1279 67.4873 48.8167C67.4932 48.8196 66.7542 49.0548 66.4524 49.1542Z" fill="#000405"/>
<path d="M82.1499 34.6019C81.9401 34.3566 81.668 34.1717 81.3618 34.0661C81.0557 33.9606 80.7266 33.9384 80.4089 34.0017C80.0911 34.0651 79.7963 34.2118 79.555 34.4265C79.3137 34.6413 79.1347 34.9162 79.0366 35.2229C78.9306 35.5604 78.8187 35.9652 78.7083 36.4635C78.1195 39.1565 75.4537 45.0131 75.4537 45.0131L67.7109 49.1644L69.8306 51.8575L78.8982 47.4241C78.8982 47.4241 82.9138 38.6188 82.8417 36.9398C82.8654 36.1076 82.6232 35.2892 82.1499 34.6019Z" fill="url(#paint14_linear)"/>
<path opacity="0.61" d="M82.1499 34.6019C81.9401 34.3566 81.668 34.1717 81.3618 34.0661C81.0557 33.9606 80.7266 33.9384 80.4089 34.0017C80.0911 34.0651 79.7963 34.2118 79.555 34.4265C79.3137 34.6413 79.1347 34.9162 79.0366 35.2229C78.9306 35.5604 78.8187 35.9652 78.7083 36.4635C78.1195 39.1565 75.4537 45.0131 75.4537 45.0131L67.7109 49.1644L69.8306 51.8575L78.8982 47.4241C78.8982 47.4241 82.9138 38.6188 82.8417 36.9398C82.8654 36.1076 82.6232 35.2892 82.1499 34.6019Z" fill="url(#paint15_linear)"/>
<path d="M68.3734 49.5415C67.814 49.6909 67.2427 49.7926 66.6659 49.8454C65.7837 50.0043 64.9194 50.2491 64.0855 50.5761C64.0855 50.5761 64.1738 51.1752 64.6419 51.0919C65.11 51.0086 65.6811 50.9706 65.6811 50.9706L64.0133 51.9628L62.478 52.9374C62.478 52.9374 62.8784 53.3977 63.3171 53.1916C63.5526 53.3612 63.8191 53.4838 64.1017 53.5526C64.5403 53.6881 64.968 53.8566 65.3808 54.0567C65.6839 54.1291 65.9927 54.1755 66.3038 54.1955C66.3936 54.1561 69.6806 52.1615 69.7026 51.7465L68.3734 49.5415Z" fill="#F3B496"/>
<path d="M42.5043 48.4718L45.3306 49.5794V51.2423C45.3306 51.2423 41.945 51.3139 41.945 52.7707C41.945 54.2276 45.1378 55.3702 47.2781 53.4254L52.1504 56.2017L51.9738 57.6249L37.1595 62.9452L28.6719 52.6655V51.0041L42.5043 48.4718Z" fill="#3F3D56"/>
<path d="M42.5043 46.8308L45.3365 49.5735C45.3365 49.5735 41.9509 49.6466 41.9509 51.1034C41.9509 52.5603 45.1437 53.703 47.284 51.7566L52.1563 56.19L37.3155 61.3832L28.6719 51.0318L34.4951 49.2638C34.4951 49.2638 32.6434 48.0276 34.423 47.202C34.7518 47.0416 35.1087 46.9458 35.474 46.9199C36.871 46.8644 37.0932 47.579 37.2772 48.3607V48.4221L42.5043 46.8308Z" fill="url(#paint16_linear)"/>
<path opacity="0.05" d="M31.0256 50.3173C31.0256 50.3173 33.3808 55.3994 34.501 56.2425C35.1252 56.7131 39.4396 58.11 43.1035 58.3073C43.4464 58.3263 44.5181 57.3399 45.0244 57.47C45.7604 57.6614 44.8905 58.3175 45.0612 58.3263C47.2692 58.43 48.4925 57.47 48.4925 57.47L36.8636 61.6374L29.0723 50.5467L31.0256 50.3173Z" fill="#000405"/>
<path d="M42.3717 59.415C42.7662 58.9027 43.2175 58.436 43.7171 58.0239C44.1257 57.7817 44.5654 57.5954 45.0243 57.4701C45.0243 57.4701 45.2303 58.0911 44.8771 58.208C44.5238 58.3249 44.3206 58.9386 44.3206 58.9386C44.3206 58.9386 46.8908 59.4267 47.2014 59.2762C47.512 59.1257 47.5414 59.6035 46.9349 59.6926C46.3284 59.7818 46.3461 60.6453 45.934 60.7155C45.5218 60.7856 44.9109 61.1758 44.3044 61.3204C43.6016 61.3804 42.8938 61.348 42.1995 61.224L42.3717 59.415Z" fill="#F3B496"/>
<path d="M30.5795 52.0402C30.9128 50.2408 30.6913 48.3835 29.9441 46.7112C29.197 45.0388 27.9589 43.6291 26.3916 42.6664C25.8336 42.2869 25.1939 42.0422 24.5237 41.9519C21.8314 41.797 18.9609 61.1085 18.9609 61.1085C18.9609 61.1085 20.2578 64.8493 24.1836 65.2087C27.8107 65.5419 28.5172 63.3749 28.5172 63.3749L30.5795 52.0402Z" fill="url(#paint17_linear)"/>
<path opacity="0.61" d="M30.5795 52.0402C30.9128 50.2408 30.6913 48.3835 29.9441 46.7112C29.197 45.0388 27.9589 43.6291 26.3916 42.6664C25.8336 42.2869 25.1939 42.0422 24.5237 41.9519C21.8314 41.797 18.9609 61.1085 18.9609 61.1085C18.9609 61.1085 20.2578 64.8493 24.1836 65.2087C27.8107 65.5419 28.5172 63.3749 28.5172 63.3749L30.5795 52.0402Z" fill="url(#paint18_linear)"/>
<path d="M24.5237 41.9488C24.5237 41.9488 24.9182 39.0351 25.0801 37.1399C25.242 35.2447 25.8691 32.7066 29.0737 33.0383C32.2782 33.37 32.2768 38.1818 31.3862 40.1983C30.4956 42.2148 29.3121 42.149 29.3121 42.149C29.3121 42.149 27.7165 41.7998 27.7709 43.7067L24.5237 41.9488Z" fill="#F3B496"/>
<path d="M25.735 32.6292C25.2682 33.0736 24.9301 33.6342 24.7561 34.2526C24.6118 34.7542 24.5133 35.2677 24.4617 35.7869L24.79 35.4333C24.7714 36.3229 24.7026 37.2107 24.5839 38.0927C24.4628 38.915 24.4136 39.7461 24.4367 40.5768L25.0255 40.549L25.7615 41.4638L26.5902 40.9085L27.2129 40.5826L27.7693 39.2237C27.6338 39.1251 27.5344 38.9852 27.4863 38.8253C27.4383 38.6655 27.4441 38.4945 27.5029 38.3382C27.709 37.7844 28.2139 37.6558 28.3316 37.9831C28.4218 38.3908 28.4711 38.8064 28.4788 39.2237L29.362 36.7396C29.362 36.7396 29.9185 35.9681 30.4027 36.5014C30.6926 36.8231 31.0597 37.0669 31.4699 37.2101L31.1755 36.3787L31.9763 36.5833L31.9145 35.6364L32.5033 36.0514C32.5033 36.0514 32.7697 34.5171 32.2634 33.8347C31.757 33.1523 29.7742 30.4403 25.735 32.6292Z" fill="#333333"/>
<path d="M42.4543 58.9225L35.8979 58.2182C35.0119 58.0491 34.2015 57.6085 33.5808 56.9585C32.96 56.3085 32.5601 55.4817 32.4373 54.5944L30.0129 47.2517C29.8662 46.791 29.5925 46.3803 29.2229 46.066C28.8532 45.7517 28.4023 45.5464 27.9211 45.4734C27.5415 45.417 27.1537 45.4572 26.794 45.5901C26.4343 45.7231 26.1145 45.9444 25.8645 46.2335C25.6144 46.5226 25.4424 46.8699 25.3644 47.243C25.2865 47.6161 25.3051 48.0027 25.4187 48.3666L27.9211 57.2319C28.0389 58.2053 28.4899 59.109 29.1987 59.7918C29.9074 60.4746 30.8309 60.8951 31.8146 60.9829L42.0981 62.314L42.4543 58.9225Z" fill="url(#paint19_linear)"/>
<path opacity="0.61" d="M42.4543 58.9225L35.8979 58.2182C35.0119 58.0491 34.2015 57.6085 33.5808 56.9585C32.96 56.3085 32.5601 55.4817 32.4373 54.5944L30.0129 47.2517C29.8662 46.791 29.5925 46.3803 29.2229 46.066C28.8532 45.7517 28.4023 45.5464 27.9211 45.4734C27.5415 45.417 27.1537 45.4572 26.794 45.5901C26.4343 45.7231 26.1145 45.9444 25.8645 46.2335C25.6144 46.5226 25.4424 46.8699 25.3644 47.243C25.2865 47.6161 25.3051 48.0027 25.4187 48.3666L27.9211 57.2319C28.0389 58.2053 28.4899 59.109 29.1987 59.7918C29.9074 60.4746 30.8309 60.8951 31.8146 60.9829L42.0981 62.314L42.4543 58.9225Z" fill="url(#paint20_linear)"/>
<path d="M26.2694 69.6991L24.3396 70.1375L25.1124 72.3541L27.132 71.8909C27.132 71.8909 27.6722 70.1769 26.2694 69.6991Z" fill="#F3B496"/>
<path d="M23.5507 69.816C23.5507 69.816 24.8137 69.5501 25.0227 69.9767C25.2317 70.4034 24.5605 70.3757 24.6944 70.9806C24.8067 71.4407 24.9458 71.894 25.111 72.3381L25.7337 72.1993L25.8617 72.9299C25.8892 73.0555 25.9597 73.1678 26.0611 73.2477C26.1625 73.3276 26.2887 73.3702 26.4182 73.3683C27.8754 73.4515 27.6811 74.7637 27.1689 74.8134L25.2832 74.9595L24.2867 74.1266C24.1674 74.0444 24.0732 73.9311 24.0144 73.7993C23.6508 73.0906 22.5335 70.4531 23.5507 69.816Z" fill="#333333"/>
<path opacity="0.4" d="M54.2287 24.6275C54.1322 24.7659 54.0485 24.9126 53.9784 25.0659C53.556 25.9631 52.1266 29.1719 51.9176 31.9526C51.8761 32.6293 51.5857 33.2673 51.1016 33.7454C50.6175 34.2235 49.9734 34.5085 49.2915 34.5463L46.7391 34.6924L45.9044 34.7363C45.234 34.7756 44.5718 34.5729 44.0402 34.1654C43.5086 33.758 43.1433 33.1734 43.012 32.5196C42.4894 29.9595 41.3766 26.0478 39.2142 24.3192C39.2142 24.3192 29.68 15.6527 36.0376 5.98809C36.4649 5.33511 36.9428 4.71611 37.4669 4.13672C44.1395 -3.19572 55.1531 0.144647 57.7998 6.95543C60.4464 13.7662 55.2811 23.159 54.2287 24.6275Z" fill="#3D467F"/>
<path d="M52.2827 35.743C52.0605 36.2968 51.8043 36.5628 52.0266 36.9296C52.2489 37.2963 52.8892 38.2826 49.6405 38.721C48.9675 38.8133 48.2898 38.8669 47.6106 38.8818H46.5478L45.9251 38.854C45.2142 38.8102 44.6401 38.7386 44.2574 38.6772C44.0493 38.6469 43.8501 38.5735 43.6725 38.4617C43.495 38.3499 43.3432 38.2023 43.227 38.0284C43.17 37.8977 43.1509 37.7538 43.1717 37.6129C43.1925 37.472 43.2524 37.3396 43.3447 37.2306C43.3861 37.1924 43.4195 37.1465 43.4431 37.0955C43.4666 37.0445 43.4797 36.9894 43.4818 36.9334C43.4838 36.8773 43.4747 36.8214 43.455 36.7689C43.4353 36.7163 43.4053 36.6681 43.3668 36.6271C43.3228 36.5815 43.2696 36.5457 43.2108 36.5219C43.0351 36.3579 42.9309 36.1323 42.9205 35.8931C42.91 35.654 42.9941 35.4203 43.1548 35.2418C43.2344 35.1601 43.3005 35.0664 43.3506 34.9642C43.4201 34.8062 43.4449 34.6324 43.4224 34.4614C43.3998 34.2905 43.3307 34.1288 43.2225 33.994L43.1327 33.8844C43.0088 33.718 42.9183 33.5295 42.8663 33.3291C42.8122 33.1914 42.7961 33.0419 42.8196 32.896C42.8432 32.7501 42.9055 32.6131 43.0003 32.4991C43.1316 33.1526 43.4967 33.7368 44.0281 34.1439C44.5594 34.5511 45.2212 34.7537 45.8913 34.7143L46.7259 34.6647C46.7497 34.6325 46.7685 34.5971 46.7818 34.5594C46.929 34.2058 46.5978 33.7952 46.7657 33.2443L47.3927 33.2166C48.9345 33.125 50.4572 32.8302 51.9206 32.3398C52.0805 32.4712 52.1899 32.6531 52.2304 32.8552C52.2708 33.0572 52.24 33.2669 52.1429 33.4489C52.0852 33.5716 52.046 33.7021 52.0266 33.8361C51.9885 34.117 52.0368 34.4027 52.165 34.6559C52.1797 34.6867 52.1964 34.7164 52.215 34.745C52.3043 34.8945 52.3569 35.0627 52.3687 35.236C52.3804 35.4094 52.351 35.583 52.2827 35.743Z" fill="url(#paint21_linear)"/>
<path d="M43.0063 32.4962C45.9182 31.7471 48.9672 31.692 51.9046 32.3355C51.9046 32.3355 47.0823 34.2965 43.0063 32.4962Z" fill="#333333"/>
<path d="M47.2765 38.8292C47.0342 38.8763 46.7869 38.893 46.5405 38.8789L45.9163 38.8511C45.2054 38.8073 44.6328 38.7357 44.2486 38.6743C44.0405 38.644 43.8413 38.5706 43.6637 38.4589C43.4862 38.3471 43.3344 38.1994 43.2182 38.0255C43.1609 37.895 43.1414 37.7511 43.162 37.6102C43.1825 37.4692 43.2422 37.3368 43.3344 37.2277C43.3867 37.178 43.4259 37.1162 43.4485 37.0479C43.4711 36.9796 43.4764 36.9069 43.464 36.8361C43.4506 36.7654 43.4195 36.6993 43.3734 36.6438C43.3273 36.5884 43.2678 36.5454 43.2005 36.519C43.0247 36.355 42.9206 36.1292 42.9104 35.89C42.9002 35.6508 42.9848 35.4171 43.146 35.239C43.31 35.0759 43.4075 34.8584 43.4198 34.6283C43.432 34.3982 43.3581 34.1718 43.2123 33.9925C43.0489 33.8009 42.9312 33.5751 42.8678 33.3321C42.8138 33.1945 42.7976 33.0451 42.8209 32.8993C42.8442 32.7534 42.9061 32.6163 43.0003 32.5021C44.3955 33.0324 45.8854 33.2736 47.378 33.2108L47.4502 33.2444C47.4502 33.2444 46.8938 33.4548 47.038 33.937C47.1823 34.4192 47.3942 35.2886 46.9158 35.8541C46.4374 36.4196 47.3574 36.5745 47.1837 37.2116V37.273C47.113 37.4629 47.0588 37.6584 47.0218 37.8575C46.9217 38.3587 46.9688 38.7854 47.2765 38.8292Z" fill="url(#paint22_linear)"/>
<path opacity="0.49" d="M47.3882 33.2048C45.894 33.2691 44.4025 33.0279 43.0061 32.4961C42.4879 29.9521 41.3751 26.0404 39.2127 24.3133C39.2127 24.3133 29.6785 15.6467 36.0361 5.98216C36.4635 5.32917 36.9413 4.71018 37.4654 4.13079L38.3221 4.05334C38.3221 4.05334 44.0247 1.07098 46.4432 4.33536C48.8617 7.59974 43.5831 11.2893 43.3064 17.2511C43.0296 23.2129 49.8995 24.3162 47.3882 33.2048Z" fill="white"/>
<path d="M51.5319 37.2774C51.1198 37.5433 49.6404 38.0431 47.004 37.8619C45.7682 37.7643 44.5448 37.549 43.3505 37.2189C43.3919 37.1808 43.4253 37.1349 43.4489 37.0839C43.4724 37.0329 43.4855 36.9778 43.4876 36.9217C43.4896 36.8657 43.4805 36.8098 43.4608 36.7572C43.4411 36.7047 43.4111 36.6565 43.3726 36.6155C43.3286 36.5699 43.2754 36.534 43.2166 36.5103C44.4968 36.9457 45.8379 37.1794 47.191 37.2029C48.71 37.2451 50.2268 37.0584 51.6894 36.6491C51.6894 36.6491 52.1487 36.8785 51.5319 37.2774Z" fill="url(#paint23_linear)"/>
<path d="M52.1606 34.6618C51.666 35.0724 49.7966 35.8307 47.094 35.5706C45.8249 35.525 44.5669 35.3182 43.3507 34.9555C43.4202 34.7977 43.4451 34.6241 43.4225 34.4534C43.3999 34.2826 43.3308 34.1213 43.2226 33.9867L43.1328 33.8756C43.3109 33.9428 43.6112 34.0363 44.016 34.1416C44.9282 34.3706 45.8593 34.5174 46.7981 34.5799H47.2309C48.8654 34.6452 50.4968 34.389 52.0311 33.8259C51.9865 34.1111 52.0317 34.4031 52.1606 34.6618Z" fill="url(#paint24_linear)"/>
<path d="M33.6501 48.0452L33.684 49.5064L34.501 49.2565C34.501 49.2565 33.6501 48.6706 33.6501 48.0452Z" fill="#3F3D56"/>
<path d="M51.5571 18.429L51.3789 18.3092C51.6473 17.5034 51.7421 16.6506 51.6572 15.8061C51.4452 14.0175 50.1734 12.926 48.0802 12.7375C44.8712 12.435 43.6009 14.0789 43.1298 15.0842C41.7697 17.8942 43.0003 22.4444 44.961 24.4858C47.378 26.9903 46.4448 31.713 46.1033 33.107C46.0916 33.141 46.0842 33.1764 46.0812 33.2122V33.3057L46.5743 33.4723L46.6096 33.335C46.9022 32.2192 47.072 31.0751 47.116 29.923C47.2029 27.4389 46.6037 25.4297 45.3776 24.1146C43.567 22.2311 42.3909 17.8825 43.6406 15.3093C44.3987 13.7677 45.9281 13.0575 48.0669 13.2548C50.3942 13.474 51.0374 14.7993 51.167 15.8674C51.2344 16.5992 51.1539 17.337 50.93 18.0374C50.4104 17.7768 49.8137 17.7104 49.2489 17.8503C48.1464 18.1513 47.4502 19.2853 47.0601 20.1795C46.9625 20.4019 46.9325 20.6476 46.9735 20.8866C47.0146 21.1257 47.125 21.3476 47.2912 21.5253C47.4535 21.6992 47.6628 21.8229 47.8941 21.8817C48.1254 21.9406 48.3689 21.932 48.5954 21.857C49.589 21.5078 50.6253 20.2979 51.2082 18.8221L51.2656 18.8615C52.8848 19.9925 51.7293 21.7357 50.4001 23.7566C49.4536 25.1725 48.2789 26.9348 48.1523 28.6707C48.0051 30.2255 48.0728 31.4544 48.1788 33.0193L48.1862 33.1435H48.7161L48.7087 32.9974C48.6057 31.4354 48.5439 30.2211 48.6822 28.7102C48.7956 27.1204 49.8775 25.4852 50.8314 24.0342L50.874 23.9685C52.2548 21.8599 53.5605 19.8581 51.5571 18.429ZM48.4011 21.3514C48.273 21.395 48.1349 21.4001 48.004 21.366C47.873 21.332 47.7551 21.2603 47.6651 21.16C47.568 21.0577 47.5036 20.9291 47.48 20.7905C47.4564 20.6519 47.4747 20.5095 47.5326 20.3812C47.8123 19.7368 48.4246 18.6131 49.377 18.3501C49.5133 18.3134 49.6539 18.2947 49.7951 18.2945C50.1201 18.3055 50.4387 18.3873 50.7283 18.5342C50.1734 19.9267 49.2298 21.0767 48.4011 21.3544V21.3514ZM51.0772 18.41L51.1007 18.4261L51.0772 18.41Z" fill="white"/>
</g>
<defs>
<linearGradient id="paint0_linear" x1="40.0873" y1="-28.5099" x2="112.252" y2="91.0835" gradientUnits="userSpaceOnUse">
<stop stop-color="#D5C1FC"/>
<stop offset="1" stop-color="#FB9CCB"/>
</linearGradient>
<linearGradient id="paint1_linear" x1="26.7866" y1="54.3768" x2="32.3885" y2="66.3875" gradientUnits="userSpaceOnUse">
<stop stop-color="#D5C1FC"/>
<stop offset="1" stop-color="#FB9CCB"/>
</linearGradient>
<linearGradient id="paint2_linear" x1="22.1377" y1="61.3905" x2="33.2705" y2="61.3905" gradientUnits="userSpaceOnUse">
<stop stop-opacity="0"/>
<stop offset="0.91" stop-opacity="0.8"/>
<stop offset="1"/>
</linearGradient>
<linearGradient id="paint3_linear" x1="26.9196" y1="53.2304" x2="37.7008" y2="75.4267" gradientUnits="userSpaceOnUse">
<stop stop-color="#D5C1FC"/>
<stop offset="1" stop-color="#FB9CCB"/>
</linearGradient>
<linearGradient id="paint4_linear" x1="6869.67" y1="2855.15" x2="5921.67" y2="1121.29" gradientUnits="userSpaceOnUse">
<stop stop-opacity="0"/>
<stop offset="0.91" stop-opacity="0.8"/>
<stop offset="1"/>
</linearGradient>
<linearGradient id="paint5_linear" x1="76.8692" y1="36.384" x2="90.7265" y2="59.1604" gradientUnits="userSpaceOnUse">
<stop stop-color="#D5C1FC"/>
<stop offset="1" stop-color="#FB9CCB"/>
</linearGradient>
<linearGradient id="paint6_linear" x1="9207.54" y1="3876.81" x2="11742.3" y2="3130.13" gradientUnits="userSpaceOnUse">
<stop stop-opacity="0"/>
<stop offset="0.91" stop-opacity="0.8"/>
<stop offset="1"/>
</linearGradient>
<linearGradient id="paint7_linear" x1="68.2215" y1="27.2387" x2="80.7742" y2="43.5518" gradientUnits="userSpaceOnUse">
<stop stop-color="#D5C1FC"/>
<stop offset="1" stop-color="#FB9CCB"/>
</linearGradient>
<linearGradient id="paint8_linear" x1="78.3225" y1="45.317" x2="69.4722" y2="40.1271" gradientUnits="userSpaceOnUse">
<stop offset="0.36" stop-color="#00272E"/>
<stop offset="1" stop-color="#69B9EB" stop-opacity="0"/>
</linearGradient>
<linearGradient id="paint9_linear" x1="78.8333" y1="22.3909" x2="97.5034" y2="41.0537" gradientUnits="userSpaceOnUse">
<stop stop-color="#D5C1FC"/>
<stop offset="1" stop-color="#FB9CCB"/>
</linearGradient>
<linearGradient id="paint10_linear" x1="1683.06" y1="1479.55" x2="1524.88" y2="1291.38" gradientUnits="userSpaceOnUse">
<stop stop-color="#ECC4D7"/>
<stop offset="0.42" stop-color="#EFD4D1"/>
<stop offset="1" stop-color="#F2EAC9"/>
</linearGradient>
<linearGradient id="paint11_linear" x1="80.2238" y1="39.2341" x2="95.0084" y2="58.011" gradientUnits="userSpaceOnUse">
<stop stop-color="#D5C1FC"/>
<stop offset="1" stop-color="#FB9CCB"/>
</linearGradient>
<linearGradient id="paint12_linear" x1="8213.66" y1="3498.14" x2="9476.96" y2="2902.29" gradientUnits="userSpaceOnUse">
<stop stop-opacity="0"/>
<stop offset="0.91" stop-opacity="0.8"/>
<stop offset="1"/>
</linearGradient>
<linearGradient id="paint13_linear" x1="56.6893" y1="35.8862" x2="65.9174" y2="58.0517" gradientUnits="userSpaceOnUse">
<stop stop-color="#D5C1FC"/>
<stop offset="1" stop-color="#FB9CCB"/>
</linearGradient>
<linearGradient id="paint14_linear" x1="74.0299" y1="24.1251" x2="93.544" y2="45.3576" gradientUnits="userSpaceOnUse">
<stop stop-color="#D5C1FC"/>
<stop offset="1" stop-color="#FB9CCB"/>
</linearGradient>
<linearGradient id="paint15_linear" x1="10504.5" y1="4603.16" x2="8721.32" y2="5383.28" gradientUnits="userSpaceOnUse">
<stop offset="0.36" stop-color="#00272E"/>
<stop offset="1" stop-color="#69B9EB" stop-opacity="0"/>
</linearGradient>
<linearGradient id="paint16_linear" x1="38.4785" y1="38.826" x2="50.9343" y2="64.6843" gradientUnits="userSpaceOnUse">
<stop stop-color="#D5C1FC"/>
<stop offset="1" stop-color="#FB9CCB"/>
</linearGradient>
<linearGradient id="paint17_linear" x1="23.8756" y1="29.1384" x2="47.1764" y2="44.2841" gradientUnits="userSpaceOnUse">
<stop stop-color="#D5C1FC"/>
<stop offset="1" stop-color="#FB9CCB"/>
</linearGradient>
<linearGradient id="paint18_linear" x1="2236.57" y1="5559.51" x2="3218" y2="5499.82" gradientUnits="userSpaceOnUse">
<stop offset="0.36" stop-color="#3D467F"/>
<stop offset="1" stop-color="#69B9EB" stop-opacity="0"/>
</linearGradient>
<linearGradient id="paint19_linear" x1="32.4732" y1="36.1714" x2="50.2913" y2="59.4621" gradientUnits="userSpaceOnUse">
<stop stop-color="#D5C1FC"/>
<stop offset="1" stop-color="#FB9CCB"/>
</linearGradient>
<linearGradient id="paint20_linear" x1="3879.8" y1="2754.37" x2="5632.74" y2="4000.23" gradientUnits="userSpaceOnUse">
<stop offset="0.36" stop-color="#3D467F"/>
<stop offset="1" stop-color="#69B9EB" stop-opacity="0"/>
</linearGradient>
<linearGradient id="paint21_linear" x1="46.802" y1="28.7413" x2="52.7393" y2="39.9054" gradientUnits="userSpaceOnUse">
<stop stop-color="#D5C1FC"/>
<stop offset="1" stop-color="#FB9CCB"/>
</linearGradient>
<linearGradient id="paint22_linear" x1="1959.67" y1="2271.83" x2="1679.08" y2="2279.25" gradientUnits="userSpaceOnUse">
<stop stop-opacity="0"/>
<stop offset="0.91" stop-opacity="0.8"/>
<stop offset="1"/>
</linearGradient>
<linearGradient id="paint23_linear" x1="47.1998" y1="31.8022" x2="48.1848" y2="46.3891" gradientUnits="userSpaceOnUse">
<stop stop-color="#68E1FD" stop-opacity="0"/>
<stop offset="0.02" stop-color="#66DAF6" stop-opacity="0.04"/>
<stop offset="0.18" stop-color="#58A1BC" stop-opacity="0.39"/>
<stop offset="0.35" stop-color="#4D758F" stop-opacity="0.66"/>
<stop offset="0.53" stop-color="#45566F" stop-opacity="0.85"/>
<stop offset="0.73" stop-color="#40435C" stop-opacity="0.96"/>
<stop offset="0.99" stop-color="#3F3D56"/>
</linearGradient>
<linearGradient id="paint24_linear" x1="3730.55" y1="714.244" x2="3732.99" y2="534.007" gradientUnits="userSpaceOnUse">
<stop stop-color="#68E1FD" stop-opacity="0"/>
<stop offset="0.02" stop-color="#66DAF6" stop-opacity="0.04"/>
<stop offset="0.18" stop-color="#58A1BC" stop-opacity="0.39"/>
<stop offset="0.35" stop-color="#4D758F" stop-opacity="0.66"/>
<stop offset="0.53" stop-color="#45566F" stop-opacity="0.85"/>
<stop offset="0.73" stop-color="#40435C" stop-opacity="0.96"/>
<stop offset="0.99" stop-color="#3F3D56"/>
</linearGradient>
<clipPath id="clip0">
<rect width="96" height="87" fill="white"/>
</clipPath>
</defs>
</svg>
