<svg width="435" height="326" viewBox="0 0 435 326" fill="none" xmlns="http://www.w3.org/2000/svg">
<g clip-path="url(#clip0)">
<path d="M44.571 156.48H351.047C353.163 156.483 355.222 157.16 356.927 158.411C358.632 159.663 359.893 161.425 360.528 163.441L401.913 294.587C402.384 296.076 402.497 297.655 402.243 299.196C401.99 300.736 401.376 302.196 400.453 303.456C399.53 304.716 398.323 305.741 396.929 306.448C395.536 307.155 393.995 307.525 392.432 307.527H8.87476C7.34345 307.528 5.83253 307.176 4.45953 306.499C3.08653 305.821 1.88846 304.837 0.958523 303.621C0.0285832 302.406 -0.608161 300.993 -0.902178 299.492C-1.1962 297.991 -1.13956 296.442 -0.736681 294.966L34.9596 163.82C35.5323 161.712 36.7839 159.851 38.521 158.524C40.2582 157.197 42.3843 156.479 44.571 156.48Z" fill="url(#paint0_linear)" fill-opacity="0.8"/>
<path d="M248.827 307.527L271.875 286.767L267.861 278.593L254.283 276.013L251.162 284.187L232.355 281.836L175.087 307.382L175.945 307.527H248.827Z" fill="url(#paint1_linear)"/>
<path d="M54.5412 239.067L8.7002 268.244L57.9713 307.527L117.45 277.328" fill="url(#paint2_linear)"/>
<path d="M294.213 193.427L263.175 220.81L305.271 232.547L339.3 193.427" fill="url(#paint3_linear)"/>
<path d="M332.66 153.698C331.347 150.941 325.557 148.873 318.609 148.873C311.661 148.873 305.584 151.058 304.474 153.92C296.308 165.111 288.262 183.336 298.302 195.555C303.077 201.396 310.61 204.176 318.048 204.293H319.242C326.679 204.176 334.188 201.384 338.976 195.555C349.075 183.254 340.862 164.866 332.66 153.698Z" fill="url(#paint4_linear)"/>
<path opacity="0.5" d="M318.637 160.827C326.445 160.827 332.775 158.151 332.775 154.85C332.775 151.549 326.445 148.873 318.637 148.873C310.83 148.873 304.5 151.549 304.5 154.85C304.5 158.151 310.83 160.827 318.637 160.827Z" fill="black"/>
<path d="M334.905 102.849C326.058 117.729 320.625 134.359 318.992 151.556C318.992 130.746 317.065 109.98 313.238 89.5183C313.107 88.7961 312.044 89.104 312.116 89.8262C316.396 112.695 318.288 135.94 317.762 159.193C317.759 159.283 317.777 159.372 317.817 159.453C317.856 159.533 317.915 159.603 317.989 159.656C318.062 159.709 318.147 159.743 318.237 159.755C318.326 159.767 318.418 159.757 318.503 159.726C318.503 159.891 318.503 160.069 318.503 160.235C318.503 160.392 318.565 160.542 318.677 160.653C318.789 160.764 318.941 160.827 319.099 160.827C319.258 160.827 319.41 160.764 319.522 160.653C319.633 160.542 319.696 160.392 319.696 160.235C320.102 140.219 325.706 120.646 335.968 103.406C336.042 103.266 336.058 103.103 336.011 102.952C335.964 102.801 335.858 102.675 335.717 102.601C335.576 102.527 335.412 102.512 335.259 102.558C335.107 102.605 334.98 102.71 334.905 102.849Z" fill="#F3B496"/>
<path d="M325.659 121.438C325.659 121.438 334.494 93.08 353.438 82.5867C353.438 82.5867 349.597 88.2132 351.392 92.8188C353.188 97.4245 356.006 105.615 347.04 110.209C338.074 114.803 332.948 110.209 333.71 119.159C334.471 128.109 338.026 132.465 332.283 136.81C326.539 141.154 321.58 144.941 319.725 154.307C319.737 154.319 321.901 130.863 325.659 121.438Z" fill="#D5C1FC"/>
<path d="M317.896 118.894C317.896 118.894 314.262 75.1338 306.651 64.1133C307.235 68.3404 306.49 72.6463 304.522 76.4206C301.229 82.747 297.7 84.9392 299.594 93.1837C301.488 101.428 309.204 99.7841 308.475 108.029C307.745 116.273 301.299 114.713 304.522 125.114C307.745 135.515 318.638 142.353 318.638 142.353" fill="#D5C1FC"/>
<path d="M90.2625 289.053L37.1973 256.525C35.6106 255.526 34.3432 254.084 33.5475 252.374C32.7519 250.664 32.4619 248.758 32.7126 246.885L50.3227 107.58L90.2625 289.053Z" fill="#D5C1FC"/>
<path d="M35.8877 255.621L101.138 211.9L91.0818 289.053L35.8877 255.621Z" fill="#473F47"/>
<path d="M50.2217 111.044L87.1355 284.77C87.3565 285.816 87.8231 286.795 88.497 287.626C89.1709 288.458 90.0328 289.118 91.0123 289.553C91.9917 289.989 93.0607 290.187 94.1317 290.131C95.2027 290.075 96.2451 289.767 97.1736 289.232L232.028 211.649C233.419 210.849 234.532 209.646 235.221 208.201C235.91 206.756 236.142 205.136 235.886 203.556L207.522 29.1178C207.259 27.5057 206.608 25.9813 205.624 24.6755C204.64 23.3697 203.352 22.3215 201.871 21.6212C200.391 20.9209 198.762 20.5893 197.124 20.6549C195.487 20.7205 193.89 21.1814 192.471 21.9979L54.5799 101.314C52.9157 102.27 51.5977 103.726 50.8149 105.474C50.032 107.222 49.8243 109.172 50.2217 111.044Z" fill="#F39AC4"/>
<path d="M69.0305 83.6733C62.7473 83.6733 57.6377 89.2219 57.6377 96.0377C57.645 97.194 57.8044 98.3449 58.1119 99.4627L58.5861 99.1773C59.8546 98.3895 61.1587 97.636 62.4153 96.8939C62.4153 96.6199 62.4153 96.3459 62.4153 96.0605C62.4153 91.7564 65.4028 88.2629 69.0779 88.2629C72.753 88.2629 75.7405 91.7678 75.7405 96.0605C75.782 97.388 75.4875 98.7053 74.8823 99.8987C74.2772 101.092 73.3796 102.126 72.267 102.911C72.5673 104.433 72.8756 105.989 73.1917 107.58C75.4261 106.54 77.3013 104.9 78.5925 102.859C79.8836 100.818 80.5358 98.4612 80.4708 96.0719C80.4233 89.2105 75.3138 83.6733 69.0305 83.6733Z" fill="#42210B"/>
<path d="M104.918 61.9399C98.6345 61.9399 93.5249 67.7407 93.5249 74.8663C93.5322 76.0752 93.6916 77.2784 93.9991 78.447L94.4733 78.1486C95.7418 77.325 97.0459 76.5373 98.3025 75.7615C98.3025 75.475 98.3025 75.1886 98.3025 74.8902C98.3025 70.3904 101.29 66.7381 104.965 66.7381C108.64 66.7381 111.628 70.4023 111.628 74.8902C111.669 76.278 111.375 77.6552 110.77 78.9028C110.164 80.1505 109.267 81.2311 108.154 82.0516C108.455 83.643 108.763 85.2702 109.079 86.9333C111.313 85.8455 113.189 84.1318 114.48 81.9978C115.771 79.8638 116.423 77.4 116.358 74.9021C116.311 67.7287 111.201 61.9399 104.918 61.9399Z" fill="#42210B"/>
<path d="M140.805 41.2932C134.522 41.2932 129.413 47.094 129.413 54.2196C129.42 55.4285 129.579 56.6316 129.887 57.8003L130.361 57.5019C131.63 56.6783 132.934 55.8906 134.19 55.1147C134.19 54.8283 134.19 54.5418 134.19 54.2434C134.19 49.7437 137.178 46.0914 140.853 46.0914C144.528 46.0914 147.515 49.7556 147.515 54.2434C147.557 55.6313 147.262 57.0084 146.657 58.2561C146.052 59.5037 145.154 60.5844 144.042 61.4049C144.342 62.9963 144.65 64.6235 144.967 66.2865C147.201 65.1988 149.076 63.4851 150.367 61.3511C151.658 59.217 152.311 56.7533 152.246 54.2554C152.21 47.094 147.089 41.2932 140.805 41.2932Z" fill="#42210B"/>
<path d="M171.255 23.9067C164.972 23.9067 159.862 29.7075 159.862 36.8331C159.87 38.042 160.029 39.2452 160.337 40.4138L160.811 40.1154C162.079 39.2918 163.383 38.5041 164.64 37.7283C164.64 37.4418 164.64 37.1554 164.64 36.857C164.64 32.3572 167.627 28.7049 171.303 28.7049C174.978 28.7049 177.965 32.3691 177.965 36.857C178.007 38.2448 177.712 39.622 177.107 40.8696C176.502 42.1173 175.604 43.1979 174.492 44.0184C174.792 45.6098 175.1 47.237 175.416 48.9001C177.651 47.8123 179.526 46.0986 180.817 43.9646C182.108 41.8306 182.76 39.3668 182.695 36.8689C182.66 29.6955 177.538 23.9067 171.255 23.9067Z" fill="#42210B"/>
<path d="M74.0721 130.828C78.3703 128.462 86.422 124.026 91.6793 121.163C92.2809 120.838 92.9487 120.654 93.6321 120.624C94.3156 120.595 94.9967 120.721 95.6241 120.994C96.2515 121.266 96.8087 121.677 97.2535 122.196C97.6983 122.716 98.0191 123.329 98.1917 123.99L103.165 143.036C103.419 144.005 103.343 145.031 102.949 145.952C102.554 146.873 101.864 147.637 100.986 148.122L82.9053 158.094C82.2943 158.431 81.6136 158.621 80.9166 158.65C80.2197 158.679 79.5256 158.546 78.8888 158.261C78.2519 157.977 77.6898 157.549 77.2464 157.011C76.8031 156.473 76.4906 155.84 76.3337 155.161L71.8934 135.772C71.671 134.824 71.7633 133.828 72.1562 132.937C72.5492 132.045 73.2216 131.305 74.0721 130.828Z" fill="url(#paint5_linear)"/>
<path d="M107.784 111.268C112.083 108.902 120.134 104.466 125.392 101.603C125.993 101.278 126.661 101.094 127.345 101.064C128.028 101.035 128.709 101.161 129.337 101.433C129.964 101.706 130.521 102.117 130.966 102.636C131.411 103.156 131.732 103.769 131.904 104.43L136.877 123.476C137.132 124.445 137.056 125.471 136.661 126.392C136.266 127.313 135.576 128.077 134.698 128.562L116.618 138.534C116.007 138.871 115.326 139.061 114.629 139.09C113.932 139.118 113.238 138.986 112.601 138.701C111.964 138.417 111.402 137.989 110.959 137.451C110.515 136.913 110.203 136.28 110.046 135.601L105.606 116.212C105.383 115.264 105.476 114.268 105.869 113.377C106.262 112.485 106.934 111.745 107.784 111.268Z" fill="white"/>
<path d="M141.466 92.7943C145.769 90.4285 153.829 85.9925 159.092 83.1298C159.694 82.8045 160.363 82.6202 161.047 82.5908C161.731 82.5614 162.413 82.6877 163.041 82.9601C163.669 83.2324 164.227 83.6438 164.672 84.163C165.118 84.6822 165.439 85.2957 165.611 85.957L170.59 105.002C170.845 105.971 170.769 106.998 170.374 107.919C169.979 108.84 169.287 109.604 168.409 110.089L150.309 120.061C149.697 120.397 149.016 120.587 148.318 120.616C147.62 120.645 146.925 120.512 146.288 120.228C145.65 119.944 145.088 119.516 144.644 118.978C144.2 118.44 143.887 117.806 143.73 117.127L139.321 97.7272C139.098 96.784 139.186 95.7942 139.573 94.9053C139.959 94.0164 140.623 93.2759 141.466 92.7943Z" fill="url(#paint6_linear)"/>
<path d="M174.237 73.2287C178.678 70.8641 186.998 66.4305 192.43 63.5694C193.052 63.2443 193.742 63.0602 194.448 63.0308C195.154 63.0014 195.858 63.1276 196.506 63.3998C197.154 63.672 197.73 64.0832 198.19 64.6021C198.649 65.121 198.981 65.7341 199.159 66.3951L204.298 85.43C204.561 86.3986 204.482 87.4243 204.074 88.345C203.667 89.2657 202.953 90.0288 202.046 90.5138L183.364 100.481C182.73 100.826 182.02 101.023 181.292 101.055C180.565 101.088 179.839 100.955 179.174 100.667C178.509 100.38 177.923 99.9461 177.463 99.4003C177.003 98.8546 176.682 98.2122 176.525 97.5248L171.937 78.1471C171.717 77.1971 171.823 76.2039 172.238 75.3169C172.653 74.4299 173.354 73.6971 174.237 73.2287Z" fill="white"/>
<path d="M82.7723 175.381C87.0705 173.015 95.1222 168.579 100.379 165.716C100.981 165.391 101.649 165.207 102.332 165.178C103.016 165.148 103.697 165.274 104.324 165.547C104.952 165.819 105.509 166.23 105.954 166.75C106.399 167.269 106.719 167.882 106.892 168.544L111.865 187.589C112.119 188.558 112.043 189.584 111.649 190.506C111.254 191.427 110.564 192.19 109.686 192.676L91.6055 202.648C90.9945 202.984 90.3138 203.174 89.6168 203.203C88.9199 203.232 88.2258 203.099 87.589 202.815C86.9521 202.53 86.39 202.102 85.9466 201.564C85.5033 201.026 85.1908 200.393 85.0339 199.714L80.5936 180.326C80.3712 179.377 80.4635 178.382 80.8564 177.49C81.2494 176.598 81.9217 175.858 82.7723 175.381Z" fill="white"/>
<path d="M116.485 155.821C120.783 153.455 128.835 149.019 134.092 146.156C134.694 145.831 135.361 145.647 136.045 145.617C136.728 145.588 137.409 145.714 138.037 145.987C138.664 146.259 139.221 146.67 139.666 147.19C140.111 147.709 140.432 148.322 140.604 148.984L145.577 168.029C145.832 168.998 145.756 170.024 145.361 170.945C144.967 171.867 144.276 172.63 143.399 173.115L125.318 183.088C124.707 183.424 124.026 183.614 123.329 183.643C122.632 183.672 121.938 183.539 121.301 183.254C120.665 182.97 120.102 182.542 119.659 182.004C119.216 181.466 118.903 180.833 118.746 180.154L114.306 160.766C114.084 159.817 114.176 158.822 114.569 157.93C114.962 157.038 115.634 156.298 116.485 155.821Z" fill="url(#paint7_linear)"/>
<path d="M150.197 137.348C154.495 134.982 162.547 130.546 167.804 127.683C168.406 127.358 169.074 127.173 169.757 127.144C170.441 127.115 171.122 127.241 171.749 127.513C172.377 127.786 172.934 128.197 173.379 128.716C173.823 129.235 174.144 129.849 174.317 130.51L179.29 149.555C179.544 150.525 179.468 151.551 179.074 152.472C178.679 153.393 177.989 154.157 177.111 154.642L159.03 164.614C158.419 164.95 157.739 165.14 157.042 165.169C156.345 165.198 155.651 165.065 155.014 164.781C154.377 164.497 153.815 164.069 153.371 163.531C152.928 162.993 152.616 162.36 152.459 161.681L148.018 142.292C147.796 141.344 147.888 140.348 148.281 139.456C148.674 138.565 149.347 137.824 150.197 137.348Z" fill="white"/>
<path d="M183.909 118.079C188.208 115.646 196.259 111.083 201.517 108.139C202.118 107.804 202.786 107.615 203.47 107.584C204.153 107.554 204.834 107.684 205.462 107.964C206.089 108.244 206.646 108.667 207.091 109.201C207.536 109.735 207.857 110.366 208.029 111.047L213.002 130.636C213.257 131.633 213.181 132.689 212.786 133.636C212.391 134.584 211.701 135.369 210.823 135.868L192.743 146.125C192.132 146.471 191.451 146.666 190.754 146.696C190.057 146.726 189.363 146.589 188.726 146.297C188.089 146.004 187.527 145.564 187.084 145.011C186.64 144.457 186.328 143.806 186.171 143.108L181.731 123.165C181.508 122.19 181.601 121.166 181.994 120.249C182.387 119.331 183.059 118.57 183.909 118.079Z" fill="url(#paint8_linear)"/>
<path d="M94.7347 223.194C99.0329 220.828 107.085 216.392 112.342 213.53C112.943 213.204 113.611 213.02 114.295 212.991C114.978 212.961 115.659 213.088 116.287 213.36C116.914 213.632 117.471 214.044 117.916 214.563C118.361 215.082 118.682 215.696 118.854 216.357L123.827 235.402C124.082 236.371 124.006 237.398 123.611 238.319C123.217 239.24 122.526 240.003 121.649 240.489L103.568 250.461C102.957 250.797 102.276 250.987 101.579 251.016C100.882 251.045 100.188 250.912 99.5514 250.628C98.9145 250.343 98.3524 249.916 97.909 249.378C97.4657 248.84 97.1532 248.206 96.9963 247.527L92.556 228.139C92.3336 227.19 92.4259 226.195 92.8188 225.303C93.2118 224.411 93.8842 223.671 94.7347 223.194Z" fill="url(#paint9_linear)"/>
<path d="M128.447 203.634C132.745 201.269 140.797 196.833 146.054 193.97C146.656 193.645 147.324 193.46 148.007 193.431C148.691 193.402 149.372 193.528 149.999 193.8C150.627 194.073 151.184 194.484 151.629 195.003C152.073 195.522 152.394 196.136 152.567 196.797L157.54 215.842C157.794 216.812 157.718 217.838 157.324 218.759C156.929 219.68 156.239 220.444 155.361 220.929L137.28 230.901C136.669 231.237 135.989 231.427 135.292 231.456C134.595 231.485 133.901 231.352 133.264 231.068C132.627 230.784 132.065 230.356 131.621 229.818C131.178 229.28 130.866 228.646 130.709 227.967L126.268 208.579C126.046 207.63 126.138 206.635 126.531 205.743C126.924 204.851 127.597 204.111 128.447 203.634Z" fill="url(#paint10_linear)"/>
<path d="M162.148 185.164C166.447 182.798 174.502 178.36 179.762 175.497C180.364 175.171 181.032 174.987 181.716 174.958C182.399 174.928 183.081 175.054 183.708 175.327C184.336 175.599 184.893 176.011 185.338 176.53C185.783 177.05 186.104 177.663 186.277 178.325L191.252 197.376C191.507 198.345 191.431 199.372 191.036 200.293C190.641 201.215 189.95 201.979 189.073 202.464L170.996 212.428C170.385 212.764 169.704 212.954 169.007 212.983C168.31 213.012 167.615 212.879 166.978 212.594C166.341 212.31 165.779 211.882 165.335 211.344C164.891 210.806 164.579 210.172 164.422 209.493L159.98 190.099C159.759 189.153 159.851 188.161 160.242 187.271C160.633 186.382 161.301 185.642 162.148 185.164Z" fill="white"/>
<path d="M195.88 165.601C200.177 163.235 208.227 158.799 213.483 155.936C214.084 155.611 214.752 155.427 215.435 155.397C216.118 155.368 216.799 155.494 217.426 155.767C218.054 156.039 218.611 156.45 219.055 156.97C219.5 157.489 219.821 158.102 219.993 158.764L224.965 177.809C225.22 178.778 225.143 179.804 224.749 180.726C224.355 181.647 223.664 182.41 222.787 182.896L204.711 192.868C204.1 193.204 203.419 193.394 202.723 193.423C202.026 193.452 201.332 193.319 200.695 193.035C200.059 192.75 199.497 192.322 199.053 191.784C198.61 191.246 198.298 190.613 198.141 189.934L193.69 170.534C193.471 169.586 193.567 168.592 193.962 167.702C194.357 166.813 195.03 166.076 195.88 165.601Z" fill="url(#paint11_linear)"/>
<path d="M196.383 280.114C196.865 279.45 198.438 276.726 198.954 276.098L226.2 110.162C226.2 110.162 214.309 111.797 212.712 107.58L183.788 272.521C184.116 275.032 184.339 277.543 184.527 280.066L193.66 283.62C194.392 282.323 195.31 281.141 196.383 280.114Z" fill="#473F47"/>
<path d="M199.013 276.119C199.013 276.119 188.847 280.151 183.788 271.667L184.525 301.007L199.013 276.119Z" fill="#E8CA9A"/>
<path d="M184.23 301.007L183.788 284.707C183.788 284.707 186.381 288.904 192.488 286.744L184.23 301.007Z" fill="#473F47"/>
<path d="M226.453 109.989C226.857 107.865 224.13 105.563 220.363 104.848C216.595 104.133 213.214 105.274 212.81 107.398C212.406 109.521 215.133 111.823 218.9 112.538C222.668 113.254 226.049 112.112 226.453 109.989Z" fill="#42210B"/>
<path d="M262.292 283.62L268.612 282.004L267.626 274.927C267.626 274.927 260.838 275.941 262.292 283.62Z" fill="#42210B"/>
<path d="M270.309 262.571C270.309 262.571 272.334 287.171 271.779 287.448C271.223 287.725 265.728 288.232 265.728 287.798C265.728 287.363 265.404 276.607 265.404 276.607C265.404 276.607 262.64 281.358 262.512 283.734C262.512 283.734 255.93 279.827 254.704 276.692C253.477 273.557 257.515 260.425 259.053 259.713" fill="#473F47"/>
<path d="M248.35 296.66L254.475 289.327L250.49 283.62C250.49 283.62 246.745 292.876 248.35 296.66Z" fill="#42210B"/>
<path d="M257.888 268.407L261 297.269C261 297.269 255.976 298.956 255.061 298.826C253.817 298.389 252.623 297.824 251.498 297.14L250.381 287.503C250.381 287.503 247.495 290.369 248.006 296.22C248.006 295.819 243.409 294.309 242.815 294.037C240.94 293.246 239.139 292.291 237.434 291.183C235.665 290.004 229.12 284.59 232.683 282.443C235.676 280.626 245.416 281.487 245.416 281.487L245.559 269.563" fill="#473F47"/>
<path d="M269.406 164.433C269.382 164.33 269.382 164.223 269.407 164.12C269.431 164.018 269.479 163.922 269.548 163.841C269.616 163.76 269.702 163.696 269.799 163.653C269.897 163.61 270.003 163.59 270.11 163.595C269.446 161.061 268.335 158.664 266.828 156.513L238.562 153.22C238.562 153.22 232.883 173.202 230.7 207.643C229.005 234.341 242.249 274.045 242.249 274.045C242.249 274.045 255.959 277.48 262.533 270.788L262.27 265.04C265.683 265.013 269.089 264.737 272.46 264.214C275.872 231.048 273.295 197.481 269.406 164.433Z" fill="#E1EEFB"/>
<path d="M263.158 269.947L259.711 244.931C258.619 236.974 256.953 228.79 256.907 220.725C256.861 212.661 259.538 205.43 260.825 197.735C262.047 190.288 262.36 182.712 261.756 175.185C261.618 173.433 259.194 173.421 259.32 175.185C260.001 183.605 259.501 192.083 257.838 200.355C256.321 207.753 254.195 214.757 254.506 222.453C254.816 230.148 256.298 237.939 257.344 245.658L260.791 270.674C261.055 272.413 263.399 271.674 263.158 269.947Z" fill="#42210B"/>
<path d="M233.483 142.365C232.622 141.412 231.738 140.482 230.854 139.564L230.783 139.457C228.429 136.55 225.872 133.817 223.133 131.279L219.596 123.543C219.522 123.355 219.402 123.19 219.247 123.062C219.092 122.934 218.907 122.848 218.71 122.812C218.513 122.776 218.31 122.792 218.121 122.857C217.932 122.923 217.762 123.036 217.628 123.186C216.696 123.996 217.545 127.429 217.899 128.442C218.252 129.456 217.616 127.632 218.028 128.824C218.099 129.027 218.311 129.932 218.488 130.016C216.359 128.929 214.023 128.319 211.639 128.228C211.422 128.233 211.21 128.295 211.023 128.407C210.836 128.52 210.682 128.679 210.574 128.869C210.466 129.06 210.408 129.276 210.407 129.495C210.406 129.715 210.461 129.931 210.566 130.123C210.84 130.515 211.189 130.848 211.592 131.101H211.333C209.682 130.874 208.421 131.589 208.904 133.485C208.948 133.65 209.024 133.804 209.128 133.938C209.178 134.121 209.275 134.287 209.41 134.419C209.545 134.551 209.712 134.644 209.894 134.689L209.812 134.903C209.607 135.062 209.442 135.269 209.331 135.505C209.22 135.741 209.167 136.001 209.175 136.262C209.197 136.506 209.267 136.742 209.38 136.959C209.493 137.175 209.646 137.367 209.833 137.523C210.019 137.679 210.233 137.797 210.465 137.869C210.696 137.941 210.939 137.966 211.179 137.943L211.781 138.038C211.533 139.719 213.03 140.613 214.622 140.899C216.413 141.221 218.158 141.376 219.95 141.686L223.286 145.918C224.182 147.11 225.455 149.637 226.988 149.935C228.52 150.233 229.227 147.801 227.648 147.551C227.978 147.61 227.436 147.229 227.318 147.062C227.023 146.669 226.716 146.299 226.398 145.87C227.229 146.947 228.247 147.86 229.404 148.564C229.618 148.681 229.862 148.733 230.105 148.714C230.347 148.694 230.58 148.604 230.773 148.454C230.966 148.304 231.112 148.101 231.194 147.868C231.275 147.636 231.288 147.385 231.231 147.145C230.965 146.182 230.614 145.244 230.182 144.344C230.413 144.16 230.579 143.905 230.654 143.617L230.783 143.736C231.017 143.927 231.309 144.028 231.609 144.022L231.797 144.225C232.787 145.357 234.544 143.569 233.483 142.365Z" fill="#F3B496"/>
<path d="M257.631 112.023C257.631 112.023 241.624 110.544 237.85 119.18C234.077 127.815 235.94 140.005 235.94 140.005L226.179 132.419C226.179 132.419 221.374 138.383 220.788 141.961C220.202 145.539 229.905 156.56 239.643 159.017C249.381 161.474 266.994 162.19 269.76 156.202C272.526 150.215 272.725 132.192 269.49 125.251C266.256 118.309 257.631 112.023 257.631 112.023Z" fill="url(#paint12_linear)"/>
<path d="M243.676 96.7134C243.676 96.7134 242.893 108.331 246.353 111.05C249.812 113.769 255.563 109.296 255.563 109.296" fill="#F3B496"/>
<path d="M246.747 90.609C245.155 91.8815 243.917 93.5537 243.158 95.46C240.144 103.112 248.267 112.62 255.517 114.1L259.285 112.887C259.285 112.887 264.262 105.453 264.262 101.281C264.3 97.2504 262.775 93.3657 260.015 90.4634C256.127 86.8373 250.588 87.5528 246.747 90.609Z" fill="#473F47"/>
<path d="M255.076 114.183C255.076 114.183 241.569 152.824 251.747 159.224C261.925 165.625 281.782 159.791 277.905 150.214C274.029 140.636 258.881 113.013 258.881 113.013" fill="#473F47"/>
<path d="M183.788 301.007L162.038 307.39L183.366 307.527L183.788 301.007Z" fill="url(#paint13_linear)"/>
</g>
<defs>
<linearGradient id="paint0_linear" x1="435.455" y1="297.764" x2="367.42" y2="54.1699" gradientUnits="userSpaceOnUse">
<stop stop-color="#D58ABB"/>
<stop offset="1" stop-color="#817FBC"/>
</linearGradient>
<linearGradient id="paint1_linear" x1="223.495" y1="267.385" x2="195.937" y2="307.689" gradientUnits="userSpaceOnUse">
<stop stop-color="#D1CFFF"/>
<stop offset="1" stop-color="#FFCDFA"/>
<stop offset="1" stop-color="#FFCDFA"/>
</linearGradient>
<linearGradient id="paint2_linear" x1="63.0908" y1="220.323" x2="1.26856" y2="267.086" gradientUnits="userSpaceOnUse">
<stop stop-color="#D1CFFF"/>
<stop offset="1" stop-color="#FFCDFA"/>
<stop offset="1" stop-color="#FFCDFA"/>
</linearGradient>
<linearGradient id="paint3_linear" x1="301.248" y1="182.716" x2="264.642" y2="216.636" gradientUnits="userSpaceOnUse">
<stop stop-color="#D1CFFF"/>
<stop offset="1" stop-color="#FFCDFA"/>
<stop offset="1" stop-color="#FFCDFA"/>
</linearGradient>
<linearGradient id="paint4_linear" x1="314.514" y1="118.388" x2="374.506" y2="188.05" gradientUnits="userSpaceOnUse">
<stop stop-color="#D5C1FC"/>
<stop offset="1" stop-color="#FB9CCB"/>
</linearGradient>
<linearGradient id="paint5_linear" x1="84.9443" y1="99.6991" x2="126.489" y2="144.015" gradientUnits="userSpaceOnUse">
<stop stop-color="#D5C1FC"/>
<stop offset="1" stop-color="#FB9CCB"/>
</linearGradient>
<linearGradient id="paint6_linear" x1="152.37" y1="61.6657" x2="193.914" y2="105.982" gradientUnits="userSpaceOnUse">
<stop stop-color="#D5C1FC"/>
<stop offset="1" stop-color="#FB9CCB"/>
</linearGradient>
<linearGradient id="paint7_linear" x1="127.357" y1="124.692" x2="168.902" y2="169.008" gradientUnits="userSpaceOnUse">
<stop stop-color="#D5C1FC"/>
<stop offset="1" stop-color="#FB9CCB"/>
</linearGradient>
<linearGradient id="paint8_linear" x1="194.782" y1="86.0614" x2="237.574" y2="130.44" gradientUnits="userSpaceOnUse">
<stop stop-color="#D5C1FC"/>
<stop offset="1" stop-color="#FB9CCB"/>
</linearGradient>
<linearGradient id="paint9_linear" x1="105.607" y1="192.066" x2="147.152" y2="236.382" gradientUnits="userSpaceOnUse">
<stop stop-color="#D5C1FC"/>
<stop offset="1" stop-color="#FB9CCB"/>
</linearGradient>
<linearGradient id="paint10_linear" x1="139.319" y1="172.506" x2="180.864" y2="216.822" gradientUnits="userSpaceOnUse">
<stop stop-color="#D5C1FC"/>
<stop offset="1" stop-color="#FB9CCB"/>
</linearGradient>
<linearGradient id="paint11_linear" x1="206.745" y1="134.472" x2="248.289" y2="178.788" gradientUnits="userSpaceOnUse">
<stop stop-color="#D5C1FC"/>
<stop offset="1" stop-color="#FB9CCB"/>
</linearGradient>
<linearGradient id="paint12_linear" x1="242.106" y1="85.0283" x2="293.369" y2="153.957" gradientUnits="userSpaceOnUse">
<stop stop-color="#D5C1FC"/>
<stop offset="1" stop-color="#FB9CCB"/>
</linearGradient>
<linearGradient id="paint13_linear" x1="172.916" y1="299.221" x2="167.398" y2="307.986" gradientUnits="userSpaceOnUse">
<stop stop-color="#D1CFFF"/>
<stop offset="1" stop-color="#FFCDFA"/>
<stop offset="1" stop-color="#FFCDFA"/>
</linearGradient>
<clipPath id="clip0">
<rect width="435" height="326" fill="white"/>
</clipPath>
</defs>
</svg>
