<svg width="528" height="383" viewBox="0 0 528 383" fill="none" xmlns="http://www.w3.org/2000/svg">
<path d="M256.189 378.804L10.2665 233.237C2.43351 228.781 -4.27198 221.606 3.35329 216.898L250.166 74.4946C253.874 72.1922 259.497 70.692 263.25 72.8755L521.382 222.899C529.215 227.444 530.609 240.174 522.776 244.719L288.603 378.566C283.689 381.429 278.113 382.957 272.428 382.999C266.742 383.041 261.144 381.595 256.189 378.804Z" fill="url(#paint0_linear)"/>
<path d="M235.562 168.702C244.413 163.537 272.724 146.654 274.834 144.787L274.332 142.964L252.203 131.086L217.814 150.314C221.96 153.699 231.121 165.736 235.562 168.702Z" fill="url(#paint1_linear)" fill-opacity="0.8"/>
<path d="M158.561 320.307C181.277 306.786 231.815 276.148 237.201 271.268L235.895 266.491L160.222 217.717L77.5464 271.74C88.0812 280.601 147.091 312.507 158.561 320.307Z" fill="url(#paint2_linear)" fill-opacity="0.8"/>
<path d="M320.512 314.607C343.232 300.979 416.483 256.47 421.944 251.565L420.638 246.75L363.637 215.438L274.834 266.144C285.459 275.046 309.04 306.79 320.512 314.607Z" fill="url(#paint3_linear)" fill-opacity="0.8"/>
<path d="M337.505 212.018L376.334 232.959L377.469 242.795L336.415 219.028" fill="#473F47"/>
<path d="M336.656 196.419L320.449 254.758L323.437 256.473C324.205 256.068 324.944 255.61 325.647 255.101C326.514 254.43 346.678 193.78 346.678 193.78" fill="#473F47"/>
<path d="M373.258 184.661L384.311 219.066L383.37 287.891L380.891 289.53L377.47 287.385L374.916 219.036L364.924 184.661" fill="#473F47"/>
<path d="M329.86 181.241C329.86 181.241 328.623 188.631 331.278 192.789C333.932 196.946 340.976 186.683 340.976 186.683" fill="#FFB469"/>
<path d="M366.57 139.065L364.924 167.154L372.621 170.982L374.047 140.867" fill="#CA6B00"/>
<path d="M412.043 159.583L416.964 197.119L421.944 252.324L418.743 254.193L415.573 252.22L408.469 197.964L403.698 159.583" fill="#473F47"/>
<path d="M407.668 164.064C409.735 164.687 414.183 161.472 415.516 159.397C422.795 148.079 420.698 132.73 407.593 125.515C401.782 122.344 395.791 119.174 390.025 115.914C384.888 112.951 379.452 110.536 374.479 107.381C373.832 106.936 373.139 106.558 372.413 106.255C371.053 105.888 369.613 105.932 368.279 106.381C366.945 106.83 365.777 107.663 364.924 108.773" fill="#3D467F"/>
<path d="M407.921 164.137C411.377 164.017 413.37 159.391 414.389 156.675C417.195 149.212 417.742 134.945 409.295 130.677C409.132 130.605 408.99 130.492 408.884 130.348C408.778 130.204 408.71 130.034 408.689 129.856L392.445 120.394L379.908 113.081C377.722 111.797 375.64 110.35 373.454 109.066C371.269 107.783 369.098 106.29 366.691 107.753C364.047 109.365 363.737 112.394 363.265 115.215C362.178 121.743 362.52 128.432 364.269 134.811C365.583 139.049 368.906 141.959 372.598 144.123L384.249 150.944L405.839 163.525C406.184 163.748 406.556 163.924 406.947 164.047C407.265 164.127 407.594 164.157 407.921 164.137Z" fill="#5B5B5B"/>
<path d="M410.493 194.023L411.159 194.414C412.987 195.334 414.628 196.595 415.998 198.131C419.284 202.314 416.102 207.159 412.861 210.034C404.055 217.979 390.661 224.494 378.821 221.56C368.462 219.002 358.753 214.036 349.636 208.499C342.237 203.984 332.839 198.432 330.885 188.937C330.553 186.855 330.702 184.724 331.318 182.711C331.934 180.698 333.002 178.857 334.437 177.335C353.174 155.26 379.517 175.981 398.076 186.785L410.493 194.023Z" fill="#3D467F"/>
<path d="M416.788 194.92C416.935 195.069 417.763 201.122 417.172 202.931C415.947 205.876 414.118 208.525 411.805 210.703C409.616 212.482 410.932 200.106 410.932 200.106" fill="#3D467F"/>
<path d="M410.494 188.973L411.16 189.355C412.988 190.254 414.629 191.485 415.999 192.986C419.283 197.073 416.102 201.807 412.862 204.615C404.058 212.378 390.667 218.744 378.83 215.877C368.472 213.378 358.766 208.526 349.651 203.116C342.253 198.705 332.857 193.28 330.904 184.004C330.551 181.953 330.687 179.848 331.302 177.859C331.916 175.87 332.991 174.052 334.44 172.551C353.173 150.983 379.511 171.228 398.065 181.784L410.494 188.973Z" fill="#5B5B5B"/>
<path d="M371.767 280.411L365.013 277.292C365.013 277.292 364.353 271.408 366.628 270.237C368.902 269.065 371.767 280.411 371.767 280.411Z" fill="#196132"/>
<path d="M354.423 263.664C354.423 263.664 353.795 278.779 352.801 280.339C351.808 281.899 338.641 289.243 337.604 291.921C336.566 294.6 352.465 291.362 357.682 289.92C362.899 288.478 367.707 285.725 367.911 283.739C368.116 281.752 365.705 271.67 367.648 271.847C369.592 272.023 371.784 280.677 371.784 280.677L376.328 277.822L365.208 242.795" fill="#5B5B5B"/>
<path d="M339.836 266.732L331.957 263.267C331.957 263.267 331.187 256.729 333.841 255.428C336.494 254.126 339.836 266.732 339.836 266.732Z" fill="#196132"/>
<path d="M321.855 248.856C321.855 248.856 321.208 263.967 320.184 265.527C319.161 267.086 305.602 274.429 304.534 277.107C303.465 279.785 319.838 276.533 325.196 275.061C330.553 273.59 335.519 270.868 335.73 268.881C335.94 266.895 333.457 256.816 335.459 256.992C337.46 257.169 339.717 265.821 339.717 265.821L344.397 262.966L333.036 227.976" fill="#5B5B5B"/>
<path d="M372.04 133.366C374.576 135.712 381.099 168.94 377.6 185.061C374.101 201.182 335.627 208.727 335.627 208.727L345.605 249.351C345.605 249.351 331.061 260.959 316.828 256.657C311.698 255.162 298.755 196.759 303.069 188.482C307.384 180.205 358.46 150.787 358.46 150.787" fill="#FFF0D7"/>
<path d="M402.918 144.765C405.453 147.099 412.985 165.579 403.897 188.743C397.967 204.012 363.676 215.504 363.676 215.504L376.47 260.226C376.47 260.226 361.334 273.383 347.695 267.496C334.055 261.608 329.045 206.405 333.359 198.169C337.673 189.932 381.852 160.316 381.852 160.316" fill="#FFF0D7"/>
<path d="M389.11 100.669C389.11 100.669 414.674 110.793 408.412 147.446C404.002 173.272 379.01 176.682 379.01 176.682C379.01 176.682 362.355 166.543 364.119 163.028L386.17 150.706L360.635 138.294L342.803 158.108L329.572 148.089C329.572 148.089 347.728 117.627 355.622 105.035C363.516 92.4438 389.11 100.669 389.11 100.669Z" fill="#F39AC4"/>
<path d="M357.116 163.003L361.503 159.422C361.503 159.422 351.412 150.862 337.942 152.288C334.256 147.017 328.815 143.151 322.542 141.345L317.028 145.426" fill="#FFE8BC"/>
<path d="M361.924 159.583L366.065 185.729L358.111 190.36L351.24 166.531" fill="#FFE8BC"/>
<path d="M357.288 163.237L361.503 188.081L357.875 190.36C357.875 190.36 319.496 169.969 319.863 169.564C320.23 169.159 317.028 144.765 317.028 144.765" fill="#A27CEF"/>
<path d="M319.784 142.485L358.082 163.205L354.577 165.283L317.028 144.578L319.784 142.485Z" fill="#A27CEF"/>
<path opacity="0.42" d="M319.784 142.485L358.082 163.205L354.577 165.283L317.028 144.578L319.784 142.485Z" fill="#1371A5"/>
<path d="M352.45 166.802C352.358 166.449 352.357 166.078 352.447 165.724C352.537 165.37 352.715 165.046 352.964 164.784C353.213 164.522 353.525 164.33 353.868 164.228C354.212 164.125 354.575 164.115 354.924 164.199C357.896 165.238 361.033 165.7 364.171 165.562C364.509 165.544 364.845 165.618 365.146 165.776H365.236C368.259 168.735 371.597 171.339 375.188 173.539L374.139 174.06C372.793 176.906 371.24 179.644 369.492 182.251C369.086 182.84 368.55 183.322 367.928 183.66C367.306 183.998 366.615 184.181 365.91 184.196C365.437 184.573 364.936 184.911 364.411 185.207C363.679 185.645 362.834 185.848 361.987 185.791C361.14 185.734 360.329 185.418 359.66 184.885C359.178 185.207 358.593 185.327 358.026 185.222C357.662 185.421 357.25 185.51 356.838 185.478C356.426 185.445 356.032 185.293 355.703 185.038C353.844 183.629 352.84 181.44 354.039 179.373C353.362 178.618 352.964 177.646 352.912 176.623C352.86 175.601 353.158 174.592 353.754 173.769C354.565 172.507 355.578 171.394 356.752 170.477C355.772 170.333 354.85 169.912 354.091 169.263C353.331 168.614 352.763 167.762 352.45 166.802Z" fill="#F3B496"/>
<path d="M315.404 158.662C315.178 158.317 314.938 157.973 314.727 157.628C314.573 157.39 314.473 157.121 314.434 156.84C314.394 156.559 314.417 156.273 314.5 156.002C314.583 155.731 314.724 155.481 314.914 155.27C315.104 155.059 315.338 154.892 315.599 154.78C315.681 154.683 315.772 154.593 315.87 154.51C315.657 154.053 315.619 153.535 315.763 153.052C315.907 152.569 316.223 152.155 316.651 151.888C316.943 151.719 317.272 151.622 317.609 151.607C317.947 151.591 318.283 151.656 318.59 151.798C318.775 151.84 318.953 151.911 319.116 152.008C320.595 152.896 321.74 154.244 322.377 155.844C322.508 156.277 322.492 156.741 322.332 157.163C322.171 157.586 321.876 157.944 321.49 158.182C321.272 158.307 321.033 158.394 320.784 158.437C321.527 159.347 322.139 160.356 322.603 161.435C323.174 162.933 321.716 164.162 320.393 164.072L320.709 164.492C321.881 165.991 320.048 167.969 318.455 167.489C317.901 167.33 317.385 167.06 316.939 166.697C316.492 166.334 316.123 165.885 315.855 165.376C315.163 164.192 314.487 162.978 313.841 161.764C313.688 161.463 313.608 161.13 313.607 160.792C313.606 160.455 313.685 160.122 313.837 159.82C313.989 159.518 314.21 159.256 314.482 159.055C314.754 158.854 315.07 158.719 315.404 158.662Z" fill="#F3B496"/>
<path d="M359.224 128.807C359.224 128.807 359.119 151.731 360.554 154.199C361.988 156.668 386.685 166.423 386.685 166.423L401.417 147.208L359.224 128.807Z" fill="#F39AC4"/>
<path d="M371.193 90.0507C371.193 90.0507 367.006 98.9761 368.787 102.106C370.568 105.235 379.75 102.877 379.75 102.877" fill="#1B6333"/>
<path d="M369.486 85.2357C369.486 85.2357 369.638 103.977 377.677 105.782C385.716 107.587 389.682 98.0186 389.682 98.0186C389.682 98.0186 391.004 85.3384 388.36 82.7407C385.716 80.1431 373.619 79.8349 369.486 85.2357Z" fill="#F3B496"/>
<path d="M367.205 83.2791C367.205 83.2791 372.538 90.5751 375.644 92.3843C378.749 94.1935 382.192 93.0516 383.306 95.5875C384.419 98.1233 380.947 113.383 384.522 116.185C388.096 118.988 394.777 110.565 397.897 114.539C401.018 118.514 399.538 125.958 404.329 127.471C409.119 128.983 414.584 121.435 409.881 115.607C405.178 109.779 404.724 106.887 407.273 104.885C411.083 101.92 406.849 91.2721 402.278 89.3443C397.707 87.4165 396.256 77.0656 388.082 74.6929C379.907 72.3202 368.831 77.3474 367.205 83.2791Z" fill="#3D467F"/>
<path d="M361.217 121.777C361.459 132.558 361.934 143.33 362.641 154.091C362.72 155.312 360.726 155.357 360.647 154.091C359.929 143.33 359.455 132.558 359.222 121.777C359.222 121.525 359.327 121.284 359.515 121.106C359.702 120.927 359.955 120.827 360.22 120.827C360.484 120.827 360.738 120.927 360.925 121.106C361.112 121.284 361.217 121.525 361.217 121.777Z" fill="#3D467F"/>
<path d="M364.262 162.402C370.37 159.489 375.709 155.206 379.853 149.891C383.997 144.576 386.832 138.377 388.132 131.786C388.374 130.587 390.221 131.052 389.994 132.251C388.634 139.081 385.693 145.506 381.401 151.019C377.109 156.532 371.584 160.982 365.261 164.021C364.171 164.606 363.157 162.926 364.262 162.402Z" fill="#3D467F"/>
<path d="M205.501 159.583C205.501 159.583 223.041 163.772 222.455 165.337C221.869 166.902 216.118 165.337 216.118 165.337C216.118 165.337 227.876 170.211 225.473 175.041C223.972 178.171 212.754 176.04 209.721 175.041C206.687 174.042 198.428 166.097 198.428 166.097L205.501 159.583Z" fill="#FFD8C6"/>
<path d="M184.749 92.3304C184.749 92.3304 189.635 95.7856 190.744 113.047C191.853 130.308 192.932 141.12 194.25 144.158C195.569 147.197 213.253 158.56 213.253 158.56L204.531 168.702L177.901 152.603" fill="#D5C1FC"/>
<path d="M155.093 218.166V279.271H151.339L150.531 216.577" fill="#3D467F"/>
<path d="M129.74 194.92L120.881 261.033H125.311L134.566 197.366" fill="#3D467F"/>
<path d="M220.45 241.655C220.45 241.655 224.522 255.284 225.435 256.674C226.348 258.063 239.696 267.021 239.479 269.845C239.262 272.668 234.218 273.777 231.073 273.54C227.928 273.304 209.812 265.602 208.681 263.341C207.551 261.079 207.551 241.67 207.551 241.67L220.45 241.655Z" fill="white"/>
<path d="M198.782 257.613C198.782 257.613 202.855 271.242 203.768 272.632C204.681 274.022 218.029 282.98 217.812 285.803C217.594 288.627 212.551 289.735 209.406 289.499C206.261 289.262 188.144 281.561 187.014 279.299C185.883 277.037 185.883 257.628 185.883 257.628L198.782 257.613Z" fill="white"/>
<path d="M127.724 132.497C128.926 135.862 135.723 186.94 135.723 186.94L142.549 184.657L133.648 132.226" fill="#3D467F"/>
<path d="M130.117 194.836L130.004 186.94L136.847 189.332L134.759 197.199" fill="#A9CBF8"/>
<path d="M146.276 182.381C146.276 182.381 128.402 189.414 130.121 196.343C131.839 203.271 146.188 220.229 155.323 218.768C164.458 217.307 175.62 209.144 175.62 209.144" fill="#A9CBF8"/>
<path d="M146.276 174.402C146.276 174.402 128.402 181.216 130.121 187.927C131.839 194.639 146.188 211.067 155.323 209.652C164.458 208.237 175.62 200.329 175.62 200.329" fill="#CBE3FF"/>
<path d="M139.585 110.568C139.585 110.568 122.305 114.937 120.483 125.032C118.661 135.127 118.293 153.811 142.832 146.549C167.371 139.287 155.777 120.619 155.777 120.619" fill="#CBE3FF"/>
<path d="M181.703 150.834C181.703 150.834 217.09 175.366 221.662 187.855C226.234 200.344 229.218 249.558 229.218 249.558C229.218 249.558 216.84 257.325 202.432 252.751L191.583 196.988C191.583 196.988 165.855 185.88 161.327 172.01C156.799 158.14 162.9 132.226 162.9 132.226" fill="#3D467F"/>
<path d="M161.538 165.637C161.538 165.637 197.504 190.17 202.151 202.659C206.798 215.148 209.832 264.377 209.832 264.377C209.832 264.377 197.25 272.143 182.606 267.57L171.579 211.807C171.579 211.807 145.43 200.699 140.827 186.829C136.225 172.958 142.426 147.045 142.426 147.045" fill="#3D467F"/>
<path d="M147.155 165.382C141.018 150.577 135.478 107.64 139.181 102.976C143.527 97.439 168.225 88.4075 168.225 88.4075C171.133 87.6241 174.191 87.5627 177.129 88.2289C180.066 88.8951 182.793 90.2684 185.069 92.2273C191.042 97.2761 186.846 136.467 185.069 156.129C174.616 165.723 162.222 168.077 147.155 165.382Z" fill="#E6E6E6"/>
<path d="M172.363 169.977C178.79 176.406 185.721 182.582 191.658 189.427C196.852 195.365 198.9 202.907 200.919 210.39C205.624 227.805 207.717 245.77 209.824 263.645C209.958 264.729 208.251 264.714 208.132 263.645C206.128 246.453 204.095 229.186 199.732 212.394C197.579 204.169 195.442 195.974 189.55 189.575C183.658 183.176 177.32 177.282 171.205 171.165C171.095 171.004 171.045 170.809 171.062 170.615C171.079 170.42 171.162 170.238 171.299 170.098C171.435 169.958 171.615 169.87 171.809 169.848C172.003 169.826 172.199 169.872 172.363 169.977Z" fill="white"/>
<path d="M186.114 168.702C186.114 168.702 203.654 172.891 203.068 174.456C202.483 176.021 196.731 174.456 196.731 174.456C196.731 174.456 208.489 179.33 206.087 184.16C204.585 187.29 193.367 185.159 190.334 184.16C187.3 183.161 179.041 175.216 179.041 175.216L186.114 168.702Z" fill="#FFD8C6"/>
<path d="M155.5 121.229C155.5 121.229 159.187 147.979 161.993 151.584C164.798 155.189 193.866 168.02 193.866 168.02C193.866 168.02 184.378 172.287 184.598 182.381C184.598 182.381 147.995 173.229 144.381 164.812C140.768 156.396 130.104 114.019 139.446 103.734C148.788 93.4486 155.5 121.229 155.5 121.229Z" fill="#D5C1FC"/>
<path d="M177.846 89.0816C177.846 89.0816 183.022 100.691 171.828 105.045C160.633 109.398 148.25 97.6 148.25 97.6C148.25 97.6 164.892 87.4853 177.846 89.0816Z" fill="#6CA3D8"/>
<path d="M158.334 92.2465L153.952 93.9752L166.039 102.589L168.183 98.5852L174.479 99.7081C174.479 99.7081 173.193 89.1584 172.948 88.922C172.702 88.6856 158.334 92.2465 158.334 92.2465Z" fill="#4687BC"/>
<path d="M145.142 71.3893C146.347 65.9211 150.601 63.9597 155.407 63.9597C156.289 62.9662 157.349 62.1542 158.529 61.5673C162.188 59.7842 167.24 59.9774 170.29 62.7858C171.506 62.3533 172.811 62.2459 174.079 62.4738C177.854 63.2019 179.059 66.9316 178.943 70.3641C178.943 70.4978 178.943 70.6315 178.943 70.7801C179.8 76.7238 174.747 80.3792 174.747 80.3792L158.776 93.4703C156.606 92.8078 154.637 91.5907 153.055 89.9338C152.514 89.2629 152.096 88.4978 151.821 87.6752C151.667 87.5904 151.521 87.4909 151.385 87.378C146.84 83.5591 143.82 77.3777 145.142 71.3893Z" fill="#3D467F"/>
<path d="M174.469 75.3439C174.469 77.3885 175.089 96.6495 166.626 96.8865C158.164 97.1236 155.093 84.8855 155.093 84.8855C155.093 84.8855 162.042 81.2111 162.042 78.233C162.042 75.255 161.48 74.0697 164.925 72.5288C168.371 70.988 174.556 71.9362 174.469 75.3439Z" fill="#FFE0CE"/>
<path d="M282.466 113.988C282.466 113.988 286.202 143.523 269.278 149.245C252.354 154.968 243.225 140.096 242.903 113.988" fill="#A27CEF"/>
<path d="M262.86 124.247C273.881 124.247 282.816 119.654 282.816 113.988C282.816 108.322 273.881 103.729 262.86 103.729C251.838 103.729 242.903 108.322 242.903 113.988C242.903 119.654 251.838 124.247 262.86 124.247Z" fill="#06577A"/>
<path d="M262.29 113.988C262.29 113.988 262.29 72.6638 283.955 55.8542C283.955 55.8542 295.507 62.566 292.615 72.8594C289.724 83.1529 277.273 75.5081 275.085 80.9106C272.898 86.3132 279.34 87.8933 274.98 93.4012C270.62 98.9091 262.29 103.349 262.29 113.988Z" fill="url(#paint4_linear)" fill-opacity="0.8"/>
<path d="M258.761 110.568C258.761 110.568 260.539 63.3923 249.631 49.4054C238.723 35.4185 231.595 54.6356 236.496 63.2145C241.397 71.7933 249.945 69.6449 246.956 77.0236C243.968 84.4023 238.558 88.2546 244.565 91.4254C250.572 94.5961 259.254 104.568 258.761 110.568Z" fill="url(#paint5_linear)" fill-opacity="0.8"/>
<path d="M158.638 43.8686C159.628 43.3436 160.458 42.5528 161.039 41.5818C161.62 40.6108 161.93 39.4963 161.935 38.3588V6.24563C161.933 5.15015 161.648 4.07453 161.111 3.12623C160.573 2.17793 159.801 1.39014 158.871 0.841567C157.942 0.292991 156.887 0.002834 155.813 8.08122e-05C154.739 -0.00267237 153.684 0.282075 152.751 0.825878L103.402 30.1916C102.454 30.7551 101.671 31.5676 101.135 32.5446C100.6 33.5216 100.33 34.6273 100.356 35.7465L102.093 76.3721L158.638 43.8686Z" fill="#A27CEF"/>
<path d="M101.495 75.9457V84.3513L114.039 66.1132" fill="#A27CEF"/>
<path d="M110.052 41.9246L154.161 17.114C154.591 16.8677 154.904 16.4637 155.031 15.9909C155.158 15.5182 155.088 15.0154 154.837 14.5931C154.586 14.1709 154.174 13.8638 153.692 13.7393C153.21 13.6149 152.697 13.6834 152.267 13.9297L108.129 38.7403C107.916 38.8623 107.729 39.0243 107.58 39.2169C107.43 39.4096 107.321 39.6293 107.258 39.8634C107.196 40.0975 107.18 40.3414 107.214 40.5812C107.247 40.8211 107.328 41.0521 107.453 41.2612C107.577 41.4703 107.742 41.6533 107.938 41.7998C108.135 41.9463 108.359 42.0534 108.597 42.115C108.836 42.1766 109.085 42.1915 109.329 42.1588C109.574 42.1261 109.809 42.0466 110.022 41.9246H110.052Z" fill="white"/>
<path d="M112.181 54.5305L156.425 29.6868C156.861 29.4401 157.179 29.0337 157.309 28.5573C157.439 28.0809 157.371 27.5733 157.119 27.1464C156.867 26.7194 156.452 26.4079 155.966 26.2805C155.48 26.1531 154.962 26.2201 154.526 26.4669L110.282 51.3549C109.894 51.6208 109.622 52.0202 109.521 52.4736C109.42 52.927 109.496 53.4012 109.736 53.8016C109.975 54.202 110.36 54.4994 110.813 54.6344C111.266 54.7695 111.755 54.7324 112.181 54.5305Z" fill="white"/>
<path d="M432.634 8.18784C448.766 2.22261 468.776 16.6137 477.362 40.1913C485.948 63.7688 479.813 87.6894 463.681 93.5949C462.399 94.0619 461.076 94.4064 459.729 94.6239C456.327 106.554 444.607 103.333 444.607 103.333C449.256 100.53 450.549 97.1592 450.549 94.266C437.922 91.2834 425.295 79.01 419.027 61.5915C410.381 38.014 416.501 14.0934 432.634 8.18784Z" fill="#A27CEF"/>
<path opacity="0.1" d="M432.634 8.18784C448.766 2.22261 468.776 16.6137 477.362 40.1913C485.948 63.7688 479.813 87.6894 463.681 93.5949C462.399 94.0619 461.076 94.4064 459.729 94.6239C456.327 106.554 444.607 103.333 444.607 103.333C449.256 100.53 450.549 97.1592 450.549 94.266C437.922 91.2834 425.295 79.01 419.027 61.5915C410.381 38.014 416.501 14.0934 432.634 8.18784Z" fill="black"/>
<path d="M456.159 95.5516C472.261 89.6779 478.373 65.9071 469.811 42.4581C461.25 19.0092 441.256 4.76161 425.155 10.6353C409.053 16.5091 402.941 40.2798 411.503 63.7288C420.065 87.1778 440.058 101.425 456.159 95.5516Z" fill="#A27CEF"/>
<path d="M440.45 90.0507C440.45 90.0507 447.265 99.2699 436.769 105.589C436.769 105.589 452.453 110.028 452.734 90.0507" fill="#A27CEF"/>
<path d="M426.183 53.8569C428.393 53.5739 429.836 50.6182 429.405 47.2552C428.974 43.8922 426.833 41.3954 424.622 41.6784C422.412 41.9615 420.969 44.9172 421.4 48.2802C421.831 51.6432 423.972 54.14 426.183 53.8569Z" fill="white"/>
<path d="M440.082 61.0342C442.292 60.7512 443.735 57.7955 443.304 54.4325C442.873 51.0695 440.731 48.5727 438.521 48.8557C436.31 49.1388 434.868 52.0945 435.299 55.4575C435.73 58.8205 437.871 61.3173 440.082 61.0342Z" fill="white"/>
<path d="M453.992 68.5481C456.203 68.2651 457.645 65.3094 457.214 61.9464C456.783 58.5833 454.642 56.0865 452.431 56.3696C450.221 56.6526 448.778 59.6083 449.209 62.9713C449.64 66.3343 451.782 68.8311 453.992 68.5481Z" fill="white"/>
<path d="M184.753 118.136C185.199 130.218 184.815 142.29 183.603 154.352C183.603 155.284 185.694 155.211 185.694 154.352C186.906 142.29 187.29 130.218 186.844 118.136C186.844 117.943 186.734 117.758 186.538 117.621C186.341 117.485 186.076 117.408 185.798 117.408C185.521 117.408 185.255 117.485 185.059 117.621C184.863 117.758 184.753 117.943 184.753 118.136Z" fill="#3D467F"/>
<path d="M184.244 162.685C179.664 161.067 175.172 159.197 170.789 157.083C167.289 155.386 161.081 153.343 159.807 149.349C158.343 144.843 158.197 139.331 157.684 134.676C157.172 130.02 156.806 125.169 156.557 120.408C156.557 119.447 155.093 119.447 155.093 120.408C155.386 126.13 155.839 131.837 156.557 137.529C156.86 139.962 157.196 142.39 157.567 144.813C157.875 146.765 157.889 149.829 158.856 151.586C159.734 152.805 160.933 153.743 162.311 154.29C164.654 155.631 167.031 156.893 169.442 158.074C174.135 160.354 178.95 162.359 183.864 164.082C184.742 164.457 185.123 163 184.244 162.685Z" fill="#3D467F"/>
<defs>
<linearGradient id="paint0_linear" x1="220.481" y1="-99.3622" x2="478.451" y2="463.705" gradientUnits="userSpaceOnUse">
<stop stop-color="#D5C1FC"/>
<stop offset="1" stop-color="#FB9CCB"/>
</linearGradient>
<linearGradient id="paint1_linear" x1="279.509" y1="166.271" x2="253.599" y2="113.627" gradientUnits="userSpaceOnUse">
<stop stop-color="#D58ABB"/>
<stop offset="1" stop-color="#817FBC"/>
</linearGradient>
<linearGradient id="paint2_linear" x1="250.291" y1="313.676" x2="180.769" y2="168.651" gradientUnits="userSpaceOnUse">
<stop stop-color="#D58ABB"/>
<stop offset="1" stop-color="#817FBC"/>
</linearGradient>
<linearGradient id="paint3_linear" x1="434.005" y1="308.197" x2="364.802" y2="170.594" gradientUnits="userSpaceOnUse">
<stop stop-color="#D58ABB"/>
<stop offset="1" stop-color="#817FBC"/>
</linearGradient>
<linearGradient id="paint4_linear" x1="295.605" y1="110.231" x2="247.898" y2="76.3615" gradientUnits="userSpaceOnUse">
<stop stop-color="#D58ABB"/>
<stop offset="1" stop-color="#817FBC"/>
</linearGradient>
<linearGradient id="paint5_linear" x1="260.832" y1="106.295" x2="215.671" y2="84.3681" gradientUnits="userSpaceOnUse">
<stop stop-color="#D58ABB"/>
<stop offset="1" stop-color="#817FBC"/>
</linearGradient>
</defs>
</svg>
