<svg width="50" height="50" viewBox="0 0 50 50" fill="none" xmlns="http://www.w3.org/2000/svg">
<g clip-path="url(#clip0)">
<path d="M43.874 6.34766L41.1539 0.809766C40.9059 0.313477 40.3986 0 39.8438 0H10.1563C9.60137 0 9.09414 0.313477 8.84609 0.809766L6.12598 6.34766H43.874Z" fill="#828282"/>
<path d="M16.4327 9.27734H6.12598L14.1542 25.333C16.446 23.2877 19.3161 21.8776 22.4861 21.3849L16.4327 9.27734Z" fill="#828282"/>
<path d="M33.5677 9.27734L27.5137 21.3859C30.6838 21.8785 33.5547 23.287 35.8466 25.3322L43.8744 9.27734H33.5677Z" fill="#828282"/>
<path d="M34.9197 30.0642C32.7767 27.2126 29.4344 25.3119 25.6486 25.1158L25.648 25.1171C21.3404 24.8957 17.3641 26.8947 14.9357 30.2613C14.9351 30.2607 14.9345 30.2601 14.9338 30.2596C13.4294 32.3511 12.5977 34.8799 12.5977 37.5003C12.5977 44.3389 18.1613 50.0003 25 50.0003C31.8387 50.0003 37.4023 44.3389 37.4023 37.5003C37.4023 34.7967 36.5173 32.1907 34.9213 30.0619C34.9207 30.0627 34.9202 30.0635 34.9197 30.0642ZM26.4648 42.1878C26.4648 42.9968 25.809 43.6526 25 43.6526C24.191 43.6526 23.5352 42.9968 23.5352 42.1878V34.2776H22.1581C21.3491 34.2776 20.6933 33.6218 20.6933 32.8128C20.6933 32.0038 21.3491 31.3479 22.1581 31.3479H25C25.809 31.3479 26.4648 32.0038 26.4648 32.8128V42.1878Z" fill="#FFB404"/>
</g>
<defs>
<clipPath id="clip0">
<rect width="50" height="50" fill="white"/>
</clipPath>
</defs>
</svg>
