<svg width="50" height="50" viewBox="0 0 50 50" fill="none" xmlns="http://www.w3.org/2000/svg">
<path d="M43.874 6.34766L41.1539 0.809766C40.9059 0.313477 40.3986 0 39.8438 0H10.1563C9.60137 0 9.09414 0.313477 8.84609 0.809766L6.12598 6.34766H43.874Z" fill="#828282"/>
<path d="M16.4327 9.27734H6.12598L14.1542 25.333C16.446 23.2877 19.3161 21.8776 22.4861 21.3849L16.4327 9.27734Z" fill="#828282"/>
<path d="M33.5677 9.27734L27.5137 21.3859C30.6838 21.8785 33.5547 23.287 35.8466 25.3322L43.8744 9.27734H33.5677Z" fill="#828282"/>
<path d="M25.3065 24.1935C18.4673 24.1935 12.9033 29.7578 12.9033 36.5968C12.9033 43.436 18.4673 49 25.3065 49C32.1458 49 37.7098 43.436 37.7098 36.5968C37.7098 29.7578 32.1458 24.1935 25.3065 24.1935ZM28.0833 39.4657C28.7993 39.4657 29.3795 40.0463 29.3795 40.7619C29.3795 41.4779 28.7993 42.0581 28.0833 42.0581H22.5298C21.8138 42.0581 21.2336 41.4779 21.2336 40.7619C21.2336 39.3202 22.0116 37.9794 23.264 37.2628L26.0964 35.6449C26.5221 35.4011 26.7871 34.9444 26.7871 34.4533C26.7871 33.9895 26.4566 33.0338 25.3052 33.0338C24.4897 33.0338 23.826 33.6971 23.826 34.513C23.826 35.2286 23.2458 35.8099 22.5298 35.8099C21.8138 35.8099 21.2336 35.23 21.2336 34.5144V34.513C21.2336 32.2679 23.0601 30.4414 25.3052 30.4414C27.6816 30.4414 29.3795 32.3175 29.3795 34.4519C29.3795 35.8717 28.6146 37.1909 27.3832 37.8954L24.6341 39.4657H28.0833Z" fill="#BDBDBD"/>
</svg>
