<svg width="50" height="50" viewBox="0 0 50 50" fill="none" xmlns="http://www.w3.org/2000/svg">
<path d="M43.874 6.34766L41.1539 0.809766C40.9059 0.313477 40.3986 0 39.8438 0H10.1563C9.60137 0 9.09414 0.313477 8.84609 0.809766L6.12598 6.34766H43.874Z" fill="#828282"/>
<path d="M16.4327 9.27734H6.12598L14.1542 25.333C16.446 23.2877 19.3161 21.8776 22.4861 21.3849L16.4327 9.27734Z" fill="#828282"/>
<path d="M33.5677 9.27734L27.5137 21.3859C30.6838 21.8785 33.5547 23.287 35.8466 25.3322L43.8744 9.27734H33.5677Z" fill="#828282"/>
<path d="M25.3065 24.1935C18.4674 24.1935 12.9033 29.7576 12.9033 36.5968C12.9033 43.4359 18.4674 49 25.3065 49C32.1458 49 37.7098 43.4359 37.7098 36.5968C37.7099 29.7575 32.1458 24.1935 25.3065 24.1935ZM28.5275 38.5466C28.5275 40.3212 27.0817 41.7649 25.3046 41.7649C23.7057 41.7649 22.3334 40.5736 22.1126 38.9938C22.092 38.8462 22.0816 38.6959 22.0816 38.5466C22.0816 37.8623 22.6371 37.3075 23.3223 37.3075C24.0076 37.3075 24.5631 37.8622 24.5631 38.5466C24.5631 38.5817 24.5655 38.617 24.5704 38.6515C24.6209 39.0137 24.9366 39.287 25.3046 39.287C25.7133 39.287 26.046 38.9548 26.046 38.5466C26.046 38.1383 25.7134 37.8062 25.3046 37.8062C24.6193 37.8062 24.0638 37.2515 24.0638 36.5672C24.0638 35.8828 24.6193 35.3281 25.3046 35.3281C25.7133 35.3281 26.046 34.996 26.046 34.5878C26.046 34.1795 25.7134 33.8474 25.3046 33.8474C24.9509 33.8474 24.6449 34.0977 24.5771 34.4428C24.4451 35.1143 23.7923 35.5518 23.1206 35.4199C22.4481 35.2881 22.0101 34.6369 22.1422 33.9654C22.4379 32.4612 23.7679 31.3694 25.3046 31.3694C27.0816 31.3694 28.5275 32.8132 28.5275 34.5878C28.5275 35.3338 28.2713 36.0207 27.8431 36.5672C28.2713 37.1136 28.5275 37.8005 28.5275 38.5466Z" fill="#D6997D"/>
</svg>
