<svg width="14" height="14" viewBox="0 0 14 14" fill="none" xmlns="http://www.w3.org/2000/svg">
<path d="M6.99449 1.1665C3.77449 1.1665 1.16699 3.77984 1.16699 6.99984C1.16699 10.2198 3.77449 12.8332 6.99449 12.8332C10.2203 12.8332 12.8337 10.2198 12.8337 6.99984C12.8337 3.77984 10.2203 1.1665 6.99449 1.1665ZM7.00033 11.6665C4.42199 11.6665 2.33366 9.57817 2.33366 6.99984C2.33366 4.4215 4.42199 2.33317 7.00033 2.33317C9.57866 2.33317 11.667 4.4215 11.667 6.99984C11.667 9.57817 9.57866 11.6665 7.00033 11.6665Z" fill="white"/>
<path d="M7.29199 4.0835H6.41699V7.5835L9.47949 9.421L9.91699 8.7035L7.29199 7.146V4.0835Z" fill="white"/>
</svg>
