<svg width="479" height="440" viewBox="0 0 479 440" fill="none" xmlns="http://www.w3.org/2000/svg">
<path d="M329.243 332.236L436.034 381.046C438.304 382.081 440.891 382.171 443.228 381.298C445.564 380.425 447.46 378.66 448.499 376.388L475.806 316.454C476.332 315.339 476.622 314.127 476.659 312.895C476.73 311.028 476.247 309.181 475.272 307.589C474.296 305.996 472.871 304.729 471.177 303.946L364.386 255.137C363.265 254.594 362.047 254.281 360.803 254.217C359.56 254.153 358.316 254.338 357.145 254.763C355.974 255.187 354.899 255.842 353.985 256.689C353.07 257.535 352.334 258.556 351.819 259.692L324.492 319.667C323.974 320.793 323.683 322.009 323.635 323.248C323.587 324.486 323.784 325.722 324.214 326.884C324.644 328.046 325.299 329.111 326.141 330.019C326.983 330.927 327.996 331.66 329.121 332.175L329.243 332.236Z" fill="#F39AC4"/>
<path d="M329.243 332.236L436.034 381.046C438.304 382.081 440.891 382.171 443.228 381.298C445.564 380.425 447.46 378.66 448.499 376.388L475.806 316.454C476.332 315.339 476.622 314.127 476.659 312.895C476.73 311.028 476.247 309.181 475.272 307.589C474.296 305.996 472.871 304.729 471.177 303.946L364.386 255.137C363.265 254.594 362.047 254.281 360.803 254.217C359.56 254.153 358.316 254.338 357.145 254.763C355.974 255.187 354.899 255.842 353.985 256.689C353.07 257.535 352.334 258.556 351.819 259.692L324.492 319.667C323.974 320.793 323.683 322.009 323.635 323.248C323.587 324.486 323.784 325.722 324.214 326.884C324.644 328.046 325.299 329.111 326.141 330.019C326.983 330.927 327.996 331.66 329.121 332.175L329.243 332.236Z" fill="url(#paint0_linear)"/>
<path d="M324.309 329.999L431.1 378.809C433.367 379.845 435.952 379.939 438.289 379.069C440.625 378.2 442.523 376.439 443.566 374.172L470.872 314.217C471.386 313.105 471.676 311.902 471.725 310.678C471.794 308.809 471.309 306.961 470.329 305.368C469.35 303.775 467.921 302.509 466.223 301.73L359.452 252.92C357.182 251.885 354.595 251.794 352.258 252.667C349.922 253.54 348.026 255.306 346.987 257.577L319.659 317.532C318.627 319.803 318.537 322.392 319.409 324.729C320.281 327.067 322.043 328.962 324.309 329.999V329.999Z" fill="#F39AC4"/>
<path d="M475.359 307.729L442.652 221.661L356.366 255.238L467.015 322.718L475.359 307.729Z" fill="#F39AC4"/>
<path d="M351.434 253.082L384.831 326.297L475.4 307.77L442.693 221.702C442.693 221.702 353.87 251.821 351.434 253.082Z" fill="url(#paint1_linear)"/>
<path d="M415.954 320.664L424.684 375.88L324.329 329.999L372.852 300.062L384.79 326.257L415.954 320.664Z" fill="url(#paint2_linear)"/>
<path d="M404.179 11.1484H208.422C191.311 11.1484 177.44 25.0433 177.44 42.1834V60.6294C177.44 77.7695 191.311 91.6644 208.422 91.6644H404.179C421.289 91.6644 435.16 77.7695 435.16 60.6294V42.1834C435.16 25.0433 421.289 11.1484 404.179 11.1484Z" fill="white"/>
<path d="M447.687 101.081H251.931C234.82 101.081 220.949 114.975 220.949 132.115V150.562C220.949 167.702 234.82 181.597 251.931 181.597H447.687C464.798 181.597 478.669 167.702 478.669 150.562V132.115C478.669 114.975 464.798 101.081 447.687 101.081Z" fill="white"/>
<path d="M390.8 193.148H195.043C177.932 193.148 164.062 207.043 164.062 224.183V242.629C164.062 259.77 177.932 273.664 195.043 273.664H390.8C407.91 273.664 421.781 259.77 421.781 242.629V224.183C421.781 207.043 407.91 193.148 390.8 193.148Z" fill="white"/>
<path opacity="0.18" d="M239.201 233.966C239.201 239.999 237.415 245.897 234.069 250.914C230.723 255.931 225.967 259.841 220.402 262.15C214.837 264.459 208.714 265.063 202.806 263.886C196.899 262.709 191.473 259.803 187.214 255.537C182.955 251.27 180.054 245.835 178.879 239.917C177.704 233.999 178.307 227.866 180.612 222.291C182.917 216.717 186.82 211.953 191.828 208.601C196.837 205.249 202.725 203.459 208.748 203.459C212.726 203.438 216.669 204.202 220.352 205.707C224.035 207.212 227.387 209.429 230.215 212.232C233.042 215.034 235.292 218.367 236.834 222.041C238.376 225.714 239.18 229.655 239.201 233.64V233.966Z" fill="#F39AC4"/>
<path opacity="0.34" d="M207.915 240.392C212.893 240.392 216.929 236.349 216.929 231.362C216.929 226.375 212.893 222.333 207.915 222.333C202.936 222.333 198.9 226.375 198.9 231.362C198.9 236.349 202.936 240.392 207.915 240.392Z" fill="#3D467F"/>
<path opacity="0.34" d="M227.548 257.964C221.953 262.362 214.999 264.66 207.89 264.459C200.781 264.259 193.967 261.572 188.628 256.866C189.988 252.696 192.658 249.079 196.239 246.554C199.82 244.029 204.12 242.732 208.497 242.855C212.875 242.979 217.095 244.517 220.528 247.24C223.961 249.963 226.424 253.724 227.548 257.964V257.964Z" fill="#3D467F"/>
<path opacity="0.18" d="M397.743 210.15H269.33V218.021H397.743V210.15Z" fill="#5B5B5B"/>
<path opacity="0.18" d="M397.743 224.123H269.33V231.993H397.743V224.123Z" fill="#5B5B5B"/>
<path opacity="0.18" d="M397.743 238.094H269.33V245.965H397.743V238.094Z" fill="#5B5B5B"/>
<path opacity="0.18" d="M397.743 252.066H269.33V259.937H397.743V252.066Z" fill="#5B5B5B"/>
<path opacity="0.18" d="M227.202 439.902C344.711 439.902 439.972 428.275 439.972 413.931C439.972 399.588 344.711 387.96 227.202 387.96C109.692 387.96 14.4316 399.588 14.4316 413.931C14.4316 428.275 109.692 439.902 227.202 439.902Z" fill="#F39AC4"/>
<path d="M93.1451 405.613C91.3381 406.996 89.7545 409.376 90.7087 411.471C91.663 413.565 94.2414 413.85 96.434 413.911C104.727 414.127 113.017 413.39 121.142 411.715C121.384 411.693 121.612 411.593 121.792 411.43C121.955 411.222 122.035 410.961 122.015 410.698C122.617 405.637 122.875 400.541 122.787 395.445C118.32 394.184 113.143 395.709 109.143 397.763C104.007 400.305 97.7131 402.075 93.1451 405.613Z" fill="#F39AC4"/>
<path d="M177.563 402.543C179.369 403.946 180.973 406.325 180.019 408.4C179.065 410.474 176.466 410.8 174.273 410.84C165.978 411.047 157.687 410.289 149.565 408.583C149.324 408.561 149.096 408.461 148.916 408.298C148.769 408.083 148.698 407.826 148.713 407.566C148.09 402.507 147.832 397.409 147.941 392.313C152.408 391.032 157.585 392.577 161.584 394.631C166.721 397.255 172.994 399.024 177.563 402.543Z" fill="#F39AC4"/>
<path d="M110.482 258.859V396.848C110.482 396.848 118.157 399.594 122.826 396.848L137.322 280.599L147.474 394.936C147.474 394.936 155.595 396.848 161.685 394.103L167.776 257.842C167.776 257.842 131.8 249.727 110.482 258.859Z" fill="#473F47"/>
<path d="M215.041 183.935C211.163 199.534 211.224 207.161 205.316 222.109C203.732 226.176 201.255 230.65 196.992 231.159C193.743 231.545 190.759 229.369 188.18 227.335C181.102 221.681 174.003 216.028 166.883 210.374C166.165 227.251 166.708 244.157 168.507 260.953C158.681 266.139 148.327 271.447 137.221 271.122C130.243 270.627 123.428 268.768 117.162 265.651C115.64 265 114.158 264.329 112.676 263.617C112.135 263.435 111.662 263.095 111.315 262.641C109.285 259.468 110.239 251.496 110.077 247.734C109.833 241.999 109.549 236.243 109.265 230.488C109.143 228.454 109.041 226.562 108.899 224.59C108.392 215.255 107.803 205.961 106.869 196.626C107.031 198.232 105.428 201.12 104.839 202.727C104.088 205.249 103.336 207.811 102.565 210.354C101.737 212.667 101.059 215.031 100.535 217.431C100.088 220.339 101.489 223.125 101.306 226.115C101.294 227.364 100.994 228.594 100.431 229.708C99.8674 230.823 99.0554 231.792 98.0577 232.542C94.9109 234.575 90.7895 233.314 87.3583 231.85C85.4401 231.282 83.7718 230.077 82.6279 228.434C81.8801 226.569 81.773 224.508 82.3233 222.576C83.9123 211.757 86.7254 201.154 90.7082 190.972C94.1394 182.064 97.5096 172.343 106.95 168.357C111.843 166.323 117.67 166.181 122.908 166.079L141.343 165.713C147.191 165.3 153.069 165.759 158.782 167.075C166.274 169.109 170.964 174.722 175.207 180.925C180.486 188.708 185.44 196.721 190.069 204.964C193.358 194.002 193.012 191.175 196.992 180.457C203.117 180.951 209.17 182.118 215.041 183.935V183.935Z" fill="#D5C1FC"/>
<path d="M136.429 227.539C135.41 228.88 134.091 229.963 132.579 230.701C131.066 231.44 129.402 231.812 127.719 231.789C125.002 231.889 122.292 232.127 119.598 232.501C118.856 232.581 118.152 232.87 117.568 233.335C117.148 233.854 116.862 234.469 116.736 235.125C114.198 244.622 116.512 254.649 117.324 264.431C117.406 264.834 117.363 265.252 117.203 265.631V265.631C115.68 264.98 114.198 264.309 112.716 263.597C112.175 263.415 111.702 263.075 111.355 262.621C109.325 259.448 110.279 251.476 110.117 247.713C109.873 241.978 109.589 236.223 109.305 230.467C109.183 228.434 109.082 226.542 108.939 224.569C109.406 224.447 109.894 224.366 110.361 224.285L123.456 222.048C126.684 221.478 131.577 219.566 134.805 220.787C138.033 222.007 137.931 225.119 136.429 227.539Z" fill="url(#paint3_linear)"/>
<path d="M122.36 166.018C125.446 163.293 128.288 158.269 127.719 153.999C127.151 149.728 124.045 145.233 122.238 141.186C121.324 139.152 120.411 136.651 121.507 134.658C122.163 133.767 122.904 132.943 123.72 132.197C125.588 130.163 126.095 127.194 127.334 124.692C128.329 122.748 129.793 121.083 131.595 119.85C133.396 118.618 135.477 117.856 137.647 117.635C139.823 117.477 142.002 117.906 143.956 118.879C145.909 119.852 147.566 121.333 148.753 123.167C149.848 125.129 150.583 127.271 150.925 129.492C152.075 135.409 152.151 141.486 151.149 147.43C150.863 149.491 150.173 151.474 149.118 153.266C148.589 154.155 147.857 154.904 146.981 155.452C146.106 156.001 145.112 156.332 144.083 156.419C143.007 156.419 141.769 156.175 141.018 156.927C140.675 157.297 140.462 157.768 140.409 158.269C140.127 159.718 140.304 161.218 140.916 162.561C141.632 164.258 142.15 166.032 142.459 167.848C142.865 169.78 143.129 172.099 141.647 173.38C140.718 174.036 139.593 174.352 138.459 174.275C135.318 174.258 132.224 173.502 129.428 172.067C126.631 170.633 124.21 168.561 122.36 166.018Z" fill="#FDD4C1"/>
<path d="M142.622 200.266L156.509 155.503L92.3125 171.468L127.456 220.482L142.622 200.266Z" fill="url(#paint4_linear)"/>
<path d="M155.412 113.12C155.031 111.731 154.289 110.468 153.26 109.46C151.824 108.013 150.029 106.973 148.06 106.448C146.091 105.923 144.018 105.93 142.053 106.47C140.185 106.999 138.46 108.016 136.612 108.646C133.368 109.378 130.067 109.827 126.745 109.989C123.456 110.456 119.944 111.799 118.401 114.747C117.615 116.801 117.137 118.96 116.98 121.154C115.883 126.747 111.884 132.299 113.934 137.627C115.985 142.956 123.761 147.043 126.948 151.518C127.76 149.606 126.786 145.782 125.953 143.871C125.256 143.905 124.566 143.711 123.987 143.318C123.409 142.926 122.973 142.356 122.746 141.695C122.127 140.682 121.784 139.525 121.751 138.339C121.678 137.748 121.747 137.148 121.951 136.59C122.156 136.031 122.491 135.529 122.928 135.126C123.488 134.868 124.122 134.823 124.712 134.999C125.302 135.175 125.808 135.559 126.136 136.081C126.759 137.158 127.095 138.376 127.111 139.62C131.171 135.736 126.725 127.865 130.379 123.574C133.178 124.593 136.049 125.402 138.967 125.994C142.055 126.266 145.165 125.863 148.083 124.815C152.205 123.228 156.509 117.717 155.412 113.12Z" fill="#3D467F"/>
<path d="M204.301 185.623C204.881 185.661 205.46 185.527 205.965 185.237C206.329 184.965 206.621 184.609 206.818 184.2C207.731 182.616 208.22 180.822 208.239 178.993C208.174 178.103 208.263 177.209 208.503 176.349C208.779 175.788 209.113 175.256 209.498 174.763C210.896 172.091 211.388 169.036 210.899 166.059C210.898 164.922 210.677 163.797 210.249 162.744C209.839 161.952 209.265 161.257 208.565 160.706C207.864 160.156 207.054 159.762 206.189 159.551C204.456 159.127 202.671 158.956 200.89 159.042C199.74 158.94 198.583 159.122 197.52 159.571C195.977 160.344 195.165 163.822 194.86 165.428C194.382 168.075 194.895 170.805 196.301 173.095C196.764 173.73 197.158 174.412 197.479 175.129C198.332 177.448 196.322 180.763 197.804 182.776C198.644 183.659 199.651 184.365 200.767 184.854C201.882 185.343 203.083 185.604 204.301 185.623Z" fill="#FDD4C1"/>
<path d="M231.202 127.357V175.801C229.583 173.968 227.795 172.293 225.862 170.798C217.698 164.289 207.682 160.543 197.256 160.1C195.414 160.068 193.618 159.517 192.074 158.51C190.53 157.503 189.3 156.081 188.526 154.406V154.406C187.775 152.708 187.488 150.841 187.694 148.996C188.064 146.667 189.272 144.555 191.089 143.056C192.907 141.558 195.208 140.777 197.561 140.861C203.042 140.637 213.803 138.604 231.202 127.357Z" fill="#F39AC4"/>
<path d="M233.415 175.699C240.3 175.699 245.881 164.873 245.881 151.518C245.881 138.163 240.3 127.336 233.415 127.336C226.53 127.336 220.949 138.163 220.949 151.518C220.949 164.873 226.53 175.699 233.415 175.699Z" fill="#F39AC4"/>
<path d="M233.415 175.699C240.3 175.699 245.881 164.873 245.881 151.518C245.881 138.163 240.3 127.336 233.415 127.336C226.53 127.336 220.949 138.163 220.949 151.518C220.949 164.873 226.53 175.699 233.415 175.699Z" fill="url(#paint5_linear)"/>
<path d="M222.106 141.329L233.415 144.867V157.07L222.005 161.259C220.67 154.679 220.704 147.894 222.106 141.329Z" fill="url(#paint6_linear)"/>
<path d="M200.302 171.733H207.346V177.936C207.346 178.874 206.974 179.774 206.312 180.438C205.649 181.102 204.751 181.475 203.814 181.475C202.877 181.475 201.978 181.102 201.316 180.438C200.653 179.774 200.281 178.874 200.281 177.936V171.733H200.302Z" fill="#F39AC4"/>
<path d="M233.415 157.07C234.996 157.07 236.278 154.338 236.278 150.968C236.278 147.599 234.996 144.867 233.415 144.867C231.834 144.867 230.553 147.599 230.553 150.968C230.553 154.338 231.834 157.07 233.415 157.07Z" fill="#F39AC4"/>
<path d="M225.863 170.696C217.698 164.187 207.682 160.441 197.256 159.998C195.414 159.966 193.618 159.415 192.074 158.408C190.53 157.401 189.3 155.979 188.526 154.304C188.79 154.588 191.815 157.476 200.322 156.032C209.255 154.507 221.599 159.042 221.599 159.042L225.863 170.696Z" fill="url(#paint7_linear)"/>
<path d="M90.6273 216.475C88.7127 217.27 87.0596 218.588 85.8562 220.278C85.16 221.46 84.7811 222.803 84.7562 224.175C84.7313 225.547 85.0613 226.902 85.7141 228.108C86.3915 229.298 87.3018 230.338 88.3903 231.166C89.4788 231.994 90.723 232.594 92.0484 232.928C95.8653 233.945 99.9055 232.928 103.743 231.952L117.447 228.413C117.815 228.356 118.155 228.186 118.421 227.925C118.541 227.689 118.603 227.428 118.603 227.163C118.603 226.898 118.541 226.636 118.421 226.4C117.548 223.065 116.98 219.445 115.782 216.231C114.706 213.384 113.427 213.404 110.422 213.323C103.844 213.201 96.6774 213.506 90.6273 216.475Z" fill="#F39AC4"/>
<path d="M135.11 223.37H126.542C126.228 223.383 125.913 223.335 125.617 223.226C125.322 223.118 125.05 222.953 124.818 222.739C124.586 222.526 124.398 222.269 124.266 221.982C124.133 221.696 124.058 221.387 124.045 221.072C123.995 220.803 123.995 220.527 124.045 220.258L128.106 202.3C128.313 201.438 128.796 200.667 129.482 200.105C130.167 199.543 131.017 199.221 131.902 199.188H140.449C140.767 199.178 141.083 199.229 141.38 199.341C141.678 199.453 141.95 199.622 142.182 199.839C142.414 200.057 142.601 200.317 142.732 200.607C142.863 200.897 142.936 201.209 142.947 201.527C142.988 201.783 142.988 202.044 142.947 202.3L138.886 220.258C138.68 221.117 138.199 221.886 137.518 222.447C136.837 223.008 135.991 223.332 135.11 223.37V223.37Z" fill="#473F47"/>
<path d="M123.619 210.374C123.882 209.949 124.181 209.548 124.513 209.174C124.968 208.707 125.587 208.437 126.238 208.421C126.307 208.415 126.377 208.423 126.443 208.444C126.509 208.465 126.571 208.499 126.624 208.543C126.682 208.637 126.723 208.741 126.746 208.849C126.847 209.438 126.888 210.028 127.03 210.598C127.145 211.184 127.444 211.718 127.883 212.123C128.796 212.875 130.563 212.387 131.618 212.265L136.085 211.757C136.538 211.636 137.012 211.62 137.473 211.708C137.933 211.796 138.368 211.986 138.745 212.265C139.618 213.119 139.232 214.563 138.745 215.702C137.384 219.078 135.598 222.759 132.187 224.041C128.126 225.586 123.579 223.085 119.295 223.756C116.899 224.122 114.239 225.037 112.818 222.373C112.403 221.65 112.205 220.821 112.248 219.988C112.291 219.155 112.574 218.351 113.062 217.675C114.377 216.513 115.899 215.609 117.549 215.011C118.932 214.281 120.244 213.423 121.467 212.448C122.112 211.948 122.716 211.397 123.274 210.801L123.619 210.374Z" fill="#FDD4C1"/>
<path opacity="0.18" d="M291.44 141.328C291.397 149.362 288.175 157.05 282.482 162.708C276.788 168.366 269.087 171.531 261.067 171.509C253.048 171.488 245.364 168.281 239.701 162.593C234.038 156.905 230.857 149.199 230.857 141.166C230.857 133.132 234.038 125.427 239.701 119.738C245.364 114.05 253.048 110.844 261.067 110.822C269.087 110.801 276.788 113.966 282.482 119.624C288.175 125.281 291.397 132.97 291.44 141.003V141.328Z" fill="#F39AC4"/>
<path opacity="0.34" d="M260.194 147.755C265.172 147.755 269.208 143.712 269.208 138.725C269.208 133.738 265.172 129.695 260.194 129.695C255.216 129.695 251.18 133.738 251.18 138.725C251.18 143.712 255.216 147.755 260.194 147.755Z" fill="#3D467F"/>
<path opacity="0.34" d="M279.826 165.327C274.231 169.725 267.277 172.023 260.168 171.822C253.059 171.621 246.245 168.935 240.906 164.229C242.267 160.059 244.937 156.442 248.518 153.917C252.098 151.392 256.398 150.095 260.776 150.218C265.153 150.342 269.373 151.88 272.806 154.602C276.24 157.325 278.702 161.087 279.826 165.327V165.327Z" fill="#3D467F"/>
<path opacity="0.18" d="M450.023 117.513H321.609V125.384H450.023V117.513Z" fill="#A880F7"/>
<path opacity="0.18" d="M450.023 131.485H321.609V139.356H450.023V131.485Z" fill="#A880F7"/>
<path opacity="0.18" d="M450.023 145.457H321.609V153.328H450.023V145.457Z" fill="#A880F7"/>
<path opacity="0.18" d="M450.023 159.429H321.609V167.299H450.023V159.429Z" fill="#A880F7"/>
<path opacity="0.18" d="M251.159 51.3963C251.159 57.4298 249.373 63.3279 246.027 68.3446C242.681 73.3613 237.924 77.2714 232.36 79.5803C226.795 81.8893 220.672 82.4934 214.764 81.3163C208.857 80.1392 203.431 77.2338 199.172 72.9674C194.913 68.701 192.012 63.2654 190.837 57.3478C189.662 51.4301 190.265 45.2964 192.57 39.7221C194.875 34.1478 198.778 29.3834 203.786 26.0313C208.795 22.6793 214.682 20.8901 220.706 20.8901C228.782 20.8901 236.528 24.1042 242.24 29.8252C247.951 35.5462 251.159 43.3056 251.159 51.3963V51.3963Z" fill="#F39AC4"/>
<path opacity="0.34" d="M219.853 57.8433C224.832 57.8433 228.867 53.8005 228.867 48.8135C228.867 43.8265 224.832 39.7837 219.853 39.7837C214.875 39.7837 210.839 43.8265 210.839 48.8135C210.839 53.8005 214.875 57.8433 219.853 57.8433Z" fill="#3D467F"/>
<path opacity="0.34" d="M239.506 75.415C233.907 79.8154 226.947 82.1129 219.834 81.9085C212.72 81.7042 205.903 79.0109 200.565 74.2964C201.922 70.1191 204.593 66.4943 208.178 63.9642C211.763 61.4342 216.07 60.1349 220.453 60.2608C224.837 60.3867 229.062 61.931 232.496 64.6627C235.931 67.3944 238.39 71.1666 239.506 75.415V75.415Z" fill="#3D467F"/>
<path opacity="0.18" d="M409.701 27.6016H281.288V35.4722H409.701V27.6016Z" fill="#A6CEEE"/>
<path opacity="0.18" d="M409.701 41.5732H281.288V49.4438H409.701V41.5732Z" fill="#A6CEEE"/>
<path opacity="0.18" d="M409.701 55.5249H281.288V63.3955H409.701V55.5249Z" fill="#A6CEEE"/>
<path opacity="0.18" d="M409.701 69.4966H281.288V77.3672H409.701V69.4966Z" fill="#A6CEEE"/>
<path d="M421.395 23.9409C427.854 23.9409 433.09 18.6962 433.09 12.2266C433.09 5.75691 427.854 0.512207 421.395 0.512207C414.937 0.512207 409.701 5.75691 409.701 12.2266C409.701 18.6962 414.937 23.9409 421.395 23.9409Z" fill="#F39AC4"/>
<path d="M31.2628 178.058L1.45877 133.316C1.12575 132.845 0.889268 132.314 0.763044 131.751C0.636821 131.189 0.623377 130.607 0.723484 130.04C0.82359 129.472 1.03525 128.93 1.3462 128.445C1.65714 127.96 2.06116 127.542 2.5348 127.214V127.214L27.7099 110.517C28.1781 110.208 28.7023 109.994 29.2529 109.887C30.0916 109.72 30.9608 109.804 31.7517 110.13C32.5426 110.456 33.2201 111.008 33.6991 111.717L63.5032 156.46C63.8512 156.991 64.0787 157.592 64.1699 158.221C64.2611 158.85 64.2137 159.491 64.031 160.1C63.7482 161.059 63.1372 161.887 62.3053 162.439L37.2318 179.258C36.2879 179.889 35.1333 180.122 34.0192 179.905C32.9052 179.688 31.9218 179.038 31.2831 178.099L31.2628 178.058Z" fill="#F39AC4"/>
<path d="M31.2628 178.058L1.45877 133.316C1.12575 132.845 0.889268 132.314 0.763044 131.751C0.636821 131.189 0.623377 130.607 0.723484 130.04C0.82359 129.472 1.03525 128.93 1.3462 128.445C1.65714 127.96 2.06116 127.542 2.5348 127.214V127.214L27.7099 110.517C28.1781 110.208 28.7023 109.994 29.2529 109.887C30.0916 109.72 30.9608 109.804 31.7517 110.13C32.5426 110.456 33.2201 111.008 33.6991 111.717L63.5032 156.46C63.8512 156.991 64.0787 157.592 64.1699 158.221C64.2611 158.85 64.2137 159.491 64.031 160.1C63.7482 161.059 63.1372 161.887 62.3053 162.439L37.2318 179.258C36.2879 179.889 35.1333 180.122 34.0192 179.905C32.9052 179.688 31.9218 179.038 31.2831 178.099L31.2628 178.058Z" fill="url(#paint8_linear)"/>
<path d="M32.623 180.132L2.81894 135.39C2.18503 134.435 1.95515 133.267 2.1797 132.142C2.40425 131.017 3.06491 130.028 4.01679 129.39L29.0903 112.754C29.5585 112.445 30.0828 112.231 30.6333 112.124C31.469 111.958 32.3349 112.044 33.1223 112.369C33.9097 112.695 34.5835 113.246 35.0593 113.954L64.8633 158.696C65.4981 159.646 65.7307 160.809 65.5099 161.93C65.2891 163.051 64.633 164.039 63.6858 164.676L38.5919 181.413C38.1165 181.723 37.5846 181.936 37.0268 182.04C36.4689 182.143 35.8962 182.135 35.3415 182.016C34.7868 181.897 34.261 181.669 33.7945 181.346C33.3279 181.023 32.9298 180.61 32.623 180.132V180.132Z" fill="#F39AC4"/>
<path d="M65.4116 162.256L29.9229 152.473L30.6334 111.961C31.4691 111.796 32.335 111.881 33.1224 112.207C33.9098 112.532 34.5836 113.084 35.0594 113.792L64.8634 158.534C65.2352 159.07 65.4781 159.685 65.5732 160.33C65.6683 160.976 65.613 161.635 65.4116 162.256V162.256Z" fill="url(#paint9_linear)"/>
<path d="M30.1665 137.953L4.62598 138.014L32.6231 180.133L42.6322 155.972L29.9432 152.474L30.1665 137.953Z" fill="url(#paint10_linear)"/>
<defs>
<linearGradient id="paint0_linear" x1="384.648" y1="307.709" x2="603.761" y2="453.546" gradientUnits="userSpaceOnUse">
<stop offset="0.01"/>
<stop offset="0.08" stop-opacity="0.69"/>
<stop offset="0.21" stop-opacity="0.32"/>
<stop offset="1" stop-opacity="0"/>
</linearGradient>
<linearGradient id="paint1_linear" x1="30622.9" y1="-9857.92" x2="38771.5" y2="-30222.6" gradientUnits="userSpaceOnUse">
<stop offset="0.01"/>
<stop offset="0.08" stop-opacity="0.69"/>
<stop offset="0.21" stop-opacity="0.32"/>
<stop offset="1" stop-opacity="0"/>
</linearGradient>
<linearGradient id="paint2_linear" x1="73748.8" y1="10028.5" x2="62221.1" y2="24527.1" gradientUnits="userSpaceOnUse">
<stop offset="0.01"/>
<stop offset="0.08" stop-opacity="0.69"/>
<stop offset="0.21" stop-opacity="0.32"/>
<stop offset="1" stop-opacity="0"/>
</linearGradient>
<linearGradient id="paint3_linear" x1="2753.87" y1="-7438.07" x2="4613.85" y2="-6745.93" gradientUnits="userSpaceOnUse">
<stop offset="0.01"/>
<stop offset="0.08" stop-opacity="0.69"/>
<stop offset="0.21" stop-opacity="0.32"/>
<stop offset="1" stop-opacity="0"/>
</linearGradient>
<linearGradient id="paint4_linear" x1="137.404" y1="228.657" x2="125.244" y2="167.978" gradientUnits="userSpaceOnUse">
<stop offset="0.01" stop-color="white"/>
<stop offset="1" stop-color="white" stop-opacity="0"/>
</linearGradient>
<linearGradient id="paint5_linear" x1="3933.71" y1="-9719.26" x2="5996.2" y2="-9208.29" gradientUnits="userSpaceOnUse">
<stop offset="0.01"/>
<stop offset="0.08" stop-opacity="0.69"/>
<stop offset="0.21" stop-opacity="0.32"/>
<stop offset="1" stop-opacity="0"/>
</linearGradient>
<linearGradient id="paint6_linear" x1="2028.55" y1="-3836.92" x2="2896.77" y2="-3646.27" gradientUnits="userSpaceOnUse">
<stop offset="0.01"/>
<stop offset="0.08" stop-opacity="0.69"/>
<stop offset="0.21" stop-opacity="0.32"/>
<stop offset="1" stop-opacity="0"/>
</linearGradient>
<linearGradient id="paint7_linear" x1="6189.58" y1="-2691.08" x2="6185.55" y2="-3221.98" gradientUnits="userSpaceOnUse">
<stop offset="0.01"/>
<stop offset="0.08" stop-opacity="0.69"/>
<stop offset="0.21" stop-opacity="0.32"/>
<stop offset="1" stop-opacity="0"/>
</linearGradient>
<linearGradient id="paint8_linear" x1="99952.7" y1="33809.6" x2="97429.2" y2="30843.9" gradientUnits="userSpaceOnUse">
<stop offset="0.01"/>
<stop offset="0.08" stop-opacity="0.69"/>
<stop offset="0.21" stop-opacity="0.32"/>
<stop offset="1" stop-opacity="0"/>
</linearGradient>
<linearGradient id="paint9_linear" x1="55935.8" y1="11676.2" x2="53717.1" y2="12530.1" gradientUnits="userSpaceOnUse">
<stop offset="0.01" stop-color="white"/>
<stop offset="1" stop-color="white" stop-opacity="0"/>
</linearGradient>
<linearGradient id="paint10_linear" x1="47722.8" y1="15242.3" x2="45510.3" y2="18729.7" gradientUnits="userSpaceOnUse">
<stop offset="0.01"/>
<stop offset="0.08" stop-opacity="0.69"/>
<stop offset="0.21" stop-opacity="0.32"/>
<stop offset="1" stop-opacity="0"/>
</linearGradient>
</defs>
</svg>
