<svg width="34" height="34" viewBox="0 0 34 34" fill="none" xmlns="http://www.w3.org/2000/svg">
<path d="M16.6667 0C7.46667 0 0 7.46667 0 16.6667C0 25.8667 7.46667 33.3333 16.6667 33.3333C25.8667 33.3333 33.3333 25.8667 33.3333 16.6667C33.3333 7.46667 25.8667 0 16.6667 0ZM16.6667 5C19.4333 5 21.6667 7.23333 21.6667 10C21.6667 12.7667 19.4333 15 16.6667 15C13.9 15 11.6667 12.7667 11.6667 10C11.6667 7.23333 13.9 5 16.6667 5ZM16.6667 28.6667C12.5 28.6667 8.81667 26.5333 6.66667 23.3C6.71667 19.9833 13.3333 18.1667 16.6667 18.1667C19.9833 18.1667 26.6167 19.9833 26.6667 23.3C24.5167 26.5333 20.8333 28.6667 16.6667 28.6667Z" fill="#D8D8D8"/>
</svg>
