<svg width="289" height="266" viewBox="0 0 289 266" fill="none" xmlns="http://www.w3.org/2000/svg">
<path opacity="0.45" d="M151.746 265.651C227.387 265.651 288.707 260.097 288.707 253.245C288.707 246.394 227.387 240.84 151.746 240.84C76.1053 240.84 14.7861 246.394 14.7861 253.245C14.7861 260.097 76.1053 265.651 151.746 265.651Z" fill="#E6E6E6"/>
<path d="M110.818 244.2C110.818 244.2 113.263 247.4 111.672 250.397C110.082 253.395 112.398 255.965 114.779 253.853C117.159 251.741 118.109 242.963 118.109 242.963L112.697 239.837L110.818 244.2Z" fill="#A27CEF"/>
<path d="M130.973 201.533C130.973 201.533 129.906 205.405 132.607 207.571C135.307 209.736 134.112 212.979 131.091 211.965C128.07 210.952 123.778 203.24 123.778 203.24L127.536 198.259L130.973 201.533Z" fill="#A27CEF"/>
<path d="M173.94 254.611L168.858 250.835L191.03 221.021V169.672H197.361V223.112L173.94 254.611Z" fill="#A5A5A5"/>
<path d="M195.474 218.435L190.351 222.131L213.803 254.588L218.927 250.891L195.474 218.435Z" fill="#A5A5A5"/>
<path opacity="0.58" d="M240.189 240.307C240.189 240.307 232.375 238.173 230.678 230.909C230.678 230.909 242.783 228.467 243.125 240.947L240.189 240.307Z" fill="#A27CEF"/>
<path opacity="0.73" d="M241.15 239.528C241.15 239.528 235.684 230.909 240.488 222.845C240.488 222.845 249.689 228.691 245.601 239.549L241.15 239.528Z" fill="#A27CEF"/>
<path d="M242.548 239.539C242.548 239.539 245.441 230.429 254.152 228.712C254.152 228.712 255.785 234.621 248.505 239.56L242.548 239.539Z" fill="#A27CEF"/>
<path d="M236.891 239.336L238.471 250.152L248.441 250.195L249.914 239.389L236.891 239.336Z" fill="#3D467F"/>
<path d="M248.857 17.0959H139.534V171.581H248.857V17.0959Z" fill="#E6E6E6"/>
<path d="M248.857 162.451H139.534V183.208H248.857V162.451Z" fill="#C9C9C9"/>
<path opacity="0.39" d="M219.458 119.432H168.934V130.088H219.458V119.432Z" fill="#A5A5A5"/>
<path opacity="0.13" d="M219.458 137.021H168.934V147.677H219.458V137.021Z" fill="#A5A5A5"/>
<path d="M278.758 0.00793457H221.07V36.7439H278.758V0.00793457Z" fill="#F39AC4"/>
<path d="M240.274 21.4907H232.449V29.3094H240.274V21.4907Z" fill="#3D467F"/>
<path d="M88.9775 52.84C88.9775 52.84 126.842 50.2054 123.778 95.9333C120.714 141.661 172.243 139.112 172.243 139.112V149.672C172.243 149.672 101.788 158.92 95.3825 119.432C88.9775 79.944 88.9775 52.84 88.9775 52.84Z" fill="#A27CEF"/>
<path opacity="0.08" d="M183.109 146.248C183.109 146.248 187.187 157.8 172.242 159.4C157.297 161 169.04 171.549 158.631 183.208H140.751L138.082 145.139L183.109 146.248Z" fill="black"/>
<path opacity="0.46" d="M88.9775 52.84C88.9775 52.84 126.842 50.2054 123.778 95.9333C120.714 141.661 172.243 139.112 172.243 139.112V149.672C172.243 149.672 101.788 158.92 95.3825 119.432C88.9775 79.944 88.9775 52.84 88.9775 52.84Z" fill="white"/>
<path d="M253.458 13.0959H245.633V29.3199H253.458V13.0959Z" fill="#3D467F"/>
<path d="M267.378 7.44263H259.554V29.3093H267.378V7.44263Z" fill="#3D467F"/>
<path d="M194.201 102.717C210.414 102.717 223.557 89.5843 223.557 73.384C223.557 57.1836 210.414 44.0507 194.201 44.0507C177.988 44.0507 164.845 57.1836 164.845 73.384C164.845 89.5843 177.988 102.717 194.201 102.717Z" fill="white"/>
<path d="M194.201 44.0507V73.3841L222.938 67.4107C222.938 67.4107 218.935 43.8587 194.201 44.0507Z" fill="#F39AC4"/>
<path d="M194.201 73.384L177.879 97.768C177.879 97.768 194.329 110.28 213.384 95.5707C213.384 95.5707 226.429 86.1306 222.991 67.4106L194.201 73.384Z" fill="#3D467F"/>
<path d="M63.5172 29.384C63.5172 29.384 64.9049 35.2507 64.4886 39.3467C64.4461 39.7424 64.3258 40.126 64.1348 40.4753C63.9439 40.8247 63.6858 41.133 63.3755 41.3826C63.0652 41.6322 62.7087 41.8183 62.3264 41.9302C61.9441 42.0421 61.5434 42.0776 61.1473 42.0347C59.8557 41.9705 58.6105 41.5332 57.5626 40.7759C56.5148 40.0186 55.7094 38.9737 55.2441 37.768L52.6821 32.872C52.278 31.8284 52.2078 30.6852 52.4812 29.6001C52.7546 28.515 53.3581 27.5413 54.2086 26.8133C57.2296 23.9013 62.8554 25.768 63.5172 29.384Z" fill="#F3B496"/>
<path d="M53.1953 35.9333L55.0528 55.5814L65.8132 53.7894L60.1447 40.2107L53.1953 35.9333Z" fill="#F3B496"/>
<path d="M52.6079 37.608C52.6262 37.7324 52.6855 37.8471 52.7764 37.934C52.8672 38.0209 52.9845 38.0751 53.1096 38.088C53.9768 38.202 54.8575 38.0291 55.6171 37.5957C56.3766 37.1623 56.9732 36.4922 57.3156 35.688C57.7316 34.7993 57.8775 33.8081 57.7352 32.8373C57.5928 31.8665 57.1686 30.9588 56.5149 30.2267C58.3792 30.3027 60.2459 30.1595 62.0766 29.8C62.6958 29.6935 63.2917 29.4806 63.838 29.1707L64.724 24.4773C64.724 24.4773 66.5281 19.6453 63.7419 19.0587C60.9558 18.472 60.1551 21.6507 57.7106 19.784C55.266 17.9173 54.6682 17.1707 52.6079 18.7173C50.5476 20.264 53.3231 21.608 49.6936 22.0987C46.0641 22.5893 46.2029 24.0933 46.3951 25.7467C46.5641 26.3002 46.895 26.7905 47.3451 27.1547C50.1859 29.9777 52.0328 33.646 52.6079 37.608Z" fill="#3D467F"/>
<path d="M57.9346 35.4106C57.9346 35.4106 57.5503 33.1279 55.7996 33.5546C54.0489 33.9813 54.6788 37.2666 57.07 37.2666L57.9346 35.4106Z" fill="#F4A28C"/>
<path d="M64.2013 33.1173L66.2082 35.1333C66.3213 35.2498 66.403 35.393 66.4456 35.5496C66.4883 35.7061 66.4905 35.871 66.4521 36.0286C66.4138 36.1863 66.336 36.3317 66.2261 36.4512C66.1163 36.5707 65.9779 36.6604 65.8239 36.712L63.6035 37.48L64.2013 33.1173Z" fill="#F4A28C"/>
<path opacity="0.31" d="M60.8702 42.0347C60.8702 42.0347 59.4825 42.28 56.3867 40.968C56.3867 40.968 57.3688 44.7867 62.5676 45.992L60.8702 42.0347Z" fill="#CE8172"/>
<path d="M21.5431 97.224C15.8213 81.1387 13.7183 73.384 40.6193 57.9387C53.4293 50.5787 73.6264 49.48 93.3645 53.672C132.542 62.024 99.7695 112.904 109.74 140.435L65.2999 157.075C65.2999 157.075 34.0222 132.2 21.5431 97.224Z" fill="#A27CEF"/>
<path d="M65.3008 157.085C65.3008 157.085 81.8684 223.901 108.908 244.765L116.733 240.829C116.733 240.829 87.3447 194.419 98.4467 171.08C99.948 167.804 101.281 164.454 102.439 161.043L109.741 140.445L65.3008 157.085Z" fill="#3D467F"/>
<path opacity="0.08" d="M52.3307 74.8453C52.3307 74.8453 64.0732 85.9067 56.7501 104.381C51.6902 117.085 62.7388 130.568 75.9651 127.208C76.3601 127.101 76.7764 126.995 77.1928 126.867C96.6746 121 107.713 126.685 107.713 126.685C107.713 126.685 108.033 138.301 109.698 140.445L65.2581 157.085L64.1906 156.403L48.84 141.149C48.84 141.149 37.5138 128.093 32.4005 119.315C27.2871 110.536 52.3307 74.8453 52.3307 74.8453Z" fill="black"/>
<path d="M109.74 140.445C109.74 140.445 163.179 141.853 149.291 172.829C144.636 183.274 139.033 193.272 132.553 202.696L123.853 199.571C123.853 199.571 154.81 142.397 87.5576 171.101L109.74 140.445Z" fill="#3D467F"/>
<path d="M51.2308 73.288C43.7583 63.8054 29.4324 63.5814 21.17 72.3707C7.29246 87.0907 -10.396 115.517 10.0466 152.051C31.1404 189.747 87.5578 140.445 87.5578 140.445L82.0388 129C82.0388 129 27.0626 157.8 29.7313 129C31.8983 105.597 64.5105 90.1521 51.2308 73.288Z" fill="#A27CEF"/>
<path opacity="0.46" d="M51.2308 73.288C43.7583 63.8054 29.4324 63.5814 21.17 72.3707C7.29246 87.0907 -10.396 115.517 10.0466 152.051C31.1404 189.747 87.5578 140.445 87.5578 140.445L82.0388 129C82.0388 129 27.0626 157.8 29.7313 129C31.8983 105.597 64.5105 90.1521 51.2308 73.288Z" fill="white"/>
<path d="M83.7471 132.552L97.7847 126.867C97.7847 126.867 104.809 136.467 87.558 140.445L83.7471 132.552Z" fill="#F4A28C"/>
<path d="M112.996 125.395L110.829 92.2427L70.9258 102.013L74.107 129.949L55.8848 134.685L56.9629 139.112L112.996 125.395Z" fill="#F39AC4"/>
<path d="M93.0552 116.851C95.325 116.851 97.1651 115.012 97.1651 112.744C97.1651 110.476 95.325 108.637 93.0552 108.637C90.7854 108.637 88.9453 110.476 88.9453 112.744C88.9453 115.012 90.7854 116.851 93.0552 116.851Z" fill="white"/>
<path d="M172.242 142.355C172.242 142.355 179.031 140.221 183.109 143.933C187.187 147.645 172.242 148.552 172.242 148.552V142.355Z" fill="#F4A28C"/>
<path d="M44.142 56.1467C44.142 56.1467 43.2667 49.5333 56.3756 47.9333C69.4845 46.3333 75.5906 44.0293 77.2132 51.4427C77.2346 51.4427 71.6622 62.2267 44.142 56.1467Z" fill="#A27CEF"/>
<path opacity="0.46" d="M44.142 56.1467C44.142 56.1467 43.2667 49.5333 56.3756 47.9333C69.4845 46.3333 75.5906 44.0293 77.2132 51.4427C77.2346 51.4427 71.6622 62.2267 44.142 56.1467Z" fill="white"/>
</svg>
