<svg width="50" height="51" viewBox="0 0 50 51" fill="none" xmlns="http://www.w3.org/2000/svg">
<g clip-path="url(#clip0)">
<path d="M44.613 20.8051H25.7848C22.8143 20.8051 20.3976 23.2701 20.3976 26.3V36.7341L15.5194 40.2881C15.1345 40.5683 14.906 41.0212 14.906 41.5037C14.906 41.9865 15.1345 42.4394 15.5194 42.7196L20.4564 46.3164C20.8421 48.9631 23.0847 51 25.7848 51H44.613C47.5835 51 50.0001 48.5351 50.0001 45.5048V26.3C50.0001 23.2701 47.5835 20.8051 44.613 20.8051ZM38.2821 41.8002C37.9369 41.8002 37.6702 41.6885 37.592 41.3842L36.9954 39.2554H33.402L32.8061 41.3842C32.7275 41.6885 32.4609 41.8002 32.1156 41.8002C31.5663 41.8002 30.8289 41.4484 30.8289 40.9364C30.8289 40.9041 30.8446 40.8402 30.8602 40.776L33.8887 30.7093C34.0299 30.2291 34.6104 30.0046 35.191 30.0046C35.7873 30.0046 36.3679 30.2291 36.509 30.7093L39.5375 40.776C39.5532 40.8402 39.5688 40.8881 39.5688 40.9364C39.5688 41.4321 38.8314 41.8002 38.2821 41.8002Z" fill="#5B5B5B"/>
<path d="M33.8257 37.6228H36.5562L35.1906 32.7096L33.8257 37.6228Z" fill="#5B5B5B"/>
<path d="M17.4679 26.3C17.4679 24.2938 18.1557 22.4495 19.3012 20.9954C17.63 20.9954 16.0793 20.4619 14.801 19.5557C13.5227 20.4623 11.972 20.9954 10.3004 20.9954C9.84459 20.9954 9.47456 20.618 9.47456 20.1526C9.47456 19.6872 9.84459 19.3102 10.3004 19.3102C11.4712 19.3102 12.5668 18.9795 13.5048 18.4067C12.3734 17.1612 11.6211 15.5531 11.4391 13.7733H10.3008C9.84459 13.7733 9.47456 13.3963 9.47456 12.9309C9.47456 12.4656 9.84459 12.0881 10.3008 12.0881H13.9755V10.0423C13.9755 9.57651 14.3452 9.19947 14.8014 9.19947C15.2576 9.19947 15.6273 9.57651 15.6273 10.0423V12.0881H19.302C19.7582 12.0881 20.1283 12.4656 20.1283 12.9309C20.1283 13.3963 19.7582 13.7733 19.302 13.7733H18.1637C17.9817 15.5531 17.2295 17.1612 16.098 18.4067C17.0357 18.9803 18.1316 19.3102 19.302 19.3102C19.738 19.3102 20.0943 19.655 20.1252 20.0919C21.611 18.6818 23.6004 17.8168 25.7851 17.8168H29.6028V14.2659L34.481 10.7119C34.8656 10.4317 35.0941 9.97884 35.0941 9.49635C35.0941 9.01348 34.8656 8.56057 34.481 8.28042L29.5441 4.68359C29.158 2.03693 26.9154 0 24.2153 0H5.3875C2.41661 0 0 2.46494 0 5.49486V24.7C0 27.7299 2.41661 30.1949 5.3875 30.1949H17.4679V26.3Z" fill="#5B5B5B"/>
<path d="M14.8009 17.3538C15.705 16.397 16.3188 15.1546 16.4985 13.7737H13.1038C13.2834 15.1546 13.8976 16.397 14.8009 17.3538Z" fill="#5B5B5B"/>
</g>
<defs>
<clipPath id="clip0">
<rect width="50" height="51" fill="white"/>
</clipPath>
</defs>
</svg>
