<svg width="51" height="51" viewBox="0 0 51 51" fill="none" xmlns="http://www.w3.org/2000/svg">
<path d="M37.0915 0L34.5156 2.57573L35.8035 3.86393L34.5156 5.15168L39.6672 10.3034L40.9553 9.01562L42.2432 10.3034L44.8191 7.72775L37.0915 0Z" fill="#5B5B5B"/>
<path d="M39.8264 24.9282C39.4756 25.6922 39.0088 26.4174 38.3794 27.0467C37.0773 28.3488 35.4031 29.0251 33.6995 29.1354C35.243 33.3377 33.9882 37.6569 31.1851 40.4598C30.7467 40.8982 30.2741 41.2833 29.7848 41.6356L10.0446 21.8949L8.75662 23.1828L22.2901 36.7163C21.3786 36.8533 20.5001 37.2584 19.7983 37.9602L19.0898 38.6685L16.484 36.0627L17.7721 34.7744L10.0446 27.0471L6.18066 30.9105L13.9083 38.6383L15.1963 37.3504L17.8021 39.9562L14.0442 43.7143H11.645C9.63307 43.7143 8.00221 45.3454 8.00221 47.3571L8.00232 51H37.1452L37.1451 47.3571C37.1451 47.3016 37.1311 47.2494 37.1286 47.1943L37.1415 47.1974C37.0792 45.7793 37.4894 44.4105 38.3103 43.2522C41.9466 38.1228 42.8629 31.2027 39.8264 24.9282ZM22.924 42.9708C21.9182 42.9708 21.1026 42.1552 21.1026 41.1494C21.1026 40.1435 21.9182 39.3279 22.924 39.3279C23.93 39.3279 24.7455 40.1435 24.7455 41.1494C24.7455 42.1552 23.93 42.9708 22.924 42.9708Z" fill="#5B5B5B"/>
<path d="M39.6675 12.8794L31.9399 5.15169C31.2285 4.4402 30.0753 4.4402 29.3641 5.15169C26.4193 8.09637 18.4116 16.1043 15.6719 18.8441C15.3677 19.1482 15.1968 19.5609 15.1968 19.9913V23.7988C15.1967 24.2293 15.3678 24.6419 15.6719 24.9461L19.8731 29.1474C20.1774 29.4516 20.5903 29.6228 21.0205 29.6228H24.828C25.2582 29.6228 25.6711 29.4521 25.9753 29.1474C27.23 27.893 26.0973 29.0256 29.3638 25.7589C31.4978 27.8929 34.9577 27.8929 37.0916 25.7589C39.2255 23.6249 39.2255 20.1652 37.0916 18.0311L39.66 15.4627C40.3713 14.7511 40.3788 13.5904 39.6675 12.8794ZM20.3483 21.8951L19.0604 20.6072L30.6518 9.01563L31.9398 10.3035L20.3483 21.8951ZM33.2277 23.7164C32.2217 23.7164 31.4063 22.9008 31.4063 21.8949C31.4063 20.8891 32.2217 20.0735 33.2278 20.0735C34.2337 20.0735 35.0492 20.8891 35.0492 21.8949C35.0492 22.9008 34.2338 23.7164 33.2277 23.7164Z" fill="#5B5B5B"/>
</svg>
