<svg width="246" height="264" viewBox="0 0 246 264" fill="none" xmlns="http://www.w3.org/2000/svg">
<path d="M21.1698 130.152C21.1408 129.42 21.2011 128.687 21.3491 127.971L-0.00012207 124.45L5.67192 76.4753L33.5788 80.9784C38.8749 71.3044 45.7194 62.6296 53.821 55.323H53.8737L39.546 33.3966L77.226 4.86285L95.7076 32.8515C102.908 31.0218 110.296 30.1064 117.71 30.1256C118.3 30.0954 118.89 30.1579 119.461 30.311L127.832 0L173.166 11.5574L164.731 42.7407C175.194 48.717 184.501 56.6381 192.185 66.1063L215.991 50.144L242.812 89.69L212.501 110.145C213.774 116.733 214.42 123.434 214.43 130.152C214.495 132.47 214.375 134.789 214.072 137.086L245.5 145.111L236.011 192.398L199.649 183.251C195.714 189.88 191.035 196.007 185.712 201.503L201.948 232.49L161.737 257.044L145.301 225.97C136.882 228.586 128.156 229.999 119.366 230.167L107.895 263.117L63.4044 248.43L73.515 218.992C65.4075 214.678 57.9495 209.169 51.3751 202.637L29.446 216.811L3.23653 176.84L26.3675 161.739C22.9476 151.582 21.191 140.907 21.1698 130.152ZM117.71 179.435C127.144 179.478 136.378 176.624 144.243 171.235C152.107 165.846 158.248 158.165 161.887 149.163C165.526 140.162 166.5 130.246 164.685 120.672C162.87 111.098 158.348 102.296 151.692 95.3817C145.036 88.4676 136.546 83.7522 127.296 81.8328C118.046 79.9135 108.454 80.8766 99.7341 84.6002C91.0143 88.3238 83.5593 94.6403 78.3137 102.749C73.0681 110.859 70.2679 120.395 70.2678 130.152C70.276 143.182 75.2703 155.679 84.1598 164.914C93.0492 174.148 105.111 179.368 117.71 179.435Z" fill="#FB9CCB"/>
</svg>
