<svg width="898" height="724" viewBox="0 0 898 724" fill="none" xmlns="http://www.w3.org/2000/svg">
<path d="M668.162 562.884C665.525 574.319 649.722 627.424 595.449 637.765C554.421 645.591 449.902 641.165 374.485 627.589C225.988 630.812 219.692 574.43 227.453 552.95C232.862 537.975 239.471 522.978 239.937 507.247C240.417 490.792 233.231 474.463 232.729 457.868C231.448 415.873 270.499 375.405 322.917 364.349C345.359 359.627 363.73 354.714 387.051 355.005C434.384 355.582 546.693 358.009 600.852 421.056C610.532 432.321 624.733 440.881 635.568 451.515C650.014 465.739 659.495 482.774 665.084 500.311C671.721 520.822 672.77 542.13 668.162 562.884Z" fill="url(#paint0_linear)"/>
<path d="M169.662 523.633H763.749L838.524 558.93L837.122 597.946H83.4648V562.043L169.662 523.633Z" fill="#817FBC"/>
<path d="M169.662 523.633H763.749L838.524 558.93L837.122 597.946H83.4648V562.043L169.662 523.633Z" fill="url(#paint1_linear)"/>
<path d="M837.122 562.045H83.4648V597.965H837.122V562.045Z" fill="url(#paint2_linear)"/>
<path d="M522.824 364.995C539.914 342.455 551.836 316.436 557.746 288.779C559.58 280.132 560.912 271.156 565.585 263.685C577.312 263.238 589.051 264.219 600.541 266.608C592.425 317.073 569.478 364.026 542.275 407.314C537.966 414.231 532.342 421.668 524.26 422.1C521.105 422.093 517.979 421.507 515.036 420.371C507.232 417.846 499.358 415.286 492.418 410.946C488.957 408.801 479.353 402.454 480.409 397.543C481.36 393.046 491.19 391.68 494.685 390.037C506.038 384.555 515.175 374.939 522.824 364.995Z" fill="#817FBC"/>
<path d="M522.824 364.995C539.914 342.455 551.836 316.436 557.746 288.779C559.58 280.132 560.912 271.156 565.585 263.685C577.312 263.238 589.051 264.219 600.541 266.608C592.425 317.073 569.478 364.026 542.275 407.314C537.966 414.231 532.342 421.668 524.26 422.1C521.105 422.093 517.979 421.507 515.036 420.371C507.232 417.846 499.358 415.286 492.418 410.946C488.957 408.801 479.353 402.454 480.409 397.543C481.36 393.046 491.19 391.68 494.685 390.037C506.038 384.555 515.175 374.939 522.824 364.995Z" fill="url(#paint3_linear)"/>
<path d="M302.113 367.658C290.415 345.314 283.822 320.6 272.158 298.239C271.172 296.354 270.116 294.175 270.86 292.169C271.515 290.83 272.566 289.725 273.871 289.004C280.652 284.363 287.997 280.603 295.728 277.814C308.715 319.161 334.278 355.432 368.859 381.58C373.532 385.039 378.948 389.777 377.841 395.519C377.215 397.845 375.992 399.967 374.293 401.676C369.863 406.725 362.179 415.355 354.963 415.303C348.041 415.303 339.129 409.32 333.678 405.532C320.059 395.986 309.728 382.22 302.113 367.658Z" fill="#817FBC"/>
<path d="M302.113 367.658C290.415 345.314 283.822 320.6 272.158 298.239C271.172 296.354 270.116 294.175 270.86 292.169C271.515 290.83 272.566 289.725 273.871 289.004C280.652 284.363 287.997 280.603 295.728 277.814C308.715 319.161 334.278 355.432 368.859 381.58C373.532 385.039 378.948 389.777 377.841 395.519C377.215 397.845 375.992 399.967 374.293 401.676C369.863 406.725 362.179 415.355 354.963 415.303C348.041 415.303 339.129 409.32 333.678 405.532C320.059 395.986 309.728 382.22 302.113 367.658Z" fill="url(#paint4_linear)"/>
<path d="M310.145 387.787C280.882 375.335 252.848 360.117 225.35 344.275C222.477 342.546 219.051 340.92 216.022 342.269C213.634 343.324 212.423 345.918 211.263 348.253C207.327 356.194 202.086 363.419 195.758 369.628C199.548 373.589 204.826 375.647 209.706 378.103C219.051 382.807 227.409 389.24 235.664 395.604C263.594 417.084 293.151 439.116 327.935 444.737C332.416 445.727 337.065 445.668 341.519 444.564C346.936 442.921 351.193 438.788 355.087 434.689C358.37 431.437 361.273 427.822 363.739 423.915C370.488 412.483 359.863 406.621 350.708 403.594C337.089 399.029 323.487 393.477 310.145 387.787Z" fill="#817FBC"/>
<path d="M310.145 387.787C280.882 375.335 252.848 360.117 225.35 344.275C222.477 342.546 219.051 340.92 216.022 342.269C213.634 343.324 212.423 345.918 211.263 348.253C207.327 356.194 202.086 363.419 195.758 369.628C199.548 373.589 204.826 375.647 209.706 378.103C219.051 382.807 227.409 389.24 235.664 395.604C263.594 417.084 293.151 439.116 327.935 444.737C332.416 445.727 337.065 445.668 341.519 444.564C346.936 442.921 351.193 438.788 355.087 434.689C358.37 431.437 361.273 427.822 363.739 423.915C370.488 412.483 359.863 406.621 350.708 403.594C337.089 399.029 323.487 393.477 310.145 387.787Z" fill="url(#paint5_linear)"/>
<path d="M556.17 412.017C564.373 410.79 572.455 408.835 580.64 407.434C588.825 406.034 596.959 405.134 605.04 403.491C615.778 401.051 626.349 397.932 636.691 394.153C652.525 388.739 668.533 383.24 682.515 374.057C685.215 380.801 687.707 387.667 689.766 394.602C690.363 395.981 690.443 397.528 689.991 398.96C689.508 399.818 688.825 400.548 688.001 401.087C683.052 404.927 678.085 408.766 672.911 412.277C657.336 422.947 639.841 430.643 622.432 438.08C612.01 442.847 601.216 446.757 590.158 449.771C573.649 453.835 556.447 454.025 539.454 454.198C537.112 454.366 534.76 454.073 532.531 453.333C530.35 452.279 528.438 450.741 526.942 448.837C522.553 444.152 519.318 438.509 517.493 432.355C516.445 428.456 516.362 424.361 517.251 420.422C518.618 414.819 519.951 414.335 525.333 414.214C535.648 414.136 545.948 413.403 556.17 412.017Z" fill="#817FBC"/>
<path d="M556.17 412.017C564.373 410.79 572.455 408.835 580.64 407.434C588.825 406.034 596.959 405.134 605.04 403.491C615.778 401.051 626.349 397.932 636.691 394.153C652.525 388.739 668.533 383.24 682.515 374.057C685.215 380.801 687.707 387.667 689.766 394.602C690.363 395.981 690.443 397.528 689.991 398.96C689.508 399.818 688.825 400.548 688.001 401.087C683.052 404.927 678.085 408.766 672.911 412.277C657.336 422.947 639.841 430.643 622.432 438.08C612.01 442.847 601.216 446.757 590.158 449.771C573.649 453.835 556.447 454.025 539.454 454.198C537.112 454.366 534.76 454.073 532.531 453.333C530.35 452.279 528.438 450.741 526.942 448.837C522.553 444.152 519.318 438.509 517.493 432.355C516.445 428.456 516.362 424.361 517.251 420.422C518.618 414.819 519.951 414.335 525.333 414.214C535.648 414.136 545.948 413.403 556.17 412.017Z" fill="url(#paint6_linear)"/>
<path d="M578.859 229.719C581.486 228.69 584.362 228.473 587.114 229.096C590.728 229.636 594.281 230.528 597.722 231.76C599.09 232.172 600.369 232.834 601.494 233.714C604.955 236.671 604.402 242.361 602.048 246.269C599.695 250.178 596.009 253.187 593.482 256.923C589.917 262.318 587.927 268.216 580.901 269.911C575.588 271.19 573.616 268.804 573.114 263.806C572.231 255.124 569.082 234.475 578.859 229.719Z" fill="url(#paint7_linear)"/>
<path d="M461.25 526.695C467.93 526.92 475.008 527.058 480.805 523.72C482.743 522.699 484.343 521.137 485.408 519.224C486.299 517.078 486.713 514.765 486.62 512.444L487.26 494.355C487.606 484.601 487.952 474.76 486.153 465.162C484.526 456.515 481.186 448.196 478.469 439.757C474.296 425.819 470.973 411.64 468.519 397.299C462.185 401.312 455.678 405.41 448.323 406.846C434.566 409.405 421.068 402.488 408.85 395.674L409.612 425.472C409.854 435.191 410.096 444.98 408.314 454.543C405.234 470.956 383.273 505.994 397.308 521.403C402.499 527.127 414.873 525.156 421.691 525.38L461.25 526.695Z" fill="white"/>
<path d="M414.595 380.611C413.674 381.433 412.828 382.336 412.068 383.309C410.667 385.574 411.549 388.601 413.02 390.849C417.333 396.153 423.055 400.133 429.529 402.333C432.122 402.924 434.778 403.197 437.438 403.145C441.885 403.232 446.61 403.145 450.399 400.845C452.862 399.118 454.932 396.89 456.473 394.308C458.608 391.327 460.288 388.046 461.457 384.571C461.543 384.307 461.543 384.023 461.457 383.759C461.302 383.343 460.817 383.205 460.419 383.032C458.377 382.185 457.616 379.746 457.079 377.602L455.141 369.629C455.073 369.272 454.925 368.935 454.708 368.643C454.293 368.277 453.756 368.08 453.203 368.09C446.304 367.388 439.368 367.134 432.437 367.329C428.854 367.433 425.29 367.675 421.725 368.004C418.679 368.263 418.264 368.903 417.796 371.947C417.329 374.99 416.758 378.276 414.595 380.611Z" fill="url(#paint8_linear)"/>
<path d="M410.339 353.131C410.438 358.116 411.434 363.043 413.281 367.675C415.659 372.441 419.497 376.325 424.235 378.761C428.967 381.167 434.146 382.569 439.447 382.877C443.577 383.398 447.77 382.763 451.56 381.044C453.905 379.669 456.028 377.949 457.859 375.942C460.041 373.908 461.928 371.579 463.466 369.024C464.765 366.477 465.691 363.757 466.218 360.948C469.161 347.782 469.955 334.227 468.571 320.808C468.422 318.087 467.765 315.418 466.633 312.939C464.768 309.942 462.247 307.405 459.261 305.52C453.914 301.577 448.22 297.564 441.644 296.596C435.988 296.026 430.282 297 425.135 299.415C421.128 300.936 417.467 303.248 414.371 306.212C408.851 311.815 408.713 318.975 408.92 326.342C409.111 335.335 409.647 344.242 410.339 353.131Z" fill="url(#paint9_linear)"/>
<path d="M473.78 336.078C474.358 335.927 474.967 335.948 475.533 336.139C476.098 336.329 476.596 336.681 476.964 337.15C477.27 337.81 477.417 338.532 477.393 339.259C477.369 339.986 477.175 340.697 476.826 341.335C475.217 345.486 472.655 349.654 468.502 351.279C468.342 351.359 468.161 351.389 467.983 351.366C467.84 351.299 467.715 351.198 467.62 351.072C465.699 348.685 467.62 344.898 468.295 342.425C468.97 339.952 470.908 336.77 473.78 336.078Z" fill="url(#paint10_linear)"/>
<path d="M407.468 337.98C406.775 337.301 405.951 336.771 405.045 336.423C404.591 336.254 404.105 336.19 403.622 336.235C403.14 336.279 402.674 336.433 402.259 336.683C401.831 337.028 401.492 337.47 401.269 337.972C401.047 338.474 400.947 339.022 400.978 339.571C401.081 340.669 401.361 341.744 401.809 342.753L403.418 346.921C403.644 347.608 403.964 348.26 404.37 348.858C404.819 349.425 405.356 349.915 405.962 350.311C406.657 350.854 407.459 351.243 408.316 351.452C408.745 351.549 409.193 351.53 409.613 351.396C410.033 351.262 410.41 351.019 410.704 350.691C411.033 350.214 411.23 349.66 411.275 349.083C411.674 347.061 411.532 344.97 410.864 343.02C410.195 341.071 409.024 339.332 407.468 337.98Z" fill="url(#paint11_linear)"/>
<path d="M409.995 341.422C409.393 333.009 410.476 324.561 413.179 316.57C413.528 315.159 414.279 313.879 415.342 312.887C417.505 311.157 421.278 311.745 422.489 309.289C422.87 308.528 423.095 307.404 423.943 307.335C424.404 307.368 424.836 307.571 425.154 307.906C429.809 311.59 436.178 312.005 442.113 312.022C448.049 312.039 454.313 311.935 459.418 314.893C460.47 315.439 461.382 316.22 462.083 317.176C463.364 319.113 463.156 321.637 463.053 323.955C462.733 331.422 463.91 338.878 466.514 345.884L473.764 336.182C475.282 334.332 476.551 332.291 477.537 330.112C478.315 328.021 478.703 325.805 478.679 323.574C478.769 321.124 478.37 318.68 477.505 316.385C476.641 314.089 475.328 311.989 473.643 310.206C472.959 309.638 472.374 308.96 471.913 308.2C471.547 307.276 471.376 306.287 471.411 305.294C470.802 299.389 468.196 293.868 464.022 289.643C461.263 286.368 457.589 283.99 453.471 282.813C449.352 281.636 444.976 281.714 440.902 283.037C435.901 284.464 431.064 286.411 426.469 288.848C425.465 289.385 424.386 289.77 423.268 289.989C422.005 290.063 420.738 289.982 419.495 289.747C415.856 289.447 412.216 290.329 409.117 292.26C406.019 294.192 403.626 297.071 402.294 300.469C399.993 306.799 401.74 313.769 402.294 320.479C402.525 324.23 403.034 327.958 403.817 331.634C404.281 333.585 405.046 335.452 406.084 337.168C406.707 338.032 409.943 340.748 409.995 341.422Z" fill="#606161"/>
<path d="M359.618 396.678C349.615 402.489 342.659 412.243 335.667 421.461C320.365 441.691 303.591 460.766 285.482 478.532C283.025 480.953 280.291 483.72 280.152 487.179C280.147 488.914 280.494 490.632 281.173 492.229C284.672 501.98 290.065 510.943 297.042 518.602C297.607 519.359 298.403 519.911 299.309 520.176C300.458 520.198 301.57 519.77 302.407 518.983C320.005 506.03 336.203 491.279 350.74 474.969C351.708 490.191 351.052 505.473 348.785 520.557C348.668 520.975 348.636 521.411 348.69 521.842C348.743 522.272 348.881 522.688 349.096 523.064C349.429 523.357 349.82 523.578 350.243 523.712C350.666 523.846 351.112 523.89 351.554 523.843L400.925 525.209C402.517 518.81 402.863 512.186 404.23 505.736C405.667 498.974 408.211 492.506 410.045 485.847C418.421 455.271 411.308 422.914 410.703 391.213C410.708 387.821 411.091 384.439 411.845 381.131C408.972 380.249 404.282 383.656 401.462 384.59C396.828 386.106 392.099 387.314 387.306 388.204C377.857 390.176 368.08 391.767 359.618 396.678Z" fill="#817FBC"/>
<path d="M359.618 396.678C349.615 402.489 342.659 412.243 335.667 421.461C320.365 441.691 303.591 460.766 285.482 478.532C283.025 480.953 280.291 483.72 280.152 487.179C280.147 488.914 280.494 490.632 281.173 492.229C284.672 501.98 290.065 510.943 297.042 518.602C297.607 519.359 298.403 519.911 299.309 520.176C300.458 520.198 301.57 519.77 302.407 518.983C320.005 506.03 336.203 491.279 350.74 474.969C351.708 490.191 351.052 505.473 348.785 520.557C348.668 520.975 348.636 521.411 348.69 521.842C348.743 522.272 348.881 522.688 349.096 523.064C349.429 523.357 349.82 523.578 350.243 523.712C350.666 523.846 351.112 523.89 351.554 523.843L400.925 525.209C402.517 518.81 402.863 512.186 404.23 505.736C405.667 498.974 408.211 492.506 410.045 485.847C418.421 455.271 411.308 422.914 410.703 391.213C410.708 387.821 411.091 384.439 411.845 381.131C408.972 380.249 404.282 383.656 401.462 384.59C396.828 386.106 392.099 387.314 387.306 388.204C377.857 390.176 368.08 391.767 359.618 396.678Z" fill="url(#paint12_linear)"/>
<path d="M511.438 394.498C513.688 394.753 515.877 395.39 517.91 396.383C519.906 397.686 521.633 399.359 522.998 401.312C536.219 418.07 546.602 436.835 558.439 454.596C570.276 472.357 583.947 489.426 601.91 500.944C603.208 501.792 604.679 502.829 604.73 504.403C604.626 505.531 604.123 506.586 603.311 507.378L581.663 533.665C581.462 534.043 581.173 534.367 580.822 534.612C580.471 534.856 580.066 535.014 579.642 535.071C579.217 535.129 578.785 535.084 578.382 534.942C577.978 534.8 577.614 534.564 577.319 534.253C557.799 522.631 540.978 507.118 524.192 491.726L526.857 517.944C527.291 519.994 527.029 522.13 526.113 524.015C524.383 526.643 520.8 526.937 517.685 526.955L478.974 527.128C478.257 527.353 477.491 527.376 476.762 527.193C476.033 527.01 475.368 526.628 474.843 526.091C474.318 525.553 473.952 524.881 473.786 524.148C473.62 523.415 473.661 522.65 473.903 521.939C474.907 506.674 475.311 491.38 475.115 476.058C475.172 463.857 474.246 451.671 472.346 439.619C470.702 430.263 468.141 421.097 466.445 411.758C465.167 404.507 464.278 397.192 463.78 389.846C463.07 380.386 465.112 381.337 472.865 384.485C485.256 389.535 498.373 392.233 511.438 394.498Z" fill="#817FBC"/>
<path d="M511.438 394.498C513.688 394.753 515.877 395.39 517.91 396.383C519.906 397.686 521.633 399.359 522.998 401.312C536.219 418.07 546.602 436.835 558.439 454.596C570.276 472.357 583.947 489.426 601.91 500.944C603.208 501.792 604.679 502.829 604.73 504.403C604.626 505.531 604.123 506.586 603.311 507.378L581.663 533.665C581.462 534.043 581.173 534.367 580.822 534.612C580.471 534.856 580.066 535.014 579.642 535.071C579.217 535.129 578.785 535.084 578.382 534.942C577.978 534.8 577.614 534.564 577.319 534.253C557.799 522.631 540.978 507.118 524.192 491.726L526.857 517.944C527.291 519.994 527.029 522.13 526.113 524.015C524.383 526.643 520.8 526.937 517.685 526.955L478.974 527.128C478.257 527.353 477.491 527.376 476.762 527.193C476.033 527.01 475.368 526.628 474.843 526.091C474.318 525.553 473.952 524.881 473.786 524.148C473.62 523.415 473.661 522.65 473.903 521.939C474.907 506.674 475.311 491.38 475.115 476.058C475.172 463.857 474.246 451.671 472.346 439.619C470.702 430.263 468.141 421.097 466.445 411.758C465.167 404.507 464.278 397.192 463.78 389.846C463.07 380.386 465.112 381.337 472.865 384.485C485.256 389.535 498.373 392.233 511.438 394.498Z" fill="url(#paint13_linear)"/>
<path d="M429.915 406.552C425.644 411.215 422.537 416.821 420.848 422.912C415.69 412.955 411.973 402.317 409.807 391.316C409.443 389.586 407.626 381.251 411.399 383.534C413.129 384.588 414.67 390.538 415.967 392.388C417.058 393.945 426.801 400.101 431.404 402.056C432.355 402.488 430.608 405.791 429.915 406.552Z" fill="white"/>
<path d="M442.182 402.955C435.849 400.326 424.877 402.176 427.161 410.235C427.957 413.037 431.003 414.645 432.111 417.343C433.98 421.874 429.705 426.336 427.231 430.573C424.548 435.174 423.873 440.639 423.268 445.931L414.113 525.138C422.077 526.781 430.224 527.362 438.341 526.868C439.052 526.91 439.757 526.702 440.331 526.28C440.597 525.953 440.795 525.577 440.914 525.173C441.033 524.769 441.07 524.346 441.023 523.928C441.334 500.373 438.375 476.714 441.248 453.333C442.511 443.112 444.813 432.424 441.127 422.826C440.434 420.992 439.5 419.004 440.175 417.17C440.85 415.337 442.494 414.559 443.636 413.262C448.412 408.281 446.301 404.667 442.182 402.955Z" fill="url(#paint14_linear)"/>
<path d="M442.959 402.315C442.111 402.73 441.108 403.37 441.229 404.304C441.325 404.725 441.541 405.11 441.852 405.411C445.486 409.527 449.183 413.562 452.944 417.517C453.265 417.947 453.733 418.243 454.26 418.347C454.729 418.333 455.18 418.163 455.54 417.863C458.733 415.386 461.055 411.957 462.168 408.074C463.263 404.219 463.954 400.26 464.227 396.262C464.487 393.599 465.387 388.22 463.241 386.041C460.611 383.361 458.932 388.013 457.565 389.881C453.756 395.128 448.749 399.391 442.959 402.315Z" fill="white"/>
<path d="M601.268 556.131L571.624 549.49C570.628 549.294 569.691 548.871 568.886 548.253C568.082 547.635 567.431 546.839 566.985 545.928C566.539 545.017 566.31 544.015 566.317 543.001C566.323 541.986 566.564 540.987 567.021 540.082L594.83 475.349C595.77 473.274 597.378 471.573 599.398 470.517C601.418 469.46 603.733 469.11 605.975 469.521L635.619 476.214C636.616 476.406 637.556 476.828 638.363 477.445C639.17 478.062 639.822 478.858 640.268 479.771C640.715 480.683 640.943 481.686 640.935 482.702C640.927 483.717 640.683 484.717 640.222 485.622L612.412 550.354C611.464 552.42 609.852 554.11 607.834 555.157C605.815 556.203 603.504 556.546 601.268 556.131Z" fill="#817FBC"/>
<path d="M601.268 556.131L571.624 549.49C570.628 549.294 569.691 548.871 568.886 548.253C568.082 547.635 567.431 546.839 566.985 545.928C566.539 545.017 566.31 544.015 566.317 543.001C566.323 541.986 566.564 540.987 567.021 540.082L594.83 475.349C595.77 473.274 597.378 471.573 599.398 470.517C601.418 469.46 603.733 469.11 605.975 469.521L635.619 476.214C636.616 476.406 637.556 476.828 638.363 477.445C639.17 478.062 639.822 478.858 640.268 479.771C640.715 480.683 640.943 481.686 640.935 482.702C640.927 483.717 640.683 484.717 640.222 485.622L612.412 550.354C611.464 552.42 609.852 554.11 607.834 555.157C605.815 556.203 603.504 556.546 601.268 556.131Z" fill="#EB7DB1"/>
<path d="M604.385 558.464L574.741 551.771C573.745 551.575 572.808 551.152 572.004 550.534C571.199 549.916 570.548 549.12 570.102 548.209C569.656 547.298 569.427 546.296 569.434 545.282C569.44 544.267 569.681 543.268 570.138 542.363L597.948 477.631C598.888 475.555 600.496 473.854 602.515 472.798C604.535 471.742 606.85 471.391 609.092 471.802L638.771 478.582C639.768 478.774 640.708 479.196 641.515 479.813C642.321 480.43 642.974 481.226 643.42 482.138C643.867 483.051 644.095 484.054 644.087 485.07C644.079 486.085 643.835 487.085 643.374 487.99L615.564 552.722C614.609 554.788 612.989 556.475 610.964 557.516C608.938 558.556 606.622 558.89 604.385 558.464Z" fill="#817FBC"/>
<path d="M604.385 558.464L574.741 551.771C573.745 551.575 572.808 551.152 572.004 550.534C571.199 549.916 570.548 549.12 570.102 548.209C569.656 547.298 569.427 546.296 569.434 545.282C569.44 544.267 569.681 543.268 570.138 542.363L597.948 477.631C598.888 475.555 600.496 473.854 602.515 472.798C604.535 471.742 606.85 471.391 609.092 471.802L638.771 478.582C639.768 478.774 640.708 479.196 641.515 479.813C642.321 480.43 642.974 481.226 643.42 482.138C643.867 483.051 644.095 484.054 644.087 485.07C644.079 486.085 643.835 487.085 643.374 487.99L615.564 552.722C614.609 554.788 612.989 556.475 610.964 557.516C608.938 558.556 606.622 558.89 604.385 558.464Z" fill="#3D467F"/>
<path d="M627.173 527.006C626.401 527.48 625.754 528.133 625.287 528.909C625.072 529.832 625.014 530.785 625.114 531.728C625.01 533.924 623.384 535.74 622.743 537.85C622.397 539.008 622.363 540.219 622.12 541.412C621.584 543.423 620.581 545.28 619.191 546.83C617.802 548.381 616.066 549.582 614.125 550.336C610.232 551.826 606.094 552.577 601.925 552.55C598.424 552.796 594.907 552.651 591.438 552.117C590.683 552.065 589.946 551.859 589.273 551.511C588.6 551.163 588.006 550.681 587.527 550.094C587.118 549.202 587.034 548.194 587.29 547.247C587.546 546.299 588.126 545.471 588.929 544.906C590.609 543.825 592.528 543.172 594.519 543.003C592.252 542.744 591.058 539.804 591.923 537.711C592.443 536.703 593.196 535.833 594.12 535.175C595.044 534.516 596.112 534.087 597.236 533.924C597.026 531.98 597.574 530.031 598.767 528.481C599.96 526.931 601.705 525.901 603.638 525.605C604.471 525.594 605.299 525.466 606.096 525.225C607.075 524.625 607.946 523.865 608.674 522.977C610.413 521.651 612.499 520.858 614.679 520.694C618.607 520.089 624.041 518.878 627.987 519.743C631.707 520.504 629.285 525.277 627.173 527.006Z" fill="url(#paint15_linear)"/>
<path d="M618.192 512.565C616.462 512.844 614.775 513.344 613.173 514.052C612.383 514.422 611.745 515.051 611.363 515.835C610.982 516.619 610.882 517.51 611.079 518.358C611.361 518.967 611.761 519.514 612.256 519.967C612.865 520.819 613.712 521.472 614.691 521.845C615.67 522.217 616.737 522.292 617.759 522.059C620.562 521.817 623.366 521.506 626.152 521.126C627.781 521.063 629.342 520.454 630.582 519.396C631.375 518.391 631.899 517.201 632.105 515.937C635.081 504.523 623.781 511.112 618.192 512.565Z" fill="url(#paint16_linear)"/>
<path d="M187.52 327.846C186.964 327.462 186.289 327.29 185.617 327.362C184.578 327.586 184.111 328.866 184.215 329.921C184.319 330.976 184.751 332.014 184.734 333.086C184.734 335.922 181.602 337.652 178.868 338.378C172.517 340.107 165.854 339.727 159.313 340.107C152.771 340.488 145.901 341.699 140.883 345.918C145.607 354.168 156.267 356.71 165.768 357.056C175.268 357.402 185.288 356.451 193.785 360.74C195.195 361.577 196.699 362.245 198.267 362.728C199.955 362.976 201.679 362.772 203.263 362.137C204.846 361.502 206.234 360.459 207.283 359.114C213.08 352.421 210 348.288 205.05 342.304C200.177 336.417 194.228 331.511 187.52 327.846Z" fill="url(#paint17_linear)"/>
<path d="M183.799 340.609C184.006 342.926 181.86 344.69 179.922 345.97C176.848 348.18 173.401 349.82 169.747 350.813C165.869 351.47 161.909 351.47 158.031 350.813C155.36 350.594 152.724 350.066 150.175 349.239C147.605 348.379 145.427 346.631 144.031 344.31C144.672 345.503 164.382 341.543 166.528 341.128C170.274 340.447 173.968 339.511 177.586 338.326C181.307 336.995 183.366 335.68 183.799 340.609Z" fill="url(#paint18_linear)"/>
<path d="M691.533 365.203C693.524 359.824 694.77 353.927 698.611 349.638C701.726 346.179 706.156 344.294 710.431 342.496C711.788 343.854 712.593 345.667 712.689 347.584C712.784 349.501 712.165 351.385 710.95 352.872C716.025 351.645 720.431 348.511 723.254 344.121C724.984 341.268 726.715 337.549 730.055 337.117C733.135 336.737 735.662 339.521 737.184 342.219C742.376 351.333 742.826 363.75 736.025 371.74C732.449 375.446 728.157 378.388 723.41 380.387C717.18 383.5 710.834 386.382 704.374 389.034C699.061 391.196 693.454 393.237 687.726 392.822C686.695 392.834 685.687 392.513 684.854 391.905C684.322 391.382 683.908 390.751 683.642 390.055C681.791 385.904 679.679 380.162 682.604 376.531C685.961 372.501 689.474 370.72 691.533 365.203Z" fill="url(#paint19_linear)"/>
<path d="M697.156 330.44L718.58 374.419C718.58 374.419 731.04 372.862 734.155 366.636L723.564 319.146C723.564 319.146 699.873 322.259 697.156 330.44Z" fill="#817FBC"/>
<path d="M697.156 330.44L718.58 374.419C718.58 374.419 731.04 372.862 734.155 366.636L723.564 319.146C723.564 319.146 699.873 322.259 697.156 330.44Z" fill="url(#paint20_linear)"/>
<path d="M694.717 323.921C694.717 323.921 701.345 314.669 717.405 313.891L722.596 316.813L723.565 319.148L723.963 320.705C723.963 320.705 706.035 321.293 696.5 332.378C696.5 332.378 693.87 332.672 694.268 331.219C694.666 329.767 695.133 328.297 695.133 328.297L694.717 323.921Z" fill="white"/>
<path d="M155.973 347.58C171.57 347.58 184.215 336.949 184.215 323.835C184.215 310.721 171.57 300.09 155.973 300.09C140.375 300.09 127.73 310.721 127.73 323.835C127.73 336.949 140.375 347.58 155.973 347.58Z" fill="#817FBC"/>
<path d="M155.973 347.58C171.57 347.58 184.215 336.949 184.215 323.835C184.215 310.721 171.57 300.09 155.973 300.09C140.375 300.09 127.73 310.721 127.73 323.835C127.73 336.949 140.375 347.58 155.973 347.58Z" fill="url(#paint21_linear)"/>
<path d="M130.205 318.82C134.324 318.82 137.663 315.483 137.663 311.366C137.663 307.249 134.324 303.912 130.205 303.912C126.085 303.912 122.746 307.249 122.746 311.366C122.746 315.483 126.085 318.82 130.205 318.82Z" fill="#817FBC"/>
<path d="M150.193 318.56C154.312 318.56 157.651 315.223 157.651 311.106C157.651 306.99 154.312 303.652 150.193 303.652C146.074 303.652 142.734 306.99 142.734 311.106C142.734 315.223 146.074 318.56 150.193 318.56Z" fill="#817FBC"/>
<path d="M129.909 318.542C133.503 318.542 136.416 315.631 136.416 312.04C136.416 308.448 133.503 305.537 129.909 305.537C126.316 305.537 123.402 308.448 123.402 312.04C123.402 315.631 126.316 318.542 129.909 318.542Z" fill="url(#paint22_linear)"/>
<path d="M150.054 318.126C153.647 318.126 156.56 315.215 156.56 311.624C156.56 308.032 153.647 305.121 150.054 305.121C146.46 305.121 143.547 308.032 143.547 311.624C143.547 315.215 146.46 318.126 150.054 318.126Z" fill="url(#paint23_linear)"/>
<path d="M140.641 342.634C150.351 342.634 158.223 334.767 158.223 325.063C158.223 315.359 150.351 307.492 140.641 307.492C130.93 307.492 123.059 315.359 123.059 325.063C123.059 334.767 130.93 342.634 140.641 342.634Z" fill="#817FBC"/>
<path d="M140.641 342.634C150.351 342.634 158.223 334.767 158.223 325.063C158.223 315.359 150.351 307.492 140.641 307.492C130.93 307.492 123.059 315.359 123.059 325.063C123.059 334.767 130.93 342.634 140.641 342.634Z" fill="url(#paint24_linear)"/>
<path d="M130.879 335.04C135.305 335.04 138.892 331.912 138.892 328.053C138.892 324.195 135.305 321.066 130.879 321.066C126.454 321.066 122.867 324.195 122.867 328.053C122.867 331.912 126.454 335.04 130.879 335.04Z" fill="url(#paint25_linear)"/>
<path d="M128.544 335.04C132.969 335.04 136.556 331.912 136.556 328.053C136.556 324.195 132.969 321.066 128.544 321.066C124.118 321.066 120.531 324.195 120.531 328.053C120.531 331.912 124.118 335.04 128.544 335.04Z" fill="#817FBC"/>
<path d="M128.544 335.04C132.969 335.04 136.556 331.912 136.556 328.053C136.556 324.195 132.969 321.066 128.544 321.066C124.118 321.066 120.531 324.195 120.531 328.053C120.531 331.912 124.118 335.04 128.544 335.04Z" fill="url(#paint26_linear)"/>
<path d="M291.038 262.665C290.995 260.52 290.591 258.398 289.844 256.387C288.512 253.343 285.708 251.199 283.026 249.297C281.374 247.836 279.315 246.913 277.125 246.651C276.575 246.618 276.031 246.777 275.585 247.1C274.72 247.809 274.927 249.193 275.412 250.196C276.055 251.116 276.465 252.178 276.606 253.292C274.328 254.066 271.919 254.381 269.519 254.217C267.119 254.054 264.775 253.416 262.623 252.34C260.287 251.147 257.882 249.4 255.32 249.919C254.3 250.202 253.378 250.763 252.657 251.538C251.936 252.314 251.444 253.274 251.236 254.312C250.852 256.402 251.055 258.557 251.825 260.538C253.47 265.515 256.628 269.856 260.858 272.955C266.05 276.794 272.868 278.61 277.229 283.435C277.862 284.283 278.648 285.005 279.548 285.563C280.427 285.931 281.388 286.063 282.334 285.943C285.795 285.666 291.246 283.487 292.267 279.838C292.89 277.676 291.852 273.941 291.696 271.675L291.038 262.665Z" fill="url(#paint27_linear)"/>
<path d="M274.067 227.515L242.144 221.614C238.479 220.936 234.958 223.356 234.28 227.019L226.748 267.714C226.07 271.377 228.491 274.895 232.157 275.573L264.08 281.474C267.745 282.152 271.266 279.731 271.944 276.069L279.476 235.374C280.154 231.711 277.732 228.192 274.067 227.515Z" fill="#817FBC"/>
<path d="M274.067 227.515L242.144 221.614C238.479 220.936 234.958 223.356 234.28 227.019L226.748 267.714C226.07 271.377 228.491 274.895 232.157 275.573L264.08 281.474C267.745 282.152 271.266 279.731 271.944 276.069L279.476 235.374C280.154 231.711 277.732 228.192 274.067 227.515Z" fill="url(#paint28_linear)"/>
<path d="M272.13 226.05L240.207 220.149C236.542 219.471 233.021 221.891 232.343 225.554L224.81 266.249C224.132 269.912 226.554 273.43 230.219 274.108L262.142 280.009C265.807 280.687 269.328 278.267 270.006 274.604L277.539 233.909C278.217 230.246 275.795 226.728 272.13 226.05Z" fill="#817FBC"/>
<path d="M272.071 225.917L240.148 220.016C236.483 219.338 232.962 221.758 232.284 225.421L224.752 266.116C224.074 269.779 226.495 273.297 230.161 273.975L262.084 279.876C265.749 280.554 269.27 278.134 269.948 274.471L277.48 233.776C278.158 230.113 275.736 226.595 272.071 225.917Z" fill="url(#paint29_linear)"/>
<path d="M274.253 230.814L236.059 224.303L234.225 235.043L272.42 241.554L274.253 230.814Z" fill="#EDF4FB"/>
<path d="M241.336 241.845L232.773 240.379L231.795 246.089L240.357 247.555L241.336 241.845Z" fill="#EDF4FB"/>
<path d="M251.187 243.554L242.625 242.088L241.646 247.798L250.209 249.264L251.187 243.554Z" fill="#EDF4FB"/>
<path d="M261.043 245.226L252.48 243.76L251.502 249.47L260.064 250.936L261.043 245.226Z" fill="#EDF4FB"/>
<path d="M270.844 246.905L262.281 245.439L261.302 251.15L269.865 252.616L270.844 246.905Z" fill="#EDF4FB"/>
<path d="M240.199 248.577L231.637 247.111L230.658 252.822L239.22 254.287L240.199 248.577Z" fill="#EDF4FB"/>
<path d="M250.035 250.282L241.473 248.816L240.494 254.527L249.056 255.993L250.035 250.282Z" fill="#EDF4FB"/>
<path d="M260.784 253.56L252.184 252.084L251.198 257.82L259.798 259.296L260.784 253.56Z" fill="#EDF4FB"/>
<path d="M269.676 253.636L261.113 252.17L260.135 257.88L268.697 259.346L269.676 253.636Z" fill="#EDF4FB"/>
<path d="M239.027 255.306L230.465 253.84L229.486 259.55L238.049 261.016L239.027 255.306Z" fill="#EDF4FB"/>
<path d="M248.895 256.997L240.332 255.531L239.353 261.242L247.916 262.707L248.895 256.997Z" fill="#EDF4FB"/>
<path d="M258.734 258.686L250.172 257.221L249.193 262.931L257.756 264.397L258.734 258.686Z" fill="#EDF4FB"/>
<path d="M268.539 260.368L259.977 258.902L258.998 264.613L267.56 266.079L268.539 260.368Z" fill="#EDF4FB"/>
<path d="M237.891 262.038L229.328 260.572L228.349 266.283L236.912 267.748L237.891 262.038Z" fill="#EDF4FB"/>
<path d="M247.746 263.71L239.184 262.244L238.205 267.955L246.767 269.42L247.746 263.71Z" fill="#EDF4FB"/>
<path d="M257.598 265.401L249.035 263.936L248.056 269.646L256.619 271.112L257.598 265.401Z" fill="#EDF4FB"/>
<path d="M267.383 267.079L258.82 265.613L257.842 271.324L266.404 272.789L267.383 267.079Z" fill="#EDF4FB"/>
<path d="M557.331 240.788C557.331 240.788 584.847 225.742 590.557 237.675L592.132 243.642L598.102 244.161C598.102 244.161 618.609 228.336 644.826 233.525L633.664 203.934C633.664 203.934 604.921 204.055 598.691 206.909L597.445 206.304C586.266 200.804 575.173 199.386 563.959 204.747L549.544 211.665L548.246 244.627L557.331 240.788Z" fill="#817FBC"/>
<path d="M557.331 240.788C557.331 240.788 584.847 225.742 590.557 237.675L592.132 243.642L598.102 244.161C598.102 244.161 618.609 228.336 644.826 233.525L633.664 203.934C633.664 203.934 604.921 204.055 598.691 206.909L597.445 206.304C586.266 200.804 575.173 199.386 563.959 204.747L549.544 211.665L548.246 244.627L557.331 240.788Z" fill="url(#paint30_linear)"/>
<path d="M557.849 233.782C557.849 233.782 585.364 218.719 591.075 230.669L592.65 236.636L598.62 237.155C598.62 237.155 619.127 221.313 645.344 226.519L634.182 196.928C634.182 196.928 605.438 197.049 599.209 199.903L597.963 199.298C586.783 193.798 575.691 192.38 564.477 197.741L550.062 204.659L548.781 237.674L557.849 233.782Z" fill="#FDECF4"/>
<path d="M124.719 329.473C125.474 329.473 126.086 328.861 126.086 328.107C126.086 327.352 125.474 326.74 124.719 326.74C123.964 326.74 123.352 327.352 123.352 328.107C123.352 328.861 123.964 329.473 124.719 329.473Z" fill="url(#paint31_linear)"/>
<path d="M130.066 329.473C130.821 329.473 131.433 328.861 131.433 328.107C131.433 327.352 130.821 326.74 130.066 326.74C129.311 326.74 128.699 327.352 128.699 328.107C128.699 328.861 129.311 329.473 130.066 329.473Z" fill="url(#paint32_linear)"/>
<path d="M156.49 304.014C158.517 302.98 160.735 302.373 163.006 302.231C165.277 302.088 167.554 302.412 169.694 303.184C169.694 303.184 167.064 302.095 165.697 301.593C163.008 300.873 160.17 300.927 157.511 301.749C153.375 303.132 153.496 303.478 153.496 303.478L156.49 304.014Z" fill="url(#paint33_linear)"/>
<path d="M305.212 556.58H154.069C153.219 556.573 152.383 556.365 151.63 555.972C150.877 555.58 150.228 555.014 149.736 554.322C149.244 553.629 148.924 552.83 148.802 551.99C148.68 551.15 148.759 550.293 149.033 549.489L156.474 527.543L350.292 520.141C353.199 520.141 354.065 533.457 351.434 534.72L305.212 556.58Z" fill="url(#paint34_linear)"/>
<path d="M305.212 547.24H146.559L156.423 518.168L350.24 520.122C350.846 520.149 351.425 520.376 351.888 520.765C352.352 521.155 352.673 521.687 352.804 522.278C352.934 522.87 352.865 523.487 352.608 524.035C352.351 524.584 351.92 525.032 351.383 525.31L305.212 547.24Z" fill="#3D467F"/>
<path d="M303.393 544.128L335.321 530.379L291.176 529.342L303.393 544.128Z" fill="url(#paint35_linear)"/>
<path d="M294.102 547.24H151.351C149.143 547.242 147.007 546.455 145.329 545.022C143.65 543.588 142.539 541.603 142.197 539.423L125.913 436.211C125.705 434.888 125.787 433.535 126.153 432.247C126.518 430.958 127.159 429.764 128.031 428.747C128.902 427.729 129.984 426.913 131.202 426.353C132.42 425.794 133.744 425.505 135.084 425.506H277.835C280.044 425.508 282.18 426.298 283.859 427.735C285.537 429.171 286.647 431.159 286.989 433.34L303.256 536.535C303.463 537.857 303.382 539.207 303.017 540.495C302.653 541.782 302.014 542.975 301.144 543.992C300.274 545.01 299.194 545.826 297.979 546.387C296.763 546.948 295.44 547.239 294.102 547.24Z" fill="#817FBC"/>
<path d="M294.395 550.735H147.076C145.404 550.753 143.782 550.166 142.51 549.082C141.237 547.998 140.401 546.49 140.154 544.837L123.16 437.077C122.99 436.077 123.042 435.051 123.313 434.073C123.584 433.095 124.067 432.188 124.727 431.418C125.388 430.647 126.21 430.031 127.136 429.613C128.061 429.195 129.067 428.986 130.082 429.001H277.436C279.108 428.982 280.73 429.57 282.002 430.654C283.275 431.738 284.112 433.245 284.358 434.898L301.352 542.641C301.525 543.646 301.475 544.676 301.203 545.659C300.932 546.642 300.446 547.552 299.782 548.326C299.117 549.099 298.289 549.716 297.358 550.133C296.427 550.549 295.415 550.755 294.395 550.735Z" fill="#3D467F"/>
<defs>
<linearGradient id="paint0_linear" x1="203.684" y1="549.376" x2="281.861" y2="344.417" gradientUnits="userSpaceOnUse">
<stop stop-color="#FDD4C1"/>
<stop offset="1" stop-color="#FB9CCB" stop-opacity="0.7"/>
</linearGradient>
<linearGradient id="paint1_linear" x1="462.275" y1="504.557" x2="456.053" y2="778.567" gradientUnits="userSpaceOnUse">
<stop stop-color="#010101" stop-opacity="0"/>
<stop offset="0.95" stop-color="#010101"/>
</linearGradient>
<linearGradient id="paint2_linear" x1="200798" y1="11080.9" x2="200796" y2="15155.5" gradientUnits="userSpaceOnUse">
<stop stop-color="#010101" stop-opacity="0"/>
<stop offset="0.95" stop-color="#010101"/>
</linearGradient>
<linearGradient id="paint3_linear" x1="39322.4" y1="33674.9" x2="42638.6" y2="48107.8" gradientUnits="userSpaceOnUse">
<stop stop-color="#010101" stop-opacity="0"/>
<stop offset="0.95" stop-color="#010101"/>
</linearGradient>
<linearGradient id="paint4_linear" x1="21247.8" y1="27315.1" x2="23749.9" y2="40437.8" gradientUnits="userSpaceOnUse">
<stop stop-color="#010101" stop-opacity="0"/>
<stop offset="0.95" stop-color="#010101"/>
</linearGradient>
<linearGradient id="paint5_linear" x1="27313.6" y1="25286.6" x2="38757.8" y2="37888.3" gradientUnits="userSpaceOnUse">
<stop stop-color="#010101" stop-opacity="0"/>
<stop offset="0.95" stop-color="#010101"/>
</linearGradient>
<linearGradient id="paint6_linear" x1="63594.8" y1="20624.6" x2="62762.1" y2="26599.6" gradientUnits="userSpaceOnUse">
<stop stop-color="#010101" stop-opacity="0"/>
<stop offset="0.95" stop-color="#010101"/>
</linearGradient>
<linearGradient id="paint7_linear" x1="571.92" y1="249.521" x2="603.952" y2="249.521" gradientUnits="userSpaceOnUse">
<stop stop-color="#E4C5D5"/>
<stop offset="0.42" stop-color="#E9D3CF"/>
<stop offset="1" stop-color="#EFE8CA"/>
</linearGradient>
<linearGradient id="paint8_linear" x1="13709.4" y1="8863.78" x2="13657" y2="9586.45" gradientUnits="userSpaceOnUse">
<stop stop-color="#E4C5D5"/>
<stop offset="0.42" stop-color="#E9D3CF"/>
<stop offset="1" stop-color="#EFE8CA"/>
</linearGradient>
<linearGradient id="paint9_linear" x1="16299.8" y1="18006" x2="17006.4" y2="20943" gradientUnits="userSpaceOnUse">
<stop stop-color="#E4C5D5"/>
<stop offset="0.42" stop-color="#E9D3CF"/>
<stop offset="1" stop-color="#EFE8CA"/>
</linearGradient>
<linearGradient id="paint10_linear" x1="3492.52" y1="3686.91" x2="3462.76" y2="3871.47" gradientUnits="userSpaceOnUse">
<stop stop-color="#E4C5D5"/>
<stop offset="0.42" stop-color="#E9D3CF"/>
<stop offset="1" stop-color="#EFE8CA"/>
</linearGradient>
<linearGradient id="paint11_linear" x1="2979.86" y1="3625.26" x2="3051.5" y2="3856.14" gradientUnits="userSpaceOnUse">
<stop stop-color="#E4C5D5"/>
<stop offset="0.42" stop-color="#E9D3CF"/>
<stop offset="1" stop-color="#EFE8CA"/>
</linearGradient>
<linearGradient id="paint12_linear" x1="29671.4" y1="38096.6" x2="26981.6" y2="51788" gradientUnits="userSpaceOnUse">
<stop stop-color="#010101" stop-opacity="0"/>
<stop offset="0.95" stop-color="#010101"/>
</linearGradient>
<linearGradient id="paint13_linear" x1="43424.5" y1="41287.6" x2="48588.6" y2="54784.2" gradientUnits="userSpaceOnUse">
<stop stop-color="#010101" stop-opacity="0"/>
<stop offset="0.95" stop-color="#010101"/>
</linearGradient>
<linearGradient id="paint14_linear" x1="8779.01" y1="45740.7" x2="9654.55" y2="33098.2" gradientUnits="userSpaceOnUse">
<stop stop-color="#010101" stop-opacity="0"/>
<stop offset="0.95" stop-color="#010101"/>
</linearGradient>
<linearGradient id="paint15_linear" x1="15606.9" y1="11623.7" x2="16666.5" y2="11623.7" gradientUnits="userSpaceOnUse">
<stop stop-color="#E4C5D5"/>
<stop offset="0.42" stop-color="#E9D3CF"/>
<stop offset="1" stop-color="#EFE8CA"/>
</linearGradient>
<linearGradient id="paint16_linear" x1="8498.9" y1="4649.08" x2="8769.74" y2="4649.08" gradientUnits="userSpaceOnUse">
<stop stop-color="#E4C5D5"/>
<stop offset="0.42" stop-color="#E9D3CF"/>
<stop offset="1" stop-color="#EFE8CA"/>
</linearGradient>
<linearGradient id="paint17_linear" x1="6629.02" y1="8269.18" x2="9424.16" y2="8269.18" gradientUnits="userSpaceOnUse">
<stop stop-color="#E4C5D5"/>
<stop offset="0.42" stop-color="#E9D3CF"/>
<stop offset="1" stop-color="#EFE8CA"/>
</linearGradient>
<linearGradient id="paint18_linear" x1="4510.42" y1="3362.82" x2="4414.18" y2="4171.65" gradientUnits="userSpaceOnUse">
<stop stop-color="#010101" stop-opacity="0"/>
<stop offset="0.95" stop-color="#010101"/>
</linearGradient>
<linearGradient id="paint19_linear" x1="24990.7" y1="13467.6" x2="27067.4" y2="13467.6" gradientUnits="userSpaceOnUse">
<stop stop-color="#E4C5D5"/>
<stop offset="0.42" stop-color="#E9D3CF"/>
<stop offset="1" stop-color="#EFE8CA"/>
</linearGradient>
<linearGradient id="paint20_linear" x1="16354.5" y1="12807.4" x2="16893.1" y2="12727.3" gradientUnits="userSpaceOnUse">
<stop stop-color="#010101" stop-opacity="0"/>
<stop offset="0.95" stop-color="#010101"/>
</linearGradient>
<linearGradient id="paint21_linear" x1="5572.79" y1="8767.06" x2="4206.8" y2="11086.1" gradientUnits="userSpaceOnUse">
<stop stop-color="#010101" stop-opacity="0"/>
<stop offset="0.95" stop-color="#010101"/>
</linearGradient>
<linearGradient id="paint22_linear" x1="1102.28" y1="2576.91" x2="1094.48" y2="2895.93" gradientUnits="userSpaceOnUse">
<stop stop-color="#010101" stop-opacity="0"/>
<stop offset="0.95" stop-color="#010101"/>
</linearGradient>
<linearGradient id="paint23_linear" x1="1273.64" y1="2580.13" x2="1265.84" y2="2899.15" gradientUnits="userSpaceOnUse">
<stop stop-color="#010101" stop-opacity="0"/>
<stop offset="0.95" stop-color="#010101"/>
</linearGradient>
<linearGradient id="paint24_linear" x1="3173.55" y1="6789.39" x2="2013.21" y2="7533.31" gradientUnits="userSpaceOnUse">
<stop stop-color="#010101" stop-opacity="0"/>
<stop offset="0.95" stop-color="#010101"/>
</linearGradient>
<linearGradient id="paint25_linear" x1="1388.65" y1="2877.84" x2="1292.15" y2="3099.17" gradientUnits="userSpaceOnUse">
<stop stop-color="#010101" stop-opacity="0"/>
<stop offset="0.95" stop-color="#010101"/>
</linearGradient>
<linearGradient id="paint26_linear" x1="1350.26" y1="2966.58" x2="1051.92" y2="3018.58" gradientUnits="userSpaceOnUse">
<stop stop-color="#010101" stop-opacity="0"/>
<stop offset="0.95" stop-color="#010101"/>
</linearGradient>
<linearGradient id="paint27_linear" x1="6751.09" y1="7259.31" x2="7742.62" y2="7259.31" gradientUnits="userSpaceOnUse">
<stop stop-color="#E4C5D5"/>
<stop offset="0.42" stop-color="#E9D3CF"/>
<stop offset="1" stop-color="#EFE8CA"/>
</linearGradient>
<linearGradient id="paint28_linear" x1="7468.79" y1="9365.1" x2="7983.16" y2="11434.1" gradientUnits="userSpaceOnUse">
<stop stop-color="#010101" stop-opacity="0"/>
<stop offset="0.95" stop-color="#010101"/>
</linearGradient>
<linearGradient id="paint29_linear" x1="8271.59" y1="10118" x2="3347.39" y2="7473.49" gradientUnits="userSpaceOnUse">
<stop stop-color="#010101" stop-opacity="0"/>
<stop offset="0.95" stop-color="#010101"/>
</linearGradient>
<linearGradient id="paint30_linear" x1="35229.2" y1="6100.31" x2="35132.1" y2="7796.36" gradientUnits="userSpaceOnUse">
<stop stop-color="#010101" stop-opacity="0"/>
<stop offset="0.95" stop-color="#010101"/>
</linearGradient>
<linearGradient id="paint31_linear" x1="326.039" y1="832.583" x2="314.676" y2="857.946" gradientUnits="userSpaceOnUse">
<stop stop-color="#010101" stop-opacity="0"/>
<stop offset="0.95" stop-color="#010101"/>
</linearGradient>
<linearGradient id="paint32_linear" x1="339.862" y1="832.583" x2="328.472" y2="857.946" gradientUnits="userSpaceOnUse">
<stop stop-color="#010101" stop-opacity="0"/>
<stop offset="0.95" stop-color="#010101"/>
</linearGradient>
<linearGradient id="paint33_linear" x1="1855.58" y1="873.929" x2="1855.73" y2="890.841" gradientUnits="userSpaceOnUse">
<stop stop-color="#010101" stop-opacity="0"/>
<stop offset="0.95" stop-color="#010101"/>
</linearGradient>
<linearGradient id="paint34_linear" x1="33449.4" y1="11892.4" x2="33359.5" y2="13907.1" gradientUnits="userSpaceOnUse">
<stop stop-color="#010101" stop-opacity="0"/>
<stop offset="0.95" stop-color="#010101"/>
</linearGradient>
<linearGradient id="paint35_linear" x1="7719.1" y1="5118.5" x2="8845.26" y2="5118.5" gradientUnits="userSpaceOnUse">
<stop stop-color="#010101" stop-opacity="0"/>
<stop offset="0.95" stop-color="#010101"/>
</linearGradient>
</defs>
</svg>
