<svg width="132" height="135" viewBox="0 0 132 135" fill="none" xmlns="http://www.w3.org/2000/svg">
<path d="M17.1965 86.1901C17.0471 85.8419 16.9408 85.4755 16.8803 85.0998L6.04226 87.5857L0.0012207 63.5986L14.1391 60.3276C14.9111 54.6794 16.5969 49.2058 19.1259 44.1363L8.30896 36.504L21.0869 15.5371L35.0034 25.2846C38.1074 23.0085 41.467 21.1304 45.0085 19.6912C45.2879 19.5649 45.5821 19.4769 45.8836 19.4295L44.3443 3.33639L68.0973 0L69.7314 16.5402C75.8209 17.3438 81.7146 19.3029 87.1165 22.3189L95.5508 10.0528L115.582 23.6927L104.86 39.3825C106.662 42.2807 108.191 45.3513 109.425 48.5521C109.863 49.6481 110.215 50.7783 110.479 51.9321L126.947 49.6315L131.027 74.0548L111.998 76.7915C111.329 80.7222 110.214 84.5576 108.677 88.2181L122.108 99.7646L107.348 119.336L93.8323 107.702C90.2959 110.596 86.3942 112.976 82.2352 114.778L82.7729 132.747L58.8512 134.426L58.3135 118.42C53.6567 117.937 49.091 116.765 44.7555 114.942L36.9222 126.02L17.1228 112.053L25.4094 100.342C21.9262 96.1329 19.1501 91.3491 17.1965 86.1901ZM72.2722 90.8676C76.7843 89.0483 80.6726 85.8848 83.4444 81.7779C86.2162 77.6711 87.7468 72.8057 87.8422 67.7983C87.9377 62.7908 86.5936 57.8668 83.9804 53.6502C81.3672 49.4336 77.6024 46.1141 73.1632 44.1124C68.724 42.1108 63.8101 41.517 59.0442 42.4064C54.2784 43.2957 49.8751 45.6282 46.3923 49.1083C42.9095 52.5883 40.504 57.0592 39.4807 61.9545C38.4573 66.8497 38.8621 71.949 40.6438 76.6061C43.0271 82.8202 47.6902 87.8073 53.6156 90.4791C59.541 93.1509 66.2477 93.2905 72.2722 90.8676Z" fill="#3D467F"/>
</svg>
