<svg width="49" height="53" viewBox="0 0 49 53" fill="none" xmlns="http://www.w3.org/2000/svg">
<path d="M4.22537 26.2167C4.21958 26.0693 4.2316 25.9217 4.26114 25.7774L0 25.068L1.1321 15.4045L6.7021 16.3116C7.75917 14.3629 9.12528 12.6156 10.7423 11.1438H10.7528L7.89311 6.72713L15.4138 0.979531L19.1026 6.61731C20.5396 6.24876 22.0144 6.06438 23.4942 6.06825C23.6117 6.06215 23.7295 6.07474 23.8435 6.10559L25.5143 0L34.5626 2.32803L32.8792 8.60932C34.9675 9.81314 36.8251 11.4087 38.3587 13.3159L43.1102 10.1006L48.4634 18.0664L42.4136 22.1866C42.6678 23.5136 42.7967 24.8634 42.7987 26.2167C42.8116 26.6835 42.7876 27.1507 42.7272 27.6135L49 29.2299L47.1062 38.7551L39.8485 36.9124C39.063 38.2479 38.1293 39.4819 37.0667 40.589L40.3073 46.8307L32.2816 51.7767L29.001 45.5174C27.3206 46.0445 25.5789 46.329 23.8245 46.3629L21.5351 53L12.6551 50.0416L14.6731 44.1118C13.0549 43.243 11.5663 42.1332 10.2541 40.8174L5.87722 43.6725L0.646011 35.621L5.26278 32.5792C4.5802 30.5334 4.22958 28.383 4.22537 26.2167ZM23.4942 36.1437C25.3771 36.1524 27.2201 35.5776 28.7898 34.4921C30.3594 33.4066 31.5851 31.8593 32.3114 30.0461C33.0377 28.233 33.2321 26.2356 32.8699 24.3071C32.5077 22.3785 31.6051 20.6056 30.2766 19.2129C28.9482 17.8201 27.2535 16.8703 25.4073 16.4837C23.5612 16.0971 21.6466 16.2911 19.9062 17.0411C18.1658 17.7912 16.6778 19.0635 15.6309 20.697C14.5839 22.3304 14.025 24.2514 14.0249 26.2167C14.0266 28.8414 15.0234 31.3587 16.7977 33.2188C18.572 35.0788 20.9794 36.1304 23.4942 36.1437Z" fill="#828282"/>
</svg>
