<svg width="18" height="18" viewBox="0 0 18 18" fill="none" xmlns="http://www.w3.org/2000/svg">
<path d="M8.25 6.75H9.75V4.5H12V3H9.75V0.75H8.25V3H6V4.5H8.25V6.75ZM5.25 13.5C4.425 13.5 3.7575 14.175 3.7575 15C3.7575 15.825 4.425 16.5 5.25 16.5C6.075 16.5 6.75 15.825 6.75 15C6.75 14.175 6.075 13.5 5.25 13.5ZM12.75 13.5C11.925 13.5 11.2575 14.175 11.2575 15C11.2575 15.825 11.925 16.5 12.75 16.5C13.575 16.5 14.25 15.825 14.25 15C14.25 14.175 13.575 13.5 12.75 13.5ZM5.3775 11.0625L5.4 10.9725L6.075 9.75H11.6625C12.225 9.75 12.72 9.4425 12.975 8.9775L15.87 3.72L14.565 3H14.5575L13.7325 4.5L11.6625 8.25H6.3975L6.3 8.0475L4.62 4.5L3.9075 3L3.2025 1.5H0.75V3H2.25L4.95 8.6925L3.9375 10.53C3.8175 10.74 3.75 10.9875 3.75 11.25C3.75 12.075 4.425 12.75 5.25 12.75H14.25V11.25H5.565C5.4675 11.25 5.3775 11.1675 5.3775 11.0625Z" fill="white"/>
</svg>
