<svg width="1716" height="1967" viewBox="0 0 1716 1967" fill="none" xmlns="http://www.w3.org/2000/svg">
<path d="M1598.48 1551C1598.48 1551 1504.61 1840 1120.61 1672.92C736.61 1505.84 594.39 1615.32 455.01 1762.2C336.1 1887.52 302.36 1899.48 181 1966.68H1598.48V1551Z" fill="url(#paint0_linear)"/>
<g filter="url(#filter0_d)">
<path d="M12 492.63C12 492.63 207.31 666.39 497.47 528.15C787.63 389.91 1009.47 255.51 1242.69 386.07C1475.91 516.63 1651.34 352.47 1651.34 352.47V165.75H12V492.63Z" fill="url(#paint1_linear)"/>
</g>
<g filter="url(#filter1_d)">
<path d="M647.9 412.48C919.4 303.95 1101.97 199.99 1303.9 342.19C1500.17 480.43 1687.81 326.63 1687.81 326.63L1703.56 141.08L174 8C174 8 265.86 565.2 647.9 412.48Z" fill="url(#paint2_linear)"/>
</g>
<defs>
<filter id="filter0_d" x="0" y="157.75" width="1663.34" height="439.814" filterUnits="userSpaceOnUse" color-interpolation-filters="sRGB">
<feFlood flood-opacity="0" result="BackgroundImageFix"/>
<feColorMatrix in="SourceAlpha" type="matrix" values="0 0 0 0 0 0 0 0 0 0 0 0 0 0 0 0 0 0 127 0"/>
<feOffset dy="4"/>
<feGaussianBlur stdDeviation="6"/>
<feColorMatrix type="matrix" values="0 0 0 0 0 0 0 0 0 0 0 0 0 0 0 0 0 0 0.1 0"/>
<feBlend mode="normal" in2="BackgroundImageFix" result="effect1_dropShadow"/>
<feBlend mode="normal" in="SourceGraphic" in2="effect1_dropShadow" result="shape"/>
</filter>
<filter id="filter1_d" x="162" y="0" width="1553.56" height="454.981" filterUnits="userSpaceOnUse" color-interpolation-filters="sRGB">
<feFlood flood-opacity="0" result="BackgroundImageFix"/>
<feColorMatrix in="SourceAlpha" type="matrix" values="0 0 0 0 0 0 0 0 0 0 0 0 0 0 0 0 0 0 127 0"/>
<feOffset dy="4"/>
<feGaussianBlur stdDeviation="6"/>
<feColorMatrix type="matrix" values="0 0 0 0 0 0 0 0 0 0 0 0 0 0 0 0 0 0 0.1 0"/>
<feBlend mode="normal" in2="BackgroundImageFix" result="effect1_dropShadow"/>
<feBlend mode="normal" in="SourceGraphic" in2="effect1_dropShadow" result="shape"/>
</filter>
<linearGradient id="paint0_linear" x1="889.944" y1="1437.19" x2="541.585" y2="2002.85" gradientUnits="userSpaceOnUse">
<stop stop-color="#D1CFFF"/>
<stop offset="1" stop-color="#FFCDFA"/>
<stop offset="1" stop-color="#FFCDFA"/>
</linearGradient>
<linearGradient id="paint1_linear" x1="440.5" y1="-70" x2="611.97" y2="963.611" gradientUnits="userSpaceOnUse">
<stop stop-color="#D4D2FF"/>
<stop offset="1" stop-color="#FFDDFF"/>
</linearGradient>
<linearGradient id="paint2_linear" x1="939" y1="-110" x2="584.478" y2="489.135" gradientUnits="userSpaceOnUse">
<stop stop-color="#D1CFFF"/>
<stop offset="0.479167" stop-color="#E7CEFD"/>
<stop offset="1" stop-color="#FFCDFA"/>
</linearGradient>
</defs>
</svg>
