<svg width="40" height="29" viewBox="0 0 40 29" fill="none" xmlns="http://www.w3.org/2000/svg">
<path d="M39.375 2.875V28.0625H0V2.875H5.25V0.9375H13.125C14.3281 0.9375 15.4834 1.07373 16.5908 1.34619C17.6982 1.61865 18.7305 2.02734 19.6875 2.57227C20.6309 2.02734 21.6562 1.61865 22.7637 1.34619C23.8711 1.07373 25.0332 0.9375 26.25 0.9375H34.125V2.875H39.375ZM26.25 2.875C25.293 2.875 24.3633 2.99105 23.4609 3.22314C22.5586 3.45524 21.7383 3.80339 21 4.26758V23.249C21.8066 22.916 22.6543 22.6688 23.543 22.5073C24.4316 22.3459 25.334 22.2601 26.25 22.25H31.5V2.875H26.25ZM7.875 22.25H13.125C14.041 22.25 14.9434 22.3307 15.832 22.4922C16.7207 22.6536 17.5684 22.9059 18.375 23.249V4.26758C17.6367 3.81348 16.8164 3.47038 15.9141 3.23828C15.0117 3.00618 14.082 2.88509 13.125 2.875H7.875V22.25ZM2.625 26.125H19.1543C18.7168 25.8122 18.2725 25.5397 17.8213 25.3076C17.3701 25.0755 16.9053 24.8737 16.4268 24.7021C15.9482 24.5306 15.4355 24.4045 14.8887 24.3237C14.3418 24.243 13.7539 24.1976 13.125 24.1875H5.25V4.8125H2.625V26.125ZM36.75 4.8125H34.125V24.1875H26.25C25.6211 24.1875 25.04 24.2279 24.5068 24.3086C23.9736 24.3893 23.4609 24.5155 22.9688 24.687C22.4766 24.8586 22.0049 25.0604 21.5537 25.2925C21.1025 25.5246 20.6582 25.8021 20.2207 26.125H36.75V4.8125Z" fill="#5B5B5B"/>
</svg>
