<svg width="18" height="18" viewBox="0 0 18 18" fill="none" xmlns="http://www.w3.org/2000/svg">
<path d="M5.77257 15.6413C6.50937 15.6413 7.10666 15.044 7.10666 14.3072C7.10666 13.5704 6.50937 12.9731 5.77257 12.9731C5.03577 12.9731 4.43848 13.5704 4.43848 14.3072C4.43848 15.044 5.03577 15.6413 5.77257 15.6413Z" fill="white"/>
<path d="M15.9988 15.6413C16.7356 15.6413 17.3329 15.044 17.3329 14.3072C17.3329 13.5704 16.7356 12.9731 15.9988 12.9731C15.262 12.9731 14.6647 13.5704 14.6647 14.3072C14.6647 15.044 15.262 15.6413 15.9988 15.6413Z" fill="white"/>
<path d="M18 4.95392C18 4.93281 17.9898 4.9149 17.9885 4.8938C17.9834 4.84839 17.9751 4.80618 17.9623 4.76397C17.9488 4.72304 17.9348 4.68403 17.9162 4.64694C17.8964 4.6092 17.8734 4.57722 17.8465 4.54397C17.8196 4.50943 17.7915 4.47873 17.7576 4.4506C17.7263 4.42373 17.693 4.40327 17.6572 4.3828C17.6169 4.36042 17.5773 4.34187 17.5325 4.32716C17.5133 4.32077 17.498 4.30734 17.4781 4.30286C17.4525 4.2971 17.4295 4.3035 17.4046 4.30158C17.3796 4.29966 17.3585 4.28751 17.3336 4.28751L4.4378 4.28559C4.42821 4.28559 4.42054 4.29071 4.41094 4.29135L3.97349 2.83446C3.88907 2.55242 3.62878 2.35864 3.33459 2.35864H0.667046C0.298668 2.35864 0 2.65731 0 3.02569C0 3.39407 0.298668 3.69273 0.667046 3.69273H2.83894L5.3645 12.1104C5.44893 12.3925 5.70922 12.585 6.00341 12.585H15.7846C16.098 12.585 16.3679 12.3688 16.4363 12.0631L17.984 5.09973C17.9898 5.07543 17.9827 5.05177 17.9853 5.02746C17.9885 5.00188 18 4.9795 18 4.95392ZM15.2506 11.2509H6.4997L4.81002 5.61904L16.5015 5.62096L15.2506 11.2509Z" fill="white"/>
</svg>
