<svg width="205" height="236" viewBox="0 0 205 236" fill="none" xmlns="http://www.w3.org/2000/svg">
<g clip-path="url(#clip0)">
<path opacity="0.18" d="M73.6944 44.4011C69.9825 53.3288 69.1982 63.464 64.0721 71.6593C56.2958 84.0947 40.763 88.901 29.4135 98.185C18.1314 107.422 10.9652 121.987 12.0902 136.521C13.2152 151.054 23.309 164.895 37.2888 169.044C42.1337 170.486 47.3905 170.846 51.752 173.399C61.4773 179.093 62.947 193.088 71.6543 200.238C79.4424 206.632 90.8909 205.84 100.525 202.894C110.159 199.949 119.417 195.166 129.475 194.561C135.473 194.2 141.506 195.352 147.48 194.731C155.094 193.939 162.09 190.32 168.785 186.607C180.427 180.146 192.949 171.507 194.886 158.339C197.105 143.168 184.064 129.41 184.27 114.077C184.365 106.95 187.36 100.089 187.637 92.9511C188.033 83.1049 182.756 73.235 174.366 68.0644C167.501 63.8282 159.134 62.7355 151.96 59.0496C142.235 54.0533 135.544 44.797 127.293 37.639C112.362 24.6889 82.3462 23.5764 73.6944 44.4011Z" fill="#EB7DB1"/>
<path d="M137.01 89.7717C138.262 87.9862 140.896 87.6892 142.952 88.4296C145.008 89.1699 146.656 90.6981 148.363 92.0561C150.071 93.4141 152.036 94.673 154.218 94.7087C155.09 94.7087 155.973 94.5345 156.833 94.6849C157.624 94.8516 158.332 95.2871 158.838 95.9173C159.344 96.5475 159.615 97.3334 159.606 98.1412C153.338 97.7821 147.057 98.5875 141.082 100.517C138.139 101.467 134.744 102.643 132.141 100.956C131.171 100.323 130.422 99.3329 129.337 98.933C127.098 98.1095 124.583 100.121 122.313 99.3645C121.335 99.032 120.606 98.2323 119.742 97.6582C116.886 95.7618 112.92 96.5655 109.902 94.9383C109.646 94.8286 109.415 94.6662 109.226 94.4615C109.037 94.2568 108.894 94.0146 108.805 93.7506C108.646 92.9984 109.312 92.2778 110.052 92.0601C110.793 91.8423 111.582 91.969 112.35 92.0244C114.323 92.1559 116.295 91.7624 118.066 90.8842C118.811 90.5121 119.584 90.0409 120.408 90.1597C122.044 90.3933 123.248 92.8202 124.718 92.0759C123.644 92.6183 124.044 89.0076 124.234 88.6592C124.852 87.5467 126.865 86.7628 128.025 86.4659C131.313 85.6147 135.144 86.8855 137.01 89.7717Z" fill="#EB7DB1"/>
<path d="M137.01 89.7717C138.262 87.9862 140.896 87.6892 142.952 88.4296C145.008 89.1699 146.656 90.6981 148.363 92.0561C150.071 93.4141 152.036 94.673 154.218 94.7087C155.09 94.7087 155.973 94.5345 156.833 94.6849C157.624 94.8516 158.332 95.2871 158.838 95.9173C159.344 96.5475 159.615 97.3334 159.606 98.1412C153.338 97.7821 147.057 98.5875 141.082 100.517C138.139 101.467 134.744 102.643 132.141 100.956C131.171 100.323 130.422 99.3329 129.337 98.933C127.098 98.1095 124.583 100.121 122.313 99.3645C121.335 99.032 120.606 98.2323 119.742 97.6582C116.886 95.7618 112.92 96.5655 109.902 94.9383C109.646 94.8286 109.415 94.6662 109.226 94.4615C109.037 94.2568 108.894 94.0146 108.805 93.7506C108.646 92.9984 109.312 92.2778 110.052 92.0601C110.793 91.8423 111.582 91.969 112.35 92.0244C114.323 92.1559 116.295 91.7624 118.066 90.8842C118.811 90.5121 119.584 90.0409 120.408 90.1597C122.044 90.3933 123.248 92.8202 124.718 92.0759C123.644 92.6183 124.044 89.0076 124.234 88.6592C124.852 87.5467 126.865 86.7628 128.025 86.4659C131.313 85.6147 135.144 86.8855 137.01 89.7717Z" fill="url(#paint0_linear)"/>
<path d="M114.188 0L71.7493 45.1848H91.3148V89.6412H134.399V44.8206H152.963L114.188 0Z" fill="#EB7DB1"/>
<path d="M20.6667 86.4067L46.8558 57.6797L73.9084 85.8445H57.2941V122.114H34.2307V86.4067H20.6667Z" fill="#EB7DB1"/>
<path d="M151.758 71.8017L177.947 43.0747L205 71.2395H188.386V107.509H165.322V71.8017H151.758Z" fill="#EB7DB1"/>
<path d="M107.937 125.701C107.937 125.701 107.969 161.138 106.392 164.456C105.152 167.065 94.3058 170.905 89.7304 172.43C88.4905 172.845 87.7061 173.087 87.7061 173.087L88.5855 156.174C88.2256 158.463 87.6608 160.716 86.898 162.904C85.8323 165.798 84.228 168.372 81.9779 167.655C77.2519 166.154 75.9208 165.28 75.9208 165.28L73.9084 158.153C73.9084 158.153 81.4748 154.741 81.6174 150.595C81.76 146.45 84.1804 134.042 90.7524 131.303L92.1072 130.737L97.3245 128.563C97.3245 128.563 101.682 115.13 100.739 103.855C99.7964 92.5792 100.739 90.8887 100.739 90.8887H107.379C107.379 90.8887 107.822 102.437 107.937 105.66C108.052 108.883 107.937 125.701 107.937 125.701Z" fill="#3D467F"/>
<path d="M103.029 119.528C102.296 122.462 101.139 125.269 99.9865 128.064C99.3923 129.252 99.0357 131.849 97.8235 132.617C96.5321 133.437 94.1513 131.695 92.9351 131.148C92.6618 131.022 92.3805 130.891 92.1072 130.752L97.3244 128.579C97.3244 128.579 101.682 115.146 100.739 103.87C99.7963 92.5948 100.739 90.9043 100.739 90.9043H101.413C101.52 90.9567 101.62 91.0233 101.71 91.1023C102.363 91.6605 102.458 92.6186 102.502 93.4777C102.653 95.9482 102.799 98.4503 102.32 100.877C102.024 102.012 101.79 103.162 101.619 104.322C101.516 105.49 101.722 106.748 102.498 107.627C102.862 108.023 103.346 108.356 103.607 108.839C103.809 109.267 103.911 109.735 103.904 110.209C104.079 113.342 103.784 116.483 103.029 119.528V119.528Z" fill="#25233A"/>
<path d="M91.7782 168.858C91.4515 169.385 91.1857 169.947 90.9859 170.533C90.9321 170.805 90.8484 171.071 90.7364 171.325C90.6183 171.527 90.47 171.71 90.2967 171.867L89.7262 172.445C88.4863 172.861 87.7019 173.103 87.7019 173.103L88.5814 156.189C88.2214 158.479 87.6566 160.731 86.8938 162.92C87.1909 159.974 88.1931 155.702 88.2328 153.972C88.3003 151.491 88.7314 149.032 89.5123 146.676C90.1501 147.123 90.36 147.955 90.4789 148.719C90.9463 151.688 90.7879 154.768 91.6673 157.642C92.2417 159.523 93.2519 161.305 93.3826 163.272C93.5133 165.24 92.729 167.136 91.7782 168.858Z" fill="#25233A"/>
<path d="M91.1843 159.42L87.9636 162.512C87.7971 162.672 87.583 162.774 87.3535 162.801L67.9703 165.176C67.7221 165.209 67.4705 165.152 67.2601 165.017C67.0498 164.881 66.8943 164.675 66.8215 164.436L62.3728 149.966C62.3278 149.816 62.316 149.658 62.3385 149.503C62.3609 149.349 62.4169 149.201 62.5026 149.07C62.5882 148.939 62.7015 148.828 62.8344 148.746C62.9673 148.663 63.1167 148.611 63.272 148.592L81.2569 146.545C81.5036 146.517 81.7525 146.576 81.9602 146.712C82.1679 146.848 82.3213 147.052 82.3938 147.289L85.3293 156.835C85.464 157.282 85.5749 157.587 85.5749 157.587H90.4554C90.6671 157.589 90.8736 157.654 91.0483 157.773C91.2231 157.893 91.3582 158.062 91.4364 158.259C91.5146 158.455 91.5324 158.671 91.4875 158.878C91.4426 159.085 91.337 159.273 91.1843 159.42V159.42Z" fill="#EB7DB1"/>
<path d="M100.502 87.7884C100.477 87.6609 100.483 87.5294 100.52 87.4047C100.556 87.2801 100.622 87.166 100.712 87.0718C100.814 87.0077 100.935 86.9778 101.056 86.9863C101.177 86.9948 101.292 87.0414 101.385 87.1194C101.572 87.2752 101.721 87.4715 101.821 87.6934L102.34 88.6317C102.461 88.8929 102.638 89.1241 102.859 89.3087C103.236 89.5146 103.669 89.5925 104.095 89.5304L106.21 89.4394C106.301 89.4291 106.393 89.4442 106.475 89.4829C106.532 89.5308 106.574 89.5925 106.599 89.6619C106.624 89.7314 106.631 89.8061 106.618 89.8788C106.61 90.2228 106.526 90.5609 106.372 90.8686L103.996 90.9557C103.342 90.9795 102.32 91.217 101.698 91.019C100.755 90.7063 100.545 88.6278 100.502 87.7884Z" fill="url(#paint1_linear)"/>
<path d="M107.157 203.832C106.935 205.167 104.78 211.331 104.78 211.331L103.156 210.278L101.028 208.9C101.028 208.9 104.899 191.203 104.554 189.394C104.209 187.584 101.516 182.909 101.516 182.909L99.6695 225.496L94.9158 227.329C94.9158 227.329 87.2623 181.381 87.6941 173.09L106.38 164.459C106.38 164.459 111.926 180.775 112.592 184.223C113.257 187.671 107.382 202.498 107.157 203.832Z" fill="#EB7DB1"/>
<path d="M100.181 213.635L108.5 218.885C108.5 218.885 109.478 217.278 107.933 215.251C106.388 213.224 104.764 211.331 104.764 211.331L101.005 208.9L100.181 213.635Z" fill="#3D467F"/>
<path d="M94.9276 227.33C94.9276 227.33 92.2616 232.33 93.2599 234.994C94.2581 237.659 96.5122 234.401 97.8195 232.441C98.9287 230.77 100.173 227.33 100.173 227.33L99.6695 225.497L94.9276 227.33Z" fill="#3D467F"/>
<path d="M108.797 187.003L103.156 210.278L101.028 208.9C101.028 208.9 104.899 191.203 104.554 189.394C104.209 187.584 101.516 182.909 101.516 182.909C101.516 182.909 103.71 179.021 104.491 179.852C105.271 180.684 108.797 187.003 108.797 187.003Z" fill="url(#paint2_linear)"/>
<path d="M90.9107 171.605L95.91 226.949L94.9276 227.345C94.9276 227.345 87.286 181.186 87.7059 173.106L90.9107 171.605Z" fill="url(#paint3_linear)"/>
<path d="M90.4475 157.571L86.696 161.031L85.3293 156.834C85.464 157.282 85.575 157.587 85.575 157.587L90.4475 157.571Z" fill="url(#paint4_linear)"/>
<path d="M62.3728 149.981L80.2428 148.029C80.5456 147.996 80.8507 148.067 81.1083 148.229C81.3658 148.392 81.5607 148.637 81.661 148.924L86.5771 162.896L67.9584 165.192L62.3728 149.981Z" fill="url(#paint5_linear)"/>
<path d="M96.7183 125.071C96.2588 126.092 97.3244 128.579 97.3244 128.579C97.3244 128.579 98.4772 130.784 98.089 133.009C98.089 133.116 98.0454 133.227 98.0216 133.333C97.4433 135.665 90.0354 133.199 90.2612 129.941C90.487 126.682 86.8821 118.376 86.8821 118.376C88.9975 109.045 95.93 112.002 96.548 112.501C97.1659 113 99.4715 120.375 98.8416 122.05C98.6626 122.535 98.4043 122.988 98.0771 123.388C97.5621 124.038 97.0194 124.402 96.7183 125.071Z" fill="url(#paint6_linear)"/>
<path d="M96.548 112.509C96.548 112.509 97.5859 109.928 96.548 109.009C95.5101 108.091 93.775 107.845 91.8141 107.762C89.8532 107.679 89.2392 107.343 87.7061 109.009C86.173 110.676 85.658 113.285 84.7073 113.733C83.7565 114.18 82.9246 115.684 83.4238 117.169C83.9229 118.654 85.1747 121.017 85.4243 121.096C85.6739 121.176 87.3852 123.009 87.4684 124.093C87.5516 125.178 89.7581 125.701 89.7581 125.701L89.6353 121.425C89.6353 121.425 89.3857 122.549 88.3439 121.591C87.302 120.633 88.843 119.509 88.9658 119.552C89.0886 119.596 87.7774 117.359 88.1933 116.266C88.6093 115.174 90.998 109.271 96.548 112.509Z" fill="#3D467F"/>
<path d="M98.0888 133.024C98.0229 133.191 97.923 133.342 97.7957 133.468C97.5977 133.634 97.3586 133.744 97.1034 133.786C96.8482 133.827 96.5865 133.8 96.3458 133.705C95.8687 133.506 95.4502 133.188 95.1297 132.783C94.4036 131.943 93.8783 130.949 93.5935 129.876C93.3087 128.803 93.2718 127.68 93.4857 126.591C93.553 126.194 93.6985 125.815 93.9135 125.474C94.4364 124.714 95.4149 124.441 96.2705 124.089C97.1262 123.736 97.7521 123.162 98.077 123.404C97.562 124.045 97.0193 124.409 96.7182 125.078C96.2587 126.1 97.3243 128.586 97.3243 128.586C97.3243 128.586 98.4771 130.783 98.0888 133.024Z" fill="url(#paint7_linear)"/>
<path d="M137.097 113.823C136.305 117.386 138.46 121.345 141.875 122.592C144.747 123.642 147.924 122.877 150.986 122.881C156.342 122.881 161.432 125.304 166.776 125.653C170.314 125.879 173.852 125.197 177.052 123.673C178.902 122.79 180.681 121.618 182.713 121.361C184.416 121.143 186.195 121.595 187.843 121.104C190.644 120.272 192.042 116.713 191.032 113.977C190.022 111.242 187.134 109.488 184.222 109.227C181.394 108.989 178.47 109.955 175.753 109.139C172.714 108.229 170.631 105.291 167.612 104.309C163.191 102.876 158.719 106.036 155.141 109.005C154.759 107.933 154.064 107 153.146 106.327C152.228 105.654 151.129 105.271 149.992 105.228C147.654 105.18 145.345 107.12 143.222 107.999C140.393 109.211 137.85 110.509 137.097 113.823Z" fill="#EB7DB1"/>
<path d="M137.097 113.823C136.305 117.386 138.46 121.345 141.875 122.592C144.747 123.642 147.924 122.877 150.986 122.881C156.342 122.881 161.432 125.304 166.776 125.653C170.314 125.879 173.852 125.197 177.052 123.673C178.902 122.79 180.681 121.618 182.713 121.361C184.416 121.143 186.195 121.595 187.843 121.104C190.644 120.272 192.042 116.713 191.032 113.977C190.022 111.242 187.134 109.488 184.222 109.227C181.394 108.989 178.47 109.955 175.753 109.139C172.714 108.229 170.631 105.291 167.612 104.309C163.191 102.876 158.719 106.036 155.141 109.005C154.759 107.933 154.064 107 153.146 106.327C152.228 105.654 151.129 105.271 149.992 105.228C147.654 105.18 145.345 107.12 143.222 107.999C140.393 109.211 137.85 110.509 137.097 113.823Z" fill="url(#paint8_linear)"/>
<path d="M0.158463 119.691C-0.633823 123.254 1.5212 127.213 4.93991 128.46C7.81195 129.509 10.9851 128.741 14.0512 128.749C19.4031 128.749 24.4935 131.168 29.8375 131.52C33.3769 131.747 36.9155 131.065 40.1174 129.541C41.9674 128.662 43.7421 127.486 45.7783 127.229C47.4817 127.015 49.2604 127.466 50.9083 126.975C53.7051 126.144 55.1075 122.581 54.0973 119.849C53.0871 117.117 50.1953 115.355 47.2876 115.098C44.4591 114.857 41.5356 115.823 38.8181 115.011C35.7757 114.1 33.692 111.159 30.6773 110.181C26.2564 108.744 21.7839 111.907 18.2067 114.872C17.8237 113.801 17.1284 112.869 16.2105 112.197C15.2926 111.525 14.1942 111.142 13.0569 111.099C10.7196 111.052 8.41012 112.988 6.2868 113.871C3.45437 115.078 0.919058 116.397 0.158463 119.691Z" fill="#EB7DB1"/>
<path d="M0.158463 119.691C-0.633823 123.254 1.5212 127.213 4.93991 128.46C7.81195 129.509 10.9851 128.741 14.0512 128.749C19.4031 128.749 24.4935 131.168 29.8375 131.52C33.3769 131.747 36.9155 131.065 40.1174 129.541C41.9674 128.662 43.7421 127.486 45.7783 127.229C47.4817 127.015 49.2604 127.466 50.9083 126.975C53.7051 126.144 55.1075 122.581 54.0973 119.849C53.0871 117.117 50.1953 115.355 47.2876 115.098C44.4591 114.857 41.5356 115.823 38.8181 115.011C35.7757 114.1 33.692 111.159 30.6773 110.181C26.2564 108.744 21.7839 111.907 18.2067 114.872C17.8237 113.801 17.1284 112.869 16.2105 112.197C15.2926 111.525 14.1942 111.142 13.0569 111.099C10.7196 111.052 8.41012 112.988 6.2868 113.871C3.45437 115.078 0.919058 116.397 0.158463 119.691Z" fill="url(#paint9_linear)"/>
<path d="M74.4827 165.153C74.8855 165.234 75.2991 165.249 75.7067 165.196L77.9133 165.042C78.198 165.031 78.4802 164.985 78.7531 164.903C78.9954 164.814 79.2122 164.668 79.3848 164.476C79.5574 164.284 79.6806 164.053 79.7434 163.803C79.7653 163.729 79.7653 163.651 79.7434 163.577C79.6682 163.351 79.3473 163.367 79.1373 163.502C78.9274 163.636 78.7848 163.846 78.5511 163.898C78.4253 163.909 78.2985 163.894 78.1787 163.854L76.9308 163.537C76.8607 163.514 76.7864 163.506 76.7129 163.514C76.4396 163.557 76.4158 163.937 76.4594 164.21C76.3752 164.099 76.2672 164.007 76.1432 163.942C76.0192 163.877 75.8823 163.84 75.7424 163.834C75.6019 163.835 75.4675 163.892 75.3682 163.991C75.2689 164.09 75.2126 164.224 75.2116 164.365L74.7203 163.969C74.653 163.917 74.5619 163.862 74.4866 163.906C74.4506 163.935 74.4255 163.975 74.4153 164.02L74.2489 164.444C74.2925 164.333 73.623 164.048 73.5794 164.444C73.5557 164.784 74.2569 165.093 74.4827 165.153Z" fill="url(#paint10_linear)"/>
</g>
<defs>
<linearGradient id="paint0_linear" x1="137.097" y1="84.8506" x2="132.06" y2="103.895" gradientUnits="userSpaceOnUse">
<stop stop-color="white" stop-opacity="0"/>
<stop offset="0.06" stop-color="white" stop-opacity="0.13"/>
<stop offset="0.16" stop-color="white" stop-opacity="0.33"/>
<stop offset="0.26" stop-color="white" stop-opacity="0.51"/>
<stop offset="0.37" stop-color="white" stop-opacity="0.66"/>
<stop offset="0.48" stop-color="white" stop-opacity="0.79"/>
<stop offset="0.59" stop-color="white" stop-opacity="0.88"/>
<stop offset="0.71" stop-color="white" stop-opacity="0.95"/>
<stop offset="0.84" stop-color="white" stop-opacity="0.99"/>
<stop offset="1" stop-color="white"/>
</linearGradient>
<linearGradient id="paint1_linear" x1="100.498" y1="89.0355" x2="106.618" y2="89.0355" gradientUnits="userSpaceOnUse">
<stop stop-color="#ECC4D7"/>
<stop offset="0.42" stop-color="#EFD4D1"/>
<stop offset="1" stop-color="#F2EAC9"/>
</linearGradient>
<linearGradient id="paint2_linear" x1="118.019" y1="188.412" x2="41.892" y2="223.278" gradientUnits="userSpaceOnUse">
<stop stop-opacity="0.07"/>
<stop offset="0.08" stop-opacity="0.25"/>
<stop offset="1"/>
</linearGradient>
<linearGradient id="paint3_linear" x1="3044.31" y1="28468.4" x2="4670.87" y2="28433.8" gradientUnits="userSpaceOnUse">
<stop stop-opacity="0.07"/>
<stop offset="0.08" stop-opacity="0.25"/>
<stop offset="1"/>
</linearGradient>
<linearGradient id="paint4_linear" x1="2021.43" y1="1806.94" x2="1821.72" y2="2017.18" gradientUnits="userSpaceOnUse">
<stop stop-opacity="0.07"/>
<stop offset="0.08" stop-opacity="0.25"/>
<stop offset="1"/>
</linearGradient>
<linearGradient id="paint5_linear" x1="75.909" y1="162.912" x2="82.3034" y2="191.826" gradientUnits="userSpaceOnUse">
<stop stop-opacity="0.07"/>
<stop offset="0.52" stop-opacity="0.83"/>
<stop offset="0.56" stop-opacity="0.87"/>
<stop offset="1"/>
</linearGradient>
<linearGradient id="paint6_linear" x1="4562.96" y1="7127.4" x2="4930.53" y2="7127.4" gradientUnits="userSpaceOnUse">
<stop stop-color="#ECC4D7"/>
<stop offset="0.42" stop-color="#EFD4D1"/>
<stop offset="1" stop-color="#F2EAC9"/>
</linearGradient>
<linearGradient id="paint7_linear" x1="1955.02" y1="3359.24" x2="2448.68" y2="3711.4" gradientUnits="userSpaceOnUse">
<stop stop-color="#ECC4D7"/>
<stop offset="0.42" stop-color="#EFD4D1"/>
<stop offset="1" stop-color="#F2EAC9"/>
</linearGradient>
<linearGradient id="paint8_linear" x1="166.515" y1="102.959" x2="160.544" y2="134.7" gradientUnits="userSpaceOnUse">
<stop offset="0.02" stop-color="white" stop-opacity="0"/>
<stop offset="0.06" stop-color="white" stop-opacity="0.13"/>
<stop offset="0.13" stop-color="white" stop-opacity="0.33"/>
<stop offset="0.2" stop-color="white" stop-opacity="0.51"/>
<stop offset="0.27" stop-color="white" stop-opacity="0.66"/>
<stop offset="0.35" stop-color="white" stop-opacity="0.79"/>
<stop offset="0.43" stop-color="white" stop-opacity="0.88"/>
<stop offset="0.51" stop-color="white" stop-opacity="0.95"/>
<stop offset="0.6" stop-color="white" stop-opacity="0.99"/>
<stop offset="0.71" stop-color="white"/>
</linearGradient>
<linearGradient id="paint9_linear" x1="11965.9" y1="6018.62" x2="11974.4" y2="7634.53" gradientUnits="userSpaceOnUse">
<stop stop-color="white" stop-opacity="0"/>
<stop offset="0.06" stop-color="white" stop-opacity="0.13"/>
<stop offset="0.16" stop-color="white" stop-opacity="0.33"/>
<stop offset="0.26" stop-color="white" stop-opacity="0.51"/>
<stop offset="0.37" stop-color="white" stop-opacity="0.66"/>
<stop offset="0.48" stop-color="white" stop-opacity="0.79"/>
<stop offset="0.59" stop-color="white" stop-opacity="0.88"/>
<stop offset="0.71" stop-color="white" stop-opacity="0.95"/>
<stop offset="0.84" stop-color="white" stop-opacity="0.99"/>
<stop offset="1" stop-color="white"/>
</linearGradient>
<linearGradient id="paint10_linear" x1="2158.81" y1="920.433" x2="2255.17" y2="920.433" gradientUnits="userSpaceOnUse">
<stop stop-color="#ECC4D7"/>
<stop offset="0.42" stop-color="#EFD4D1"/>
<stop offset="1" stop-color="#F2EAC9"/>
</linearGradient>
<clipPath id="clip0">
<rect width="205" height="236" fill="white"/>
</clipPath>
</defs>
</svg>
