<svg width="293" height="236" viewBox="0 0 293 236" fill="none" xmlns="http://www.w3.org/2000/svg">
<g clip-path="url(#clip0)">
<path opacity="0.18" d="M276.95 163.38C272.33 171.286 269.066 179.913 267.293 188.902C264.974 202.17 257.757 214.077 247.078 222.254C241.651 226.286 235.593 229.386 229.152 231.429C225.005 232.774 220.762 233.796 216.458 234.487H216.23C197.006 237.546 173.069 236.414 154.456 230.833C143.472 227.53 134.714 222.728 122.875 221.657C104.964 219.96 87.572 221.902 69.7525 217.834C-26.0275 195.814 -9.87089 105.592 39.026 76.2161C57.4253 65.16 79.8217 61.3371 96.4207 48.5225C102.523 43.8125 106.215 35.7384 111.235 29.9428C121.014 18.6727 134.119 8.97759 148.171 3.94655C187.273 -9.89262 227.321 15.0944 256.613 39.0262C312.391 84.6572 291.093 139.035 276.95 163.38Z" fill="#EB7DB1"/>
<path d="M159.72 135.884V40.6459H149.971L170.674 16.5L194.26 40.9059H183.703V158.684L159.72 135.884Z" fill="#EB7DB1"/>
<path d="M159.72 135.884V40.6459H149.971L170.674 16.5L194.26 40.9059H183.703V158.684L159.72 135.884Z" fill="url(#paint0_linear)"/>
<path d="M141.854 137.964V69.7312H132.09L152.809 45.6006L176.38 69.9912H165.822V138.575L141.854 137.964Z" fill="#EB7DB1"/>
<path d="M133.967 172.631V95.5441H126.781L142.038 77.7749L159.384 95.7276H151.619V146.206L133.967 172.631Z" fill="#EB7DB1"/>
<path d="M133.967 172.631V95.5441H126.781L142.038 77.7749L159.384 95.7276H151.619V146.206L133.967 172.631Z" fill="url(#paint1_linear)"/>
<path d="M247.063 222.252C241.635 226.284 235.577 229.385 229.136 231.427C224.99 232.772 220.746 233.795 216.443 234.486C213.392 231.81 209.929 228.369 207.732 226.671C207.488 226.488 207.274 226.32 207.06 226.182C200.637 221.824 192.887 218.995 185.884 215.677C182.375 214.01 178.973 212.159 175.525 210.37C171.315 208.061 166.939 206.068 162.435 204.406L161.672 204.146L161.093 203.948C158.059 203.157 155.209 201.781 152.702 199.895C150.2 197.709 148.766 194.589 147.209 191.668C144.814 187.172 143.99 181.285 139.245 179.435C137.094 178.609 136.377 175.964 136.194 173.7C135.765 167.092 136.108 160.456 137.216 153.928C138.061 147.526 138.92 141.118 139.795 134.706C139.851 133.915 140.069 133.145 140.435 132.443C140.982 131.71 141.778 131.203 142.672 131.02C143.567 130.837 144.497 130.989 145.287 131.449C146.832 132.44 147.928 133.999 148.338 135.792C149.986 141.618 147.377 148.255 149.864 153.729V153.836C150.61 155.238 151.511 156.551 152.549 157.751C155.6 161.543 158.652 165.397 161.993 168.792C163.721 170.852 165.948 172.431 168.462 173.379C169.717 173.838 171.088 173.871 172.364 173.473C173.64 173.075 174.751 172.269 175.525 171.177L175.739 170.795C176.106 169.703 176.237 168.545 176.124 167.398C176.011 166.251 175.656 165.142 175.083 164.143C173.256 160.843 171.099 157.738 168.645 154.876C167.261 153.123 166.069 151.226 165.09 149.218C163.606 145.932 162.972 142.324 163.244 138.728C163.216 137.069 163.754 135.45 164.77 134.14C165.929 132.932 168.294 132.489 169.194 133.895C174.579 142.092 175.785 149.065 184.633 156.176C187.029 158.087 193.925 165.917 196.503 167.568C204.391 172.63 208.708 181.545 214.155 189.206C219.601 196.868 226.009 203.198 232.462 209.636C235.254 211.823 243.401 217.848 247.063 222.252Z" fill="#FFBBAB"/>
<path d="M175.22 163.899C173.399 160.585 171.242 157.47 168.782 154.601C169.072 153.347 169.911 153.072 172.016 155.182C175.464 158.501 180.087 167.079 185.488 167.66C182.513 167.339 179.141 167.125 176.929 169.19C176.507 169.583 176.151 170.043 175.876 170.551C176.248 169.459 176.382 168.301 176.269 167.153C176.156 166.006 175.798 164.896 175.22 163.899Z" fill="url(#paint2_linear)"/>
<path d="M202.621 190.491C189.576 193.764 183.184 207.175 176.471 195.492C175.83 198.137 166.753 181.041 166.112 183.686C167.119 179.68 156.378 187.158 153.19 184.543C150.001 181.928 154.532 169.343 150.81 171.147C147.624 165.46 146.666 158.786 148.125 152.43L149.955 153.806C150.701 155.212 151.602 156.531 152.641 157.736C155.692 161.513 158.743 165.29 162.084 168.761C163.822 170.811 166.047 172.389 168.553 173.349C169.811 173.785 171.175 173.806 172.446 173.41C173.716 173.014 174.828 172.221 175.617 171.147C175.627 171.117 175.627 171.085 175.617 171.055C174.96 172.596 174.836 174.314 175.266 175.933C175.978 178.228 177.271 180.298 179.019 181.943C182.093 185.007 185.798 187.36 189.876 188.837C193.953 190.313 198.303 190.878 202.621 190.491Z" fill="url(#paint3_linear)"/>
<path d="M182.65 170.414C181.049 173.838 178.223 176.534 174.732 177.968C176.393 180.746 178.249 183.404 180.285 185.919C176.791 183.87 173.501 181.489 170.46 178.809C167.409 176.041 163.732 172.692 159.659 173.594C156.882 174.191 154.38 176.744 151.435 174.374C150.564 173.643 149.918 172.677 149.574 171.591C148.598 168.533 147.56 165.566 146.752 162.416C146.285 161.059 146.013 159.644 145.943 158.211C145.943 157.461 146.507 155.382 145.028 156.1C141.998 157.581 139.3 159.662 137.094 162.217C137.652 160.528 138.085 158.801 138.391 157.048C138.557 155.306 138.915 153.588 139.459 151.926L141.412 146.268C142.033 144.681 142.449 143.021 142.648 141.328C142.815 138.912 140.023 132.857 143.41 131.557C145.638 130.685 147.804 133.912 148.308 135.655C149.955 141.466 147.347 148.103 149.833 153.577C150.833 155.401 152.03 157.109 153.403 158.669C155.98 162.012 158.736 165.213 161.657 168.257C164.022 170.719 166.692 173.242 170.307 173.487C171.748 173.62 173.186 173.205 174.335 172.325C177.081 170.154 176.456 166.606 175.144 163.853C172.565 158.425 167.668 154.372 165.151 148.913C163.682 145.622 163.047 142.019 163.305 138.423C163.271 136.763 163.81 135.143 164.83 133.835C169.728 128.697 170.933 139.707 171.238 142.215C171.916 146.234 173.143 150.139 174.884 153.822C175.601 155.534 176.639 157.507 178.485 157.752L175.632 158.929C175.971 161.218 176.767 163.415 177.973 165.388C179.179 167.362 180.77 169.071 182.65 170.414Z" fill="url(#paint4_linear)"/>
<path d="M175.159 108.083C174.831 112.276 173.057 116.223 170.14 119.246C167.527 121.834 165.666 125.085 164.754 128.651C164.51 129.736 164.373 130.868 164.175 132.061H148.14C148.018 131.25 147.942 130.425 147.789 129.629C147.103 126.19 145.47 123.011 143.075 120.454C140.945 118.256 139.271 115.658 138.147 112.808C137.195 110.153 136.835 107.321 137.093 104.512C137.351 101.702 138.221 98.9837 139.64 96.5475C141.06 94.1113 142.995 92.0167 145.31 90.4113C147.625 88.8058 150.262 87.7286 153.037 87.2556C153.541 87.2556 154.06 87.1179 154.563 87.072C157.357 86.8431 160.168 87.2326 162.795 88.2128C165.423 89.1931 167.803 90.7403 169.768 92.7448C171.733 94.7494 173.235 97.1623 174.166 99.8128C175.098 102.463 175.437 105.287 175.159 108.083Z" fill="white"/>
<path d="M172.016 108.083C171.688 112.273 169.919 116.218 167.012 119.246C164.389 121.826 162.526 125.08 161.627 128.651C161.367 129.737 161.245 130.868 161.047 132.061H148.14C148.018 131.251 147.942 130.425 147.789 129.63C147.103 126.19 145.47 123.012 143.075 120.454C140.945 118.257 139.271 115.658 138.147 112.809C137.195 110.153 136.835 107.321 137.093 104.512C137.351 101.703 138.221 98.9839 139.64 96.5477C141.06 94.1115 142.995 92.0169 145.31 90.4115C147.625 88.8061 150.262 87.7289 153.037 87.2558C153.541 87.2558 154.06 87.1181 154.563 87.0723C157.092 87.285 159.554 87.9996 161.806 89.1746C164.057 90.3497 166.052 91.9616 167.677 93.9168C169.301 95.8719 170.521 98.1312 171.266 100.563C172.011 102.995 172.266 105.552 172.016 108.083Z" fill="url(#paint5_linear)"/>
<path d="M164.541 132H148.644C147.489 132 146.553 132.938 146.553 134.095C146.553 135.252 147.489 136.19 148.644 136.19H164.541C165.695 136.19 166.631 135.252 166.631 134.095C166.631 132.938 165.695 132 164.541 132Z" fill="#EB7DB1"/>
<path d="M163.351 135.517H149.116C148.088 135.517 147.255 136.352 147.255 137.383V137.398C147.255 138.428 148.088 139.264 149.116 139.264H163.351C164.379 139.264 165.212 138.428 165.212 137.398V137.383C165.212 136.352 164.379 135.517 163.351 135.517Z" fill="#EB7DB1"/>
<path d="M162.405 138.575H150.062C149.169 138.575 148.445 139.301 148.445 140.196V140.211C148.445 141.107 149.169 141.832 150.062 141.832H162.405C163.298 141.832 164.022 141.107 164.022 140.211V140.196C164.022 139.301 163.298 138.575 162.405 138.575Z" fill="#EB7DB1"/>
<path d="M164.541 132H148.644C147.489 132 146.553 132.938 146.553 134.095C146.553 135.252 147.489 136.19 148.644 136.19H164.541C165.695 136.19 166.631 135.252 166.631 134.095C166.631 132.938 165.695 132 164.541 132Z" fill="url(#paint6_linear)"/>
<path d="M163.351 135.517H149.116C148.088 135.517 147.255 136.352 147.255 137.383V137.398C147.255 138.428 148.088 139.264 149.116 139.264H163.351C164.379 139.264 165.212 138.428 165.212 137.398V137.383C165.212 136.352 164.379 135.517 163.351 135.517Z" fill="url(#paint7_linear)"/>
<path d="M162.405 138.575H150.062C149.169 138.575 148.445 139.301 148.445 140.196V140.211C148.445 141.107 149.169 141.832 150.062 141.832H162.405C163.298 141.832 164.022 141.107 164.022 140.211V140.196C164.022 139.301 163.298 138.575 162.405 138.575Z" fill="url(#paint8_linear)"/>
<path d="M152.168 131.939C152.049 129.001 151.676 126.08 151.054 123.207C150.566 120.822 150.21 118.413 149.986 115.989C149.742 112.334 150.459 109.765 152.198 108.16C152.341 107.981 152.523 107.837 152.729 107.738C152.935 107.639 153.16 107.587 153.388 107.587C153.617 107.587 153.842 107.639 154.048 107.738C154.254 107.837 154.436 107.981 154.579 108.16L154.731 107.976C155.027 107.602 155.424 107.32 155.875 107.166C156.339 107.042 156.833 107.108 157.248 107.349C157.539 107.528 157.793 107.762 157.996 108.037C158.235 107.883 158.503 107.779 158.784 107.732C159.065 107.685 159.352 107.695 159.628 107.762C160.681 108.022 161.398 109.001 161.703 110.606C162.191 114.443 161.9 118.339 160.849 122.06C160.012 125.21 159.652 128.467 159.781 131.724L158.637 131.831C158.492 128.457 158.857 125.08 159.72 121.815C160.529 118.023 161.246 114.429 160.59 110.836C160.452 110.178 160.132 109.062 159.354 108.878C159.215 108.845 159.071 108.843 158.931 108.873C158.791 108.902 158.66 108.961 158.545 109.047C158.63 109.244 158.696 109.449 158.744 109.658C159.02 110.804 159.153 111.981 159.14 113.16C159.151 113.343 159.123 113.527 159.057 113.699C158.991 113.87 158.89 114.025 158.759 114.154C158.642 114.257 158.501 114.329 158.348 114.361C158.196 114.393 158.038 114.385 157.889 114.338C157.631 114.224 157.405 114.048 157.229 113.827C157.054 113.606 156.935 113.346 156.882 113.068C156.523 111.999 156.455 110.854 156.684 109.75C156.78 109.414 156.935 109.098 157.142 108.817C157.021 108.626 156.859 108.464 156.669 108.343C156.591 108.31 156.508 108.293 156.425 108.293C156.341 108.293 156.258 108.31 156.18 108.343C155.953 108.446 155.754 108.604 155.601 108.802C155.516 108.897 155.439 108.999 155.372 109.108C156.321 110.395 156.742 111.999 156.547 113.588C156.44 114.368 155.967 115.117 155.143 115.117C154.86 115.081 154.592 114.966 154.371 114.785C154.15 114.604 153.984 114.364 153.892 114.093C153.534 113.33 153.349 112.497 153.349 111.654C153.349 110.811 153.534 109.978 153.892 109.215C153.617 108.955 153.45 108.894 153.373 108.909C153.215 108.957 153.073 109.047 152.961 109.169C151.512 110.515 150.886 112.839 151.115 116.081C151.336 118.459 151.687 120.822 152.168 123.161C152.799 126.105 153.177 129.098 153.297 132.107L152.168 131.939ZM154.777 110.148C154.408 111.239 154.463 112.429 154.929 113.481C155.051 113.756 155.158 113.833 155.189 113.833C155.322 113.686 155.398 113.496 155.402 113.298C155.543 112.207 155.323 111.101 154.777 110.148ZM157.721 110.27C157.647 111.101 157.74 111.938 157.996 112.732C157.978 111.905 157.887 111.081 157.721 110.27Z" fill="#EB7DB1"/>
<path d="M141.793 151.864C141.793 151.864 133.57 169.71 134.394 172.646C135.318 175.123 136.554 177.471 138.071 179.634L145.699 188.366C145.699 188.366 149.62 198.841 152.625 199.758C155.631 200.676 159.674 201.593 159.674 201.593C159.674 201.593 145.302 181.087 143.899 178.747C142.495 176.408 145.974 163.241 146.95 161.36C147.639 160.248 148.153 159.036 148.476 157.767C148.628 156.987 155.707 150.61 156.333 147.491C156.958 144.371 157.065 141.374 155.707 140.487C154.349 139.6 152.87 138.3 152.87 138.3L143.182 148.836L141.793 151.864Z" fill="#FFBBAB"/>
<path d="M140.405 169.373C140.15 170.754 140.068 172.162 140.161 173.563C140.276 174.859 140.579 176.132 141.061 177.34C142.323 180.05 144.053 182.514 146.172 184.619C148.064 186.709 149.976 188.748 151.909 190.736C153.602 184.772 151.512 178.502 149.925 172.493C148.339 166.483 147.927 161.314 150.093 155.672C147.957 155.427 145.058 159.372 143.991 160.963C142.188 163.465 140.963 166.338 140.405 169.373Z" fill="url(#paint9_linear)"/>
<path d="M158.82 153.21C158.82 153.21 147.621 159.893 147.042 161.361C146.462 162.829 142.648 172.799 143.121 177.57C143.594 182.341 160.498 202.221 160.498 202.221C160.498 202.221 196.671 222.712 203.613 221.733C210.554 220.754 218.991 208.964 211.805 201.594C204.62 194.223 188.387 191.119 184.939 190.797C181.491 190.476 172.444 186.73 166.509 183.289C160.574 179.848 154.487 175.934 154.487 175.934C154.487 175.934 152.961 168.288 152.961 167.63C152.961 166.973 159.827 162.936 160.773 159.648C161.718 156.36 161.001 153.959 158.82 153.21Z" fill="#FFBBAB"/>
<path opacity="0.21" d="M149.605 146.802C150.077 146.785 150.54 146.665 150.962 146.45C151.729 146.105 152.46 145.685 153.144 145.196C153.392 145.069 153.611 144.894 153.79 144.68C153.969 144.467 154.104 144.219 154.186 143.953C154.269 143.687 154.297 143.407 154.27 143.129C154.243 142.852 154.161 142.582 154.029 142.337C153.645 141.041 153.134 139.786 152.503 138.59C152.625 138.82 150.871 140.777 150.657 141.037C149.986 141.878 149.269 142.689 148.537 143.484C147.804 144.279 147.316 144.493 147.621 145.395C147.777 145.799 148.048 146.148 148.401 146.399C148.754 146.649 149.173 146.789 149.605 146.802Z" fill="white"/>
<path opacity="0.21" d="M153.953 160.075C154.769 160.282 155.625 160.264 156.431 160.021C157.237 159.779 157.962 159.322 158.53 158.699C158.781 158.491 158.984 158.23 159.125 157.935C159.225 157.68 159.287 157.412 159.308 157.139C159.405 156.086 159.204 155.026 158.728 154.081C158.089 154.216 157.482 154.476 156.943 154.846L154.777 156.1C153.994 156.424 153.259 156.857 152.595 157.384C151.771 158.393 153.053 159.816 153.953 160.075Z" fill="white"/>
<path d="M157.859 201.012C159.009 202.175 160.289 203.201 161.673 204.071L161.093 203.872C159.94 203.008 158.858 202.051 157.859 201.012Z" fill="url(#paint10_linear)"/>
<path d="M229.152 231.351C225.005 232.696 220.762 233.718 216.458 234.409H216.229C213.27 231.871 210.005 228.293 207.747 226.565C207.503 226.381 207.289 226.213 207.076 226.075C200.653 221.717 192.902 218.888 185.9 215.57C182.391 213.903 178.988 212.053 175.541 210.263C183.504 213.459 191.484 216.579 199.63 219.224C202.346 220.111 205.504 220.891 207.899 219.316C209.236 218.277 210.286 216.914 210.951 215.356C212.629 212.129 214.124 208.704 216.031 205.63C216.809 206.746 215.634 208.459 215.329 209.682C214.866 211.509 214.726 213.404 214.917 215.279C215.157 217.455 215.828 219.561 216.892 221.473C217.956 223.385 219.39 225.064 221.112 226.412C223.553 228.308 226.604 229.501 229.152 231.351Z" fill="url(#paint11_linear)"/>
<path d="M107.985 151.222C106.498 150.886 105.075 150.307 103.775 149.509L106.963 144.31C107.697 144.752 108.494 145.077 109.328 145.273L107.985 151.222ZM115.827 150.732L113.752 144.998C114.558 144.705 115.311 144.281 115.98 143.744L119.779 148.5C118.594 149.458 117.259 150.213 115.827 150.732ZM98.4959 143.667C97.8265 142.292 97.3932 140.813 97.2144 139.294L103.317 138.545C103.429 139.399 103.677 140.23 104.049 141.007L98.4959 143.667ZM124.295 142.046L118.543 140.104C118.811 139.285 118.95 138.428 118.955 137.566H125.057C125.05 139.091 124.792 140.605 124.295 142.046ZM103.958 134.156L98.4806 131.51C99.1404 130.14 100.016 128.885 101.074 127.794L105.422 132.045C104.829 132.67 104.335 133.381 103.958 134.156ZM117.689 133.269C117.217 132.55 116.635 131.91 115.965 131.373L119.748 126.602C120.939 127.545 121.97 128.676 122.799 129.95L117.689 133.269ZM109.297 129.874L107.924 123.925C109.425 123.586 110.97 123.488 112.501 123.635L111.922 129.752C111.046 129.648 110.16 129.689 109.297 129.874Z" fill="white"/>
<path d="M204.207 125.363C202.956 125.085 201.76 124.599 200.668 123.926L201.568 122.397C202.51 122.975 203.541 123.394 204.619 123.635L204.207 125.363ZM210.844 124.904L210.249 123.375C211.272 123.025 212.231 122.508 213.087 121.846L214.17 123.207C213.163 123.954 212.039 124.528 210.844 124.904ZM196.213 118.941C195.662 117.776 195.297 116.533 195.13 115.255L196.854 115.041C196.999 116.104 197.313 117.136 197.785 118.1L196.213 118.941ZM217.999 117.58L216.367 117.029C216.708 115.982 216.883 114.888 216.886 113.787H218.625C218.626 115.094 218.409 116.391 217.984 117.626L217.999 117.58ZM197.769 109.444L196.244 108.695C196.801 107.533 197.543 106.469 198.441 105.545L199.692 106.753C198.895 107.549 198.24 108.474 197.754 109.49L197.769 109.444ZM215.268 108.313C214.673 107.392 213.931 106.576 213.071 105.897L214.155 104.536C215.16 105.334 216.031 106.289 216.733 107.365L215.268 108.313ZM204.589 103.97L204.192 102.272C205.448 101.993 206.74 101.91 208.022 102.028L207.793 103.817C206.711 103.709 205.619 103.776 204.558 104.016L204.589 103.97Z" fill="#EB7DB1"/>
<path d="M94.4678 75.8783H92.3014L91.325 77.2852L96.6647 93.0817L98.1904 93.9075C98.1904 93.9075 107.604 93.357 114.972 98.0057C115.96 98.5414 117.068 98.8151 118.192 98.8009C119.458 98.5715 124.294 96.8741 124.294 96.8741C124.294 96.8741 126.415 93.6475 128.169 91.5219C130.647 89.09 133.293 86.8364 136.087 84.7782C136.087 84.7782 132.517 64.44 131.678 63.1402C130.839 61.8404 129.847 62.2532 129.847 62.2532L113.721 76.3218L94.4678 75.8783Z" fill="#EB7DB1"/>
<path d="M129.985 67.0243C130.594 68.7725 131.009 70.5828 131.221 72.4223L132.747 82.3162C132.876 82.8177 132.876 83.3439 132.747 83.8454C132.404 84.4977 131.872 85.0308 131.221 85.3745C129.35 86.7186 127.789 88.45 126.644 90.4515C125.362 92.6841 124.264 95.5284 121.762 96.1248C120.236 96.5071 118.268 95.8189 116.91 96.767C111.886 93.6048 106.061 91.9542 100.128 92.0112L95.0479 78.1415C94.7166 77.3953 94.5451 76.5879 94.5444 75.7712C94.6512 74.0585 96.2074 72.5293 95.7955 70.8625C103.291 73.7419 111.22 75.3242 119.245 75.5419C119.481 75.6013 119.727 75.6071 119.966 75.5588C120.204 75.5105 120.429 75.4093 120.623 75.2627C120.818 75.1161 120.977 74.9278 121.09 74.7115C121.202 74.4952 121.265 74.2564 121.274 74.0127C121.762 71.9941 122.204 69.9756 122.616 67.8959C122.906 66.4585 122.86 62.1767 123.791 61.1522C125.988 58.7666 129.192 64.9598 129.985 67.0243Z" fill="white"/>
<path d="M129.985 67.0243C130.594 68.7725 131.009 70.5828 131.221 72.4223L132.747 82.3162C132.876 82.8177 132.876 83.3439 132.747 83.8454C132.404 84.4977 131.872 85.0308 131.221 85.3745C129.35 86.7186 127.789 88.45 126.644 90.4515C125.362 92.6841 124.264 95.5284 121.762 96.1248C120.236 96.5071 118.268 95.8189 116.91 96.767C111.886 93.6048 106.061 91.9542 100.128 92.0112L95.0479 78.1415C94.7166 77.3953 94.5451 76.5879 94.5444 75.7712C94.6512 74.0585 96.2074 72.5293 95.7955 70.8625C103.291 73.7419 111.22 75.3242 119.245 75.5419C119.481 75.6013 119.727 75.6071 119.966 75.5588C120.204 75.5105 120.429 75.4093 120.623 75.2627C120.818 75.1161 120.977 74.9278 121.09 74.7115C121.202 74.4952 121.265 74.2564 121.274 74.0127C121.762 71.9941 122.204 69.9756 122.616 67.8959C122.906 66.4585 122.86 62.1767 123.791 61.1522C125.988 58.7666 129.192 64.9598 129.985 67.0243Z" fill="url(#paint12_linear)"/>
<path d="M95.5359 70.7099C98.3641 76.471 100.628 82.4936 102.294 88.6932C102.309 88.9137 102.378 89.1271 102.496 89.3137C102.614 89.5003 102.777 89.6541 102.971 89.7608C103.164 89.8675 103.38 89.9236 103.601 89.9241C103.821 89.9246 104.038 89.8694 104.232 89.7636C106.942 89.3394 109.711 89.4891 112.359 90.2028C115.008 90.9166 117.478 92.1787 119.611 93.9077C121.798 89.3496 124.856 85.266 128.612 81.8883C128.9 81.6901 129.102 81.3893 129.176 81.0472C129.192 80.849 129.161 80.6498 129.085 80.4661C126.821 73.43 125.508 66.1218 125.179 58.7363C119.961 62.5899 114.317 67.1469 113.416 73.5848C107.741 71.5204 101.623 69.7312 95.5359 70.7099Z" fill="white"/>
<path opacity="0.3" d="M119.549 63.2931L122.601 60.6782L127.178 81.2153C127.178 81.2153 118.726 89.2741 119.549 93.9075L113.416 73.5846C113.416 73.5846 116.468 65.9081 119.549 63.2931Z" fill="#EB7DB1"/>
<path d="M113.416 73.5848L119.61 93.9077C119.61 93.9077 122.662 80.6955 124.767 76.322L117.78 58.7363C117.78 58.7363 112.699 67.5139 113.416 73.5848Z" fill="white"/>
<path d="M198.837 80.4049C199.323 80.0263 199.904 79.7883 200.515 79.7168C200.853 79.7333 201.186 79.7951 201.507 79.9003L219.372 85.2372C214.49 91.8127 206.237 94.9322 200.47 100.743C200.201 101.047 199.881 101.301 199.524 101.492C199.095 101.597 198.651 101.614 198.216 101.543C197.781 101.472 197.364 101.315 196.991 101.08C193.97 99.7056 190.743 98.8427 187.441 98.5258C186.113 98.3882 183.718 98.9387 183.688 97.5472C183.688 96.4614 185.396 94.4888 185.976 93.5101C189.309 88.2943 193.689 83.8313 198.837 80.4049Z" fill="white"/>
<path d="M199.829 131.587C202.107 136.447 205.077 140.949 208.647 144.952C207.419 146.003 205.969 146.761 204.406 147.169C199.903 148.831 195.786 151.396 192.307 154.708C190.782 151.864 184.008 142.475 185.427 139.585C186.098 138.239 200.164 132.306 199.829 131.587Z" fill="white"/>
<path d="M104.507 159.189C109.084 159.464 113.66 159.907 118.237 160.55C118.654 160.569 119.056 160.707 119.397 160.947C119.677 161.238 119.877 161.596 119.977 161.987C122.017 167.993 125.151 173.567 129.222 178.426C124.645 181.24 111.418 187.081 107.009 181.484C105.33 179.282 103.164 159.112 104.507 159.189Z" fill="white"/>
</g>
<defs>
<linearGradient id="paint0_linear" x1="105.178" y1="94.5346" x2="268.2" y2="78.9019" gradientUnits="userSpaceOnUse">
<stop offset="0.01"/>
<stop offset="0.13" stop-opacity="0.69"/>
<stop offset="0.25" stop-opacity="0.32"/>
<stop offset="1" stop-opacity="0"/>
</linearGradient>
<linearGradient id="paint1_linear" x1="4956.92" y1="8044.7" x2="-761.893" y2="7972.68" gradientUnits="userSpaceOnUse">
<stop offset="0.01"/>
<stop offset="0.13" stop-opacity="0.69"/>
<stop offset="0.25" stop-opacity="0.32"/>
<stop offset="1" stop-opacity="0"/>
</linearGradient>
<linearGradient id="paint2_linear" x1="170.338" y1="169.847" x2="183.329" y2="152.979" gradientUnits="userSpaceOnUse">
<stop offset="0.01"/>
<stop offset="0.08" stop-opacity="0.69"/>
<stop offset="0.21" stop-opacity="0.32"/>
<stop offset="1" stop-opacity="0"/>
</linearGradient>
<linearGradient id="paint3_linear" x1="7651.08" y1="3514.84" x2="6802.05" y2="9956.27" gradientUnits="userSpaceOnUse">
<stop offset="0.01"/>
<stop offset="0.08" stop-opacity="0.69"/>
<stop offset="0.21" stop-opacity="0.32"/>
<stop offset="1" stop-opacity="0"/>
</linearGradient>
<linearGradient id="paint4_linear" x1="5615.17" y1="4850.28" x2="5505.1" y2="6436.39" gradientUnits="userSpaceOnUse">
<stop offset="0.01"/>
<stop offset="0.08" stop-opacity="0.69"/>
<stop offset="0.21" stop-opacity="0.32"/>
<stop offset="1" stop-opacity="0"/>
</linearGradient>
<linearGradient id="paint5_linear" x1="5456.66" y1="4690.33" x2="3213.09" y2="3543.54" gradientUnits="userSpaceOnUse">
<stop offset="0.01"/>
<stop offset="0.13" stop-opacity="0.69"/>
<stop offset="0.25" stop-opacity="0.32"/>
<stop offset="1" stop-opacity="0"/>
</linearGradient>
<linearGradient id="paint6_linear" x1="2207.71" y1="477.379" x2="2207.68" y2="520.704" gradientUnits="userSpaceOnUse">
<stop offset="0.01"/>
<stop offset="0.13" stop-opacity="0.69"/>
<stop offset="0.25" stop-opacity="0.32"/>
<stop offset="1" stop-opacity="0"/>
</linearGradient>
<linearGradient id="paint7_linear" x1="1991.6" y1="453.783" x2="1991.09" y2="493.34" gradientUnits="userSpaceOnUse">
<stop offset="0.01"/>
<stop offset="0.13" stop-opacity="0.69"/>
<stop offset="0.25" stop-opacity="0.32"/>
<stop offset="1" stop-opacity="0"/>
</linearGradient>
<linearGradient id="paint8_linear" x1="1746.16" y1="424.555" x2="1745.91" y2="452.061" gradientUnits="userSpaceOnUse">
<stop offset="0.01"/>
<stop offset="0.13" stop-opacity="0.69"/>
<stop offset="0.25" stop-opacity="0.32"/>
<stop offset="1" stop-opacity="0"/>
</linearGradient>
<linearGradient id="paint9_linear" x1="1621.47" y1="4392.75" x2="1278.47" y2="4371.17" gradientUnits="userSpaceOnUse">
<stop offset="0.01"/>
<stop offset="0.08" stop-opacity="0.69"/>
<stop offset="0.21" stop-opacity="0.32"/>
<stop offset="1" stop-opacity="0"/>
</linearGradient>
<linearGradient id="paint10_linear" x1="608.8" y1="626.892" x2="610.633" y2="622.959" gradientUnits="userSpaceOnUse">
<stop offset="0.01"/>
<stop offset="0.08" stop-opacity="0.69"/>
<stop offset="0.21" stop-opacity="0.32"/>
<stop offset="1" stop-opacity="0"/>
</linearGradient>
<linearGradient id="paint11_linear" x1="7713.8" y1="4831.92" x2="8105.38" y2="3569.5" gradientUnits="userSpaceOnUse">
<stop offset="0.01"/>
<stop offset="0.08" stop-opacity="0.69"/>
<stop offset="0.21" stop-opacity="0.32"/>
<stop offset="1" stop-opacity="0"/>
</linearGradient>
<linearGradient id="paint12_linear" x1="3800.74" y1="2935.52" x2="3190.09" y2="1136.16" gradientUnits="userSpaceOnUse">
<stop offset="0.01"/>
<stop offset="0.13" stop-opacity="0.69"/>
<stop offset="0.25" stop-opacity="0.32"/>
<stop offset="1" stop-opacity="0"/>
</linearGradient>
<clipPath id="clip0">
<rect width="293" height="236" fill="white"/>
</clipPath>
</defs>
</svg>
