<svg width="20" height="18" viewBox="0 0 20 18" fill="none" xmlns="http://www.w3.org/2000/svg">
<path d="M14.5857 0.249977C15.3039 0.249977 15.9776 0.389951 16.6068 0.669899C17.236 0.949847 17.7858 1.32745 18.2561 1.80271C18.7265 2.27797 19.0951 2.84112 19.362 3.49216C19.629 4.14321 19.7656 4.83331 19.772 5.56248C19.772 6.27211 19.6417 6.95245 19.3811 7.60349C19.1205 8.25453 18.7455 8.82745 18.2561 9.32224L10.0095 17.7597L1.76289 9.32224C1.27985 8.82745 0.90804 8.25453 0.647454 7.60349C0.386867 6.95245 0.253396 6.27211 0.24704 5.56248C0.24704 4.83331 0.380511 4.14646 0.647454 3.50193C0.914396 2.8574 1.28621 2.29425 1.76289 1.81248C2.23958 1.33071 2.78935 0.949847 3.41222 0.669899C4.03508 0.389951 4.70879 0.249977 5.43335 0.249977C5.96088 0.249977 6.43121 0.311826 6.84433 0.435524C7.25746 0.559222 7.63881 0.728492 7.98837 0.943336C8.33794 1.15818 8.6748 1.42185 8.99894 1.73435C9.32309 2.04685 9.65994 2.38214 10.0095 2.74021C10.3591 2.37563 10.6928 2.04034 11.0105 1.73435C11.3283 1.42836 11.6652 1.16795 12.0211 0.953102C12.377 0.738258 12.7616 0.565732 13.1747 0.435524C13.5878 0.305315 14.0581 0.243466 14.5857 0.249977ZM17.3886 8.43357C17.7636 8.04946 18.0496 7.61 18.2466 7.11521C18.4436 6.62042 18.5421 6.10284 18.5421 5.56248C18.5421 4.99607 18.4404 4.46873 18.2371 3.98045C18.0337 3.49216 17.754 3.06573 17.3981 2.70115C17.0422 2.33657 16.6227 2.05336 16.1397 1.85154C15.6566 1.64972 15.1386 1.54555 14.5857 1.53904C14.0518 1.53904 13.5783 1.62367 13.1652 1.79295C12.752 1.96222 12.3707 2.19008 12.0211 2.47654C11.6715 2.763 11.3379 3.07875 11.0201 3.4238C10.7023 3.76886 10.3654 4.13018 10.0095 4.50779C9.6663 4.15623 9.33262 3.80141 9.00848 3.44334C8.68433 3.08526 8.34748 2.763 7.99791 2.47654C7.64834 2.19008 7.26382 1.95571 6.84433 1.77341C6.42485 1.59112 5.95453 1.49998 5.43335 1.49998C4.88676 1.49998 4.37194 1.60414 3.8889 1.81248C3.40586 2.02081 2.98638 2.31052 2.63046 2.68162C2.27453 3.05271 1.9917 3.48565 1.78196 3.98045C1.57222 4.47524 1.46735 5.00258 1.46735 5.56248C1.46735 6.10284 1.56586 6.62042 1.76289 7.11521C1.95992 7.61 2.24911 8.04946 2.63046 8.43357L10.0095 15.9922L17.3886 8.43357Z" fill="white"/>
</svg>
