<svg width="413" height="312" viewBox="0 0 413 312" fill="none" xmlns="http://www.w3.org/2000/svg">
<g filter="url(#filter0_d)">
<path d="M201.059 289.359L29.9425 188.124C24.4909 185.024 19.824 180.033 25.1311 176.757L196.867 77.6605C199.448 76.0588 203.361 75.0151 205.973 76.5341L385.628 180.901C391.08 184.063 392.051 192.918 386.599 196.08L223.619 289.194C220.199 291.186 216.318 292.249 212.361 292.278C208.404 292.307 204.508 291.301 201.059 289.359Z" fill="url(#paint0_linear)"/>
<path opacity="0.32" d="M217.723 250.899L251.465 270.284L303.462 238.54L268.058 218.266" fill="url(#paint1_linear)"/>
<path d="M119.078 11.4755C119.489 11.4755 119.883 11.3122 120.173 11.0215C120.464 10.7308 120.627 10.3366 120.627 9.92549C120.627 9.5144 120.464 9.12015 120.173 8.82947C119.883 8.53879 119.489 8.37549 119.078 8.37549C118.668 8.37549 118.274 8.53879 117.983 8.82947C117.693 9.12015 117.53 9.5144 117.53 9.92549C117.53 10.3366 117.693 10.7308 117.983 11.0215C118.274 11.3122 118.668 11.4755 119.078 11.4755Z" fill="white"/>
<path d="M143.414 179.775L144.189 180.229L221.244 225.2L223.371 222.265L229.742 220.715L229.772 218.194L236.277 216.913L237.671 214.267L242.297 213.823L244.434 210.361L247.975 209.576L250.371 206.931L255.719 206.135L258.115 202.487L180.718 158.219L177.074 157.506L176.134 160.865L173.811 159.056L172.087 162.446H168.814L168.019 165.556L163.765 165.98L163.434 168.201L159.18 169.049L158.148 171.797L155.05 171.281L153.894 174.37L149.196 173.616L148.68 176.003L145.242 177.119" fill="white"/>
<path d="M286.013 230.067V233.064L285.104 231.565L286.013 230.067Z" fill="#756373"/>
<path d="M160.42 213.12V216.003L162.743 214.453L160.42 213.12Z" fill="#756373"/>
<path d="M162.299 219.124L234.502 260.519C235.746 261.24 237.158 261.62 238.595 261.62C240.033 261.62 241.445 261.24 242.689 260.519L284.175 236.184C284.741 235.857 285.211 235.386 285.538 234.819C285.864 234.252 286.036 233.609 286.036 232.955C286.036 232.301 285.864 231.658 285.538 231.091C285.211 230.524 284.741 230.053 284.175 229.726L211.663 187.814C210.577 187.18 209.342 186.846 208.085 186.846C206.828 186.846 205.593 187.18 204.507 187.814L162.309 212.614C161.73 212.937 161.248 213.409 160.912 213.98C160.576 214.552 160.398 215.203 160.397 215.866C160.396 216.529 160.572 217.181 160.906 217.753C161.24 218.326 161.721 218.799 162.299 219.124Z" fill="#513F2C"/>
<path d="M162.299 216.251L234.501 257.647C235.745 258.368 237.158 258.748 238.595 258.748C240.033 258.748 241.445 258.368 242.689 257.647L284.175 233.312C284.741 232.984 285.211 232.513 285.537 231.946C285.864 231.38 286.036 230.737 286.036 230.083C286.036 229.428 285.864 228.785 285.537 228.219C285.211 227.652 284.741 227.181 284.175 226.853L211.662 184.9C210.576 184.266 209.342 183.933 208.085 183.933C206.828 183.933 205.593 184.266 204.507 184.9L162.309 209.7C161.72 210.02 161.228 210.493 160.885 211.069C160.542 211.644 160.361 212.302 160.36 212.973C160.359 213.643 160.538 214.301 160.879 214.878C161.221 215.455 161.711 215.93 162.299 216.251Z" fill="#F39AC4"/>
<path d="M170.631 212.707L183.31 220.126C183.613 220.312 183.961 220.41 184.317 220.41C184.672 220.41 185.02 220.312 185.323 220.126L192.386 215.641C192.546 215.542 192.678 215.404 192.769 215.239C192.861 215.075 192.909 214.89 192.909 214.701C192.909 214.513 192.861 214.327 192.769 214.163C192.678 213.998 192.546 213.86 192.386 213.761L179.097 206.114C178.82 205.954 178.502 205.877 178.182 205.892C177.862 205.907 177.553 206.012 177.29 206.197L170.59 210.898C170.447 211.004 170.332 211.142 170.254 211.301C170.176 211.46 170.137 211.636 170.141 211.813C170.145 211.991 170.192 212.164 170.277 212.32C170.362 212.475 170.484 212.608 170.631 212.707Z" fill="white"/>
<path d="M231.91 245.402C235.605 245.402 238.6 243.292 238.6 240.69C238.6 238.087 235.605 235.978 231.91 235.978C228.215 235.978 225.219 238.087 225.219 240.69C225.219 243.292 228.215 245.402 231.91 245.402Z" fill="#FF4700"/>
<path d="M239.117 249.483C242.812 249.483 245.807 247.373 245.807 244.771C245.807 242.169 242.812 240.059 239.117 240.059C235.421 240.059 232.426 242.169 232.426 244.771C232.426 247.373 235.421 249.483 239.117 249.483Z" fill="#FFDF24"/>
<path d="M185.138 196.339L266.447 243.666L279.012 236.298L196.66 189.55L185.138 196.339Z" fill="#513F2C"/>
<path opacity="0.32" d="M355.325 211.405C361.882 206.824 368.826 202.824 376.078 199.449L339.073 183.949L326.869 192.867C335.47 198.385 344.101 203.841 352.599 209.493C353.518 210.144 354.416 210.733 355.325 211.405Z" fill="url(#paint2_linear)"/>
<path d="M348.572 161.34C348.502 161.048 348.372 160.773 348.19 160.534C347.857 160.128 347.459 159.779 347.013 159.501C341.014 155.44 332.703 154.334 326.363 158.292C324.918 159.201 322.76 161.257 323.617 163.2C324.112 164.326 325.62 164.988 326.714 165.442C330.202 166.825 333.847 167.776 337.566 168.274C338.908 168.501 340.271 168.728 341.623 168.852C342.559 168.943 343.502 168.796 344.367 168.426C345.231 168.056 345.988 167.474 346.569 166.734C347.488 165.535 348.985 163.107 348.572 161.34Z" fill="#754C24"/>
<path d="M323.451 162.311C323.451 162.311 328.924 167.271 338.381 166.548C347.839 165.825 348.572 161.381 348.572 161.381C348.572 161.381 346.125 192.753 344.834 193.291C343.544 193.828 338.712 196.163 336.378 196.339C334.045 196.515 326.673 193.559 326.487 192.743C326.301 191.927 323.451 162.311 323.451 162.311Z" fill="#F3B496"/>
<path d="M325.175 116.586C324.886 115.997 323.988 116.514 324.287 117.103C330.761 130.164 332.021 144.869 333.188 159.149C333.239 159.8 334.272 159.811 334.22 159.149C333.033 144.672 331.732 129.823 325.175 116.586Z" fill="#A27CEF"/>
<path d="M324.35 116.7C324.35 116.7 326.156 123.479 324.288 126.868C322.419 130.257 320.88 130.929 323.111 135.135C325.341 139.34 331.309 139.909 331.701 143.133C332.093 146.357 328.841 122.466 324.35 116.7Z" fill="#A27CEF"/>
<path d="M345.051 128.945C340.065 139.38 337.255 150.723 336.791 162.28C336.791 163.086 338.02 163.076 338.051 162.28C338.488 150.942 341.225 139.812 346.094 129.565C346.476 128.852 345.392 128.222 345.051 128.945Z" fill="#A27CEF"/>
<path d="M345.888 132.252C345.888 131.57 345.733 130.185 345.805 129.038L345.082 129.493C342.625 135.476 338.949 149.529 337.855 153.828C339.352 150.604 345.475 150.159 347.271 145.561C348.064 143.609 348.101 141.432 347.374 139.454C346.488 137.151 345.986 134.718 345.888 132.252Z" fill="#A27CEF"/>
<path opacity="0.32" d="M72.1304 193.983L106.698 213.12L178.055 171.053L145.551 152.443" fill="url(#paint3_linear)"/>
<path d="M69.6111 146.201V190.439C69.613 191.103 69.7904 191.756 70.1253 192.33C70.4602 192.904 70.9408 193.379 71.5183 193.707C72.0958 194.035 72.7497 194.205 73.4138 194.199C74.078 194.193 74.7287 194.012 75.3002 193.673L140.895 154.592C141.454 154.258 141.918 153.784 142.24 153.218C142.562 152.651 142.732 152.01 142.733 151.358V106.304C142.732 105.641 142.557 104.99 142.225 104.416C141.892 103.842 141.415 103.366 140.84 103.035C140.265 102.705 139.613 102.533 138.95 102.535C138.287 102.538 137.637 102.715 137.064 103.049L72.7809 140.663C71.8156 141.229 71.0152 142.038 70.4591 143.01C69.903 143.981 69.6107 145.082 69.6111 146.201Z" fill="#D5C1FC"/>
<path d="M72.4297 147.297V191.534C72.4316 192.199 72.609 192.851 72.9439 193.425C73.2788 193.999 73.7594 194.474 74.3369 194.803C74.9144 195.131 75.5683 195.301 76.2324 195.295C76.8966 195.289 77.5473 195.107 78.1188 194.768L143.713 155.688C144.273 155.354 144.737 154.88 145.059 154.313C145.381 153.746 145.551 153.106 145.551 152.454V107.4C145.551 106.737 145.376 106.085 145.043 105.511C144.711 104.937 144.233 104.461 143.658 104.131C143.083 103.801 142.432 103.628 141.769 103.631C141.106 103.633 140.455 103.811 139.883 104.145L75.5995 141.758C74.6342 142.325 73.8338 143.134 73.2777 144.105C72.7216 145.077 72.4293 146.177 72.4297 147.297Z" fill="#3D467F"/>
<path d="M140.381 150.085C141.773 146.549 140.958 142.916 138.56 141.97C136.163 141.024 133.09 143.124 131.697 146.66C130.305 150.196 131.12 153.829 133.518 154.775C135.916 155.721 138.988 153.621 140.381 150.085Z" fill="#FBF472"/>
<path d="M133.729 153.786C135.122 150.25 134.307 146.617 131.909 145.671C129.511 144.725 126.438 146.825 125.046 150.361C123.653 153.897 124.468 157.53 126.866 158.476C129.264 159.422 132.337 157.322 133.729 153.786Z" fill="#E2347C"/>
<path d="M80.6073 144.548C81.4333 144.073 81.9909 144.321 82.1664 145.22L81.5366 145.799C81.3714 145.303 81.0616 145.179 80.6073 145.437C80.2647 145.647 79.9946 145.957 79.8329 146.326C79.6185 146.792 79.5125 147.3 79.5232 147.814C79.4728 148.214 79.5802 148.618 79.8226 148.94C79.93 149.029 80.0652 149.078 80.2046 149.078C80.3441 149.078 80.4792 149.029 80.5867 148.94C80.8343 148.779 81.0458 148.568 81.2076 148.321C81.3693 148.073 81.4779 147.795 81.5262 147.504L82.1561 147.359C82.0897 147.868 81.9095 148.355 81.6288 148.784C81.3481 149.214 80.9743 149.574 80.535 149.839C80.3536 149.98 80.1301 150.057 79.9001 150.057C79.67 150.057 79.4465 149.98 79.2651 149.839C79.0678 149.617 78.9206 149.356 78.8333 149.072C78.746 148.789 78.7207 148.49 78.7591 148.196C78.7504 147.417 78.9311 146.647 79.2857 145.954C79.5814 145.367 80.0404 144.879 80.6073 144.548Z" fill="white"/>
<path d="M84.6032 145.179L85.6357 146.894L84.851 147.349L83.8185 145.695L83.4468 145.902V148.134L82.7448 148.537V143.37L84.1283 142.575C84.8614 142.151 85.2744 142.502 85.2744 143.391C85.2913 144.052 85.0506 144.693 84.6032 145.179ZM84.1696 144.621C84.3169 144.539 84.4378 144.416 84.5183 144.268C84.5987 144.12 84.6353 143.952 84.6239 143.784C84.6239 143.391 84.4759 143.281 84.1799 143.453L83.4985 143.846V145.013L84.1799 144.621" fill="white"/>
<path d="M88.5059 140.094V140.983L86.8642 141.913L86.8539 142.998L88.1651 142.254V143.143L86.8539 143.887L86.8435 145.313L88.5368 144.352V145.24L86.1311 146.604L86.1621 141.427L88.5059 140.094Z" fill="white"/>
<path d="M90.385 139.02C91.2832 138.514 92.1505 138.793 92.1402 140.601C92.1736 141.302 92.028 142 91.7173 142.629C91.4066 143.258 90.941 143.798 90.3643 144.197L89.1873 144.869V139.702L90.385 139.02ZM90.9941 142.616C91.2882 142.135 91.4354 141.578 91.4175 141.014C91.4175 140.353 91.2626 139.981 91.0045 139.888C90.8605 139.851 90.7103 139.846 90.5642 139.873C90.4181 139.9 90.2795 139.958 90.1578 140.043L89.8997 140.188V143.587L90.1578 143.443C90.5063 143.241 90.8005 142.957 91.0148 142.616" fill="white"/>
<path d="M93.4927 137.242L93.4617 142.419L92.7596 142.822L92.7803 137.645L93.4927 137.242Z" fill="white"/>
<path d="M96.8898 135.3V136.189L95.8367 136.788L95.816 141.076L95.1139 141.479L95.1346 137.191L94.0814 137.79L94.0917 136.902L96.8898 135.3Z" fill="white"/>
<path d="M100.328 133.233C101.154 132.758 101.712 133.006 101.887 133.905L101.257 134.484C101.092 133.988 100.782 133.864 100.328 134.122C99.9864 134.333 99.7164 134.643 99.5537 135.011C99.3392 135.477 99.2333 135.986 99.244 136.499C99.1936 136.899 99.301 137.303 99.5434 137.625C99.6517 137.712 99.7864 137.76 99.9254 137.76C100.064 137.76 100.199 137.712 100.307 137.625C100.555 137.464 100.767 137.253 100.928 137.006C101.09 136.759 101.199 136.48 101.247 136.189L101.877 136.044C101.812 136.546 101.637 137.027 101.364 137.452C101.09 137.877 100.726 138.236 100.297 138.503C100.116 138.645 99.8922 138.722 99.6621 138.722C99.4321 138.722 99.2086 138.645 99.0272 138.503C98.8299 138.282 98.6827 138.021 98.5954 137.737C98.5081 137.454 98.4828 137.155 98.5212 136.86C98.5117 136.081 98.6924 135.312 99.0478 134.618C99.3355 134.045 99.7794 133.565 100.328 133.233Z" fill="white"/>
<path d="M104.066 131.167L105.325 135.61L104.572 136.044L104.303 135.011L103.095 135.703L102.816 137.088L102.063 137.522L103.374 131.611L104.066 131.167ZM103.302 134.659L104.097 134.205L103.704 132.644L103.291 134.711" fill="white"/>
<path d="M107.628 132.025L108.66 133.74L107.876 134.195L106.843 132.541L106.482 132.748V134.98L105.78 135.383V130.216L107.153 129.431C107.886 129.007 108.299 129.359 108.299 130.247C108.313 130.904 108.073 131.541 107.628 132.025ZM107.194 131.467C107.339 131.385 107.457 131.264 107.536 131.117C107.614 130.971 107.65 130.806 107.638 130.64C107.638 130.247 107.494 130.134 107.205 130.309L106.523 130.702V131.87L107.205 131.477" fill="white"/>
<path d="M110.374 127.602C111.262 127.095 112.13 127.374 112.119 129.193C112.151 129.892 112.004 130.588 111.694 131.215C111.383 131.843 110.918 132.38 110.343 132.779L109.166 133.45V128.284L110.374 127.602ZM110.983 131.198C111.275 130.716 111.422 130.16 111.407 129.596C111.407 128.935 111.252 128.563 110.994 128.47C110.85 128.433 110.7 128.428 110.554 128.455C110.407 128.482 110.269 128.54 110.147 128.625L109.889 128.78V132.179L110.147 132.024C110.495 131.822 110.789 131.538 111.004 131.198" fill="white"/>
<path d="M80.2356 158.219V166.486C80.2343 166.835 80.3249 167.178 80.4984 167.481C80.6718 167.783 80.922 168.035 81.2236 168.21C81.5252 168.385 81.8675 168.477 82.2161 168.477C82.5648 168.478 82.9073 168.386 83.2092 168.212L94.7422 161.619C95.0524 161.45 95.3117 161.2 95.4932 160.897C95.6747 160.593 95.7719 160.247 95.7748 159.893V151.451C95.7742 151.098 95.6795 150.751 95.5005 150.447C95.3214 150.143 95.0644 149.892 94.7561 149.72C94.4478 149.549 94.0992 149.462 93.7465 149.471C93.3938 149.479 93.0496 149.581 92.7495 149.767L81.2165 156.535C80.922 156.708 80.6769 156.953 80.5051 157.248C80.3332 157.543 80.2404 157.878 80.2356 158.219Z" fill="#D1D1F5"/>
<path d="M100.287 151.245L100.555 151.09L100.214 156.256L99.6052 156.618L99.8633 152.753L99.1715 153.725L99.2438 152.722L100.287 151.245Z" fill="white"/>
<path d="M102.218 150.046H102.3C102.93 149.674 103.271 150.046 103.209 150.945C103.165 151.431 103.039 151.906 102.837 152.35L101.908 154.489L103.095 153.776L103.033 154.623L100.875 155.863V155.491L102.238 152.391C102.404 152.046 102.512 151.676 102.558 151.296C102.558 150.872 102.455 150.707 102.187 150.872C102.054 150.988 101.946 151.129 101.868 151.287C101.79 151.445 101.744 151.616 101.732 151.792L101.185 151.968C101.228 151.557 101.355 151.16 101.557 150.8C101.716 150.501 101.943 150.243 102.218 150.046Z" fill="white"/>
<path d="M104.076 148.971L106.007 147.814V148.144L105.108 150.263L105.243 150.159C105.759 149.86 106.038 150.283 105.986 151.193C105.958 151.702 105.82 152.199 105.583 152.65C105.411 153.002 105.156 153.307 104.84 153.538L104.737 153.6C104.427 153.797 104.169 153.807 103.983 153.652C103.873 153.538 103.791 153.401 103.743 153.25C103.694 153.1 103.681 152.94 103.704 152.784L104.293 152.319C104.293 152.774 104.499 152.918 104.788 152.753C104.959 152.609 105.097 152.431 105.193 152.229C105.289 152.028 105.341 151.808 105.346 151.585C105.346 150.996 105.191 150.81 104.881 150.996C104.778 151.071 104.687 151.162 104.613 151.265L104.406 150.893L105.129 149.178L104.096 149.818L104.076 148.971Z" fill="white"/>
<path d="M108.526 149.529L108.898 149.302L108.846 150.159L108.464 150.376L108.402 151.337L107.793 151.699L107.855 150.738L106.41 151.606V151.131L108.072 146.543L108.712 146.16L108.526 149.529ZM107.917 149.891L108.041 147.927L107.194 150.325L107.907 149.891" fill="white"/>
<path d="M112.687 147.039L113.069 146.811L113.007 147.669L112.635 147.886L112.573 148.857L111.974 149.219L112.036 148.258L110.591 149.126V148.661L112.264 144.073L112.904 143.691L112.687 147.039ZM112.078 147.4L112.212 145.427L111.365 147.834L112.078 147.4Z" fill="white"/>
<path d="M114.143 142.946L115.888 141.913L115.826 142.771L114.587 143.515L114.432 144.641C114.545 144.478 114.685 144.334 114.845 144.217H114.928C115.609 143.804 115.96 144.217 115.857 145.302C115.83 145.812 115.7 146.311 115.475 146.77C115.308 147.134 115.052 147.45 114.731 147.689L114.608 147.7C114.51 147.784 114.389 147.835 114.261 147.846C114.133 147.858 114.005 147.828 113.895 147.762C113.793 147.652 113.716 147.521 113.67 147.378C113.623 147.235 113.609 147.084 113.627 146.935L114.215 146.429C114.215 146.873 114.401 147.007 114.669 146.842C114.84 146.696 114.974 146.513 115.064 146.307C115.153 146.101 115.195 145.878 115.186 145.654C115.186 145.065 115.052 144.879 114.721 145.075H114.669C114.414 145.284 114.215 145.554 114.091 145.86L113.72 145.974L114.143 142.946Z" fill="white"/>
<path d="M118.428 142.626C118.538 142.772 118.615 142.94 118.656 143.118C118.697 143.296 118.7 143.48 118.665 143.66C118.63 144.148 118.493 144.623 118.263 145.055C118.091 145.413 117.836 145.725 117.519 145.964L117.426 146.026C117.318 146.118 117.181 146.168 117.039 146.168C116.897 146.168 116.76 146.118 116.652 146.026C116.537 145.883 116.455 145.716 116.412 145.537C116.369 145.359 116.366 145.173 116.404 144.993C116.429 144.639 116.505 144.291 116.631 143.959L117.788 140.663L118.459 140.26L117.602 142.616H117.684C117.994 142.43 118.242 142.43 118.428 142.626ZM118.056 144.011C118.056 143.494 117.891 143.308 117.591 143.494C117.43 143.631 117.3 143.8 117.209 143.99C117.118 144.181 117.069 144.389 117.065 144.6C117.065 145.096 117.24 145.292 117.53 145.117C117.692 144.978 117.823 144.808 117.916 144.616C118.008 144.423 118.06 144.214 118.066 144.001" fill="white"/>
<path d="M119.285 139.867L121.329 138.638L121.309 139.03L119.718 144.579L119.12 144.931L120.555 139.929L119.223 140.725L119.285 139.867Z" fill="white"/>
<path d="M124.571 138.989C124.86 139.072 124.984 139.392 124.943 139.96C124.915 140.436 124.777 140.9 124.54 141.314C124.37 141.644 124.127 141.931 123.828 142.151L123.735 142.213C123.627 142.298 123.495 142.344 123.358 142.344C123.221 142.344 123.089 142.298 122.981 142.213C122.871 142.079 122.792 141.923 122.751 141.755C122.71 141.586 122.707 141.411 122.744 141.242C122.771 140.699 122.954 140.175 123.27 139.733C123.074 139.609 122.992 139.33 123.022 138.886C123.051 138.476 123.168 138.078 123.363 137.718C123.513 137.407 123.736 137.137 124.014 136.933H124.086C124.375 136.767 124.592 136.757 124.757 136.933C124.85 137.049 124.916 137.184 124.952 137.329C124.987 137.473 124.991 137.623 124.964 137.77C124.934 138.202 124.799 138.621 124.571 138.989ZM124.334 140.332C124.35 140.252 124.349 140.169 124.331 140.089C124.313 140.009 124.279 139.933 124.231 139.867C124.148 139.795 124.034 139.795 123.89 139.867C123.753 139.967 123.644 140.098 123.57 140.25C123.468 140.441 123.408 140.653 123.394 140.87C123.377 140.95 123.378 141.033 123.396 141.113C123.414 141.193 123.448 141.269 123.497 141.335C123.58 141.407 123.694 141.417 123.828 141.335C123.964 141.235 124.074 141.104 124.148 140.952C124.251 140.761 124.311 140.549 124.323 140.332H124.334ZM124.385 138.121C124.385 137.728 124.261 137.573 124.014 137.718C123.889 137.824 123.787 137.955 123.716 138.103C123.645 138.25 123.605 138.412 123.601 138.576C123.601 138.968 123.725 139.144 123.962 138.999C124.09 138.891 124.194 138.756 124.267 138.605C124.34 138.454 124.38 138.289 124.385 138.121Z" fill="white"/>
<path d="M127.545 135.3C127.66 135.443 127.742 135.61 127.785 135.789C127.827 135.967 127.83 136.153 127.792 136.333C127.772 136.687 127.699 137.035 127.575 137.367L126.419 140.653L125.738 141.056L126.595 138.7H126.522C126.213 138.886 125.961 138.886 125.769 138.7C125.661 138.553 125.585 138.385 125.546 138.207C125.507 138.029 125.506 137.845 125.541 137.666C125.588 137.197 125.732 136.743 125.965 136.333C126.137 135.975 126.391 135.663 126.708 135.424L126.801 135.362C126.899 135.267 127.026 135.209 127.162 135.198C127.297 135.187 127.433 135.223 127.545 135.3ZM127.183 136.664C127.183 136.168 127.008 135.972 126.708 136.158C126.546 136.296 126.415 136.467 126.323 136.659C126.23 136.851 126.179 137.061 126.171 137.274C126.171 137.79 126.336 137.976 126.646 137.78C126.807 137.644 126.938 137.475 127.028 137.284C127.119 137.093 127.168 136.885 127.173 136.674" fill="white"/>
<path d="M128.36 134.432L130.415 133.202L130.384 133.584L128.804 139.134L128.205 139.485L129.641 134.483L128.309 135.289L128.36 134.432Z" fill="white"/>
<path d="M132.717 132.2C132.831 132.344 132.912 132.511 132.954 132.689C132.997 132.868 133.001 133.053 132.965 133.233C132.947 133.587 132.873 133.935 132.748 134.267L131.592 137.553L130.911 137.956L131.767 135.6H131.695C131.385 135.796 131.127 135.796 130.941 135.6C130.837 135.451 130.764 135.283 130.725 135.106C130.686 134.928 130.682 134.745 130.714 134.566C130.759 134.098 130.9 133.644 131.127 133.233C131.298 132.875 131.553 132.563 131.871 132.324L131.964 132.262C132.263 132.045 132.521 132.035 132.717 132.2ZM132.356 133.574C132.356 133.078 132.18 132.882 131.881 133.068C131.719 133.207 131.588 133.377 131.496 133.569C131.403 133.762 131.352 133.971 131.344 134.184C131.344 134.701 131.509 134.887 131.819 134.69C131.98 134.554 132.111 134.385 132.201 134.194C132.292 134.003 132.341 133.796 132.346 133.585" fill="white"/>
<path d="M89.2594 173.843L88.3096 176.768L89.3008 178.752L88.609 179.237L87.9482 177.904L87.2048 180.209L86.5027 180.694L87.6281 177.243L86.7815 175.559L87.4732 175.083L87.9895 176.117L88.578 174.319L89.2594 173.843Z" fill="white"/>
<path d="M95.0002 169.875L94.0503 172.8L95.0415 174.784L94.3394 175.269L93.6889 173.936L92.9352 176.241L92.2434 176.726L93.3585 173.275L92.5222 171.591L93.214 171.115L93.7302 172.149L94.3187 170.351L95.0002 169.875Z" fill="white"/>
<path d="M92.13 171.859L91.18 174.783L92.1712 176.767L91.4691 177.253L90.8187 175.92L90.065 178.224L89.3732 178.71L90.4883 175.259L89.6519 173.574L90.3437 173.099L90.86 174.132L91.4485 172.334L92.13 171.859Z" fill="white"/>
<path d="M99.0682 167.054L98.1183 169.989L99.1095 171.973L98.4074 172.459L97.7569 171.126L97.0032 173.43L96.3114 173.905L97.4368 170.464L96.5902 168.77L97.282 168.294L97.7982 169.338L98.3867 167.53L99.0682 167.054Z" fill="white"/>
<path d="M101.939 165.07L100.989 168.005L101.98 169.989L101.278 170.475L100.628 169.131L99.8738 171.446L99.182 171.921L100.307 168.48L99.4608 166.786L100.153 166.31L100.669 167.344L101.257 165.546L101.939 165.07Z" fill="white"/>
<path d="M104.809 163.086L103.859 166.021L104.851 168.005L104.159 168.48L103.498 167.147L102.755 169.452L102.042 169.937L103.168 166.496L102.331 164.802L103.023 164.326L103.539 165.36L104.128 163.562L104.809 163.086Z" fill="white"/>
<path opacity="0.32" d="M248.574 188.692L279.013 207.065L325.547 179.62L293.044 161.009" fill="url(#paint4_linear)"/>
<path d="M181.018 68.2572C179.479 69.318 178.236 70.7526 177.403 72.4263C176.571 74.1 176.176 75.958 176.258 77.8258C176.557 86.6608 178.529 88.3658 178.529 88.3658L192.602 81.4735L213.015 66.5418C213.015 66.5418 195.814 62.3155 181.018 68.2572Z" fill="#666666"/>
<path d="M155.99 117.217C155.99 117.217 152.707 129.503 169.505 142.265C186.304 155.026 248.574 188.692 248.574 188.692L294.779 161.381V140.281L173.976 98.7922" fill="white"/>
<path d="M294.779 140.281L226.84 90.4017C226.84 90.4017 216.247 81.2671 206.934 82.1351C197.62 83.0031 160.409 107.968 160.409 107.968L252.229 167.333L294.779 140.281Z" fill="#333333"/>
<path d="M214.657 129.927L226.117 138.979L254.429 121.96L243.67 113.424L214.657 129.927Z" fill="#70F9E9"/>
<path d="M200.006 122.321L251.434 161.381L286.013 141.583L234.543 102.523L200.006 122.321Z" fill="url(#paint5_linear)"/>
<path d="M252.229 165.473L196.082 123.499C196.082 123.499 171.643 99.7947 162.268 106.873C162.268 106.873 156.899 108.816 155.99 117.206C155.99 117.206 163.662 110.841 171.694 115.76C179.727 120.678 250.402 174.99 250.402 174.99L252.229 165.473Z" fill="#666666"/>
<path d="M252.229 165.473L294.779 140.281V148.403L250.402 175.001L252.229 165.473Z" fill="#515151"/>
<path d="M250.402 175.001L248.574 188.692C248.574 188.692 294.779 162.384 294.779 161.381V148.403L250.402 175.001Z" fill="#CCCCCC"/>
<path d="M195.514 109.787L218.89 97.0046C218.89 97.0046 218.56 74.3333 209.598 60.4866C208.778 59.2738 207.549 58.3973 206.137 58.0177C204.724 57.6381 203.222 57.7809 201.905 58.4199L181.07 68.2779C181.07 68.2779 189.051 63.5453 195.514 109.787Z" fill="white"/>
<path d="M196.991 82.1144L211.962 73.8994" stroke="#999999" stroke-miterlimit="10"/>
<path d="M198.044 85.5758L213.025 77.3608" stroke="#999999" stroke-miterlimit="10"/>
<path d="M198.643 88.924L213.624 80.709" stroke="#999999" stroke-miterlimit="10"/>
<path d="M200.77 102.905L215.741 94.6902" stroke="#999999" stroke-miterlimit="10"/>
<path d="M258.507 133.523C257.65 138.297 250.009 140.932 241.45 139.413C232.891 137.894 226.644 132.779 227.501 128.046C228.358 123.313 235.998 120.637 244.558 122.156C253.117 123.675 259.374 128.749 258.507 133.523Z" fill="#8CC0EA"/>
<path d="M239.767 134.773H246.613L243.877 124.75" stroke="#F2F2F2" stroke-width="2" stroke-miterlimit="10"/>
</g>
<defs>
<filter id="filter0_d" x="-12" y="-6" width="437" height="334" filterUnits="userSpaceOnUse" color-interpolation-filters="sRGB">
<feFlood flood-opacity="0" result="BackgroundImageFix"/>
<feColorMatrix in="SourceAlpha" type="matrix" values="0 0 0 0 0 0 0 0 0 0 0 0 0 0 0 0 0 0 127 0"/>
<feOffset dy="4"/>
<feGaussianBlur stdDeviation="6"/>
<feColorMatrix type="matrix" values="0 0 0 0 0 0 0 0 0 0 0 0 0 0 0 0 0 0 0.1 0"/>
<feBlend mode="normal" in2="BackgroundImageFix" result="effect1_dropShadow"/>
<feBlend mode="normal" in="SourceGraphic" in2="effect1_dropShadow" result="shape"/>
</filter>
<linearGradient id="paint0_linear" x1="206.569" y1="16.5226" x2="7.9276" y2="177.069" gradientUnits="userSpaceOnUse">
<stop stop-color="#D1CFFF"/>
<stop offset="1" stop-color="#FFCDFA"/>
</linearGradient>
<linearGradient id="paint1_linear" x1="268.894" y1="257.647" x2="262.919" y2="248.351" gradientUnits="userSpaceOnUse">
<stop stop-color="white" stop-opacity="0"/>
<stop offset="0.98" stop-color="#0800BF"/>
</linearGradient>
<linearGradient id="paint2_linear" x1="-12424.4" y1="5555.92" x2="-13043.9" y2="4660.88" gradientUnits="userSpaceOnUse">
<stop stop-color="white" stop-opacity="0"/>
<stop offset="0.98" stop-color="#0800BF"/>
</linearGradient>
<linearGradient id="paint3_linear" x1="13563.7" y1="11445.7" x2="13064" y2="9842.85" gradientUnits="userSpaceOnUse">
<stop stop-color="white" stop-opacity="0"/>
<stop offset="0.98" stop-color="#0800BF"/>
</linearGradient>
<linearGradient id="paint4_linear" x1="22067.3" y1="8739.79" x2="21685.6" y2="7567.11" gradientUnits="userSpaceOnUse">
<stop stop-color="white" stop-opacity="0"/>
<stop offset="0.98" stop-color="#0800BF"/>
</linearGradient>
<linearGradient id="paint5_linear" x1="243.022" y1="86.4076" x2="191.229" y2="122.446" gradientUnits="userSpaceOnUse">
<stop stop-color="#D1CFFF"/>
<stop offset="1" stop-color="#FFCDFA"/>
</linearGradient>
</defs>
</svg>
