<svg width="342" height="256" viewBox="0 0 342 256" fill="none" xmlns="http://www.w3.org/2000/svg">
<path d="M142.657 90.6665C142.657 90.6665 109.953 94.4724 98.2821 103.39C86.6114 112.307 88.8771 125.969 126.899 118.792C164.921 111.616 142.657 90.6665 142.657 90.6665Z" fill="#817FBC"/>
<path opacity="0.08" d="M142.657 90.6665C142.657 90.6665 109.953 94.4724 98.2821 103.39C86.6114 112.307 88.8771 125.969 126.899 118.792C164.921 111.616 142.657 90.6665 142.657 90.6665Z" fill="black"/>
<path d="M129.712 68.2668C130.854 68.1278 131.962 67.7898 132.987 67.2684C134.697 66.4151 138.373 65.5618 138.296 69.1458C138.245 71.4242 134.697 68.7276 134.457 71.7911C134.218 74.8546 134.654 78.7287 128.318 77.7644C122.539 76.8428 124.146 68.9751 129.712 68.2668Z" fill="#F3B496"/>
<path d="M231.543 87.3986C255.738 87.3986 275.353 70.6762 275.353 50.0482C275.353 29.4201 255.738 12.6978 231.543 12.6978C207.347 12.6978 187.732 29.4201 187.732 50.0482C187.732 70.6762 207.347 87.3986 231.543 87.3986Z" fill="#24285B"/>
<path opacity="0.45" d="M167.007 237.969C218.189 237.969 259.681 232.089 259.681 224.836C259.681 217.583 218.189 211.704 167.007 211.704C115.825 211.704 74.3337 217.583 74.3337 224.836C74.3337 232.089 115.825 237.969 167.007 237.969Z" fill="#E6E6E6"/>
<path opacity="0.58" d="M205.431 210.022C205.431 210.022 196.761 207.701 194.846 199.68C194.846 199.68 208.252 196.915 208.688 210.773L205.431 210.022Z" fill="#817FBC"/>
<path opacity="0.73" d="M206.491 209.16C206.491 209.16 200.403 199.646 205.687 190.694C205.687 190.694 215.947 197.12 211.433 209.16H206.491Z" fill="#817FBC"/>
<path d="M208.047 209.161C208.047 209.161 211.202 199.066 220.872 197.12C220.872 197.12 222.71 203.657 214.665 209.161H208.047Z" fill="#817FBC"/>
<path d="M201.771 208.964L203.576 220.937H214.631L216.204 208.964H201.771Z" fill="#24285B"/>
<path d="M147.436 217.813C147.436 217.813 146.213 221.414 142.982 221.739C139.75 222.063 138.946 225.246 141.879 226.005C144.811 226.765 152.25 222.908 152.25 222.908L151.933 217.788L147.436 217.813Z" fill="#817FBC"/>
<path d="M181.431 213.794C181.431 213.794 182.38 217.481 179.849 219.52C177.318 221.56 178.404 224.64 181.277 223.701C184.15 222.763 188.262 215.441 188.262 215.441L185.458 211.704L181.431 213.794Z" fill="#817FBC"/>
<path d="M153.626 65.9625C153.626 65.9625 156.739 71.4153 157.517 75.6393C157.591 76.0484 157.583 76.468 157.494 76.8741C157.405 77.2802 157.236 77.6647 156.998 78.0057C156.759 78.3466 156.456 78.6372 156.105 78.8608C155.754 79.0844 155.362 79.2366 154.952 79.3086C152.823 79.667 149.822 79.539 147.804 76.8169L143.811 72.6185C143.1 71.6925 142.693 70.5695 142.647 69.4037C142.602 68.2378 142.918 67.0864 143.555 66.1076C145.718 62.2932 151.899 62.5406 153.626 65.9625Z" fill="#F3B496"/>
<path d="M145.273 73.54L145.358 94.1139L156.713 93.252L152.207 79.0014L145.273 73.54Z" fill="#F3B496"/>
<path d="M155.413 69.5039L157.978 70.9716C158.13 71.0531 158.258 71.1722 158.35 71.3175C158.442 71.4628 158.495 71.6293 158.503 71.8009C158.512 71.9725 158.476 72.1435 158.399 72.2972C158.322 72.4509 158.207 72.5822 158.064 72.6783L156.072 74.0948L155.413 69.5039Z" fill="#F3B496"/>
<path opacity="0.31" d="M152.335 79.4028C150.944 79.265 149.617 78.7517 148.496 77.918C148.496 77.918 148.103 82.4065 153.626 83.4817L152.335 79.4028Z" fill="#EB7DB1"/>
<path d="M233.141 26.7349C237.707 26.9994 241.289 28.4415 243.889 31.0015C245.115 32.1881 246.064 33.6299 246.669 35.2243C247.273 36.8187 247.518 38.5265 247.386 40.2261C247.365 42.4205 246.775 44.5722 245.676 46.4725C244.598 48.1109 244.051 49.1178 242.392 50.2442C241.147 51.1538 239.812 51.9344 238.408 52.5738C237.468 53.0602 236.835 53.3333 236.587 53.5039C234.022 54.8778 232.577 56.1919 232.44 58.5642C232.355 60.0831 231.842 60.4842 230.38 60.3989L227.943 60.2538C226.481 60.1685 226.019 59.7162 226.105 58.1973C226.412 53.0261 228.67 50.6623 232.543 48.3839C232.483 48.3839 235.014 47.0101 235.108 46.9503C235.897 46.4916 236.644 45.9633 237.339 45.3717C238.011 44.7194 238.587 43.9753 239.049 43.1615C239.452 42.1816 239.7 41.1453 239.785 40.0895C239.998 36.3861 237.399 33.7322 232.534 33.4506C227.84 33.1775 225.241 34.9098 223.309 38.6389C222.548 40.1237 222.052 40.3455 220.616 39.7653L217.751 38.5621C216.375 38.0586 216.041 37.1199 216.623 35.8741C219.667 29.3205 225.173 26.2741 233.141 26.7349ZM229.268 63.6415C232.192 63.8122 233.107 64.8447 232.936 67.7546V68.3093C232.765 71.2789 231.739 72.1407 228.815 71.9701H228.328C225.404 71.7994 224.489 70.8351 224.66 67.857V67.3109C224.831 64.3925 225.857 63.4794 228.781 63.6501L229.268 63.6415Z" fill="#EB7DB1"/>
<path d="M152.241 89.8818H163.621C163.621 89.8818 200.07 93.0136 200.651 111.002C201.233 128.99 177.66 164.924 177.66 164.924H138.382C138.382 164.924 93.195 89.8818 152.241 89.8818Z" fill="#817FBC"/>
<path opacity="0.08" d="M175.181 106.582C175.181 106.582 166.956 118.289 170.393 127.403C173.83 136.516 175.36 151.117 148.872 136.977L145.025 124.723L134.679 121.174L130.516 138.078L137.646 140.493C139.286 141.023 140.652 142.173 141.451 143.697C142.25 145.22 142.419 146.996 141.921 148.642C140.972 151.544 138.63 154.411 133.14 154.966L138.416 164.89H177.695L182.901 156.433L197.214 125.056L175.181 106.582Z" fill="black"/>
<path d="M145.29 77.6534C145.29 77.6534 142.657 72.8406 139.51 70.7158C136.364 68.591 138.937 61.7558 144.469 60.5356C148.608 59.614 150.976 58.2572 151.01 55.9276C151.026 55.6804 151.108 55.442 151.248 55.2376C151.388 55.0332 151.58 54.8704 151.806 54.7663C152.031 54.6623 152.28 54.6209 152.527 54.6466C152.773 54.6722 153.009 54.764 153.207 54.9121C155.106 56.3372 157.046 58.6668 156.106 61.8924C155.737 63.0624 155.071 64.1169 154.172 64.953C153.272 65.789 152.171 66.3781 150.976 66.6625L147.248 67.6524C147.248 67.6524 152.241 74.3681 145.29 77.6534Z" fill="#24285B"/>
<path d="M149.796 73.6256C149.796 73.6256 148.744 71.4496 147.171 72.3797C145.598 73.3098 147.094 76.4586 149.48 75.7248L149.796 73.6256Z" fill="#F3B496"/>
<path d="M196.701 60.4585L175.078 77.218L202.361 71.4238L196.701 60.4585Z" fill="#24285B"/>
<path d="M175.369 112.017C172.36 101.043 185.552 92.8766 194.179 100.369C198.292 103.953 201.797 108.561 202.857 114.287C205.91 130.739 215.682 145.058 200.72 154.803C185.757 164.548 150.343 142.925 150.343 142.925L155.217 134.093C155.217 134.093 172.941 141.098 183.936 140.484C191.52 140.066 179.618 127.513 175.369 112.017Z" fill="#817FBC"/>
<path d="M152.722 121.899L142.035 119.352L137.919 136.558L148.605 139.105L152.722 121.899Z" fill="#EB7DB1"/>
<path opacity="0.3" d="M175.369 112.017C172.36 101.043 185.552 92.8766 194.179 100.369C198.292 103.953 201.797 108.561 202.857 114.287C205.91 130.739 215.682 145.058 200.72 154.803C185.757 164.548 150.343 142.925 150.343 142.925L155.217 134.093C155.217 134.093 172.941 141.098 183.936 140.484C191.52 140.066 179.618 127.513 175.369 112.017Z" fill="white"/>
<path d="M154.567 135.202C154.165 133.523 153.368 131.964 152.241 130.654C150.326 128.367 149.676 127.352 147.034 127.403C144.392 127.454 144.127 137.139 151.421 140.902L154.567 135.202Z" fill="#F3B496"/>
<path d="M177.66 164.924C177.66 164.924 169.794 197.521 185.543 211.226L179.995 216.405C179.995 216.405 159.577 204.578 156.73 172.083L177.66 164.924Z" fill="#24285B"/>
<path d="M125.035 71.9531L128.318 77.7473L104.31 115.507C100.599 121.336 91.3567 118.921 91.2712 112.017C91.2712 108.834 92.2374 105.003 95.0845 100.48C105.396 84.0449 125.035 71.9531 125.035 71.9531Z" fill="#817FBC"/>
<path d="M122.589 60.8436L122.363 62.5352L131.269 63.7244L131.496 62.0328L122.589 60.8436Z" fill="#C9C9C9"/>
<path d="M129.489 50.0566L128.174 51.1475L133.917 58.0448L135.232 56.954L129.489 50.0566Z" fill="#C9C9C9"/>
<path d="M140.744 47.2802L139.914 56.2104L141.617 56.3681L142.447 47.4379L140.744 47.2802Z" fill="#C9C9C9"/>
<path d="M138.382 164.924C138.382 164.924 130.31 195.354 146.222 217.788L152.652 217.481C152.652 217.481 143.332 187.128 157.175 176.026L177.695 164.932L138.382 164.924Z" fill="#24285B"/>
</svg>
