<svg width="15" height="13" viewBox="0 0 15 13" fill="none" xmlns="http://www.w3.org/2000/svg">
<path d="M14.0857 5.16833H8.77975L10.9241 3.17083C8.78758 1.25833 5.32851 1.1875 3.19203 3.1C1.05555 5.01958 1.05555 8.115 3.19203 10.0346C5.32851 11.9542 8.78758 11.9542 10.9241 10.0346C11.9884 9.08542 12.5206 7.97333 12.5206 6.57083H14.0857C14.0857 7.97333 13.3971 9.79375 12.0197 11.0262C9.27279 13.4912 4.812 13.4912 2.0651 11.0262C-0.673983 8.56833 -0.697461 4.57333 2.04944 2.11542C4.79635 -0.3425 9.20235 -0.3425 11.9493 2.11542L14.0857 0.125V5.16833ZM7.43369 3.66667V6.67708L10.1728 8.15042L9.6093 9.0075L6.2598 7.20833V3.66667H7.43369Z" fill="black" fill-opacity="0.4"/>
</svg>
