<svg width="25" height="25" viewBox="0 0 25 25" fill="none" xmlns="http://www.w3.org/2000/svg">
<path fill-rule="evenodd" clip-rule="evenodd" d="M12.5 0C5.6 0 0 5.60001 0 12.5C0 19.4 5.6 25 12.5 25C19.4 25 25 19.4 25 12.5C25 5.60001 19.4 0 12.5 0ZM10.1 11.0747C10.1625 10.6622 10.3 10.2997 10.475 9.98721C10.65 9.67471 10.9 9.4122 11.2125 9.2122C11.5125 9.0247 11.8875 8.93721 12.35 8.92471C12.6375 8.93721 12.9 8.98721 13.1375 9.0872C13.3875 9.19971 13.6125 9.3497 13.7875 9.5372C13.9625 9.7247 14.1 9.94971 14.2125 10.1997C14.325 10.4497 14.375 10.7247 14.3875 10.9997H16.625C16.6 10.4122 16.4875 9.87471 16.275 9.38721C16.0625 8.8997 15.775 8.4747 15.4 8.12471C15.025 7.7747 14.575 7.49971 14.05 7.29971C13.525 7.0997 12.95 7.01221 12.3125 7.01221C11.5 7.01221 10.7875 7.1497 10.1875 7.43721C9.58747 7.7247 9.08747 8.0997 8.68747 8.5872C8.28747 9.07471 7.98747 9.63721 7.79997 10.2872C7.61247 10.9372 7.49997 11.6122 7.49997 12.3372V12.6747C7.49997 13.3997 7.59997 14.0747 7.78747 14.7247C7.97497 15.3747 8.27497 15.9372 8.67497 16.4122C9.07497 16.8872 9.57497 17.2747 10.175 17.5497C10.775 17.8247 11.4875 17.9747 12.3 17.9747C12.8875 17.9747 13.4375 17.8747 13.95 17.6872C14.4625 17.4997 14.9125 17.2372 15.3 16.8997C15.6875 16.5622 16 16.1747 16.225 15.7247C16.45 15.2747 16.5875 14.7997 16.6 14.2872H14.3625C14.35 14.5497 14.2875 14.7872 14.175 15.0122C14.0625 15.2372 13.9125 15.4247 13.725 15.5872C13.5375 15.7497 13.325 15.8747 13.075 15.9622C12.8375 16.0497 12.5875 16.0747 12.325 16.0872C11.875 16.0747 11.5 15.9872 11.2125 15.7997C10.9 15.5997 10.65 15.3372 10.475 15.0247C10.3 14.7122 10.1625 14.3372 10.1 13.9247C10.0375 13.5122 9.99997 13.0872 9.99997 12.6747V12.3372C9.99997 11.8997 10.0375 11.4872 10.1 11.0747ZM2.49992 12.4999C2.49992 18.0124 6.98742 22.4999 12.4999 22.4999C18.0124 22.4999 22.4999 18.0124 22.4999 12.4999C22.4999 6.98738 18.0124 2.49988 12.4999 2.49988C6.98742 2.49988 2.49992 6.98738 2.49992 12.4999Z" fill="#FCA92C"/>
</svg>
