<svg width="448" height="326" viewBox="0 0 448 326" fill="none" xmlns="http://www.w3.org/2000/svg">
<path d="M448 188.965L420.985 207.999L301.037 292.115C291.825 298.741 282.231 304.821 272.305 310.325C264.217 314.687 259.592 323.014 249.803 325.235C244.942 326.078 239.965 325.992 235.136 324.981C227.24 323.698 219.471 321.729 211.918 319.096C210.997 318.779 209.678 318.589 209.265 319.477C208.851 320.365 211.076 320.27 210.297 319.667C139.978 310.15 72.7897 284.771 3.10625 271.447C2.29663 271.297 1.55768 270.889 1.00073 270.284C0.443768 269.678 0.0989716 268.909 0.018284 268.091C-0.0624035 267.273 0.125392 266.451 0.55337 265.749C0.981348 265.047 1.62633 264.503 2.39114 264.198C8.00078 261.914 14.1189 261.026 20.3007 259.82C31.4246 257.774 42.3896 255.775 53.4818 253.967C75.8369 250.102 98.4074 247.602 121.068 246.48C158.698 244.894 196.679 248.907 233.896 243.086C269.254 237.566 302.531 223.465 335.426 209.348C343.371 205.953 351.46 202.432 357.674 196.468C362.552 191.788 366.462 185.618 372.675 182.541C379.127 179.368 386.977 179.924 393.906 180.241C412.181 181.05 430.233 184.762 448 188.965Z" fill="url(#paint0_linear)"/>
<path d="M6.15734 247.829L163.227 179.622C166.629 177.918 170.469 177.282 174.24 177.798L368.511 194.279C372.23 194.802 371.563 210.759 368.511 213.313L253.776 310.8C250.32 313.845 246.183 316.019 241.713 317.14C237.242 318.26 232.567 318.295 228.08 317.24L7.53987 263.706C4.72711 263.024 3.51937 249.129 6.15734 247.829Z" fill="#FB9CCB"/>
<path d="M6.15734 247.829L163.227 179.622C166.629 177.918 170.469 177.282 174.24 177.798L368.511 194.279C372.23 194.802 371.563 210.759 368.511 213.313L253.776 310.8C250.32 313.845 246.183 316.019 241.713 317.14C237.242 318.26 232.567 318.295 228.08 317.24L7.53987 263.706C4.72711 263.024 3.51937 249.129 6.15734 247.829Z" fill="#3D467F"/>
<path d="M368.559 202.004L253.823 299.491C250.37 302.541 246.234 304.719 241.763 305.843C237.292 306.966 232.615 307.002 228.127 305.947L7.53961 252.397C4.72684 251.715 4.36134 247.274 6.98341 245.957L67.434 211.902L83.3254 202.987L131.651 175.879C135.053 174.174 138.892 173.538 142.664 174.055L366.604 193.502C370.323 193.946 371.562 199.45 368.559 202.004Z" fill="#FB9CCB"/>
<path d="M142.648 179.368L347.344 209.585L284.335 260.661L74.2675 218.23L142.648 179.368Z" fill="#FDECF4"/>
<path d="M121.226 230.888L205.578 247.908L161.956 283.423L74.2675 263.786L121.226 230.888Z" fill="#E1EEFB"/>
<path d="M79.0508 269.94C79.9133 271.67 81.1344 273.196 82.6331 274.418C84.1317 275.641 85.8737 276.531 87.7433 277.03C93.941 278.521 130.062 287.753 130.062 287.753C130.062 287.753 135.942 288.451 139.199 284.581L79.0508 269.94Z" fill="url(#paint1_linear)"/>
<path d="M136.228 173.959L367.256 206.778C368.949 207.013 370.669 206.594 372.063 205.607C373.457 204.619 374.421 203.137 374.757 201.464L407.715 35.3419C408.068 33.569 408.043 31.7417 407.641 29.9792C407.239 28.2167 406.469 26.5586 405.382 25.1129C404.295 23.6672 402.915 22.4664 401.332 21.5887C399.749 20.7111 397.998 20.1763 396.194 20.0193L168.042 0.0491157C164.684 -0.244512 161.345 0.78663 158.74 2.9215C156.135 5.05638 154.471 8.12505 154.106 11.4697L136.228 173.959Z" fill="#FB9CCB"/>
<path d="M136.228 173.959L366.652 206.683C368.514 206.946 370.406 206.488 371.94 205.402C373.473 204.317 374.533 202.686 374.9 200.846L407.715 35.3419C408.068 33.569 408.043 31.7417 407.641 29.9792C407.239 28.2167 406.469 26.5586 405.382 25.1129C404.295 23.6672 402.915 22.4664 401.332 21.5887C399.749 20.7111 397.998 20.1763 396.194 20.0193L168.042 0.0491157C164.684 -0.244512 161.345 0.78663 158.74 2.9215C156.135 5.05638 154.471 8.12505 154.106 11.4697L136.228 173.959Z" fill="#3D467F"/>
<path d="M363.077 197.229L395.892 29.6155L163.227 8.1701L144.73 166.869L363.077 197.229Z" fill="white"/>
<path d="M343.944 60.0867L180.756 43.1302L184.458 22.5097L347.694 39.4661C349.073 39.5554 350.419 39.933 351.643 40.5744C352.867 41.2157 353.942 42.1066 354.799 43.1893C355.656 44.272 356.275 45.5223 356.617 46.8593C356.959 48.1962 357.016 49.59 356.784 50.9502C356.158 53.7901 354.498 56.2969 352.125 57.9849C349.753 59.6729 346.838 60.4218 343.944 60.0867Z" fill="#FB9CCB"/>
<path opacity="0.56" d="M180.756 43.1301L312.574 56.8507L316.277 36.1667L184.458 22.4302L180.756 43.1301Z" fill="#828282"/>
<path d="M336.013 52.0366C338.8 50.9486 340.249 47.9964 339.248 45.4428C338.248 42.8891 335.177 41.701 332.39 42.7891C329.603 43.8771 328.154 46.8293 329.155 49.3829C330.155 51.9365 333.226 53.1246 336.013 52.0366Z" stroke="#828282" stroke-width="1.04" stroke-miterlimit="10"/>
<path d="M337.587 55.9941C337.476 55.7245 336.093 51.9652 336.093 51.9652" stroke="#828282" stroke-width="1.04" stroke-miterlimit="10"/>
<path opacity="0.18" d="M342.37 89.9387L175.829 72.1416L176.703 69.4133L343.228 87.2104L342.37 89.9387Z" fill="#FB9CCB"/>
<path opacity="0.18" d="M235.04 68.1127L178.801 61.4665L179.945 56.5811L236.2 62.7038L235.04 68.1127Z" fill="#FB9CCB"/>
<path opacity="0.18" d="M340.304 100.931L173.763 83.1343L174.621 80.406L341.163 98.2031L340.304 100.931Z" fill="#FB9CCB"/>
<g opacity="0.66">
<path opacity="0.18" d="M226.093 112.019L169.854 105.388L170.998 100.487L227.253 106.61L226.093 112.019Z" fill="#FB9CCB"/>
<path opacity="0.18" d="M332.979 134.828L166.438 117.031L167.312 114.287L333.853 132.1L332.979 134.828Z" fill="#FB9CCB"/>
<path opacity="0.18" d="M329.18 147.55L162.639 129.753L163.513 127.024L330.039 144.821L329.18 147.55Z" fill="#FB9CCB"/>
</g>
<path opacity="0.18" d="M325.955 175.038L159.588 153.355L160.446 150.643L326.813 172.326L325.955 175.038Z" fill="#FB9CCB"/>
<path d="M233.642 159.017C233.642 159.017 63.4456 215.264 40.1807 164.775C16.9158 114.287 144.317 100.455 144.317 100.455C144.317 100.455 -4.55338 115.254 28.8502 177.624C62.2538 239.993 243.796 178.321 243.796 178.321L233.642 159.017Z" fill="#828282"/>
<path d="M234.039 156.686C234.11 158.997 234.743 161.256 235.882 163.268L240.078 172.215C240.972 174.441 242.229 176.504 243.796 178.321C245.025 179.56 246.528 180.493 248.184 181.044C249.841 181.595 251.604 181.749 253.331 181.494C254.146 181.44 254.933 181.179 255.618 180.735C256.302 180.29 256.861 179.678 257.24 178.956C257.955 177.1 256.748 175.117 255.778 173.388C253.172 168.741 252.06 163.443 250.82 158.272C249.867 154.243 247.928 148.564 243.002 147.993C238.648 147.486 234.293 152.451 234.039 156.686Z" fill="#FB9CCB"/>
<path d="M276.787 135.843C276.787 135.843 240.777 102.961 205.578 135.843C205.578 135.843 232.784 132.338 241.174 147.296L276.787 135.843Z" fill="#FB9CCB"/>
<path d="M291.502 165.902C291.502 165.902 289.786 214.598 241.619 216.66C241.619 216.66 263.184 199.735 258.369 183.27L291.502 165.902Z" fill="#FB9CCB"/>
<path d="M241.174 147.327C241.174 147.327 354.718 82.2931 418.553 92.6985C418.553 92.6985 404.124 139.523 258.321 183.27L241.174 147.327Z" fill="#828282"/>
<path d="M418.633 92.6669C418.633 92.6669 404.204 139.491 258.401 183.239L253.204 172.341L241.174 147.327C241.174 147.327 341.957 89.5263 407 91.5883C410.897 91.694 414.783 92.0543 418.633 92.6669Z" fill="url(#paint2_linear)"/>
<path d="M418.633 92.667C408.542 105.88 373.708 130.228 302.102 156.194C298.055 157.675 293.886 159.155 289.595 160.635C278.312 164.527 266.182 168.429 253.204 172.342L241.19 147.327C241.19 147.327 253.601 139.888 272.576 130.434C282.587 125.438 294.426 119.886 307.235 114.572C342.974 99.7415 386.294 86.6553 418.633 92.667Z" fill="#828282"/>
<path d="M331.135 116.952C325.081 119.474 318.279 119.061 311.732 119.489C309.786 119.567 307.855 119.87 305.979 120.394C302.276 121.824 298.899 123.981 296.047 126.738C295.66 127.004 295.37 127.388 295.221 127.833C295.178 128.295 295.289 128.758 295.539 129.149C296.988 132.098 298.656 134.935 300.528 137.636C302.753 140.808 305.375 144.187 305.296 148.089C305.07 151.076 303.908 153.918 301.975 156.21L301.498 156.876C299.205 159.957 296.716 162.887 294.045 165.648C292.074 167.678 293.346 173.88 288.578 172.389C284.431 171.104 286.449 166.187 287.863 163.602L289.452 160.651L292.122 155.718C294.156 151.991 296.222 147.565 294.506 143.679C293.298 140.967 290.517 139.333 287.911 137.873C282.992 134.964 277.836 132.475 272.496 130.434C282.508 125.438 294.347 119.886 307.155 114.572C315.517 115.273 323.917 115.395 332.295 114.937C332.994 115.603 332.009 116.587 331.135 116.952Z" fill="url(#paint3_linear)"/>
<path d="M316.992 144.964C324.206 144.964 330.054 139.127 330.054 131.926C330.054 124.725 324.206 118.887 316.992 118.887C309.777 118.887 303.929 124.725 303.929 131.926C303.929 139.127 309.777 144.964 316.992 144.964Z" fill="#FB9CCB"/>
<path d="M316.992 140.364C321.907 140.364 325.891 136.387 325.891 131.481C325.891 126.575 321.907 122.599 316.992 122.599C312.077 122.599 308.093 126.575 308.093 131.481C308.093 136.387 312.077 140.364 316.992 140.364Z" fill="url(#paint4_linear)"/>
<path d="M297.462 103.532C297.462 103.612 295.586 103.294 295.634 103.39C296.063 103.894 296.608 104.286 297.223 104.532C299.471 105.438 301.775 106.201 304.12 106.816C306.456 107.054 307.584 104.849 308.315 102.993C308.903 101.502 309.507 100.011 310.127 98.5359C310.602 97.5871 310.904 96.561 311.017 95.5062C311.04 95.2641 311.008 95.0199 310.922 94.7924C310.77 94.5 310.515 94.274 310.206 94.158C309.738 93.9675 309.213 93.9675 308.744 94.158C307.886 94.5228 307.489 95.4904 307.06 96.3152C306.059 98.2027 304.486 99.7413 303.627 101.692C302.985 101.733 302.353 101.522 301.863 101.105L299.082 99.2972C298.949 99.1909 298.79 99.12 298.622 99.091C298.484 99.084 298.347 99.1107 298.223 99.1688C298.098 99.2269 297.989 99.3145 297.907 99.4241C297.407 100.027 297.107 100.769 297.048 101.55C296.969 101.948 296.969 102.357 297.048 102.755C297.148 103.033 297.287 103.295 297.462 103.532Z" fill="#FB9CCB"/>
<path d="M299.607 99.2182L300.592 99.8209C300.735 99.8209 300.878 99.9796 300.926 100.138C300.958 100.252 300.958 100.373 300.926 100.487L300.274 103.374C300.076 104.666 299.611 105.903 298.908 107.006C298.526 107.53 295.729 105.595 295.253 105.341C294.063 104.553 293.025 103.559 292.185 102.406C291.797 101.937 291.501 101.399 291.311 100.82C291.025 99.357 291.249 97.8398 291.947 96.5217C293.06 94.3486 294.935 95.4272 296.349 96.7596C297.355 97.6791 298.446 98.5023 299.607 99.2182Z" fill="#FB9CCB"/>
<path d="M281.665 171.263C281.714 171.471 281.825 171.659 281.983 171.802C284.249 174.008 286.95 175.72 289.913 176.83C290.093 176.931 290.295 176.985 290.501 176.989C290.699 176.947 290.875 176.837 290.997 176.676C291.12 176.516 291.18 176.318 291.168 176.117C291.129 175.715 290.98 175.331 290.739 175.006C290.156 174.085 289.503 173.21 288.785 172.389C288.115 171.837 287.688 171.046 287.593 170.184C287.655 169.755 287.767 169.335 287.927 168.931C288.403 167.139 285.416 166.774 284.16 167.202C283.451 167.632 282.854 168.224 282.42 168.931C281.986 169.637 281.727 170.437 281.665 171.263Z" fill="#FB9CCB"/>
<path d="M274.355 120.886C274.355 120.886 268.936 128.436 274.514 135.161C278.376 139.825 284.176 142.997 289.516 145.662C290.453 146.138 291.566 146.519 292.471 147.09C294.235 148.2 293.155 149.136 292.217 150.611C289.865 154.386 287.492 158.135 285.098 161.857C283.714 163.742 282.764 165.908 282.317 168.202L288.371 170.042C291.633 164.491 295.354 159.223 299.495 154.291C301.291 152.165 303.611 149.532 303.277 146.582C302.859 143.851 301.656 141.3 299.813 139.238L288.483 126.104L274.355 120.886Z" fill="#828282"/>
<path d="M300.671 84.7998C300.862 85.3549 301.402 85.7991 301.482 86.386C301.561 86.9729 300.957 87.6708 300.56 88.3211C300.163 88.9715 299.892 90.2246 299.352 91.097C299.255 91.2889 299.099 91.4446 298.907 91.5411C298.734 91.6039 298.551 91.6361 298.367 91.6363C297.645 91.6156 296.928 91.4982 296.237 91.2873C296.115 91.2093 295.969 91.1757 295.824 91.1921C295.703 91.2632 295.613 91.3761 295.57 91.5094C294.762 93.178 294.375 95.0185 294.442 96.8707C294.442 97.4735 294.442 98.2348 293.949 98.5362C293.77 98.653 293.558 98.7087 293.345 98.6948C291.947 98.6948 290.882 97.4417 290.167 96.2045C289.582 95.0923 289.129 93.9159 288.816 92.699C288.703 92.346 288.659 91.9742 288.689 91.6046C288.763 91.1741 288.914 90.7604 289.134 90.3832C289.839 89.0088 290.409 87.5691 290.834 86.0846C291.205 84.1398 291.869 82.2626 292.805 80.517C293.168 79.9626 293.696 79.5355 294.315 79.2957C295.022 79.1415 295.757 79.1798 296.444 79.4067C297.879 79.6364 299.171 80.4089 300.051 81.5639C300.322 81.9764 300.449 84.086 300.671 84.7998Z" fill="#FB9CCB"/>
<path d="M286.735 127.087C285.521 127.281 284.28 127.21 283.096 126.881C281.36 126.534 279.584 126.433 277.82 126.58C276.772 126.842 275.746 127.187 274.753 127.611C273.947 127.827 273.103 127.867 272.28 127.727C271.457 127.588 270.674 127.272 269.985 126.802C269.985 126.564 269.985 126.31 269.985 126.072C270.224 123.947 269.334 120.933 269.985 118.887C272.321 110.718 274.308 104.611 278.964 97.6C280.299 95.5855 285.559 93 287.72 91.9214C288.211 91.658 288.753 91.5013 289.309 91.4614C289.949 91.4874 290.575 91.6612 291.137 91.969C293.059 92.9049 293.806 94.6497 294.744 96.4579C295.836 98.3001 296.58 100.327 296.937 102.438C297.175 105.166 298.145 107.72 296.587 110.258C294.442 113.827 290.882 116.238 288.896 120.092C288.544 120.649 288.346 121.29 288.324 121.948C288.324 122.868 288.975 123.709 288.975 124.629C288.91 125.222 288.658 125.78 288.256 126.222C287.853 126.664 287.321 126.967 286.735 127.087Z" fill="#FB9CCB"/>
<path d="M298.987 114.223C299.75 114.572 300.576 114.874 301.228 115.127C304.962 116.315 308.835 117.019 312.749 117.221C317.672 117.842 322.649 117.932 327.591 117.491C329.61 117.336 331.567 116.723 333.312 115.698C333.821 115.365 334.345 114.763 334.091 114.207C333.943 113.96 333.721 113.766 333.455 113.652C331.547 112.647 329.394 112.197 327.242 112.352C327.242 111.606 327.051 110.654 326.32 110.591C325.589 110.527 325.16 111.527 324.731 112.177C323.778 113.763 321.553 113.938 319.773 113.922C315.659 113.982 311.552 113.562 307.537 112.669C305.524 112.19 303.572 111.482 301.72 110.559C300.529 109.956 298.129 107.466 296.953 108.799C295.777 110.131 294.681 111.019 296.27 112.431C297.079 113.162 297.996 113.767 298.987 114.223Z" fill="#FB9CCB"/>
<path d="M292.789 98.9166C292.789 98.9166 299.019 107.688 299.924 108.212C300.83 108.735 294.331 115.112 294.331 115.112C294.331 115.112 286.798 106.974 285.924 102.819C285.05 98.6628 288.943 95.8077 292.789 98.9166Z" fill="#FB9CCB"/>
<path d="M300.004 80.7072C299.737 81.0723 299.397 81.3788 299.006 81.608C298.615 81.8371 298.182 81.984 297.732 82.0396C296.948 82.164 296.157 82.2329 295.364 82.2458C295.364 82.2458 295.221 82.2458 295.173 82.2458C295.145 82.278 295.123 82.3157 295.109 82.3566C295.095 82.3975 295.09 82.4408 295.094 82.4837C295.061 83.0929 294.902 83.6888 294.629 84.2345C294.356 84.7802 293.973 85.264 293.505 85.6561C293.382 85.7331 293.282 85.843 293.219 85.9733C293.154 86.1583 293.154 86.3594 293.219 86.5444C293.33 87.1793 293.33 87.8287 293.219 88.4637C293.128 89.1084 292.826 89.7052 292.36 90.1609C292.245 90.2408 292.16 90.3586 292.122 90.494C292.121 90.6118 292.155 90.7274 292.217 90.8271C292.436 91.4899 292.391 92.2114 292.09 92.8416C291.493 92.3838 290.801 92.0639 290.064 91.9048C289.328 91.7458 288.565 91.7515 287.831 91.9216C287.385 91.9598 286.963 92.1375 286.624 92.4292C284.494 94.6657 282.746 97.3146 280.506 99.4719C279.552 100.392 278.487 101.201 277.597 102.2C276.256 103.834 275.183 105.67 274.419 107.641C273.836 109.185 273.062 110.65 272.115 112.003C271.639 112.675 271.034 113.247 270.336 113.685C269.638 114.123 268.86 114.419 268.047 114.557C267.277 114.62 266.502 114.523 265.772 114.272C265.041 114.02 264.371 113.621 263.804 113.097C262.812 112.19 262.104 111.015 261.765 109.714C261.427 108.414 261.473 107.044 261.897 105.769C262.104 105.374 262.16 104.918 262.056 104.484C261.932 104.244 261.759 104.034 261.547 103.866C260.573 102.852 260.029 101.503 260.029 100.098C260.029 98.6942 260.573 97.3443 261.547 96.3312C262.612 95.3319 265.17 94.3643 265.313 92.7147C265.456 91.065 263.979 89.4313 264.582 87.5278C264.801 86.9491 265.118 86.4124 265.52 85.9416C266.286 84.8182 267.325 83.9068 268.539 83.2927C269.768 82.8794 271.057 82.6704 272.353 82.6741C276.517 82.3885 280.871 81.0879 283.62 77.9155C284.239 77.0935 284.919 76.3193 285.654 75.5996C286.517 74.9339 287.498 74.4386 288.547 74.1403C291.068 73.1776 293.849 73.1382 296.397 74.0293C297.282 74.3982 298.072 74.9622 298.708 75.6792C299.344 76.3962 299.809 77.2475 300.068 78.1693C300.24 78.5722 300.323 79.0073 300.312 79.4451C300.301 79.8829 300.196 80.3133 300.004 80.7072Z" fill="#FC682D"/>
<path d="M299.543 87.5754C298.931 87.5547 298.321 87.5017 297.715 87.4167C297.541 87.7498 298.335 89.0029 298.51 89.0981C298.594 89.1706 298.701 89.2106 298.812 89.2106C298.923 89.2106 299.03 89.1706 299.114 89.0981C299.184 88.9981 299.233 88.8847 299.257 88.765L299.543 87.5595" fill="#828282"/>
<path d="M298.113 84.879C298.376 84.879 298.589 84.6659 298.589 84.4031C298.589 84.1403 298.376 83.9272 298.113 83.9272C297.849 83.9272 297.636 84.1403 297.636 84.4031C297.636 84.6659 297.849 84.879 298.113 84.879Z" fill="#231F20"/>
<path d="M309.465 90.4014L308.778 90.2708C308.347 90.1889 307.931 90.4713 307.849 90.9016L306.975 95.4827C306.893 95.913 307.176 96.3282 307.607 96.4102L308.294 96.5407C308.725 96.6226 309.141 96.3402 309.223 95.9099L310.097 91.3288C310.179 90.8985 309.896 90.4833 309.465 90.4014Z" fill="#FB9CCB"/>
<path d="M308.077 90.7796C307.659 90.8238 307.262 90.9819 306.928 91.2365C306.595 91.4911 306.338 91.8324 306.186 92.223C306.054 92.7317 306.081 93.2683 306.263 93.7614C306.445 94.2544 306.772 94.6806 307.203 94.983C308.077 95.5683 309.08 95.933 310.127 96.0457C310.28 96.098 310.443 96.1138 310.603 96.0917C310.763 96.0697 310.916 96.0105 311.048 95.9188C311.185 95.7685 311.274 95.5806 311.303 95.3795C311.553 94.6728 311.655 93.9225 311.605 93.1747C311.387 92.4288 310.915 91.7818 310.272 91.3448C309.628 90.9078 308.852 90.708 308.077 90.7796Z" fill="#FB9CCB"/>
<path d="M305.184 87.3691L305.026 89.1773C304.973 89.4169 305.017 89.6675 305.148 89.8752C305.278 90.0828 305.486 90.231 305.725 90.2877C308.77 90.5006 311.75 91.2751 314.513 92.5718C316.011 93.4132 317.436 94.3789 318.772 95.4587C319.312 95.8869 320.091 95.4587 320.218 94.5387L321.632 85.0215C321.759 84.1808 321.155 83.5939 320.52 83.9112C317.866 85.2594 311.906 87.7339 306.392 86.2112C305.804 86.0684 305.248 86.6236 305.184 87.3691Z" fill="#FB9CCB"/>
<path d="M282.047 169.312C281.286 169.801 280.723 170.542 280.458 171.406C280.37 171.674 280.37 171.963 280.458 172.231C280.569 172.469 280.739 172.676 280.95 172.833C283.492 175.093 286.351 176.969 289.436 178.401C289.828 178.601 290.254 178.725 290.692 178.766C290.909 178.79 291.129 178.758 291.329 178.672C291.53 178.585 291.705 178.448 291.836 178.274C291.987 178.02 292.064 177.729 292.058 177.433C292.076 176.889 291.982 176.347 291.784 175.839C291.586 175.331 291.288 174.869 290.906 174.479C290.525 174.09 290.069 173.781 289.565 173.572C289.061 173.363 288.52 173.257 287.974 173.262C287.583 173.293 287.19 173.293 286.798 173.262C286.432 173.169 286.087 173.007 285.781 172.786C284.946 172.3 284.159 171.737 283.429 171.104C282.937 170.532 282.476 169.933 282.047 169.312Z" fill="#828282"/>
<defs>
<linearGradient id="paint0_linear" x1="-238.204" y1="-115.727" x2="953.396" y2="777.132" gradientUnits="userSpaceOnUse">
<stop offset="0.01"/>
<stop offset="0.08" stop-opacity="0.69"/>
<stop offset="0.21" stop-opacity="0.32"/>
<stop offset="1" stop-opacity="0"/>
</linearGradient>
<linearGradient id="paint1_linear" x1="8538.36" y1="4388.2" x2="8420.38" y2="5410.24" gradientUnits="userSpaceOnUse">
<stop offset="0.01"/>
<stop offset="0.08" stop-opacity="0.69"/>
<stop offset="0.21" stop-opacity="0.32"/>
<stop offset="1" stop-opacity="0"/>
</linearGradient>
<linearGradient id="paint2_linear" x1="48222.4" y1="11043.8" x2="49390.8" y2="22109.2" gradientUnits="userSpaceOnUse">
<stop offset="0.01"/>
<stop offset="0.08" stop-opacity="0.69"/>
<stop offset="0.21" stop-opacity="0.32"/>
<stop offset="1" stop-opacity="0"/>
</linearGradient>
<linearGradient id="paint3_linear" x1="13205.5" y1="9444.27" x2="21203.8" y2="8803.71" gradientUnits="userSpaceOnUse">
<stop offset="0.01"/>
<stop offset="0.08" stop-opacity="0.69"/>
<stop offset="0.21" stop-opacity="0.32"/>
<stop offset="1" stop-opacity="0"/>
</linearGradient>
<linearGradient id="paint4_linear" x1="4026.53" y1="1534.94" x2="6188.03" y2="3433.07" gradientUnits="userSpaceOnUse">
<stop offset="0.01"/>
<stop offset="0.08" stop-opacity="0.69"/>
<stop offset="0.21" stop-opacity="0.32"/>
<stop offset="1" stop-opacity="0"/>
</linearGradient>
</defs>
</svg>
