<svg width="246" height="136" viewBox="0 0 246 136" fill="none" xmlns="http://www.w3.org/2000/svg">
<path d="M238.904 48.4515C242.823 48.4515 246 45.5339 246 41.9355V7.18279C246 3.58394 242.823 0.666748 238.904 0.666748H82.7886V33.2474C82.7886 36.8463 79.6113 39.7635 75.6926 39.7635C71.7739 39.7635 68.5965 36.8458 68.5965 33.2474V0.666748H7.09652C3.17734 0.666748 0 3.58394 0 7.18279V41.9355C0 45.5343 3.17734 48.4515 7.09604 48.4515C18.8344 48.4515 28.3847 57.2207 28.3847 68.0001C28.3847 78.7794 18.8349 87.5487 7.09604 87.5487C3.17734 87.5487 0 90.4658 0 94.0647V128.817C0 132.416 3.17734 135.333 7.09604 135.333H68.596V102.753C68.596 99.1539 71.7734 96.2367 75.6921 96.2367C79.6108 96.2367 82.7881 99.1544 82.7881 102.753V135.333H238.903C242.823 135.333 246 132.416 246 128.817V94.0647C246 90.4658 242.822 87.5487 238.903 87.5487C227.165 87.5487 217.615 78.7794 217.615 68.0001C217.615 57.2207 227.165 48.4515 238.904 48.4515ZM82.7886 76.6881C82.7886 80.287 79.6113 83.2042 75.6926 83.2042C71.7739 83.2042 68.5965 80.2865 68.5965 76.6881V59.3116C68.5965 55.7127 71.7739 52.7955 75.6926 52.7955C79.6113 52.7955 82.7886 55.7132 82.7886 59.3116V76.6881Z" fill="#D5C1FC"/>
</svg>
