<svg width="400" height="300" viewBox="0 0 400 300" fill="none" xmlns="http://www.w3.org/2000/svg">
<path d="M209.19 291L383.83 187.75C389.39 184.63 394.16 179.5 388.74 176.14L213.47 75.1398C210.84 73.5098 206.85 72.4398 204.17 73.9998L20.8398 180.38C15.2798 183.61 14.2798 192.63 19.8398 195.86L186.17 290.8C189.658 292.831 193.616 293.918 197.653 293.953C201.69 293.988 205.666 292.97 209.19 291Z" fill="url(#paint0_linear)"/>
<path opacity="0.32" d="M154.19 162.53L71.4401 206.5L51.3501 193.23L80.5301 174.79" fill="url(#paint1_linear)"/>
<path opacity="0.32" d="M274.12 242.88L246.55 258.92L228.63 247.91L258.1 229.07" fill="#D5C1FC"/>
<path opacity="0.32" d="M258.75 204.66L215.75 233.11L153.3 192.4L191.91 168.43" fill="url(#paint2_linear)"/>
<path d="M92.2602 66.94C91.9202 66.5 87.0102 60.17 86.4802 60.04C85.9502 59.91 75.1802 65.81 75.1802 65.81V188.81L141.88 153.48V39L92.2602 66.94Z" fill="url(#paint3_linear)"/>
<path d="M197.19 12.4396C211.1 21.1496 246.09 41.4396 258.02 48.7096C260.72 50.3696 261.13 52.8396 261.18 56.0096V204.08C260.445 204.936 259.428 205.5 258.312 205.671C257.197 205.842 256.057 205.607 255.1 205.01L196.39 171.83C193.47 170.11 191.17 168.34 191.17 164.95L191.68 15.1196C191.65 11.8796 194.43 10.7196 197.19 12.4396Z" fill="url(#paint4_linear)"/>
<path d="M191.77 14.0704L210.86 25.0704V29.1904C210.864 29.5377 210.958 29.878 211.133 30.1779C211.309 30.4777 211.559 30.7267 211.86 30.9004L226.63 39.4304C226.829 39.5576 227.059 39.6283 227.295 39.6347C227.531 39.6412 227.764 39.5832 227.97 39.467C228.176 39.3509 228.346 39.1809 228.462 38.9753C228.578 38.7698 228.636 38.5364 228.63 38.3004V35.3004L256.36 51.5604C256.625 51.7157 256.845 51.9378 256.997 52.2045C257.15 52.4711 257.23 52.7731 257.23 53.0804V201.16C257.223 201.368 257.163 201.57 257.055 201.747C256.947 201.924 256.795 202.07 256.613 202.17C256.432 202.271 256.228 202.323 256.02 202.321C255.813 202.32 255.61 202.264 255.43 202.16L191.15 165C191.042 166.149 191.248 167.306 191.747 168.347C192.245 169.388 193.017 170.274 193.98 170.91C197.31 173.03 255.82 206.14 255.82 206.14C255.82 206.14 260.45 208.23 261.82 202.71V53.7104C261.822 52.7471 261.596 51.7971 261.159 50.9384C260.723 50.0796 260.089 49.3366 259.31 48.7704C256.63 46.8204 196.95 12.1304 196.95 12.1304C196.95 12.1304 192.72 10.1804 191.77 14.0704Z" fill="#3D467F"/>
<path opacity="0.32" d="M348.85 181.41L321.28 197.45L301.19 184.18L330.38 165.74" fill="url(#paint5_linear)"/>
<path d="M349 150.43C348.14 148.59 344.35 147.2 339.8 147.2C335.25 147.2 331.27 148.66 330.55 150.57C325.2 158.06 319.93 170.25 326.55 178.43C328.146 180.29 330.129 181.778 332.361 182.788C334.593 183.799 337.02 184.308 339.47 184.28H340.26C342.71 184.308 345.137 183.799 347.369 182.788C349.601 181.778 351.585 180.29 353.18 178.43C359.73 170.2 354.35 157.9 349 150.43Z" fill="url(#paint6_linear)"/>
<path opacity="0.5" d="M339.76 155.24C344.946 155.24 349.15 153.44 349.15 151.22C349.15 149 344.946 147.2 339.76 147.2C334.574 147.2 330.37 149 330.37 151.22C330.37 153.44 334.574 155.24 339.76 155.24Z" fill="black"/>
<path d="M350.72 117.07C344.927 126.894 341.369 137.875 340.3 149.23C340.298 135.497 339.036 121.793 336.53 108.29C336.44 107.81 335.71 108.01 335.8 108.49C338.6 123.589 339.837 138.937 339.49 154.29C339.488 154.348 339.501 154.406 339.527 154.459C339.552 154.511 339.591 154.557 339.638 154.591C339.685 154.626 339.74 154.648 339.798 154.657C339.856 154.665 339.915 154.659 339.97 154.64C339.97 154.75 339.97 154.86 339.97 154.98C339.97 155.081 340.01 155.177 340.081 155.249C340.153 155.32 340.249 155.36 340.35 155.36C340.451 155.36 340.548 155.32 340.619 155.249C340.69 155.177 340.73 155.081 340.73 154.98C340.994 141.765 344.662 128.842 351.38 117.46C351.432 117.372 351.447 117.268 351.421 117.169C351.396 117.071 351.333 116.987 351.245 116.935C351.158 116.883 351.053 116.868 350.955 116.894C350.856 116.919 350.772 116.982 350.72 117.07Z" fill="url(#paint7_linear)"/>
<path d="M344.79 129.57C344.79 129.57 350.6 110.9 363.06 103.99C363.06 103.99 360.53 107.7 361.71 110.73C362.89 113.76 364.71 119.15 358.85 122.18C352.99 125.21 349.59 122.18 350.09 128.08C350.59 133.98 352.93 136.84 349.15 139.7C345.37 142.56 342.15 145.06 340.9 151.22C340.9 151.22 342.32 135.78 344.79 129.57Z" fill="url(#paint8_linear)"/>
<path d="M339.26 127.6C339.26 127.6 336.85 98.9102 331.8 91.6602C332.185 94.4325 331.688 97.2557 330.38 99.7302C328.19 103.88 325.85 105.32 327.11 110.73C328.37 116.14 333.5 115.06 333.01 120.47C332.52 125.88 328.25 124.86 330.38 131.68C332.51 138.5 339.79 143 339.79 143" fill="url(#paint9_linear)"/>
<path d="M104.6 75.92C104.6 75.92 99.3402 69.12 98.7902 68.98C98.2402 68.84 87.4902 74.75 87.4902 74.75V197.85L154.19 162.52V48L104.6 75.92Z" fill="url(#paint10_linear)"/>
<path d="M135.64 69.6496L149.06 62.1496C150.75 61.2096 149.23 58.6196 147.55 59.5596L134.13 67.0596C132.44 67.9996 133.96 70.5896 135.64 69.6496Z" fill="#F2F2F2"/>
<path d="M101.23 155.73L146.58 131.54" stroke="#F2F2F2" stroke-miterlimit="10"/>
<path d="M101.23 161.91L146.58 138.66" stroke="#F2F2F2" stroke-miterlimit="10"/>
<path d="M101.23 168.91L146.58 145.66" stroke="#F2F2F2" stroke-miterlimit="10"/>
<path d="M101.23 176.29L147.14 151.77" stroke="#F2F2F2" stroke-miterlimit="10"/>
<path d="M136.844 113.93C140.059 102.338 136.996 91.3697 130.003 89.4303C123.01 87.4909 114.735 95.3154 111.52 106.907C108.306 118.498 111.369 129.467 118.362 131.406C125.355 133.345 133.63 125.521 136.844 113.93Z" fill="white"/>
<path d="M129.802 106.698C131.033 102.259 129.667 98.0056 126.75 97.1968C123.834 96.388 120.472 99.3305 119.241 103.769C118.01 108.208 119.376 112.461 122.293 113.27C125.209 114.079 128.571 111.136 129.802 106.698Z" fill="#3D467F"/>
<path d="M115.35 129.85C115.35 129.85 118.52 111.63 126.04 111.7C133.56 111.77 134.21 121.36 134.21 121.36C134.21 121.36 130.34 128.45 124.38 130.89C118.74 133.21 115.35 129.85 115.35 129.85Z" fill="#3D467F"/>
<path d="M207.03 99.3202L238 117.27L238.25 71.0602L206.72 53.9502L207.03 99.3202Z" fill="white"/>
<path d="M223.432 85.3915C226.705 84.4838 228.238 79.7054 226.855 74.7187C225.472 69.732 221.697 66.4254 218.424 67.333C215.151 68.2407 213.619 73.0191 215.002 78.0058C216.385 82.9925 220.159 86.2992 223.432 85.3915Z" fill="#3D467F"/>
<path d="M233.43 114.54C233.43 114.54 233.72 85.9305 220.52 83.1305C212.06 81.3305 209.8 100.93 209.8 100.93L233.43 114.54Z" fill="#3D467F"/>
<path d="M244.71 152.3L199.36 128.1C197.66 127.19 196.14 129.78 197.85 130.69L243.2 154.88C244.9 155.79 246.42 153.2 244.71 152.29V152.3Z" fill="#144975"/>
<path d="M244.71 158.47L199.36 135.22C197.65 134.34 196.13 136.93 197.85 137.81L243.2 161.06C244.91 161.94 246.43 159.35 244.71 158.47Z" fill="#144975"/>
<path d="M244.71 165.47L199.36 142.23C197.64 141.35 196.13 143.94 197.85 144.82L243.2 168.06C244.92 168.94 246.43 166.35 244.71 165.47Z" fill="#144975"/>
<path d="M244.71 172.85L198.81 148.34C197.11 147.43 195.59 150.02 197.3 150.93L243.2 175.44C244.9 176.35 246.42 173.76 244.71 172.85Z" fill="#144975"/>
<path d="M245.32 101.58C244.702 99.9245 244.168 98.239 243.72 96.5297C243.52 95.3197 244.72 90.7197 243.88 90.4597C243.04 90.1997 242 93.3197 242 93.3197C242 93.3197 239.5 87.6797 238.82 87.4097C238.14 87.1397 236.11 86.9597 235.62 87.4697C235.13 87.9797 233.78 91.2697 234.38 92.3897C235.679 94.3865 237.087 96.3095 238.6 98.1497C238.82 98.3197 241.45 103.98 241.8 104.15C242.15 104.32 245.06 102.84 245.32 101.58Z" fill="#FFC9B5"/>
<path d="M272.75 119.83C272.75 119.83 259.01 114.4 256.62 112.43C254.23 110.46 245.62 100.31 245.62 100.31C245.62 100.31 240.62 102.14 240.68 104.65C240.68 104.65 247.68 116.34 250.93 119.47C254.18 122.6 266.04 130.47 268.64 130.29C271.24 130.11 272.75 119.83 272.75 119.83Z" fill="url(#paint11_linear)"/>
<path d="M264 231C264 231 260.72 228.2 257 229.28C253.28 230.36 254.08 233.12 256.4 234.85C258.72 236.58 267.65 242.59 270.4 242.53C273.15 242.47 273.75 240.26 273.81 238.74C273.658 236.395 273.387 234.058 273 231.74" fill="#2C1D1A"/>
<path d="M266 230.84C265.986 230.943 265.95 231.041 265.894 231.128C265.838 231.215 265.763 231.288 265.675 231.343C265.587 231.397 265.488 231.431 265.385 231.443C265.282 231.455 265.178 231.443 265.08 231.41C264.082 231.094 263.104 230.72 262.15 230.29C262.15 230.29 258.98 230.29 260.91 233.46C262.84 236.63 269.49 237.56 271.54 236.38C273.59 235.2 272.22 231.84 272.22 231.84" fill="#2C1D1A"/>
<path d="M256.25 237.22C256.25 237.22 252.97 234.42 249.25 235.5C245.53 236.58 246.33 239.34 248.65 241.07C250.97 242.8 259.9 248.81 262.65 248.75C265.4 248.69 266 246.48 266.06 244.96C265.908 242.614 265.637 240.278 265.25 237.96" fill="#2C1D1A"/>
<path d="M258.29 237C258.277 237.103 258.24 237.201 258.184 237.288C258.128 237.375 258.053 237.448 257.965 237.503C257.877 237.557 257.778 237.592 257.675 237.603C257.572 237.615 257.468 237.604 257.37 237.57C256.373 237.254 255.394 236.88 254.44 236.45C254.44 236.45 251.27 236.45 253.2 239.62C255.13 242.79 261.78 243.72 263.83 242.54C265.88 241.36 264.51 238 264.51 238" fill="#FFC9B5"/>
<path d="M254.85 150.76C253.78 153.18 253.2 187.83 253.61 196.76C254.02 205.69 258.29 237 258.29 237C258.29 237 260.72 240.69 264.82 240.43C268.92 240.17 268.12 236.87 268.12 236.87C268.12 236.87 273.36 239.3 275.65 233.96C276.5 231.96 280.49 176.75 280.49 170.46C280.353 162.943 278.287 155.588 274.49 149.1" fill="#2C1D1A"/>
<path d="M268.13 236.89C268.13 236.89 270.62 166.89 270.3 164.82C269.98 162.75 270.98 180.17 270.91 184.93C270.87 188.33 268.81 232.12 268.13 236.89Z" fill="#6D5854"/>
<path d="M254.85 150.76C254.85 150.76 251.23 125.97 256.38 121.29C261.53 116.61 275.84 113.29 278.51 115.62C281.18 117.95 277.17 144.24 274.51 149.12C271.85 154 256.75 152.67 254.85 150.76Z" fill="url(#paint12_linear)"/>
<path d="M261.37 103.05C261.25 103.4 258.71 113.05 263.14 114.45C267.57 115.85 268.46 110.56 268.9 110.26C269.34 109.96 270.73 109.49 270.66 108.42C270.59 107.35 268.91 107.33 268.91 107.33C268.91 107.33 268.26 104.53 266.27 103.33C264.28 102.13 261.37 103.05 261.37 103.05Z" fill="#FFC9B5"/>
<path d="M265.5 105.78C265.5 105.78 261.8 105.84 260.2 104.26C259.9 103.951 259.668 103.583 259.518 103.18C259.368 102.777 259.303 102.347 259.327 101.918C259.352 101.488 259.465 101.068 259.66 100.685C259.855 100.301 260.127 99.9626 260.46 99.6898C260.46 99.6898 259 96.7498 261.76 95.9998C261.76 95.9998 262.01 93.3098 267.51 94.5398C273.01 95.7698 278 99.6998 278.1 104.73C278.2 109.76 278.54 110.34 280.32 111.49C282.1 112.64 281.61 117.05 276.85 117.23C272.09 117.41 265.61 117 265 114.64C264.39 112.28 268 112.04 268.45 109.64C268.51 109.193 268.482 108.738 268.366 108.302C268.251 107.865 268.05 107.456 267.776 107.098C267.502 106.739 267.16 106.438 266.769 106.212C266.379 105.986 265.947 105.839 265.5 105.78Z" fill="#2C1D1A"/>
<path d="M247.7 147.19C247.7 147.19 243.89 151.25 242.79 151.69C241.106 152.461 239.487 153.367 237.95 154.4C238.464 154.876 238.917 155.414 239.3 156C239.301 156.02 239.301 156.04 239.3 156.06C239.79 155.71 240.13 155.45 240.12 155.63C240.12 156.2 236.37 161.08 235.8 161.82C235.23 162.56 236.8 164.98 236.8 164.98C239.22 165.79 242.01 163.34 243.8 161.68C245.59 160.02 246.42 156.18 247.04 155.68C247.66 155.18 252.77 151.81 253.13 150.76C253.49 149.71 247.7 147.19 247.7 147.19Z" fill="#FFC9B5"/>
<path d="M255.2 123.06C254.2 125.27 254.2 127.69 253.78 130.06C253.45 131.75 253.11 133.52 252.72 135.23C252.454 136.973 251.907 138.662 251.1 140.23C249.7 142.56 247.88 144.58 246.29 146.77C245.848 147.246 245.529 147.822 245.36 148.45C245.21 149.98 247.14 154.34 252.49 153.8C255.178 151.6 257.689 149.193 260 146.6C263 143.07 265.84 131.13 265.55 127.16C265.35 124.46 263.88 121.44 261.32 120.26C260.471 119.914 259.537 119.837 258.643 120.039C257.748 120.241 256.938 120.712 256.32 121.39C255.855 121.879 255.477 122.444 255.2 123.06Z" fill="url(#paint13_linear)"/>
<path d="M255.5 151.18C255.5 151.18 259.97 147.38 261.07 145.09C262.17 142.8 263.6 138.68 263.6 138.68C263.6 138.68 261.53 150.59 259.55 152.18C258.172 151.97 256.817 151.635 255.5 151.18Z" fill="#2C1D1A"/>
<path d="M203.27 110.8L204.59 111.54C204.759 111.625 204.895 111.762 204.98 111.93C205.052 112.111 205.069 112.309 205.03 112.5C205.022 112.64 204.97 112.773 204.88 112.88C204.839 112.912 204.788 112.929 204.735 112.929C204.683 112.929 204.632 112.912 204.59 112.88L205.06 113.96L205.8 113.54C205.743 113.51 205.692 113.469 205.651 113.419C205.61 113.369 205.579 113.312 205.56 113.25C205.526 113.085 205.526 112.915 205.56 112.75C205.563 112.675 205.583 112.601 205.62 112.535C205.656 112.469 205.708 112.412 205.77 112.37C205.841 112.345 205.918 112.337 205.993 112.347C206.067 112.358 206.139 112.386 206.2 112.43L207.37 113.08C207.577 113.178 207.751 113.335 207.87 113.53C207.963 113.716 207.991 113.927 207.95 114.13C207.95 114.36 207.84 114.49 207.72 114.54C207.641 114.563 207.557 114.567 207.476 114.554C207.395 114.54 207.318 114.508 207.25 114.46L207.04 114.35L205.68 115.11L206.8 117.43L206.93 117.5C207.121 117.599 207.277 117.752 207.38 117.94C207.474 118.122 207.505 118.329 207.47 118.53C207.47 118.77 207.34 118.91 207.22 118.96C207.038 118.987 206.852 118.944 206.7 118.84L205.38 118.1C205.216 118.017 205.083 117.884 205 117.72C204.922 117.552 204.897 117.363 204.93 117.18C204.938 117.03 204.994 116.886 205.09 116.77C205.16 116.71 205.26 116.71 205.38 116.77L204.82 115.52L204 116C204.121 116.065 204.213 116.172 204.26 116.3C204.302 116.454 204.302 116.616 204.26 116.77C204.26 117.003 204.19 117.147 204.05 117.2C203.95 117.26 203.8 117.2 203.62 117.14L202.45 116.5C202.244 116.396 202.071 116.237 201.95 116.04C201.86 115.854 201.835 115.642 201.88 115.44C201.881 115.357 201.903 115.275 201.943 115.201C201.983 115.128 202.04 115.066 202.11 115.02C202.19 114.997 202.273 114.993 202.354 115.007C202.436 115.02 202.513 115.052 202.58 115.1L202.68 115.16L204.21 114.41L203.21 112.22L203.04 112.13C202.851 112.03 202.693 111.882 202.58 111.7C202.49 111.517 202.462 111.31 202.5 111.11C202.5 110.87 202.62 110.73 202.74 110.68C202.926 110.65 203.116 110.693 203.27 110.8Z" fill="#3D467F"/>
<path d="M218.22 118.91C218.424 119.021 218.604 119.17 218.75 119.35C218.902 119.544 219.018 119.765 219.09 120C219.271 119.895 219.481 119.85 219.69 119.87C219.908 119.889 220.119 119.954 220.31 120.06C220.766 120.288 221.122 120.676 221.31 121.15C221.488 121.741 221.512 122.368 221.38 122.97L221.02 125.29H221.1C221.259 125.373 221.386 125.507 221.46 125.67C221.353 125.79 221.286 125.941 221.27 126.1C221.219 126.287 221.219 126.484 221.27 126.67C221.194 126.692 221.114 126.696 221.036 126.683C220.958 126.669 220.884 126.637 220.82 126.59L219.89 126.08C219.802 126.031 219.727 125.963 219.67 125.88C219.627 125.808 219.609 125.724 219.62 125.64L220.16 122.19C220.21 121.97 220.21 121.741 220.16 121.52C220.139 121.438 220.102 121.361 220.05 121.294C219.999 121.227 219.934 121.172 219.86 121.13C219.795 121.074 219.711 121.043 219.625 121.043C219.539 121.043 219.455 121.074 219.39 121.13C219.232 121.328 219.138 121.568 219.12 121.82L218.79 123.97H218.87C219.03 124.052 219.157 124.186 219.23 124.35C219.298 124.532 219.315 124.729 219.28 124.92C219.28 125.16 219.17 125.31 219.06 125.36C218.985 125.382 218.907 125.386 218.831 125.372C218.754 125.358 218.682 125.327 218.62 125.28L217.69 124.76C217.598 124.714 217.519 124.645 217.46 124.56C217.417 124.488 217.399 124.404 217.41 124.32L217.95 120.87C217.996 120.646 217.996 120.415 217.95 120.19C217.931 120.11 217.895 120.035 217.845 119.97C217.795 119.904 217.732 119.85 217.66 119.81C217.596 119.759 217.517 119.731 217.435 119.731C217.353 119.731 217.274 119.759 217.21 119.81C217.044 120.004 216.946 120.246 216.93 120.5L216.6 122.64L216.68 122.69C216.838 122.77 216.965 122.9 217.04 123.06C217.107 123.243 217.124 123.439 217.09 123.63C217.09 123.87 216.98 124.02 216.87 124.07C216.76 124.12 216.6 124.07 216.39 123.97L215.15 123.28C214.968 123.19 214.818 123.048 214.72 122.87C214.641 122.684 214.62 122.479 214.66 122.28C214.662 122.2 214.681 122.121 214.715 122.049C214.75 121.977 214.799 121.912 214.86 121.86C214.917 121.825 214.983 121.806 215.05 121.806C215.117 121.806 215.183 121.825 215.24 121.86H215.32L215.79 118.86L215.71 118.81C215.547 118.73 215.417 118.595 215.34 118.43C215.272 118.248 215.255 118.051 215.29 117.86C215.29 117.62 215.4 117.48 215.51 117.42C215.62 117.36 215.78 117.42 216 117.52L216.74 117.93C216.863 117.987 216.965 118.082 217.03 118.2C217.068 118.341 217.068 118.49 217.03 118.63C217.188 118.502 217.386 118.431 217.59 118.43C217.843 118.524 218.063 118.691 218.22 118.91Z" fill="#3D467F"/>
<path d="M209.95 114.5L211.28 115.23C211.447 115.317 211.583 115.453 211.67 115.62C211.747 115.803 211.768 116.005 211.73 116.2C211.722 116.337 211.669 116.467 211.58 116.57C211.51 116.64 211.42 116.63 211.3 116.57L211.76 117.66L212.51 117.24C212.453 117.212 212.402 117.173 212.361 117.125C212.319 117.077 212.288 117.021 212.27 116.96C212.231 116.796 212.231 116.624 212.27 116.46C212.273 116.383 212.293 116.308 212.329 116.241C212.366 116.173 212.417 116.115 212.48 116.07C212.551 116.045 212.627 116.037 212.702 116.047C212.777 116.058 212.848 116.086 212.91 116.13L214.08 116.77C214.284 116.872 214.457 117.028 214.58 117.22C214.671 117.41 214.696 117.625 214.65 117.83C214.65 118.05 214.54 118.19 214.42 118.24C214.333 118.261 214.242 118.263 214.154 118.246C214.066 118.229 213.983 118.193 213.91 118.14L213.7 118.02L212.34 118.79L213.46 121.1L213.59 121.18C213.783 121.273 213.944 121.423 214.05 121.61C214.142 121.796 214.17 122.007 214.13 122.21C214.13 122.45 214.01 122.59 213.88 122.63C213.783 122.646 213.683 122.643 213.587 122.621C213.491 122.599 213.4 122.557 213.32 122.5L212 121.76C211.835 121.674 211.702 121.537 211.62 121.37C211.538 121.206 211.513 121.02 211.55 120.84C211.554 120.688 211.607 120.541 211.7 120.42C211.78 120.35 211.87 120.35 211.99 120.42L211.43 119.17L210.62 119.66C210.683 119.689 210.739 119.731 210.786 119.782C210.832 119.834 210.868 119.894 210.89 119.96C210.927 120.114 210.927 120.276 210.89 120.43C210.887 120.512 210.867 120.593 210.831 120.667C210.794 120.741 210.743 120.807 210.68 120.86C210.618 120.892 210.55 120.909 210.48 120.909C210.41 120.909 210.342 120.892 210.28 120.86L209.11 120.22C208.905 120.119 208.732 119.963 208.61 119.77C208.518 119.58 208.494 119.365 208.54 119.16C208.54 118.94 208.65 118.8 208.77 118.74C208.843 118.714 208.921 118.706 208.997 118.716C209.074 118.727 209.147 118.755 209.21 118.8L209.31 118.85L210.83 118.09L209.83 115.91L209.66 115.81C209.467 115.716 209.307 115.566 209.2 115.38C209.104 115.203 209.073 114.998 209.11 114.8C209.11 114.56 209.23 114.42 209.35 114.37C209.453 114.346 209.561 114.345 209.665 114.368C209.768 114.39 209.866 114.435 209.95 114.5Z" fill="#3D467F"/>
<path d="M236.62 129.23L238 130C238.208 130.1 238.385 130.256 238.51 130.45C238.598 130.637 238.626 130.846 238.59 131.05C238.588 131.131 238.565 131.211 238.525 131.283C238.485 131.354 238.429 131.415 238.36 131.46C238.28 131.486 238.195 131.494 238.112 131.482C238.029 131.469 237.949 131.438 237.88 131.39L237.79 131.34L238.36 134.49L239.8 132.49H239.71C239.531 132.395 239.384 132.249 239.29 132.07C239.2 131.887 239.172 131.68 239.21 131.48C239.21 131.24 239.33 131.1 239.45 131.05C239.629 131.022 239.812 131.065 239.96 131.17H240.01L241.3 131.88C241.508 131.98 241.685 132.136 241.81 132.33C241.898 132.517 241.926 132.726 241.89 132.93C241.887 133.013 241.864 133.094 241.824 133.167C241.784 133.239 241.728 133.302 241.66 133.35C241.581 133.372 241.497 133.377 241.416 133.363C241.335 133.349 241.258 133.317 241.19 133.27L241.09 133.22L238 137.33L238.25 137.46C238.457 137.562 238.633 137.717 238.76 137.91C238.85 138.1 238.878 138.313 238.84 138.52C238.84 138.76 238.72 138.9 238.6 138.95C238.422 138.98 238.24 138.941 238.09 138.84L235.7 137.52C235.492 137.419 235.316 137.264 235.19 137.07C235.094 136.885 235.066 136.673 235.11 136.47C235.11 136.22 235.22 136.08 235.35 136.03C235.438 136.012 235.529 136.012 235.617 136.031C235.705 136.05 235.787 136.087 235.86 136.14H235.91L236.76 136.61L237.47 135.66L236.47 130.58L236.38 130.53C236.202 130.438 236.056 130.295 235.96 130.12C235.874 129.936 235.846 129.73 235.88 129.53C235.88 129.29 236 129.15 236.12 129.1C236.297 129.084 236.473 129.13 236.62 129.23Z" fill="#3D467F"/>
<path d="M229.85 125.49H229.9L231.29 126.26C231.496 126.359 231.672 126.51 231.8 126.7C231.888 126.887 231.916 127.096 231.88 127.3C231.877 127.382 231.854 127.463 231.812 127.535C231.77 127.606 231.711 127.667 231.64 127.71C231.57 127.736 231.494 127.746 231.419 127.737C231.344 127.728 231.273 127.702 231.21 127.66L231.11 127.61L231.69 130.76L233.13 128.76H233.04C232.857 128.667 232.707 128.52 232.61 128.34C232.528 128.155 232.503 127.949 232.54 127.75C232.54 127.51 232.617 127.37 232.77 127.33C232.858 127.313 232.949 127.315 233.036 127.334C233.124 127.353 233.207 127.389 233.28 127.44L234.56 128.15C234.775 128.249 234.956 128.409 235.08 128.61C235.171 128.792 235.196 129.001 235.15 129.2C235.15 129.283 235.129 129.366 235.089 129.439C235.049 129.512 234.991 129.574 234.92 129.62C234.847 129.645 234.769 129.653 234.693 129.642C234.617 129.632 234.544 129.604 234.48 129.56L234.38 129.51L231.29 133.67L231.54 133.81C231.747 133.908 231.92 134.065 232.04 134.26C232.132 134.452 232.16 134.67 232.12 134.88C232.12 135.11 232 135.26 231.88 135.3C231.783 135.316 231.683 135.313 231.587 135.29C231.491 135.268 231.4 135.227 231.32 135.17L228.92 133.84C228.713 133.738 228.537 133.583 228.41 133.39C228.322 133.203 228.294 132.993 228.33 132.79C228.33 132.55 228.45 132.41 228.57 132.36C228.748 132.329 228.931 132.369 229.08 132.47L229.93 132.94L230.63 132L229.63 126.91H229.54C229.357 126.817 229.207 126.67 229.11 126.49C229.024 126.309 229 126.105 229.04 125.91C229.04 125.67 229.15 125.52 229.28 125.48C229.371 125.441 229.468 125.422 229.566 125.424C229.664 125.426 229.761 125.448 229.85 125.49Z" fill="#3D467F"/>
<path d="M224.89 122.6C225.095 122.708 225.276 122.858 225.42 123.04C225.57 123.235 225.685 123.455 225.76 123.69C225.944 123.593 226.153 123.551 226.36 123.57C226.578 123.588 226.789 123.653 226.98 123.76C227.439 123.979 227.796 124.366 227.98 124.84C228.154 125.434 228.178 126.063 228.05 126.67L227.69 128.98H227.76C227.921 129.06 228.049 129.194 228.12 129.36C228.193 129.537 228.214 129.731 228.18 129.92C228.18 130.17 228.07 130.31 227.96 130.38C227.85 130.45 227.69 130.38 227.48 130.28L226.55 129.76C226.459 129.716 226.383 129.646 226.33 129.56C226.315 129.523 226.306 129.484 226.306 129.445C226.306 129.405 226.315 129.366 226.33 129.33L226.86 125.87C226.912 125.649 226.912 125.42 226.86 125.2C226.838 125.117 226.799 125.039 226.746 124.972C226.693 124.905 226.626 124.85 226.55 124.81C226.488 124.759 226.41 124.732 226.33 124.732C226.25 124.732 226.172 124.759 226.11 124.81C225.949 125.009 225.855 125.254 225.84 125.51L225.5 127.65H225.58C225.738 127.735 225.864 127.868 225.94 128.03C226.012 128.211 226.029 128.409 225.99 128.6C225.99 128.85 225.88 128.99 225.77 129.05C225.66 129.11 225.5 129.05 225.28 128.96L224.35 128.44C224.261 128.392 224.186 128.323 224.13 128.24C224.08 128.17 224.058 128.084 224.07 128L224.61 124.54C224.663 124.319 224.663 124.09 224.61 123.87C224.59 123.789 224.554 123.712 224.504 123.645C224.455 123.579 224.392 123.522 224.32 123.48C224.252 123.424 224.168 123.394 224.08 123.394C223.993 123.394 223.908 123.424 223.84 123.48C223.679 123.679 223.585 123.924 223.57 124.18L223.23 126.32H223.31C223.469 126.402 223.596 126.536 223.67 126.7C223.746 126.88 223.763 127.079 223.72 127.27C223.72 127.51 223.61 127.66 223.5 127.72C223.424 127.741 223.344 127.744 223.266 127.731C223.188 127.717 223.114 127.686 223.05 127.64L221.81 126.96C221.629 126.87 221.479 126.727 221.38 126.55C221.33 126.363 221.33 126.166 221.38 125.98C221.394 125.823 221.465 125.677 221.58 125.57C221.644 125.532 221.716 125.512 221.79 125.512C221.864 125.512 221.937 125.532 222 125.57H222.08L222.54 122.57H222.46C222.296 122.486 222.165 122.348 222.09 122.18C222.013 121.996 221.992 121.795 222.03 121.6C222.03 121.37 222.14 121.22 222.25 121.17C222.326 121.148 222.406 121.145 222.484 121.159C222.562 121.172 222.636 121.204 222.7 121.25L223.44 121.66C223.565 121.713 223.668 121.809 223.73 121.93C223.772 122.07 223.772 122.219 223.73 122.36C223.887 122.228 224.085 122.154 224.29 122.15C224.528 122.24 224.736 122.396 224.89 122.6Z" fill="#3D467F"/>
<defs>
<linearGradient id="paint0_linear" x1="421.868" y1="279.688" x2="280.611" y2="-41.9988" gradientUnits="userSpaceOnUse">
<stop stop-color="#D58ABB"/>
<stop offset="1" stop-color="#817FBC"/>
</linearGradient>
<linearGradient id="paint1_linear" x1="102.785" y1="150.492" x2="61.7591" y2="196.183" gradientUnits="userSpaceOnUse">
<stop stop-color="#D1CFFF"/>
<stop offset="1" stop-color="#FFCDFA"/>
<stop offset="1" stop-color="#FFCDFA"/>
</linearGradient>
<linearGradient id="paint2_linear" x1="22501.3" y1="12444" x2="21658.8" y2="14475.4" gradientUnits="userSpaceOnUse">
<stop stop-color="#5B1D5C"/>
<stop offset="1" stop-color="#F15A24"/>
</linearGradient>
<linearGradient id="paint3_linear" x1="103.033" y1="-43.4059" x2="244.476" y2="37.6058" gradientUnits="userSpaceOnUse">
<stop stop-color="#D5C1FC"/>
<stop offset="1" stop-color="#FB9CCB"/>
</linearGradient>
<linearGradient id="paint4_linear" x1="220.405" y1="-95.1103" x2="382.634" y2="-19.8279" gradientUnits="userSpaceOnUse">
<stop stop-color="#D5C1FC"/>
<stop offset="1" stop-color="#FB9CCB"/>
</linearGradient>
<linearGradient id="paint5_linear" x1="325.027" y1="157.058" x2="296.859" y2="177.218" gradientUnits="userSpaceOnUse">
<stop stop-color="#D1CFFF"/>
<stop offset="1" stop-color="#FFCDFA"/>
<stop offset="1" stop-color="#FFCDFA"/>
</linearGradient>
<linearGradient id="paint6_linear" x1="337.128" y1="126.803" x2="377.39" y2="172.535" gradientUnits="userSpaceOnUse">
<stop stop-color="#D5C1FC"/>
<stop offset="1" stop-color="#FB9CCB"/>
</linearGradient>
<linearGradient id="paint7_linear" x1="343.615" y1="95.0518" x2="329.974" y2="97.1978" gradientUnits="userSpaceOnUse">
<stop stop-color="#D1CFFF"/>
<stop offset="1" stop-color="#FFCDFA"/>
<stop offset="1" stop-color="#FFCDFA"/>
</linearGradient>
<linearGradient id="paint8_linear" x1="351.983" y1="91.0589" x2="333.119" y2="95.2735" gradientUnits="userSpaceOnUse">
<stop stop-color="#D1CFFF"/>
<stop offset="1" stop-color="#FFCDFA"/>
<stop offset="1" stop-color="#FFCDFA"/>
</linearGradient>
<linearGradient id="paint9_linear" x1="333.275" y1="77.6036" x2="321.793" y2="78.9916" gradientUnits="userSpaceOnUse">
<stop stop-color="#D1CFFF"/>
<stop offset="1" stop-color="#FFCDFA"/>
<stop offset="1" stop-color="#FFCDFA"/>
</linearGradient>
<linearGradient id="paint10_linear" x1="154.19" y1="127.43" x2="94.3584" y2="80.2405" gradientUnits="userSpaceOnUse">
<stop offset="0.421875" stop-color="#FDD4C1"/>
<stop offset="1" stop-color="#FB9CCB" stop-opacity="0.7"/>
</linearGradient>
<linearGradient id="paint11_linear" x1="256.72" y1="92.1004" x2="233.961" y2="103.692" gradientUnits="userSpaceOnUse">
<stop stop-color="#D1CFFF"/>
<stop offset="1" stop-color="#FFCDFA"/>
<stop offset="1" stop-color="#FFCDFA"/>
</linearGradient>
<linearGradient id="paint12_linear" x1="266.505" y1="104.553" x2="245.683" y2="111.345" gradientUnits="userSpaceOnUse">
<stop stop-color="#D1CFFF"/>
<stop offset="1" stop-color="#FFCDFA"/>
<stop offset="1" stop-color="#FFCDFA"/>
</linearGradient>
<linearGradient id="paint13_linear" x1="255.464" y1="110.642" x2="238.741" y2="115.389" gradientUnits="userSpaceOnUse">
<stop stop-color="#D1CFFF"/>
<stop offset="1" stop-color="#FFCDFA"/>
<stop offset="1" stop-color="#FFCDFA"/>
</linearGradient>
</defs>
</svg>
